%FSTAX23Y23*%
%MOIN*%
%SFA1B1*%

%IPPOS*%
%ADD10C,0.008000*%
%ADD11C,0.010000*%
%ADD12C,0.005000*%
%ADD13C,0.006000*%
%ADD14C,0.050000*%
%ADD15C,0.060000*%
%ADD16R,0.060000X0.060000*%
%LNmb979-1*%
%LPD*%
G54D10*
X503Y513D02*
X5035Y5125D01*
Y50925D02*
Y5125D01*
X503Y50875D02*
X5035Y50925D01*
X503Y50975D02*
Y51075D01*
X502Y513D02*
X5025Y5125D01*
Y50925D02*
Y5125D01*
X502Y50875D02*
X5025Y50925D01*
X502Y50975D02*
Y51075D01*
X501Y513D02*
X5015Y5125D01*
Y50925D02*
Y5125D01*
X501Y50875D02*
X5015Y50925D01*
X501Y50975D02*
Y51075D01*
X5005Y50925D02*
Y5125D01*
X5Y50875D02*
X5005Y50925D01*
X5Y513D02*
X5005Y5125D01*
X5Y50975D02*
Y51075D01*
X499Y513D02*
X4995Y5125D01*
Y50925D02*
Y5125D01*
X499Y50875D02*
X4995Y50925D01*
X499Y50975D02*
Y51075D01*
X498Y513D02*
X4985Y5125D01*
Y50925D02*
Y5125D01*
X498Y50875D02*
X4985Y50925D01*
X498Y50975D02*
Y51075D01*
X497Y513D02*
X4975Y5125D01*
Y50925D02*
Y5125D01*
X497Y50875D02*
X4975Y50925D01*
X497Y50975D02*
Y51075D01*
X496Y513D02*
X4965Y5125D01*
Y50925D02*
Y5125D01*
X496Y50875D02*
X4965Y50925D01*
X496Y50975D02*
Y51075D01*
X495Y513D02*
X4955Y5125D01*
Y50925D02*
Y5125D01*
X495Y50875D02*
X4955Y50925D01*
X495Y50975D02*
Y51075D01*
X494Y513D02*
X4945Y5125D01*
Y50925D02*
Y5125D01*
X494Y50875D02*
X4945Y50925D01*
X494Y50975D02*
Y51075D01*
X493Y513D02*
X4935Y5125D01*
Y50925D02*
Y5125D01*
X493Y50875D02*
X4935Y50925D01*
X493Y50975D02*
Y51075D01*
X492Y513D02*
X4925Y5125D01*
Y50925D02*
Y5125D01*
X492Y50875D02*
X4925Y50925D01*
X492Y50975D02*
Y51075D01*
X491Y513D02*
X4915Y5125D01*
Y50925D02*
Y5125D01*
X491Y50875D02*
X4915Y50925D01*
X491Y50975D02*
Y51075D01*
X49Y513D02*
X4905Y5125D01*
Y50925D02*
Y5125D01*
X49Y50875D02*
X4905Y50925D01*
X49Y50975D02*
Y51075D01*
X489Y513D02*
X4895Y5125D01*
Y50925D02*
Y5125D01*
X489Y50875D02*
X4895Y50925D01*
X489Y50975D02*
Y51075D01*
X488Y513D02*
X4885Y5125D01*
Y50925D02*
Y5125D01*
X488Y50875D02*
X4885Y50925D01*
X488Y50975D02*
Y51075D01*
X4875Y50925D02*
Y5125D01*
X487Y513D02*
X4875Y5125D01*
X487Y50875D02*
X4875Y50925D01*
X487Y50975D02*
Y51075D01*
X486Y513D02*
X4865Y5125D01*
Y50925D02*
Y5125D01*
X486Y50875D02*
X4865Y50925D01*
X486Y50975D02*
Y51075D01*
X485Y513D02*
X4855Y5125D01*
Y50925D02*
Y5125D01*
X485Y50875D02*
X4855Y50925D01*
X485Y50975D02*
Y51075D01*
X484Y50975D02*
Y51075D01*
Y513D02*
X4845Y5125D01*
Y50925D02*
Y5125D01*
X484Y50875D02*
X4845Y50925D01*
X483Y50875D02*
X4835Y50925D01*
Y5125*
X483Y513D02*
X4835Y5125D01*
X483Y50975D02*
Y51075D01*
X482Y513D02*
X4825Y5125D01*
Y50925D02*
Y5125D01*
X482Y50875D02*
X4825Y50925D01*
X482Y50975D02*
Y51075D01*
X481Y513D02*
X4815Y5125D01*
Y50925D02*
Y5125D01*
X481Y50875D02*
X4815Y50925D01*
X481Y50975D02*
Y51075D01*
X48Y513D02*
X4805Y5125D01*
Y50925D02*
Y5125D01*
X48Y50875D02*
X4805Y50925D01*
X48Y50975D02*
Y51075D01*
X483Y50275D02*
Y50375D01*
X482Y50275D02*
Y50375D01*
X481Y50275D02*
Y50375D01*
X48Y50275D02*
Y50375D01*
X484Y50275D02*
Y50375D01*
X485Y50275D02*
Y50375D01*
X486Y50275D02*
Y50375D01*
X487Y50275D02*
Y50375D01*
X488Y50275D02*
Y50375D01*
X489Y50275D02*
Y50375D01*
X49Y50275D02*
Y50375D01*
X491Y50275D02*
Y50375D01*
X492Y50275D02*
Y50375D01*
X493Y50275D02*
Y50375D01*
X494Y50275D02*
Y50375D01*
X495Y50275D02*
Y50375D01*
X496Y50275D02*
Y50375D01*
X497Y50275D02*
Y50375D01*
X498Y50275D02*
Y50375D01*
X499Y50275D02*
Y50375D01*
X5Y50275D02*
Y50375D01*
X501Y50275D02*
Y50375D01*
X502Y50275D02*
Y50375D01*
X503Y50275D02*
Y50375D01*
X481Y5D02*
Y50175D01*
X482Y5D02*
Y50175D01*
X483Y5D02*
Y50175D01*
X484Y5D02*
Y50175D01*
X485Y5D02*
Y50175D01*
X486Y5D02*
Y50175D01*
X487Y5D02*
Y50175D01*
X488Y5D02*
Y50175D01*
X489Y5D02*
Y50175D01*
X49Y5D02*
Y50175D01*
X491Y5D02*
Y50175D01*
X492Y5D02*
Y50175D01*
X493Y5D02*
Y50175D01*
X494Y5D02*
Y50175D01*
X495Y4999D02*
Y50175D01*
X496Y5D02*
Y50175D01*
X497Y5D02*
Y50175D01*
X498Y5D02*
Y50175D01*
X499Y5D02*
Y50175D01*
X5Y5D02*
Y50175D01*
X501Y5D02*
Y50175D01*
X502Y5D02*
Y50175D01*
X503Y5D02*
Y50175D01*
X48Y5D02*
Y50175D01*
G54D11*
X5058Y4997D02*
Y5003D01*
X506Y5001*
X5062Y5003*
Y4997*
X5064Y5003D02*
Y4997D01*
X5067*
X5068Y4998*
Y4999*
X5067Y5*
X5064*
X5067*
X5068Y5001*
Y5002*
X5067Y5003*
X5064*
X507Y4998D02*
X5071Y4997D01*
X5073*
X5074Y4998*
Y5002*
X5073Y5003*
X5071*
X507Y5002*
Y5001*
X5071Y5*
X5074*
X5076Y5003D02*
X508D01*
Y5002*
X5076Y4998*
Y4997*
X5082Y4998D02*
X5083Y4997D01*
X5085*
X5086Y4998*
Y5002*
X5085Y5003*
X5083*
X5082Y5002*
Y5001*
X5083Y5*
X5086*
X504Y4984D02*
Y49938D01*
X4785Y4984D02*
Y49938D01*
X49306Y4985D02*
X504D01*
X4785D02*
X48904D01*
X5034Y4987D02*
X504Y4985D01*
X5034Y4983D02*
X504Y4985D01*
X4785D02*
X4791Y4983D01*
X4785Y4985D02*
X4791Y4987D01*
X4771Y5135D02*
X47938D01*
X4771Y4995D02*
X47838D01*
X4772Y5083D02*
Y5135D01*
Y4995D02*
Y50438D01*
X477Y5129D02*
X4772Y5135D01*
X4774Y5129*
X4772Y4995D02*
X4774Y5001D01*
X477D02*
X4772Y4995D01*
G54D12*
X4795Y5135D02*
X504D01*
X4785Y4995D02*
Y5125D01*
X4795Y5135*
X504Y4995D02*
Y5135D01*
X4785Y4995D02*
X504D01*
G54D13*
X4896Y4983D02*
X4892D01*
X4896Y4987*
Y4988*
X4895Y4989*
X4893*
X4892Y4988*
X4902Y4989D02*
X4898D01*
Y4986*
X49Y4987*
X4901*
X4902Y4986*
Y4984*
X4901Y4983*
X4899*
X4898Y4984*
X4908Y4989D02*
X4904D01*
Y4986*
X4906Y4987*
X4907*
X4908Y4986*
Y4984*
X4907Y4983*
X4905*
X4904Y4984*
X491Y4988D02*
X4911Y4989D01*
X4913*
X4914Y4988*
Y4984*
X4913Y4983*
X4911*
X491Y4984*
Y4988*
X4916Y4983D02*
Y4987D01*
X4917*
X4918Y4986*
Y4983*
Y4986*
X4919Y4987*
X492Y4986*
Y4983*
X4922D02*
X4924D01*
X4923*
Y4987*
X4922*
X4927Y4983D02*
X4929D01*
X4928*
Y4989*
X4927*
X47756Y50454D02*
Y50474D01*
Y50464*
X47696*
X47706Y50454*
X47756Y50534D02*
X47696D01*
X47726Y50504*
Y50544*
X47706Y50564D02*
X47696Y50574D01*
Y50594*
X47706Y50604*
X47746*
X47756Y50594*
Y50574*
X47746Y50564*
X47706*
Y50624D02*
X47696Y50634D01*
Y50654*
X47706Y50664*
X47746*
X47756Y50654*
Y50634*
X47746Y50624*
X47706*
X47756Y50684D02*
X47716D01*
Y50694*
X47726Y50704*
X47756*
X47726*
X47716Y50714*
X47726Y50724*
X47756*
Y50744D02*
Y50764D01*
Y50754*
X47716*
Y50744*
X47756Y50794D02*
Y50814D01*
Y50804*
X47696*
Y50794*
G54D14*
X501Y51075D03*
X5D03*
X499D03*
X498D03*
X497D03*
X496D03*
X495D03*
X494D03*
X493D03*
X492D03*
X491D03*
X49D03*
X489D03*
X484D03*
X481D03*
X482D03*
X48D03*
X483D03*
X485D03*
X486D03*
X487D03*
X488D03*
X503D03*
X502D03*
Y50375D03*
X503D03*
X488D03*
X487D03*
X486D03*
X485D03*
X483D03*
X48D03*
X482D03*
X481D03*
X484D03*
X489D03*
X49D03*
X491D03*
X492D03*
X493D03*
X494D03*
X495D03*
X496D03*
X497D03*
X498D03*
X499D03*
X5D03*
X501D03*
X503Y50975D03*
Y50875D03*
X502Y50975D03*
Y50875D03*
X501Y50975D03*
Y50875D03*
X5Y50975D03*
Y50875D03*
X48D03*
X498Y50975D03*
Y50875D03*
X497Y50975D03*
Y50875D03*
X496Y50975D03*
Y50875D03*
X495Y50975D03*
Y50875D03*
X494Y50975D03*
Y50875D03*
X493Y50975D03*
Y50875D03*
X492Y50975D03*
Y50875D03*
X491Y50975D03*
Y50875D03*
X49Y50975D03*
Y50875D03*
X489Y50975D03*
Y50875D03*
X488Y50975D03*
Y50875D03*
X487Y50975D03*
Y50875D03*
X486Y50975D03*
Y50875D03*
X485Y50975D03*
Y50875D03*
X484Y50975D03*
Y50875D03*
X483Y50975D03*
Y50875D03*
X482Y50975D03*
Y50875D03*
X481Y50975D03*
Y50875D03*
X48Y50975D03*
X499D03*
Y50875D03*
X503Y50275D03*
Y50175D03*
X502Y50275D03*
Y50175D03*
X501Y50275D03*
Y50175D03*
X5Y50275D03*
Y50175D03*
X48D03*
X498Y50275D03*
Y50175D03*
X497Y50275D03*
Y50175D03*
X496Y50275D03*
Y50175D03*
X495Y50275D03*
Y50175D03*
X494Y50275D03*
Y50175D03*
X493Y50275D03*
Y50175D03*
X492Y50275D03*
Y50175D03*
X491Y50275D03*
Y50175D03*
X49Y50275D03*
Y50175D03*
X489Y50275D03*
Y50175D03*
X488Y50275D03*
Y50175D03*
X487Y50275D03*
Y50175D03*
X486Y50275D03*
Y50175D03*
X485Y50275D03*
Y50175D03*
X484Y50275D03*
Y50175D03*
X483Y50275D03*
Y50175D03*
X482Y50275D03*
Y50175D03*
X481Y50275D03*
Y50175D03*
X48Y50275D03*
X499D03*
Y50175D03*
G54D15*
X491Y513D03*
X486D03*
X488D03*
X503Y5D03*
X502D03*
X49Y513D03*
X489D03*
X501Y5D03*
X5D03*
X487Y513D03*
X499Y5D03*
X498D03*
X485Y513D03*
X484D03*
X483D03*
X482D03*
X481D03*
X48D03*
X503D03*
X502D03*
X501D03*
X5D03*
X499D03*
X498D03*
X497D03*
X496D03*
X495D03*
X494D03*
X493D03*
X492D03*
X497Y5D03*
X496D03*
X495D03*
X494D03*
X493D03*
X492D03*
X491D03*
X49D03*
X489D03*
X488D03*
X487D03*
X486D03*
X485D03*
X484D03*
X483D03*
X482D03*
X481D03*
G54D16*
X48Y5D03*
M02*