M48
;Layer_Color=9474304
;FILE_FORMAT=2:3
INCH,LZ
;TYPE=PLATED
T1F00S00C0.030
T2F00S00C0.040
%
T01
X48Y50175
X481
X482
X483
X484
Y50275
Y50375
X483
X482
X481
X48
Y50275
X481
X482
X483
Y50875
X484
Y50975
Y51075
X483
X482
X481
X48
Y50975
Y50875
X481
X482
Y50975
X483
X481
X485
Y51075
X486
X487
X488
X489
X49
X491
X492
X493
X494
X495
X496
X497
X498
X499
Y50975
X498
Y50875
X497
Y50975
X496
Y50875
X495
Y50975
X494
Y50875
X493
Y50975
X492
Y50875
X491
Y50975
X49
Y50875
X489
Y50975
X488
Y50875
X487
Y50975
X486
Y50875
X485
Y50375
X486
X487
X488
X489
X49
X491
X492
X493
X494
X495
X496
X497
X498
X499
Y50275
X498
Y50175
X497
Y50275
X496
Y50175
X495
Y50275
X494
Y50175
X493
Y50275
X492
Y50175
X491
Y50275
X49
Y50175
X489
Y50275
X488
Y50175
X487
Y50275
X486
Y50175
X485
Y50275
X499Y50175
Y50875
X5
X501
X502
X503
Y50975
Y51075
X502
X501
X5
Y50975
X501
X502
Y50375
X503
Y50275
Y50175
X502
Y50275
X501
Y50375
X5
Y50275
Y50175
X501
T02
X48Y5
X481
X482
X483
X484
Y513
X483
X482
X481
X48
X485
X486
X487
X488
X489
X49
X491
X492
X493
X494
X495
X496
X497
X498
X499
Y5
X498
X497
X496
X495
X494
X493
X492
X491
X49
X489
X488
X487
X486
X485
X5
X501
X502
X503
Y513
X502
X501
X5
M30
