%FSTAX23Y23*%
%MOIN*%
%SFA1B1*%

%IPPOS*%
%ADD11C,0.010000*%
%ADD12C,0.005000*%
%ADD13C,0.006000*%
%ADD17R,0.025000X0.025000*%
%LNmb979-1*%
%LPD*%
G54D11*
X5058Y4997D02*
Y5003D01*
X506Y5001*
X5062Y5003*
Y4997*
X5064Y5003D02*
Y4997D01*
X5067*
X5068Y4998*
Y4999*
X5067Y5*
X5064*
X5067*
X5068Y5001*
Y5002*
X5067Y5003*
X5064*
X507Y4998D02*
X5071Y4997D01*
X5073*
X5074Y4998*
Y5002*
X5073Y5003*
X5071*
X507Y5002*
Y5001*
X5071Y5*
X5074*
X5076Y5003D02*
X508D01*
Y5002*
X5076Y4998*
Y4997*
X5082Y4998D02*
X5083Y4997D01*
X5085*
X5086Y4998*
Y5002*
X5085Y5003*
X5083*
X5082Y5002*
Y5001*
X5083Y5*
X5086*
X504Y4984D02*
Y49938D01*
X4785Y4984D02*
Y49938D01*
X49306Y4985D02*
X504D01*
X4785D02*
X48904D01*
X5034Y4987D02*
X504Y4985D01*
X5034Y4983D02*
X504Y4985D01*
X4785D02*
X4791Y4983D01*
X4785Y4985D02*
X4791Y4987D01*
X4771Y5135D02*
X47938D01*
X4771Y4995D02*
X47838D01*
X4772Y5083D02*
Y5135D01*
Y4995D02*
Y50438D01*
X477Y5129D02*
X4772Y5135D01*
X4774Y5129*
X4772Y4995D02*
X4774Y5001D01*
X477D02*
X4772Y4995D01*
G54D12*
X47915Y51259D02*
X47942Y5124D01*
Y51269*
X47915Y51259D02*
X47955D01*
X47915Y51285D02*
X47917Y51279D01*
X47921Y51278*
X47925*
X47928Y51279*
X4793Y51283*
X47932Y51291*
X47934Y51297*
X47938Y513*
X47942Y51302*
X47947*
X47951Y513*
X47953Y51298*
X47955Y51293*
Y51285*
X47953Y51279*
X47951Y51278*
X47947Y51276*
X47942*
X47938Y51278*
X47934Y51281*
X47932Y51287*
X4793Y51295*
X47928Y51298*
X47925Y513*
X47921*
X47917Y51298*
X47915Y51293*
Y51285*
X47918Y49985D02*
X47916Y49989D01*
X4791Y49995*
X4795*
X50345Y49977D02*
X50343D01*
X50339Y49979*
X50337Y49981*
X50335Y49985*
Y49992*
X50337Y49996*
X50339Y49998*
X50343Y5*
X50346*
X5035Y49998*
X50356Y49994*
X50375Y49975*
Y50002*
X50335Y5003D02*
X50362Y50011D01*
Y50039*
X50335Y5003D02*
X50375D01*
X50345Y51247D02*
X50343D01*
X50339Y51249*
X50337Y51251*
X50335Y51255*
Y51262*
X50337Y51266*
X50339Y51268*
X50343Y5127*
X50346*
X5035Y51268*
X50356Y51264*
X50375Y51245*
Y51272*
X50335Y51303D02*
Y51284D01*
X50352Y51283*
X5035Y51284*
X50348Y5129*
Y51296*
X5035Y51302*
X50354Y51305*
X5036Y51307*
X50364*
X50369Y51305*
X50373Y51302*
X50375Y51296*
Y5129*
X50373Y51284*
X50371Y51283*
X50367Y51281*
X4795Y5135D02*
X504D01*
X4785Y4995D02*
Y5125D01*
X4795Y5135*
X504Y4995D02*
Y5135D01*
X4785Y4995D02*
X504D01*
G54D13*
X47899Y50806D02*
D01*
X47889Y50789*
X4788Y50772*
X47872Y50754*
X47866Y50736*
X47861Y50717*
X47857Y50699*
X47855Y50679*
X47854Y5066*
X47854Y50641*
X47856Y50622*
X47859Y50603*
X47863Y50584*
X47869Y50566*
X47876Y50548*
X47884Y5053*
X47893Y50514*
X47899Y50505*
X4795Y51125D02*
X4796D01*
X4795D02*
X5035D01*
X4795Y51025D02*
X5035D01*
X4795D02*
Y51125D01*
X4805Y51025D02*
Y51125D01*
X5035Y51025D02*
Y51125D01*
Y50325D02*
Y50425D01*
X4805Y50325D02*
Y50425D01*
X4795Y50325D02*
Y50425D01*
Y50325D02*
X5035D01*
X4795Y50425D02*
X5035D01*
X4795D02*
X4796D01*
X4805Y50825D02*
Y50925D01*
X4795D02*
X4805D01*
X4795Y51025D02*
X5035D01*
Y50825D02*
Y51025D01*
X4795Y50825D02*
X5035D01*
X4795D02*
Y51025D01*
X4805Y50125D02*
Y50225D01*
X4795D02*
X4805D01*
X4795Y50325D02*
X5035D01*
Y50125D02*
Y50325D01*
X4795Y50125D02*
X5035D01*
X4795D02*
Y50325D01*
X479Y50079D02*
X504D01*
Y51221*
X479D02*
X504D01*
X479Y50815D02*
Y51221D01*
Y50079D02*
Y505D01*
X4896Y4983D02*
X4892D01*
X4896Y4987*
Y4988*
X4895Y4989*
X4893*
X4892Y4988*
X4902Y4989D02*
X4898D01*
Y4986*
X49Y4987*
X4901*
X4902Y4986*
Y4984*
X4901Y4983*
X4899*
X4898Y4984*
X4908Y4989D02*
X4904D01*
Y4986*
X4906Y4987*
X4907*
X4908Y4986*
Y4984*
X4907Y4983*
X4905*
X4904Y4984*
X491Y4988D02*
X4911Y4989D01*
X4913*
X4914Y4988*
Y4984*
X4913Y4983*
X4911*
X491Y4984*
Y4988*
X4916Y4983D02*
Y4987D01*
X4917*
X4918Y4986*
Y4983*
Y4986*
X4919Y4987*
X492Y4986*
Y4983*
X4922D02*
X4924D01*
X4923*
Y4987*
X4922*
X4927Y4983D02*
X4929D01*
X4928*
Y4989*
X4927*
X47756Y50454D02*
Y50474D01*
Y50464*
X47696*
X47706Y50454*
X47756Y50534D02*
X47696D01*
X47726Y50504*
Y50544*
X47706Y50564D02*
X47696Y50574D01*
Y50594*
X47706Y50604*
X47746*
X47756Y50594*
Y50574*
X47746Y50564*
X47706*
Y50624D02*
X47696Y50634D01*
Y50654*
X47706Y50664*
X47746*
X47756Y50654*
Y50634*
X47746Y50624*
X47706*
X47756Y50684D02*
X47716D01*
Y50694*
X47726Y50704*
X47756*
X47726*
X47716Y50714*
X47726Y50724*
X47756*
Y50744D02*
Y50764D01*
Y50754*
X47716*
Y50744*
X47756Y50794D02*
Y50814D01*
Y50804*
X47696*
Y50794*
G54D17*
X47923Y50178D03*
Y50873D03*
M02*