  0
SECTION
  2
HEADER
  9
$EXTNAMES
290
1
  9
$EXTMIN
 10
110.39005
 20
326.29005
 30
0.0000
  9
$EXTMAX
 10
161.64395
 20
364.58995
 30
0.0000
  0
ENDSEC
  0
SECTION
  2
TABLES
  0
TABLE
  2
LTYPE
 70
3
  0
LTYPE
  2
BYBLOCK
 70
0
  3

 72
65
 73
0
 40
0.0000
  0
LTYPE
  2
BYLAYER
 70
0
  3

 72
65
 73
0
 40
0.0000
  0
LTYPE
  2
CONTINUOUS
 70
0
  3
Solid line
 72
65
 73
0
 40
0.0000
  0
ENDTAB
  0
TABLE
  2
LAYER
 70
6
  0
LAYER
  2
0
 70
0
 62
7
  6
CONTINUOUS
  0
LAYER
  2
COMOUTLINETOP
 70
0
 62
7
  6
CONTINUOUS
  0
LAYER
  2
TOP
 70
0
 62
7
  6
CONTINUOUS
  0
LAYER
  2
BOTTOM
 70
0
 62
6
  6
CONTINUOUS
  0
LAYER
  2
DRILL_1-2
 70
0
 62
4
  6
CONTINUOUS
  0
ENDTAB
  0
TABLE
  2
STYLE
 70
0
  0
ENDTAB
  0
ENDSEC
  0
SECTION
  2
BLOCKS
  0
BLOCK
  2
ROUND_1
  3
ROUND_1
 70
64
 10
0.0000
 20
0.0000
 30
0.0000
  0
CIRCLE
  8
0
 10
0.0000
 20
0.0000
 30
0.0000
 40
0.77495
  0
ENDBLK
  0
BLOCK
  2
ROUND_2
  3
ROUND_2
 70
64
 10
0.0000
 20
0.0000
 30
0.0000
  0
CIRCLE
  8
0
 10
0.0000
 20
0.0000
 30
0.0000
 40
0.09995
  0
ENDBLK
  0
BLOCK
  2
ROUND_3
  3
ROUND_3
 70
64
 10
0.0000
 20
0.0000
 30
0.0000
  0
CIRCLE
  8
0
 10
0.0000
 20
0.0000
 30
0.0000
 40
0.2560
  0
ENDBLK
  0
BLOCK
  2
ROUND_4
  3
ROUND_4
 70
64
 10
0.0000
 20
0.0000
 30
0.0000
  0
CIRCLE
  8
0
 10
0.0000
 20
0.0000
 30
0.0000
 40
0.51005
  0
ENDBLK
  0
ENDSEC
  0
SECTION
  2
ENTITIES
  0
POLYLINE
  8
COMOUTLINETOP
 66
1
 10
0.0000
 20
0.0000
 30
0.0000
 40
0.1999
 41
0.1999
  0
VERTEX
  8
COMOUTLINETOP
 10
110.4900
 20
364.4900
 30
0.0000
  0
VERTEX
  8
COMOUTLINETOP
 10
113.0300
 20
364.4900
 30
0.0000
  0
SEQEND
  0
POLYLINE
  8
COMOUTLINETOP
 66
1
 10
0.0000
 20
0.0000
 30
0.0000
 40
0.1999
 41
0.1999
  0
VERTEX
  8
COMOUTLINETOP
 10
110.4900
 20
326.3900
 30
0.0000
  0
VERTEX
  8
COMOUTLINETOP
 10
110.4900
 20
364.4900
 30
0.0000
  0
SEQEND
  0
POLYLINE
  8
COMOUTLINETOP
 66
1
 10
0.0000
 20
0.0000
 30
0.0000
 40
0.1999
 41
0.1999
  0
VERTEX
  8
COMOUTLINETOP
 10
113.0300
 20
326.3900
 30
0.0000
  0
VERTEX
  8
COMOUTLINETOP
 10
110.4900
 20
326.3900
 30
0.0000
  0
SEQEND
  0
POLYLINE
  8
COMOUTLINETOP
 66
1
 10
0.0000
 20
0.0000
 30
0.0000
 40
0.1999
 41
0.1999
  0
VERTEX
  8
COMOUTLINETOP
 10
113.0300
 20
364.4900
 30
0.0000
  0
VERTEX
  8
COMOUTLINETOP
 10
113.0300
 20
326.3900
 30
0.0000
  0
SEQEND
  0
POLYLINE
  8
COMOUTLINETOP
 66
1
 10
0.0000
 20
0.0000
 30
0.0000
 40
0.1999
 41
0.1999
  0
VERTEX
  8
COMOUTLINETOP
 10
128.2700
 20
364.4900
 30
0.0000
  0
VERTEX
  8
COMOUTLINETOP
 10
130.8100
 20
364.4900
 30
0.0000
  0
SEQEND
  0
POLYLINE
  8
COMOUTLINETOP
 66
1
 10
0.0000
 20
0.0000
 30
0.0000
 40
0.1999
 41
0.1999
  0
VERTEX
  8
COMOUTLINETOP
 10
128.2700
 20
326.3900
 30
0.0000
  0
VERTEX
  8
COMOUTLINETOP
 10
128.2700
 20
364.4900
 30
0.0000
  0
SEQEND
  0
POLYLINE
  8
COMOUTLINETOP
 66
1
 10
0.0000
 20
0.0000
 30
0.0000
 40
0.1999
 41
0.1999
  0
VERTEX
  8
COMOUTLINETOP
 10
130.8100
 20
326.3900
 30
0.0000
  0
VERTEX
  8
COMOUTLINETOP
 10
128.2700
 20
326.3900
 30
0.0000
  0
SEQEND
  0
POLYLINE
  8
COMOUTLINETOP
 66
1
 10
0.0000
 20
0.0000
 30
0.0000
 40
0.1999
 41
0.1999
  0
VERTEX
  8
COMOUTLINETOP
 10
130.8100
 20
364.4900
 30
0.0000
  0
VERTEX
  8
COMOUTLINETOP
 10
130.8100
 20
326.3900
 30
0.0000
  0
SEQEND
  0
POLYLINE
  8
COMOUTLINETOP
 66
1
 10
0.0000
 20
0.0000
 30
0.0000
 40
0.1999
 41
0.1999
  0
VERTEX
  8
COMOUTLINETOP
 10
143.7640
 20
364.4900
 30
0.0000
  0
VERTEX
  8
COMOUTLINETOP
 10
146.3040
 20
364.4900
 30
0.0000
  0
SEQEND
  0
POLYLINE
  8
COMOUTLINETOP
 66
1
 10
0.0000
 20
0.0000
 30
0.0000
 40
0.1999
 41
0.1999
  0
VERTEX
  8
COMOUTLINETOP
 10
143.7640
 20
326.3900
 30
0.0000
  0
VERTEX
  8
COMOUTLINETOP
 10
143.7640
 20
364.4900
 30
0.0000
  0
SEQEND
  0
POLYLINE
  8
COMOUTLINETOP
 66
1
 10
0.0000
 20
0.0000
 30
0.0000
 40
0.1999
 41
0.1999
  0
VERTEX
  8
COMOUTLINETOP
 10
146.3040
 20
326.3900
 30
0.0000
  0
VERTEX
  8
COMOUTLINETOP
 10
143.7640
 20
326.3900
 30
0.0000
  0
SEQEND
  0
POLYLINE
  8
COMOUTLINETOP
 66
1
 10
0.0000
 20
0.0000
 30
0.0000
 40
0.1999
 41
0.1999
  0
VERTEX
  8
COMOUTLINETOP
 10
146.3040
 20
364.4900
 30
0.0000
  0
VERTEX
  8
COMOUTLINETOP
 10
146.3040
 20
326.3900
 30
0.0000
  0
SEQEND
  0
POLYLINE
  8
COMOUTLINETOP
 66
1
 10
0.0000
 20
0.0000
 30
0.0000
 40
0.1999
 41
0.1999
  0
VERTEX
  8
COMOUTLINETOP
 10
159.0040
 20
364.4900
 30
0.0000
  0
VERTEX
  8
COMOUTLINETOP
 10
161.5440
 20
364.4900
 30
0.0000
  0
SEQEND
  0
POLYLINE
  8
COMOUTLINETOP
 66
1
 10
0.0000
 20
0.0000
 30
0.0000
 40
0.1999
 41
0.1999
  0
VERTEX
  8
COMOUTLINETOP
 10
159.0040
 20
326.3900
 30
0.0000
  0
VERTEX
  8
COMOUTLINETOP
 10
159.0040
 20
364.4900
 30
0.0000
  0
SEQEND
  0
POLYLINE
  8
COMOUTLINETOP
 66
1
 10
0.0000
 20
0.0000
 30
0.0000
 40
0.1999
 41
0.1999
  0
VERTEX
  8
COMOUTLINETOP
 10
161.5440
 20
326.3900
 30
0.0000
  0
VERTEX
  8
COMOUTLINETOP
 10
159.0040
 20
326.3900
 30
0.0000
  0
SEQEND
  0
POLYLINE
  8
COMOUTLINETOP
 66
1
 10
0.0000
 20
0.0000
 30
0.0000
 40
0.1999
 41
0.1999
  0
VERTEX
  8
COMOUTLINETOP
 10
161.5440
 20
364.4900
 30
0.0000
  0
VERTEX
  8
COMOUTLINETOP
 10
161.5440
 20
326.3900
 30
0.0000
  0
SEQEND
  0
INSERT
  2
ROUND_1
  8
TOP
 10
111.7600
 20
327.6600
 30
0.0000
 41
1.0000
 42
1.0000
 50
0.0000
  0
INSERT
  2
ROUND_1
  8
TOP
 10
111.7600
 20
330.2000
 30
0.0000
 41
1.0000
 42
1.0000
 50
0.0000
  0
INSERT
  2
ROUND_1
  8
TOP
 10
111.7600
 20
332.7400
 30
0.0000
 41
1.0000
 42
1.0000
 50
0.0000
  0
INSERT
  2
ROUND_1
  8
TOP
 10
111.7600
 20
335.2800
 30
0.0000
 41
1.0000
 42
1.0000
 50
0.0000
  0
INSERT
  2
ROUND_1
  8
TOP
 10
111.7600
 20
337.8200
 30
0.0000
 41
1.0000
 42
1.0000
 50
0.0000
  0
INSERT
  2
ROUND_1
  8
TOP
 10
111.7600
 20
340.3600
 30
0.0000
 41
1.0000
 42
1.0000
 50
0.0000
  0
INSERT
  2
ROUND_1
  8
TOP
 10
111.7600
 20
342.9000
 30
0.0000
 41
1.0000
 42
1.0000
 50
0.0000
  0
INSERT
  2
ROUND_1
  8
TOP
 10
111.7600
 20
345.4400
 30
0.0000
 41
1.0000
 42
1.0000
 50
0.0000
  0
INSERT
  2
ROUND_1
  8
TOP
 10
111.7600
 20
347.9800
 30
0.0000
 41
1.0000
 42
1.0000
 50
0.0000
  0
INSERT
  2
ROUND_1
  8
TOP
 10
111.7600
 20
350.5200
 30
0.0000
 41
1.0000
 42
1.0000
 50
0.0000
  0
INSERT
  2
ROUND_1
  8
TOP
 10
111.7600
 20
353.0600
 30
0.0000
 41
1.0000
 42
1.0000
 50
0.0000
  0
INSERT
  2
ROUND_1
  8
TOP
 10
111.7600
 20
355.6000
 30
0.0000
 41
1.0000
 42
1.0000
 50
0.0000
  0
INSERT
  2
ROUND_1
  8
TOP
 10
111.7600
 20
358.1400
 30
0.0000
 41
1.0000
 42
1.0000
 50
0.0000
  0
INSERT
  2
ROUND_1
  8
TOP
 10
111.7600
 20
360.6800
 30
0.0000
 41
1.0000
 42
1.0000
 50
0.0000
  0
INSERT
  2
ROUND_1
  8
TOP
 10
111.7600
 20
363.2200
 30
0.0000
 41
1.0000
 42
1.0000
 50
0.0000
  0
INSERT
  2
ROUND_1
  8
TOP
 10
129.5400
 20
327.6600
 30
0.0000
 41
1.0000
 42
1.0000
 50
0.0000
  0
INSERT
  2
ROUND_1
  8
TOP
 10
129.5400
 20
330.2000
 30
0.0000
 41
1.0000
 42
1.0000
 50
0.0000
  0
INSERT
  2
ROUND_1
  8
TOP
 10
129.5400
 20
332.7400
 30
0.0000
 41
1.0000
 42
1.0000
 50
0.0000
  0
INSERT
  2
ROUND_1
  8
TOP
 10
129.5400
 20
335.2800
 30
0.0000
 41
1.0000
 42
1.0000
 50
0.0000
  0
INSERT
  2
ROUND_1
  8
TOP
 10
129.5400
 20
337.8200
 30
0.0000
 41
1.0000
 42
1.0000
 50
0.0000
  0
INSERT
  2
ROUND_1
  8
TOP
 10
129.5400
 20
340.3600
 30
0.0000
 41
1.0000
 42
1.0000
 50
0.0000
  0
INSERT
  2
ROUND_1
  8
TOP
 10
129.5400
 20
342.9000
 30
0.0000
 41
1.0000
 42
1.0000
 50
0.0000
  0
INSERT
  2
ROUND_1
  8
TOP
 10
129.5400
 20
345.4400
 30
0.0000
 41
1.0000
 42
1.0000
 50
0.0000
  0
INSERT
  2
ROUND_1
  8
TOP
 10
129.5400
 20
347.9800
 30
0.0000
 41
1.0000
 42
1.0000
 50
0.0000
  0
INSERT
  2
ROUND_1
  8
TOP
 10
129.5400
 20
350.5200
 30
0.0000
 41
1.0000
 42
1.0000
 50
0.0000
  0
INSERT
  2
ROUND_1
  8
TOP
 10
129.5400
 20
353.0600
 30
0.0000
 41
1.0000
 42
1.0000
 50
0.0000
  0
INSERT
  2
ROUND_1
  8
TOP
 10
129.5400
 20
355.6000
 30
0.0000
 41
1.0000
 42
1.0000
 50
0.0000
  0
INSERT
  2
ROUND_1
  8
TOP
 10
129.5400
 20
358.1400
 30
0.0000
 41
1.0000
 42
1.0000
 50
0.0000
  0
INSERT
  2
ROUND_1
  8
TOP
 10
129.5400
 20
360.6800
 30
0.0000
 41
1.0000
 42
1.0000
 50
0.0000
  0
INSERT
  2
ROUND_1
  8
TOP
 10
129.5400
 20
363.2200
 30
0.0000
 41
1.0000
 42
1.0000
 50
0.0000
  0
INSERT
  2
ROUND_1
  8
TOP
 10
145.0340
 20
327.6600
 30
0.0000
 41
1.0000
 42
1.0000
 50
0.0000
  0
INSERT
  2
ROUND_1
  8
TOP
 10
145.0340
 20
330.2000
 30
0.0000
 41
1.0000
 42
1.0000
 50
0.0000
  0
INSERT
  2
ROUND_1
  8
TOP
 10
145.0340
 20
332.7400
 30
0.0000
 41
1.0000
 42
1.0000
 50
0.0000
  0
INSERT
  2
ROUND_1
  8
TOP
 10
145.0340
 20
335.2800
 30
0.0000
 41
1.0000
 42
1.0000
 50
0.0000
  0
INSERT
  2
ROUND_1
  8
TOP
 10
145.0340
 20
337.8200
 30
0.0000
 41
1.0000
 42
1.0000
 50
0.0000
  0
INSERT
  2
ROUND_1
  8
TOP
 10
145.0340
 20
340.3600
 30
0.0000
 41
1.0000
 42
1.0000
 50
0.0000
  0
INSERT
  2
ROUND_1
  8
TOP
 10
145.0340
 20
342.9000
 30
0.0000
 41
1.0000
 42
1.0000
 50
0.0000
  0
INSERT
  2
ROUND_1
  8
TOP
 10
145.0340
 20
345.4400
 30
0.0000
 41
1.0000
 42
1.0000
 50
0.0000
  0
INSERT
  2
ROUND_1
  8
TOP
 10
145.0340
 20
347.9800
 30
0.0000
 41
1.0000
 42
1.0000
 50
0.0000
  0
INSERT
  2
ROUND_1
  8
TOP
 10
145.0340
 20
350.5200
 30
0.0000
 41
1.0000
 42
1.0000
 50
0.0000
  0
INSERT
  2
ROUND_1
  8
TOP
 10
145.0340
 20
353.0600
 30
0.0000
 41
1.0000
 42
1.0000
 50
0.0000
  0
INSERT
  2
ROUND_1
  8
TOP
 10
145.0340
 20
355.6000
 30
0.0000
 41
1.0000
 42
1.0000
 50
0.0000
  0
INSERT
  2
ROUND_1
  8
TOP
 10
145.0340
 20
358.1400
 30
0.0000
 41
1.0000
 42
1.0000
 50
0.0000
  0
INSERT
  2
ROUND_1
  8
TOP
 10
145.0340
 20
360.6800
 30
0.0000
 41
1.0000
 42
1.0000
 50
0.0000
  0
INSERT
  2
ROUND_1
  8
TOP
 10
145.0340
 20
363.2200
 30
0.0000
 41
1.0000
 42
1.0000
 50
0.0000
  0
INSERT
  2
ROUND_1
  8
TOP
 10
160.2740
 20
327.6600
 30
0.0000
 41
1.0000
 42
1.0000
 50
0.0000
  0
INSERT
  2
ROUND_1
  8
TOP
 10
160.2740
 20
330.2000
 30
0.0000
 41
1.0000
 42
1.0000
 50
0.0000
  0
INSERT
  2
ROUND_1
  8
TOP
 10
160.2740
 20
332.7400
 30
0.0000
 41
1.0000
 42
1.0000
 50
0.0000
  0
INSERT
  2
ROUND_1
  8
TOP
 10
160.2740
 20
335.2800
 30
0.0000
 41
1.0000
 42
1.0000
 50
0.0000
  0
INSERT
  2
ROUND_1
  8
TOP
 10
160.2740
 20
337.8200
 30
0.0000
 41
1.0000
 42
1.0000
 50
0.0000
  0
INSERT
  2
ROUND_1
  8
TOP
 10
160.2740
 20
340.3600
 30
0.0000
 41
1.0000
 42
1.0000
 50
0.0000
  0
INSERT
  2
ROUND_1
  8
TOP
 10
160.2740
 20
342.9000
 30
0.0000
 41
1.0000
 42
1.0000
 50
0.0000
  0
INSERT
  2
ROUND_1
  8
TOP
 10
160.2740
 20
345.4400
 30
0.0000
 41
1.0000
 42
1.0000
 50
0.0000
  0
INSERT
  2
ROUND_1
  8
TOP
 10
160.2740
 20
347.9800
 30
0.0000
 41
1.0000
 42
1.0000
 50
0.0000
  0
INSERT
  2
ROUND_1
  8
TOP
 10
160.2740
 20
350.5200
 30
0.0000
 41
1.0000
 42
1.0000
 50
0.0000
  0
INSERT
  2
ROUND_1
  8
TOP
 10
160.2740
 20
353.0600
 30
0.0000
 41
1.0000
 42
1.0000
 50
0.0000
  0
INSERT
  2
ROUND_1
  8
TOP
 10
160.2740
 20
355.6000
 30
0.0000
 41
1.0000
 42
1.0000
 50
0.0000
  0
INSERT
  2
ROUND_1
  8
TOP
 10
160.2740
 20
358.1400
 30
0.0000
 41
1.0000
 42
1.0000
 50
0.0000
  0
INSERT
  2
ROUND_1
  8
TOP
 10
160.2740
 20
360.6800
 30
0.0000
 41
1.0000
 42
1.0000
 50
0.0000
  0
INSERT
  2
ROUND_1
  8
TOP
 10
160.2740
 20
363.2200
 30
0.0000
 41
1.0000
 42
1.0000
 50
0.0000
  0
POLYLINE
  8
TOP
 66
1
 10
0.0000
 20
0.0000
 30
0.0000
 40
0.5120
 41
0.5120
  0
VERTEX
  8
TOP
 10
160.2740
 20
327.6600
 30
0.0000
  0
VERTEX
  8
TOP
 10
145.0340
 20
327.6600
 30
0.0000
  0
SEQEND
  0
POLYLINE
  8
TOP
 66
1
 10
0.0000
 20
0.0000
 30
0.0000
 40
0.5120
 41
0.5120
  0
VERTEX
  8
TOP
 10
145.0340
 20
330.2000
 30
0.0000
  0
VERTEX
  8
TOP
 10
160.2740
 20
330.2000
 30
0.0000
  0
SEQEND
  0
POLYLINE
  8
TOP
 66
1
 10
0.0000
 20
0.0000
 30
0.0000
 40
0.5120
 41
0.5120
  0
VERTEX
  8
TOP
 10
160.2740
 20
332.7400
 30
0.0000
  0
VERTEX
  8
TOP
 10
145.0340
 20
332.7400
 30
0.0000
  0
SEQEND
  0
POLYLINE
  8
TOP
 66
1
 10
0.0000
 20
0.0000
 30
0.0000
 40
0.5120
 41
0.5120
  0
VERTEX
  8
TOP
 10
145.0340
 20
335.2800
 30
0.0000
  0
VERTEX
  8
TOP
 10
160.2740
 20
335.2800
 30
0.0000
  0
SEQEND
  0
POLYLINE
  8
TOP
 66
1
 10
0.0000
 20
0.0000
 30
0.0000
 40
0.5120
 41
0.5120
  0
VERTEX
  8
TOP
 10
160.2740
 20
337.8200
 30
0.0000
  0
VERTEX
  8
TOP
 10
145.0340
 20
337.8200
 30
0.0000
  0
SEQEND
  0
POLYLINE
  8
TOP
 66
1
 10
0.0000
 20
0.0000
 30
0.0000
 40
0.5120
 41
0.5120
  0
VERTEX
  8
TOP
 10
145.0340
 20
340.3600
 30
0.0000
  0
VERTEX
  8
TOP
 10
160.2740
 20
340.3600
 30
0.0000
  0
SEQEND
  0
POLYLINE
  8
TOP
 66
1
 10
0.0000
 20
0.0000
 30
0.0000
 40
0.5120
 41
0.5120
  0
VERTEX
  8
TOP
 10
145.0340
 20
342.9000
 30
0.0000
  0
VERTEX
  8
TOP
 10
160.2740
 20
342.9000
 30
0.0000
  0
SEQEND
  0
POLYLINE
  8
TOP
 66
1
 10
0.0000
 20
0.0000
 30
0.0000
 40
0.5120
 41
0.5120
  0
VERTEX
  8
TOP
 10
160.2740
 20
345.4400
 30
0.0000
  0
VERTEX
  8
TOP
 10
145.0340
 20
345.4400
 30
0.0000
  0
SEQEND
  0
POLYLINE
  8
TOP
 66
1
 10
0.0000
 20
0.0000
 30
0.0000
 40
0.5120
 41
0.5120
  0
VERTEX
  8
TOP
 10
160.2740
 20
347.9800
 30
0.0000
  0
VERTEX
  8
TOP
 10
145.0340
 20
347.9800
 30
0.0000
  0
SEQEND
  0
POLYLINE
  8
TOP
 66
1
 10
0.0000
 20
0.0000
 30
0.0000
 40
0.5120
 41
0.5120
  0
VERTEX
  8
TOP
 10
145.0340
 20
350.5200
 30
0.0000
  0
VERTEX
  8
TOP
 10
160.2740
 20
350.5200
 30
0.0000
  0
SEQEND
  0
POLYLINE
  8
TOP
 66
1
 10
0.0000
 20
0.0000
 30
0.0000
 40
0.5120
 41
0.5120
  0
VERTEX
  8
TOP
 10
160.2740
 20
353.0600
 30
0.0000
  0
VERTEX
  8
TOP
 10
145.0340
 20
353.0600
 30
0.0000
  0
SEQEND
  0
POLYLINE
  8
TOP
 66
1
 10
0.0000
 20
0.0000
 30
0.0000
 40
0.5120
 41
0.5120
  0
VERTEX
  8
TOP
 10
145.0340
 20
355.6000
 30
0.0000
  0
VERTEX
  8
TOP
 10
160.2740
 20
355.6000
 30
0.0000
  0
SEQEND
  0
POLYLINE
  8
TOP
 66
1
 10
0.0000
 20
0.0000
 30
0.0000
 40
0.5120
 41
0.5120
  0
VERTEX
  8
TOP
 10
145.0340
 20
358.1400
 30
0.0000
  0
VERTEX
  8
TOP
 10
160.2740
 20
358.1400
 30
0.0000
  0
SEQEND
  0
POLYLINE
  8
TOP
 66
1
 10
0.0000
 20
0.0000
 30
0.0000
 40
0.5120
 41
0.5120
  0
VERTEX
  8
TOP
 10
160.2740
 20
360.6800
 30
0.0000
  0
VERTEX
  8
TOP
 10
145.0340
 20
360.6800
 30
0.0000
  0
SEQEND
  0
POLYLINE
  8
TOP
 66
1
 10
0.0000
 20
0.0000
 30
0.0000
 40
0.5120
 41
0.5120
  0
VERTEX
  8
TOP
 10
145.0340
 20
363.2200
 30
0.0000
  0
VERTEX
  8
TOP
 10
160.2740
 20
363.2200
 30
0.0000
  0
SEQEND
  0
POLYLINE
  8
TOP
 66
1
 10
0.0000
 20
0.0000
 30
0.0000
 40
0.5120
 41
0.5120
  0
VERTEX
  8
TOP
 10
111.7600
 20
327.6600
 30
0.0000
  0
VERTEX
  8
TOP
 10
129.5400
 20
327.6600
 30
0.0000
  0
SEQEND
  0
POLYLINE
  8
TOP
 66
1
 10
0.0000
 20
0.0000
 30
0.0000
 40
0.5120
 41
0.5120
  0
VERTEX
  8
TOP
 10
129.5400
 20
330.2000
 30
0.0000
  0
VERTEX
  8
TOP
 10
111.7600
 20
330.2000
 30
0.0000
  0
SEQEND
  0
POLYLINE
  8
TOP
 66
1
 10
0.0000
 20
0.0000
 30
0.0000
 40
0.5120
 41
0.5120
  0
VERTEX
  8
TOP
 10
111.7600
 20
332.7400
 30
0.0000
  0
VERTEX
  8
TOP
 10
129.5400
 20
332.7400
 30
0.0000
  0
SEQEND
  0
POLYLINE
  8
TOP
 66
1
 10
0.0000
 20
0.0000
 30
0.0000
 40
0.5120
 41
0.5120
  0
VERTEX
  8
TOP
 10
111.7600
 20
335.2800
 30
0.0000
  0
VERTEX
  8
TOP
 10
129.5400
 20
335.2800
 30
0.0000
  0
SEQEND
  0
POLYLINE
  8
TOP
 66
1
 10
0.0000
 20
0.0000
 30
0.0000
 40
0.5120
 41
0.5120
  0
VERTEX
  8
TOP
 10
129.5400
 20
337.8200
 30
0.0000
  0
VERTEX
  8
TOP
 10
111.7600
 20
337.8200
 30
0.0000
  0
SEQEND
  0
POLYLINE
  8
TOP
 66
1
 10
0.0000
 20
0.0000
 30
0.0000
 40
0.5120
 41
0.5120
  0
VERTEX
  8
TOP
 10
111.7600
 20
340.3600
 30
0.0000
  0
VERTEX
  8
TOP
 10
129.5400
 20
340.3600
 30
0.0000
  0
SEQEND
  0
POLYLINE
  8
TOP
 66
1
 10
0.0000
 20
0.0000
 30
0.0000
 40
0.5120
 41
0.5120
  0
VERTEX
  8
TOP
 10
129.5400
 20
342.9000
 30
0.0000
  0
VERTEX
  8
TOP
 10
111.7600
 20
342.9000
 30
0.0000
  0
SEQEND
  0
POLYLINE
  8
TOP
 66
1
 10
0.0000
 20
0.0000
 30
0.0000
 40
0.5120
 41
0.5120
  0
VERTEX
  8
TOP
 10
111.7600
 20
345.4400
 30
0.0000
  0
VERTEX
  8
TOP
 10
129.5400
 20
345.4400
 30
0.0000
  0
SEQEND
  0
POLYLINE
  8
TOP
 66
1
 10
0.0000
 20
0.0000
 30
0.0000
 40
0.5120
 41
0.5120
  0
VERTEX
  8
TOP
 10
129.5400
 20
347.9800
 30
0.0000
  0
VERTEX
  8
TOP
 10
111.7600
 20
347.9800
 30
0.0000
  0
SEQEND
  0
POLYLINE
  8
TOP
 66
1
 10
0.0000
 20
0.0000
 30
0.0000
 40
0.5120
 41
0.5120
  0
VERTEX
  8
TOP
 10
111.7600
 20
350.5200
 30
0.0000
  0
VERTEX
  8
TOP
 10
129.5400
 20
350.5200
 30
0.0000
  0
SEQEND
  0
POLYLINE
  8
TOP
 66
1
 10
0.0000
 20
0.0000
 30
0.0000
 40
0.5120
 41
0.5120
  0
VERTEX
  8
TOP
 10
111.7600
 20
353.0600
 30
0.0000
  0
VERTEX
  8
TOP
 10
129.5400
 20
353.0600
 30
0.0000
  0
SEQEND
  0
POLYLINE
  8
TOP
 66
1
 10
0.0000
 20
0.0000
 30
0.0000
 40
0.5120
 41
0.5120
  0
VERTEX
  8
TOP
 10
129.5400
 20
355.6000
 30
0.0000
  0
VERTEX
  8
TOP
 10
111.7600
 20
355.6000
 30
0.0000
  0
SEQEND
  0
POLYLINE
  8
TOP
 66
1
 10
0.0000
 20
0.0000
 30
0.0000
 40
0.5120
 41
0.5120
  0
VERTEX
  8
TOP
 10
111.7600
 20
358.1400
 30
0.0000
  0
VERTEX
  8
TOP
 10
129.5400
 20
358.1400
 30
0.0000
  0
SEQEND
  0
POLYLINE
  8
TOP
 66
1
 10
0.0000
 20
0.0000
 30
0.0000
 40
0.5120
 41
0.5120
  0
VERTEX
  8
TOP
 10
129.5400
 20
360.6800
 30
0.0000
  0
VERTEX
  8
TOP
 10
111.7600
 20
360.6800
 30
0.0000
  0
SEQEND
  0
POLYLINE
  8
TOP
 66
1
 10
0.0000
 20
0.0000
 30
0.0000
 40
0.5120
 41
0.5120
  0
VERTEX
  8
TOP
 10
111.7600
 20
363.2200
 30
0.0000
  0
VERTEX
  8
TOP
 10
129.5400
 20
363.2200
 30
0.0000
  0
SEQEND
  0
INSERT
  2
ROUND_1
  8
BOTTOM
 10
111.7600
 20
327.6600
 30
0.0000
 41
1.0000
 42
1.0000
 50
0.0000
  0
INSERT
  2
ROUND_1
  8
BOTTOM
 10
111.7600
 20
330.2000
 30
0.0000
 41
1.0000
 42
1.0000
 50
0.0000
  0
INSERT
  2
ROUND_1
  8
BOTTOM
 10
111.7600
 20
332.7400
 30
0.0000
 41
1.0000
 42
1.0000
 50
0.0000
  0
INSERT
  2
ROUND_1
  8
BOTTOM
 10
111.7600
 20
335.2800
 30
0.0000
 41
1.0000
 42
1.0000
 50
0.0000
  0
INSERT
  2
ROUND_1
  8
BOTTOM
 10
111.7600
 20
337.8200
 30
0.0000
 41
1.0000
 42
1.0000
 50
0.0000
  0
INSERT
  2
ROUND_1
  8
BOTTOM
 10
111.7600
 20
340.3600
 30
0.0000
 41
1.0000
 42
1.0000
 50
0.0000
  0
INSERT
  2
ROUND_1
  8
BOTTOM
 10
111.7600
 20
342.9000
 30
0.0000
 41
1.0000
 42
1.0000
 50
0.0000
  0
INSERT
  2
ROUND_1
  8
BOTTOM
 10
111.7600
 20
345.4400
 30
0.0000
 41
1.0000
 42
1.0000
 50
0.0000
  0
INSERT
  2
ROUND_1
  8
BOTTOM
 10
111.7600
 20
347.9800
 30
0.0000
 41
1.0000
 42
1.0000
 50
0.0000
  0
INSERT
  2
ROUND_1
  8
BOTTOM
 10
111.7600
 20
350.5200
 30
0.0000
 41
1.0000
 42
1.0000
 50
0.0000
  0
INSERT
  2
ROUND_1
  8
BOTTOM
 10
111.7600
 20
353.0600
 30
0.0000
 41
1.0000
 42
1.0000
 50
0.0000
  0
INSERT
  2
ROUND_1
  8
BOTTOM
 10
111.7600
 20
355.6000
 30
0.0000
 41
1.0000
 42
1.0000
 50
0.0000
  0
INSERT
  2
ROUND_1
  8
BOTTOM
 10
111.7600
 20
358.1400
 30
0.0000
 41
1.0000
 42
1.0000
 50
0.0000
  0
INSERT
  2
ROUND_1
  8
BOTTOM
 10
111.7600
 20
360.6800
 30
0.0000
 41
1.0000
 42
1.0000
 50
0.0000
  0
INSERT
  2
ROUND_1
  8
BOTTOM
 10
111.7600
 20
363.2200
 30
0.0000
 41
1.0000
 42
1.0000
 50
0.0000
  0
INSERT
  2
ROUND_1
  8
BOTTOM
 10
129.5400
 20
327.6600
 30
0.0000
 41
1.0000
 42
1.0000
 50
0.0000
  0
INSERT
  2
ROUND_1
  8
BOTTOM
 10
129.5400
 20
330.2000
 30
0.0000
 41
1.0000
 42
1.0000
 50
0.0000
  0
INSERT
  2
ROUND_1
  8
BOTTOM
 10
129.5400
 20
332.7400
 30
0.0000
 41
1.0000
 42
1.0000
 50
0.0000
  0
INSERT
  2
ROUND_1
  8
BOTTOM
 10
129.5400
 20
335.2800
 30
0.0000
 41
1.0000
 42
1.0000
 50
0.0000
  0
INSERT
  2
ROUND_1
  8
BOTTOM
 10
129.5400
 20
337.8200
 30
0.0000
 41
1.0000
 42
1.0000
 50
0.0000
  0
INSERT
  2
ROUND_1
  8
BOTTOM
 10
129.5400
 20
340.3600
 30
0.0000
 41
1.0000
 42
1.0000
 50
0.0000
  0
INSERT
  2
ROUND_1
  8
BOTTOM
 10
129.5400
 20
342.9000
 30
0.0000
 41
1.0000
 42
1.0000
 50
0.0000
  0
INSERT
  2
ROUND_1
  8
BOTTOM
 10
129.5400
 20
345.4400
 30
0.0000
 41
1.0000
 42
1.0000
 50
0.0000
  0
INSERT
  2
ROUND_1
  8
BOTTOM
 10
129.5400
 20
347.9800
 30
0.0000
 41
1.0000
 42
1.0000
 50
0.0000
  0
INSERT
  2
ROUND_1
  8
BOTTOM
 10
129.5400
 20
350.5200
 30
0.0000
 41
1.0000
 42
1.0000
 50
0.0000
  0
INSERT
  2
ROUND_1
  8
BOTTOM
 10
129.5400
 20
353.0600
 30
0.0000
 41
1.0000
 42
1.0000
 50
0.0000
  0
INSERT
  2
ROUND_1
  8
BOTTOM
 10
129.5400
 20
355.6000
 30
0.0000
 41
1.0000
 42
1.0000
 50
0.0000
  0
INSERT
  2
ROUND_1
  8
BOTTOM
 10
129.5400
 20
358.1400
 30
0.0000
 41
1.0000
 42
1.0000
 50
0.0000
  0
INSERT
  2
ROUND_1
  8
BOTTOM
 10
129.5400
 20
360.6800
 30
0.0000
 41
1.0000
 42
1.0000
 50
0.0000
  0
INSERT
  2
ROUND_1
  8
BOTTOM
 10
129.5400
 20
363.2200
 30
0.0000
 41
1.0000
 42
1.0000
 50
0.0000
  0
INSERT
  2
ROUND_1
  8
BOTTOM
 10
145.0340
 20
327.6600
 30
0.0000
 41
1.0000
 42
1.0000
 50
0.0000
  0
INSERT
  2
ROUND_1
  8
BOTTOM
 10
145.0340
 20
330.2000
 30
0.0000
 41
1.0000
 42
1.0000
 50
0.0000
  0
INSERT
  2
ROUND_1
  8
BOTTOM
 10
145.0340
 20
332.7400
 30
0.0000
 41
1.0000
 42
1.0000
 50
0.0000
  0
INSERT
  2
ROUND_1
  8
BOTTOM
 10
145.0340
 20
335.2800
 30
0.0000
 41
1.0000
 42
1.0000
 50
0.0000
  0
INSERT
  2
ROUND_1
  8
BOTTOM
 10
145.0340
 20
337.8200
 30
0.0000
 41
1.0000
 42
1.0000
 50
0.0000
  0
INSERT
  2
ROUND_1
  8
BOTTOM
 10
145.0340
 20
340.3600
 30
0.0000
 41
1.0000
 42
1.0000
 50
0.0000
  0
INSERT
  2
ROUND_1
  8
BOTTOM
 10
145.0340
 20
342.9000
 30
0.0000
 41
1.0000
 42
1.0000
 50
0.0000
  0
INSERT
  2
ROUND_1
  8
BOTTOM
 10
145.0340
 20
345.4400
 30
0.0000
 41
1.0000
 42
1.0000
 50
0.0000
  0
INSERT
  2
ROUND_1
  8
BOTTOM
 10
145.0340
 20
347.9800
 30
0.0000
 41
1.0000
 42
1.0000
 50
0.0000
  0
INSERT
  2
ROUND_1
  8
BOTTOM
 10
145.0340
 20
350.5200
 30
0.0000
 41
1.0000
 42
1.0000
 50
0.0000
  0
INSERT
  2
ROUND_1
  8
BOTTOM
 10
145.0340
 20
353.0600
 30
0.0000
 41
1.0000
 42
1.0000
 50
0.0000
  0
INSERT
  2
ROUND_1
  8
BOTTOM
 10
145.0340
 20
355.6000
 30
0.0000
 41
1.0000
 42
1.0000
 50
0.0000
  0
INSERT
  2
ROUND_1
  8
BOTTOM
 10
145.0340
 20
358.1400
 30
0.0000
 41
1.0000
 42
1.0000
 50
0.0000
  0
INSERT
  2
ROUND_1
  8
BOTTOM
 10
145.0340
 20
360.6800
 30
0.0000
 41
1.0000
 42
1.0000
 50
0.0000
  0
INSERT
  2
ROUND_1
  8
BOTTOM
 10
145.0340
 20
363.2200
 30
0.0000
 41
1.0000
 42
1.0000
 50
0.0000
  0
INSERT
  2
ROUND_1
  8
BOTTOM
 10
160.2740
 20
327.6600
 30
0.0000
 41
1.0000
 42
1.0000
 50
0.0000
  0
INSERT
  2
ROUND_1
  8
BOTTOM
 10
160.2740
 20
330.2000
 30
0.0000
 41
1.0000
 42
1.0000
 50
0.0000
  0
INSERT
  2
ROUND_1
  8
BOTTOM
 10
160.2740
 20
332.7400
 30
0.0000
 41
1.0000
 42
1.0000
 50
0.0000
  0
INSERT
  2
ROUND_1
  8
BOTTOM
 10
160.2740
 20
335.2800
 30
0.0000
 41
1.0000
 42
1.0000
 50
0.0000
  0
INSERT
  2
ROUND_1
  8
BOTTOM
 10
160.2740
 20
337.8200
 30
0.0000
 41
1.0000
 42
1.0000
 50
0.0000
  0
INSERT
  2
ROUND_1
  8
BOTTOM
 10
160.2740
 20
340.3600
 30
0.0000
 41
1.0000
 42
1.0000
 50
0.0000
  0
INSERT
  2
ROUND_1
  8
BOTTOM
 10
160.2740
 20
342.9000
 30
0.0000
 41
1.0000
 42
1.0000
 50
0.0000
  0
INSERT
  2
ROUND_1
  8
BOTTOM
 10
160.2740
 20
345.4400
 30
0.0000
 41
1.0000
 42
1.0000
 50
0.0000
  0
INSERT
  2
ROUND_1
  8
BOTTOM
 10
160.2740
 20
347.9800
 30
0.0000
 41
1.0000
 42
1.0000
 50
0.0000
  0
INSERT
  2
ROUND_1
  8
BOTTOM
 10
160.2740
 20
350.5200
 30
0.0000
 41
1.0000
 42
1.0000
 50
0.0000
  0
INSERT
  2
ROUND_1
  8
BOTTOM
 10
160.2740
 20
353.0600
 30
0.0000
 41
1.0000
 42
1.0000
 50
0.0000
  0
INSERT
  2
ROUND_1
  8
BOTTOM
 10
160.2740
 20
355.6000
 30
0.0000
 41
1.0000
 42
1.0000
 50
0.0000
  0
INSERT
  2
ROUND_1
  8
BOTTOM
 10
160.2740
 20
358.1400
 30
0.0000
 41
1.0000
 42
1.0000
 50
0.0000
  0
INSERT
  2
ROUND_1
  8
BOTTOM
 10
160.2740
 20
360.6800
 30
0.0000
 41
1.0000
 42
1.0000
 50
0.0000
  0
INSERT
  2
ROUND_1
  8
BOTTOM
 10
160.2740
 20
363.2200
 30
0.0000
 41
1.0000
 42
1.0000
 50
0.0000
  0
INSERT
  2
ROUND_4
  8
DRILL_1-2
 10
111.7600
 20
363.2200
 30
0.0000
 41
1.0000
 42
1.0000
 50
0.0000
  0
INSERT
  2
ROUND_4
  8
DRILL_1-2
 10
111.7600
 20
360.6800
 30
0.0000
 41
1.0000
 42
1.0000
 50
0.0000
  0
INSERT
  2
ROUND_4
  8
DRILL_1-2
 10
111.7600
 20
358.1400
 30
0.0000
 41
1.0000
 42
1.0000
 50
0.0000
  0
INSERT
  2
ROUND_4
  8
DRILL_1-2
 10
111.7600
 20
355.6000
 30
0.0000
 41
1.0000
 42
1.0000
 50
0.0000
  0
INSERT
  2
ROUND_4
  8
DRILL_1-2
 10
111.7600
 20
353.0600
 30
0.0000
 41
1.0000
 42
1.0000
 50
0.0000
  0
INSERT
  2
ROUND_4
  8
DRILL_1-2
 10
111.7600
 20
350.5200
 30
0.0000
 41
1.0000
 42
1.0000
 50
0.0000
  0
INSERT
  2
ROUND_4
  8
DRILL_1-2
 10
111.7600
 20
347.9800
 30
0.0000
 41
1.0000
 42
1.0000
 50
0.0000
  0
INSERT
  2
ROUND_4
  8
DRILL_1-2
 10
111.7600
 20
345.4400
 30
0.0000
 41
1.0000
 42
1.0000
 50
0.0000
  0
INSERT
  2
ROUND_4
  8
DRILL_1-2
 10
111.7600
 20
342.9000
 30
0.0000
 41
1.0000
 42
1.0000
 50
0.0000
  0
INSERT
  2
ROUND_4
  8
DRILL_1-2
 10
111.7600
 20
340.3600
 30
0.0000
 41
1.0000
 42
1.0000
 50
0.0000
  0
INSERT
  2
ROUND_4
  8
DRILL_1-2
 10
111.7600
 20
337.8200
 30
0.0000
 41
1.0000
 42
1.0000
 50
0.0000
  0
INSERT
  2
ROUND_4
  8
DRILL_1-2
 10
111.7600
 20
335.2800
 30
0.0000
 41
1.0000
 42
1.0000
 50
0.0000
  0
INSERT
  2
ROUND_4
  8
DRILL_1-2
 10
111.7600
 20
332.7400
 30
0.0000
 41
1.0000
 42
1.0000
 50
0.0000
  0
INSERT
  2
ROUND_4
  8
DRILL_1-2
 10
111.7600
 20
330.2000
 30
0.0000
 41
1.0000
 42
1.0000
 50
0.0000
  0
INSERT
  2
ROUND_4
  8
DRILL_1-2
 10
111.7600
 20
327.6600
 30
0.0000
 41
1.0000
 42
1.0000
 50
0.0000
  0
INSERT
  2
ROUND_4
  8
DRILL_1-2
 10
129.5400
 20
363.2200
 30
0.0000
 41
1.0000
 42
1.0000
 50
0.0000
  0
INSERT
  2
ROUND_4
  8
DRILL_1-2
 10
129.5400
 20
360.6800
 30
0.0000
 41
1.0000
 42
1.0000
 50
0.0000
  0
INSERT
  2
ROUND_4
  8
DRILL_1-2
 10
129.5400
 20
358.1400
 30
0.0000
 41
1.0000
 42
1.0000
 50
0.0000
  0
INSERT
  2
ROUND_4
  8
DRILL_1-2
 10
129.5400
 20
355.6000
 30
0.0000
 41
1.0000
 42
1.0000
 50
0.0000
  0
INSERT
  2
ROUND_4
  8
DRILL_1-2
 10
129.5400
 20
353.0600
 30
0.0000
 41
1.0000
 42
1.0000
 50
0.0000
  0
INSERT
  2
ROUND_4
  8
DRILL_1-2
 10
129.5400
 20
350.5200
 30
0.0000
 41
1.0000
 42
1.0000
 50
0.0000
  0
INSERT
  2
ROUND_4
  8
DRILL_1-2
 10
129.5400
 20
347.9800
 30
0.0000
 41
1.0000
 42
1.0000
 50
0.0000
  0
INSERT
  2
ROUND_4
  8
DRILL_1-2
 10
129.5400
 20
345.4400
 30
0.0000
 41
1.0000
 42
1.0000
 50
0.0000
  0
INSERT
  2
ROUND_4
  8
DRILL_1-2
 10
129.5400
 20
342.9000
 30
0.0000
 41
1.0000
 42
1.0000
 50
0.0000
  0
INSERT
  2
ROUND_4
  8
DRILL_1-2
 10
129.5400
 20
340.3600
 30
0.0000
 41
1.0000
 42
1.0000
 50
0.0000
  0
INSERT
  2
ROUND_4
  8
DRILL_1-2
 10
129.5400
 20
337.8200
 30
0.0000
 41
1.0000
 42
1.0000
 50
0.0000
  0
INSERT
  2
ROUND_4
  8
DRILL_1-2
 10
129.5400
 20
335.2800
 30
0.0000
 41
1.0000
 42
1.0000
 50
0.0000
  0
INSERT
  2
ROUND_4
  8
DRILL_1-2
 10
129.5400
 20
332.7400
 30
0.0000
 41
1.0000
 42
1.0000
 50
0.0000
  0
INSERT
  2
ROUND_4
  8
DRILL_1-2
 10
129.5400
 20
330.2000
 30
0.0000
 41
1.0000
 42
1.0000
 50
0.0000
  0
INSERT
  2
ROUND_4
  8
DRILL_1-2
 10
129.5400
 20
327.6600
 30
0.0000
 41
1.0000
 42
1.0000
 50
0.0000
  0
INSERT
  2
ROUND_4
  8
DRILL_1-2
 10
145.0340
 20
363.2200
 30
0.0000
 41
1.0000
 42
1.0000
 50
0.0000
  0
INSERT
  2
ROUND_4
  8
DRILL_1-2
 10
145.0340
 20
360.6800
 30
0.0000
 41
1.0000
 42
1.0000
 50
0.0000
  0
INSERT
  2
ROUND_4
  8
DRILL_1-2
 10
145.0340
 20
358.1400
 30
0.0000
 41
1.0000
 42
1.0000
 50
0.0000
  0
INSERT
  2
ROUND_4
  8
DRILL_1-2
 10
145.0340
 20
355.6000
 30
0.0000
 41
1.0000
 42
1.0000
 50
0.0000
  0
INSERT
  2
ROUND_4
  8
DRILL_1-2
 10
145.0340
 20
353.0600
 30
0.0000
 41
1.0000
 42
1.0000
 50
0.0000
  0
INSERT
  2
ROUND_4
  8
DRILL_1-2
 10
145.0340
 20
350.5200
 30
0.0000
 41
1.0000
 42
1.0000
 50
0.0000
  0
INSERT
  2
ROUND_4
  8
DRILL_1-2
 10
145.0340
 20
347.9800
 30
0.0000
 41
1.0000
 42
1.0000
 50
0.0000
  0
INSERT
  2
ROUND_4
  8
DRILL_1-2
 10
145.0340
 20
345.4400
 30
0.0000
 41
1.0000
 42
1.0000
 50
0.0000
  0
INSERT
  2
ROUND_4
  8
DRILL_1-2
 10
145.0340
 20
342.9000
 30
0.0000
 41
1.0000
 42
1.0000
 50
0.0000
  0
INSERT
  2
ROUND_4
  8
DRILL_1-2
 10
145.0340
 20
340.3600
 30
0.0000
 41
1.0000
 42
1.0000
 50
0.0000
  0
INSERT
  2
ROUND_4
  8
DRILL_1-2
 10
145.0340
 20
337.8200
 30
0.0000
 41
1.0000
 42
1.0000
 50
0.0000
  0
INSERT
  2
ROUND_4
  8
DRILL_1-2
 10
145.0340
 20
335.2800
 30
0.0000
 41
1.0000
 42
1.0000
 50
0.0000
  0
INSERT
  2
ROUND_4
  8
DRILL_1-2
 10
145.0340
 20
332.7400
 30
0.0000
 41
1.0000
 42
1.0000
 50
0.0000
  0
INSERT
  2
ROUND_4
  8
DRILL_1-2
 10
145.0340
 20
330.2000
 30
0.0000
 41
1.0000
 42
1.0000
 50
0.0000
  0
INSERT
  2
ROUND_4
  8
DRILL_1-2
 10
145.0340
 20
327.6600
 30
0.0000
 41
1.0000
 42
1.0000
 50
0.0000
  0
INSERT
  2
ROUND_4
  8
DRILL_1-2
 10
160.2740
 20
363.2200
 30
0.0000
 41
1.0000
 42
1.0000
 50
0.0000
  0
INSERT
  2
ROUND_4
  8
DRILL_1-2
 10
160.2740
 20
360.6800
 30
0.0000
 41
1.0000
 42
1.0000
 50
0.0000
  0
INSERT
  2
ROUND_4
  8
DRILL_1-2
 10
160.2740
 20
358.1400
 30
0.0000
 41
1.0000
 42
1.0000
 50
0.0000
  0
INSERT
  2
ROUND_4
  8
DRILL_1-2
 10
160.2740
 20
355.6000
 30
0.0000
 41
1.0000
 42
1.0000
 50
0.0000
  0
INSERT
  2
ROUND_4
  8
DRILL_1-2
 10
160.2740
 20
353.0600
 30
0.0000
 41
1.0000
 42
1.0000
 50
0.0000
  0
INSERT
  2
ROUND_4
  8
DRILL_1-2
 10
160.2740
 20
350.5200
 30
0.0000
 41
1.0000
 42
1.0000
 50
0.0000
  0
INSERT
  2
ROUND_4
  8
DRILL_1-2
 10
160.2740
 20
347.9800
 30
0.0000
 41
1.0000
 42
1.0000
 50
0.0000
  0
INSERT
  2
ROUND_4
  8
DRILL_1-2
 10
160.2740
 20
345.4400
 30
0.0000
 41
1.0000
 42
1.0000
 50
0.0000
  0
INSERT
  2
ROUND_4
  8
DRILL_1-2
 10
160.2740
 20
342.9000
 30
0.0000
 41
1.0000
 42
1.0000
 50
0.0000
  0
INSERT
  2
ROUND_4
  8
DRILL_1-2
 10
160.2740
 20
340.3600
 30
0.0000
 41
1.0000
 42
1.0000
 50
0.0000
  0
INSERT
  2
ROUND_4
  8
DRILL_1-2
 10
160.2740
 20
337.8200
 30
0.0000
 41
1.0000
 42
1.0000
 50
0.0000
  0
INSERT
  2
ROUND_4
  8
DRILL_1-2
 10
160.2740
 20
335.2800
 30
0.0000
 41
1.0000
 42
1.0000
 50
0.0000
  0
INSERT
  2
ROUND_4
  8
DRILL_1-2
 10
160.2740
 20
332.7400
 30
0.0000
 41
1.0000
 42
1.0000
 50
0.0000
  0
INSERT
  2
ROUND_4
  8
DRILL_1-2
 10
160.2740
 20
330.2000
 30
0.0000
 41
1.0000
 42
1.0000
 50
0.0000
  0
INSERT
  2
ROUND_4
  8
DRILL_1-2
 10
160.2740
 20
327.6600
 30
0.0000
 41
1.0000
 42
1.0000
 50
0.0000
  0
ENDSEC
  0
EOF
