G04 ================== begin FILE IDENTIFICATION RECORD ==================*
G04 Layout Name:  D:/Projects/OwnProjects/PultonPCBTest/allegro/pultonpcbtest.brd*
G04 Film Name:    TOP*
G04 File Format:  Gerber RS274X*
G04 File Origin:  Cadence Allegro 23.1-S005*
G04 Origin Date:  Tue Jul  2 16:59:14 2024*
G04 *
G04 Layer:  ETCH/TOP*
G04 Layer:  PIN/TOP*
G04 Layer:  VIA CLASS/TOP*
G04 *
G04 Offset:    (0.0000 0.0000)*
G04 Mirror:    No*
G04 Mode:      Positive*
G04 Rotation:  0*
G04 FullContactRelief:  No*
G04 UndefLineWidth:     0.0000*
G04 ================== end FILE IDENTIFICATION RECORD ====================*
%FSLAX25Y25*MOMM*%
%IR0*IPPOS*OFA0.00000B0.00000*MIA0B0*SFA1.00000B1.00000*%
%ADD15R,1.525X.65*%
%ADD16C,.5999*%
%ADD13C,1.1001*%
%ADD10C,3.4*%
%ADD18R,.4201X.46*%
%ADD12C,1.478*%
%ADD14R,.3X.8499*%
%ADD17C,1.1699*%
%ADD11C,2.5499*%
%ADD19C,.512*%
%ADD20C,.127*%
%ADD21C,.254*%
%ADD22C,1.*%
G75*
%LPD*%
G75*
G54D10*
X8534400Y26492200D03*
X9677400D03*
G54D20*
G01X8788400Y25857200D02*
Y25247600D01*
X8978900Y25057100D01*
X10396800D01*
G54D11*
X8318400Y26103200D03*
X9893400D03*
G54D21*
G01X8661400Y25603200D02*
Y25222200D01*
X8953500Y24930100D01*
X10396800D01*
G01X10939200Y25057100D02*
X11223690D01*
X11303000Y24977790D01*
Y24975800D01*
G01X10939200Y24803100D02*
X11277590D01*
X11303000Y24828510D01*
Y24909800D01*
G54D12*
X8534400Y25857200D03*
X8661400Y25603200D03*
X8788400Y25857200D03*
X8915400Y25603200D03*
X9042400Y25857200D03*
X9169400Y25603200D03*
X9296400Y25857200D03*
X9423400Y25603200D03*
X9550400Y25857200D03*
X9677400Y25603200D03*
G54D22*
G01X10396800Y25184100D02*
X9015400D01*
X8915400Y25284100D01*
Y25603200D01*
G54D13*
X10271200Y23475900D03*
Y23905900D03*
X10751200Y23475900D03*
Y23905900D03*
G54D14*
X10236200Y23607400D03*
X10386200D03*
X10436200D03*
X10486200D03*
X10536200D03*
X10586200D03*
X10636200D03*
Y23774400D03*
X10586200D03*
X10536200D03*
X10486200D03*
X10436200D03*
X10386200D03*
X10236200D03*
X10786200Y23607400D03*
Y23774400D03*
G54D15*
X10396800Y24295100D03*
Y24422100D03*
Y24549100D03*
Y24676100D03*
Y24803100D03*
Y24930100D03*
Y25057100D03*
Y25184100D03*
X10939200Y24295100D03*
Y25057100D03*
Y24930100D03*
Y24803100D03*
Y24676100D03*
Y24549100D03*
Y24422100D03*
Y25184100D03*
G54D16*
X10136200Y23690900D03*
G54D17*
X10886200D03*
G54D18*
X11303000Y24909800D03*
Y24975800D03*
G54D19*
G01X8534400Y25857200D02*
Y25196800D01*
X8928100Y24803100D01*
X10396800D01*
M02*
