  0
SECTION
  2
HEADER
  9
$ACADVER
  1
AC1009
  9
$EXTMIN
 10
0.00000000
 20
0.00000000
 30
0.0
  9
$EXTMAX
 10
170.00000000
 20
170.00000000
 30
0.0
  0
ENDSEC
  0
SECTION
  2
TABLES
  0
TABLE
  2
LAYER
 70
1
 0
LAYER
 2
0
 70
0
 62
1
 6
CONTINUOUS
 0
ENDTAB
 0
ENDSEC
  0
SECTION
  2
ENTITIES
  0
POLYLINE
  8
0
 62
256
 66
   1
 39
0.000000
 70
    1
  0
VERTEX
  8
0
 10
5.00000000
 20
0.00000000
  0
VERTEX
  8
0
 10
165.00000000
 20
0.00000000
 42
0.41421356
  0
VERTEX
  8
0
 10
170.00000000
 20
5.00000000
  0
VERTEX
  8
0
 10
170.00000000
 20
165.00000000
 42
0.41421356
  0
VERTEX
  8
0
 10
165.00000000
 20
170.00000000
  0
VERTEX
  8
0
 10
5.00000000
 20
170.00000000
 42
0.41421356
  0
VERTEX
  8
0
 10
0.00000000
 20
165.00000000
  0
VERTEX
  8
0
 10
0.00000000
 20
5.00000000
 42
0.41421356
  0
VERTEX
  8
0
 10
5.00000000
 20
0.00000000
  0
SEQEND
  0
POLYLINE
  8
0
 62
256
 66
   1
 39
0.000000
 70
    1
  0
VERTEX
  8
0
 10
114.50000000
 20
56.30000000
 42
-0.41421356
  0
VERTEX
  8
0
 10
117.50000000
 20
53.30000000
 42
-0.41421356
  0
VERTEX
  8
0
 10
114.50000000
 20
50.30000000
 42
-0.41421356
  0
VERTEX
  8
0
 10
111.50000000
 20
53.30000000
 42
-0.41421356
  0
VERTEX
  8
0
 10
114.50000000
 20
56.30000000
  0
SEQEND
  0
POLYLINE
  8
0
 62
256
 66
   1
 39
0.000000
 70
    1
  0
VERTEX
  8
0
 10
114.50000000
 20
146.30000000
 42
-0.41421356
  0
VERTEX
  8
0
 10
117.50000000
 20
143.30000000
 42
-0.41421356
  0
VERTEX
  8
0
 10
114.50000000
 20
140.30000000
 42
-0.41421356
  0
VERTEX
  8
0
 10
111.50000000
 20
143.30000000
 42
-0.41421356
  0
VERTEX
  8
0
 10
114.50000000
 20
146.30000000
  0
SEQEND
  0
POLYLINE
  8
0
 62
256
 66
   1
 39
0.000000
 70
    1
  0
VERTEX
  8
0
 10
60.50000000
 20
146.30000000
 42
-0.41421356
  0
VERTEX
  8
0
 10
63.50000000
 20
143.30000000
 42
-0.41421356
  0
VERTEX
  8
0
 10
60.50000000
 20
140.30000000
 42
-0.41421356
  0
VERTEX
  8
0
 10
57.50000000
 20
143.30000000
 42
-0.41421356
  0
VERTEX
  8
0
 10
60.50000000
 20
146.30000000
  0
SEQEND
  0
POLYLINE
  8
0
 62
256
 66
   1
 39
0.000000
 70
    1
  0
VERTEX
  8
0
 10
60.50000000
 20
56.30000000
 42
-0.41421356
  0
VERTEX
  8
0
 10
63.50000000
 20
53.30000000
 42
-0.41421356
  0
VERTEX
  8
0
 10
60.50000000
 20
50.30000000
 42
-0.41421356
  0
VERTEX
  8
0
 10
57.50000000
 20
53.30000000
 42
-0.41421356
  0
VERTEX
  8
0
 10
60.50000000
 20
56.30000000
  0
SEQEND
  0
POLYLINE
  8
0
 62
256
 66
   1
 39
0.000000
 70
    1
  0
VERTEX
  8
0
 10
165.10000000
 20
8.38200000
 42
-0.41421356
  0
VERTEX
  8
0
 10
167.13200000
 20
6.35000000
 42
-0.41421356
  0
VERTEX
  8
0
 10
165.10000000
 20
4.31800000
 42
-0.41421356
  0
VERTEX
  8
0
 10
163.06800000
 20
6.35000000
 42
-0.41421356
  0
VERTEX
  8
0
 10
165.10000000
 20
8.38200000
  0
SEQEND
  0
POLYLINE
  8
0
 62
256
 66
   1
 39
0.000000
 70
    1
  0
VERTEX
  8
0
 10
165.10000000
 20
165.86200000
 42
-0.41421356
  0
VERTEX
  8
0
 10
167.13200000
 20
163.83000000
 42
-0.41421356
  0
VERTEX
  8
0
 10
165.10000000
 20
161.79800000
 42
-0.41421356
  0
VERTEX
  8
0
 10
163.06800000
 20
163.83000000
 42
-0.41421356
  0
VERTEX
  8
0
 10
165.10000000
 20
165.86200000
  0
SEQEND
  0
POLYLINE
  8
0
 62
256
 66
   1
 39
0.000000
 70
    1
  0
VERTEX
  8
0
 10
33.02000000
 20
165.86200000
 42
-0.41421356
  0
VERTEX
  8
0
 10
35.05200000
 20
163.83000000
 42
-0.41421356
  0
VERTEX
  8
0
 10
33.02000000
 20
161.79800000
 42
-0.41421356
  0
VERTEX
  8
0
 10
30.98800000
 20
163.83000000
 42
-0.41421356
  0
VERTEX
  8
0
 10
33.02000000
 20
165.86200000
  0
SEQEND
  0
POLYLINE
  8
0
 62
256
 66
   1
 39
0.000000
 70
    1
  0
VERTEX
  8
0
 10
10.16000000
 20
8.38200000
 42
-0.41421356
  0
VERTEX
  8
0
 10
12.19200000
 20
6.35000000
 42
-0.41421356
  0
VERTEX
  8
0
 10
10.16000000
 20
4.31800000
 42
-0.41421356
  0
VERTEX
  8
0
 10
8.12800000
 20
6.35000000
 42
-0.41421356
  0
VERTEX
  8
0
 10
10.16000000
 20
8.38200000
  0
SEQEND
  0
ENDSEC
  0
EOF
