%FSTAX23Y23*%
%MOIN*%
%SFA1B1*%

%IPPOS*%
%ADD10C,0.008000*%
%ADD11C,0.010000*%
%ADD12C,0.005000*%
%ADD13C,0.006000*%
%ADD19C,0.001000*%
%ADD23C,0.007000*%
%ADD24C,0.016000*%
%LNmb979-1*%
%LPD*%
G54D10*
X50598Y5059D02*
D01*
X50597Y50591*
X50597Y50593*
X50597Y50594*
X50597Y50596*
X50596Y50598*
X50595Y50599*
X50595Y50601*
X50594Y50602*
X50593Y50604*
X50592Y50605*
X50591Y50606*
X5059Y50607*
X50588Y50608*
X50587Y50609*
X50586Y5061*
X50584Y50611*
X50582Y50612*
X50581Y50612*
X50579Y50613*
X50578Y50613*
X50576Y50613*
X50574Y50613*
X50573*
X50571Y50613*
X50569Y50613*
X50568Y50613*
X50566Y50612*
X50565Y50612*
X50563Y50611*
X50562Y5061*
X5056Y50609*
X50559Y50608*
X50557Y50607*
X50556Y50606*
X50555Y50605*
X50554Y50604*
X50553Y50602*
X50552Y50601*
X50552Y50599*
X50551Y50598*
X5055Y50596*
X5055Y50594*
X5055Y50593*
X5055Y50591*
X5055Y5059*
X5055Y50588*
X5055Y50586*
X5055Y50585*
X5055Y50583*
X50551Y50581*
X50552Y5058*
X50552Y50578*
X50553Y50577*
X50554Y50575*
X50555Y50574*
X50556Y50573*
X50557Y50572*
X50559Y50571*
X5056Y5057*
X50562Y50569*
X50563Y50568*
X50565Y50567*
X50566Y50567*
X50568Y50566*
X50569Y50566*
X50571Y50566*
X50573Y50566*
X50574*
X50576Y50566*
X50578Y50566*
X50579Y50566*
X50581Y50567*
X50582Y50567*
X50584Y50568*
X50586Y50569*
X50587Y5057*
X50588Y50571*
X5059Y50572*
X50591Y50573*
X50592Y50574*
X50593Y50575*
X50594Y50577*
X50595Y50578*
X50595Y5058*
X50596Y50581*
X50597Y50583*
X50597Y50585*
X50597Y50586*
X50597Y50588*
X50598Y5059*
G54D11*
X504Y4984D02*
Y49938D01*
X4785Y4984D02*
Y49938D01*
X49306Y4985D02*
X504D01*
X4785D02*
X48904D01*
X5034Y4987D02*
X504Y4985D01*
X5034Y4983D02*
X504Y4985D01*
X4785D02*
X4791Y4983D01*
X4785Y4985D02*
X4791Y4987D01*
X4771Y5135D02*
X47938D01*
X4771Y4995D02*
X47838D01*
X4772Y5083D02*
Y5135D01*
Y4995D02*
Y50438D01*
X477Y5129D02*
X4772Y5135D01*
X4774Y5129*
X4772Y4995D02*
X4774Y5001D01*
X477D02*
X4772Y4995D01*
X51054Y5068D02*
X51074D01*
X51064*
Y5074*
X51054Y5073*
X51134Y5068D02*
Y5074D01*
X51104Y5071*
X51144*
X51194Y5068D02*
Y5074D01*
X51164Y5071*
X51204*
X5175Y5073D02*
X5176Y5074D01*
X5178*
X5179Y5073*
Y5072*
X5178Y5071*
X5177*
X5178*
X5179Y507*
Y5069*
X5178Y5068*
X5176*
X5175Y5069*
X5181Y5073D02*
X5182Y5074D01*
X5184*
X5185Y5073*
Y5069*
X5184Y5068*
X5182*
X5181Y5069*
Y5073*
X5187Y5068D02*
Y5072D01*
X5188*
X5189Y5071*
Y5068*
Y5071*
X519Y5072*
X5191Y5071*
Y5068*
X5193D02*
X5195D01*
X5194*
Y5072*
X5193*
X5198Y5068D02*
X52D01*
X5199*
Y5074*
X5198*
X5211Y5068D02*
X5209Y507D01*
Y5072*
X5211Y5074*
X5214Y5073D02*
X5215Y5074D01*
X5217*
X5218Y5073*
Y5069*
X5217Y5068*
X5215*
X5214Y5069*
Y5073*
X522Y5068D02*
Y5069D01*
X5221*
Y5068*
X522*
X5225Y5074D02*
X5229D01*
Y5073*
X5225Y5069*
Y5068*
X52349Y5074D02*
X5233Y5073D01*
X5231Y5071*
Y5069*
X5232Y5068*
X52339*
X52349Y5069*
Y507*
X52339Y5071*
X5231*
X52409Y5068D02*
X52369D01*
X52409Y5072*
Y5073*
X52399Y5074*
X52379*
X52369Y5073*
X52429Y5068D02*
Y5072D01*
X52439*
X52449Y5071*
Y5068*
Y5071*
X52459Y5072*
X52469Y5071*
Y5068*
X52489D02*
Y5072D01*
X52499*
X52509Y5071*
Y5068*
Y5071*
X52519Y5072*
X52529Y5071*
Y5068*
X52549D02*
X52569Y507D01*
Y5072*
X52549Y5074*
X52677Y5068D02*
Y5074D01*
X52707*
X52717Y5073*
Y5071*
X52707Y507*
X52677*
X52737Y5074D02*
X52777D01*
X52757*
Y5068*
X52797Y5074D02*
Y5068D01*
Y5071*
X52837*
Y5074*
Y5068*
X53181D02*
Y5074D01*
X53211*
X53221Y5073*
Y5071*
X53211Y507*
X53181*
X53201D02*
X53221Y5068D01*
X53251D02*
X53271D01*
X53281Y5069*
Y5071*
X53271Y5072*
X53251*
X53241Y5071*
Y5069*
X53251Y5068*
X53301Y5072D02*
Y5069D01*
X53311Y5068*
X53341*
Y5072*
X53361Y5068D02*
Y5072D01*
X53391*
X53401Y5071*
Y5068*
X53461Y5074D02*
Y5068D01*
X53431*
X53421Y5069*
Y5071*
X53431Y5072*
X53461*
X51084Y5056D02*
Y5062D01*
X51054Y5059*
X51094*
X51114Y5061D02*
X51124Y5062D01*
X51144*
X51154Y5061*
Y506*
X51144Y5059*
X51154Y5058*
Y5057*
X51144Y5056*
X51124*
X51114Y5057*
Y5058*
X51124Y5059*
X51114Y506*
Y5061*
X51124Y5059D02*
X51144D01*
X5178Y5056D02*
Y5062D01*
X5175Y5059*
X5179*
X5181Y5061D02*
X5182Y5062D01*
X5184*
X5185Y5061*
Y5057*
X5184Y5056*
X5182*
X5181Y5057*
Y5061*
X5187Y5056D02*
Y506D01*
X5188*
X5189Y5059*
Y5056*
Y5059*
X519Y506*
X5191Y5059*
Y5056*
X5193D02*
X5195D01*
X5194*
Y506*
X5193*
X5198Y5056D02*
X52D01*
X5199*
Y5062*
X5198*
X5211Y5056D02*
X5209Y5058D01*
Y506*
X5211Y5062*
X5214Y5056D02*
X5216D01*
X5215*
Y5062*
X5214Y5061*
X5219Y5056D02*
Y5057D01*
X522*
Y5056*
X5219*
X5224Y5061D02*
X5225Y5062D01*
X5227*
X5228Y5061*
Y5057*
X5227Y5056*
X5225*
X5224Y5057*
Y5061*
X523Y5056D02*
X5232D01*
X5231*
Y5062*
X523Y5061*
X52389Y5062D02*
X52369Y5061D01*
X52349Y5059*
Y5057*
X52359Y5056*
X52379*
X52389Y5057*
Y5058*
X52379Y5059*
X52349*
X52409Y5056D02*
Y506D01*
X52419*
X52429Y5059*
Y5056*
Y5059*
X52439Y506*
X52449Y5059*
Y5056*
X52469D02*
Y506D01*
X52479*
X52489Y5059*
Y5056*
Y5059*
X52499Y506*
X52509Y5059*
Y5056*
X52529D02*
X52549Y5058D01*
Y506*
X52529Y5062*
X52677Y5056D02*
Y5062D01*
X52707*
X52717Y5061*
Y5059*
X52707Y5058*
X52677*
X52737Y5062D02*
X52777D01*
X52757*
Y5056*
X52797Y5062D02*
Y5056D01*
Y5059*
X52837*
Y5062*
Y5056*
X53181D02*
Y5062D01*
X53211*
X53221Y5061*
Y5059*
X53211Y5058*
X53181*
X53201D02*
X53221Y5056D01*
X53251D02*
X53271D01*
X53281Y5057*
Y5059*
X53271Y506*
X53251*
X53241Y5059*
Y5057*
X53251Y5056*
X53301Y506D02*
Y5057D01*
X53311Y5056*
X53341*
Y506*
X53361Y5056D02*
Y506D01*
X53391*
X53401Y5059*
Y5056*
X53461Y5062D02*
Y5056D01*
X53431*
X53421Y5057*
Y5059*
X53431Y506*
X53461*
X51054Y5044D02*
X51074D01*
X51064*
Y505*
X51054Y5049*
X51104Y5045D02*
X51114Y5044D01*
X51134*
X51144Y5045*
Y5049*
X51134Y505*
X51114*
X51104Y5049*
Y5048*
X51114Y5047*
X51144*
X51204Y5044D02*
X51164D01*
X51204Y5048*
Y5049*
X51194Y505*
X51174*
X51164Y5049*
X51312Y505D02*
X51352D01*
X51332*
Y5044*
X51382D02*
X51402D01*
X51412Y5045*
Y5047*
X51402Y5048*
X51382*
X51372Y5047*
Y5045*
X51382Y5044*
X51442Y5049D02*
Y5048D01*
X51432*
X51452*
X51442*
Y5045*
X51452Y5044*
X51492Y5048D02*
X51512D01*
X51522Y5047*
Y5044*
X51492*
X51482Y5045*
X51492Y5046*
X51522*
X51542Y5044D02*
X51562D01*
X51552*
Y505*
X51542*
G54D12*
X4795Y5135D02*
X504D01*
X4785Y4995D02*
Y5125D01*
X4795Y5135*
X504Y4995D02*
Y5135D01*
X4785Y4995D02*
X504D01*
G54D13*
X4896Y4983D02*
X4892D01*
X4896Y4987*
Y4988*
X4895Y4989*
X4893*
X4892Y4988*
X4902Y4989D02*
X4898D01*
Y4986*
X49Y4987*
X4901*
X4902Y4986*
Y4984*
X4901Y4983*
X4899*
X4898Y4984*
X4908Y4989D02*
X4904D01*
Y4986*
X4906Y4987*
X4907*
X4908Y4986*
Y4984*
X4907Y4983*
X4905*
X4904Y4984*
X491Y4988D02*
X4911Y4989D01*
X4913*
X4914Y4988*
Y4984*
X4913Y4983*
X4911*
X491Y4984*
Y4988*
X4916Y4983D02*
Y4987D01*
X4917*
X4918Y4986*
Y4983*
Y4986*
X4919Y4987*
X492Y4986*
Y4983*
X4922D02*
X4924D01*
X4923*
Y4987*
X4922*
X4927Y4983D02*
X4929D01*
X4928*
Y4989*
X4927*
X47756Y50454D02*
Y50474D01*
Y50464*
X47696*
X47706Y50454*
X47756Y50534D02*
X47696D01*
X47726Y50504*
Y50544*
X47706Y50564D02*
X47696Y50574D01*
Y50594*
X47706Y50604*
X47746*
X47756Y50594*
Y50574*
X47746Y50564*
X47706*
Y50624D02*
X47696Y50634D01*
Y50654*
X47706Y50664*
X47746*
X47756Y50654*
Y50634*
X47746Y50624*
X47706*
X47756Y50684D02*
X47716D01*
Y50694*
X47726Y50704*
X47756*
X47726*
X47716Y50714*
X47726Y50724*
X47756*
Y50744D02*
Y50764D01*
Y50754*
X47716*
Y50744*
X47756Y50794D02*
Y50814D01*
Y50804*
X47696*
Y50794*
G54D19*
X5008Y51055D02*
Y51095D01*
X5012*
Y51055*
X5008*
X4998D02*
Y51095D01*
X5002*
Y51055*
X4998*
X4988D02*
Y51095D01*
X4992*
Y51055*
X4988*
X4978D02*
Y51095D01*
X4982*
Y51055*
X4978*
X4968D02*
Y51095D01*
X4972*
Y51055*
X4968*
X4958D02*
Y51095D01*
X4962*
Y51055*
X4958*
X4948D02*
Y51095D01*
X4952*
Y51055*
X4948*
X4938D02*
Y51095D01*
X4942*
Y51055*
X4938*
X4928D02*
Y51095D01*
X4932*
Y51055*
X4928*
X4918D02*
Y51095D01*
X4922*
Y51055*
X4918*
X4908D02*
Y51095D01*
X4912*
Y51055*
X4908*
X4898D02*
Y51095D01*
X4902*
Y51055*
X4898*
X4888D02*
Y51095D01*
X4892*
Y51055*
X4888*
X4838D02*
Y51095D01*
X4842*
Y51055*
X4838*
X4808D02*
Y51095D01*
X4812*
Y51055*
X4808*
X4818D02*
Y51095D01*
X4822*
Y51055*
X4818*
X4798D02*
Y51095D01*
X4802*
Y51055*
X4798*
X4828D02*
Y51095D01*
X4832*
Y51055*
X4828*
X4848D02*
Y51095D01*
X4852*
Y51055*
X4848*
X4858D02*
Y51095D01*
X4862*
Y51055*
X4858*
X4868D02*
Y51095D01*
X4872*
Y51055*
X4868*
X4878D02*
Y51095D01*
X4882*
Y51055*
X4878*
X5028D02*
Y51095D01*
X5032*
Y51055*
X5028*
X5018D02*
Y51095D01*
X5022*
Y51055*
X5018*
Y50355D02*
Y50395D01*
X5022*
Y50355*
X5018*
X5028D02*
Y50395D01*
X5032*
Y50355*
X5028*
X4878D02*
Y50395D01*
X4882*
Y50355*
X4878*
X4868D02*
Y50395D01*
X4872*
Y50355*
X4868*
X4858D02*
Y50395D01*
X4862*
Y50355*
X4858*
X4848D02*
Y50395D01*
X4852*
Y50355*
X4848*
X4828D02*
Y50395D01*
X4832*
Y50355*
X4828*
X4798D02*
Y50395D01*
X4802*
Y50355*
X4798*
X4818D02*
Y50395D01*
X4822*
Y50355*
X4818*
X4808D02*
Y50395D01*
X4812*
Y50355*
X4808*
X4838D02*
Y50395D01*
X4842*
Y50355*
X4838*
X4888D02*
Y50395D01*
X4892*
Y50355*
X4888*
X4898D02*
Y50395D01*
X4902*
Y50355*
X4898*
X4908D02*
Y50395D01*
X4912*
Y50355*
X4908*
X4918D02*
Y50395D01*
X4922*
Y50355*
X4918*
X4928D02*
Y50395D01*
X4932*
Y50355*
X4928*
X4938D02*
Y50395D01*
X4942*
Y50355*
X4938*
X4948D02*
Y50395D01*
X4952*
Y50355*
X4948*
X4958D02*
Y50395D01*
X4962*
Y50355*
X4958*
X4968D02*
Y50395D01*
X4972*
Y50355*
X4968*
X4978D02*
Y50395D01*
X4982*
Y50355*
X4978*
X4988D02*
Y50395D01*
X4992*
Y50355*
X4988*
X4998D02*
Y50395D01*
X5002*
Y50355*
X4998*
X5008D02*
Y50395D01*
X5012*
Y50355*
X5008*
X5028Y50955D02*
Y50995D01*
X5032*
Y50955*
X5028*
Y50855D02*
Y50895D01*
X5032*
Y50855*
X5028*
X5018Y50955D02*
Y50995D01*
X5022*
Y50955*
X5018*
Y50855D02*
Y50895D01*
X5022*
Y50855*
X5018*
X5008Y50955D02*
Y50995D01*
X5012*
Y50955*
X5008*
Y50855D02*
Y50895D01*
X5012*
Y50855*
X5008*
X4998Y50955D02*
Y50995D01*
X5002*
Y50955*
X4998*
Y50855D02*
Y50895D01*
X5002*
Y50855*
X4998*
X4798D02*
Y50895D01*
X4802*
Y50855*
X4798*
X4978Y50955D02*
Y50995D01*
X4982*
Y50955*
X4978*
Y50855D02*
Y50895D01*
X4982*
Y50855*
X4978*
X4968Y50955D02*
Y50995D01*
X4972*
Y50955*
X4968*
Y50855D02*
Y50895D01*
X4972*
Y50855*
X4968*
X4958Y50955D02*
Y50995D01*
X4962*
Y50955*
X4958*
Y50855D02*
Y50895D01*
X4962*
Y50855*
X4958*
X4948Y50955D02*
Y50995D01*
X4952*
Y50955*
X4948*
Y50855D02*
Y50895D01*
X4952*
Y50855*
X4948*
X4938Y50955D02*
Y50995D01*
X4942*
Y50955*
X4938*
Y50855D02*
Y50895D01*
X4942*
Y50855*
X4938*
X4928Y50955D02*
Y50995D01*
X4932*
Y50955*
X4928*
Y50855D02*
Y50895D01*
X4932*
Y50855*
X4928*
X4918Y50955D02*
Y50995D01*
X4922*
Y50955*
X4918*
Y50855D02*
Y50895D01*
X4922*
Y50855*
X4918*
X4908Y50955D02*
Y50995D01*
X4912*
Y50955*
X4908*
Y50855D02*
Y50895D01*
X4912*
Y50855*
X4908*
X4898Y50955D02*
Y50995D01*
X4902*
Y50955*
X4898*
Y50855D02*
Y50895D01*
X4902*
Y50855*
X4898*
X4888Y50955D02*
Y50995D01*
X4892*
Y50955*
X4888*
Y50855D02*
Y50895D01*
X4892*
Y50855*
X4888*
X4878Y50955D02*
Y50995D01*
X4882*
Y50955*
X4878*
Y50855D02*
Y50895D01*
X4882*
Y50855*
X4878*
X4868Y50955D02*
Y50995D01*
X4872*
Y50955*
X4868*
Y50855D02*
Y50895D01*
X4872*
Y50855*
X4868*
X4858Y50955D02*
Y50995D01*
X4862*
Y50955*
X4858*
Y50855D02*
Y50895D01*
X4862*
Y50855*
X4858*
X4848Y50955D02*
Y50995D01*
X4852*
Y50955*
X4848*
Y50855D02*
Y50895D01*
X4852*
Y50855*
X4848*
X4838Y50955D02*
Y50995D01*
X4842*
Y50955*
X4838*
Y50855D02*
Y50895D01*
X4842*
Y50855*
X4838*
X4828Y50955D02*
Y50995D01*
X4832*
Y50955*
X4828*
Y50855D02*
Y50895D01*
X4832*
Y50855*
X4828*
X4818Y50955D02*
Y50995D01*
X4822*
Y50955*
X4818*
Y50855D02*
Y50895D01*
X4822*
Y50855*
X4818*
X4808Y50955D02*
Y50995D01*
X4812*
Y50955*
X4808*
Y50855D02*
Y50895D01*
X4812*
Y50855*
X4808*
X4798Y50955D02*
Y50995D01*
X4802*
Y50955*
X4798*
X4988D02*
Y50995D01*
X4992*
Y50955*
X4988*
Y50855D02*
Y50895D01*
X4992*
Y50855*
X4988*
X5028Y50255D02*
Y50295D01*
X5032*
Y50255*
X5028*
Y50155D02*
Y50195D01*
X5032*
Y50155*
X5028*
X5018Y50255D02*
Y50295D01*
X5022*
Y50255*
X5018*
Y50155D02*
Y50195D01*
X5022*
Y50155*
X5018*
X5008Y50255D02*
Y50295D01*
X5012*
Y50255*
X5008*
Y50155D02*
Y50195D01*
X5012*
Y50155*
X5008*
X4998Y50255D02*
Y50295D01*
X5002*
Y50255*
X4998*
Y50155D02*
Y50195D01*
X5002*
Y50155*
X4998*
X4798D02*
Y50195D01*
X4802*
Y50155*
X4798*
X4978Y50255D02*
Y50295D01*
X4982*
Y50255*
X4978*
Y50155D02*
Y50195D01*
X4982*
Y50155*
X4978*
X4968Y50255D02*
Y50295D01*
X4972*
Y50255*
X4968*
Y50155D02*
Y50195D01*
X4972*
Y50155*
X4968*
X4958Y50255D02*
Y50295D01*
X4962*
Y50255*
X4958*
Y50155D02*
Y50195D01*
X4962*
Y50155*
X4958*
X4948Y50255D02*
Y50295D01*
X4952*
Y50255*
X4948*
Y50155D02*
Y50195D01*
X4952*
Y50155*
X4948*
X4938Y50255D02*
Y50295D01*
X4942*
Y50255*
X4938*
Y50155D02*
Y50195D01*
X4942*
Y50155*
X4938*
X4928Y50255D02*
Y50295D01*
X4932*
Y50255*
X4928*
Y50155D02*
Y50195D01*
X4932*
Y50155*
X4928*
X4918Y50255D02*
Y50295D01*
X4922*
Y50255*
X4918*
Y50155D02*
Y50195D01*
X4922*
Y50155*
X4918*
X4908Y50255D02*
Y50295D01*
X4912*
Y50255*
X4908*
Y50155D02*
Y50195D01*
X4912*
Y50155*
X4908*
X4898Y50255D02*
Y50295D01*
X4902*
Y50255*
X4898*
Y50155D02*
Y50195D01*
X4902*
Y50155*
X4898*
X4888Y50255D02*
Y50295D01*
X4892*
Y50255*
X4888*
Y50155D02*
Y50195D01*
X4892*
Y50155*
X4888*
X4878Y50255D02*
Y50295D01*
X4882*
Y50255*
X4878*
Y50155D02*
Y50195D01*
X4882*
Y50155*
X4878*
X4868Y50255D02*
Y50295D01*
X4872*
Y50255*
X4868*
Y50155D02*
Y50195D01*
X4872*
Y50155*
X4868*
X4858Y50255D02*
Y50295D01*
X4862*
Y50255*
X4858*
Y50155D02*
Y50195D01*
X4862*
Y50155*
X4858*
X4848Y50255D02*
Y50295D01*
X4852*
Y50255*
X4848*
Y50155D02*
Y50195D01*
X4852*
Y50155*
X4848*
X4838Y50255D02*
Y50295D01*
X4842*
Y50255*
X4838*
Y50155D02*
Y50195D01*
X4842*
Y50155*
X4838*
X4828Y50255D02*
Y50295D01*
X4832*
Y50255*
X4828*
Y50155D02*
Y50195D01*
X4832*
Y50155*
X4828*
X4818Y50255D02*
Y50295D01*
X4822*
Y50255*
X4818*
Y50155D02*
Y50195D01*
X4822*
Y50155*
X4818*
X4808Y50255D02*
Y50295D01*
X4812*
Y50255*
X4808*
Y50155D02*
Y50195D01*
X4812*
Y50155*
X4808*
X4798Y50255D02*
Y50295D01*
X4802*
Y50255*
X4798*
X4988D02*
Y50295D01*
X4992*
Y50255*
X4988*
Y50155D02*
Y50195D01*
X4992*
Y50155*
X4988*
X5055Y50686D02*
Y50734D01*
X50598*
Y50686*
X5055*
G54D23*
X4912Y513D02*
D01*
X49119Y51301*
X49119Y51302*
X49119Y51304*
X49119Y51305*
X49118Y51306*
X49118Y51308*
X49117Y51309*
X49116Y5131*
X49116Y51311*
X49115Y51312*
X49114Y51313*
X49113Y51314*
X49112Y51315*
X49111Y51316*
X4911Y51317*
X49108Y51317*
X49107Y51318*
X49106Y51319*
X49104Y51319*
X49103Y51319*
X49102Y51319*
X491Y51319*
X49099*
X49097Y51319*
X49096Y51319*
X49095Y51319*
X49093Y51319*
X49092Y51318*
X49091Y51317*
X4909Y51317*
X49088Y51316*
X49087Y51315*
X49086Y51314*
X49085Y51313*
X49084Y51312*
X49083Y51311*
X49083Y5131*
X49082Y51309*
X49081Y51308*
X49081Y51306*
X4908Y51305*
X4908Y51304*
X4908Y51302*
X4908Y51301*
X4908Y513*
X4908Y51298*
X4908Y51297*
X4908Y51295*
X4908Y51294*
X49081Y51293*
X49081Y51291*
X49082Y5129*
X49083Y51289*
X49083Y51288*
X49084Y51287*
X49085Y51286*
X49086Y51285*
X49087Y51284*
X49088Y51283*
X4909Y51282*
X49091Y51282*
X49092Y51281*
X49093Y5128*
X49095Y5128*
X49096Y5128*
X49097Y5128*
X49099Y5128*
X491*
X49102Y5128*
X49103Y5128*
X49104Y5128*
X49106Y5128*
X49107Y51281*
X49108Y51282*
X4911Y51282*
X49111Y51283*
X49112Y51284*
X49113Y51285*
X49114Y51286*
X49115Y51287*
X49116Y51288*
X49116Y51289*
X49117Y5129*
X49118Y51291*
X49118Y51293*
X49119Y51294*
X49119Y51295*
X49119Y51297*
X49119Y51298*
X4912Y513*
X4862D02*
D01*
X48619Y51301*
X48619Y51302*
X48619Y51304*
X48619Y51305*
X48618Y51306*
X48618Y51308*
X48617Y51309*
X48616Y5131*
X48616Y51311*
X48615Y51312*
X48614Y51313*
X48613Y51314*
X48612Y51315*
X48611Y51316*
X4861Y51317*
X48608Y51317*
X48607Y51318*
X48606Y51319*
X48604Y51319*
X48603Y51319*
X48602Y51319*
X486Y51319*
X48599*
X48597Y51319*
X48596Y51319*
X48595Y51319*
X48593Y51319*
X48592Y51318*
X48591Y51317*
X4859Y51317*
X48588Y51316*
X48587Y51315*
X48586Y51314*
X48585Y51313*
X48584Y51312*
X48583Y51311*
X48583Y5131*
X48582Y51309*
X48581Y51308*
X48581Y51306*
X4858Y51305*
X4858Y51304*
X4858Y51302*
X4858Y51301*
X4858Y513*
X4858Y51298*
X4858Y51297*
X4858Y51295*
X4858Y51294*
X48581Y51293*
X48581Y51291*
X48582Y5129*
X48583Y51289*
X48583Y51288*
X48584Y51287*
X48585Y51286*
X48586Y51285*
X48587Y51284*
X48588Y51283*
X4859Y51282*
X48591Y51282*
X48592Y51281*
X48593Y5128*
X48595Y5128*
X48596Y5128*
X48597Y5128*
X48599Y5128*
X486*
X48602Y5128*
X48603Y5128*
X48604Y5128*
X48606Y5128*
X48607Y51281*
X48608Y51282*
X4861Y51282*
X48611Y51283*
X48612Y51284*
X48613Y51285*
X48614Y51286*
X48615Y51287*
X48616Y51288*
X48616Y51289*
X48617Y5129*
X48618Y51291*
X48618Y51293*
X48619Y51294*
X48619Y51295*
X48619Y51297*
X48619Y51298*
X4862Y513*
X4882D02*
D01*
X48819Y51301*
X48819Y51302*
X48819Y51304*
X48819Y51305*
X48818Y51306*
X48818Y51308*
X48817Y51309*
X48816Y5131*
X48816Y51311*
X48815Y51312*
X48814Y51313*
X48813Y51314*
X48812Y51315*
X48811Y51316*
X4881Y51317*
X48808Y51317*
X48807Y51318*
X48806Y51319*
X48804Y51319*
X48803Y51319*
X48802Y51319*
X488Y51319*
X48799*
X48797Y51319*
X48796Y51319*
X48795Y51319*
X48793Y51319*
X48792Y51318*
X48791Y51317*
X4879Y51317*
X48788Y51316*
X48787Y51315*
X48786Y51314*
X48785Y51313*
X48784Y51312*
X48783Y51311*
X48783Y5131*
X48782Y51309*
X48781Y51308*
X48781Y51306*
X4878Y51305*
X4878Y51304*
X4878Y51302*
X4878Y51301*
X4878Y513*
X4878Y51298*
X4878Y51297*
X4878Y51295*
X4878Y51294*
X48781Y51293*
X48781Y51291*
X48782Y5129*
X48783Y51289*
X48783Y51288*
X48784Y51287*
X48785Y51286*
X48786Y51285*
X48787Y51284*
X48788Y51283*
X4879Y51282*
X48791Y51282*
X48792Y51281*
X48793Y5128*
X48795Y5128*
X48796Y5128*
X48797Y5128*
X48799Y5128*
X488*
X48802Y5128*
X48803Y5128*
X48804Y5128*
X48806Y5128*
X48807Y51281*
X48808Y51282*
X4881Y51282*
X48811Y51283*
X48812Y51284*
X48813Y51285*
X48814Y51286*
X48815Y51287*
X48816Y51288*
X48816Y51289*
X48817Y5129*
X48818Y51291*
X48818Y51293*
X48819Y51294*
X48819Y51295*
X48819Y51297*
X48819Y51298*
X4882Y513*
X5032Y5D02*
D01*
X50319Y50001*
X50319Y50002*
X50319Y50004*
X50319Y50005*
X50318Y50006*
X50318Y50008*
X50317Y50009*
X50316Y5001*
X50316Y50011*
X50315Y50012*
X50314Y50013*
X50313Y50014*
X50312Y50015*
X50311Y50016*
X5031Y50017*
X50308Y50017*
X50307Y50018*
X50306Y50019*
X50304Y50019*
X50303Y50019*
X50302Y50019*
X503Y50019*
X50299*
X50297Y50019*
X50296Y50019*
X50295Y50019*
X50293Y50019*
X50292Y50018*
X50291Y50017*
X5029Y50017*
X50288Y50016*
X50287Y50015*
X50286Y50014*
X50285Y50013*
X50284Y50012*
X50283Y50011*
X50283Y5001*
X50282Y50009*
X50281Y50008*
X50281Y50006*
X5028Y50005*
X5028Y50004*
X5028Y50002*
X5028Y50001*
X5028Y5*
X5028Y49998*
X5028Y49997*
X5028Y49995*
X5028Y49994*
X50281Y49993*
X50281Y49991*
X50282Y4999*
X50283Y49989*
X50283Y49988*
X50284Y49987*
X50285Y49986*
X50286Y49985*
X50287Y49984*
X50288Y49983*
X5029Y49982*
X50291Y49982*
X50292Y49981*
X50293Y4998*
X50295Y4998*
X50296Y4998*
X50297Y4998*
X50299Y4998*
X503*
X50302Y4998*
X50303Y4998*
X50304Y4998*
X50306Y4998*
X50307Y49981*
X50308Y49982*
X5031Y49982*
X50311Y49983*
X50312Y49984*
X50313Y49985*
X50314Y49986*
X50315Y49987*
X50316Y49988*
X50316Y49989*
X50317Y4999*
X50318Y49991*
X50318Y49993*
X50319Y49994*
X50319Y49995*
X50319Y49997*
X50319Y49998*
X5032Y5*
X5022D02*
D01*
X50219Y50001*
X50219Y50002*
X50219Y50004*
X50219Y50005*
X50218Y50006*
X50218Y50008*
X50217Y50009*
X50216Y5001*
X50216Y50011*
X50215Y50012*
X50214Y50013*
X50213Y50014*
X50212Y50015*
X50211Y50016*
X5021Y50017*
X50208Y50017*
X50207Y50018*
X50206Y50019*
X50204Y50019*
X50203Y50019*
X50202Y50019*
X502Y50019*
X50199*
X50197Y50019*
X50196Y50019*
X50195Y50019*
X50193Y50019*
X50192Y50018*
X50191Y50017*
X5019Y50017*
X50188Y50016*
X50187Y50015*
X50186Y50014*
X50185Y50013*
X50184Y50012*
X50183Y50011*
X50183Y5001*
X50182Y50009*
X50181Y50008*
X50181Y50006*
X5018Y50005*
X5018Y50004*
X5018Y50002*
X5018Y50001*
X5018Y5*
X5018Y49998*
X5018Y49997*
X5018Y49995*
X5018Y49994*
X50181Y49993*
X50181Y49991*
X50182Y4999*
X50183Y49989*
X50183Y49988*
X50184Y49987*
X50185Y49986*
X50186Y49985*
X50187Y49984*
X50188Y49983*
X5019Y49982*
X50191Y49982*
X50192Y49981*
X50193Y4998*
X50195Y4998*
X50196Y4998*
X50197Y4998*
X50199Y4998*
X502*
X50202Y4998*
X50203Y4998*
X50204Y4998*
X50206Y4998*
X50207Y49981*
X50208Y49982*
X5021Y49982*
X50211Y49983*
X50212Y49984*
X50213Y49985*
X50214Y49986*
X50215Y49987*
X50216Y49988*
X50216Y49989*
X50217Y4999*
X50218Y49991*
X50218Y49993*
X50219Y49994*
X50219Y49995*
X50219Y49997*
X50219Y49998*
X5022Y5*
X4902Y513D02*
D01*
X49019Y51301*
X49019Y51302*
X49019Y51304*
X49019Y51305*
X49018Y51306*
X49018Y51308*
X49017Y51309*
X49016Y5131*
X49016Y51311*
X49015Y51312*
X49014Y51313*
X49013Y51314*
X49012Y51315*
X49011Y51316*
X4901Y51317*
X49008Y51317*
X49007Y51318*
X49006Y51319*
X49004Y51319*
X49003Y51319*
X49002Y51319*
X49Y51319*
X48999*
X48997Y51319*
X48996Y51319*
X48995Y51319*
X48993Y51319*
X48992Y51318*
X48991Y51317*
X4899Y51317*
X48988Y51316*
X48987Y51315*
X48986Y51314*
X48985Y51313*
X48984Y51312*
X48983Y51311*
X48983Y5131*
X48982Y51309*
X48981Y51308*
X48981Y51306*
X4898Y51305*
X4898Y51304*
X4898Y51302*
X4898Y51301*
X4898Y513*
X4898Y51298*
X4898Y51297*
X4898Y51295*
X4898Y51294*
X48981Y51293*
X48981Y51291*
X48982Y5129*
X48983Y51289*
X48983Y51288*
X48984Y51287*
X48985Y51286*
X48986Y51285*
X48987Y51284*
X48988Y51283*
X4899Y51282*
X48991Y51282*
X48992Y51281*
X48993Y5128*
X48995Y5128*
X48996Y5128*
X48997Y5128*
X48999Y5128*
X49*
X49002Y5128*
X49003Y5128*
X49004Y5128*
X49006Y5128*
X49007Y51281*
X49008Y51282*
X4901Y51282*
X49011Y51283*
X49012Y51284*
X49013Y51285*
X49014Y51286*
X49015Y51287*
X49016Y51288*
X49016Y51289*
X49017Y5129*
X49018Y51291*
X49018Y51293*
X49019Y51294*
X49019Y51295*
X49019Y51297*
X49019Y51298*
X4902Y513*
X4892D02*
D01*
X48919Y51301*
X48919Y51302*
X48919Y51304*
X48919Y51305*
X48918Y51306*
X48918Y51308*
X48917Y51309*
X48916Y5131*
X48916Y51311*
X48915Y51312*
X48914Y51313*
X48913Y51314*
X48912Y51315*
X48911Y51316*
X4891Y51317*
X48908Y51317*
X48907Y51318*
X48906Y51319*
X48904Y51319*
X48903Y51319*
X48902Y51319*
X489Y51319*
X48899*
X48897Y51319*
X48896Y51319*
X48895Y51319*
X48893Y51319*
X48892Y51318*
X48891Y51317*
X4889Y51317*
X48888Y51316*
X48887Y51315*
X48886Y51314*
X48885Y51313*
X48884Y51312*
X48883Y51311*
X48883Y5131*
X48882Y51309*
X48881Y51308*
X48881Y51306*
X4888Y51305*
X4888Y51304*
X4888Y51302*
X4888Y51301*
X4888Y513*
X4888Y51298*
X4888Y51297*
X4888Y51295*
X4888Y51294*
X48881Y51293*
X48881Y51291*
X48882Y5129*
X48883Y51289*
X48883Y51288*
X48884Y51287*
X48885Y51286*
X48886Y51285*
X48887Y51284*
X48888Y51283*
X4889Y51282*
X48891Y51282*
X48892Y51281*
X48893Y5128*
X48895Y5128*
X48896Y5128*
X48897Y5128*
X48899Y5128*
X489*
X48902Y5128*
X48903Y5128*
X48904Y5128*
X48906Y5128*
X48907Y51281*
X48908Y51282*
X4891Y51282*
X48911Y51283*
X48912Y51284*
X48913Y51285*
X48914Y51286*
X48915Y51287*
X48916Y51288*
X48916Y51289*
X48917Y5129*
X48918Y51291*
X48918Y51293*
X48919Y51294*
X48919Y51295*
X48919Y51297*
X48919Y51298*
X4892Y513*
X5012Y5D02*
D01*
X50119Y50001*
X50119Y50002*
X50119Y50004*
X50119Y50005*
X50118Y50006*
X50118Y50008*
X50117Y50009*
X50116Y5001*
X50116Y50011*
X50115Y50012*
X50114Y50013*
X50113Y50014*
X50112Y50015*
X50111Y50016*
X5011Y50017*
X50108Y50017*
X50107Y50018*
X50106Y50019*
X50104Y50019*
X50103Y50019*
X50102Y50019*
X501Y50019*
X50099*
X50097Y50019*
X50096Y50019*
X50095Y50019*
X50093Y50019*
X50092Y50018*
X50091Y50017*
X5009Y50017*
X50088Y50016*
X50087Y50015*
X50086Y50014*
X50085Y50013*
X50084Y50012*
X50083Y50011*
X50083Y5001*
X50082Y50009*
X50081Y50008*
X50081Y50006*
X5008Y50005*
X5008Y50004*
X5008Y50002*
X5008Y50001*
X5008Y5*
X5008Y49998*
X5008Y49997*
X5008Y49995*
X5008Y49994*
X50081Y49993*
X50081Y49991*
X50082Y4999*
X50083Y49989*
X50083Y49988*
X50084Y49987*
X50085Y49986*
X50086Y49985*
X50087Y49984*
X50088Y49983*
X5009Y49982*
X50091Y49982*
X50092Y49981*
X50093Y4998*
X50095Y4998*
X50096Y4998*
X50097Y4998*
X50099Y4998*
X501*
X50102Y4998*
X50103Y4998*
X50104Y4998*
X50106Y4998*
X50107Y49981*
X50108Y49982*
X5011Y49982*
X50111Y49983*
X50112Y49984*
X50113Y49985*
X50114Y49986*
X50115Y49987*
X50116Y49988*
X50116Y49989*
X50117Y4999*
X50118Y49991*
X50118Y49993*
X50119Y49994*
X50119Y49995*
X50119Y49997*
X50119Y49998*
X5012Y5*
X5002D02*
D01*
X50019Y50001*
X50019Y50002*
X50019Y50004*
X50019Y50005*
X50018Y50006*
X50018Y50008*
X50017Y50009*
X50016Y5001*
X50016Y50011*
X50015Y50012*
X50014Y50013*
X50013Y50014*
X50012Y50015*
X50011Y50016*
X5001Y50017*
X50008Y50017*
X50007Y50018*
X50006Y50019*
X50004Y50019*
X50003Y50019*
X50002Y50019*
X5Y50019*
X49999*
X49997Y50019*
X49996Y50019*
X49995Y50019*
X49993Y50019*
X49992Y50018*
X49991Y50017*
X4999Y50017*
X49988Y50016*
X49987Y50015*
X49986Y50014*
X49985Y50013*
X49984Y50012*
X49983Y50011*
X49983Y5001*
X49982Y50009*
X49981Y50008*
X49981Y50006*
X4998Y50005*
X4998Y50004*
X4998Y50002*
X4998Y50001*
X4998Y5*
X4998Y49998*
X4998Y49997*
X4998Y49995*
X4998Y49994*
X49981Y49993*
X49981Y49991*
X49982Y4999*
X49983Y49989*
X49983Y49988*
X49984Y49987*
X49985Y49986*
X49986Y49985*
X49987Y49984*
X49988Y49983*
X4999Y49982*
X49991Y49982*
X49992Y49981*
X49993Y4998*
X49995Y4998*
X49996Y4998*
X49997Y4998*
X49999Y4998*
X5*
X50002Y4998*
X50003Y4998*
X50004Y4998*
X50006Y4998*
X50007Y49981*
X50008Y49982*
X5001Y49982*
X50011Y49983*
X50012Y49984*
X50013Y49985*
X50014Y49986*
X50015Y49987*
X50016Y49988*
X50016Y49989*
X50017Y4999*
X50018Y49991*
X50018Y49993*
X50019Y49994*
X50019Y49995*
X50019Y49997*
X50019Y49998*
X5002Y5*
X4872Y513D02*
D01*
X48719Y51301*
X48719Y51302*
X48719Y51304*
X48719Y51305*
X48718Y51306*
X48718Y51308*
X48717Y51309*
X48716Y5131*
X48716Y51311*
X48715Y51312*
X48714Y51313*
X48713Y51314*
X48712Y51315*
X48711Y51316*
X4871Y51317*
X48708Y51317*
X48707Y51318*
X48706Y51319*
X48704Y51319*
X48703Y51319*
X48702Y51319*
X487Y51319*
X48699*
X48697Y51319*
X48696Y51319*
X48695Y51319*
X48693Y51319*
X48692Y51318*
X48691Y51317*
X4869Y51317*
X48688Y51316*
X48687Y51315*
X48686Y51314*
X48685Y51313*
X48684Y51312*
X48683Y51311*
X48683Y5131*
X48682Y51309*
X48681Y51308*
X48681Y51306*
X4868Y51305*
X4868Y51304*
X4868Y51302*
X4868Y51301*
X4868Y513*
X4868Y51298*
X4868Y51297*
X4868Y51295*
X4868Y51294*
X48681Y51293*
X48681Y51291*
X48682Y5129*
X48683Y51289*
X48683Y51288*
X48684Y51287*
X48685Y51286*
X48686Y51285*
X48687Y51284*
X48688Y51283*
X4869Y51282*
X48691Y51282*
X48692Y51281*
X48693Y5128*
X48695Y5128*
X48696Y5128*
X48697Y5128*
X48699Y5128*
X487*
X48702Y5128*
X48703Y5128*
X48704Y5128*
X48706Y5128*
X48707Y51281*
X48708Y51282*
X4871Y51282*
X48711Y51283*
X48712Y51284*
X48713Y51285*
X48714Y51286*
X48715Y51287*
X48716Y51288*
X48716Y51289*
X48717Y5129*
X48718Y51291*
X48718Y51293*
X48719Y51294*
X48719Y51295*
X48719Y51297*
X48719Y51298*
X4872Y513*
X4992Y5D02*
D01*
X49919Y50001*
X49919Y50002*
X49919Y50004*
X49919Y50005*
X49918Y50006*
X49918Y50008*
X49917Y50009*
X49916Y5001*
X49916Y50011*
X49915Y50012*
X49914Y50013*
X49913Y50014*
X49912Y50015*
X49911Y50016*
X4991Y50017*
X49908Y50017*
X49907Y50018*
X49906Y50019*
X49904Y50019*
X49903Y50019*
X49902Y50019*
X499Y50019*
X49899*
X49897Y50019*
X49896Y50019*
X49895Y50019*
X49893Y50019*
X49892Y50018*
X49891Y50017*
X4989Y50017*
X49888Y50016*
X49887Y50015*
X49886Y50014*
X49885Y50013*
X49884Y50012*
X49883Y50011*
X49883Y5001*
X49882Y50009*
X49881Y50008*
X49881Y50006*
X4988Y50005*
X4988Y50004*
X4988Y50002*
X4988Y50001*
X4988Y5*
X4988Y49998*
X4988Y49997*
X4988Y49995*
X4988Y49994*
X49881Y49993*
X49881Y49991*
X49882Y4999*
X49883Y49989*
X49883Y49988*
X49884Y49987*
X49885Y49986*
X49886Y49985*
X49887Y49984*
X49888Y49983*
X4989Y49982*
X49891Y49982*
X49892Y49981*
X49893Y4998*
X49895Y4998*
X49896Y4998*
X49897Y4998*
X49899Y4998*
X499*
X49902Y4998*
X49903Y4998*
X49904Y4998*
X49906Y4998*
X49907Y49981*
X49908Y49982*
X4991Y49982*
X49911Y49983*
X49912Y49984*
X49913Y49985*
X49914Y49986*
X49915Y49987*
X49916Y49988*
X49916Y49989*
X49917Y4999*
X49918Y49991*
X49918Y49993*
X49919Y49994*
X49919Y49995*
X49919Y49997*
X49919Y49998*
X4992Y5*
X4982D02*
D01*
X49819Y50001*
X49819Y50002*
X49819Y50004*
X49819Y50005*
X49818Y50006*
X49818Y50008*
X49817Y50009*
X49816Y5001*
X49816Y50011*
X49815Y50012*
X49814Y50013*
X49813Y50014*
X49812Y50015*
X49811Y50016*
X4981Y50017*
X49808Y50017*
X49807Y50018*
X49806Y50019*
X49804Y50019*
X49803Y50019*
X49802Y50019*
X498Y50019*
X49799*
X49797Y50019*
X49796Y50019*
X49795Y50019*
X49793Y50019*
X49792Y50018*
X49791Y50017*
X4979Y50017*
X49788Y50016*
X49787Y50015*
X49786Y50014*
X49785Y50013*
X49784Y50012*
X49783Y50011*
X49783Y5001*
X49782Y50009*
X49781Y50008*
X49781Y50006*
X4978Y50005*
X4978Y50004*
X4978Y50002*
X4978Y50001*
X4978Y5*
X4978Y49998*
X4978Y49997*
X4978Y49995*
X4978Y49994*
X49781Y49993*
X49781Y49991*
X49782Y4999*
X49783Y49989*
X49783Y49988*
X49784Y49987*
X49785Y49986*
X49786Y49985*
X49787Y49984*
X49788Y49983*
X4979Y49982*
X49791Y49982*
X49792Y49981*
X49793Y4998*
X49795Y4998*
X49796Y4998*
X49797Y4998*
X49799Y4998*
X498*
X49802Y4998*
X49803Y4998*
X49804Y4998*
X49806Y4998*
X49807Y49981*
X49808Y49982*
X4981Y49982*
X49811Y49983*
X49812Y49984*
X49813Y49985*
X49814Y49986*
X49815Y49987*
X49816Y49988*
X49816Y49989*
X49817Y4999*
X49818Y49991*
X49818Y49993*
X49819Y49994*
X49819Y49995*
X49819Y49997*
X49819Y49998*
X4982Y5*
X4852Y513D02*
D01*
X48519Y51301*
X48519Y51302*
X48519Y51304*
X48519Y51305*
X48518Y51306*
X48518Y51308*
X48517Y51309*
X48516Y5131*
X48516Y51311*
X48515Y51312*
X48514Y51313*
X48513Y51314*
X48512Y51315*
X48511Y51316*
X4851Y51317*
X48508Y51317*
X48507Y51318*
X48506Y51319*
X48504Y51319*
X48503Y51319*
X48502Y51319*
X485Y51319*
X48499*
X48497Y51319*
X48496Y51319*
X48495Y51319*
X48493Y51319*
X48492Y51318*
X48491Y51317*
X4849Y51317*
X48488Y51316*
X48487Y51315*
X48486Y51314*
X48485Y51313*
X48484Y51312*
X48483Y51311*
X48483Y5131*
X48482Y51309*
X48481Y51308*
X48481Y51306*
X4848Y51305*
X4848Y51304*
X4848Y51302*
X4848Y51301*
X4848Y513*
X4848Y51298*
X4848Y51297*
X4848Y51295*
X4848Y51294*
X48481Y51293*
X48481Y51291*
X48482Y5129*
X48483Y51289*
X48483Y51288*
X48484Y51287*
X48485Y51286*
X48486Y51285*
X48487Y51284*
X48488Y51283*
X4849Y51282*
X48491Y51282*
X48492Y51281*
X48493Y5128*
X48495Y5128*
X48496Y5128*
X48497Y5128*
X48499Y5128*
X485*
X48502Y5128*
X48503Y5128*
X48504Y5128*
X48506Y5128*
X48507Y51281*
X48508Y51282*
X4851Y51282*
X48511Y51283*
X48512Y51284*
X48513Y51285*
X48514Y51286*
X48515Y51287*
X48516Y51288*
X48516Y51289*
X48517Y5129*
X48518Y51291*
X48518Y51293*
X48519Y51294*
X48519Y51295*
X48519Y51297*
X48519Y51298*
X4852Y513*
X4842D02*
D01*
X48419Y51301*
X48419Y51302*
X48419Y51304*
X48419Y51305*
X48418Y51306*
X48418Y51308*
X48417Y51309*
X48416Y5131*
X48416Y51311*
X48415Y51312*
X48414Y51313*
X48413Y51314*
X48412Y51315*
X48411Y51316*
X4841Y51317*
X48408Y51317*
X48407Y51318*
X48406Y51319*
X48404Y51319*
X48403Y51319*
X48402Y51319*
X484Y51319*
X48399*
X48397Y51319*
X48396Y51319*
X48395Y51319*
X48393Y51319*
X48392Y51318*
X48391Y51317*
X4839Y51317*
X48388Y51316*
X48387Y51315*
X48386Y51314*
X48385Y51313*
X48384Y51312*
X48383Y51311*
X48383Y5131*
X48382Y51309*
X48381Y51308*
X48381Y51306*
X4838Y51305*
X4838Y51304*
X4838Y51302*
X4838Y51301*
X4838Y513*
X4838Y51298*
X4838Y51297*
X4838Y51295*
X4838Y51294*
X48381Y51293*
X48381Y51291*
X48382Y5129*
X48383Y51289*
X48383Y51288*
X48384Y51287*
X48385Y51286*
X48386Y51285*
X48387Y51284*
X48388Y51283*
X4839Y51282*
X48391Y51282*
X48392Y51281*
X48393Y5128*
X48395Y5128*
X48396Y5128*
X48397Y5128*
X48399Y5128*
X484*
X48402Y5128*
X48403Y5128*
X48404Y5128*
X48406Y5128*
X48407Y51281*
X48408Y51282*
X4841Y51282*
X48411Y51283*
X48412Y51284*
X48413Y51285*
X48414Y51286*
X48415Y51287*
X48416Y51288*
X48416Y51289*
X48417Y5129*
X48418Y51291*
X48418Y51293*
X48419Y51294*
X48419Y51295*
X48419Y51297*
X48419Y51298*
X4842Y513*
X4832D02*
D01*
X48319Y51301*
X48319Y51302*
X48319Y51304*
X48319Y51305*
X48318Y51306*
X48318Y51308*
X48317Y51309*
X48316Y5131*
X48316Y51311*
X48315Y51312*
X48314Y51313*
X48313Y51314*
X48312Y51315*
X48311Y51316*
X4831Y51317*
X48308Y51317*
X48307Y51318*
X48306Y51319*
X48304Y51319*
X48303Y51319*
X48302Y51319*
X483Y51319*
X48299*
X48297Y51319*
X48296Y51319*
X48295Y51319*
X48293Y51319*
X48292Y51318*
X48291Y51317*
X4829Y51317*
X48288Y51316*
X48287Y51315*
X48286Y51314*
X48285Y51313*
X48284Y51312*
X48283Y51311*
X48283Y5131*
X48282Y51309*
X48281Y51308*
X48281Y51306*
X4828Y51305*
X4828Y51304*
X4828Y51302*
X4828Y51301*
X4828Y513*
X4828Y51298*
X4828Y51297*
X4828Y51295*
X4828Y51294*
X48281Y51293*
X48281Y51291*
X48282Y5129*
X48283Y51289*
X48283Y51288*
X48284Y51287*
X48285Y51286*
X48286Y51285*
X48287Y51284*
X48288Y51283*
X4829Y51282*
X48291Y51282*
X48292Y51281*
X48293Y5128*
X48295Y5128*
X48296Y5128*
X48297Y5128*
X48299Y5128*
X483*
X48302Y5128*
X48303Y5128*
X48304Y5128*
X48306Y5128*
X48307Y51281*
X48308Y51282*
X4831Y51282*
X48311Y51283*
X48312Y51284*
X48313Y51285*
X48314Y51286*
X48315Y51287*
X48316Y51288*
X48316Y51289*
X48317Y5129*
X48318Y51291*
X48318Y51293*
X48319Y51294*
X48319Y51295*
X48319Y51297*
X48319Y51298*
X4832Y513*
X4822D02*
D01*
X48219Y51301*
X48219Y51302*
X48219Y51304*
X48219Y51305*
X48218Y51306*
X48218Y51308*
X48217Y51309*
X48216Y5131*
X48216Y51311*
X48215Y51312*
X48214Y51313*
X48213Y51314*
X48212Y51315*
X48211Y51316*
X4821Y51317*
X48208Y51317*
X48207Y51318*
X48206Y51319*
X48204Y51319*
X48203Y51319*
X48202Y51319*
X482Y51319*
X48199*
X48197Y51319*
X48196Y51319*
X48195Y51319*
X48193Y51319*
X48192Y51318*
X48191Y51317*
X4819Y51317*
X48188Y51316*
X48187Y51315*
X48186Y51314*
X48185Y51313*
X48184Y51312*
X48183Y51311*
X48183Y5131*
X48182Y51309*
X48181Y51308*
X48181Y51306*
X4818Y51305*
X4818Y51304*
X4818Y51302*
X4818Y51301*
X4818Y513*
X4818Y51298*
X4818Y51297*
X4818Y51295*
X4818Y51294*
X48181Y51293*
X48181Y51291*
X48182Y5129*
X48183Y51289*
X48183Y51288*
X48184Y51287*
X48185Y51286*
X48186Y51285*
X48187Y51284*
X48188Y51283*
X4819Y51282*
X48191Y51282*
X48192Y51281*
X48193Y5128*
X48195Y5128*
X48196Y5128*
X48197Y5128*
X48199Y5128*
X482*
X48202Y5128*
X48203Y5128*
X48204Y5128*
X48206Y5128*
X48207Y51281*
X48208Y51282*
X4821Y51282*
X48211Y51283*
X48212Y51284*
X48213Y51285*
X48214Y51286*
X48215Y51287*
X48216Y51288*
X48216Y51289*
X48217Y5129*
X48218Y51291*
X48218Y51293*
X48219Y51294*
X48219Y51295*
X48219Y51297*
X48219Y51298*
X4822Y513*
X4812D02*
D01*
X48119Y51301*
X48119Y51302*
X48119Y51304*
X48119Y51305*
X48118Y51306*
X48118Y51308*
X48117Y51309*
X48116Y5131*
X48116Y51311*
X48115Y51312*
X48114Y51313*
X48113Y51314*
X48112Y51315*
X48111Y51316*
X4811Y51317*
X48108Y51317*
X48107Y51318*
X48106Y51319*
X48104Y51319*
X48103Y51319*
X48102Y51319*
X481Y51319*
X48099*
X48097Y51319*
X48096Y51319*
X48095Y51319*
X48093Y51319*
X48092Y51318*
X48091Y51317*
X4809Y51317*
X48088Y51316*
X48087Y51315*
X48086Y51314*
X48085Y51313*
X48084Y51312*
X48083Y51311*
X48083Y5131*
X48082Y51309*
X48081Y51308*
X48081Y51306*
X4808Y51305*
X4808Y51304*
X4808Y51302*
X4808Y51301*
X4808Y513*
X4808Y51298*
X4808Y51297*
X4808Y51295*
X4808Y51294*
X48081Y51293*
X48081Y51291*
X48082Y5129*
X48083Y51289*
X48083Y51288*
X48084Y51287*
X48085Y51286*
X48086Y51285*
X48087Y51284*
X48088Y51283*
X4809Y51282*
X48091Y51282*
X48092Y51281*
X48093Y5128*
X48095Y5128*
X48096Y5128*
X48097Y5128*
X48099Y5128*
X481*
X48102Y5128*
X48103Y5128*
X48104Y5128*
X48106Y5128*
X48107Y51281*
X48108Y51282*
X4811Y51282*
X48111Y51283*
X48112Y51284*
X48113Y51285*
X48114Y51286*
X48115Y51287*
X48116Y51288*
X48116Y51289*
X48117Y5129*
X48118Y51291*
X48118Y51293*
X48119Y51294*
X48119Y51295*
X48119Y51297*
X48119Y51298*
X4812Y513*
X4802D02*
D01*
X48019Y51301*
X48019Y51302*
X48019Y51304*
X48019Y51305*
X48018Y51306*
X48018Y51308*
X48017Y51309*
X48016Y5131*
X48016Y51311*
X48015Y51312*
X48014Y51313*
X48013Y51314*
X48012Y51315*
X48011Y51316*
X4801Y51317*
X48008Y51317*
X48007Y51318*
X48006Y51319*
X48004Y51319*
X48003Y51319*
X48002Y51319*
X48Y51319*
X47999*
X47997Y51319*
X47996Y51319*
X47995Y51319*
X47993Y51319*
X47992Y51318*
X47991Y51317*
X4799Y51317*
X47988Y51316*
X47987Y51315*
X47986Y51314*
X47985Y51313*
X47984Y51312*
X47983Y51311*
X47983Y5131*
X47982Y51309*
X47981Y51308*
X47981Y51306*
X4798Y51305*
X4798Y51304*
X4798Y51302*
X4798Y51301*
X4798Y513*
X4798Y51298*
X4798Y51297*
X4798Y51295*
X4798Y51294*
X47981Y51293*
X47981Y51291*
X47982Y5129*
X47983Y51289*
X47983Y51288*
X47984Y51287*
X47985Y51286*
X47986Y51285*
X47987Y51284*
X47988Y51283*
X4799Y51282*
X47991Y51282*
X47992Y51281*
X47993Y5128*
X47995Y5128*
X47996Y5128*
X47997Y5128*
X47999Y5128*
X48*
X48002Y5128*
X48003Y5128*
X48004Y5128*
X48006Y5128*
X48007Y51281*
X48008Y51282*
X4801Y51282*
X48011Y51283*
X48012Y51284*
X48013Y51285*
X48014Y51286*
X48015Y51287*
X48016Y51288*
X48016Y51289*
X48017Y5129*
X48018Y51291*
X48018Y51293*
X48019Y51294*
X48019Y51295*
X48019Y51297*
X48019Y51298*
X4802Y513*
X5032D02*
D01*
X50319Y51301*
X50319Y51302*
X50319Y51304*
X50319Y51305*
X50318Y51306*
X50318Y51308*
X50317Y51309*
X50316Y5131*
X50316Y51311*
X50315Y51312*
X50314Y51313*
X50313Y51314*
X50312Y51315*
X50311Y51316*
X5031Y51317*
X50308Y51317*
X50307Y51318*
X50306Y51319*
X50304Y51319*
X50303Y51319*
X50302Y51319*
X503Y51319*
X50299*
X50297Y51319*
X50296Y51319*
X50295Y51319*
X50293Y51319*
X50292Y51318*
X50291Y51317*
X5029Y51317*
X50288Y51316*
X50287Y51315*
X50286Y51314*
X50285Y51313*
X50284Y51312*
X50283Y51311*
X50283Y5131*
X50282Y51309*
X50281Y51308*
X50281Y51306*
X5028Y51305*
X5028Y51304*
X5028Y51302*
X5028Y51301*
X5028Y513*
X5028Y51298*
X5028Y51297*
X5028Y51295*
X5028Y51294*
X50281Y51293*
X50281Y51291*
X50282Y5129*
X50283Y51289*
X50283Y51288*
X50284Y51287*
X50285Y51286*
X50286Y51285*
X50287Y51284*
X50288Y51283*
X5029Y51282*
X50291Y51282*
X50292Y51281*
X50293Y5128*
X50295Y5128*
X50296Y5128*
X50297Y5128*
X50299Y5128*
X503*
X50302Y5128*
X50303Y5128*
X50304Y5128*
X50306Y5128*
X50307Y51281*
X50308Y51282*
X5031Y51282*
X50311Y51283*
X50312Y51284*
X50313Y51285*
X50314Y51286*
X50315Y51287*
X50316Y51288*
X50316Y51289*
X50317Y5129*
X50318Y51291*
X50318Y51293*
X50319Y51294*
X50319Y51295*
X50319Y51297*
X50319Y51298*
X5032Y513*
X5022D02*
D01*
X50219Y51301*
X50219Y51302*
X50219Y51304*
X50219Y51305*
X50218Y51306*
X50218Y51308*
X50217Y51309*
X50216Y5131*
X50216Y51311*
X50215Y51312*
X50214Y51313*
X50213Y51314*
X50212Y51315*
X50211Y51316*
X5021Y51317*
X50208Y51317*
X50207Y51318*
X50206Y51319*
X50204Y51319*
X50203Y51319*
X50202Y51319*
X502Y51319*
X50199*
X50197Y51319*
X50196Y51319*
X50195Y51319*
X50193Y51319*
X50192Y51318*
X50191Y51317*
X5019Y51317*
X50188Y51316*
X50187Y51315*
X50186Y51314*
X50185Y51313*
X50184Y51312*
X50183Y51311*
X50183Y5131*
X50182Y51309*
X50181Y51308*
X50181Y51306*
X5018Y51305*
X5018Y51304*
X5018Y51302*
X5018Y51301*
X5018Y513*
X5018Y51298*
X5018Y51297*
X5018Y51295*
X5018Y51294*
X50181Y51293*
X50181Y51291*
X50182Y5129*
X50183Y51289*
X50183Y51288*
X50184Y51287*
X50185Y51286*
X50186Y51285*
X50187Y51284*
X50188Y51283*
X5019Y51282*
X50191Y51282*
X50192Y51281*
X50193Y5128*
X50195Y5128*
X50196Y5128*
X50197Y5128*
X50199Y5128*
X502*
X50202Y5128*
X50203Y5128*
X50204Y5128*
X50206Y5128*
X50207Y51281*
X50208Y51282*
X5021Y51282*
X50211Y51283*
X50212Y51284*
X50213Y51285*
X50214Y51286*
X50215Y51287*
X50216Y51288*
X50216Y51289*
X50217Y5129*
X50218Y51291*
X50218Y51293*
X50219Y51294*
X50219Y51295*
X50219Y51297*
X50219Y51298*
X5022Y513*
X5012D02*
D01*
X50119Y51301*
X50119Y51302*
X50119Y51304*
X50119Y51305*
X50118Y51306*
X50118Y51308*
X50117Y51309*
X50116Y5131*
X50116Y51311*
X50115Y51312*
X50114Y51313*
X50113Y51314*
X50112Y51315*
X50111Y51316*
X5011Y51317*
X50108Y51317*
X50107Y51318*
X50106Y51319*
X50104Y51319*
X50103Y51319*
X50102Y51319*
X501Y51319*
X50099*
X50097Y51319*
X50096Y51319*
X50095Y51319*
X50093Y51319*
X50092Y51318*
X50091Y51317*
X5009Y51317*
X50088Y51316*
X50087Y51315*
X50086Y51314*
X50085Y51313*
X50084Y51312*
X50083Y51311*
X50083Y5131*
X50082Y51309*
X50081Y51308*
X50081Y51306*
X5008Y51305*
X5008Y51304*
X5008Y51302*
X5008Y51301*
X5008Y513*
X5008Y51298*
X5008Y51297*
X5008Y51295*
X5008Y51294*
X50081Y51293*
X50081Y51291*
X50082Y5129*
X50083Y51289*
X50083Y51288*
X50084Y51287*
X50085Y51286*
X50086Y51285*
X50087Y51284*
X50088Y51283*
X5009Y51282*
X50091Y51282*
X50092Y51281*
X50093Y5128*
X50095Y5128*
X50096Y5128*
X50097Y5128*
X50099Y5128*
X501*
X50102Y5128*
X50103Y5128*
X50104Y5128*
X50106Y5128*
X50107Y51281*
X50108Y51282*
X5011Y51282*
X50111Y51283*
X50112Y51284*
X50113Y51285*
X50114Y51286*
X50115Y51287*
X50116Y51288*
X50116Y51289*
X50117Y5129*
X50118Y51291*
X50118Y51293*
X50119Y51294*
X50119Y51295*
X50119Y51297*
X50119Y51298*
X5012Y513*
X5002D02*
D01*
X50019Y51301*
X50019Y51302*
X50019Y51304*
X50019Y51305*
X50018Y51306*
X50018Y51308*
X50017Y51309*
X50016Y5131*
X50016Y51311*
X50015Y51312*
X50014Y51313*
X50013Y51314*
X50012Y51315*
X50011Y51316*
X5001Y51317*
X50008Y51317*
X50007Y51318*
X50006Y51319*
X50004Y51319*
X50003Y51319*
X50002Y51319*
X5Y51319*
X49999*
X49997Y51319*
X49996Y51319*
X49995Y51319*
X49993Y51319*
X49992Y51318*
X49991Y51317*
X4999Y51317*
X49988Y51316*
X49987Y51315*
X49986Y51314*
X49985Y51313*
X49984Y51312*
X49983Y51311*
X49983Y5131*
X49982Y51309*
X49981Y51308*
X49981Y51306*
X4998Y51305*
X4998Y51304*
X4998Y51302*
X4998Y51301*
X4998Y513*
X4998Y51298*
X4998Y51297*
X4998Y51295*
X4998Y51294*
X49981Y51293*
X49981Y51291*
X49982Y5129*
X49983Y51289*
X49983Y51288*
X49984Y51287*
X49985Y51286*
X49986Y51285*
X49987Y51284*
X49988Y51283*
X4999Y51282*
X49991Y51282*
X49992Y51281*
X49993Y5128*
X49995Y5128*
X49996Y5128*
X49997Y5128*
X49999Y5128*
X5*
X50002Y5128*
X50003Y5128*
X50004Y5128*
X50006Y5128*
X50007Y51281*
X50008Y51282*
X5001Y51282*
X50011Y51283*
X50012Y51284*
X50013Y51285*
X50014Y51286*
X50015Y51287*
X50016Y51288*
X50016Y51289*
X50017Y5129*
X50018Y51291*
X50018Y51293*
X50019Y51294*
X50019Y51295*
X50019Y51297*
X50019Y51298*
X5002Y513*
X4992D02*
D01*
X49919Y51301*
X49919Y51302*
X49919Y51304*
X49919Y51305*
X49918Y51306*
X49918Y51308*
X49917Y51309*
X49916Y5131*
X49916Y51311*
X49915Y51312*
X49914Y51313*
X49913Y51314*
X49912Y51315*
X49911Y51316*
X4991Y51317*
X49908Y51317*
X49907Y51318*
X49906Y51319*
X49904Y51319*
X49903Y51319*
X49902Y51319*
X499Y51319*
X49899*
X49897Y51319*
X49896Y51319*
X49895Y51319*
X49893Y51319*
X49892Y51318*
X49891Y51317*
X4989Y51317*
X49888Y51316*
X49887Y51315*
X49886Y51314*
X49885Y51313*
X49884Y51312*
X49883Y51311*
X49883Y5131*
X49882Y51309*
X49881Y51308*
X49881Y51306*
X4988Y51305*
X4988Y51304*
X4988Y51302*
X4988Y51301*
X4988Y513*
X4988Y51298*
X4988Y51297*
X4988Y51295*
X4988Y51294*
X49881Y51293*
X49881Y51291*
X49882Y5129*
X49883Y51289*
X49883Y51288*
X49884Y51287*
X49885Y51286*
X49886Y51285*
X49887Y51284*
X49888Y51283*
X4989Y51282*
X49891Y51282*
X49892Y51281*
X49893Y5128*
X49895Y5128*
X49896Y5128*
X49897Y5128*
X49899Y5128*
X499*
X49902Y5128*
X49903Y5128*
X49904Y5128*
X49906Y5128*
X49907Y51281*
X49908Y51282*
X4991Y51282*
X49911Y51283*
X49912Y51284*
X49913Y51285*
X49914Y51286*
X49915Y51287*
X49916Y51288*
X49916Y51289*
X49917Y5129*
X49918Y51291*
X49918Y51293*
X49919Y51294*
X49919Y51295*
X49919Y51297*
X49919Y51298*
X4992Y513*
X4982D02*
D01*
X49819Y51301*
X49819Y51302*
X49819Y51304*
X49819Y51305*
X49818Y51306*
X49818Y51308*
X49817Y51309*
X49816Y5131*
X49816Y51311*
X49815Y51312*
X49814Y51313*
X49813Y51314*
X49812Y51315*
X49811Y51316*
X4981Y51317*
X49808Y51317*
X49807Y51318*
X49806Y51319*
X49804Y51319*
X49803Y51319*
X49802Y51319*
X498Y51319*
X49799*
X49797Y51319*
X49796Y51319*
X49795Y51319*
X49793Y51319*
X49792Y51318*
X49791Y51317*
X4979Y51317*
X49788Y51316*
X49787Y51315*
X49786Y51314*
X49785Y51313*
X49784Y51312*
X49783Y51311*
X49783Y5131*
X49782Y51309*
X49781Y51308*
X49781Y51306*
X4978Y51305*
X4978Y51304*
X4978Y51302*
X4978Y51301*
X4978Y513*
X4978Y51298*
X4978Y51297*
X4978Y51295*
X4978Y51294*
X49781Y51293*
X49781Y51291*
X49782Y5129*
X49783Y51289*
X49783Y51288*
X49784Y51287*
X49785Y51286*
X49786Y51285*
X49787Y51284*
X49788Y51283*
X4979Y51282*
X49791Y51282*
X49792Y51281*
X49793Y5128*
X49795Y5128*
X49796Y5128*
X49797Y5128*
X49799Y5128*
X498*
X49802Y5128*
X49803Y5128*
X49804Y5128*
X49806Y5128*
X49807Y51281*
X49808Y51282*
X4981Y51282*
X49811Y51283*
X49812Y51284*
X49813Y51285*
X49814Y51286*
X49815Y51287*
X49816Y51288*
X49816Y51289*
X49817Y5129*
X49818Y51291*
X49818Y51293*
X49819Y51294*
X49819Y51295*
X49819Y51297*
X49819Y51298*
X4982Y513*
X4972D02*
D01*
X49719Y51301*
X49719Y51302*
X49719Y51304*
X49719Y51305*
X49718Y51306*
X49718Y51308*
X49717Y51309*
X49716Y5131*
X49716Y51311*
X49715Y51312*
X49714Y51313*
X49713Y51314*
X49712Y51315*
X49711Y51316*
X4971Y51317*
X49708Y51317*
X49707Y51318*
X49706Y51319*
X49704Y51319*
X49703Y51319*
X49702Y51319*
X497Y51319*
X49699*
X49697Y51319*
X49696Y51319*
X49695Y51319*
X49693Y51319*
X49692Y51318*
X49691Y51317*
X4969Y51317*
X49688Y51316*
X49687Y51315*
X49686Y51314*
X49685Y51313*
X49684Y51312*
X49683Y51311*
X49683Y5131*
X49682Y51309*
X49681Y51308*
X49681Y51306*
X4968Y51305*
X4968Y51304*
X4968Y51302*
X4968Y51301*
X4968Y513*
X4968Y51298*
X4968Y51297*
X4968Y51295*
X4968Y51294*
X49681Y51293*
X49681Y51291*
X49682Y5129*
X49683Y51289*
X49683Y51288*
X49684Y51287*
X49685Y51286*
X49686Y51285*
X49687Y51284*
X49688Y51283*
X4969Y51282*
X49691Y51282*
X49692Y51281*
X49693Y5128*
X49695Y5128*
X49696Y5128*
X49697Y5128*
X49699Y5128*
X497*
X49702Y5128*
X49703Y5128*
X49704Y5128*
X49706Y5128*
X49707Y51281*
X49708Y51282*
X4971Y51282*
X49711Y51283*
X49712Y51284*
X49713Y51285*
X49714Y51286*
X49715Y51287*
X49716Y51288*
X49716Y51289*
X49717Y5129*
X49718Y51291*
X49718Y51293*
X49719Y51294*
X49719Y51295*
X49719Y51297*
X49719Y51298*
X4972Y513*
X4962D02*
D01*
X49619Y51301*
X49619Y51302*
X49619Y51304*
X49619Y51305*
X49618Y51306*
X49618Y51308*
X49617Y51309*
X49616Y5131*
X49616Y51311*
X49615Y51312*
X49614Y51313*
X49613Y51314*
X49612Y51315*
X49611Y51316*
X4961Y51317*
X49608Y51317*
X49607Y51318*
X49606Y51319*
X49604Y51319*
X49603Y51319*
X49602Y51319*
X496Y51319*
X49599*
X49597Y51319*
X49596Y51319*
X49595Y51319*
X49593Y51319*
X49592Y51318*
X49591Y51317*
X4959Y51317*
X49588Y51316*
X49587Y51315*
X49586Y51314*
X49585Y51313*
X49584Y51312*
X49583Y51311*
X49583Y5131*
X49582Y51309*
X49581Y51308*
X49581Y51306*
X4958Y51305*
X4958Y51304*
X4958Y51302*
X4958Y51301*
X4958Y513*
X4958Y51298*
X4958Y51297*
X4958Y51295*
X4958Y51294*
X49581Y51293*
X49581Y51291*
X49582Y5129*
X49583Y51289*
X49583Y51288*
X49584Y51287*
X49585Y51286*
X49586Y51285*
X49587Y51284*
X49588Y51283*
X4959Y51282*
X49591Y51282*
X49592Y51281*
X49593Y5128*
X49595Y5128*
X49596Y5128*
X49597Y5128*
X49599Y5128*
X496*
X49602Y5128*
X49603Y5128*
X49604Y5128*
X49606Y5128*
X49607Y51281*
X49608Y51282*
X4961Y51282*
X49611Y51283*
X49612Y51284*
X49613Y51285*
X49614Y51286*
X49615Y51287*
X49616Y51288*
X49616Y51289*
X49617Y5129*
X49618Y51291*
X49618Y51293*
X49619Y51294*
X49619Y51295*
X49619Y51297*
X49619Y51298*
X4962Y513*
X4952D02*
D01*
X49519Y51301*
X49519Y51302*
X49519Y51304*
X49519Y51305*
X49518Y51306*
X49518Y51308*
X49517Y51309*
X49516Y5131*
X49516Y51311*
X49515Y51312*
X49514Y51313*
X49513Y51314*
X49512Y51315*
X49511Y51316*
X4951Y51317*
X49508Y51317*
X49507Y51318*
X49506Y51319*
X49504Y51319*
X49503Y51319*
X49502Y51319*
X495Y51319*
X49499*
X49497Y51319*
X49496Y51319*
X49495Y51319*
X49493Y51319*
X49492Y51318*
X49491Y51317*
X4949Y51317*
X49488Y51316*
X49487Y51315*
X49486Y51314*
X49485Y51313*
X49484Y51312*
X49483Y51311*
X49483Y5131*
X49482Y51309*
X49481Y51308*
X49481Y51306*
X4948Y51305*
X4948Y51304*
X4948Y51302*
X4948Y51301*
X4948Y513*
X4948Y51298*
X4948Y51297*
X4948Y51295*
X4948Y51294*
X49481Y51293*
X49481Y51291*
X49482Y5129*
X49483Y51289*
X49483Y51288*
X49484Y51287*
X49485Y51286*
X49486Y51285*
X49487Y51284*
X49488Y51283*
X4949Y51282*
X49491Y51282*
X49492Y51281*
X49493Y5128*
X49495Y5128*
X49496Y5128*
X49497Y5128*
X49499Y5128*
X495*
X49502Y5128*
X49503Y5128*
X49504Y5128*
X49506Y5128*
X49507Y51281*
X49508Y51282*
X4951Y51282*
X49511Y51283*
X49512Y51284*
X49513Y51285*
X49514Y51286*
X49515Y51287*
X49516Y51288*
X49516Y51289*
X49517Y5129*
X49518Y51291*
X49518Y51293*
X49519Y51294*
X49519Y51295*
X49519Y51297*
X49519Y51298*
X4952Y513*
X4942D02*
D01*
X49419Y51301*
X49419Y51302*
X49419Y51304*
X49419Y51305*
X49418Y51306*
X49418Y51308*
X49417Y51309*
X49416Y5131*
X49416Y51311*
X49415Y51312*
X49414Y51313*
X49413Y51314*
X49412Y51315*
X49411Y51316*
X4941Y51317*
X49408Y51317*
X49407Y51318*
X49406Y51319*
X49404Y51319*
X49403Y51319*
X49402Y51319*
X494Y51319*
X49399*
X49397Y51319*
X49396Y51319*
X49395Y51319*
X49393Y51319*
X49392Y51318*
X49391Y51317*
X4939Y51317*
X49388Y51316*
X49387Y51315*
X49386Y51314*
X49385Y51313*
X49384Y51312*
X49383Y51311*
X49383Y5131*
X49382Y51309*
X49381Y51308*
X49381Y51306*
X4938Y51305*
X4938Y51304*
X4938Y51302*
X4938Y51301*
X4938Y513*
X4938Y51298*
X4938Y51297*
X4938Y51295*
X4938Y51294*
X49381Y51293*
X49381Y51291*
X49382Y5129*
X49383Y51289*
X49383Y51288*
X49384Y51287*
X49385Y51286*
X49386Y51285*
X49387Y51284*
X49388Y51283*
X4939Y51282*
X49391Y51282*
X49392Y51281*
X49393Y5128*
X49395Y5128*
X49396Y5128*
X49397Y5128*
X49399Y5128*
X494*
X49402Y5128*
X49403Y5128*
X49404Y5128*
X49406Y5128*
X49407Y51281*
X49408Y51282*
X4941Y51282*
X49411Y51283*
X49412Y51284*
X49413Y51285*
X49414Y51286*
X49415Y51287*
X49416Y51288*
X49416Y51289*
X49417Y5129*
X49418Y51291*
X49418Y51293*
X49419Y51294*
X49419Y51295*
X49419Y51297*
X49419Y51298*
X4942Y513*
X4932D02*
D01*
X49319Y51301*
X49319Y51302*
X49319Y51304*
X49319Y51305*
X49318Y51306*
X49318Y51308*
X49317Y51309*
X49316Y5131*
X49316Y51311*
X49315Y51312*
X49314Y51313*
X49313Y51314*
X49312Y51315*
X49311Y51316*
X4931Y51317*
X49308Y51317*
X49307Y51318*
X49306Y51319*
X49304Y51319*
X49303Y51319*
X49302Y51319*
X493Y51319*
X49299*
X49297Y51319*
X49296Y51319*
X49295Y51319*
X49293Y51319*
X49292Y51318*
X49291Y51317*
X4929Y51317*
X49288Y51316*
X49287Y51315*
X49286Y51314*
X49285Y51313*
X49284Y51312*
X49283Y51311*
X49283Y5131*
X49282Y51309*
X49281Y51308*
X49281Y51306*
X4928Y51305*
X4928Y51304*
X4928Y51302*
X4928Y51301*
X4928Y513*
X4928Y51298*
X4928Y51297*
X4928Y51295*
X4928Y51294*
X49281Y51293*
X49281Y51291*
X49282Y5129*
X49283Y51289*
X49283Y51288*
X49284Y51287*
X49285Y51286*
X49286Y51285*
X49287Y51284*
X49288Y51283*
X4929Y51282*
X49291Y51282*
X49292Y51281*
X49293Y5128*
X49295Y5128*
X49296Y5128*
X49297Y5128*
X49299Y5128*
X493*
X49302Y5128*
X49303Y5128*
X49304Y5128*
X49306Y5128*
X49307Y51281*
X49308Y51282*
X4931Y51282*
X49311Y51283*
X49312Y51284*
X49313Y51285*
X49314Y51286*
X49315Y51287*
X49316Y51288*
X49316Y51289*
X49317Y5129*
X49318Y51291*
X49318Y51293*
X49319Y51294*
X49319Y51295*
X49319Y51297*
X49319Y51298*
X4932Y513*
X4922D02*
D01*
X49219Y51301*
X49219Y51302*
X49219Y51304*
X49219Y51305*
X49218Y51306*
X49218Y51308*
X49217Y51309*
X49216Y5131*
X49216Y51311*
X49215Y51312*
X49214Y51313*
X49213Y51314*
X49212Y51315*
X49211Y51316*
X4921Y51317*
X49208Y51317*
X49207Y51318*
X49206Y51319*
X49204Y51319*
X49203Y51319*
X49202Y51319*
X492Y51319*
X49199*
X49197Y51319*
X49196Y51319*
X49195Y51319*
X49193Y51319*
X49192Y51318*
X49191Y51317*
X4919Y51317*
X49188Y51316*
X49187Y51315*
X49186Y51314*
X49185Y51313*
X49184Y51312*
X49183Y51311*
X49183Y5131*
X49182Y51309*
X49181Y51308*
X49181Y51306*
X4918Y51305*
X4918Y51304*
X4918Y51302*
X4918Y51301*
X4918Y513*
X4918Y51298*
X4918Y51297*
X4918Y51295*
X4918Y51294*
X49181Y51293*
X49181Y51291*
X49182Y5129*
X49183Y51289*
X49183Y51288*
X49184Y51287*
X49185Y51286*
X49186Y51285*
X49187Y51284*
X49188Y51283*
X4919Y51282*
X49191Y51282*
X49192Y51281*
X49193Y5128*
X49195Y5128*
X49196Y5128*
X49197Y5128*
X49199Y5128*
X492*
X49202Y5128*
X49203Y5128*
X49204Y5128*
X49206Y5128*
X49207Y51281*
X49208Y51282*
X4921Y51282*
X49211Y51283*
X49212Y51284*
X49213Y51285*
X49214Y51286*
X49215Y51287*
X49216Y51288*
X49216Y51289*
X49217Y5129*
X49218Y51291*
X49218Y51293*
X49219Y51294*
X49219Y51295*
X49219Y51297*
X49219Y51298*
X4922Y513*
X4972Y5D02*
D01*
X49719Y50001*
X49719Y50002*
X49719Y50004*
X49719Y50005*
X49718Y50006*
X49718Y50008*
X49717Y50009*
X49716Y5001*
X49716Y50011*
X49715Y50012*
X49714Y50013*
X49713Y50014*
X49712Y50015*
X49711Y50016*
X4971Y50017*
X49708Y50017*
X49707Y50018*
X49706Y50019*
X49704Y50019*
X49703Y50019*
X49702Y50019*
X497Y50019*
X49699*
X49697Y50019*
X49696Y50019*
X49695Y50019*
X49693Y50019*
X49692Y50018*
X49691Y50017*
X4969Y50017*
X49688Y50016*
X49687Y50015*
X49686Y50014*
X49685Y50013*
X49684Y50012*
X49683Y50011*
X49683Y5001*
X49682Y50009*
X49681Y50008*
X49681Y50006*
X4968Y50005*
X4968Y50004*
X4968Y50002*
X4968Y50001*
X4968Y5*
X4968Y49998*
X4968Y49997*
X4968Y49995*
X4968Y49994*
X49681Y49993*
X49681Y49991*
X49682Y4999*
X49683Y49989*
X49683Y49988*
X49684Y49987*
X49685Y49986*
X49686Y49985*
X49687Y49984*
X49688Y49983*
X4969Y49982*
X49691Y49982*
X49692Y49981*
X49693Y4998*
X49695Y4998*
X49696Y4998*
X49697Y4998*
X49699Y4998*
X497*
X49702Y4998*
X49703Y4998*
X49704Y4998*
X49706Y4998*
X49707Y49981*
X49708Y49982*
X4971Y49982*
X49711Y49983*
X49712Y49984*
X49713Y49985*
X49714Y49986*
X49715Y49987*
X49716Y49988*
X49716Y49989*
X49717Y4999*
X49718Y49991*
X49718Y49993*
X49719Y49994*
X49719Y49995*
X49719Y49997*
X49719Y49998*
X4972Y5*
X4962D02*
D01*
X49619Y50001*
X49619Y50002*
X49619Y50004*
X49619Y50005*
X49618Y50006*
X49618Y50008*
X49617Y50009*
X49616Y5001*
X49616Y50011*
X49615Y50012*
X49614Y50013*
X49613Y50014*
X49612Y50015*
X49611Y50016*
X4961Y50017*
X49608Y50017*
X49607Y50018*
X49606Y50019*
X49604Y50019*
X49603Y50019*
X49602Y50019*
X496Y50019*
X49599*
X49597Y50019*
X49596Y50019*
X49595Y50019*
X49593Y50019*
X49592Y50018*
X49591Y50017*
X4959Y50017*
X49588Y50016*
X49587Y50015*
X49586Y50014*
X49585Y50013*
X49584Y50012*
X49583Y50011*
X49583Y5001*
X49582Y50009*
X49581Y50008*
X49581Y50006*
X4958Y50005*
X4958Y50004*
X4958Y50002*
X4958Y50001*
X4958Y5*
X4958Y49998*
X4958Y49997*
X4958Y49995*
X4958Y49994*
X49581Y49993*
X49581Y49991*
X49582Y4999*
X49583Y49989*
X49583Y49988*
X49584Y49987*
X49585Y49986*
X49586Y49985*
X49587Y49984*
X49588Y49983*
X4959Y49982*
X49591Y49982*
X49592Y49981*
X49593Y4998*
X49595Y4998*
X49596Y4998*
X49597Y4998*
X49599Y4998*
X496*
X49602Y4998*
X49603Y4998*
X49604Y4998*
X49606Y4998*
X49607Y49981*
X49608Y49982*
X4961Y49982*
X49611Y49983*
X49612Y49984*
X49613Y49985*
X49614Y49986*
X49615Y49987*
X49616Y49988*
X49616Y49989*
X49617Y4999*
X49618Y49991*
X49618Y49993*
X49619Y49994*
X49619Y49995*
X49619Y49997*
X49619Y49998*
X4962Y5*
X4952D02*
D01*
X49519Y50001*
X49519Y50002*
X49519Y50004*
X49519Y50005*
X49518Y50006*
X49518Y50008*
X49517Y50009*
X49516Y5001*
X49516Y50011*
X49515Y50012*
X49514Y50013*
X49513Y50014*
X49512Y50015*
X49511Y50016*
X4951Y50017*
X49508Y50017*
X49507Y50018*
X49506Y50019*
X49504Y50019*
X49503Y50019*
X49502Y50019*
X495Y50019*
X49499*
X49497Y50019*
X49496Y50019*
X49495Y50019*
X49493Y50019*
X49492Y50018*
X49491Y50017*
X4949Y50017*
X49488Y50016*
X49487Y50015*
X49486Y50014*
X49485Y50013*
X49484Y50012*
X49483Y50011*
X49483Y5001*
X49482Y50009*
X49481Y50008*
X49481Y50006*
X4948Y50005*
X4948Y50004*
X4948Y50002*
X4948Y50001*
X4948Y5*
X4948Y49998*
X4948Y49997*
X4948Y49995*
X4948Y49994*
X49481Y49993*
X49481Y49991*
X49482Y4999*
X49483Y49989*
X49483Y49988*
X49484Y49987*
X49485Y49986*
X49486Y49985*
X49487Y49984*
X49488Y49983*
X4949Y49982*
X49491Y49982*
X49492Y49981*
X49493Y4998*
X49495Y4998*
X49496Y4998*
X49497Y4998*
X49499Y4998*
X495*
X49502Y4998*
X49503Y4998*
X49504Y4998*
X49506Y4998*
X49507Y49981*
X49508Y49982*
X4951Y49982*
X49511Y49983*
X49512Y49984*
X49513Y49985*
X49514Y49986*
X49515Y49987*
X49516Y49988*
X49516Y49989*
X49517Y4999*
X49518Y49991*
X49518Y49993*
X49519Y49994*
X49519Y49995*
X49519Y49997*
X49519Y49998*
X4952Y5*
X4942D02*
D01*
X49419Y50001*
X49419Y50002*
X49419Y50004*
X49419Y50005*
X49418Y50006*
X49418Y50008*
X49417Y50009*
X49416Y5001*
X49416Y50011*
X49415Y50012*
X49414Y50013*
X49413Y50014*
X49412Y50015*
X49411Y50016*
X4941Y50017*
X49408Y50017*
X49407Y50018*
X49406Y50019*
X49404Y50019*
X49403Y50019*
X49402Y50019*
X494Y50019*
X49399*
X49397Y50019*
X49396Y50019*
X49395Y50019*
X49393Y50019*
X49392Y50018*
X49391Y50017*
X4939Y50017*
X49388Y50016*
X49387Y50015*
X49386Y50014*
X49385Y50013*
X49384Y50012*
X49383Y50011*
X49383Y5001*
X49382Y50009*
X49381Y50008*
X49381Y50006*
X4938Y50005*
X4938Y50004*
X4938Y50002*
X4938Y50001*
X4938Y5*
X4938Y49998*
X4938Y49997*
X4938Y49995*
X4938Y49994*
X49381Y49993*
X49381Y49991*
X49382Y4999*
X49383Y49989*
X49383Y49988*
X49384Y49987*
X49385Y49986*
X49386Y49985*
X49387Y49984*
X49388Y49983*
X4939Y49982*
X49391Y49982*
X49392Y49981*
X49393Y4998*
X49395Y4998*
X49396Y4998*
X49397Y4998*
X49399Y4998*
X494*
X49402Y4998*
X49403Y4998*
X49404Y4998*
X49406Y4998*
X49407Y49981*
X49408Y49982*
X4941Y49982*
X49411Y49983*
X49412Y49984*
X49413Y49985*
X49414Y49986*
X49415Y49987*
X49416Y49988*
X49416Y49989*
X49417Y4999*
X49418Y49991*
X49418Y49993*
X49419Y49994*
X49419Y49995*
X49419Y49997*
X49419Y49998*
X4942Y5*
X4932D02*
D01*
X49319Y50001*
X49319Y50002*
X49319Y50004*
X49319Y50005*
X49318Y50006*
X49318Y50008*
X49317Y50009*
X49316Y5001*
X49316Y50011*
X49315Y50012*
X49314Y50013*
X49313Y50014*
X49312Y50015*
X49311Y50016*
X4931Y50017*
X49308Y50017*
X49307Y50018*
X49306Y50019*
X49304Y50019*
X49303Y50019*
X49302Y50019*
X493Y50019*
X49299*
X49297Y50019*
X49296Y50019*
X49295Y50019*
X49293Y50019*
X49292Y50018*
X49291Y50017*
X4929Y50017*
X49288Y50016*
X49287Y50015*
X49286Y50014*
X49285Y50013*
X49284Y50012*
X49283Y50011*
X49283Y5001*
X49282Y50009*
X49281Y50008*
X49281Y50006*
X4928Y50005*
X4928Y50004*
X4928Y50002*
X4928Y50001*
X4928Y5*
X4928Y49998*
X4928Y49997*
X4928Y49995*
X4928Y49994*
X49281Y49993*
X49281Y49991*
X49282Y4999*
X49283Y49989*
X49283Y49988*
X49284Y49987*
X49285Y49986*
X49286Y49985*
X49287Y49984*
X49288Y49983*
X4929Y49982*
X49291Y49982*
X49292Y49981*
X49293Y4998*
X49295Y4998*
X49296Y4998*
X49297Y4998*
X49299Y4998*
X493*
X49302Y4998*
X49303Y4998*
X49304Y4998*
X49306Y4998*
X49307Y49981*
X49308Y49982*
X4931Y49982*
X49311Y49983*
X49312Y49984*
X49313Y49985*
X49314Y49986*
X49315Y49987*
X49316Y49988*
X49316Y49989*
X49317Y4999*
X49318Y49991*
X49318Y49993*
X49319Y49994*
X49319Y49995*
X49319Y49997*
X49319Y49998*
X4932Y5*
X4922D02*
D01*
X49219Y50001*
X49219Y50002*
X49219Y50004*
X49219Y50005*
X49218Y50006*
X49218Y50008*
X49217Y50009*
X49216Y5001*
X49216Y50011*
X49215Y50012*
X49214Y50013*
X49213Y50014*
X49212Y50015*
X49211Y50016*
X4921Y50017*
X49208Y50017*
X49207Y50018*
X49206Y50019*
X49204Y50019*
X49203Y50019*
X49202Y50019*
X492Y50019*
X49199*
X49197Y50019*
X49196Y50019*
X49195Y50019*
X49193Y50019*
X49192Y50018*
X49191Y50017*
X4919Y50017*
X49188Y50016*
X49187Y50015*
X49186Y50014*
X49185Y50013*
X49184Y50012*
X49183Y50011*
X49183Y5001*
X49182Y50009*
X49181Y50008*
X49181Y50006*
X4918Y50005*
X4918Y50004*
X4918Y50002*
X4918Y50001*
X4918Y5*
X4918Y49998*
X4918Y49997*
X4918Y49995*
X4918Y49994*
X49181Y49993*
X49181Y49991*
X49182Y4999*
X49183Y49989*
X49183Y49988*
X49184Y49987*
X49185Y49986*
X49186Y49985*
X49187Y49984*
X49188Y49983*
X4919Y49982*
X49191Y49982*
X49192Y49981*
X49193Y4998*
X49195Y4998*
X49196Y4998*
X49197Y4998*
X49199Y4998*
X492*
X49202Y4998*
X49203Y4998*
X49204Y4998*
X49206Y4998*
X49207Y49981*
X49208Y49982*
X4921Y49982*
X49211Y49983*
X49212Y49984*
X49213Y49985*
X49214Y49986*
X49215Y49987*
X49216Y49988*
X49216Y49989*
X49217Y4999*
X49218Y49991*
X49218Y49993*
X49219Y49994*
X49219Y49995*
X49219Y49997*
X49219Y49998*
X4922Y5*
X4912D02*
D01*
X49119Y50001*
X49119Y50002*
X49119Y50004*
X49119Y50005*
X49118Y50006*
X49118Y50008*
X49117Y50009*
X49116Y5001*
X49116Y50011*
X49115Y50012*
X49114Y50013*
X49113Y50014*
X49112Y50015*
X49111Y50016*
X4911Y50017*
X49108Y50017*
X49107Y50018*
X49106Y50019*
X49104Y50019*
X49103Y50019*
X49102Y50019*
X491Y50019*
X49099*
X49097Y50019*
X49096Y50019*
X49095Y50019*
X49093Y50019*
X49092Y50018*
X49091Y50017*
X4909Y50017*
X49088Y50016*
X49087Y50015*
X49086Y50014*
X49085Y50013*
X49084Y50012*
X49083Y50011*
X49083Y5001*
X49082Y50009*
X49081Y50008*
X49081Y50006*
X4908Y50005*
X4908Y50004*
X4908Y50002*
X4908Y50001*
X4908Y5*
X4908Y49998*
X4908Y49997*
X4908Y49995*
X4908Y49994*
X49081Y49993*
X49081Y49991*
X49082Y4999*
X49083Y49989*
X49083Y49988*
X49084Y49987*
X49085Y49986*
X49086Y49985*
X49087Y49984*
X49088Y49983*
X4909Y49982*
X49091Y49982*
X49092Y49981*
X49093Y4998*
X49095Y4998*
X49096Y4998*
X49097Y4998*
X49099Y4998*
X491*
X49102Y4998*
X49103Y4998*
X49104Y4998*
X49106Y4998*
X49107Y49981*
X49108Y49982*
X4911Y49982*
X49111Y49983*
X49112Y49984*
X49113Y49985*
X49114Y49986*
X49115Y49987*
X49116Y49988*
X49116Y49989*
X49117Y4999*
X49118Y49991*
X49118Y49993*
X49119Y49994*
X49119Y49995*
X49119Y49997*
X49119Y49998*
X4912Y5*
X4902D02*
D01*
X49019Y50001*
X49019Y50002*
X49019Y50004*
X49019Y50005*
X49018Y50006*
X49018Y50008*
X49017Y50009*
X49016Y5001*
X49016Y50011*
X49015Y50012*
X49014Y50013*
X49013Y50014*
X49012Y50015*
X49011Y50016*
X4901Y50017*
X49008Y50017*
X49007Y50018*
X49006Y50019*
X49004Y50019*
X49003Y50019*
X49002Y50019*
X49Y50019*
X48999*
X48997Y50019*
X48996Y50019*
X48995Y50019*
X48993Y50019*
X48992Y50018*
X48991Y50017*
X4899Y50017*
X48988Y50016*
X48987Y50015*
X48986Y50014*
X48985Y50013*
X48984Y50012*
X48983Y50011*
X48983Y5001*
X48982Y50009*
X48981Y50008*
X48981Y50006*
X4898Y50005*
X4898Y50004*
X4898Y50002*
X4898Y50001*
X4898Y5*
X4898Y49998*
X4898Y49997*
X4898Y49995*
X4898Y49994*
X48981Y49993*
X48981Y49991*
X48982Y4999*
X48983Y49989*
X48983Y49988*
X48984Y49987*
X48985Y49986*
X48986Y49985*
X48987Y49984*
X48988Y49983*
X4899Y49982*
X48991Y49982*
X48992Y49981*
X48993Y4998*
X48995Y4998*
X48996Y4998*
X48997Y4998*
X48999Y4998*
X49*
X49002Y4998*
X49003Y4998*
X49004Y4998*
X49006Y4998*
X49007Y49981*
X49008Y49982*
X4901Y49982*
X49011Y49983*
X49012Y49984*
X49013Y49985*
X49014Y49986*
X49015Y49987*
X49016Y49988*
X49016Y49989*
X49017Y4999*
X49018Y49991*
X49018Y49993*
X49019Y49994*
X49019Y49995*
X49019Y49997*
X49019Y49998*
X4902Y5*
X4892D02*
D01*
X48919Y50001*
X48919Y50002*
X48919Y50004*
X48919Y50005*
X48918Y50006*
X48918Y50008*
X48917Y50009*
X48916Y5001*
X48916Y50011*
X48915Y50012*
X48914Y50013*
X48913Y50014*
X48912Y50015*
X48911Y50016*
X4891Y50017*
X48908Y50017*
X48907Y50018*
X48906Y50019*
X48904Y50019*
X48903Y50019*
X48902Y50019*
X489Y50019*
X48899*
X48897Y50019*
X48896Y50019*
X48895Y50019*
X48893Y50019*
X48892Y50018*
X48891Y50017*
X4889Y50017*
X48888Y50016*
X48887Y50015*
X48886Y50014*
X48885Y50013*
X48884Y50012*
X48883Y50011*
X48883Y5001*
X48882Y50009*
X48881Y50008*
X48881Y50006*
X4888Y50005*
X4888Y50004*
X4888Y50002*
X4888Y50001*
X4888Y5*
X4888Y49998*
X4888Y49997*
X4888Y49995*
X4888Y49994*
X48881Y49993*
X48881Y49991*
X48882Y4999*
X48883Y49989*
X48883Y49988*
X48884Y49987*
X48885Y49986*
X48886Y49985*
X48887Y49984*
X48888Y49983*
X4889Y49982*
X48891Y49982*
X48892Y49981*
X48893Y4998*
X48895Y4998*
X48896Y4998*
X48897Y4998*
X48899Y4998*
X489*
X48902Y4998*
X48903Y4998*
X48904Y4998*
X48906Y4998*
X48907Y49981*
X48908Y49982*
X4891Y49982*
X48911Y49983*
X48912Y49984*
X48913Y49985*
X48914Y49986*
X48915Y49987*
X48916Y49988*
X48916Y49989*
X48917Y4999*
X48918Y49991*
X48918Y49993*
X48919Y49994*
X48919Y49995*
X48919Y49997*
X48919Y49998*
X4892Y5*
X4882D02*
D01*
X48819Y50001*
X48819Y50002*
X48819Y50004*
X48819Y50005*
X48818Y50006*
X48818Y50008*
X48817Y50009*
X48816Y5001*
X48816Y50011*
X48815Y50012*
X48814Y50013*
X48813Y50014*
X48812Y50015*
X48811Y50016*
X4881Y50017*
X48808Y50017*
X48807Y50018*
X48806Y50019*
X48804Y50019*
X48803Y50019*
X48802Y50019*
X488Y50019*
X48799*
X48797Y50019*
X48796Y50019*
X48795Y50019*
X48793Y50019*
X48792Y50018*
X48791Y50017*
X4879Y50017*
X48788Y50016*
X48787Y50015*
X48786Y50014*
X48785Y50013*
X48784Y50012*
X48783Y50011*
X48783Y5001*
X48782Y50009*
X48781Y50008*
X48781Y50006*
X4878Y50005*
X4878Y50004*
X4878Y50002*
X4878Y50001*
X4878Y5*
X4878Y49998*
X4878Y49997*
X4878Y49995*
X4878Y49994*
X48781Y49993*
X48781Y49991*
X48782Y4999*
X48783Y49989*
X48783Y49988*
X48784Y49987*
X48785Y49986*
X48786Y49985*
X48787Y49984*
X48788Y49983*
X4879Y49982*
X48791Y49982*
X48792Y49981*
X48793Y4998*
X48795Y4998*
X48796Y4998*
X48797Y4998*
X48799Y4998*
X488*
X48802Y4998*
X48803Y4998*
X48804Y4998*
X48806Y4998*
X48807Y49981*
X48808Y49982*
X4881Y49982*
X48811Y49983*
X48812Y49984*
X48813Y49985*
X48814Y49986*
X48815Y49987*
X48816Y49988*
X48816Y49989*
X48817Y4999*
X48818Y49991*
X48818Y49993*
X48819Y49994*
X48819Y49995*
X48819Y49997*
X48819Y49998*
X4882Y5*
X4872D02*
D01*
X48719Y50001*
X48719Y50002*
X48719Y50004*
X48719Y50005*
X48718Y50006*
X48718Y50008*
X48717Y50009*
X48716Y5001*
X48716Y50011*
X48715Y50012*
X48714Y50013*
X48713Y50014*
X48712Y50015*
X48711Y50016*
X4871Y50017*
X48708Y50017*
X48707Y50018*
X48706Y50019*
X48704Y50019*
X48703Y50019*
X48702Y50019*
X487Y50019*
X48699*
X48697Y50019*
X48696Y50019*
X48695Y50019*
X48693Y50019*
X48692Y50018*
X48691Y50017*
X4869Y50017*
X48688Y50016*
X48687Y50015*
X48686Y50014*
X48685Y50013*
X48684Y50012*
X48683Y50011*
X48683Y5001*
X48682Y50009*
X48681Y50008*
X48681Y50006*
X4868Y50005*
X4868Y50004*
X4868Y50002*
X4868Y50001*
X4868Y5*
X4868Y49998*
X4868Y49997*
X4868Y49995*
X4868Y49994*
X48681Y49993*
X48681Y49991*
X48682Y4999*
X48683Y49989*
X48683Y49988*
X48684Y49987*
X48685Y49986*
X48686Y49985*
X48687Y49984*
X48688Y49983*
X4869Y49982*
X48691Y49982*
X48692Y49981*
X48693Y4998*
X48695Y4998*
X48696Y4998*
X48697Y4998*
X48699Y4998*
X487*
X48702Y4998*
X48703Y4998*
X48704Y4998*
X48706Y4998*
X48707Y49981*
X48708Y49982*
X4871Y49982*
X48711Y49983*
X48712Y49984*
X48713Y49985*
X48714Y49986*
X48715Y49987*
X48716Y49988*
X48716Y49989*
X48717Y4999*
X48718Y49991*
X48718Y49993*
X48719Y49994*
X48719Y49995*
X48719Y49997*
X48719Y49998*
X4872Y5*
X4862D02*
D01*
X48619Y50001*
X48619Y50002*
X48619Y50004*
X48619Y50005*
X48618Y50006*
X48618Y50008*
X48617Y50009*
X48616Y5001*
X48616Y50011*
X48615Y50012*
X48614Y50013*
X48613Y50014*
X48612Y50015*
X48611Y50016*
X4861Y50017*
X48608Y50017*
X48607Y50018*
X48606Y50019*
X48604Y50019*
X48603Y50019*
X48602Y50019*
X486Y50019*
X48599*
X48597Y50019*
X48596Y50019*
X48595Y50019*
X48593Y50019*
X48592Y50018*
X48591Y50017*
X4859Y50017*
X48588Y50016*
X48587Y50015*
X48586Y50014*
X48585Y50013*
X48584Y50012*
X48583Y50011*
X48583Y5001*
X48582Y50009*
X48581Y50008*
X48581Y50006*
X4858Y50005*
X4858Y50004*
X4858Y50002*
X4858Y50001*
X4858Y5*
X4858Y49998*
X4858Y49997*
X4858Y49995*
X4858Y49994*
X48581Y49993*
X48581Y49991*
X48582Y4999*
X48583Y49989*
X48583Y49988*
X48584Y49987*
X48585Y49986*
X48586Y49985*
X48587Y49984*
X48588Y49983*
X4859Y49982*
X48591Y49982*
X48592Y49981*
X48593Y4998*
X48595Y4998*
X48596Y4998*
X48597Y4998*
X48599Y4998*
X486*
X48602Y4998*
X48603Y4998*
X48604Y4998*
X48606Y4998*
X48607Y49981*
X48608Y49982*
X4861Y49982*
X48611Y49983*
X48612Y49984*
X48613Y49985*
X48614Y49986*
X48615Y49987*
X48616Y49988*
X48616Y49989*
X48617Y4999*
X48618Y49991*
X48618Y49993*
X48619Y49994*
X48619Y49995*
X48619Y49997*
X48619Y49998*
X4862Y5*
X4852D02*
D01*
X48519Y50001*
X48519Y50002*
X48519Y50004*
X48519Y50005*
X48518Y50006*
X48518Y50008*
X48517Y50009*
X48516Y5001*
X48516Y50011*
X48515Y50012*
X48514Y50013*
X48513Y50014*
X48512Y50015*
X48511Y50016*
X4851Y50017*
X48508Y50017*
X48507Y50018*
X48506Y50019*
X48504Y50019*
X48503Y50019*
X48502Y50019*
X485Y50019*
X48499*
X48497Y50019*
X48496Y50019*
X48495Y50019*
X48493Y50019*
X48492Y50018*
X48491Y50017*
X4849Y50017*
X48488Y50016*
X48487Y50015*
X48486Y50014*
X48485Y50013*
X48484Y50012*
X48483Y50011*
X48483Y5001*
X48482Y50009*
X48481Y50008*
X48481Y50006*
X4848Y50005*
X4848Y50004*
X4848Y50002*
X4848Y50001*
X4848Y5*
X4848Y49998*
X4848Y49997*
X4848Y49995*
X4848Y49994*
X48481Y49993*
X48481Y49991*
X48482Y4999*
X48483Y49989*
X48483Y49988*
X48484Y49987*
X48485Y49986*
X48486Y49985*
X48487Y49984*
X48488Y49983*
X4849Y49982*
X48491Y49982*
X48492Y49981*
X48493Y4998*
X48495Y4998*
X48496Y4998*
X48497Y4998*
X48499Y4998*
X485*
X48502Y4998*
X48503Y4998*
X48504Y4998*
X48506Y4998*
X48507Y49981*
X48508Y49982*
X4851Y49982*
X48511Y49983*
X48512Y49984*
X48513Y49985*
X48514Y49986*
X48515Y49987*
X48516Y49988*
X48516Y49989*
X48517Y4999*
X48518Y49991*
X48518Y49993*
X48519Y49994*
X48519Y49995*
X48519Y49997*
X48519Y49998*
X4852Y5*
X4842D02*
D01*
X48419Y50001*
X48419Y50002*
X48419Y50004*
X48419Y50005*
X48418Y50006*
X48418Y50008*
X48417Y50009*
X48416Y5001*
X48416Y50011*
X48415Y50012*
X48414Y50013*
X48413Y50014*
X48412Y50015*
X48411Y50016*
X4841Y50017*
X48408Y50017*
X48407Y50018*
X48406Y50019*
X48404Y50019*
X48403Y50019*
X48402Y50019*
X484Y50019*
X48399*
X48397Y50019*
X48396Y50019*
X48395Y50019*
X48393Y50019*
X48392Y50018*
X48391Y50017*
X4839Y50017*
X48388Y50016*
X48387Y50015*
X48386Y50014*
X48385Y50013*
X48384Y50012*
X48383Y50011*
X48383Y5001*
X48382Y50009*
X48381Y50008*
X48381Y50006*
X4838Y50005*
X4838Y50004*
X4838Y50002*
X4838Y50001*
X4838Y5*
X4838Y49998*
X4838Y49997*
X4838Y49995*
X4838Y49994*
X48381Y49993*
X48381Y49991*
X48382Y4999*
X48383Y49989*
X48383Y49988*
X48384Y49987*
X48385Y49986*
X48386Y49985*
X48387Y49984*
X48388Y49983*
X4839Y49982*
X48391Y49982*
X48392Y49981*
X48393Y4998*
X48395Y4998*
X48396Y4998*
X48397Y4998*
X48399Y4998*
X484*
X48402Y4998*
X48403Y4998*
X48404Y4998*
X48406Y4998*
X48407Y49981*
X48408Y49982*
X4841Y49982*
X48411Y49983*
X48412Y49984*
X48413Y49985*
X48414Y49986*
X48415Y49987*
X48416Y49988*
X48416Y49989*
X48417Y4999*
X48418Y49991*
X48418Y49993*
X48419Y49994*
X48419Y49995*
X48419Y49997*
X48419Y49998*
X4842Y5*
X4832D02*
D01*
X48319Y50001*
X48319Y50002*
X48319Y50004*
X48319Y50005*
X48318Y50006*
X48318Y50008*
X48317Y50009*
X48316Y5001*
X48316Y50011*
X48315Y50012*
X48314Y50013*
X48313Y50014*
X48312Y50015*
X48311Y50016*
X4831Y50017*
X48308Y50017*
X48307Y50018*
X48306Y50019*
X48304Y50019*
X48303Y50019*
X48302Y50019*
X483Y50019*
X48299*
X48297Y50019*
X48296Y50019*
X48295Y50019*
X48293Y50019*
X48292Y50018*
X48291Y50017*
X4829Y50017*
X48288Y50016*
X48287Y50015*
X48286Y50014*
X48285Y50013*
X48284Y50012*
X48283Y50011*
X48283Y5001*
X48282Y50009*
X48281Y50008*
X48281Y50006*
X4828Y50005*
X4828Y50004*
X4828Y50002*
X4828Y50001*
X4828Y5*
X4828Y49998*
X4828Y49997*
X4828Y49995*
X4828Y49994*
X48281Y49993*
X48281Y49991*
X48282Y4999*
X48283Y49989*
X48283Y49988*
X48284Y49987*
X48285Y49986*
X48286Y49985*
X48287Y49984*
X48288Y49983*
X4829Y49982*
X48291Y49982*
X48292Y49981*
X48293Y4998*
X48295Y4998*
X48296Y4998*
X48297Y4998*
X48299Y4998*
X483*
X48302Y4998*
X48303Y4998*
X48304Y4998*
X48306Y4998*
X48307Y49981*
X48308Y49982*
X4831Y49982*
X48311Y49983*
X48312Y49984*
X48313Y49985*
X48314Y49986*
X48315Y49987*
X48316Y49988*
X48316Y49989*
X48317Y4999*
X48318Y49991*
X48318Y49993*
X48319Y49994*
X48319Y49995*
X48319Y49997*
X48319Y49998*
X4832Y5*
X4822D02*
D01*
X48219Y50001*
X48219Y50002*
X48219Y50004*
X48219Y50005*
X48218Y50006*
X48218Y50008*
X48217Y50009*
X48216Y5001*
X48216Y50011*
X48215Y50012*
X48214Y50013*
X48213Y50014*
X48212Y50015*
X48211Y50016*
X4821Y50017*
X48208Y50017*
X48207Y50018*
X48206Y50019*
X48204Y50019*
X48203Y50019*
X48202Y50019*
X482Y50019*
X48199*
X48197Y50019*
X48196Y50019*
X48195Y50019*
X48193Y50019*
X48192Y50018*
X48191Y50017*
X4819Y50017*
X48188Y50016*
X48187Y50015*
X48186Y50014*
X48185Y50013*
X48184Y50012*
X48183Y50011*
X48183Y5001*
X48182Y50009*
X48181Y50008*
X48181Y50006*
X4818Y50005*
X4818Y50004*
X4818Y50002*
X4818Y50001*
X4818Y5*
X4818Y49998*
X4818Y49997*
X4818Y49995*
X4818Y49994*
X48181Y49993*
X48181Y49991*
X48182Y4999*
X48183Y49989*
X48183Y49988*
X48184Y49987*
X48185Y49986*
X48186Y49985*
X48187Y49984*
X48188Y49983*
X4819Y49982*
X48191Y49982*
X48192Y49981*
X48193Y4998*
X48195Y4998*
X48196Y4998*
X48197Y4998*
X48199Y4998*
X482*
X48202Y4998*
X48203Y4998*
X48204Y4998*
X48206Y4998*
X48207Y49981*
X48208Y49982*
X4821Y49982*
X48211Y49983*
X48212Y49984*
X48213Y49985*
X48214Y49986*
X48215Y49987*
X48216Y49988*
X48216Y49989*
X48217Y4999*
X48218Y49991*
X48218Y49993*
X48219Y49994*
X48219Y49995*
X48219Y49997*
X48219Y49998*
X4822Y5*
X4812D02*
D01*
X48119Y50001*
X48119Y50002*
X48119Y50004*
X48119Y50005*
X48118Y50006*
X48118Y50008*
X48117Y50009*
X48116Y5001*
X48116Y50011*
X48115Y50012*
X48114Y50013*
X48113Y50014*
X48112Y50015*
X48111Y50016*
X4811Y50017*
X48108Y50017*
X48107Y50018*
X48106Y50019*
X48104Y50019*
X48103Y50019*
X48102Y50019*
X481Y50019*
X48099*
X48097Y50019*
X48096Y50019*
X48095Y50019*
X48093Y50019*
X48092Y50018*
X48091Y50017*
X4809Y50017*
X48088Y50016*
X48087Y50015*
X48086Y50014*
X48085Y50013*
X48084Y50012*
X48083Y50011*
X48083Y5001*
X48082Y50009*
X48081Y50008*
X48081Y50006*
X4808Y50005*
X4808Y50004*
X4808Y50002*
X4808Y50001*
X4808Y5*
X4808Y49998*
X4808Y49997*
X4808Y49995*
X4808Y49994*
X48081Y49993*
X48081Y49991*
X48082Y4999*
X48083Y49989*
X48083Y49988*
X48084Y49987*
X48085Y49986*
X48086Y49985*
X48087Y49984*
X48088Y49983*
X4809Y49982*
X48091Y49982*
X48092Y49981*
X48093Y4998*
X48095Y4998*
X48096Y4998*
X48097Y4998*
X48099Y4998*
X481*
X48102Y4998*
X48103Y4998*
X48104Y4998*
X48106Y4998*
X48107Y49981*
X48108Y49982*
X4811Y49982*
X48111Y49983*
X48112Y49984*
X48113Y49985*
X48114Y49986*
X48115Y49987*
X48116Y49988*
X48116Y49989*
X48117Y4999*
X48118Y49991*
X48118Y49993*
X48119Y49994*
X48119Y49995*
X48119Y49997*
X48119Y49998*
X4812Y5*
X4802D02*
D01*
X48019Y50001*
X48019Y50002*
X48019Y50004*
X48019Y50005*
X48018Y50006*
X48018Y50008*
X48017Y50009*
X48016Y5001*
X48016Y50011*
X48015Y50012*
X48014Y50013*
X48013Y50014*
X48012Y50015*
X48011Y50016*
X4801Y50017*
X48008Y50017*
X48007Y50018*
X48006Y50019*
X48004Y50019*
X48003Y50019*
X48002Y50019*
X48Y50019*
X47999*
X47997Y50019*
X47996Y50019*
X47995Y50019*
X47993Y50019*
X47992Y50018*
X47991Y50017*
X4799Y50017*
X47988Y50016*
X47987Y50015*
X47986Y50014*
X47985Y50013*
X47984Y50012*
X47983Y50011*
X47983Y5001*
X47982Y50009*
X47981Y50008*
X47981Y50006*
X4798Y50005*
X4798Y50004*
X4798Y50002*
X4798Y50001*
X4798Y5*
X4798Y49998*
X4798Y49997*
X4798Y49995*
X4798Y49994*
X47981Y49993*
X47981Y49991*
X47982Y4999*
X47983Y49989*
X47983Y49988*
X47984Y49987*
X47985Y49986*
X47986Y49985*
X47987Y49984*
X47988Y49983*
X4799Y49982*
X47991Y49982*
X47992Y49981*
X47993Y4998*
X47995Y4998*
X47996Y4998*
X47997Y4998*
X47999Y4998*
X48*
X48002Y4998*
X48003Y4998*
X48004Y4998*
X48006Y4998*
X48007Y49981*
X48008Y49982*
X4801Y49982*
X48011Y49983*
X48012Y49984*
X48013Y49985*
X48014Y49986*
X48015Y49987*
X48016Y49988*
X48016Y49989*
X48017Y4999*
X48018Y49991*
X48018Y49993*
X48019Y49994*
X48019Y49995*
X48019Y49997*
X48019Y49998*
X4802Y5*
G54D24*
X50598Y50884D02*
X50586Y50896D01*
X50562*
X5055Y50884*
Y50872*
X50562Y5086*
X50586*
X50598Y50848*
Y50836*
X50586Y50824*
X50562*
X5055Y50836*
X50622Y50872D02*
Y50836D01*
X50634Y50824*
X5067*
Y50812*
X50658Y508*
X50646*
X5067Y50824D02*
Y50872D01*
X50694Y50824D02*
Y50872D01*
X50706*
X50718Y5086*
Y50824*
Y5086*
X5073Y50872*
X50742Y5086*
Y50824*
X50766Y50896D02*
Y50824D01*
X50802*
X50814Y50836*
Y50848*
Y5086*
X50802Y50872*
X50766*
X5085Y50824D02*
X50874D01*
X50886Y50836*
Y5086*
X50874Y50872*
X5085*
X50838Y5086*
Y50836*
X5085Y50824*
X5091D02*
X50934D01*
X50922*
Y50896*
X5091*
X51054D02*
Y50824D01*
Y5086*
X51102*
Y50896*
Y50824*
X51126D02*
X5115D01*
X51138*
Y50872*
X51126*
X51198Y50884D02*
Y50872D01*
X51186*
X5121*
X51198*
Y50836*
X5121Y50824*
X51366Y50884D02*
X51354Y50896D01*
X5133*
X51318Y50884*
Y50836*
X5133Y50824*
X51354*
X51366Y50836*
X51402Y50824D02*
X51426D01*
X51438Y50836*
Y5086*
X51426Y50872*
X51402*
X5139Y5086*
Y50836*
X51402Y50824*
X51462Y50872D02*
Y50836D01*
X51474Y50824*
X5151*
Y50872*
X51534Y50824D02*
Y50872D01*
X5157*
X51582Y5086*
Y50824*
X51618Y50884D02*
Y50872D01*
X51606*
X5163*
X51618*
Y50836*
X5163Y50824*
X5175Y50896D02*
X51798D01*
X51774*
Y50824*
X51834D02*
X51858D01*
X5187Y50836*
Y5086*
X51858Y50872*
X51834*
X51822Y5086*
Y50836*
X51834Y50824*
X51906D02*
X5193D01*
X51942Y50836*
Y5086*
X5193Y50872*
X51906*
X51894Y5086*
Y50836*
X51906Y50824*
X51966D02*
X5199D01*
X51978*
Y50896*
X51966*
X52146Y50884D02*
X52134Y50896D01*
X5211*
X52098Y50884*
Y50872*
X5211Y5086*
X52134*
X52146Y50848*
Y50836*
X52134Y50824*
X5211*
X52098Y50836*
X5217Y50824D02*
X52194D01*
X52182*
Y50872*
X5217*
X5223D02*
X52278D01*
X5223Y50824*
X52278*
X52337D02*
X52314D01*
X52302Y50836*
Y5086*
X52314Y50872*
X52337*
X52349Y5086*
Y50848*
X52302*
X52677Y50824D02*
Y50896D01*
X52713*
X52725Y50884*
Y5086*
X52713Y50848*
X52677*
X52749Y50824D02*
X52773D01*
X52761*
Y50896*
X52749*
X52821Y50872D02*
X52845D01*
X52857Y5086*
Y50824*
X52821*
X52809Y50836*
X52821Y50848*
X52857*
X52893Y50884D02*
Y50872D01*
X52881*
X52905*
X52893*
Y50836*
X52905Y50824*
X52977D02*
X52953D01*
X52941Y50836*
Y5086*
X52953Y50872*
X52977*
X52989Y5086*
Y50848*
X52941*
X53061Y50896D02*
Y50824D01*
X53025*
X53013Y50836*
Y5086*
X53025Y50872*
X53061*
X53181Y50896D02*
Y50824D01*
Y5086*
X53229*
Y50896*
Y50824*
X53265D02*
X53289D01*
X53301Y50836*
Y5086*
X53289Y50872*
X53265*
X53253Y5086*
Y50836*
X53265Y50824*
X53325D02*
X53349D01*
X53337*
Y50896*
X53325*
X53421Y50824D02*
X53397D01*
X53385Y50836*
Y5086*
X53397Y50872*
X53421*
X53433Y5086*
Y50848*
X53385*
X53529Y50896D02*
X53577D01*
X53553*
Y50824*
X53601Y50872D02*
Y50836D01*
X53613Y50824*
X53649*
Y50812*
X53637Y508*
X53625*
X53649Y50824D02*
Y50872D01*
X53673Y508D02*
Y50872D01*
X53709*
X53721Y5086*
Y50836*
X53709Y50824*
X53673*
X53781D02*
X53757D01*
X53745Y50836*
Y5086*
X53757Y50872*
X53781*
X53793Y5086*
Y50848*
X53745*
X50462Y50932D02*
X53913D01*
X50462Y5077D02*
X53913D01*
X50462Y50932D02*
Y5041D01*
X53913Y50932D02*
Y5041D01*
X5101Y50932D02*
Y5041D01*
X51706Y50932D02*
Y5041D01*
X52633Y50932D02*
Y5041D01*
X53137Y50932D02*
Y5041D01*
X50462Y5053D02*
X53913D01*
X50462Y5041D02*
X53913D01*
M02*