%FSTAX23Y23*%
%MOIN*%
%SFA1B1*%

%IPPOS*%
%ADD11C,0.010000*%
%ADD16C,0.005000*%
%ADD17C,0.008000*%
%ADD42C,0.006000*%
%ADD44C,0.004000*%
%ADD68C,0.003000*%
%LNmb895c-1*%
%LPD*%
G54D11*
X02503Y00414D02*
D01*
D01*
G75*
G03X02493I-00005J0D01*
G74*G01*
D01*
G75*
G03X02503I00005J0D01*
G74*G01*
G54D16*
X02665Y00652D02*
D01*
D01*
G75*
G03X02575I-00045J0D01*
G74*G01*
D01*
G75*
G03X02665I00045J0D01*
G74*G01*
X0284Y00172D02*
D01*
D01*
G75*
G03X0275I-00045J0D01*
G74*G01*
D01*
G75*
G03X0284I00045J0D01*
G74*G01*
Y00645D02*
D01*
D01*
G75*
G03X0275I-00045J0D01*
G74*G01*
D01*
G75*
G03X0284I00045J0D01*
G74*G01*
X0214Y00145D02*
D01*
D01*
G75*
G03X0205I-00045J0D01*
G74*G01*
D01*
G75*
G03X0214I00045J0D01*
G74*G01*
X0284Y0027D02*
D01*
D01*
G75*
G03X0275I-00045J0D01*
G74*G01*
D01*
G75*
G03X0284I00045J0D01*
G74*G01*
X0236Y00404D02*
X02479D01*
X0236Y00394D02*
Y00404D01*
X02479Y00394D02*
Y00404D01*
X0236Y00286D02*
Y00296D01*
Y00286D02*
X02479D01*
Y00296*
X02195Y0058D02*
Y00595D01*
X0216D02*
X02195D01*
Y00495D02*
Y0051D01*
X0216Y00495D02*
X02195D01*
X0147Y0042D02*
X0197D01*
X01845Y00295D02*
Y00545D01*
X0172Y00295D02*
Y00545D01*
X01595Y0051D02*
Y00545D01*
Y00295D02*
Y0054D01*
X0147Y00295D02*
Y00545D01*
X0197*
Y00295D02*
Y00545D01*
X0147Y00295D02*
X0197D01*
X02678Y0173D02*
X02895D01*
Y0D02*
Y0173D01*
X01375Y01569D02*
Y01582D01*
X01374Y01583D02*
X01375Y01582D01*
X01319Y01583D02*
X01374D01*
X01375Y00933D02*
Y00947D01*
X01319Y00933D02*
X01375D01*
X01375Y01569D02*
X01398D01*
Y0155D02*
Y01569D01*
X01402Y00947D02*
Y00963D01*
X01375Y00947D02*
X01402D01*
X02171Y00418D02*
X02165Y00425D01*
Y00438*
X02171Y00445*
X02198*
X02205Y00438*
Y00425*
X02198Y00418*
X02165Y00405D02*
Y00378D01*
X02171*
X02198Y00405*
X02205*
X0047Y00245D02*
D01*
D01*
G75*
G03X0057I00050J0D01*
G74*G01*
Y0147D02*
D01*
D01*
G75*
G03X0047I-00050J0D01*
G74*G01*
X0062Y01685D02*
X0082D01*
X00865Y0173*
X0332*
X00575D02*
X0062Y01685D01*
X0Y0D02*
X03315D01*
X0D02*
Y0173D01*
X0057Y00245D02*
Y0147D01*
X0047Y00245D02*
Y0147D01*
X0332Y0D02*
Y0173D01*
X03315Y0D02*
X0332Y0D01*
X0Y0173D02*
X00575Y0173D01*
G54D17*
X01925Y00505D02*
Y00455D01*
Y00505D02*
X01903D01*
X01896Y00502*
X01894Y005*
X01891Y00495*
Y0049*
X01894Y00486*
X01896Y00483*
X01903Y00481*
X01925D02*
X01903D01*
X01896Y00479*
X01894Y00476*
X01891Y00471*
Y00464*
X01894Y0046*
X01896Y00457*
X01903Y00455*
X01925*
X01888Y00374D02*
X0189Y00379D01*
X01895Y00383*
X019Y00386*
X01909*
X01914Y00383*
X01919Y00379*
X01921Y00374*
X01924Y00367*
Y00355*
X01921Y00348*
X01919Y00343*
X01914Y00338*
X01909Y00336*
X019*
X01895Y00338*
X0189Y00343*
X01888Y00348*
G54D42*
X02144Y0027D02*
Y00322D01*
X02045Y0027D02*
Y00322D01*
X02144Y00377D02*
Y0042D01*
X02045Y00377D02*
Y0042D01*
Y0027D02*
X02055D01*
X02135D02*
X02144D01*
X02135Y0042D02*
X02144D01*
X02045D02*
X02055D01*
X02645Y0027D02*
X02655D01*
X02735D02*
X02744D01*
X02735Y0012D02*
X02744D01*
X02645D02*
X02655D01*
X02645Y00227D02*
Y0027D01*
X02744Y00227D02*
Y0027D01*
X02645Y0012D02*
Y00172D01*
X02744Y0012D02*
Y00172D01*
X032Y0077D02*
Y00795D01*
X0324*
Y0077D02*
Y00795D01*
Y00695D02*
Y0072D01*
X032Y00695D02*
X0324D01*
X032D02*
Y0072D01*
X01925Y00745D02*
Y0077D01*
X01965*
Y00745D02*
Y0077D01*
Y0067D02*
Y00695D01*
X01925Y0067D02*
X01965D01*
X01925D02*
Y00695D01*
X0235Y0067D02*
Y00695D01*
Y0067D02*
X0239D01*
Y00695*
Y00745D02*
Y0077D01*
X0235D02*
X0239D01*
X0235Y00745D02*
Y0077D01*
X0225Y01572D02*
X02256D01*
X0225Y01517D02*
Y01572D01*
Y01517D02*
X02259D01*
X02381D02*
X02389D01*
X0239D02*
Y01572D01*
X02381D02*
X0239D01*
X01322Y005D02*
Y00506D01*
X01267Y005D02*
X01322D01*
X01267D02*
Y00509D01*
Y00631D02*
Y00639D01*
Y0064D02*
X01322D01*
Y00631D02*
Y0064D01*
X02156Y01572D02*
X02165D01*
Y01517D02*
Y01572D01*
X02156Y01517D02*
X02164D01*
X02025D02*
X02034D01*
X02025D02*
Y01572D01*
X02031*
X01322Y00881D02*
Y0089D01*
X01267D02*
X01322D01*
X01267Y00881D02*
Y00889D01*
Y0075D02*
Y00759D01*
Y0075D02*
X01322D01*
Y00756*
X02565Y0047D02*
Y00495D01*
X02525Y0047D02*
X02565D01*
X02525D02*
Y00495D01*
Y00545D02*
Y0057D01*
X02565*
Y00545D02*
Y0057D01*
X02265Y00195D02*
Y0022D01*
X02225Y00195D02*
X02265D01*
X02225D02*
Y0022D01*
Y0027D02*
Y00295D01*
X02265*
Y0027D02*
Y00295D01*
X0259Y00145D02*
Y0017D01*
X0255Y00145D02*
X0259D01*
X0255D02*
Y0017D01*
Y0022D02*
Y00245D01*
X0259*
Y0022D02*
Y00245D01*
X02665Y0047D02*
Y00495D01*
X02625Y0047D02*
X02665D01*
X02625D02*
Y00495D01*
Y00545D02*
Y0057D01*
X02665*
Y00545D02*
Y0057D01*
X0155Y01517D02*
X01556D01*
X0155D02*
Y01572D01*
X01559*
X01681D02*
X01689D01*
X0169Y01517D02*
Y01572D01*
X01681Y01517D02*
X0169D01*
X0092Y0159D02*
X00945D01*
X0092Y0155D02*
Y0159D01*
Y0155D02*
X00945D01*
X00995D02*
X0102D01*
Y0159*
X00995D02*
X0102D01*
X01525Y0067D02*
Y00695D01*
Y0067D02*
X01565D01*
Y00695*
Y00745D02*
Y0077D01*
X01525D02*
X01565D01*
X01525Y00745D02*
Y0077D01*
X02445Y00585D02*
Y00594D01*
Y00496D02*
Y00505D01*
X02295Y00496D02*
Y00505D01*
Y00585D02*
Y00594D01*
X02402D02*
X02445D01*
X02402Y00496D02*
X02445D01*
X02295Y00594D02*
X02347D01*
X02295Y00496D02*
X02347D01*
X02725Y0032D02*
Y00345D01*
Y0032D02*
X02765D01*
Y00345*
Y00395D02*
Y0042D01*
X02725D02*
X02765D01*
X02725Y00395D02*
Y0042D01*
X02225Y00345D02*
Y0037D01*
Y00345D02*
X02265D01*
Y0037*
Y0042D02*
Y00445D01*
X02225D02*
X02265D01*
X02225Y0042D02*
Y00445D01*
X0233Y00861D02*
X0241D01*
X0233Y01016D02*
Y01051D01*
X0241*
Y01016D02*
Y01051D01*
Y00861D02*
Y00896D01*
X0233Y00861D02*
Y00896D01*
G54D44*
X01806Y01514D02*
Y01528D01*
X01834Y01514D02*
Y01528D01*
Y01561D02*
Y01576D01*
X01806Y01514D02*
X01834D01*
X01806Y01561D02*
Y01576D01*
X01834*
X01881Y01514D02*
Y01528D01*
X01909Y01514D02*
Y01528D01*
Y01561D02*
Y01576D01*
X01881Y01514D02*
X01909D01*
X01881Y01561D02*
Y01576D01*
X01909*
X01484Y00987D02*
Y01001D01*
X01456Y00987D02*
Y01001D01*
Y00939D02*
Y00954D01*
Y01001D02*
X01484D01*
Y00939D02*
Y00954D01*
X01456Y00939D02*
X01484D01*
X01731Y01514D02*
Y01528D01*
X01759Y01514D02*
Y01528D01*
Y01561D02*
Y01576D01*
X01731Y01514D02*
X01759D01*
X01731Y01561D02*
Y01576D01*
X01759*
X02631Y00339D02*
X02659D01*
Y00354*
X02631Y00401D02*
X02659D01*
X02631Y00339D02*
Y00354D01*
Y00387D02*
Y00401D01*
X02659Y00387D02*
Y00401D01*
X02556Y00339D02*
X02584D01*
Y00354*
X02556Y00401D02*
X02584D01*
X02556Y00339D02*
Y00354D01*
Y00387D02*
Y00401D01*
X02584Y00387D02*
Y00401D01*
X01456Y01089D02*
X01484D01*
Y01104*
X01456Y01151D02*
X01484D01*
X01456Y01089D02*
Y01104D01*
Y01137D02*
Y01151D01*
X01484Y01137D02*
Y01151D01*
X01264Y00709D02*
X01278D01*
X01264Y00681D02*
X01278D01*
X01311D02*
X01326D01*
X01264D02*
Y00709D01*
X01311D02*
X01326D01*
Y00681D02*
Y00709D01*
X01956Y01576D02*
X01984D01*
X01956Y01561D02*
Y01576D01*
Y01514D02*
X01984D01*
Y01561D02*
Y01576D01*
Y01514D02*
Y01528D01*
X01956Y01514D02*
Y01528D01*
X01361Y01655D02*
X01363Y01659D01*
X01367Y01663*
X0137Y01665*
X01378*
X01382Y01663*
X01386Y01659*
X01388Y01655*
X0139Y0165*
Y0164*
X01388Y01634*
X01386Y01631*
X01382Y01627*
X01378Y01625*
X0137*
X01367Y01627*
X01363Y01631*
X01361Y01634*
X0135Y01665D02*
Y01625D01*
Y01665D02*
X01323Y01625D01*
Y01665D02*
Y01625D01*
X01308Y01665D02*
X01287D01*
X01299Y0165*
X01293*
X01289Y01648*
X01287Y01646*
X01285Y0164*
Y01636*
X01287Y01631*
X01291Y01627*
X01297Y01625*
X01302*
X01308Y01627*
X0131Y01629*
X01312Y01632*
X02725Y005D02*
X02765D01*
Y00477*
X02734Y0047D02*
X02732D01*
X02728Y00468*
X02726Y00467*
X02725Y00463*
Y00455*
X02726Y00451*
X02728Y00449*
X02732Y00448*
X02736*
X0274Y00449*
X02745Y00453*
X02765Y00472*
Y00446*
X01509Y01121D02*
X01505Y01123D01*
X01501Y01127*
X015Y01131*
Y01138*
X01501Y01142*
X01505Y01146*
X01509Y01148*
X01515Y0115*
X01524*
X0153Y01148*
X01534Y01146*
X01538Y01142*
X0154Y01138*
Y01131*
X01538Y01127*
X01534Y01123*
X0153Y01121*
X01505Y01087D02*
X01501Y01089D01*
X015Y01095*
Y01099*
X01501Y01104*
X01507Y01108*
X01517Y0111*
X01526*
X01534Y01108*
X01538Y01104*
X0154Y01099*
Y01097*
X01538Y01091*
X01534Y01087*
X01528Y01085*
X01526*
X0152Y01087*
X01517Y01091*
X01515Y01097*
Y01099*
X01517Y01104*
X0152Y01108*
X01526Y0111*
X02514Y00376D02*
X0251Y00378D01*
X02506Y00382*
X02505Y00386*
Y00393*
X02506Y00397*
X0251Y00401*
X02514Y00403*
X0252Y00405*
X02529*
X02535Y00403*
X02539Y00401*
X02543Y00397*
X02545Y00393*
Y00386*
X02543Y00382*
X02539Y00378*
X02535Y00376*
X02505Y00342D02*
Y00361D01*
X02522Y00363*
X0252Y00361*
X02518Y00355*
Y0035*
X0252Y00344*
X02524Y0034*
X02529Y00338*
X02533*
X02539Y0034*
X02543Y00344*
X02545Y0035*
Y00355*
X02543Y00361*
X02541Y00363*
X02537Y00365*
X02679Y00376D02*
X02675Y00378D01*
X02671Y00382*
X0267Y00386*
Y00393*
X02671Y00397*
X02675Y00401*
X02679Y00403*
X02685Y00405*
X02694*
X027Y00403*
X02704Y00401*
X02708Y00397*
X0271Y00393*
Y00386*
X02708Y00382*
X02704Y00378*
X027Y00376*
X0267Y00346D02*
X02696Y00365D01*
Y00336*
X0267Y00346D02*
X0271D01*
X01366Y00652D02*
X01406D01*
X01366D02*
Y00634D01*
X01368Y00629*
X0137Y00627*
X01374Y00625*
X01378*
X01381Y00627*
X01383Y00629*
X01385Y00634*
Y00652*
Y00638D02*
X01406Y00625D01*
X01387Y00616D02*
Y00599D01*
X01385Y00593*
X01383Y00591*
X0138Y00589*
X01374*
X0137Y00591*
X01368Y00593*
X01366Y00599*
Y00616*
X01406*
X01366Y00557D02*
Y00576D01*
X01383Y00578*
X01381Y00576*
X0138Y00571*
Y00565*
X01381Y00559*
X01385Y00556*
X01391Y00554*
X01395*
X01401Y00556*
X01404Y00559*
X01406Y00565*
Y00571*
X01404Y00576*
X01402Y00578*
X01399Y0058*
X01363Y00871D02*
X01403D01*
X01363D02*
Y00854D01*
X01365Y00848*
X01367Y00846*
X01371Y00844*
X01375*
X01379Y00846*
X01381Y00848*
X01382Y00854*
Y00871*
Y00857D02*
X01403Y00844D01*
X01384Y00835D02*
Y00818D01*
X01382Y00812*
X01381Y0081*
X01377Y00809*
X01371*
X01367Y0081*
X01365Y00812*
X01363Y00818*
Y00835*
X01403*
X01363Y00781D02*
X0139Y008D01*
Y00771*
X01363Y00781D02*
X01403D01*
X02367Y01651D02*
Y01611D01*
Y01651D02*
X0235D01*
X02344Y01649*
X02342Y01647*
X0234Y01643*
Y01639*
X02342Y01636*
X02344Y01634*
X0235Y01632*
X02367*
X02353D02*
X0234Y01611D01*
X02331Y0163D02*
X02314D01*
X02308Y01632*
X02306Y01634*
X02304Y01637*
Y01643*
X02306Y01647*
X02308Y01649*
X02314Y01651*
X02331*
Y01611*
X02294Y01641D02*
Y01643D01*
X02292Y01647*
X0229Y01649*
X02286Y01651*
X02278*
X02275Y01649*
X02273Y01647*
X02271Y01643*
Y01639*
X02273Y01636*
X02276Y0163*
X02296Y01611*
X02269*
X02118Y0066D02*
X02145Y0062D01*
Y0066D02*
X02118D01*
X02145Y0062D02*
X02118D01*
X02109Y00652D02*
X02105Y00654D01*
X02099Y0066*
Y0062*
X01715Y0168D02*
X01755D01*
X01715D02*
Y01663D01*
X01716Y01657*
X01718Y01655*
X01722Y01653*
X01726*
X0173Y01655*
X01732Y01657*
X01734Y01663*
Y0168*
Y01666D02*
X01755Y01653D01*
X01715Y01635D02*
X01716Y0164D01*
X0172Y01642*
X01724*
X01728Y0164*
X0173Y01637*
X01732Y01629*
X01734Y01623*
X01737Y01619*
X01741Y01618*
X01747*
X01751Y01619*
X01753Y01621*
X01755Y01627*
Y01635*
X01753Y0164*
X01751Y01642*
X01747Y01644*
X01741*
X01737Y01642*
X01734Y01638*
X01732Y01633*
X0173Y01625*
X01728Y01621*
X01724Y01619*
X0172*
X01716Y01621*
X01715Y01627*
Y01635*
X01499Y01D02*
X01539D01*
X01499D02*
Y00983D01*
X01501Y00977*
X01503Y00975*
X01507Y00973*
X01511*
X01515Y00975*
X01517Y00977*
X01518Y00983*
Y01*
Y00986D02*
X01539Y00973D01*
X01499Y00938D02*
X01539Y00957D01*
X01499Y00964D02*
Y00938D01*
X0195Y01685D02*
X0199D01*
X0195D02*
Y01668D01*
X01951Y01662*
X01953Y0166*
X01957Y01658*
X01961*
X01965Y0166*
X01967Y01662*
X01969Y01668*
Y01685*
Y01671D02*
X0199Y01658D01*
X01955Y01626D02*
X01951Y01628D01*
X0195Y01634*
Y01638*
X01951Y01643*
X01957Y01647*
X01967Y01649*
X01976*
X01984Y01647*
X01988Y01643*
X0199Y01638*
Y01636*
X01988Y0163*
X01984Y01626*
X01978Y01624*
X01976*
X0197Y01626*
X01967Y0163*
X01965Y01636*
Y01638*
X01967Y01643*
X0197Y01647*
X01976Y01649*
X01415Y0072D02*
Y0068D01*
Y0072D02*
X01397D01*
X01392Y00718*
X0139Y00716*
X01388Y00712*
Y00708*
X0139Y00705*
X01392Y00703*
X01397Y00701*
X01415*
X01401D02*
X01388Y0068D01*
X01356Y0072D02*
X01375D01*
X01377Y00703*
X01375Y00705*
X01369Y00706*
X01364*
X01358Y00705*
X01354Y00701*
X01352Y00695*
Y00691*
X01354Y00686*
X01358Y00682*
X01364Y0068*
X01369*
X01375Y00682*
X01377Y00684*
X01379Y00687*
X0247Y0057D02*
X0251D01*
X0247D02*
Y00553D01*
X02471Y00547*
X02473Y00545*
X02477Y00543*
X02481*
X02485Y00545*
X02487Y00547*
X02489Y00553*
Y0057*
Y00556D02*
X0251Y00543D01*
X0247Y00515D02*
X02496Y00534D01*
Y00506*
X0247Y00515D02*
X0251D01*
X0217Y00295D02*
X0221D01*
X0217D02*
Y00278D01*
X02171Y00272*
X02173Y0027*
X02177Y00268*
X02181*
X02185Y0027*
X02187Y00272*
X02189Y00278*
Y00295*
Y00281D02*
X0221Y00268D01*
X0217Y00255D02*
Y00234D01*
X02185Y00246*
Y0024*
X02187Y00236*
X02189Y00234*
X02194Y00233*
X02198*
X02204Y00234*
X02208Y00238*
X0221Y00244*
Y0025*
X02208Y00255*
X02206Y00257*
X02202Y00259*
X02495Y00212D02*
X02535D01*
X02495D02*
Y00194D01*
X02496Y00189*
X02498Y00187*
X02502Y00185*
X02506*
X0251Y00187*
X02512Y00189*
X02514Y00194*
Y00212*
Y00198D02*
X02535Y00185D01*
X02504Y00174D02*
X02502D01*
X02498Y00172*
X02496Y0017*
X02495Y00166*
Y00159*
X02496Y00155*
X02498Y00153*
X02502Y00151*
X02506*
X0251Y00153*
X02515Y00157*
X02535Y00176*
Y00149*
X02575Y0057D02*
X02615D01*
X02575D02*
Y00553D01*
X02576Y00547*
X02578Y00545*
X02582Y00543*
X02586*
X0259Y00545*
X02592Y00547*
X02594Y00553*
Y0057*
Y00556D02*
X02615Y00543D01*
X02582Y00534D02*
X0258Y0053D01*
X02575Y00525*
X02615*
X02355Y00655D02*
Y00615D01*
X02333*
X02328Y00647D02*
X02324Y00649D01*
X02319Y00655*
Y00615*
X02712Y00085D02*
X02714Y00089D01*
X02718Y00093*
X02721Y00095*
X02729*
X02733Y00093*
X02737Y00089*
X02739Y00085*
X0274Y0008*
Y0007*
X02739Y00064*
X02737Y00061*
X02733Y00057*
X02729Y00055*
X02721*
X02718Y00057*
X02714Y00061*
X02712Y00064*
X02699Y00085D02*
Y00087D01*
X02697Y00091*
X02695Y00093*
X02691Y00095*
X02684*
X0268Y00093*
X02678Y00091*
X02676Y00087*
Y00083*
X02678Y0008*
X02682Y00074*
X02701Y00055*
X02674*
X01997Y00386D02*
X01993Y00388D01*
X01989Y00392*
X01987Y00396*
Y00403*
X01989Y00407*
X01993Y00411*
X01997Y00413*
X02003Y00415*
X02012*
X02018Y00413*
X02022Y00411*
X02026Y00407*
X02027Y00403*
Y00396*
X02026Y00392*
X02022Y00388*
X02018Y00386*
X01995Y00375D02*
X01993Y00371D01*
X01987Y00365*
X02027*
X01665Y0165D02*
Y0161D01*
Y0165D02*
X01647D01*
X01642Y01648*
X0164Y01646*
X01638Y01642*
Y01638*
X0164Y01635*
X01642Y01633*
X01647Y01631*
X01665*
X01651D02*
X01638Y0161D01*
X01629Y01629D02*
X01612D01*
X01606Y01631*
X01604Y01633*
X01602Y01636*
Y01642*
X01604Y01646*
X01606Y01648*
X01612Y0165*
X01629*
Y0161*
X01593Y01642D02*
X01589Y01644D01*
X01584Y0165*
Y0161*
X0187Y0168D02*
X0191D01*
X0187D02*
Y01663D01*
X01871Y01657*
X01873Y01655*
X01877Y01653*
X01881*
X01885Y01655*
X01887Y01657*
X01889Y01663*
Y0168*
Y01666D02*
X0191Y01653D01*
X01877Y01644D02*
X01875Y0164D01*
X0187Y01635*
X0191*
X0187Y01603D02*
X01871Y01609D01*
X01877Y01613*
X01887Y01615*
X01892*
X01902Y01613*
X01908Y01609*
X0191Y01603*
Y016*
X01908Y01594*
X01902Y0159*
X01892Y01588*
X01887*
X01877Y0159*
X01871Y01594*
X0187Y016*
Y01603*
X01785Y0168D02*
X01825D01*
X01785D02*
Y01663D01*
X01786Y01657*
X01788Y01655*
X01792Y01653*
X01796*
X018Y01655*
X01802Y01657*
X01804Y01663*
Y0168*
Y01666D02*
X01825Y01653D01*
X01798Y01619D02*
X01804Y01621D01*
X01807Y01625*
X01809Y01631*
Y01633*
X01807Y01638*
X01804Y01642*
X01798Y01644*
X01796*
X0179Y01642*
X01786Y01638*
X01785Y01633*
Y01631*
X01786Y01625*
X0179Y01621*
X01798Y01619*
X01807*
X01817Y01621*
X01823Y01625*
X01825Y01631*
Y01635*
X01823Y0164*
X01819Y01642*
X02437Y01024D02*
X02433Y01026D01*
X02429Y0103*
X02428Y01034*
Y01041*
X02429Y01045*
X02433Y01049*
X02437Y01051*
X02443Y01053*
X02452*
X02458Y01051*
X02462Y01049*
X02466Y01045*
X02468Y01041*
Y01034*
X02466Y0103*
X02462Y01026*
X02458Y01024*
X02428Y01009D02*
Y00988D01*
X02443Y01*
Y00994*
X02445Y0099*
X02447Y00988*
X02452Y00986*
X02456*
X02462Y00988*
X02466Y00992*
X02468Y00998*
Y01003*
X02466Y01009*
X02464Y01011*
X0246Y01013*
X02142Y01651D02*
Y01611D01*
Y01651D02*
X02125D01*
X02119Y01649*
X02117Y01647*
X02115Y01643*
Y01639*
X02117Y01636*
X02119Y01634*
X02125Y01632*
X02142*
X02128D02*
X02115Y01611D01*
X02106Y0163D02*
X02089D01*
X02083Y01632*
X02081Y01634*
X02079Y01637*
Y01643*
X02081Y01647*
X02083Y01649*
X02089Y01651*
X02106*
Y01611*
X02067Y01651D02*
X02046D01*
X02057Y01636*
X02051*
X02048Y01634*
X02046Y01632*
X02044Y01626*
Y01622*
X02046Y01617*
X0205Y01613*
X02055Y01611*
X02061*
X02067Y01613*
X02069Y01615*
X02071Y01618*
X02285Y00345D02*
X02313D01*
X02319Y00343*
X02323Y00339*
X02325Y00333*
Y0033*
X02323Y00324*
X02319Y0032*
X02313Y00318*
X02285*
X02292Y00307D02*
X0229Y00303D01*
X02285Y00298*
X02325*
X01145Y01545D02*
Y01585D01*
X01125*
X01118Y01578*
Y01565*
X01125Y01558*
X01145*
X01131D02*
X01118Y01545D01*
X01105D02*
X01091D01*
X01098*
Y01585*
X01105Y01578*
X01071Y01545D02*
X01058D01*
X01065*
Y01585*
X01071Y01578*
X02448Y00772D02*
X02408D01*
Y00752*
X02414Y00745*
X02428*
X02434Y00752*
Y00772*
Y00758D02*
X02448Y00745D01*
Y00732D02*
Y00718D01*
Y00725*
X02408*
X02414Y00732*
X02448Y00672D02*
Y00698D01*
X02421Y00672*
X02414*
X02408Y00678*
Y00692*
X02414Y00698*
X02019Y00765D02*
X01979D01*
Y00745*
X01986Y00738*
X01999*
X02006Y00745*
Y00765*
Y00751D02*
X02019Y00738D01*
Y00725D02*
Y00711D01*
Y00718*
X01979*
X01986Y00725*
Y00691D02*
X01979Y00685D01*
Y00671*
X01986Y00665*
X01993*
X01999Y00671*
Y00678*
Y00671*
X02006Y00665*
X02013*
X02019Y00671*
Y00685*
X02013Y00691*
X01625Y00764D02*
X01585D01*
Y00744*
X01591Y00737*
X01605*
X01611Y00744*
Y00764*
Y0075D02*
X01625Y00737D01*
Y00724D02*
Y0071D01*
Y00717*
X01585*
X01591Y00724*
X01625Y0067D02*
X01585D01*
X01605Y0069*
Y00664*
X03295Y00815D02*
Y00855D01*
X03275*
X03268Y00848*
Y00835*
X03275Y00828*
X03295*
X03281D02*
X03268Y00815D01*
X03255D02*
X03241D01*
X03248*
Y00855*
X03255Y00848*
X03195Y00855D02*
X03221D01*
Y00835*
X03208Y00841*
X03201*
X03195Y00835*
Y00821*
X03201Y00815*
X03215*
X03221Y00821*
G54D68*
X01314Y01208D02*
X01339D01*
Y01308*
X01314D02*
X01339D01*
X01314Y01023D02*
Y01208D01*
Y01308D02*
Y01483D01*
M02*