%FSTAX23Y23*%
%MOIN*%
%SFA1B1*%

%IPPOS*%
%ADD16C,0.005000*%
%ADD45C,0.068000*%
%ADD46C,0.133980*%
%ADD47C,0.024000*%
%ADD48R,0.086740X0.067060*%
%ADD49R,0.086740X0.067060*%
%ADD50R,0.038000X0.038000*%
%ADD51R,0.023750X0.043000*%
%ADD52R,0.043000X0.023750*%
%ADD53R,0.035560X0.019810*%
%ADD54R,0.067060X0.098550*%
%ADD55R,0.038000X0.058000*%
%ADD56R,0.113120X0.086740*%
%ADD57R,0.038000X0.038000*%
%ADD58R,0.067060X0.086740*%
%ADD59R,0.067060X0.086740*%
%ADD60C,0.048000*%
%ADD61R,0.028000X0.026000*%
%ADD62R,0.068000X0.058000*%
%ADD63R,0.026000X0.028000*%
%ADD64R,0.047370X0.023750*%
%ADD65R,0.028000X0.106420*%
%ADD66R,0.039500X0.019810*%
%ADD67R,0.039500X0.019810*%
%LNmb895c-1*%
%LPD*%
G54D16*
X0047Y00245D02*
D01*
D01*
G75*
G03X0057I00050J0D01*
G74*G01*
Y0147D02*
D01*
D01*
G75*
G03X0047I-00050J0D01*
G74*G01*
X0062Y01685D02*
X0082D01*
X00865Y0173*
X0332*
X00575D02*
X0062Y01685D01*
X0Y0D02*
X03315D01*
X0D02*
Y0173D01*
X0057Y00245D02*
Y0147D01*
X0047Y00245D02*
Y0147D01*
X0332Y0D02*
Y0173D01*
X03315Y0D02*
X0332Y0D01*
X0Y0173D02*
X00575Y0173D01*
G54D45*
X0262Y00652D03*
X02795Y00172D03*
Y00645D03*
X02095Y00145D03*
X02795Y0027D03*
X03246Y0162D03*
X03146Y0142D03*
X03246D03*
Y0152D03*
Y0032D03*
X03146D03*
X03246Y0042D03*
X03146D03*
X03246Y0052D03*
X03146D03*
X03246Y0062D03*
X03146D03*
X03246Y0132D03*
X03146D03*
Y0152D03*
Y0162D03*
X02945Y0142D03*
Y0132D03*
Y0122D03*
Y0112D03*
Y0102D03*
Y0092D03*
Y0082D03*
Y0072D03*
Y0062D03*
X03045Y0142D03*
Y0132D03*
Y0122D03*
Y0112D03*
Y0102D03*
Y0092D03*
Y0082D03*
Y0072D03*
Y0062D03*
X02945Y0152D03*
X03045Y0162D03*
Y0152D03*
X02945Y0162D03*
X03045Y0042D03*
X02945Y0032D03*
X03045D03*
Y0052D03*
X02945Y0042D03*
X03045Y0022D03*
X02945D03*
Y0052D03*
G54D46*
X00097Y01575D03*
Y00157D03*
X03226D03*
G54D47*
X0187Y01572D03*
X01779Y01575D03*
X02Y0146D03*
X0221D03*
X0283Y00455D03*
X01435Y0047D03*
X00925Y01645D03*
G54D48*
X02095Y00285D03*
X02695Y00135D03*
G54D49*
X02095Y00405D03*
X02695Y00255D03*
G54D50*
X0322Y00772D03*
Y00717D03*
X01945Y00747D03*
Y00692D03*
X0237D03*
Y00747D03*
X02545Y00492D03*
Y00547D03*
X02245Y00217D03*
Y00272D03*
X0257Y00167D03*
Y00222D03*
X02645Y00492D03*
Y00547D03*
X01545Y00692D03*
Y00747D03*
X02745Y00342D03*
Y00397D03*
X02245Y00367D03*
Y00422D03*
G54D51*
X02272Y01578D03*
X02304D03*
X02335D03*
X02367D03*
X02272Y01511D03*
X02304D03*
X02335D03*
X02367D03*
X02079Y01578D03*
Y01511D03*
X0211D03*
X02047D03*
X02142D03*
X0211Y01578D03*
X02047D03*
X02142D03*
X01667Y01511D03*
X01572D03*
X01635D03*
X01604D03*
Y01578D03*
X01572D03*
X01635D03*
X01667D03*
G54D52*
X01328Y00617D03*
Y00523D03*
Y00586D03*
X01261Y00617D03*
Y00523D03*
Y00586D03*
Y00554D03*
X01328D03*
Y00804D03*
X01261D03*
Y00836D03*
Y00773D03*
Y00867D03*
X01328Y00836D03*
Y00773D03*
Y00867D03*
G54D53*
X02477Y00306D03*
Y00332D03*
Y00358D03*
Y00383D03*
X02362Y00306D03*
Y00332D03*
Y00358D03*
Y00383D03*
G54D54*
X0242Y00345D03*
G54D55*
X02197Y00545D03*
G54D56*
X02104Y00545D03*
G54D57*
X00942Y0157D03*
X00997D03*
G54D58*
X0243Y00545D03*
G54D59*
X0231Y00545D03*
G54D60*
X0282Y01595D03*
X00651Y00145D03*
G54D61*
X0182Y01564D03*
Y01526D03*
X01895Y01564D03*
Y01526D03*
X0147Y00951D03*
Y00989D03*
X01745Y01564D03*
Y01526D03*
X02645Y00389D03*
Y00351D03*
X0257Y00389D03*
Y00351D03*
X0147Y01139D03*
Y01101D03*
X0197Y01526D03*
Y01564D03*
G54D62*
X0237Y00896D03*
Y01016D03*
G54D63*
X01314Y00695D03*
X01276D03*
G54D64*
X01296Y00935D03*
Y01581D03*
G54D65*
X00692Y01502D03*
X00737D03*
G54D66*
X01284Y00963D03*
X01395Y00974D03*
X01284Y00986D03*
X01395Y00998D03*
X01284Y0101D03*
Y01033D03*
X01395Y01045D03*
X01284Y01057D03*
X01395Y01069D03*
X01284Y01081D03*
X01395Y01092D03*
Y0114D03*
Y01163D03*
Y01187D03*
Y01211D03*
X01284Y01128D03*
Y01151D03*
Y01175D03*
Y01199D03*
Y01553D03*
Y01506D03*
X01395Y01494D03*
X01284Y01482D03*
X01395Y0147D03*
X01284Y01459D03*
X01395Y01447D03*
X01284Y01435D03*
X01395Y01116D03*
X01284Y01104D03*
X01395Y01022D03*
X01284Y01529D03*
Y01222D03*
Y01246D03*
Y0127D03*
Y01293D03*
Y01317D03*
Y0134D03*
Y01364D03*
Y01388D03*
Y01411D03*
X01395Y01518D03*
Y01234D03*
Y01258D03*
Y01281D03*
Y01305D03*
Y01329D03*
Y01352D03*
Y01376D03*
Y014D03*
Y01423D03*
G54D67*
X01395Y01541D03*
M02*