M48
;Layer_Color=9474304
;FILE_FORMAT=2:5
INCH,LZ
;TYPE=PLATED
T1F00S00C0.00800
T2F00S00C0.01600
T3F00S00C0.04000
;TYPE=NON_PLATED
T4F00S00C0.12598
%
T01
X0297Y0007028
X0283094Y0045528
X0328394Y0078528
Y0092028
Y0107028
Y0122028
X0268Y0146
X0248
X0236724Y0145324
X02336Y01468
X0230425Y0145325
X02273Y01468
X0221Y0146
X0214224Y0145324
X0211075Y0146825
X0207925Y0145454
X0204776Y0147076
X02Y0146
X0205Y0139028
X0208Y0135028
X0211Y0131028
X02145Y0128528
X0227276Y0125804
X0230425Y0120954
X02335Y0116528
X0236724Y0112253
X0223594Y0092028
X0203594
X02035Y00764
X0207Y0064528
X0232
X0245194Y0065028
X0254Y007
X0247Y0077028
X02595Y0054778
X02685Y0049028
X02742Y00564
X0251594Y0042178
X0241994Y0042528
X02325Y0037028
X0229994Y0026528
X0239594
X0250794Y0022028
X0262Y00292
X0257Y0007028
X0229994Y0016528
X0218794
Y0026528
Y0036528
X0217Y0007028
X0177
X01655Y00268
X01895
X01795Y0064528
X01845Y00764
X0184394Y0092028
X01625Y00924
Y00764
X0141
Y00692
X0152Y0064528
X0143594Y0047028
X0132Y0044528
Y0037028
Y0027028
X0137Y0007028
X0141Y00924
X0133994Y0098528
Y0106528
Y0114528
X0132Y0122285
Y0127009
X01356Y0129372
Y0124647
X01355Y0134096
Y0138821
Y0144628
X01321Y0143528
X0132Y0136458
X0152Y0137028
Y0133028
X0157Y0123528
Y0118528
Y0114528
Y0110028
X0161Y0107028
X0147Y0106
X01465Y0102028
X0122794Y0104028
Y0092528
Y0117028
X01485Y0149528
X0161Y0148028
X015865Y0141028
X0120394Y0146028
X0100394
X0097194Y0132028
X00895
X0082
X0062
Y0102028
X0082
X00895
X0097Y0102
X0097194Y0072028
X00895
X0082
X0062
Y0047028
X0082
X0107
X0117Y0044528
X0099594Y0037028
Y0027028
X0097Y0007028
X0062
X0097Y0059528
X0092594Y0164528
X0102794Y0167028
X0117194
X0082Y0159528
X0062
X01328Y0158928
X0131594Y0167028
X01485Y0160528
X0171Y0164528
X0179594Y0168028
X0185Y0162528
X0187Y01572
X01935Y0158528
X0197194Y0168028
X0215594
X0234794
X0254794
X0274794
X0177994Y0157528
T02
X02095Y0047028
T03
X02795Y00172
X0279594Y0027028
X02945Y0022028
Y0032028
X03045
Y0042028
Y0052028
Y0062028
X02945
Y0072028
Y0082028
Y0092028
Y0102028
Y0112028
Y0122028
Y0132028
Y0142028
X03045
Y0132028
Y0122028
Y0112028
Y0102028
Y0092028
Y0082028
Y0072028
X03146Y0062028
Y0052028
Y0042028
Y0032028
X03246
Y0042028
Y0052028
Y0062028
X02945Y0052028
Y0042028
X03045Y0022028
X02795Y0064528
X03146Y0132028
Y0142028
X03246
Y0132028
X0262Y00652
X02095Y0014528
X02945Y0152028
X03045
Y0162028
X02945
X03146Y0162028
X03246
Y0152028
X03146
T04
X0322698Y0015757
X0009706
Y0157528
M30
