%FSTAX23Y23*%
%MOIN*%
%SFA1B1*%

%IPPOS*%
%ADD10C,0.015000*%
%ADD11C,0.010000*%
%ADD12C,0.007000*%
%ADD13C,0.012000*%
%ADD14C,0.020000*%
%ADD15C,0.025000*%
%ADD16C,0.005000*%
%ADD17C,0.008000*%
%ADD18C,0.060000*%
%ADD19C,0.125980*%
%ADD20C,0.016000*%
%ADD21C,0.025000*%
%LNmb895c-1*%
%LPD*%
G54D10*
X03262Y0157D02*
D01*
D01*
G75*
G03X03295Y01601I-00016J00049D01*
G74*G01*
Y01639D02*
D01*
D01*
G75*
G03X03214Y01662I-00049J-00018D01*
G74*G01*
X03295Y01539D02*
D01*
D01*
G75*
G03X03262Y0157I-00048J-00018D01*
G74*G01*
Y0147D02*
D01*
D01*
G75*
G03X03295Y01501I-00016J00049D01*
G74*G01*
X03183Y01693D02*
D01*
D01*
G75*
G03X03165Y01701I-00018J-00018D01*
G74*G01*
X03183Y01693D02*
D01*
D01*
G75*
G03X03165Y01701I-00018J-00018D01*
G74*G01*
X03295Y01439D02*
D01*
D01*
G75*
G03X03262Y0147I-00048J-00018D01*
G74*G01*
Y0137D02*
D01*
D01*
G75*
G03X03295Y01401I-00016J00049D01*
G74*G01*
Y01339D02*
D01*
D01*
G75*
G03X03262Y0137I-00048J-00018D01*
G74*G01*
X03213Y01278D02*
D01*
D01*
G75*
G03X03295Y01301I00032J00041D01*
G74*G01*
X02898Y01344D02*
D01*
D01*
G75*
G03X02928Y0127I00046J-00024D01*
G74*G01*
D01*
D01*
G75*
G03Y0117I00016J-00050D01*
G74*G01*
X03097Y0112D02*
D01*
D01*
G75*
G03X03086Y01151I-00052J-0D01*
G74*G01*
X03061Y0107D02*
D01*
D01*
G75*
G03X03097Y0112I-00016J00049D01*
G74*G01*
X02928Y0117D02*
D01*
D01*
G75*
G03Y0107I00016J-00050D01*
G74*G01*
X02875Y01701D02*
D01*
D01*
G75*
G03X02856Y01693I0J-00026D01*
G74*G01*
X02875Y01701D02*
D01*
D01*
G75*
G03X02856Y01693I0J-00026D01*
G74*G01*
X02393Y01437D02*
D01*
D01*
G75*
G03X02397Y01453I-00025J00015D01*
G74*G01*
X02851Y01351D02*
D01*
D01*
G75*
G03X0287Y01344I00018J00018D01*
G74*G01*
X02851Y01351D02*
D01*
D01*
G75*
G03X0287Y01344I00018J00018D01*
G74*G01*
X02397Y01453D02*
D01*
D01*
G75*
G03X02389Y01474I-00030J0D01*
G74*G01*
X02243D02*
D01*
D01*
G75*
G03X02247Y01452I00029J-00006D01*
G74*G01*
X02397Y01122D02*
D01*
D01*
G75*
G03X02393Y01138I-00030J0D01*
G74*G01*
X02339Y01135D02*
D01*
D01*
G75*
G03X02397Y01122I00027J-00012D01*
G74*G01*
X02278Y01225D02*
D01*
D01*
G75*
G03X02307Y01179I00025J-00015D01*
G74*G01*
X02247Y01274D02*
D01*
D01*
G75*
G03X02278Y01228I00025J-00016D01*
G74*G01*
X02307Y01179D02*
D01*
D01*
G75*
G03X02339Y01135I00027J-00013D01*
G74*G01*
X03097Y0102D02*
D01*
D01*
G75*
G03X03061Y0107I-00052J-0D01*
G74*G01*
Y0097D02*
D01*
D01*
G75*
G03X03097Y0102I-00016J00049D01*
G74*G01*
X02928Y0107D02*
D01*
D01*
G75*
G03Y0097I00016J-00050D01*
G74*G01*
X03097Y0092D02*
D01*
D01*
G75*
G03X03061Y0097I-00052J-0D01*
G74*G01*
Y0087D02*
D01*
D01*
G75*
G03X03097Y0092I-00016J00049D01*
G74*G01*
Y0082D02*
D01*
D01*
G75*
G03X03061Y0087I-00052J-0D01*
G74*G01*
Y0077D02*
D01*
D01*
G75*
G03X03097Y0082I-00016J00049D01*
G74*G01*
X02928Y0097D02*
D01*
D01*
G75*
G03Y0087I00016J-00050D01*
G74*G01*
D01*
D01*
G75*
G03Y0077I00016J-00050D01*
G74*G01*
D01*
D01*
G75*
G03Y0067I00016J-00050D01*
G74*G01*
D01*
D01*
G75*
G03Y0057I00016J-00050D01*
G74*G01*
D01*
D01*
G75*
G03X02892Y00515I00016J-00049D01*
G74*G01*
X02915Y00465D02*
D01*
D01*
G75*
G03X02918Y00465I0J00023D01*
G74*G01*
D01*
D01*
G75*
G03X02928Y0037I00026J-00045D01*
G74*G01*
D01*
D01*
G75*
G03X02892Y00322I00016J-00049D01*
G74*G01*
X02915Y00465D02*
D01*
D01*
G75*
G03X02918Y00465I0J00023D01*
G74*G01*
X02847Y00645D02*
D01*
D01*
G75*
G03X02742I-00052J0D01*
G74*G01*
D01*
G75*
G03X02847I00052J0D01*
G74*G01*
X02629Y006D02*
D01*
D01*
G75*
G03X02672Y00652I-00009J00051D01*
G74*G01*
D01*
D01*
G75*
G03X0261Y006I-00052J-0D01*
G74*G01*
X01905Y01579D02*
D01*
D01*
G75*
G03X01907Y01571I00030J00006D01*
G74*G01*
X01725Y01671D02*
D01*
D01*
G75*
G03X01682Y01631I-00015J-00025D01*
G74*G01*
X02172Y01453D02*
D01*
D01*
G75*
G03X02164Y01474I-00030J0D01*
G74*G01*
X02168Y01437D02*
D01*
D01*
G75*
G03X02172Y01453I-00025J00015D01*
G74*G01*
X02021Y01401D02*
D01*
D01*
G75*
G03X02051Y01359I00028J-00011D01*
G74*G01*
X02175Y01285D02*
D01*
D01*
G75*
G03X02168Y01305I-00030J0D01*
G74*G01*
X02081Y01319D02*
D01*
D01*
G75*
G03X02114Y0128I00028J-00009D01*
G74*G01*
X02051Y01359D02*
D01*
D01*
G75*
G03X02081Y01319I00028J-00009D01*
G74*G01*
X02017Y01474D02*
D01*
D01*
G75*
G03X02021Y01454I00030J-00003D01*
G74*G01*
X015Y01631D02*
D01*
D01*
G75*
G03Y01579I-00015J-00026D01*
G74*G01*
X01535Y01571D02*
D01*
D01*
G75*
G03X01516Y01563I0J-00026D01*
G74*G01*
X01535Y01571D02*
D01*
D01*
G75*
G03X01516Y01563I0J-00026D01*
G74*G01*
X01638Y01469D02*
D01*
D01*
G75*
G03X01639Y01474I-00028J00010D01*
G74*G01*
X01477Y01524D02*
D01*
D01*
G75*
G03X0146Y01477I00007J-00029D01*
G74*G01*
X0137Y01472D02*
D01*
D01*
G75*
G03X0133Y01464I-00015J-00025D01*
G74*G01*
X01314Y01405D02*
D01*
D01*
G75*
G03X01326Y01399I00016J00019D01*
G74*G01*
X01314Y01405D02*
D01*
D01*
G75*
G03X01326Y01399I00016J00019D01*
G74*G01*
X0133Y01464D02*
D01*
D01*
G75*
G03X01314Y01405I-00009J-00029D01*
G74*G01*
X01336Y01316D02*
D01*
D01*
G75*
G03X01326Y01299I00019J-00023D01*
G74*G01*
X01325Y01334D02*
D01*
D01*
G75*
G03X01336Y01316I00029J00006D01*
G74*G01*
X01326Y01399D02*
D01*
D01*
G75*
G03X01325Y01394I00027J-00011D01*
G74*G01*
D01*
D01*
G75*
G03Y01334I-00005J-00030D01*
G74*G01*
X02114Y0128D02*
D01*
D01*
G75*
G03X02175Y01285I00030J00005D01*
G74*G01*
X0154Y01093D02*
D01*
D01*
G75*
G03X01548Y01078I00029J00007D01*
G74*G01*
X0164Y0107D02*
D01*
D01*
G75*
G03X01638Y01081I-00030J-0D01*
G74*G01*
X01588Y01048D02*
D01*
D01*
G75*
G03X0164Y0107I00021J00021D01*
G74*G01*
X01525Y00995D02*
D01*
D01*
G75*
G03X01542Y01002I0J00024D01*
G74*G01*
X01525Y00995D02*
D01*
D01*
G75*
G03X01542Y01002I0J00024D01*
G74*G01*
X01326Y01299D02*
D01*
D01*
G75*
G03X013Y01246I-00006J-00029D01*
G74*G01*
D01*
D01*
G75*
G03X01335Y01196I00019J-00023D01*
G74*G01*
X01482Y01045D02*
D01*
D01*
G75*
G03Y00995I-00017J-00025D01*
G74*G01*
X02584Y00519D02*
D01*
D01*
G75*
G03X02625Y00542I00010J00028D01*
G74*G01*
X0266Y00507D02*
D01*
D01*
G75*
G03X02702Y00465I00024J-00017D01*
G74*G01*
X02497Y00576D02*
D01*
D01*
G75*
G03X02477Y00567I0J-00028D01*
G74*G01*
X02497Y00576D02*
D01*
D01*
G75*
G03X02477Y00567I-0J-00028D01*
G74*G01*
X03196Y00304D02*
D01*
D01*
G75*
G03X03295Y00301I00050J00016D01*
G74*G01*
X03095Y00305D02*
D01*
D01*
G75*
G03X03196Y00304I00050J00014D01*
G74*G01*
X0307Y00274D02*
D01*
D01*
G75*
G03X03095Y00305I-00024J00046D01*
G74*G01*
X0213Y0047D02*
D01*
D01*
G75*
G03X0206I-00035J0D01*
G74*G01*
X01995Y00545D02*
D01*
D01*
G75*
G03X0197Y0057I-00025J0D01*
G74*G01*
X01995Y00545D02*
D01*
D01*
G75*
G03X0197Y0057I-00025J0D01*
G74*G01*
X01995Y00545D02*
D01*
D01*
G75*
G03X0197Y0057I-00025J0D01*
G74*G01*
X01995Y00545D02*
D01*
D01*
G75*
G03X0197Y0057I-00025J0D01*
G74*G01*
X01995Y00545D02*
D01*
D01*
G75*
G03X0197Y0057I-00025J0D01*
G74*G01*
X0213Y0047D02*
D01*
D01*
G75*
G03X0206I-00035J0D01*
G74*G01*
X02304Y00395D02*
D01*
D01*
G75*
G03X02298Y00384I00020J-00020D01*
G74*G01*
D01*
D01*
G75*
G03X02355Y00365I00026J-00014D01*
G74*G01*
X02304Y00395D02*
D01*
D01*
G75*
G03X02298Y00384I00020J-00020D01*
G74*G01*
X0197Y0027D02*
D01*
D01*
G75*
G03X01995Y00295I0J00025D01*
G74*G01*
X0197Y0027D02*
D01*
D01*
G75*
G03X01995Y00295I0J00025D01*
G74*G01*
X0197Y0027D02*
D01*
D01*
G75*
G03X01995Y00295I0J00025D01*
G74*G01*
X0197Y0027D02*
D01*
D01*
G75*
G03X01995Y00295I0J00025D01*
G74*G01*
X03295Y00209D02*
D01*
D01*
G75*
G03X03198Y00238I-00068J-00051D01*
G74*G01*
X03097Y0022D02*
D01*
D01*
G75*
G03X0307Y00266I-00052J-0D01*
G74*G01*
X03198Y00238D02*
D01*
D01*
G75*
G03X03251Y00075I00024J-00081D01*
G74*G01*
X02995Y00204D02*
D01*
D01*
G75*
G03X03097Y0022I00049J00016D01*
G74*G01*
X02813Y0022D02*
D01*
D01*
G75*
G03X02829Y0023I-00017J00049D01*
G74*G01*
X0279Y00322D02*
D01*
D01*
G75*
G03X02777Y00221I00005J-00052D01*
G74*G01*
X02892Y0022D02*
D01*
D01*
G75*
G03X02995Y00204I00052J-0D01*
G74*G01*
X02847Y00172D02*
D01*
D01*
G75*
G03X02813Y0022I-00052J-0D01*
G74*G01*
X02777Y00221D02*
D01*
D01*
G75*
G03X02847Y00172I00017J-00049D01*
G74*G01*
X03251Y00075D02*
D01*
D01*
G75*
G03X03295Y00105I-00024J00082D01*
G74*G01*
X02147Y00145D02*
D01*
D01*
G75*
G03X0213Y00184I-00052J0D01*
G74*G01*
X0206D02*
D01*
D01*
G75*
G03X02147Y00145I00035J-00039D01*
G74*G01*
X0147Y0057D02*
D01*
D01*
G75*
G03X01445Y00545I0J-00025D01*
G74*G01*
X0147Y0057D02*
D01*
D01*
G75*
G03X01445Y00545I0J-00025D01*
G74*G01*
X0147Y0057D02*
D01*
D01*
G75*
G03X01445Y00545I0J-00025D01*
G74*G01*
X0147Y0057D02*
D01*
D01*
G75*
G03X01445Y00545I0J-00025D01*
G74*G01*
X0082Y0166D02*
D01*
D01*
G75*
G03X00837Y01667I0J00024D01*
G74*G01*
X0082Y0166D02*
D01*
D01*
G75*
G03X00837Y01667I0J00024D01*
G74*G01*
X00602D02*
D01*
D01*
G75*
G03X0062Y0166I00017J00017D01*
G74*G01*
X00602Y01667D02*
D01*
D01*
G75*
G03X0062Y0166I00017J00017D01*
G74*G01*
X00595Y0147D02*
D01*
D01*
G75*
G03X00545Y01541I-00075J-0D01*
G74*G01*
X01445Y00295D02*
D01*
D01*
G75*
G03X0147Y0027I00025J0D01*
G74*G01*
X01445Y00295D02*
D01*
D01*
G75*
G03X0147Y0027I00025J0D01*
G74*G01*
X01445Y00295D02*
D01*
D01*
G75*
G03X0147Y0027I00025J0D01*
G74*G01*
X01445Y00295D02*
D01*
D01*
G75*
G03X0147Y0027I00025J0D01*
G74*G01*
X00545Y00174D02*
D01*
D01*
G75*
G03X00595Y00245I-00025J00070D01*
G74*G01*
X0328Y01659D02*
Y01705D01*
X03295Y01639D02*
Y01705D01*
X03265Y01668D02*
Y01705D01*
X03273Y01665D02*
X03295D01*
X03289Y0165D02*
X03295D01*
X03197Y0168D02*
X03295D01*
X0325Y01672D02*
Y01705D01*
X03235Y01671D02*
Y01705D01*
X0322Y01666D02*
Y01705D01*
X03205Y01671D02*
Y01705D01*
X03212Y01665D02*
X03218D01*
X0319Y01686D02*
Y01705D01*
X03295Y01539D02*
Y01601D01*
X03288Y0159D02*
X03295D01*
X0328Y0156D02*
X03295D01*
X03272Y01575D02*
X03295D01*
X0328Y01559D02*
Y01581D01*
X03284Y01485D02*
X03295D01*
Y01439D02*
Y01501D01*
X0328Y01459D02*
Y01481D01*
X03175Y01698D02*
Y01705D01*
X0316Y01701D02*
Y01705D01*
X03145Y01701D02*
Y01705D01*
X0313Y01701D02*
Y01705D01*
X03115Y01701D02*
Y01705D01*
X031Y01701D02*
Y01705D01*
X03085Y01701D02*
Y01705D01*
X0307Y01701D02*
Y01705D01*
X03055Y01701D02*
Y01705D01*
X0304Y01701D02*
Y01705D01*
X03025Y01701D02*
Y01705D01*
X0301Y01701D02*
Y01705D01*
X02995Y01701D02*
Y01705D01*
X03181Y01695D02*
X03295D01*
X03183Y01693D02*
X03213Y01663D01*
X02875Y01701D02*
X03165D01*
X0298D02*
Y01705D01*
X02965Y01701D02*
Y01705D01*
X0295Y01701D02*
Y01705D01*
X02935Y01701D02*
Y01705D01*
X0292Y01701D02*
Y01705D01*
X02905Y01701D02*
Y01705D01*
X03262Y0147D02*
X03295D01*
X03285Y01455D02*
X03295D01*
X03279Y0138D02*
X03295D01*
X03273Y01365D02*
X03295D01*
X0328Y01359D02*
Y01381D01*
X03295Y01339D02*
Y01401D01*
X03289Y0135D02*
X03295D01*
X03288Y0129D02*
X03295D01*
X03272Y01275D02*
X03295D01*
X03195Y0126D02*
X03295D01*
X0318Y01245D02*
X03295D01*
X03165Y0123D02*
X03295D01*
X0315Y01215D02*
X03295D01*
X03135Y012D02*
X03295D01*
X0321Y01275D02*
X03219D01*
X0312Y01185D02*
X03295D01*
X03105Y0117D02*
X03295D01*
X03097Y01125D02*
X03295D01*
X03096Y0111D02*
X03295D01*
X03093Y0114D02*
X03295D01*
X0292Y01266D02*
Y01273D01*
X03087Y01152D02*
X03212Y01277D01*
X0309Y01155D02*
X03295D01*
X02393Y0117D02*
X02928D01*
X02393Y01275D02*
X02918D01*
X02905Y01255D02*
Y01285D01*
X02393Y0126D02*
X0291D01*
X0292Y01166D02*
Y01173D01*
X02905Y01155D02*
Y01185D01*
X02393Y01185D02*
X02906D01*
X03091Y01095D02*
X03295D01*
X03078Y0108D02*
X03295D01*
X03088Y0105D02*
X03295D01*
X03095Y01035D02*
X03295D01*
X03072Y01065D02*
X03295D01*
X02393Y01155D02*
X02905D01*
X0307Y01065D02*
Y01074D01*
X03085Y01053D02*
Y01087D01*
X0292Y01066D02*
Y01073D01*
X0289Y01701D02*
Y01705D01*
X02875Y01701D02*
Y01705D01*
X0286Y01697D02*
Y01705D01*
X02845Y01682D02*
Y01705D01*
X0283Y01671D02*
Y01705D01*
X02815Y01671D02*
Y01705D01*
X028Y01671D02*
Y01705D01*
X02785Y01671D02*
Y01705D01*
X0277Y01671D02*
Y01705D01*
X02755Y01671D02*
Y01705D01*
X0274Y01671D02*
Y01705D01*
X02725Y01671D02*
Y01705D01*
X0271Y01671D02*
Y01705D01*
X02695Y01671D02*
Y01705D01*
X0268Y01671D02*
Y01705D01*
X02665Y01671D02*
Y01705D01*
X0265Y01671D02*
Y01705D01*
X02635Y01671D02*
Y01705D01*
X0262Y01671D02*
Y01705D01*
X02605Y01671D02*
Y01705D01*
X0259Y01671D02*
Y01705D01*
X02575Y01671D02*
Y01705D01*
X0256Y01671D02*
Y01705D01*
X02545Y01671D02*
Y01705D01*
X0253Y01671D02*
Y01705D01*
X02515Y01671D02*
Y01705D01*
X025Y01671D02*
Y01705D01*
X02485Y01671D02*
Y01705D01*
X0247Y01671D02*
Y01705D01*
X02455Y01671D02*
Y01705D01*
X0244Y01671D02*
Y01705D01*
X02425Y01671D02*
Y01705D01*
X0241Y01671D02*
Y01705D01*
X02395Y01671D02*
Y01705D01*
X0238Y01671D02*
Y01705D01*
X02365Y01671D02*
Y01705D01*
X0235Y01671D02*
Y01705D01*
X02335Y01671D02*
Y01705D01*
X0232Y01671D02*
Y01705D01*
X02305Y01671D02*
Y01705D01*
X0229Y01671D02*
Y01705D01*
X02275Y01671D02*
Y01705D01*
X0226Y01671D02*
Y01705D01*
X02245Y01671D02*
Y01705D01*
X0223Y01671D02*
Y01705D01*
X02215Y01671D02*
Y01705D01*
X022Y01671D02*
Y01705D01*
X02185Y01671D02*
Y01705D01*
X02834Y01671D02*
X02856Y01693D01*
X02393Y0141D02*
X02793D01*
X02393Y01395D02*
X02808D01*
X02393Y0138D02*
X02823D01*
X02395Y01463D02*
Y01474D01*
X02397Y01455D02*
X02748D01*
X02392Y0147D02*
X02733D01*
X02394Y0144D02*
X02763D01*
X02393Y01425D02*
X02778D01*
X0287Y01344D02*
X02898D01*
X02393Y01335D02*
X02894D01*
X02397Y01125D02*
X02892D01*
X02905Y01055D02*
Y01085D01*
X02395Y0111D02*
X02893D01*
X02729Y01474D02*
X02851Y01351D01*
X02395Y01132D02*
Y01442D01*
X02393Y01138D02*
Y01437D01*
Y01365D02*
X02838D01*
X02393Y0135D02*
X02853D01*
X02393Y0132D02*
X02892D01*
X02393Y01305D02*
X02894D01*
X02389Y01474D02*
X02729D01*
X02393Y0129D02*
X02902D01*
X02393Y01245D02*
X02898D01*
X02393Y0123D02*
X02893D01*
X02247Y01274D02*
Y01452D01*
X02175Y0129D02*
X02247D01*
X02245Y01272D02*
Y01453D01*
X02173Y01275D02*
X02247D01*
X02393Y01215D02*
X02892D01*
X02393Y012D02*
X02896D01*
X02393Y0114D02*
X02896D01*
X0238Y01095D02*
X02898D01*
X02275Y0122D02*
Y01227D01*
X02305Y01174D02*
Y01179D01*
X03097Y0102D02*
X03295D01*
X03095Y01005D02*
X03295D01*
X03091Y00945D02*
X03295D01*
X03096Y0093D02*
X03295D01*
X03097Y00915D02*
X03295D01*
X03093Y009D02*
X03295D01*
Y0077D02*
Y01301D01*
X0328Y0077D02*
Y01281D01*
X03093Y0084D02*
X03295D01*
X03097Y00825D02*
X03295D01*
X03096Y0081D02*
X03295D01*
X03091Y00795D02*
X03295D01*
X03265Y0077D02*
Y01271D01*
X03235Y0077D02*
Y01268D01*
X0322Y0077D02*
Y01274D01*
X0325Y0077D02*
Y01268D01*
X03205Y0077D02*
Y0127D01*
X0319Y0077D02*
Y01255D01*
X03175Y0077D02*
Y0124D01*
X0316Y0077D02*
Y01225D01*
X03145Y0077D02*
Y0121D01*
X0313Y0077D02*
Y01195D01*
X03115Y0077D02*
Y0118D01*
X031Y0077D02*
Y01165D01*
X03087Y0099D02*
X03295D01*
X03079Y0096D02*
X03295D01*
X03083Y00885D02*
X03295D01*
X03071Y00975D02*
X03295D01*
X02905Y00955D02*
Y00985D01*
X03085Y00953D02*
Y00987D01*
X0307Y00965D02*
Y00974D01*
X0292Y00966D02*
Y00973D01*
X03085Y00853D02*
Y00887D01*
X03061Y0087D02*
X03295D01*
X03084Y00855D02*
X03295D01*
X0307Y00865D02*
Y00874D01*
X02905Y00855D02*
Y00885D01*
X0292Y00866D02*
Y00873D01*
X03085Y0077D02*
Y00787D01*
X03078Y0078D02*
X03295D01*
X0307Y0077D02*
Y00774D01*
X0292Y00766D02*
Y00773D01*
X03061Y0077D02*
X03295D01*
X02905Y00755D02*
Y00785D01*
X0292Y00666D02*
Y00673D01*
X02905Y00655D02*
Y00685D01*
X0292Y00566D02*
Y00573D01*
X02905Y00555D02*
Y00585D01*
X02847Y00645D02*
X02898D01*
X0292Y00366D02*
Y00373D01*
X02905Y00455D02*
Y00465D01*
Y00355D02*
Y00385D01*
X0287Y00345D02*
X02898D01*
X02885Y0033D02*
X02893D01*
X02855Y0036D02*
X0291D01*
X02822Y0069D02*
X02902D01*
X02838Y00675D02*
X02918D01*
X0244Y0075D02*
X02901D01*
X02845Y0066D02*
X0291D01*
X02685Y0057D02*
X02928D01*
X0267Y00585D02*
X02906D01*
X0247Y0072D02*
X02892D01*
X02485Y00705D02*
X02894D01*
X02455Y00735D02*
X02894D01*
X02845Y0063D02*
X02893D01*
X02837Y00615D02*
X02892D01*
X02821Y006D02*
X02896D01*
X0279Y00465D02*
X02917D01*
X0279Y00465D02*
X02915D01*
X027Y00555D02*
X02905D01*
X0283Y0039D02*
X02902D01*
X0284Y00375D02*
X02918D01*
X02805Y0045D02*
X02901D01*
X0273Y00525D02*
X02892D01*
X0274Y00515D02*
X02892D01*
X02715Y0054D02*
X02896D01*
X0283Y0042D02*
X02892D01*
X0283Y00405D02*
X02894D01*
X0282Y00435D02*
X02894D01*
X02785Y00697D02*
Y01417D01*
X0277Y00691D02*
Y01432D01*
X02755Y0068D02*
Y01447D01*
X02815Y00693D02*
Y01387D01*
X0283Y00683D02*
Y01372D01*
X028Y00697D02*
Y01402D01*
X02635Y00702D02*
Y01474D01*
X0265Y00694D02*
Y01474D01*
X0262Y00704D02*
Y01474D01*
X02605Y00702D02*
Y01474D01*
X0259Y00695D02*
Y01474D01*
X02575Y0068D02*
Y01474D01*
X02845Y00658D02*
Y01357D01*
X0274Y00515D02*
Y01462D01*
X02725Y00529D02*
Y01474D01*
X0289Y00515D02*
Y01344D01*
X02875Y00515D02*
Y01344D01*
X0286Y00515D02*
Y01345D01*
X02695Y00559D02*
Y01474D01*
X0271Y00544D02*
Y01474D01*
X0268Y00574D02*
Y01474D01*
X02665Y00677D02*
Y01474D01*
X0256Y00629D02*
Y01474D01*
X02545Y00644D02*
Y01474D01*
X02425Y0075D02*
Y01474D01*
X0241Y0075D02*
Y01474D01*
X02395Y0075D02*
Y01112D01*
X0238Y0075D02*
Y01095D01*
X02365Y0075D02*
Y01092D01*
X0235Y0075D02*
Y01096D01*
X0229Y0075D02*
Y01182D01*
X02275Y0075D02*
Y01198D01*
X0226Y0075D02*
Y01229D01*
X02335Y0075D02*
Y01134D01*
X0232Y0075D02*
Y01138D01*
X02305Y0075D02*
Y01156D01*
X02515Y00674D02*
Y01474D01*
X0253Y00659D02*
Y01474D01*
X025Y00689D02*
Y01474D01*
X0247Y00719D02*
Y01474D01*
X02485Y00704D02*
Y01474D01*
X02455Y00734D02*
Y01474D01*
X0223Y0075D02*
Y01474D01*
X0244Y00749D02*
Y01474D01*
X02215Y0075D02*
Y01474D01*
X02245Y0075D02*
Y01243D01*
X022Y0075D02*
Y01474D01*
X02185Y0075D02*
Y01474D01*
X02845Y00515D02*
Y00632D01*
X0283Y00515D02*
Y00607D01*
X02815Y00515D02*
Y00597D01*
X028Y00515D02*
Y00593D01*
X02785Y00515D02*
Y00593D01*
X02671Y0066D02*
X02744D01*
X02672Y00645D02*
X02742D01*
X02667Y00675D02*
X02751D01*
X02667Y0063D02*
X02744D01*
X0277Y00515D02*
Y00598D01*
X02665Y00589D02*
Y00626D01*
X02875Y00339D02*
Y00465D01*
X0289Y00324D02*
Y00465D01*
X0286Y00354D02*
Y00465D01*
X02845Y00369D02*
Y00465D01*
X02835Y0038D02*
X02892Y00322D01*
X0283Y00385D02*
X02835Y0038D01*
X0279Y00465D02*
X0283Y00425D01*
X0283Y00384D02*
Y00465D01*
X02755Y00515D02*
Y0061D01*
X02815Y00439D02*
Y00465D01*
X0283Y00385D02*
Y00425D01*
X028Y00454D02*
Y00465D01*
X02656Y0069D02*
X02767D01*
X025D02*
X02583D01*
X02657Y00615D02*
X02752D01*
X0253Y0066D02*
X02568D01*
X02545Y00645D02*
X02567D01*
X02515Y00675D02*
X02572D01*
X02575Y00614D02*
Y00623D01*
X02575Y00615D02*
X02582D01*
X0256Y0063D02*
X02572D01*
X02655Y006D02*
X02665Y0059D01*
X02655Y006D02*
X02768D01*
X02665Y0059D02*
X0274Y00515D01*
X02629Y006D02*
X02655D01*
X0265D02*
Y00609D01*
X0244Y0075D02*
X0259Y006D01*
X0259D02*
Y00608D01*
X0259Y006D02*
X0261D01*
X0217Y01671D02*
Y01705D01*
X02155Y01671D02*
Y01705D01*
X0214Y01671D02*
Y01705D01*
X02125Y01671D02*
Y01705D01*
X0211Y01671D02*
Y01705D01*
X02095Y01671D02*
Y01705D01*
X0208Y01671D02*
Y01705D01*
X02065Y01671D02*
Y01705D01*
X0205Y01671D02*
Y01705D01*
X02035Y01671D02*
Y01705D01*
X0202Y01671D02*
Y01705D01*
X02005Y01671D02*
Y01705D01*
X0199Y01671D02*
Y01705D01*
X01975Y01671D02*
Y01705D01*
X0196Y01671D02*
Y01705D01*
X01945Y01671D02*
Y01705D01*
X0193Y01671D02*
Y01705D01*
X01915Y01671D02*
Y01705D01*
X019Y01671D02*
Y01705D01*
X01885Y01671D02*
Y01705D01*
X0187Y01671D02*
Y01705D01*
X019Y01571D02*
Y01579D01*
X01885Y01571D02*
Y01579D01*
X01855Y01671D02*
Y01705D01*
X0184Y01671D02*
Y01705D01*
X00995D02*
X03295D01*
X00995Y01695D02*
X02858D01*
X01825Y01671D02*
Y01705D01*
X00995Y0168D02*
X02842D01*
X0181Y01671D02*
Y01705D01*
X01795Y01671D02*
Y01705D01*
X0178Y01671D02*
Y01705D01*
X01765Y01671D02*
Y01705D01*
X0175Y01671D02*
Y01705D01*
X01705Y01675D02*
Y01705D01*
X01725Y01671D02*
X02834D01*
X0187Y01571D02*
Y01579D01*
X015D02*
X01905D01*
X01855Y01571D02*
Y01579D01*
X0184Y01571D02*
Y01579D01*
X01825Y01571D02*
Y01579D01*
X01735Y01671D02*
Y01705D01*
X0172Y01673D02*
Y01705D01*
X0169Y01669D02*
Y01705D01*
X0181Y01571D02*
Y01579D01*
X01795Y01571D02*
Y01579D01*
X02172Y01455D02*
X02245D01*
X02169Y0144D02*
X02247D01*
X02164Y01474D02*
X02243D01*
X02168Y01425D02*
X02247D01*
X02168Y0141D02*
X02247D01*
X02168Y01395D02*
X02247D01*
X02167Y0147D02*
X02242D01*
X0217Y01463D02*
Y01474D01*
X02021Y01401D02*
Y01454D01*
X0202Y01399D02*
Y01456D01*
X02168Y0138D02*
X02247D01*
X02168Y01365D02*
X02247D01*
X02168Y0135D02*
X02247D01*
X02168Y01335D02*
X02247D01*
X02168Y0132D02*
X02247D01*
X02168Y01305D02*
X02247D01*
X02168Y01305D02*
Y01437D01*
X0217Y01301D02*
Y01442D01*
X01535Y01571D02*
X01907D01*
X01488Y01575D02*
X01906D01*
X01639Y01474D02*
X02017D01*
X01638Y0147D02*
X02017D01*
X01638Y01455D02*
X02021D01*
X0178Y01571D02*
Y01579D01*
X01765Y01571D02*
Y01579D01*
X0175Y01571D02*
Y01579D01*
X01735Y01571D02*
Y01579D01*
X0172Y01571D02*
Y01579D01*
X01705Y01571D02*
Y01579D01*
X01638Y0135D02*
X02049D01*
X01638Y01335D02*
X02053D01*
X01638Y0132D02*
X02076D01*
X01638Y01305D02*
X02079D01*
X01638Y0129D02*
X02087D01*
X01638Y01275D02*
X02116D01*
X01638Y0144D02*
X02021D01*
X01638Y01425D02*
X02021D01*
X01638Y0141D02*
X02021D01*
X01638Y01395D02*
X02019D01*
X01638Y0138D02*
X02021D01*
X01638Y01365D02*
X02032D01*
X01675Y01631D02*
Y01705D01*
X0166Y01631D02*
Y01705D01*
X01645Y01631D02*
Y01705D01*
X0163Y01631D02*
Y01705D01*
X01615Y01631D02*
Y01705D01*
X016Y01631D02*
Y01705D01*
X01585Y01631D02*
Y01705D01*
X0157Y01631D02*
Y01705D01*
X01555Y01631D02*
Y01705D01*
X0154Y01631D02*
Y01705D01*
X01525Y01631D02*
Y01705D01*
X0151Y01631D02*
Y01705D01*
X0169Y01571D02*
Y01579D01*
X01675Y01571D02*
Y01579D01*
X015Y01631D02*
X01682D01*
X0166Y01571D02*
Y01579D01*
X01645Y01571D02*
Y01579D01*
X0163Y01571D02*
Y01579D01*
X01615Y01571D02*
Y01579D01*
X016Y01571D02*
Y01579D01*
X01585Y01571D02*
Y01579D01*
X0157Y01571D02*
Y01579D01*
X01555Y01571D02*
Y01579D01*
X0154Y01571D02*
Y01579D01*
X0148Y01635D02*
Y01705D01*
X01495Y01633D02*
Y01705D01*
X00995Y01665D02*
X01686D01*
X01491Y01635D02*
X01681D01*
X00995Y0165D02*
X01679D01*
X00995Y01635D02*
X01478D01*
X01465Y01629D02*
Y01705D01*
X00995Y0162D02*
X01458D01*
X00995Y01605D02*
X01454D01*
X01465Y01519D02*
Y01581D01*
X00995Y0159D02*
X01458D01*
X0145Y01472D02*
Y01705D01*
X01435Y01472D02*
Y01705D01*
X0142Y01472D02*
Y01705D01*
X01405Y01472D02*
Y01705D01*
X0139Y01472D02*
Y01705D01*
X01375Y01472D02*
Y01705D01*
X0136Y01476D02*
Y01705D01*
X01345Y01475D02*
Y01705D01*
X0133Y01465D02*
Y01705D01*
X01315Y01465D02*
Y01705D01*
X013Y01458D02*
Y01705D01*
X00995Y01475D02*
Y01705D01*
X01525Y01569D02*
Y01579D01*
X0151Y01557D02*
Y01579D01*
X01477Y01524D02*
X01516Y01563D01*
X01495Y01542D02*
Y01576D01*
X0148Y01527D02*
Y01575D01*
X01455Y01472D02*
X0146Y01477D01*
X0137Y01472D02*
X01455D01*
X0133Y01311D02*
Y01322D01*
X01315Y01394D02*
Y01404D01*
X013Y01388D02*
Y01412D01*
X01322Y01395D02*
X01325D01*
X01315Y013D02*
Y01334D01*
X013Y01293D02*
Y0134D01*
X00995Y01575D02*
X01481D01*
X00995Y0156D02*
X01512D01*
X00995Y01545D02*
X01497D01*
X00995Y0153D02*
X01482D01*
X00995Y01515D02*
X01461D01*
X00995Y015D02*
X01454D01*
X00995Y01485D02*
X01456D01*
X00989Y0147D02*
X01335D01*
X0096Y0144D02*
X00995Y01475D01*
X00974Y01455D02*
X01297D01*
X0096Y0144D02*
X0129D01*
X0096Y01425D02*
X01292D01*
X0096Y0141D02*
X01303D01*
X0096Y01395D02*
X01317D01*
X0096Y01335D02*
X01312D01*
X0096Y0132D02*
X01332D01*
X0096Y01305D02*
X01327D01*
X0096Y0138D02*
X01293D01*
X0096Y01365D02*
X01289D01*
X0096Y0135D02*
X01293D01*
X0096Y0129D02*
X01296D01*
X0096Y01275D02*
X01289D01*
X02162Y0126D02*
X02242D01*
X0217Y0075D02*
Y01269D01*
X02155Y0075D02*
Y01256D01*
X0214Y0075D02*
Y01255D01*
X02125Y0075D02*
Y01261D01*
X02065Y0075D02*
Y01323D01*
X0205Y0075D02*
Y01341D01*
X02035Y0075D02*
Y01363D01*
X0211Y0075D02*
Y01279D01*
X02095Y0075D02*
Y01283D01*
X0208Y0075D02*
Y01301D01*
X02005Y0075D02*
Y01474D01*
X0199Y0075D02*
Y01474D01*
X01975Y0075D02*
Y01474D01*
X0202Y0075D02*
Y01381D01*
X0196Y0075D02*
Y01474D01*
X01945Y0075D02*
Y01474D01*
X0193Y0075D02*
Y01474D01*
X01915Y0075D02*
Y01474D01*
X019Y0075D02*
Y01474D01*
X01885Y0075D02*
Y01474D01*
X0187Y0075D02*
Y01474D01*
X01855Y0075D02*
Y01474D01*
X01638Y0123D02*
X0226D01*
X01638Y01215D02*
X02274D01*
X01638Y012D02*
X02275D01*
X01638Y01185D02*
X02286D01*
X01638Y0117D02*
X02304D01*
X01638Y01155D02*
X02306D01*
X0184Y0075D02*
Y01474D01*
X01825Y0075D02*
Y01474D01*
X01638Y01081D02*
Y01469D01*
Y0126D02*
X02127D01*
X01638Y01245D02*
X02245D01*
X01452Y01181D02*
X0154Y01093D01*
X0181Y0075D02*
Y01474D01*
X01795Y0075D02*
Y01474D01*
X0178Y0075D02*
Y01474D01*
X01765Y0075D02*
Y01474D01*
X0175Y0075D02*
Y01474D01*
X01735Y0075D02*
Y01474D01*
X0172Y0075D02*
Y01474D01*
X01705Y0075D02*
Y01474D01*
X0169Y0075D02*
Y01474D01*
X01675Y0075D02*
Y01474D01*
X0166Y0075D02*
Y01474D01*
X01645Y0075D02*
Y01474D01*
X01638Y01125D02*
X02336D01*
X01638Y0111D02*
X02339D01*
X01638Y01095D02*
X02354D01*
X01638Y0108D02*
X02911D01*
X0164Y01065D02*
X02917D01*
X01632Y0105D02*
X02901D01*
X01638Y0114D02*
X02317D01*
X01525Y01056D02*
Y01107D01*
X0154Y01071D02*
Y01091D01*
X0163Y0075D02*
Y01048D01*
X01615Y0075D02*
Y0104D01*
X016Y0075D02*
Y01041D01*
X01575Y01035D02*
X02894D01*
X0156Y0102D02*
X02892D01*
X01545Y01005D02*
X02894D01*
X01585Y0075D02*
Y01045D01*
X0157Y0075D02*
Y0103D01*
X01542Y01002D02*
X01588Y01048D01*
X01555Y0075D02*
Y01015D01*
X0154Y0075D02*
Y01001D01*
X01468Y0099D02*
X02902D01*
X0096Y00975D02*
X02918D01*
X0096Y0096D02*
X0291D01*
X0096Y00945D02*
X02898D01*
X0096Y0093D02*
X02893D01*
X0096Y00915D02*
X02892D01*
X0096Y01095D02*
X01538D01*
X01514Y01045D02*
X01548Y01078D01*
X0096Y0108D02*
X01547D01*
X01482Y00995D02*
X01525D01*
X0096Y01065D02*
X01534D01*
X0096Y00885D02*
X02906D01*
X0096Y0087D02*
X02928D01*
X0096Y00855D02*
X02905D01*
X0096Y00795D02*
X02898D01*
X0096Y0078D02*
X02911D01*
X0096Y00765D02*
X02917D01*
X0096Y009D02*
X02896D01*
X0096Y0084D02*
X02896D01*
X0096Y00825D02*
X02892D01*
X01485Y0075D02*
X0244D01*
X0096Y0081D02*
X02893D01*
X01436Y01196D02*
X01452Y01181D01*
X01435Y01029D02*
Y01196D01*
X01335D02*
X01436D01*
X01465Y0105D02*
Y01167D01*
X0148Y01046D02*
Y01152D01*
X0145Y01047D02*
Y01182D01*
X0142Y00686D02*
Y01196D01*
X01405Y00671D02*
Y01196D01*
X0139Y00656D02*
Y01196D01*
X01375Y00641D02*
Y01196D01*
X0136Y00431D02*
Y01196D01*
X013Y00425D02*
Y01199D01*
X01285Y00425D02*
Y01705D01*
X01345Y00425D02*
Y01196D01*
X0133Y00425D02*
Y01194D01*
X01315Y00425D02*
Y01192D01*
X0127Y00425D02*
Y01705D01*
X01255Y00425D02*
Y01705D01*
X0124Y00425D02*
Y01705D01*
X01225Y00425D02*
Y01705D01*
X0121Y00425D02*
Y01705D01*
X01195Y00425D02*
Y01705D01*
X0096Y0126D02*
X01291D01*
X0096Y01245D02*
X01299D01*
X0096Y012D02*
X01299D01*
X0096Y01185D02*
X01448D01*
X0096Y0117D02*
X01463D01*
X0096Y01155D02*
X01478D01*
X00985Y00529D02*
Y01466D01*
X01Y00514D02*
Y01705D01*
X0097Y00544D02*
Y01451D01*
X0096Y0123D02*
X0129D01*
X0096Y00555D02*
Y0144D01*
Y01215D02*
X0129D01*
X0118Y00425D02*
Y01705D01*
X01165Y00425D02*
Y01705D01*
X0115Y00425D02*
Y01705D01*
X01135Y00425D02*
Y01705D01*
X0112Y00425D02*
Y01705D01*
X01105Y00425D02*
Y01705D01*
X01075Y00439D02*
Y01705D01*
X0109Y00425D02*
Y01705D01*
X0106Y00454D02*
Y01705D01*
X0103Y00484D02*
Y01705D01*
X01045Y00469D02*
Y01705D01*
X01015Y00499D02*
Y01705D01*
X0151Y01045D02*
Y01122D01*
X01495Y01045D02*
Y01137D01*
X01471Y0105D02*
X01519D01*
X01525Y0075D02*
Y00995D01*
X0151Y0075D02*
Y00995D01*
X01482Y01045D02*
X01514D01*
X01495Y0075D02*
Y00995D01*
X01435Y00701D02*
Y01011D01*
X0148Y00746D02*
Y00994D01*
X01465Y00731D02*
Y00989D01*
X0145Y00716D02*
Y00993D01*
X0137Y00635D02*
X01485Y0075D01*
X0099Y00525D02*
X0137D01*
X00975Y0054D02*
X0137D01*
X0102Y00495D02*
X0137D01*
X01035Y0048D02*
X0137D01*
X01005Y0051D02*
X0137D01*
X01065Y0045D02*
X0137D01*
Y0044D02*
Y00635D01*
X0105Y00465D02*
X0137D01*
X01355Y00425D02*
X0137Y0044D01*
X0109Y00425D02*
X01355D01*
X0108Y00435D02*
X01364D01*
X0096Y0114D02*
X01493D01*
X0096Y01125D02*
X01508D01*
X0096Y0111D02*
X01523D01*
X0096Y0099D02*
X01461D01*
X0096Y0075D02*
X01484D01*
X0096Y00735D02*
X01469D01*
X0096Y0105D02*
X01458D01*
X0096Y01035D02*
X01438D01*
X0096Y0102D02*
X01434D01*
X0096Y01005D02*
X01438D01*
X0096Y0072D02*
X01454D01*
X0096Y00705D02*
X01439D01*
X0096Y0069D02*
X01424D01*
X0096Y00675D02*
X01409D01*
X0096Y0066D02*
X01394D01*
X0096Y00645D02*
X01379D01*
X0096Y0063D02*
X0137D01*
X0096Y00615D02*
X0137D01*
X0096Y006D02*
X0137D01*
X0096Y00585D02*
X0137D01*
X0096Y0057D02*
X0137D01*
X0096Y00555D02*
X0137D01*
X0096Y00555D02*
X0109Y00425D01*
X02624Y0054D02*
X02627D01*
X02625Y00542D02*
X0266Y00507D01*
X02615Y00525D02*
X02642D01*
X025Y0051D02*
X02657D01*
X02515Y00576D02*
Y0061D01*
X025Y00576D02*
Y00624D01*
X02485Y00573D02*
Y00639D01*
X02509Y00519D02*
X02584D01*
X02497Y00576D02*
X02515D01*
X0276Y00442D02*
X0279Y00412D01*
X0277Y00316D02*
Y00431D01*
X02725Y00442D02*
X0276D01*
X0279Y00322D02*
Y00412D01*
X02785Y00321D02*
Y00416D01*
X02702Y00465D02*
X02715Y00452D01*
X02485Y00495D02*
X02654D01*
X02755Y00304D02*
Y00442D01*
X02715Y00452D02*
X02725Y00442D01*
X0247Y00561D02*
Y00654D01*
X0243Y00695D02*
X02515Y0061D01*
X01973Y0057D02*
X02479D01*
X02455Y00546D02*
Y00669D01*
X0244Y00531D02*
Y00684D01*
X01993Y00555D02*
X02464D01*
X01995Y0054D02*
X02449D01*
X01995Y00525D02*
X02434D01*
X02455Y00465D02*
X02667D01*
X0244Y0045D02*
X02717D01*
X02425Y00435D02*
X02767D01*
X0241Y0042D02*
X02782D01*
X02395Y00405D02*
X0279D01*
X02425Y00516D02*
Y00695D01*
X02304Y00395D02*
X02477Y00567D01*
X0247Y0048D02*
X02656D01*
X02355Y00365D02*
X02509Y00519D01*
X03284Y00285D02*
X03295D01*
X03261Y0027D02*
X03295D01*
X03161D02*
X0323D01*
X03194Y003D02*
X03197D01*
X03184Y00285D02*
X03207D01*
X03093Y003D02*
X03097D01*
X0325Y00239D02*
Y00268D01*
X03265Y00233D02*
Y00271D01*
X03235Y00242D02*
Y00268D01*
X03279Y00225D02*
X03295D01*
X03249Y0024D02*
X03295D01*
X03205Y0024D02*
Y00286D01*
X0319Y00235D02*
Y00293D01*
X0322Y00242D02*
Y00274D01*
X03175Y00227D02*
Y00277D01*
X0238Y0039D02*
X0279D01*
X02365Y00375D02*
X0279D01*
X02353Y0036D02*
X0279D01*
X03083Y00285D02*
X03107D01*
X02342Y00345D02*
X0279D01*
X0213Y0033D02*
X0279D01*
X0213Y00315D02*
X02768D01*
X0213Y003D02*
X02752D01*
X0213Y00285D02*
X02745D01*
X0307Y00265D02*
Y00274D01*
X03085Y00253D02*
Y00287D01*
X0307Y0027D02*
X0313D01*
X03093Y0024D02*
X03204D01*
X03084Y00255D02*
X03295D01*
X0307Y00266D02*
Y00274D01*
X0213Y0027D02*
X02743D01*
X0213Y00255D02*
X02745D01*
X0213Y0024D02*
X02753D01*
X0241Y00501D02*
Y00695D01*
X02395Y00486D02*
Y00695D01*
X02125Y00486D02*
Y00695D01*
X0211Y00501D02*
Y00695D01*
X02095Y00505D02*
Y00695D01*
X0208Y00502D02*
Y00695D01*
X02065Y00489D02*
Y00695D01*
X01995Y0053D02*
Y00545D01*
Y0052D02*
Y00545D01*
Y0052D02*
Y00545D01*
X0238Y00471D02*
Y00695D01*
X02365Y00456D02*
Y00695D01*
X0235Y00441D02*
Y00695D01*
X02335Y00426D02*
Y00695D01*
X0232Y00411D02*
Y00695D01*
X02305Y00396D02*
Y00695D01*
X01995Y0042D02*
Y0052D01*
Y0042D02*
Y0052D01*
X01975Y00569D02*
Y00695D01*
X0196Y0057D02*
Y00695D01*
X01945Y0057D02*
Y00695D01*
X0193Y0057D02*
Y00695D01*
X01845Y0057D02*
X0197D01*
X01915D02*
Y00695D01*
X019Y0057D02*
Y00695D01*
X01885Y0057D02*
Y00695D01*
X0187Y0057D02*
Y00695D01*
X01855Y0057D02*
Y00695D01*
X01995Y0051D02*
X02419D01*
X0199Y00558D02*
Y00695D01*
X0184Y0057D02*
Y00695D01*
X01845Y0057D02*
X0197D01*
X02128Y0048D02*
X02389D01*
X0213Y00465D02*
X02374D01*
X02119Y00495D02*
X02404D01*
X0213Y0045D02*
X02359D01*
X0213Y00435D02*
X02344D01*
X01995Y00495D02*
X0207D01*
X01995Y0048D02*
X02061D01*
X01995Y00465D02*
X0206D01*
X01995Y0045D02*
X0206D01*
X0213Y0042D02*
X02329D01*
X0213Y00405D02*
X02314D01*
X0213Y00345D02*
X02307D01*
X0213Y0039D02*
X023D01*
X0213Y00375D02*
X02294D01*
X0213Y0036D02*
X02296D01*
X01995Y00435D02*
X0206D01*
X01995Y0042D02*
X0206D01*
X01995Y00405D02*
X0206D01*
X01995Y0039D02*
X0206D01*
X01995Y00375D02*
X0206D01*
X01995Y0036D02*
X0206D01*
X01995Y00345D02*
X0206D01*
X01995Y0033D02*
X0206D01*
X01995Y00315D02*
X0206D01*
X01995Y003D02*
X0206D01*
X01995Y00295D02*
Y0042D01*
Y00295D02*
Y0042D01*
X01992Y00285D02*
X0206D01*
X01845Y0027D02*
X0197D01*
X01845D02*
X0197D01*
X0328Y00223D02*
Y00281D01*
X03295Y00209D02*
Y00301D01*
X0316Y00215D02*
Y00269D01*
X03097Y00225D02*
X03172D01*
X03096Y0021D02*
X03156D01*
X03145Y00193D02*
Y00267D01*
X03091Y00195D02*
X03146D01*
X02991D02*
X02998D01*
X0313Y00025D02*
Y00269D01*
X03115Y00025D02*
Y00277D01*
X031Y00025D02*
Y00293D01*
X03078Y0018D02*
X0314D01*
X02995Y00025D02*
Y00201D01*
X03085Y00025D02*
Y00187D01*
X0301Y00025D02*
Y0018D01*
X0284Y0022D02*
X02892D01*
X02845Y00184D02*
Y0022D01*
X02829Y0023D02*
X0284Y0022D01*
X02842Y00195D02*
X02898D01*
X02831Y0021D02*
X02893D01*
X0283Y0021D02*
Y00229D01*
X02822Y00225D02*
X02835D01*
X0277Y00218D02*
Y00224D01*
X02905Y00025D02*
Y00185D01*
X0289Y00025D02*
Y0022D01*
X0298Y00025D02*
Y00182D01*
X02978Y0018D02*
X03011D01*
X02875Y00025D02*
Y0022D01*
X0286Y00025D02*
Y0022D01*
X03295Y00025D02*
Y00105D01*
X0328Y00025D02*
Y00091D01*
X03279Y0009D02*
X03295D01*
X03249Y00075D02*
X03295D01*
X03265Y00025D02*
Y00081D01*
X0325Y00025D02*
Y00075D01*
X03205Y00025D02*
Y00072D01*
X03235Y00025D02*
Y00071D01*
X0322Y00025D02*
Y0007D01*
X0316Y00025D02*
Y00097D01*
X03145Y00025D02*
Y00119D01*
X0307Y00025D02*
Y00174D01*
X0319Y00025D02*
Y00077D01*
X03175Y00025D02*
Y00084D01*
X03025Y00025D02*
Y00171D01*
X02965Y00025D02*
Y00172D01*
X03055Y00025D02*
Y00168D01*
X0304Y00025D02*
Y00167D01*
X02847Y00165D02*
X03137D01*
X02842Y0015D02*
X03137D01*
X02832Y00135D02*
X0314D01*
X02802Y0012D02*
X03145D01*
X02128Y00105D02*
X03154D01*
X02846Y0018D02*
X02911D01*
X02141Y0012D02*
X02787D01*
X0295Y00025D02*
Y00168D01*
X02935Y00025D02*
Y00168D01*
X0292Y00025D02*
Y00173D01*
X02845Y00025D02*
Y00159D01*
X0283Y00025D02*
Y00133D01*
X02815Y00025D02*
Y00123D01*
X0277Y00025D02*
Y00125D01*
X028Y00025D02*
Y00119D01*
X02785Y00025D02*
Y0012D01*
X0271Y00025D02*
Y00456D01*
X02695Y00025D02*
Y00461D01*
X0268Y00025D02*
Y0046D01*
X0274Y00025D02*
Y00442D01*
X02725Y00025D02*
Y00442D01*
X02635Y00025D02*
Y00531D01*
X0262Y00025D02*
Y00531D01*
X02605Y00025D02*
Y00519D01*
X02665Y00025D02*
Y00466D01*
X0265Y00025D02*
Y00516D01*
X02575Y00025D02*
Y00519D01*
X0256Y00025D02*
Y00519D01*
X02545Y00025D02*
Y00519D01*
X0259Y00025D02*
Y00517D01*
X0253Y00025D02*
Y00519D01*
X02515Y00025D02*
Y00519D01*
X025Y00025D02*
Y0051D01*
X02485Y00025D02*
Y00495D01*
X0247Y00025D02*
Y0048D01*
X0229Y00025D02*
Y00695D01*
X02275Y00025D02*
Y00695D01*
X0226Y00025D02*
Y00695D01*
X02455Y00025D02*
Y00465D01*
X0244Y00025D02*
Y0045D01*
X0214Y0017D02*
Y00695D01*
X02245Y00025D02*
Y00695D01*
X0205Y00173D02*
Y00695D01*
X0213Y00184D02*
Y0047D01*
X0206Y00184D02*
Y0047D01*
X0223Y00025D02*
Y00695D01*
X02215Y00025D02*
Y00695D01*
X022Y00025D02*
Y00695D01*
X02185Y00025D02*
Y00695D01*
X0217Y00025D02*
Y00695D01*
X02155Y00025D02*
Y00695D01*
X02035Y00025D02*
Y00695D01*
X0202Y00025D02*
Y00695D01*
X02005Y00025D02*
Y00695D01*
X0213Y00225D02*
X02769D01*
X02755Y00207D02*
Y00236D01*
X0213Y0021D02*
X02758D01*
X02755Y00025D02*
Y00136D01*
X02146Y00135D02*
X02757D01*
X02134Y0018D02*
X02743D01*
X02425Y00025D02*
Y00435D01*
X0213Y00195D02*
X02747D01*
X02147Y0015D02*
X02747D01*
X02143Y00165D02*
X02742D01*
X0241Y00025D02*
Y0042D01*
X02395Y00025D02*
Y00405D01*
X0238Y00025D02*
Y0039D01*
X02365Y00025D02*
Y00375D01*
X0235Y00025D02*
Y00354D01*
X02335Y00025D02*
Y00341D01*
X02305Y00025D02*
Y00346D01*
X0232Y00025D02*
Y0034D01*
X0214Y00025D02*
Y00119D01*
X02125Y00025D02*
Y00102D01*
X0211Y00025D02*
Y00095D01*
X02095Y00025D02*
Y00092D01*
X0205Y00025D02*
Y00116D01*
X0199Y00025D02*
Y00281D01*
X01975Y00025D02*
Y00271D01*
X0208Y00025D02*
Y00094D01*
X02065Y00025D02*
Y00101D01*
X0196Y00025D02*
Y0027D01*
X01945Y00025D02*
Y0027D01*
X0193Y00025D02*
Y0027D01*
X01915Y00025D02*
Y0027D01*
X019Y00025D02*
Y0027D01*
X01885Y00025D02*
Y0027D01*
X0187Y00025D02*
Y0027D01*
X01855Y00025D02*
Y0027D01*
X0184Y00025D02*
Y0027D01*
X01505Y00695D02*
X0243D01*
X01825Y0057D02*
Y00695D01*
X00875Y01705D02*
X0094D01*
X0181Y0057D02*
Y00695D01*
X01795Y0057D02*
Y00695D01*
X0094Y01495D02*
Y01705D01*
X00925Y01481D02*
Y01705D01*
X0091Y01466D02*
Y01705D01*
X00895Y01451D02*
Y01705D01*
X00895Y0145D02*
X0094Y01495D01*
X0178Y0057D02*
Y00695D01*
X01765Y0057D02*
Y00695D01*
X0175Y0057D02*
Y00695D01*
X01735Y0057D02*
Y00695D01*
X0172Y0057D02*
Y00695D01*
X01705Y0057D02*
Y00695D01*
X0169Y0057D02*
Y00695D01*
X01675Y0057D02*
Y00695D01*
X0166Y0057D02*
Y00695D01*
X00865Y01695D02*
X0094D01*
X0085Y0168D02*
X0094D01*
X00834Y01665D02*
X0094D01*
X00545Y0165D02*
X0094D01*
X00545Y01635D02*
X0094D01*
X00545Y0162D02*
X0094D01*
X00545Y01605D02*
X0094D01*
X00545Y0159D02*
X0094D01*
X00545Y01575D02*
X0094D01*
X00545Y0156D02*
X0094D01*
X00565Y0153D02*
X0094D01*
X0058Y01515D02*
X0094D01*
X00545Y01545D02*
X0094D01*
X00593Y01485D02*
X00929D01*
X00588Y015D02*
X0094D01*
X00595Y0147D02*
X00914D01*
X00595Y01455D02*
X00899D01*
X00595Y0144D02*
X00895D01*
X00595Y01425D02*
X00895D01*
X01499Y0069D02*
X02435D01*
X01484Y00675D02*
X0245D01*
X01469Y0066D02*
X02465D01*
X0172Y0057D02*
X01845D01*
X0172D02*
X01845D01*
X01645D02*
Y00695D01*
X0163Y0057D02*
Y00695D01*
X01615Y0057D02*
Y00695D01*
X016Y0057D02*
Y00695D01*
X01595Y0057D02*
X0172D01*
X01585D02*
Y00695D01*
X0157Y0057D02*
Y00695D01*
X01555Y0057D02*
Y00695D01*
X01595Y0057D02*
X0172D01*
X0154D02*
Y00695D01*
X01525Y0057D02*
Y00695D01*
X0151Y0057D02*
Y00695D01*
X01495Y0057D02*
Y00686D01*
X0148Y0057D02*
Y00671D01*
X01454Y00645D02*
X0248D01*
X01439Y0063D02*
X02495D01*
X01424Y00615D02*
X0251D01*
X0142Y006D02*
X02515D01*
X0142Y00585D02*
X02515D01*
X0147Y0057D02*
X01595D01*
X01465Y00569D02*
Y00656D01*
X0142Y0061D02*
X01505Y00695D01*
X0147Y0057D02*
X01595D01*
X0142Y0057D02*
X01466D01*
X0145Y00561D02*
Y00641D01*
X0142Y00555D02*
X01446D01*
X0142Y0054D02*
X01445D01*
X0142Y00525D02*
X01445D01*
X00595D02*
X0091D01*
X00837Y01667D02*
X00875Y01705D01*
X00595Y0141D02*
X00895D01*
X00595Y01395D02*
X00895D01*
X00595Y0138D02*
X00895D01*
X00595Y01365D02*
X00895D01*
X0062Y0166D02*
X0082D01*
X00595Y0135D02*
X00895D01*
X00595Y01335D02*
X00895D01*
X00595Y0132D02*
X00895D01*
X00595Y01305D02*
X00895D01*
X00595Y0129D02*
X00895D01*
Y0054D02*
Y0145D01*
X00595Y01275D02*
X00895D01*
X00595Y0126D02*
X00895D01*
X00595Y01245D02*
X00895D01*
X00564Y01705D02*
X00602Y01667D01*
X0058Y01514D02*
Y01688D01*
X00545Y0168D02*
X00589D01*
X00545Y01665D02*
X00605D01*
X00545Y01705D02*
X00564Y01705D01*
X0055Y01538D02*
Y01705D01*
X00545Y01541D02*
Y01705D01*
X00565Y01529D02*
Y01703D01*
X00545Y01695D02*
X00574D01*
X00595Y0123D02*
X00895D01*
X00595Y01215D02*
X00895D01*
X00595Y012D02*
X00895D01*
X00595Y01185D02*
X00895D01*
X00595Y0117D02*
X00895D01*
X00595Y01155D02*
X00895D01*
X00595Y0114D02*
X00895D01*
X00595Y01125D02*
X00895D01*
X00595Y0111D02*
X00895D01*
X00595Y01095D02*
X00895D01*
X00595Y0108D02*
X00895D01*
X00595Y01065D02*
X00895D01*
X00595Y0105D02*
X00895D01*
X00595Y01035D02*
X00895D01*
X00595Y0102D02*
X00895D01*
X00595Y01005D02*
X00895D01*
X00595Y0099D02*
X00895D01*
X00595Y00975D02*
X00895D01*
X00595Y0096D02*
X00895D01*
X00595Y00945D02*
X00895D01*
X00595Y0093D02*
X00895D01*
X00595Y00915D02*
X00895D01*
X00595Y009D02*
X00895D01*
X00595Y00885D02*
X00895D01*
X00595Y0087D02*
X00895D01*
X00595Y00855D02*
X00895D01*
X00595Y0084D02*
X00895D01*
X00595Y00825D02*
X00895D01*
X00595Y0081D02*
X00895D01*
X00595Y00795D02*
X00895D01*
X00595Y0078D02*
X00895D01*
X00595Y00765D02*
X00895D01*
X00595Y0075D02*
X00895D01*
X00595Y00735D02*
X00895D01*
X00595Y0072D02*
X00895D01*
X00595Y00705D02*
X00895D01*
X00595Y0069D02*
X00895D01*
X00595Y00675D02*
X00895D01*
X00595Y0066D02*
X00895D01*
X00595Y00645D02*
X00895D01*
X00595Y0063D02*
X00895D01*
X00595Y00615D02*
X00895D01*
X00595Y006D02*
X00895D01*
X00595Y00585D02*
X00895D01*
X00595Y0057D02*
X00895D01*
X00595Y00555D02*
X00895D01*
X00595Y0054D02*
X00895D01*
X01445Y0052D02*
Y00545D01*
X0172Y0027D02*
X01845D01*
X0172D02*
X01845D01*
X01445Y0052D02*
Y00545D01*
Y0042D02*
Y0052D01*
Y0042D02*
Y0052D01*
Y00295D02*
Y0042D01*
Y00295D02*
Y0042D01*
X01825Y00025D02*
Y0027D01*
X0181Y00025D02*
Y0027D01*
X01795Y00025D02*
Y0027D01*
X0178Y00025D02*
Y0027D01*
X01765Y00025D02*
Y0027D01*
X01465Y00025D02*
Y0027D01*
X0145Y00025D02*
Y00279D01*
X0175Y00025D02*
Y0027D01*
X01735Y00025D02*
Y0027D01*
X0142Y0051D02*
X01445D01*
X0142Y00495D02*
X01445D01*
X0142Y0048D02*
X01445D01*
X0142Y00465D02*
X01445D01*
X0142Y0045D02*
X01445D01*
X0142Y00435D02*
X01445D01*
X0142Y0042D02*
X01445D01*
X0142Y00405D02*
X01445D01*
X01419Y0039D02*
X01445D01*
X00595Y00375D02*
X01445D01*
X00595Y0036D02*
X01445D01*
X00595Y00285D02*
X01447D01*
X00595Y0027D02*
X0206D01*
X00595Y00345D02*
X01445D01*
X00595Y0033D02*
X01445D01*
X00595Y00315D02*
X01445D01*
X00595Y003D02*
X01445D01*
X01595Y0027D02*
X0172D01*
X0172Y00025D02*
Y0027D01*
X01595D02*
X0172D01*
X01705Y00025D02*
Y0027D01*
X0169Y00025D02*
Y0027D01*
X01675Y00025D02*
Y0027D01*
X0166Y00025D02*
Y0027D01*
X01645Y00025D02*
Y0027D01*
X0163Y00025D02*
Y0027D01*
X01615Y00025D02*
Y0027D01*
X016Y00025D02*
Y0027D01*
X01585Y00025D02*
Y0027D01*
X0157Y00025D02*
Y0027D01*
X01555Y00025D02*
Y0027D01*
X0154Y00025D02*
Y0027D01*
X01525Y00025D02*
Y0027D01*
X0151Y00025D02*
Y0027D01*
X01495Y00025D02*
Y0027D01*
X0148Y00025D02*
Y0027D01*
X00595Y00255D02*
X0206D01*
X00594Y0024D02*
X0206D01*
X00592Y00225D02*
X0206D01*
X00586Y0021D02*
X0206D01*
X00575Y00195D02*
X0206D01*
X0147Y0027D02*
X01595D01*
X0147D02*
X01595D01*
X00556Y0018D02*
X02055D01*
X00545Y00165D02*
X02046D01*
X00545Y0015D02*
X02042D01*
X00545Y00075D02*
X03196D01*
X00545Y0006D02*
X03295D01*
X00545Y00045D02*
X03295D01*
X00545Y0003D02*
X03295D01*
X00545Y00025D02*
X03295Y00025D01*
X00545Y00135D02*
X02043D01*
X00545Y0012D02*
X02048D01*
X00545Y00105D02*
X02061D01*
X00545Y0009D02*
X03169D01*
X01435Y00025D02*
Y00626D01*
X0142Y00025D02*
Y00611D01*
X0142Y0039D02*
Y0061D01*
X00985Y00025D02*
Y00449D01*
X00895Y0054D02*
X0106Y00375D01*
X0094Y00025D02*
Y00494D01*
X00925Y00025D02*
Y00509D01*
X0091Y00025D02*
Y00524D01*
X0097Y00025D02*
Y00464D01*
X00955Y00025D02*
Y00479D01*
X0088Y00025D02*
Y01705D01*
X00865Y00025D02*
Y01695D01*
X0085Y00025D02*
Y0168D01*
X00895Y00025D02*
Y00539D01*
X00835Y00025D02*
Y01666D01*
X0082Y00025D02*
Y0166D01*
X00805Y00025D02*
Y0166D01*
X0079Y00025D02*
Y0166D01*
X00775Y00025D02*
Y0166D01*
X00595Y00495D02*
X0094D01*
X00595Y0048D02*
X00955D01*
X00595Y00465D02*
X0097D01*
X00595Y0045D02*
X00985D01*
X00595Y00435D02*
X01D01*
X0076Y00025D02*
Y0166D01*
X00745Y00025D02*
Y0166D01*
X0073Y00025D02*
Y0166D01*
X00595Y00245D02*
Y0147D01*
Y0051D02*
X00925D01*
X00715Y00025D02*
Y0166D01*
X007Y00025D02*
Y0166D01*
X00685Y00025D02*
Y0166D01*
X0067Y00025D02*
Y0166D01*
X00655Y00025D02*
Y0166D01*
X0064Y00025D02*
Y0166D01*
X00595Y00025D02*
Y01673D01*
X00625Y00025D02*
Y0166D01*
X0061Y00025D02*
Y01661D01*
X01405Y00375D02*
X0142Y0039D01*
X01405Y00025D02*
Y00376D01*
X0139Y00025D02*
Y00375D01*
X01375Y00025D02*
Y00375D01*
X0136Y00025D02*
Y00375D01*
X01345Y00025D02*
Y00375D01*
X0133Y00025D02*
Y00375D01*
X01315Y00025D02*
Y00375D01*
X013Y00025D02*
Y00375D01*
X01285Y00025D02*
Y00375D01*
X0127Y00025D02*
Y00375D01*
X01255Y00025D02*
Y00375D01*
X0124Y00025D02*
Y00375D01*
X01225Y00025D02*
Y00375D01*
X0121Y00025D02*
Y00375D01*
X01195Y00025D02*
Y00375D01*
X0118Y00025D02*
Y00375D01*
X01165Y00025D02*
Y00375D01*
X0115Y00025D02*
Y00375D01*
X01135Y00025D02*
Y00375D01*
X0112Y00025D02*
Y00375D01*
X0106D02*
X01405D01*
X01105Y00025D02*
Y00375D01*
X0109Y00025D02*
Y00375D01*
X00595Y0042D02*
X01015D01*
X00595Y00405D02*
X0103D01*
X00595Y0039D02*
X01045D01*
X01075Y00025D02*
Y00375D01*
X0103Y00025D02*
Y00404D01*
X01015Y00025D02*
Y00419D01*
X01Y00025D02*
Y00434D01*
X0106Y00025D02*
Y00375D01*
X01045Y00025D02*
Y00389D01*
X0058Y00025D02*
Y00201D01*
X00565Y00025D02*
Y00186D01*
X0055Y00025D02*
Y00176D01*
X00545Y00025D02*
Y00174D01*
G54D11*
X029Y0032D02*
X02945D01*
X0262Y00652D02*
Y00697D01*
Y00652D02*
X02665D01*
X02575D02*
X0262D01*
Y00607D02*
Y00652D01*
X03246Y00275D02*
Y0032D01*
X03146Y00275D02*
Y0032D01*
X02795Y00172D02*
X0284D01*
X0275D02*
X02795D01*
Y00127D02*
Y00172D01*
G54D12*
X0171Y01645D02*
X02845D01*
X02875Y01675D02*
X03165D01*
X03195Y01645*
X02845D02*
X02875Y01675D01*
X02895Y0157D02*
X02995D01*
X01935Y01585D02*
X0288D01*
X02895Y0157*
Y0162D02*
X0297D01*
X01485Y01605D02*
X0288D01*
X02895Y0162*
X0185Y01625D02*
X0285D01*
X02885Y0166D02*
X03005D01*
X0285Y01625D02*
X02885Y0166D01*
X03005D02*
X03045Y0162D01*
X03195Y01569D02*
Y01645D01*
X02945Y0142D02*
X0297D01*
X03096Y0157D02*
X03146Y0162D01*
X0302Y0157D02*
X03096D01*
X0297Y0162D02*
X0302Y0157D01*
X03146Y0152D02*
X03195Y01569D01*
X0147Y01199D02*
X0157Y011D01*
X01447Y01222D02*
X0147Y01199D01*
X0132Y01222D02*
X01447D01*
X01514Y01364D02*
X0152Y0137D01*
X0132Y01364D02*
X01514D01*
X01509Y0134D02*
X0152Y0133D01*
X01355Y0134D02*
X01509D01*
X01356Y01293D02*
X01511D01*
X0157Y01235*
X0132Y0127D02*
X01485D01*
X0157Y01185*
X01356Y01246D02*
X01468D01*
X0157Y01145*
X02995Y0157D02*
X03045Y0152D01*
X0297Y0147D02*
X0302Y0142D01*
X03045*
X0227Y0126D02*
X02272Y01258D01*
X02995Y0137D02*
X03045Y0132D01*
X0287Y0137D02*
X02995D01*
X0287Y0142D02*
X02945D01*
X0287Y0147D02*
X0297D01*
X0287Y0152D02*
X02945D01*
X02845Y01545D02*
X0287Y0152D01*
X0281Y0153D02*
X0287Y0147D01*
X02775Y01515D02*
X0287Y0142D01*
X0274Y015D02*
X0287Y0137D01*
X01485Y01495D02*
X01535Y01545D01*
X02845*
X0155Y0153D02*
X0281D01*
X01565Y01515D02*
X02775D01*
X0158Y015D02*
X0274D01*
X02047Y01392D02*
Y0147D01*
X02079Y01351D02*
Y01454D01*
X0211Y01311D02*
Y01468D01*
X02142Y01288D02*
Y01453D01*
X02273Y01258D02*
Y01468D01*
X02304Y01209D02*
Y01453D01*
X02335Y01166D02*
Y01468D01*
X02367Y01122D02*
Y01453D01*
X01355Y01446D02*
X01466D01*
X0155Y0153*
X01321Y01435D02*
X01331Y01425D01*
X01475*
X01565Y01515*
X01355Y01388D02*
X01467D01*
X0158Y015*
G54D13*
X03283Y0122D02*
X03295Y01231D01*
X02848Y0171D02*
X03295D01*
X02843Y01705D02*
X02848Y0171D01*
X02325Y0037D02*
Y00375D01*
X02497Y00547*
X02595*
X0161Y0107D02*
Y0148D01*
G54D14*
X03295Y01231D02*
Y0171D01*
X03045Y0042D02*
X03145Y0052D01*
X03246*
G54D15*
X03146Y0052D02*
X0315Y00524D01*
X02094Y00146D02*
X02095Y00145D01*
Y0047*
G54D16*
X01595Y00295D02*
Y00545D01*
X0172Y00295D02*
Y00545D01*
X01845Y0052D02*
Y00545D01*
X0197Y0052D02*
Y00545D01*
Y0053D02*
Y00545D01*
X0147D02*
X0197D01*
X0147Y0052D02*
Y00545D01*
Y0042D02*
X0197D01*
X01845Y00295D02*
Y0052D01*
X0147Y00295D02*
Y0052D01*
X0197Y00295D02*
Y0052D01*
X01845Y00295D02*
X0197D01*
X02945Y0022D02*
X02985Y00261D01*
X02915Y0049D02*
X02945Y0052D01*
X02685Y0049D02*
X02915D01*
X0147Y00295D02*
X01845D01*
X0302Y0127D02*
X03096D01*
X03146Y0132*
X02985Y01236D02*
X0302Y0127D01*
X02985Y00261D02*
Y01236D01*
X03Y00265D02*
X03045Y0022D01*
X03Y00265D02*
Y0115D01*
X0302Y0117*
X0307*
X03195Y01295D02*
Y01471D01*
X03146Y0152D02*
X03195Y01471D01*
X0307Y0117D02*
X03195Y01295D01*
X01525Y0102D02*
X01586Y01081D01*
X01465Y0102D02*
X01525D01*
X01586Y01081D02*
Y0141D01*
X0047Y00245D02*
D01*
D01*
G75*
G03X0057I00050J0D01*
G74*G01*
Y0147D02*
D01*
D01*
G75*
G03X0047I-00050J0D01*
G74*G01*
X0062Y01685D02*
X0082D01*
X00865Y0173*
X0332*
X00575D02*
X0062Y01685D01*
X0Y0D02*
X03315D01*
X0D02*
Y0173D01*
X0057Y00245D02*
Y0147D01*
X0047Y00245D02*
Y0147D01*
X0332Y0D02*
Y0173D01*
X03315Y0D02*
X0332Y0D01*
X0Y0173D02*
X00575Y0173D01*
G54D17*
X01645Y00495D02*
X01649Y00498D01*
X01656Y00505*
Y00455*
X0167Y00373D02*
X01668Y00378D01*
X01663Y00382*
X01658Y00385*
X01649*
X01644Y00382*
X01639Y00378*
X01637Y00373*
X01635Y00366*
Y00354*
X01637Y00347*
X01639Y00342*
X01644Y00337*
X01649Y00335*
X01658*
X01663Y00337*
X01668Y00342*
X0167Y00347*
G54D18*
X0262Y00652D03*
X02795Y00172D03*
Y00645D03*
X02095Y00145D03*
X02795Y0027D03*
X03246Y0162D03*
X03146Y0142D03*
X03246D03*
Y0152D03*
Y0032D03*
X03146D03*
X03246Y0042D03*
X03146D03*
X03246Y0052D03*
X03146D03*
X03246Y0062D03*
X03146D03*
X03246Y0132D03*
X03146D03*
Y0152D03*
Y0162D03*
X02945Y0142D03*
Y0132D03*
Y0122D03*
Y0112D03*
Y0102D03*
Y0092D03*
Y0082D03*
Y0072D03*
Y0062D03*
X03045Y0142D03*
Y0132D03*
Y0122D03*
Y0112D03*
Y0102D03*
Y0092D03*
Y0082D03*
Y0072D03*
Y0062D03*
X02945Y0152D03*
X03045Y0162D03*
Y0152D03*
X02945Y0162D03*
X03045Y0042D03*
X02945Y0032D03*
X03045D03*
Y0052D03*
X02945Y0042D03*
X03045Y0022D03*
X02945D03*
Y0052D03*
G54D19*
X00097Y01575D03*
Y00157D03*
X03226D03*
G54D20*
X03283Y00785D03*
X01355Y01446D03*
X01203Y0146D03*
X01321Y01435D03*
X01355Y01388D03*
X02595Y00547D03*
X02325Y0037D03*
X0137Y0007D03*
X01315Y0167D03*
X00971Y0072D03*
X02742Y00564D03*
X01171Y0167D03*
X0248Y0146D03*
X02035Y0092D03*
X01843D03*
X0062Y01595D03*
X0177Y0007D03*
X0097D03*
X0062D03*
X0082Y0047D03*
Y0072D03*
X0157Y011D03*
Y01145D03*
Y01185D03*
Y01235D03*
X0152Y0137D03*
X0141Y00692D03*
X03283Y0107D03*
X01625Y00764D03*
X01339Y01065D03*
X0147Y0106D03*
X0132Y01222D03*
X0205Y0139D03*
X0208Y0135D03*
X0211Y0131D03*
X02145Y01285D03*
X02272Y01258D03*
X02304Y01209D03*
X02335Y01165D03*
X01356Y01246D03*
X0132Y0127D03*
X01356Y01293D03*
X01355Y0134D03*
X0152Y0133D03*
X0132Y01364D03*
X01227Y0104D03*
Y0117D03*
X02235Y0092D03*
X01625Y00924D03*
X03283Y0122D03*
X01227Y00925D03*
X01339Y00985D03*
X0141Y00924D03*
X01339Y01145D03*
X01328Y01589D03*
X0268Y0146D03*
X02155Y0168D03*
X02547D03*
X01971D03*
X01003Y0146D03*
X0082Y01595D03*
X0097Y00595D03*
X0132Y00445D03*
X0107Y0047D03*
X0117Y00445D03*
X00971Y0132D03*
X0141Y00764D03*
X01027Y0167D03*
X0097Y0102D03*
X0254Y007D03*
X0062Y0132D03*
Y0102D03*
Y0047D03*
Y0072D03*
X01845Y00764D03*
X02035D03*
X02347Y0168D03*
X01795D03*
X02747D03*
X03283Y0092D03*
X0247Y0077D03*
X01465Y0102D03*
X0185Y01625D03*
X01935Y01585D03*
X01485Y01605D03*
Y01495D03*
X0171Y01645D03*
X02047Y0147D03*
X02079Y01454D03*
X0211Y01468D03*
X02142Y01453D03*
X02273Y01468D03*
X02304Y01453D03*
X02336Y01468D03*
X02367Y01453D03*
Y01122D03*
X02685Y0049D03*
X0161Y0148D03*
Y0107D03*
X01586Y0141D03*
X0082Y0102D03*
Y0132D03*
X0132Y0037D03*
X01895Y00268D03*
X01655D03*
X0152Y00645D03*
X01795D03*
X0207D03*
X0232D03*
X0217Y0007D03*
X0257D03*
X0297D03*
X02507Y0022D03*
X0262Y00292D03*
X00995Y0027D03*
X00895Y0072D03*
Y0102D03*
Y0132D03*
X0132Y0027D03*
X00995Y0037D03*
X02395Y00265D03*
X02419Y00425D03*
X02299Y00265D03*
X02187D03*
Y00365D03*
X02515Y00421D03*
X02451Y0065D03*
X02299Y00165D03*
X02187D03*
X0187Y01572D03*
X01779Y01575D03*
X02Y0146D03*
X0221D03*
X0283Y00455D03*
X01435Y0047D03*
X00925Y01645D03*
G54D21*
X02095Y0047D03*
M02*