  0
SECTION
  2
HEADER
  9
$ACADVER
  1
AC1014
  9
$INSBASE
 10
0.000000
 20
0.000000
  9
$LIMMIN
 10
0.000000
 20
0.000000
  9
$LIMMAX
 10
533.400000
 20
431.800000
  9
$EXTMIN
 10
0.000000
 20
0.000000
  9
$EXTMAX
 10
533.400000
 20
431.800000
  9
$ATTMODE
 70
0
  9
$LUNITS
 70
2
  9
$LUPREC
 70
4
  9
$THICKNESS
 40
0.264160
  9
$MEASUREMENT
 70
1
  9
$HANDSEED
  5
4b6
  0
ENDSEC
  0
SECTION
  2
TABLES
  0
TABLE
  2
LTYPE
  5
4
100
AcDbSymbolTable
 70
3
  0
LTYPE
  5
1
100
AcDbSymbolTableRecord
100
AcDbLinetypeTableRecord
  3

  2
BYBLOCK
 70
0
 72
65
 73
0
 40
0.000000
  0
LTYPE
  5
2
100
AcDbSymbolTableRecord
100
AcDbLinetypeTableRecord
  3

  2
BYLAYER
 70
0
 72
65
 73
0
 40
0.000000
  0
LTYPE
  5
3
100
AcDbSymbolTableRecord
100
AcDbLinetypeTableRecord
  3
Solid Line
  2
CONTINUOUS
 70
0
 72
65
 73
0
 40
0.000000
  0
ENDTAB
  0
TABLE
  2
LAYER
  5
22
100
AcDbSymbolTable
 70
29
  0
LAYER
  5
5
100
AcDbSymbolTableRecord
100
AcDbLayerTableRecord
  2
0
 70
0
 62
7
  6
CONTINUOUS
  0
LAYER
  5
6
100
AcDbSymbolTableRecord
100
AcDbLayerTableRecord
  2
COND
 70
0
 62
80
  6
CONTINUOUS
  0
LAYER
  5
7
100
AcDbSymbolTableRecord
100
AcDbLayerTableRecord
  2
COND2
 70
0
 62
2
  6
CONTINUOUS
  0
LAYER
  5
8
100
AcDbSymbolTableRecord
100
AcDbLayerTableRecord
  2
PACKAGES
 70
0
 62
234
  6
CONTINUOUS
  0
LAYER
  5
9
100
AcDbSymbolTableRecord
100
AcDbLayerTableRecord
  2
PACKAGES
 70
0
 62
234
  6
CONTINUOUS
  0
LAYER
  5
a
100
AcDbSymbolTableRecord
100
AcDbLayerTableRecord
  2
PACKAGES
 70
0
 62
234
  6
CONTINUOUS
  0
LAYER
  5
b
100
AcDbSymbolTableRecord
100
AcDbLayerTableRecord
  2
COND
 70
0
 62
80
  6
CONTINUOUS
  0
LAYER
  5
c
100
AcDbSymbolTableRecord
100
AcDbLayerTableRecord
  2
SOLDER_MASK
 70
0
 62
85
  6
CONTINUOUS
  0
LAYER
  5
d
100
AcDbSymbolTableRecord
100
AcDbLayerTableRecord
  2
BOND
 70
0
 62
85
  6
CONTINUOUS
  0
LAYER
  5
e
100
AcDbSymbolTableRecord
100
AcDbLayerTableRecord
  2
COND2
 70
0
 62
2
  6
CONTINUOUS
  0
LAYER
  5
f
100
AcDbSymbolTableRecord
100
AcDbLayerTableRecord
  2
SOLDER_MASK
 70
0
 62
85
  6
CONTINUOUS
  0
LAYER
  5
10
100
AcDbSymbolTableRecord
100
AcDbLayerTableRecord
  2
SOLDER_MASK
 70
0
 62
85
  6
CONTINUOUS
  0
LAYER
  5
11
100
AcDbSymbolTableRecord
100
AcDbLayerTableRecord
  2
SILK_SCREEN
 70
0
 62
85
  6
CONTINUOUS
  0
LAYER
  5
12
100
AcDbSymbolTableRecord
100
AcDbLayerTableRecord
  2
SILK_SCREEN2
 70
0
 62
85
  6
CONTINUOUS
  0
LAYER
  5
13
100
AcDbSymbolTableRecord
100
AcDbLayerTableRecord
  2
SOLDER_MASK
 70
0
 62
85
  6
CONTINUOUS
  0
LAYER
  5
14
100
AcDbSymbolTableRecord
100
AcDbLayerTableRecord
  2
SOLDER_MASK
 70
0
 62
85
  6
CONTINUOUS
  0
LAYER
  5
15
100
AcDbSymbolTableRecord
100
AcDbLayerTableRecord
  2
SILK_SCREEN
 70
0
 62
85
  6
CONTINUOUS
  0
LAYER
  5
16
100
AcDbSymbolTableRecord
100
AcDbLayerTableRecord
  2
SILK_SCREEN
 70
0
 62
85
  6
CONTINUOUS
  0
LAYER
  5
17
100
AcDbSymbolTableRecord
100
AcDbLayerTableRecord
  2
BOUND
 70
0
 62
85
  6
CONTINUOUS
  0
LAYER
  5
18
100
AcDbSymbolTableRecord
100
AcDbLayerTableRecord
  2
BOUND
 70
0
 62
85
  6
CONTINUOUS
  0
LAYER
  5
19
100
AcDbSymbolTableRecord
100
AcDbLayerTableRecord
  2
TEXT
 70
0
 62
85
  6
CONTINUOUS
  0
LAYER
  5
1a
100
AcDbSymbolTableRecord
100
AcDbLayerTableRecord
  2
TEXT
 70
0
 62
85
  6
CONTINUOUS
  0
LAYER
  5
1b
100
AcDbSymbolTableRecord
100
AcDbLayerTableRecord
  2
ASSEMBLY
 70
0
 62
111
  6
CONTINUOUS
  0
LAYER
  5
1c
100
AcDbSymbolTableRecord
100
AcDbLayerTableRecord
  2
ASSEMBLY
 70
0
 62
12
  6
CONTINUOUS
  0
LAYER
  5
1d
100
AcDbSymbolTableRecord
100
AcDbLayerTableRecord
  2
TEXT
 70
0
 62
142
  6
CONTINUOUS
  0
LAYER
  5
1e
100
AcDbSymbolTableRecord
100
AcDbLayerTableRecord
  2
TEXT
 70
0
 62
142
  6
CONTINUOUS
  0
LAYER
  5
1f
100
AcDbSymbolTableRecord
100
AcDbLayerTableRecord
  2
TEXT
 70
0
 62
142
  6
CONTINUOUS
  0
LAYER
  5
20
100
AcDbSymbolTableRecord
100
AcDbLayerTableRecord
  2
TEXT
 70
0
 62
142
  6
CONTINUOUS
  0
LAYER
  5
21
100
AcDbSymbolTableRecord
100
AcDbLayerTableRecord
  2
PACKAGES
 70
0
 62
202
  6
CONTINUOUS
  0
ENDTAB
  0
TABLE
  2
STYLE
  5
24
100
AcDbSymbolTable
 70
1
  0
STYLE
  5
23
100
AcDbSymbolTableRecord
100
AcDbTextStyleTableRecord
  2
STANDARD
 70
0
 40
0.000000
 41
1.000000
 50
0.000000
 71
0
 42
0.200000
  3
txt
  0
ENDTAB
  0
TABLE
  2
VPORT
  5
25
100
AcDbSymbolTable
 70
1
  0
ENDTAB
  0
TABLE
  2
VIEW
  5
26
100
AcDbSymbolTable
 70
1
  0
ENDTAB
  0
TABLE
  2
APPID
  5
28
100
AcDbSymbolTable
 70
1
  0
APPID
  5
27
100
AcDbSymbolTableRecord
100
AcDbRegAppTableRecord
  2
ACAD
 70
0
  0
ENDTAB
  0
TABLE
  2
UCS
  5
29
100
AcDbSymbolTable
 70
1
  0
ENDTAB
  0
TABLE
  2
BLOCK_RECORD
  5
2a
100
AcDbSymbolTable
 70
10
  0
BLOCK_RECORD
  5
86
100
AcDbSymbolTableRecord
100
AcDbBlockTableRecord
  2
FIGURE_DIAMOND
  0
BLOCK_RECORD
  5
7d
100
AcDbSymbolTableRecord
100
AcDbBlockTableRecord
  2
FIGURE_CROSS
  0
BLOCK_RECORD
  5
72
100
AcDbSymbolTableRecord
100
AcDbBlockTableRecord
  2
FIGURE_TRI
  0
BLOCK_RECORD
  5
6a
100
AcDbSymbolTableRecord
100
AcDbBlockTableRecord
  2
FIGURE_OBLONG
  0
BLOCK_RECORD
  5
59
100
AcDbSymbolTableRecord
100
AcDbBlockTableRecord
  2
FIGURE_OCT
  0
BLOCK_RECORD
  5
4c
100
AcDbSymbolTableRecord
100
AcDbBlockTableRecord
  2
FIGURE_HEX
  0
BLOCK_RECORD
  5
41
100
AcDbSymbolTableRecord
100
AcDbBlockTableRecord
  2
FIGURE_SQUARE
  0
BLOCK_RECORD
  5
38
100
AcDbSymbolTableRecord
100
AcDbBlockTableRecord
  2
FIGURE_CIRCLE
  0
BLOCK_RECORD
  5
34
100
AcDbSymbolTableRecord
100
AcDbBlockTableRecord
  2
*PAPER_SPACE
  0
BLOCK_RECORD
  5
31
100
AcDbSymbolTableRecord
100
AcDbBlockTableRecord
  2
*MODEL_SPACE
  0
ENDTAB
  0
TABLE
  2
DIMSTYLE
  5
2b
100
AcDbSymbolTable
 70
1
  0
ENDTAB
  0
ENDSEC
  0
SECTION
  2
BLOCKS
  0
BLOCK
  5
2f
100
AcDbEntity
  8
0
100
AcDbBlockBegin
  2
*MODEL_SPACE
 70
0
 10
0.000000
 20
0.000000
  3
*MODEL_SPACE
  0
ENDBLK
  5
30
100
AcDbEntity
  8
0
100
AcDbBlockEnd
  0
BLOCK
  5
32
100
AcDbEntity
  8
0
100
AcDbBlockBegin
  2
*PAPER_SPACE
 70
0
 10
0.000000
 20
0.000000
  3
*PAPER_SPACE
  0
ENDBLK
  5
33
100
AcDbEntity
  8
0
100
AcDbBlockEnd
  0
BLOCK
  5
35
100
AcDbEntity
  8
0
100
AcDbBlockBegin
  2
FIGURE_CIRCLE
 70
0
 10
0.000000
 20
0.000000
  3
FIGURE_CIRCLE
  0
CIRCLE
  5
37
100
AcDbEntity
  8
0
100
AcDbCircle
 10
0.000000
 20
0.000000
 40
0.500000
  0
ENDBLK
  5
36
100
AcDbEntity
  8
0
100
AcDbBlockEnd
  0
BLOCK
  5
39
100
AcDbEntity
  8
0
100
AcDbBlockBegin
  2
FIGURE_SQUARE
 70
0
 10
0.000000
 20
0.000000
  3
FIGURE_SQUARE
  0
POLYLINE
  5
3b
100
AcDbEntity
  8
0
100
AcDb2dPolyline
 66
1
 70
1
 40
0.000000
 41
0.000000
 39
0.000000
  0
VERTEX
  5
3d
100
AcDbEntity
  8
0
100
AcDbVertex
100
AcDb2dVertex
 10
-0.500000
 20
-0.500000
 40
0.000000
 41
0.000000
 42
0.000000
  0
VERTEX
  5
3e
100
AcDbEntity
  8
0
100
AcDbVertex
100
AcDb2dVertex
 10
-0.500000
 20
0.500000
 40
0.000000
 41
0.000000
 42
0.000000
  0
VERTEX
  5
3f
100
AcDbEntity
  8
0
100
AcDbVertex
100
AcDb2dVertex
 10
0.500000
 20
0.500000
 40
0.000000
 41
0.000000
 42
0.000000
  0
VERTEX
  5
40
100
AcDbEntity
  8
0
100
AcDbVertex
100
AcDb2dVertex
 10
0.500000
 20
-0.500000
 40
0.000000
 41
0.000000
 42
0.000000
  0
SEQEND
  5
3c
100
AcDbEntity
  0
ENDBLK
  5
3a
100
AcDbEntity
  8
0
100
AcDbBlockEnd
  0
BLOCK
  5
42
100
AcDbEntity
  8
0
100
AcDbBlockBegin
  2
FIGURE_HEX
 70
0
 10
0.000000
 20
0.000000
  3
FIGURE_HEX
  0
POLYLINE
  5
44
100
AcDbEntity
  8
0
100
AcDb2dPolyline
 66
1
 70
1
 40
0.000000
 41
0.000000
 39
0.000000
  0
VERTEX
  5
46
100
AcDbEntity
  8
0
100
AcDbVertex
100
AcDb2dVertex
 10
-0.500000
 20
0.000000
 40
0.000000
 41
0.000000
 42
0.000000
  0
VERTEX
  5
47
100
AcDbEntity
  8
0
100
AcDbVertex
100
AcDb2dVertex
 10
-0.250000
 20
0.500000
 40
0.000000
 41
0.000000
 42
0.000000
  0
VERTEX
  5
48
100
AcDbEntity
  8
0
100
AcDbVertex
100
AcDb2dVertex
 10
0.250000
 20
0.500000
 40
0.000000
 41
0.000000
 42
0.000000
  0
VERTEX
  5
49
100
AcDbEntity
  8
0
100
AcDbVertex
100
AcDb2dVertex
 10
0.500000
 20
0.000000
 40
0.000000
 41
0.000000
 42
0.000000
  0
VERTEX
  5
4a
100
AcDbEntity
  8
0
100
AcDbVertex
100
AcDb2dVertex
 10
0.250000
 20
-0.500000
 40
0.000000
 41
0.000000
 42
0.000000
  0
VERTEX
  5
4b
100
AcDbEntity
  8
0
100
AcDbVertex
100
AcDb2dVertex
 10
-0.250000
 20
-0.500000
 40
0.000000
 41
0.000000
 42
0.000000
  0
SEQEND
  5
45
100
AcDbEntity
  0
ENDBLK
  5
43
100
AcDbEntity
  8
0
100
AcDbBlockEnd
  0
BLOCK
  5
4d
100
AcDbEntity
  8
0
100
AcDbBlockBegin
  2
FIGURE_OCT
 70
0
 10
0.000000
 20
0.000000
  3
FIGURE_OCT
  0
POLYLINE
  5
4f
100
AcDbEntity
  8
0
100
AcDb2dPolyline
 66
1
 70
1
 40
0.000000
 41
0.000000
 39
0.000000
  0
VERTEX
  5
51
100
AcDbEntity
  8
0
100
AcDbVertex
100
AcDb2dVertex
 10
-0.500000
 20
-0.207100
 40
0.000000
 41
0.000000
 42
0.000000
  0
VERTEX
  5
52
100
AcDbEntity
  8
0
100
AcDbVertex
100
AcDb2dVertex
 10
-0.500000
 20
0.207100
 40
0.000000
 41
0.000000
 42
0.000000
  0
VERTEX
  5
53
100
AcDbEntity
  8
0
100
AcDbVertex
100
AcDb2dVertex
 10
-0.207100
 20
0.500000
 40
0.000000
 41
0.000000
 42
0.000000
  0
VERTEX
  5
54
100
AcDbEntity
  8
0
100
AcDbVertex
100
AcDb2dVertex
 10
0.207100
 20
0.500000
 40
0.000000
 41
0.000000
 42
0.000000
  0
VERTEX
  5
55
100
AcDbEntity
  8
0
100
AcDbVertex
100
AcDb2dVertex
 10
0.500000
 20
0.207100
 40
0.000000
 41
0.000000
 42
0.000000
  0
VERTEX
  5
56
100
AcDbEntity
  8
0
100
AcDbVertex
100
AcDb2dVertex
 10
0.500000
 20
-0.207100
 40
0.000000
 41
0.000000
 42
0.000000
  0
VERTEX
  5
57
100
AcDbEntity
  8
0
100
AcDbVertex
100
AcDb2dVertex
 10
0.207100
 20
-0.500000
 40
0.000000
 41
0.000000
 42
0.000000
  0
VERTEX
  5
58
100
AcDbEntity
  8
0
100
AcDbVertex
100
AcDb2dVertex
 10
-0.207100
 20
-0.500000
 40
0.000000
 41
0.000000
 42
0.000000
  0
SEQEND
  5
50
100
AcDbEntity
  0
ENDBLK
  5
4e
100
AcDbEntity
  8
0
100
AcDbBlockEnd
  0
BLOCK
  5
5a
100
AcDbEntity
  8
0
100
AcDbBlockBegin
  2
FIGURE_OBLONG
 70
0
 10
0.000000
 20
0.000000
  3
FIGURE_OBLONG
  0
POLYLINE
  5
5c
100
AcDbEntity
  8
0
100
AcDb2dPolyline
 66
1
 70
1
 40
0.000000
 41
0.000000
 39
0.000000
  0
VERTEX
  5
5e
100
AcDbEntity
  8
0
100
AcDbVertex
100
AcDb2dVertex
 10
-0.500000
 20
-0.125000
 40
0.000000
 41
0.000000
 42
0.000000
  0
VERTEX
  5
5f
100
AcDbEntity
  8
0
100
AcDbVertex
100
AcDb2dVertex
 10
-0.500000
 20
0.125000
 40
0.000000
 41
0.000000
 42
0.000000
  0
VERTEX
  5
60
100
AcDbEntity
  8
0
100
AcDbVertex
100
AcDb2dVertex
 10
-0.416000
 20
0.375000
 40
0.000000
 41
0.000000
 42
0.000000
  0
VERTEX
  5
61
100
AcDbEntity
  8
0
100
AcDbVertex
100
AcDb2dVertex
 10
-0.250000
 20
0.500000
 40
0.000000
 41
0.000000
 42
0.000000
  0
VERTEX
  5
62
100
AcDbEntity
  8
0
100
AcDbVertex
100
AcDb2dVertex
 10
0.250000
 20
0.500000
 40
0.000000
 41
0.000000
 42
0.000000
  0
VERTEX
  5
63
100
AcDbEntity
  8
0
100
AcDbVertex
100
AcDb2dVertex
 10
0.416000
 20
0.375000
 40
0.000000
 41
0.000000
 42
0.000000
  0
VERTEX
  5
64
100
AcDbEntity
  8
0
100
AcDbVertex
100
AcDb2dVertex
 10
0.500000
 20
0.125000
 40
0.000000
 41
0.000000
 42
0.000000
  0
VERTEX
  5
65
100
AcDbEntity
  8
0
100
AcDbVertex
100
AcDb2dVertex
 10
0.500000
 20
-0.125000
 40
0.000000
 41
0.000000
 42
0.000000
  0
VERTEX
  5
66
100
AcDbEntity
  8
0
100
AcDbVertex
100
AcDb2dVertex
 10
0.416000
 20
-0.375000
 40
0.000000
 41
0.000000
 42
0.000000
  0
VERTEX
  5
67
100
AcDbEntity
  8
0
100
AcDbVertex
100
AcDb2dVertex
 10
0.250000
 20
-0.500000
 40
0.000000
 41
0.000000
 42
0.000000
  0
VERTEX
  5
68
100
AcDbEntity
  8
0
100
AcDbVertex
100
AcDb2dVertex
 10
-0.250000
 20
-0.500000
 40
0.000000
 41
0.000000
 42
0.000000
  0
VERTEX
  5
69
100
AcDbEntity
  8
0
100
AcDbVertex
100
AcDb2dVertex
 10
-0.416000
 20
-0.375000
 40
0.000000
 41
0.000000
 42
0.000000
  0
SEQEND
  5
5d
100
AcDbEntity
  0
ENDBLK
  5
5b
100
AcDbEntity
  8
0
100
AcDbBlockEnd
  0
BLOCK
  5
6b
100
AcDbEntity
  8
0
100
AcDbBlockBegin
  2
FIGURE_TRI
 70
0
 10
0.000000
 20
0.000000
  3
FIGURE_TRI
  0
POLYLINE
  5
6d
100
AcDbEntity
  8
0
100
AcDb2dPolyline
 66
1
 70
1
 40
0.000000
 41
0.000000
 39
0.000000
  0
VERTEX
  5
6f
100
AcDbEntity
  8
0
100
AcDbVertex
100
AcDb2dVertex
 10
-0.500000
 20
-0.500000
 40
0.000000
 41
0.000000
 42
0.000000
  0
VERTEX
  5
70
100
AcDbEntity
  8
0
100
AcDbVertex
100
AcDb2dVertex
 10
0.000000
 20
0.500000
 40
0.000000
 41
0.000000
 42
0.000000
  0
VERTEX
  5
71
100
AcDbEntity
  8
0
100
AcDbVertex
100
AcDb2dVertex
 10
0.500000
 20
-0.500000
 40
0.000000
 41
0.000000
 42
0.000000
  0
SEQEND
  5
6e
100
AcDbEntity
  0
ENDBLK
  5
6c
100
AcDbEntity
  8
0
100
AcDbBlockEnd
  0
BLOCK
  5
73
100
AcDbEntity
  8
0
100
AcDbBlockBegin
  2
FIGURE_CROSS
 70
0
 10
0.000000
 20
0.000000
  3
FIGURE_CROSS
  0
POLYLINE
  5
75
100
AcDbEntity
  8
0
100
AcDb2dPolyline
 66
1
 70
0
 40
0.000000
 41
0.000000
 39
0.000000
  0
VERTEX
  5
79
100
AcDbEntity
  8
0
100
AcDbVertex
100
AcDb2dVertex
 10
-0.500000
 20
0.000000
 40
0.000000
 41
0.000000
 42
0.000000
  0
VERTEX
  5
7a
100
AcDbEntity
  8
0
100
AcDbVertex
100
AcDb2dVertex
 10
0.500000
 20
0.000000
 40
0.000000
 41
0.000000
 42
0.000000
  0
SEQEND
  5
76
100
AcDbEntity
  0
POLYLINE
  5
77
100
AcDbEntity
  8
0
100
AcDb2dPolyline
 66
1
 70
0
 40
0.000000
 41
0.000000
 39
0.000000
  0
VERTEX
  5
7b
100
AcDbEntity
  8
0
100
AcDbVertex
100
AcDb2dVertex
 10
0.000000
 20
0.500000
 40
0.000000
 41
0.000000
 42
0.000000
  0
VERTEX
  5
7c
100
AcDbEntity
  8
0
100
AcDbVertex
100
AcDb2dVertex
 10
0.000000
 20
-0.500000
 40
0.000000
 41
0.000000
 42
0.000000
  0
SEQEND
  5
78
100
AcDbEntity
  0
ENDBLK
  5
74
100
AcDbEntity
  8
0
100
AcDbBlockEnd
  0
BLOCK
  5
7e
100
AcDbEntity
  8
0
100
AcDbBlockBegin
  2
FIGURE_DIAMOND
 70
0
 10
0.000000
 20
0.000000
  3
FIGURE_DIAMOND
  0
POLYLINE
  5
80
100
AcDbEntity
  8
0
100
AcDb2dPolyline
 66
1
 70
1
 40
0.000000
 41
0.000000
 39
0.000000
  0
VERTEX
  5
82
100
AcDbEntity
  8
0
100
AcDbVertex
100
AcDb2dVertex
 10
-0.500000
 20
0.000000
 40
0.000000
 41
0.000000
 42
0.000000
  0
VERTEX
  5
83
100
AcDbEntity
  8
0
100
AcDbVertex
100
AcDb2dVertex
 10
0.000000
 20
0.500000
 40
0.000000
 41
0.000000
 42
0.000000
  0
VERTEX
  5
84
100
AcDbEntity
  8
0
100
AcDbVertex
100
AcDb2dVertex
 10
0.500000
 20
0.000000
 40
0.000000
 41
0.000000
 42
0.000000
  0
VERTEX
  5
85
100
AcDbEntity
  8
0
100
AcDbVertex
100
AcDb2dVertex
 10
0.000000
 20
-0.500000
 40
0.000000
 41
0.000000
 42
0.000000
  0
SEQEND
  5
81
100
AcDbEntity
  0
ENDBLK
  5
7f
100
AcDbEntity
  8
0
100
AcDbBlockEnd
  0
ENDSEC
  0
SECTION
  2
ENTITIES
  0
LWPOLYLINE
  5
87
100
AcDbEntity
  8
COND
100
AcDbPolyline
 90
10
 70
1
 39
0.000000
 10
85.088000
 20
258.572000
 40
0.000000
 41
0.000000
 42
-1.000000
 10
85.600000
 20
258.572000
 40
0.000000
 41
0.000000
 42
0.000000
 10
85.600000
 20
252.074000
 40
0.000000
 41
0.000000
 42
0.000000
 10
89.387000
 20
248.287000
 40
0.000000
 41
0.000000
 42
0.000000
 10
103.968000
 20
248.287000
 40
0.000000
 41
0.000000
 42
-1.000000
 10
103.968000
 20
247.775000
 40
0.000000
 41
0.000000
 42
0.000000
 10
89.281000
 20
247.775000
 40
0.000000
 41
0.000000
 42
-0.198979
 10
89.100000
 20
247.850000
 40
0.000000
 41
0.000000
 42
0.000000
 10
85.163000
 20
251.787000
 40
0.000000
 41
0.000000
 42
-0.198979
 10
85.088000
 20
251.968000
 40
0.000000
 41
0.000000
 42
0.000000
  0
LWPOLYLINE
  5
92
100
AcDbEntity
  8
COND
100
AcDbPolyline
 90
10
 70
1
 39
0.000000
 10
86.487000
 20
256.032000
 40
0.000000
 41
0.000000
 42
-1.000000
 10
86.741000
 20
256.032000
 40
0.000000
 41
0.000000
 42
0.000000
 10
86.741000
 20
252.274600
 40
0.000000
 41
0.000000
 42
0.000000
 10
89.587600
 20
249.428000
 40
0.000000
 41
0.000000
 42
0.000000
 10
103.968000
 20
249.428000
 40
0.000000
 41
0.000000
 42
-1.000000
 10
103.968000
 20
249.174000
 40
0.000000
 41
0.000000
 42
0.000000
 10
89.535000
 20
249.174000
 40
0.000000
 41
0.000000
 42
-0.198930
 10
89.445200
 20
249.211200
 40
0.000000
 41
0.000000
 42
0.000000
 10
86.524200
 20
252.132200
 40
0.000000
 41
0.000000
 42
-0.198930
 10
86.487000
 20
252.222000
 40
0.000000
 41
0.000000
 42
0.000000
  0
LWPOLYLINE
  5
9d
100
AcDbEntity
  8
COND
100
AcDbPolyline
 90
10
 70
1
 39
0.000000
 10
87.820500
 20
258.572000
 40
0.000000
 41
0.000000
 42
-1.000000
 10
87.947500
 20
258.572000
 40
0.000000
 41
0.000000
 42
0.000000
 10
87.947500
 20
252.502300
 40
0.000000
 41
0.000000
 42
0.000000
 10
89.815300
 20
250.634500
 40
0.000000
 41
0.000000
 42
0.000000
 10
103.968000
 20
250.634500
 40
0.000000
 41
0.000000
 42
-1.000000
 10
103.968000
 20
250.507500
 40
0.000000
 41
0.000000
 42
0.000000
 10
89.789000
 20
250.507500
 40
0.000000
 41
0.000000
 42
-0.198930
 10
89.744100
 20
250.526100
 40
0.000000
 41
0.000000
 42
0.000000
 10
87.839100
 20
252.431100
 40
0.000000
 41
0.000000
 42
-0.198930
 10
87.820500
 20
252.476000
 40
0.000000
 41
0.000000
 42
0.000000
  0
LWPOLYLINE
  5
a8
100
AcDbEntity
  8
COND
100
AcDbPolyline
 90
10
 70
1
 39
0.000000
 10
88.654000
 20
256.032000
 40
0.000000
 41
0.000000
 42
-1.000000
 10
89.654000
 20
256.032000
 40
0.000000
 41
0.000000
 42
0.000000
 10
89.654000
 20
253.048100
 40
0.000000
 41
0.000000
 42
0.000000
 10
90.361100
 20
252.341000
 40
0.000000
 41
0.000000
 42
0.000000
 10
103.968000
 20
252.341000
 40
0.000000
 41
0.000000
 42
-1.000000
 10
103.968000
 20
251.341000
 40
0.000000
 41
0.000000
 42
0.000000
 10
90.154000
 20
251.341000
 40
0.000000
 41
0.000000
 42
-0.198912
 10
89.800400
 20
251.487400
 40
0.000000
 41
0.000000
 42
0.000000
 10
88.800400
 20
252.487400
 40
0.000000
 41
0.000000
 42
-0.198912
 10
88.654000
 20
252.841000
 40
0.000000
 41
0.000000
 42
0.000000
  0
LWPOLYLINE
  5
b3
100
AcDbEntity
  8
COND
100
AcDbPolyline
 90
10
 70
1
 39
0.000000
 10
112.903000
 20
249.098000
 40
0.000000
 41
0.000000
 42
-1.000000
 10
113.157000
 20
249.098000
 40
0.000000
 41
0.000000
 42
0.000000
 10
113.157000
 20
248.285100
 40
0.000000
 41
0.000000
 42
-0.198930
 10
113.119800
 20
248.195300
 40
0.000000
 41
0.000000
 42
0.000000
 10
112.865700
 20
247.941200
 40
0.000000
 41
0.000000
 42
-0.198930
 10
112.775900
 20
247.904000
 40
0.000000
 41
0.000000
 42
0.000000
 10
109.392000
 20
247.904000
 40
0.000000
 41
0.000000
 42
-1.000000
 10
109.392000
 20
248.158000
 40
0.000000
 41
0.000000
 42
0.000000
 10
112.723300
 20
248.158000
 40
0.000000
 41
0.000000
 42
0.000000
 10
112.903000
 20
248.337700
 40
0.000000
 41
0.000000
 42
0.000000
  0
LWPOLYLINE
  5
be
100
AcDbEntity
  8
COND
100
AcDbPolyline
 90
10
 70
1
 39
0.000000
 10
109.392000
 20
250.698000
 40
0.000000
 41
0.000000
 42
0.000000
 10
112.236900
 20
250.698000
 40
0.000000
 41
0.000000
 42
-0.198930
 10
112.326700
 20
250.660800
 40
0.000000
 41
0.000000
 42
0.000000
 10
113.119800
 20
249.867700
 40
0.000000
 41
0.000000
 42
-0.198930
 10
113.157000
 20
249.777900
 40
0.000000
 41
0.000000
 42
0.000000
 10
113.157000
 20
249.758000
 40
0.000000
 41
0.000000
 42
-0.414214
 10
113.030000
 20
249.631000
 40
0.000000
 41
0.000000
 42
-0.325999
 10
112.909100
 20
249.719200
 40
0.000000
 41
0.000000
 42
0.000000
 10
112.184300
 20
250.444000
 40
0.000000
 41
0.000000
 42
0.000000
 10
109.392000
 20
250.444000
 40
0.000000
 41
0.000000
 42
-1.000000
  0
CIRCLE
  5
c9
100
AcDbEntity
  8
COND
100
AcDbCircle
 10
96.774000
 20
256.032000
 40
0.739000
  0
CIRCLE
  5
ca
100
AcDbEntity
  8
COND2
100
AcDbCircle
 10
96.774000
 20
256.032000
 40
0.739000
  0
CIRCLE
  5
cb
100
AcDbEntity
  8
SOLDER_MASK
100
AcDbCircle
 10
96.774000
 20
256.032000
 40
0.739000
  0
INSERT
  5
cc
100
AcDbEntity
  8
MANUFACTURING_NCDRILL_FIGURE
100
AcDbBlockReference
  2
FIGURE_DIAMOND
 10
96.774000
 20
256.032000
 41
0.950000
 42
0.950000
 50
0.000000
  0
TEXT
  5
ce
100
AcDbEntity
  8
MANUFACTURING_NCDRILL_FIGURE
100
AcDbText
 10
96.457333
 20
255.794500
 11
96.774000
 21
256.032000
 40
0.475000
 41
1.000000
 50
0.000000
  7
STANDARD
 71
0
 72
1
  1
A
100
AcDbText
 73
2
  0
TEXT
  5
cf
100
AcDbEntity
  8
TEXT
100
AcDbText
 10
96.096667
 20
256.032000
 11
96.774000
 21
256.032000
 40
2.032000
 41
1.000000
 50
180.000000
  7
STANDARD
 71
0
 72
1
  1
1
100
AcDbText
 73
0
  0
CIRCLE
  5
d0
100
AcDbEntity
  8
COND
100
AcDbCircle
 10
95.504000
 20
258.572000
 40
0.739000
  0
CIRCLE
  5
d1
100
AcDbEntity
  8
COND2
100
AcDbCircle
 10
95.504000
 20
258.572000
 40
0.739000
  0
CIRCLE
  5
d2
100
AcDbEntity
  8
SOLDER_MASK
100
AcDbCircle
 10
95.504000
 20
258.572000
 40
0.739000
  0
INSERT
  5
d3
100
AcDbEntity
  8
MANUFACTURING_NCDRILL_FIGURE
100
AcDbBlockReference
  2
FIGURE_DIAMOND
 10
95.504000
 20
258.572000
 41
0.950000
 42
0.950000
 50
0.000000
  0
TEXT
  5
d5
100
AcDbEntity
  8
MANUFACTURING_NCDRILL_FIGURE
100
AcDbText
 10
95.187333
 20
258.334500
 11
95.504000
 21
258.572000
 40
0.475000
 41
1.000000
 50
0.000000
  7
STANDARD
 71
0
 72
1
  1
A
100
AcDbText
 73
2
  0
TEXT
  5
d6
100
AcDbEntity
  8
TEXT
100
AcDbText
 10
94.826667
 20
258.572000
 11
95.504000
 21
258.572000
 40
2.032000
 41
1.000000
 50
180.000000
  7
STANDARD
 71
0
 72
1
  1
2
100
AcDbText
 73
0
  0
CIRCLE
  5
d7
100
AcDbEntity
  8
COND
100
AcDbCircle
 10
94.234000
 20
256.032000
 40
0.739000
  0
CIRCLE
  5
d8
100
AcDbEntity
  8
COND2
100
AcDbCircle
 10
94.234000
 20
256.032000
 40
0.739000
  0
CIRCLE
  5
d9
100
AcDbEntity
  8
SOLDER_MASK
100
AcDbCircle
 10
94.234000
 20
256.032000
 40
0.739000
  0
INSERT
  5
da
100
AcDbEntity
  8
MANUFACTURING_NCDRILL_FIGURE
100
AcDbBlockReference
  2
FIGURE_DIAMOND
 10
94.234000
 20
256.032000
 41
0.950000
 42
0.950000
 50
0.000000
  0
TEXT
  5
dc
100
AcDbEntity
  8
MANUFACTURING_NCDRILL_FIGURE
100
AcDbText
 10
93.917333
 20
255.794500
 11
94.234000
 21
256.032000
 40
0.475000
 41
1.000000
 50
0.000000
  7
STANDARD
 71
0
 72
1
  1
A
100
AcDbText
 73
2
  0
TEXT
  5
dd
100
AcDbEntity
  8
TEXT
100
AcDbText
 10
93.556667
 20
256.032000
 11
94.234000
 21
256.032000
 40
2.032000
 41
1.000000
 50
180.000000
  7
STANDARD
 71
0
 72
1
  1
3
100
AcDbText
 73
0
  0
CIRCLE
  5
de
100
AcDbEntity
  8
COND
100
AcDbCircle
 10
92.964000
 20
258.572000
 40
0.739000
  0
CIRCLE
  5
df
100
AcDbEntity
  8
COND2
100
AcDbCircle
 10
92.964000
 20
258.572000
 40
0.739000
  0
CIRCLE
  5
e0
100
AcDbEntity
  8
SOLDER_MASK
100
AcDbCircle
 10
92.964000
 20
258.572000
 40
0.739000
  0
INSERT
  5
e1
100
AcDbEntity
  8
MANUFACTURING_NCDRILL_FIGURE
100
AcDbBlockReference
  2
FIGURE_DIAMOND
 10
92.964000
 20
258.572000
 41
0.950000
 42
0.950000
 50
0.000000
  0
TEXT
  5
e3
100
AcDbEntity
  8
MANUFACTURING_NCDRILL_FIGURE
100
AcDbText
 10
92.647333
 20
258.334500
 11
92.964000
 21
258.572000
 40
0.475000
 41
1.000000
 50
0.000000
  7
STANDARD
 71
0
 72
1
  1
A
100
AcDbText
 73
2
  0
TEXT
  5
e4
100
AcDbEntity
  8
TEXT
100
AcDbText
 10
92.286667
 20
258.572000
 11
92.964000
 21
258.572000
 40
2.032000
 41
1.000000
 50
180.000000
  7
STANDARD
 71
0
 72
1
  1
4
100
AcDbText
 73
0
  0
CIRCLE
  5
e5
100
AcDbEntity
  8
COND
100
AcDbCircle
 10
91.694000
 20
256.032000
 40
0.739000
  0
CIRCLE
  5
e6
100
AcDbEntity
  8
COND2
100
AcDbCircle
 10
91.694000
 20
256.032000
 40
0.739000
  0
CIRCLE
  5
e7
100
AcDbEntity
  8
SOLDER_MASK
100
AcDbCircle
 10
91.694000
 20
256.032000
 40
0.739000
  0
INSERT
  5
e8
100
AcDbEntity
  8
MANUFACTURING_NCDRILL_FIGURE
100
AcDbBlockReference
  2
FIGURE_DIAMOND
 10
91.694000
 20
256.032000
 41
0.950000
 42
0.950000
 50
0.000000
  0
TEXT
  5
ea
100
AcDbEntity
  8
MANUFACTURING_NCDRILL_FIGURE
100
AcDbText
 10
91.377333
 20
255.794500
 11
91.694000
 21
256.032000
 40
0.475000
 41
1.000000
 50
0.000000
  7
STANDARD
 71
0
 72
1
  1
A
100
AcDbText
 73
2
  0
TEXT
  5
eb
100
AcDbEntity
  8
TEXT
100
AcDbText
 10
91.016667
 20
256.032000
 11
91.694000
 21
256.032000
 40
2.032000
 41
1.000000
 50
180.000000
  7
STANDARD
 71
0
 72
1
  1
5
100
AcDbText
 73
0
  0
CIRCLE
  5
ec
100
AcDbEntity
  8
COND
100
AcDbCircle
 10
90.424000
 20
258.572000
 40
0.739000
  0
CIRCLE
  5
ed
100
AcDbEntity
  8
COND2
100
AcDbCircle
 10
90.424000
 20
258.572000
 40
0.739000
  0
CIRCLE
  5
ee
100
AcDbEntity
  8
SOLDER_MASK
100
AcDbCircle
 10
90.424000
 20
258.572000
 40
0.739000
  0
INSERT
  5
ef
100
AcDbEntity
  8
MANUFACTURING_NCDRILL_FIGURE
100
AcDbBlockReference
  2
FIGURE_DIAMOND
 10
90.424000
 20
258.572000
 41
0.950000
 42
0.950000
 50
0.000000
  0
TEXT
  5
f1
100
AcDbEntity
  8
MANUFACTURING_NCDRILL_FIGURE
100
AcDbText
 10
90.107333
 20
258.334500
 11
90.424000
 21
258.572000
 40
0.475000
 41
1.000000
 50
0.000000
  7
STANDARD
 71
0
 72
1
  1
A
100
AcDbText
 73
2
  0
TEXT
  5
f2
100
AcDbEntity
  8
TEXT
100
AcDbText
 10
89.746667
 20
258.572000
 11
90.424000
 21
258.572000
 40
2.032000
 41
1.000000
 50
180.000000
  7
STANDARD
 71
0
 72
1
  1
6
100
AcDbText
 73
0
  0
CIRCLE
  5
f3
100
AcDbEntity
  8
COND
100
AcDbCircle
 10
89.154000
 20
256.032000
 40
0.739000
  0
CIRCLE
  5
f4
100
AcDbEntity
  8
COND2
100
AcDbCircle
 10
89.154000
 20
256.032000
 40
0.739000
  0
CIRCLE
  5
f5
100
AcDbEntity
  8
SOLDER_MASK
100
AcDbCircle
 10
89.154000
 20
256.032000
 40
0.739000
  0
INSERT
  5
f6
100
AcDbEntity
  8
MANUFACTURING_NCDRILL_FIGURE
100
AcDbBlockReference
  2
FIGURE_DIAMOND
 10
89.154000
 20
256.032000
 41
0.950000
 42
0.950000
 50
0.000000
  0
TEXT
  5
f8
100
AcDbEntity
  8
MANUFACTURING_NCDRILL_FIGURE
100
AcDbText
 10
88.837333
 20
255.794500
 11
89.154000
 21
256.032000
 40
0.475000
 41
1.000000
 50
0.000000
  7
STANDARD
 71
0
 72
1
  1
A
100
AcDbText
 73
2
  0
TEXT
  5
f9
100
AcDbEntity
  8
TEXT
100
AcDbText
 10
88.476667
 20
256.032000
 11
89.154000
 21
256.032000
 40
2.032000
 41
1.000000
 50
180.000000
  7
STANDARD
 71
0
 72
1
  1
7
100
AcDbText
 73
0
  0
CIRCLE
  5
fa
100
AcDbEntity
  8
COND
100
AcDbCircle
 10
87.884000
 20
258.572000
 40
0.739000
  0
CIRCLE
  5
fb
100
AcDbEntity
  8
COND2
100
AcDbCircle
 10
87.884000
 20
258.572000
 40
0.739000
  0
CIRCLE
  5
fc
100
AcDbEntity
  8
SOLDER_MASK
100
AcDbCircle
 10
87.884000
 20
258.572000
 40
0.739000
  0
INSERT
  5
fd
100
AcDbEntity
  8
MANUFACTURING_NCDRILL_FIGURE
100
AcDbBlockReference
  2
FIGURE_DIAMOND
 10
87.884000
 20
258.572000
 41
0.950000
 42
0.950000
 50
0.000000
  0
TEXT
  5
ff
100
AcDbEntity
  8
MANUFACTURING_NCDRILL_FIGURE
100
AcDbText
 10
87.567333
 20
258.334500
 11
87.884000
 21
258.572000
 40
0.475000
 41
1.000000
 50
0.000000
  7
STANDARD
 71
0
 72
1
  1
A
100
AcDbText
 73
2
  0
TEXT
  5
100
100
AcDbEntity
  8
TEXT
100
AcDbText
 10
87.206667
 20
258.572000
 11
87.884000
 21
258.572000
 40
2.032000
 41
1.000000
 50
180.000000
  7
STANDARD
 71
0
 72
1
  1
8
100
AcDbText
 73
0
  0
CIRCLE
  5
101
100
AcDbEntity
  8
COND
100
AcDbCircle
 10
86.614000
 20
256.032000
 40
0.739000
  0
CIRCLE
  5
102
100
AcDbEntity
  8
COND2
100
AcDbCircle
 10
86.614000
 20
256.032000
 40
0.739000
  0
CIRCLE
  5
103
100
AcDbEntity
  8
SOLDER_MASK
100
AcDbCircle
 10
86.614000
 20
256.032000
 40
0.739000
  0
INSERT
  5
104
100
AcDbEntity
  8
MANUFACTURING_NCDRILL_FIGURE
100
AcDbBlockReference
  2
FIGURE_DIAMOND
 10
86.614000
 20
256.032000
 41
0.950000
 42
0.950000
 50
0.000000
  0
TEXT
  5
106
100
AcDbEntity
  8
MANUFACTURING_NCDRILL_FIGURE
100
AcDbText
 10
86.297333
 20
255.794500
 11
86.614000
 21
256.032000
 40
0.475000
 41
1.000000
 50
0.000000
  7
STANDARD
 71
0
 72
1
  1
A
100
AcDbText
 73
2
  0
TEXT
  5
107
100
AcDbEntity
  8
TEXT
100
AcDbText
 10
85.936667
 20
256.032000
 11
86.614000
 21
256.032000
 40
2.032000
 41
1.000000
 50
180.000000
  7
STANDARD
 71
0
 72
1
  1
9
100
AcDbText
 73
0
  0
CIRCLE
  5
108
100
AcDbEntity
  8
COND
100
AcDbCircle
 10
85.344000
 20
258.572000
 40
0.739000
  0
CIRCLE
  5
109
100
AcDbEntity
  8
COND2
100
AcDbCircle
 10
85.344000
 20
258.572000
 40
0.739000
  0
CIRCLE
  5
10a
100
AcDbEntity
  8
SOLDER_MASK
100
AcDbCircle
 10
85.344000
 20
258.572000
 40
0.739000
  0
INSERT
  5
10b
100
AcDbEntity
  8
MANUFACTURING_NCDRILL_FIGURE
100
AcDbBlockReference
  2
FIGURE_DIAMOND
 10
85.344000
 20
258.572000
 41
0.950000
 42
0.950000
 50
0.000000
  0
TEXT
  5
10d
100
AcDbEntity
  8
MANUFACTURING_NCDRILL_FIGURE
100
AcDbText
 10
85.027333
 20
258.334500
 11
85.344000
 21
258.572000
 40
0.475000
 41
1.000000
 50
0.000000
  7
STANDARD
 71
0
 72
1
  1
A
100
AcDbText
 73
2
  0
TEXT
  5
10e
100
AcDbEntity
  8
TEXT
100
AcDbText
 10
84.666667
 20
258.572000
 11
85.344000
 21
258.572000
 40
2.032000
 41
1.000000
 50
180.000000
  7
STANDARD
 71
0
 72
1
  1
10
100
AcDbText
 73
0
  0
CIRCLE
  5
10f
100
AcDbEntity
  8
COND
100
AcDbCircle
 10
98.934000
 20
261.032000
 40
1.274950
  0
CIRCLE
  5
110
100
AcDbEntity
  8
COND2
100
AcDbCircle
 10
98.934000
 20
261.032000
 40
1.274950
  0
CIRCLE
  5
111
100
AcDbEntity
  8
SOLDER_MASK
100
AcDbCircle
 10
98.934000
 20
261.032000
 40
1.274950
  0
INSERT
  5
112
100
AcDbEntity
  8
MANUFACTURING_NCDRILL_FIGURE
100
AcDbBlockReference
  2
FIGURE_DIAMOND
 10
98.934000
 20
261.032000
 41
1.700000
 42
1.700000
 50
0.000000
  0
TEXT
  5
114
100
AcDbEntity
  8
MANUFACTURING_NCDRILL_FIGURE
100
AcDbText
 10
98.367333
 20
260.607000
 11
98.934000
 21
261.032000
 40
0.850000
 41
1.000000
 50
0.000000
  7
STANDARD
 71
0
 72
1
  1
B
100
AcDbText
 73
2
  0
TEXT
  5
115
100
AcDbEntity
  8
TEXT
100
AcDbText
 10
98.256667
 20
261.032000
 11
98.934000
 21
261.032000
 40
2.032000
 41
1.000000
 50
180.000000
  7
STANDARD
 71
0
 72
1
  1
MH1
100
AcDbText
 73
0
  0
CIRCLE
  5
116
100
AcDbEntity
  8
COND
100
AcDbCircle
 10
83.184000
 20
261.032000
 40
1.274950
  0
CIRCLE
  5
117
100
AcDbEntity
  8
COND2
100
AcDbCircle
 10
83.184000
 20
261.032000
 40
1.274950
  0
CIRCLE
  5
118
100
AcDbEntity
  8
SOLDER_MASK
100
AcDbCircle
 10
83.184000
 20
261.032000
 40
1.274950
  0
INSERT
  5
119
100
AcDbEntity
  8
MANUFACTURING_NCDRILL_FIGURE
100
AcDbBlockReference
  2
FIGURE_DIAMOND
 10
83.184000
 20
261.032000
 41
1.700000
 42
1.700000
 50
0.000000
  0
TEXT
  5
11b
100
AcDbEntity
  8
MANUFACTURING_NCDRILL_FIGURE
100
AcDbText
 10
82.617333
 20
260.607000
 11
83.184000
 21
261.032000
 40
0.850000
 41
1.000000
 50
0.000000
  7
STANDARD
 71
0
 72
1
  1
B
100
AcDbText
 73
2
  0
TEXT
  5
11c
100
AcDbEntity
  8
TEXT
100
AcDbText
 10
82.506667
 20
261.032000
 11
83.184000
 21
261.032000
 40
2.032000
 41
1.000000
 50
180.000000
  7
STANDARD
 71
0
 72
1
  1
MH2
100
AcDbText
 73
0
  0
CIRCLE
  5
11d
100
AcDbEntity
  8
COND
100
AcDbCircle
 10
85.344000
 20
264.922000
 40
1.700000
  0
CIRCLE
  5
11e
100
AcDbEntity
  8
COND2
100
AcDbCircle
 10
85.344000
 20
264.922000
 40
1.700000
  0
INSERT
  5
11f
100
AcDbEntity
  8
MANUFACTURING_NCDRILL_FIGURE
100
AcDbBlockReference
  2
FIGURE_DIAMOND
 10
85.344000
 20
264.922000
 41
3.400000
 42
3.400000
 50
0.000000
  0
TEXT
  5
121
100
AcDbEntity
  8
MANUFACTURING_NCDRILL_FIGURE
100
AcDbText
 10
84.210667
 20
264.072000
 11
85.344000
 21
264.922000
 40
1.700000
 41
1.000000
 50
0.000000
  7
STANDARD
 71
0
 72
1
  1
C
100
AcDbText
 73
2
  0
CIRCLE
  5
122
100
AcDbEntity
  8
COND
100
AcDbCircle
 10
96.774000
 20
264.922000
 40
1.700000
  0
CIRCLE
  5
123
100
AcDbEntity
  8
COND2
100
AcDbCircle
 10
96.774000
 20
264.922000
 40
1.700000
  0
INSERT
  5
124
100
AcDbEntity
  8
MANUFACTURING_NCDRILL_FIGURE
100
AcDbBlockReference
  2
FIGURE_DIAMOND
 10
96.774000
 20
264.922000
 41
3.400000
 42
3.400000
 50
0.000000
  0
TEXT
  5
126
100
AcDbEntity
  8
MANUFACTURING_NCDRILL_FIGURE
100
AcDbText
 10
95.640667
 20
264.072000
 11
96.774000
 21
264.922000
 40
1.700000
 41
1.000000
 50
0.000000
  7
STANDARD
 71
0
 72
1
  1
C
100
AcDbText
 73
2
  0
LWPOLYLINE
  5
127
100
AcDbEntity
  8
ASSEMBLY
100
AcDbPolyline
 90
4
 70
1
 39
0.000000
 10
99.059000
 20
271.802000
 40
0.000000
 41
0.000000
 42
-1.000000
 10
99.059000
 20
271.602000
 40
0.000000
 41
0.000000
 42
0.000000
 10
83.059000
 20
271.602000
 40
0.000000
 41
0.000000
 42
-1.000000
 10
83.059000
 20
271.802000
 40
0.000000
 41
0.000000
 42
0.000000
  0
LWPOLYLINE
  5
12c
100
AcDbEntity
  8
ASSEMBLY
100
AcDbPolyline
 90
4
 70
1
 39
0.000000
 10
82.959000
 20
271.702000
 40
0.000000
 41
0.000000
 42
-1.000000
 10
83.159000
 20
271.702000
 40
0.000000
 41
0.000000
 42
0.000000
 10
83.159000
 20
255.002000
 40
0.000000
 41
0.000000
 42
-1.000000
 10
82.959000
 20
255.002000
 40
0.000000
 41
0.000000
 42
0.000000
  0
LWPOLYLINE
  5
131
100
AcDbEntity
  8
ASSEMBLY
100
AcDbPolyline
 90
4
 70
1
 39
0.000000
 10
83.059000
 20
254.902000
 40
0.000000
 41
0.000000
 42
-1.000000
 10
83.059000
 20
255.102000
 40
0.000000
 41
0.000000
 42
0.000000
 10
99.059000
 20
255.102000
 40
0.000000
 41
0.000000
 42
-1.000000
 10
99.059000
 20
254.902000
 40
0.000000
 41
0.000000
 42
0.000000
  0
LWPOLYLINE
  5
136
100
AcDbEntity
  8
ASSEMBLY
100
AcDbPolyline
 90
4
 70
1
 39
0.000000
 10
99.159000
 20
255.002000
 40
0.000000
 41
0.000000
 42
-1.000000
 10
98.959000
 20
255.002000
 40
0.000000
 41
0.000000
 42
0.000000
 10
98.959000
 20
271.702000
 40
0.000000
 41
0.000000
 42
-1.000000
 10
99.159000
 20
271.702000
 40
0.000000
 41
0.000000
 42
0.000000
  0
LWPOLYLINE
  5
13b
100
AcDbEntity
  8
SILK_SCREEN
100
AcDbPolyline
 90
4
 70
1
 39
0.000000
 10
99.009000
 20
259.172000
 40
0.000000
 41
0.000000
 42
-1.000000
 10
99.109000
 20
259.172000
 40
0.000000
 41
0.000000
 42
0.000000
 10
99.109000
 20
255.002000
 40
0.000000
 41
0.000000
 42
-1.000000
 10
99.009000
 20
255.002000
 40
0.000000
 41
0.000000
 42
0.000000
  0
LWPOLYLINE
  5
140
100
AcDbEntity
  8
SILK_SCREEN
100
AcDbPolyline
 90
4
 70
1
 39
0.000000
 10
99.109000
 20
255.002000
 40
0.000000
 41
0.000000
 42
-1.000000
 10
99.009000
 20
255.002000
 40
0.000000
 41
0.000000
 42
0.000000
 10
99.009000
 20
259.172000
 40
0.000000
 41
0.000000
 42
-1.000000
 10
99.109000
 20
259.172000
 40
0.000000
 41
0.000000
 42
0.000000
  0
LWPOLYLINE
  5
145
100
AcDbEntity
  8
SILK_SCREEN
100
AcDbPolyline
 90
4
 70
1
 39
0.000000
 10
99.059000
 20
255.052000
 40
0.000000
 41
0.000000
 42
-1.000000
 10
99.059000
 20
254.952000
 40
0.000000
 41
0.000000
 42
0.000000
 10
83.059000
 20
254.952000
 40
0.000000
 41
0.000000
 42
-1.000000
 10
83.059000
 20
255.052000
 40
0.000000
 41
0.000000
 42
0.000000
  0
LWPOLYLINE
  5
14a
100
AcDbEntity
  8
SILK_SCREEN
100
AcDbPolyline
 90
4
 70
1
 39
0.000000
 10
83.059000
 20
254.952000
 40
0.000000
 41
0.000000
 42
-1.000000
 10
83.059000
 20
255.052000
 40
0.000000
 41
0.000000
 42
0.000000
 10
99.059000
 20
255.052000
 40
0.000000
 41
0.000000
 42
-1.000000
 10
99.059000
 20
254.952000
 40
0.000000
 41
0.000000
 42
0.000000
  0
LWPOLYLINE
  5
14f
100
AcDbEntity
  8
SILK_SCREEN
100
AcDbPolyline
 90
4
 70
1
 39
0.000000
 10
83.109000
 20
255.002000
 40
0.000000
 41
0.000000
 42
-1.000000
 10
83.009000
 20
255.002000
 40
0.000000
 41
0.000000
 42
0.000000
 10
83.009000
 20
259.172000
 40
0.000000
 41
0.000000
 42
-1.000000
 10
83.109000
 20
259.172000
 40
0.000000
 41
0.000000
 42
0.000000
  0
LWPOLYLINE
  5
154
100
AcDbEntity
  8
SILK_SCREEN
100
AcDbPolyline
 90
4
 70
1
 39
0.000000
 10
83.009000
 20
259.172000
 40
0.000000
 41
0.000000
 42
-1.000000
 10
83.109000
 20
259.172000
 40
0.000000
 41
0.000000
 42
0.000000
 10
83.109000
 20
255.002000
 40
0.000000
 41
0.000000
 42
-1.000000
 10
83.009000
 20
255.002000
 40
0.000000
 41
0.000000
 42
0.000000
  0
LWPOLYLINE
  5
159
100
AcDbEntity
  8
SILK_SCREEN
100
AcDbPolyline
 90
4
 70
1
 39
0.000000
 10
83.109000
 20
262.922000
 40
0.000000
 41
0.000000
 42
-1.000000
 10
83.009000
 20
262.922000
 40
0.000000
 41
0.000000
 42
0.000000
 10
83.009000
 20
271.672000
 40
0.000000
 41
0.000000
 42
-1.000000
 10
83.109000
 20
271.672000
 40
0.000000
 41
0.000000
 42
0.000000
  0
LWPOLYLINE
  5
15e
100
AcDbEntity
  8
SILK_SCREEN
100
AcDbPolyline
 90
4
 70
1
 39
0.000000
 10
83.009000
 20
271.672000
 40
0.000000
 41
0.000000
 42
-1.000000
 10
83.109000
 20
271.672000
 40
0.000000
 41
0.000000
 42
0.000000
 10
83.109000
 20
262.922000
 40
0.000000
 41
0.000000
 42
-1.000000
 10
83.009000
 20
262.922000
 40
0.000000
 41
0.000000
 42
0.000000
  0
LWPOLYLINE
  5
163
100
AcDbEntity
  8
SILK_SCREEN
100
AcDbPolyline
 90
4
 70
1
 39
0.000000
 10
83.059000
 20
271.622000
 40
0.000000
 41
0.000000
 42
-1.000000
 10
83.059000
 20
271.722000
 40
0.000000
 41
0.000000
 42
0.000000
 10
99.094000
 20
271.722000
 40
0.000000
 41
0.000000
 42
-1.000000
 10
99.094000
 20
271.622000
 40
0.000000
 41
0.000000
 42
0.000000
  0
LWPOLYLINE
  5
168
100
AcDbEntity
  8
SILK_SCREEN
100
AcDbPolyline
 90
4
 70
1
 39
0.000000
 10
99.094000
 20
271.722000
 40
0.000000
 41
0.000000
 42
-1.000000
 10
99.094000
 20
271.622000
 40
0.000000
 41
0.000000
 42
0.000000
 10
83.059000
 20
271.622000
 40
0.000000
 41
0.000000
 42
-1.000000
 10
83.059000
 20
271.722000
 40
0.000000
 41
0.000000
 42
0.000000
  0
LWPOLYLINE
  5
16d
100
AcDbEntity
  8
SILK_SCREEN
100
AcDbPolyline
 90
4
 70
1
 39
0.000000
 10
99.009000
 20
271.672000
 40
0.000000
 41
0.000000
 42
-1.000000
 10
99.109000
 20
271.672000
 40
0.000000
 41
0.000000
 42
0.000000
 10
99.109000
 20
262.922000
 40
0.000000
 41
0.000000
 42
-1.000000
 10
99.009000
 20
262.922000
 40
0.000000
 41
0.000000
 42
0.000000
  0
LWPOLYLINE
  5
172
100
AcDbEntity
  8
SILK_SCREEN
100
AcDbPolyline
 90
4
 70
1
 39
0.000000
 10
99.109000
 20
262.922000
 40
0.000000
 41
0.000000
 42
-1.000000
 10
99.009000
 20
262.922000
 40
0.000000
 41
0.000000
 42
0.000000
 10
99.009000
 20
271.672000
 40
0.000000
 41
0.000000
 42
-1.000000
 10
99.109000
 20
271.672000
 40
0.000000
 41
0.000000
 42
0.000000
  0
LWPOLYLINE
  5
177
100
AcDbEntity
  8
SILK_SCREEN
100
AcDbPolyline
 90
5
 70
1
 39
0.000000
 10
96.644000
 20
254.322000
 40
0.000000
 41
0.000000
 42
-0.131677
 10
96.657400
 20
254.372000
 40
0.000000
 41
0.000000
 42
-0.131677
 10
96.644000
 20
254.422000
 40
0.000000
 41
0.000000
 42
-0.414214
 10
96.744000
 20
254.522000
 40
0.000000
 41
0.000000
 42
-1.000000
 10
96.744000
 20
254.222000
 40
0.000000
 41
0.000000
 42
-0.414214
  0
LWPOLYLINE
  5
17d
100
AcDbEntity
  8
SILK_SCREEN
100
AcDbPolyline
 90
5
 70
1
 39
0.000000
 10
96.844000
 20
254.422000
 40
0.000000
 41
0.000000
 42
-0.131677
 10
96.830600
 20
254.372000
 40
0.000000
 41
0.000000
 42
-0.131677
 10
96.844000
 20
254.322000
 40
0.000000
 41
0.000000
 42
-0.414214
 10
96.744000
 20
254.222000
 40
0.000000
 41
0.000000
 42
-1.000000
 10
96.744000
 20
254.522000
 40
0.000000
 41
0.000000
 42
-0.414214
  0
LWPOLYLINE
  5
183
100
AcDbEntity
  8
SILK_SCREEN
100
AcDbPolyline
 90
5
 70
1
 39
0.000000
 10
96.644000
 20
254.322000
 40
0.000000
 41
0.000000
 42
-0.131677
 10
96.657400
 20
254.372000
 40
0.000000
 41
0.000000
 42
-0.131677
 10
96.644000
 20
254.422000
 40
0.000000
 41
0.000000
 42
-0.414214
 10
96.744000
 20
254.522000
 40
0.000000
 41
0.000000
 42
-1.000000
 10
96.744000
 20
254.222000
 40
0.000000
 41
0.000000
 42
-0.414214
  0
POLYLINE
  5
189
100
AcDbEntity
  8
BOUND
100
AcDb2dPolyline
 66
1
 70
1
 40
0.000000
 41
0.000000
 39
0.000000
  0
VERTEX
  5
18b
100
AcDbEntity
  8
BOUND
100
AcDbVertex
100
AcDb2dVertex
 10
101.209000
 20
272.702000
 40
0.000000
 41
0.000000
 42
0.000000
  0
VERTEX
  5
18c
100
AcDbEntity
  8
BOUND
100
AcDbVertex
100
AcDb2dVertex
 10
101.209000
 20
253.322000
 40
0.000000
 41
0.000000
 42
0.000000
  0
VERTEX
  5
18d
100
AcDbEntity
  8
BOUND
100
AcDbVertex
100
AcDb2dVertex
 10
80.909000
 20
253.322000
 40
0.000000
 41
0.000000
 42
0.000000
  0
VERTEX
  5
18e
100
AcDbEntity
  8
BOUND
100
AcDbVertex
100
AcDb2dVertex
 10
80.909000
 20
272.702000
 40
0.000000
 41
0.000000
 42
0.000000
  0
SEQEND
  5
18a
100
AcDbEntity
  0
TEXT
  5
18f
100
AcDbEntity
  8
TEXT
100
AcDbText
 10
91.059000
 20
263.012000
 11
0.000000
 21
0.000000
 40
0.787400
 41
1.000000
 50
180.000000
  7
STANDARD
 71
0
 72
0
  1
J2
100
AcDbText
 73
0
  0
TEXT
  5
190
100
AcDbEntity
  8
TEXT
100
AcDbText
 10
91.059000
 20
263.012000
 11
0.000000
 21
0.000000
 40
0.787400
 41
1.000000
 50
180.000000
  7
STANDARD
 71
0
 72
0
  1
J2
100
AcDbText
 73
0
  0
POLYLINE
  5
191
100
AcDbEntity
  8
COND
100
AcDb2dPolyline
 66
1
 70
1
 40
0.000000
 41
0.000000
 39
0.000000
  0
VERTEX
  5
193
100
AcDbEntity
  8
COND
100
AcDbVertex
100
AcDb2dVertex
 10
102.512000
 20
238.168950
 40
0.000000
 41
0.000000
 42
0.000000
  0
VERTEX
  5
194
100
AcDbEntity
  8
COND
100
AcDbVertex
100
AcDb2dVertex
 10
102.512000
 20
237.319050
 40
0.000000
 41
0.000000
 42
0.000000
  0
VERTEX
  5
195
100
AcDbEntity
  8
COND
100
AcDbVertex
100
AcDb2dVertex
 10
102.212000
 20
237.319050
 40
0.000000
 41
0.000000
 42
0.000000
  0
VERTEX
  5
196
100
AcDbEntity
  8
COND
100
AcDbVertex
100
AcDb2dVertex
 10
102.212000
 20
238.168950
 40
0.000000
 41
0.000000
 42
0.000000
  0
SEQEND
  5
192
100
AcDbEntity
  0
POLYLINE
  5
197
100
AcDbEntity
  8
SOLDER_MASK
100
AcDb2dPolyline
 66
1
 70
1
 40
0.000000
 41
0.000000
 39
0.000000
  0
VERTEX
  5
199
100
AcDbEntity
  8
SOLDER_MASK
100
AcDbVertex
100
AcDb2dVertex
 10
102.512000
 20
238.168950
 40
0.000000
 41
0.000000
 42
0.000000
  0
VERTEX
  5
19a
100
AcDbEntity
  8
SOLDER_MASK
100
AcDbVertex
100
AcDb2dVertex
 10
102.512000
 20
237.319050
 40
0.000000
 41
0.000000
 42
0.000000
  0
VERTEX
  5
19b
100
AcDbEntity
  8
SOLDER_MASK
100
AcDbVertex
100
AcDb2dVertex
 10
102.212000
 20
237.319050
 40
0.000000
 41
0.000000
 42
0.000000
  0
VERTEX
  5
19c
100
AcDbEntity
  8
SOLDER_MASK
100
AcDbVertex
100
AcDb2dVertex
 10
102.212000
 20
238.168950
 40
0.000000
 41
0.000000
 42
0.000000
  0
SEQEND
  5
198
100
AcDbEntity
  0
POLYLINE
  5
19d
100
AcDbEntity
  8
BOND
100
AcDb2dPolyline
 66
1
 70
1
 40
0.000000
 41
0.000000
 39
0.000000
  0
VERTEX
  5
19f
100
AcDbEntity
  8
BOND
100
AcDbVertex
100
AcDb2dVertex
 10
102.512000
 20
238.168950
 40
0.000000
 41
0.000000
 42
0.000000
  0
VERTEX
  5
1a0
100
AcDbEntity
  8
BOND
100
AcDbVertex
100
AcDb2dVertex
 10
102.512000
 20
237.319050
 40
0.000000
 41
0.000000
 42
0.000000
  0
VERTEX
  5
1a1
100
AcDbEntity
  8
BOND
100
AcDbVertex
100
AcDb2dVertex
 10
102.212000
 20
237.319050
 40
0.000000
 41
0.000000
 42
0.000000
  0
VERTEX
  5
1a2
100
AcDbEntity
  8
BOND
100
AcDbVertex
100
AcDb2dVertex
 10
102.212000
 20
238.168950
 40
0.000000
 41
0.000000
 42
0.000000
  0
SEQEND
  5
19e
100
AcDbEntity
  0
TEXT
  5
1a3
100
AcDbEntity
  8
TEXT
100
AcDbText
 10
101.684667
 20
237.744000
 11
102.362000
 21
237.744000
 40
2.032000
 41
1.000000
 50
0.000000
  7
STANDARD
 71
0
 72
1
  1
A1
100
AcDbText
 73
0
  0
POLYLINE
  5
1a4
100
AcDbEntity
  8
COND
100
AcDb2dPolyline
 66
1
 70
1
 40
0.000000
 41
0.000000
 39
0.000000
  0
VERTEX
  5
1a6
100
AcDbEntity
  8
COND
100
AcDbVertex
100
AcDb2dVertex
 10
104.012000
 20
238.168950
 40
0.000000
 41
0.000000
 42
0.000000
  0
VERTEX
  5
1a7
100
AcDbEntity
  8
COND
100
AcDbVertex
100
AcDb2dVertex
 10
104.012000
 20
237.319050
 40
0.000000
 41
0.000000
 42
0.000000
  0
VERTEX
  5
1a8
100
AcDbEntity
  8
COND
100
AcDbVertex
100
AcDb2dVertex
 10
103.712000
 20
237.319050
 40
0.000000
 41
0.000000
 42
0.000000
  0
VERTEX
  5
1a9
100
AcDbEntity
  8
COND
100
AcDbVertex
100
AcDb2dVertex
 10
103.712000
 20
238.168950
 40
0.000000
 41
0.000000
 42
0.000000
  0
SEQEND
  5
1a5
100
AcDbEntity
  0
POLYLINE
  5
1aa
100
AcDbEntity
  8
SOLDER_MASK
100
AcDb2dPolyline
 66
1
 70
1
 40
0.000000
 41
0.000000
 39
0.000000
  0
VERTEX
  5
1ac
100
AcDbEntity
  8
SOLDER_MASK
100
AcDbVertex
100
AcDb2dVertex
 10
104.012000
 20
238.168950
 40
0.000000
 41
0.000000
 42
0.000000
  0
VERTEX
  5
1ad
100
AcDbEntity
  8
SOLDER_MASK
100
AcDbVertex
100
AcDb2dVertex
 10
104.012000
 20
237.319050
 40
0.000000
 41
0.000000
 42
0.000000
  0
VERTEX
  5
1ae
100
AcDbEntity
  8
SOLDER_MASK
100
AcDbVertex
100
AcDb2dVertex
 10
103.712000
 20
237.319050
 40
0.000000
 41
0.000000
 42
0.000000
  0
VERTEX
  5
1af
100
AcDbEntity
  8
SOLDER_MASK
100
AcDbVertex
100
AcDb2dVertex
 10
103.712000
 20
238.168950
 40
0.000000
 41
0.000000
 42
0.000000
  0
SEQEND
  5
1ab
100
AcDbEntity
  0
POLYLINE
  5
1b0
100
AcDbEntity
  8
BOND
100
AcDb2dPolyline
 66
1
 70
1
 40
0.000000
 41
0.000000
 39
0.000000
  0
VERTEX
  5
1b2
100
AcDbEntity
  8
BOND
100
AcDbVertex
100
AcDb2dVertex
 10
104.012000
 20
238.168950
 40
0.000000
 41
0.000000
 42
0.000000
  0
VERTEX
  5
1b3
100
AcDbEntity
  8
BOND
100
AcDbVertex
100
AcDb2dVertex
 10
104.012000
 20
237.319050
 40
0.000000
 41
0.000000
 42
0.000000
  0
VERTEX
  5
1b4
100
AcDbEntity
  8
BOND
100
AcDbVertex
100
AcDb2dVertex
 10
103.712000
 20
237.319050
 40
0.000000
 41
0.000000
 42
0.000000
  0
VERTEX
  5
1b5
100
AcDbEntity
  8
BOND
100
AcDbVertex
100
AcDb2dVertex
 10
103.712000
 20
238.168950
 40
0.000000
 41
0.000000
 42
0.000000
  0
SEQEND
  5
1b1
100
AcDbEntity
  0
TEXT
  5
1b6
100
AcDbEntity
  8
TEXT
100
AcDbText
 10
103.184667
 20
237.744000
 11
103.862000
 21
237.744000
 40
2.032000
 41
1.000000
 50
0.000000
  7
STANDARD
 71
0
 72
1
  1
A4
100
AcDbText
 73
0
  0
POLYLINE
  5
1b7
100
AcDbEntity
  8
COND
100
AcDb2dPolyline
 66
1
 70
1
 40
0.000000
 41
0.000000
 39
0.000000
  0
VERTEX
  5
1b9
100
AcDbEntity
  8
COND
100
AcDbVertex
100
AcDb2dVertex
 10
104.512000
 20
238.168950
 40
0.000000
 41
0.000000
 42
0.000000
  0
VERTEX
  5
1ba
100
AcDbEntity
  8
COND
100
AcDbVertex
100
AcDb2dVertex
 10
104.512000
 20
237.319050
 40
0.000000
 41
0.000000
 42
0.000000
  0
VERTEX
  5
1bb
100
AcDbEntity
  8
COND
100
AcDbVertex
100
AcDb2dVertex
 10
104.212000
 20
237.319050
 40
0.000000
 41
0.000000
 42
0.000000
  0
VERTEX
  5
1bc
100
AcDbEntity
  8
COND
100
AcDbVertex
100
AcDb2dVertex
 10
104.212000
 20
238.168950
 40
0.000000
 41
0.000000
 42
0.000000
  0
SEQEND
  5
1b8
100
AcDbEntity
  0
POLYLINE
  5
1bd
100
AcDbEntity
  8
SOLDER_MASK
100
AcDb2dPolyline
 66
1
 70
1
 40
0.000000
 41
0.000000
 39
0.000000
  0
VERTEX
  5
1bf
100
AcDbEntity
  8
SOLDER_MASK
100
AcDbVertex
100
AcDb2dVertex
 10
104.512000
 20
238.168950
 40
0.000000
 41
0.000000
 42
0.000000
  0
VERTEX
  5
1c0
100
AcDbEntity
  8
SOLDER_MASK
100
AcDbVertex
100
AcDb2dVertex
 10
104.512000
 20
237.319050
 40
0.000000
 41
0.000000
 42
0.000000
  0
VERTEX
  5
1c1
100
AcDbEntity
  8
SOLDER_MASK
100
AcDbVertex
100
AcDb2dVertex
 10
104.212000
 20
237.319050
 40
0.000000
 41
0.000000
 42
0.000000
  0
VERTEX
  5
1c2
100
AcDbEntity
  8
SOLDER_MASK
100
AcDbVertex
100
AcDb2dVertex
 10
104.212000
 20
238.168950
 40
0.000000
 41
0.000000
 42
0.000000
  0
SEQEND
  5
1be
100
AcDbEntity
  0
POLYLINE
  5
1c3
100
AcDbEntity
  8
BOND
100
AcDb2dPolyline
 66
1
 70
1
 40
0.000000
 41
0.000000
 39
0.000000
  0
VERTEX
  5
1c5
100
AcDbEntity
  8
BOND
100
AcDbVertex
100
AcDb2dVertex
 10
104.512000
 20
238.168950
 40
0.000000
 41
0.000000
 42
0.000000
  0
VERTEX
  5
1c6
100
AcDbEntity
  8
BOND
100
AcDbVertex
100
AcDb2dVertex
 10
104.512000
 20
237.319050
 40
0.000000
 41
0.000000
 42
0.000000
  0
VERTEX
  5
1c7
100
AcDbEntity
  8
BOND
100
AcDbVertex
100
AcDb2dVertex
 10
104.212000
 20
237.319050
 40
0.000000
 41
0.000000
 42
0.000000
  0
VERTEX
  5
1c8
100
AcDbEntity
  8
BOND
100
AcDbVertex
100
AcDb2dVertex
 10
104.212000
 20
238.168950
 40
0.000000
 41
0.000000
 42
0.000000
  0
SEQEND
  5
1c4
100
AcDbEntity
  0
TEXT
  5
1c9
100
AcDbEntity
  8
TEXT
100
AcDbText
 10
103.684667
 20
237.744000
 11
104.362000
 21
237.744000
 40
2.032000
 41
1.000000
 50
0.000000
  7
STANDARD
 71
0
 72
1
  1
A5
100
AcDbText
 73
0
  0
POLYLINE
  5
1ca
100
AcDbEntity
  8
COND
100
AcDb2dPolyline
 66
1
 70
1
 40
0.000000
 41
0.000000
 39
0.000000
  0
VERTEX
  5
1cc
100
AcDbEntity
  8
COND
100
AcDbVertex
100
AcDb2dVertex
 10
105.012000
 20
238.168950
 40
0.000000
 41
0.000000
 42
0.000000
  0
VERTEX
  5
1cd
100
AcDbEntity
  8
COND
100
AcDbVertex
100
AcDb2dVertex
 10
105.012000
 20
237.319050
 40
0.000000
 41
0.000000
 42
0.000000
  0
VERTEX
  5
1ce
100
AcDbEntity
  8
COND
100
AcDbVertex
100
AcDb2dVertex
 10
104.712000
 20
237.319050
 40
0.000000
 41
0.000000
 42
0.000000
  0
VERTEX
  5
1cf
100
AcDbEntity
  8
COND
100
AcDbVertex
100
AcDb2dVertex
 10
104.712000
 20
238.168950
 40
0.000000
 41
0.000000
 42
0.000000
  0
SEQEND
  5
1cb
100
AcDbEntity
  0
POLYLINE
  5
1d0
100
AcDbEntity
  8
SOLDER_MASK
100
AcDb2dPolyline
 66
1
 70
1
 40
0.000000
 41
0.000000
 39
0.000000
  0
VERTEX
  5
1d2
100
AcDbEntity
  8
SOLDER_MASK
100
AcDbVertex
100
AcDb2dVertex
 10
105.012000
 20
238.168950
 40
0.000000
 41
0.000000
 42
0.000000
  0
VERTEX
  5
1d3
100
AcDbEntity
  8
SOLDER_MASK
100
AcDbVertex
100
AcDb2dVertex
 10
105.012000
 20
237.319050
 40
0.000000
 41
0.000000
 42
0.000000
  0
VERTEX
  5
1d4
100
AcDbEntity
  8
SOLDER_MASK
100
AcDbVertex
100
AcDb2dVertex
 10
104.712000
 20
237.319050
 40
0.000000
 41
0.000000
 42
0.000000
  0
VERTEX
  5
1d5
100
AcDbEntity
  8
SOLDER_MASK
100
AcDbVertex
100
AcDb2dVertex
 10
104.712000
 20
238.168950
 40
0.000000
 41
0.000000
 42
0.000000
  0
SEQEND
  5
1d1
100
AcDbEntity
  0
POLYLINE
  5
1d6
100
AcDbEntity
  8
BOND
100
AcDb2dPolyline
 66
1
 70
1
 40
0.000000
 41
0.000000
 39
0.000000
  0
VERTEX
  5
1d8
100
AcDbEntity
  8
BOND
100
AcDbVertex
100
AcDb2dVertex
 10
105.012000
 20
238.168950
 40
0.000000
 41
0.000000
 42
0.000000
  0
VERTEX
  5
1d9
100
AcDbEntity
  8
BOND
100
AcDbVertex
100
AcDb2dVertex
 10
105.012000
 20
237.319050
 40
0.000000
 41
0.000000
 42
0.000000
  0
VERTEX
  5
1da
100
AcDbEntity
  8
BOND
100
AcDbVertex
100
AcDb2dVertex
 10
104.712000
 20
237.319050
 40
0.000000
 41
0.000000
 42
0.000000
  0
VERTEX
  5
1db
100
AcDbEntity
  8
BOND
100
AcDbVertex
100
AcDb2dVertex
 10
104.712000
 20
238.168950
 40
0.000000
 41
0.000000
 42
0.000000
  0
SEQEND
  5
1d7
100
AcDbEntity
  0
TEXT
  5
1dc
100
AcDbEntity
  8
TEXT
100
AcDbText
 10
104.184667
 20
237.744000
 11
104.862000
 21
237.744000
 40
2.032000
 41
1.000000
 50
0.000000
  7
STANDARD
 71
0
 72
1
  1
A6
100
AcDbText
 73
0
  0
POLYLINE
  5
1dd
100
AcDbEntity
  8
COND
100
AcDb2dPolyline
 66
1
 70
1
 40
0.000000
 41
0.000000
 39
0.000000
  0
VERTEX
  5
1df
100
AcDbEntity
  8
COND
100
AcDbVertex
100
AcDb2dVertex
 10
105.512000
 20
238.168950
 40
0.000000
 41
0.000000
 42
0.000000
  0
VERTEX
  5
1e0
100
AcDbEntity
  8
COND
100
AcDbVertex
100
AcDb2dVertex
 10
105.512000
 20
237.319050
 40
0.000000
 41
0.000000
 42
0.000000
  0
VERTEX
  5
1e1
100
AcDbEntity
  8
COND
100
AcDbVertex
100
AcDb2dVertex
 10
105.212000
 20
237.319050
 40
0.000000
 41
0.000000
 42
0.000000
  0
VERTEX
  5
1e2
100
AcDbEntity
  8
COND
100
AcDbVertex
100
AcDb2dVertex
 10
105.212000
 20
238.168950
 40
0.000000
 41
0.000000
 42
0.000000
  0
SEQEND
  5
1de
100
AcDbEntity
  0
POLYLINE
  5
1e3
100
AcDbEntity
  8
SOLDER_MASK
100
AcDb2dPolyline
 66
1
 70
1
 40
0.000000
 41
0.000000
 39
0.000000
  0
VERTEX
  5
1e5
100
AcDbEntity
  8
SOLDER_MASK
100
AcDbVertex
100
AcDb2dVertex
 10
105.512000
 20
238.168950
 40
0.000000
 41
0.000000
 42
0.000000
  0
VERTEX
  5
1e6
100
AcDbEntity
  8
SOLDER_MASK
100
AcDbVertex
100
AcDb2dVertex
 10
105.512000
 20
237.319050
 40
0.000000
 41
0.000000
 42
0.000000
  0
VERTEX
  5
1e7
100
AcDbEntity
  8
SOLDER_MASK
100
AcDbVertex
100
AcDb2dVertex
 10
105.212000
 20
237.319050
 40
0.000000
 41
0.000000
 42
0.000000
  0
VERTEX
  5
1e8
100
AcDbEntity
  8
SOLDER_MASK
100
AcDbVertex
100
AcDb2dVertex
 10
105.212000
 20
238.168950
 40
0.000000
 41
0.000000
 42
0.000000
  0
SEQEND
  5
1e4
100
AcDbEntity
  0
POLYLINE
  5
1e9
100
AcDbEntity
  8
BOND
100
AcDb2dPolyline
 66
1
 70
1
 40
0.000000
 41
0.000000
 39
0.000000
  0
VERTEX
  5
1eb
100
AcDbEntity
  8
BOND
100
AcDbVertex
100
AcDb2dVertex
 10
105.512000
 20
238.168950
 40
0.000000
 41
0.000000
 42
0.000000
  0
VERTEX
  5
1ec
100
AcDbEntity
  8
BOND
100
AcDbVertex
100
AcDb2dVertex
 10
105.512000
 20
237.319050
 40
0.000000
 41
0.000000
 42
0.000000
  0
VERTEX
  5
1ed
100
AcDbEntity
  8
BOND
100
AcDbVertex
100
AcDb2dVertex
 10
105.212000
 20
237.319050
 40
0.000000
 41
0.000000
 42
0.000000
  0
VERTEX
  5
1ee
100
AcDbEntity
  8
BOND
100
AcDbVertex
100
AcDb2dVertex
 10
105.212000
 20
238.168950
 40
0.000000
 41
0.000000
 42
0.000000
  0
SEQEND
  5
1ea
100
AcDbEntity
  0
TEXT
  5
1ef
100
AcDbEntity
  8
TEXT
100
AcDbText
 10
104.684667
 20
237.744000
 11
105.362000
 21
237.744000
 40
2.032000
 41
1.000000
 50
0.000000
  7
STANDARD
 71
0
 72
1
  1
A7
100
AcDbText
 73
0
  0
POLYLINE
  5
1f0
100
AcDbEntity
  8
COND
100
AcDb2dPolyline
 66
1
 70
1
 40
0.000000
 41
0.000000
 39
0.000000
  0
VERTEX
  5
1f2
100
AcDbEntity
  8
COND
100
AcDbVertex
100
AcDb2dVertex
 10
106.012000
 20
238.168950
 40
0.000000
 41
0.000000
 42
0.000000
  0
VERTEX
  5
1f3
100
AcDbEntity
  8
COND
100
AcDbVertex
100
AcDb2dVertex
 10
106.012000
 20
237.319050
 40
0.000000
 41
0.000000
 42
0.000000
  0
VERTEX
  5
1f4
100
AcDbEntity
  8
COND
100
AcDbVertex
100
AcDb2dVertex
 10
105.712000
 20
237.319050
 40
0.000000
 41
0.000000
 42
0.000000
  0
VERTEX
  5
1f5
100
AcDbEntity
  8
COND
100
AcDbVertex
100
AcDb2dVertex
 10
105.712000
 20
238.168950
 40
0.000000
 41
0.000000
 42
0.000000
  0
SEQEND
  5
1f1
100
AcDbEntity
  0
POLYLINE
  5
1f6
100
AcDbEntity
  8
SOLDER_MASK
100
AcDb2dPolyline
 66
1
 70
1
 40
0.000000
 41
0.000000
 39
0.000000
  0
VERTEX
  5
1f8
100
AcDbEntity
  8
SOLDER_MASK
100
AcDbVertex
100
AcDb2dVertex
 10
106.012000
 20
238.168950
 40
0.000000
 41
0.000000
 42
0.000000
  0
VERTEX
  5
1f9
100
AcDbEntity
  8
SOLDER_MASK
100
AcDbVertex
100
AcDb2dVertex
 10
106.012000
 20
237.319050
 40
0.000000
 41
0.000000
 42
0.000000
  0
VERTEX
  5
1fa
100
AcDbEntity
  8
SOLDER_MASK
100
AcDbVertex
100
AcDb2dVertex
 10
105.712000
 20
237.319050
 40
0.000000
 41
0.000000
 42
0.000000
  0
VERTEX
  5
1fb
100
AcDbEntity
  8
SOLDER_MASK
100
AcDbVertex
100
AcDb2dVertex
 10
105.712000
 20
238.168950
 40
0.000000
 41
0.000000
 42
0.000000
  0
SEQEND
  5
1f7
100
AcDbEntity
  0
POLYLINE
  5
1fc
100
AcDbEntity
  8
BOND
100
AcDb2dPolyline
 66
1
 70
1
 40
0.000000
 41
0.000000
 39
0.000000
  0
VERTEX
  5
1fe
100
AcDbEntity
  8
BOND
100
AcDbVertex
100
AcDb2dVertex
 10
106.012000
 20
238.168950
 40
0.000000
 41
0.000000
 42
0.000000
  0
VERTEX
  5
1ff
100
AcDbEntity
  8
BOND
100
AcDbVertex
100
AcDb2dVertex
 10
106.012000
 20
237.319050
 40
0.000000
 41
0.000000
 42
0.000000
  0
VERTEX
  5
200
100
AcDbEntity
  8
BOND
100
AcDbVertex
100
AcDb2dVertex
 10
105.712000
 20
237.319050
 40
0.000000
 41
0.000000
 42
0.000000
  0
VERTEX
  5
201
100
AcDbEntity
  8
BOND
100
AcDbVertex
100
AcDb2dVertex
 10
105.712000
 20
238.168950
 40
0.000000
 41
0.000000
 42
0.000000
  0
SEQEND
  5
1fd
100
AcDbEntity
  0
TEXT
  5
202
100
AcDbEntity
  8
TEXT
100
AcDbText
 10
105.184667
 20
237.744000
 11
105.862000
 21
237.744000
 40
2.032000
 41
1.000000
 50
0.000000
  7
STANDARD
 71
0
 72
1
  1
A8
100
AcDbText
 73
0
  0
POLYLINE
  5
203
100
AcDbEntity
  8
COND
100
AcDb2dPolyline
 66
1
 70
1
 40
0.000000
 41
0.000000
 39
0.000000
  0
VERTEX
  5
205
100
AcDbEntity
  8
COND
100
AcDbVertex
100
AcDb2dVertex
 10
106.512000
 20
238.168950
 40
0.000000
 41
0.000000
 42
0.000000
  0
VERTEX
  5
206
100
AcDbEntity
  8
COND
100
AcDbVertex
100
AcDb2dVertex
 10
106.512000
 20
237.319050
 40
0.000000
 41
0.000000
 42
0.000000
  0
VERTEX
  5
207
100
AcDbEntity
  8
COND
100
AcDbVertex
100
AcDb2dVertex
 10
106.212000
 20
237.319050
 40
0.000000
 41
0.000000
 42
0.000000
  0
VERTEX
  5
208
100
AcDbEntity
  8
COND
100
AcDbVertex
100
AcDb2dVertex
 10
106.212000
 20
238.168950
 40
0.000000
 41
0.000000
 42
0.000000
  0
SEQEND
  5
204
100
AcDbEntity
  0
POLYLINE
  5
209
100
AcDbEntity
  8
SOLDER_MASK
100
AcDb2dPolyline
 66
1
 70
1
 40
0.000000
 41
0.000000
 39
0.000000
  0
VERTEX
  5
20b
100
AcDbEntity
  8
SOLDER_MASK
100
AcDbVertex
100
AcDb2dVertex
 10
106.512000
 20
238.168950
 40
0.000000
 41
0.000000
 42
0.000000
  0
VERTEX
  5
20c
100
AcDbEntity
  8
SOLDER_MASK
100
AcDbVertex
100
AcDb2dVertex
 10
106.512000
 20
237.319050
 40
0.000000
 41
0.000000
 42
0.000000
  0
VERTEX
  5
20d
100
AcDbEntity
  8
SOLDER_MASK
100
AcDbVertex
100
AcDb2dVertex
 10
106.212000
 20
237.319050
 40
0.000000
 41
0.000000
 42
0.000000
  0
VERTEX
  5
20e
100
AcDbEntity
  8
SOLDER_MASK
100
AcDbVertex
100
AcDb2dVertex
 10
106.212000
 20
238.168950
 40
0.000000
 41
0.000000
 42
0.000000
  0
SEQEND
  5
20a
100
AcDbEntity
  0
POLYLINE
  5
20f
100
AcDbEntity
  8
BOND
100
AcDb2dPolyline
 66
1
 70
1
 40
0.000000
 41
0.000000
 39
0.000000
  0
VERTEX
  5
211
100
AcDbEntity
  8
BOND
100
AcDbVertex
100
AcDb2dVertex
 10
106.512000
 20
238.168950
 40
0.000000
 41
0.000000
 42
0.000000
  0
VERTEX
  5
212
100
AcDbEntity
  8
BOND
100
AcDbVertex
100
AcDb2dVertex
 10
106.512000
 20
237.319050
 40
0.000000
 41
0.000000
 42
0.000000
  0
VERTEX
  5
213
100
AcDbEntity
  8
BOND
100
AcDbVertex
100
AcDb2dVertex
 10
106.212000
 20
237.319050
 40
0.000000
 41
0.000000
 42
0.000000
  0
VERTEX
  5
214
100
AcDbEntity
  8
BOND
100
AcDbVertex
100
AcDb2dVertex
 10
106.212000
 20
238.168950
 40
0.000000
 41
0.000000
 42
0.000000
  0
SEQEND
  5
210
100
AcDbEntity
  0
TEXT
  5
215
100
AcDbEntity
  8
TEXT
100
AcDbText
 10
105.684667
 20
237.744000
 11
106.362000
 21
237.744000
 40
2.032000
 41
1.000000
 50
0.000000
  7
STANDARD
 71
0
 72
1
  1
A9
100
AcDbText
 73
0
  0
POLYLINE
  5
216
100
AcDbEntity
  8
COND
100
AcDb2dPolyline
 66
1
 70
1
 40
0.000000
 41
0.000000
 39
0.000000
  0
VERTEX
  5
218
100
AcDbEntity
  8
COND
100
AcDbVertex
100
AcDb2dVertex
 10
108.012000
 20
238.168950
 40
0.000000
 41
0.000000
 42
0.000000
  0
VERTEX
  5
219
100
AcDbEntity
  8
COND
100
AcDbVertex
100
AcDb2dVertex
 10
108.012000
 20
237.319050
 40
0.000000
 41
0.000000
 42
0.000000
  0
VERTEX
  5
21a
100
AcDbEntity
  8
COND
100
AcDbVertex
100
AcDb2dVertex
 10
107.712000
 20
237.319050
 40
0.000000
 41
0.000000
 42
0.000000
  0
VERTEX
  5
21b
100
AcDbEntity
  8
COND
100
AcDbVertex
100
AcDb2dVertex
 10
107.712000
 20
238.168950
 40
0.000000
 41
0.000000
 42
0.000000
  0
SEQEND
  5
217
100
AcDbEntity
  0
POLYLINE
  5
21c
100
AcDbEntity
  8
SOLDER_MASK
100
AcDb2dPolyline
 66
1
 70
1
 40
0.000000
 41
0.000000
 39
0.000000
  0
VERTEX
  5
21e
100
AcDbEntity
  8
SOLDER_MASK
100
AcDbVertex
100
AcDb2dVertex
 10
108.012000
 20
238.168950
 40
0.000000
 41
0.000000
 42
0.000000
  0
VERTEX
  5
21f
100
AcDbEntity
  8
SOLDER_MASK
100
AcDbVertex
100
AcDb2dVertex
 10
108.012000
 20
237.319050
 40
0.000000
 41
0.000000
 42
0.000000
  0
VERTEX
  5
220
100
AcDbEntity
  8
SOLDER_MASK
100
AcDbVertex
100
AcDb2dVertex
 10
107.712000
 20
237.319050
 40
0.000000
 41
0.000000
 42
0.000000
  0
VERTEX
  5
221
100
AcDbEntity
  8
SOLDER_MASK
100
AcDbVertex
100
AcDb2dVertex
 10
107.712000
 20
238.168950
 40
0.000000
 41
0.000000
 42
0.000000
  0
SEQEND
  5
21d
100
AcDbEntity
  0
POLYLINE
  5
222
100
AcDbEntity
  8
BOND
100
AcDb2dPolyline
 66
1
 70
1
 40
0.000000
 41
0.000000
 39
0.000000
  0
VERTEX
  5
224
100
AcDbEntity
  8
BOND
100
AcDbVertex
100
AcDb2dVertex
 10
108.012000
 20
238.168950
 40
0.000000
 41
0.000000
 42
0.000000
  0
VERTEX
  5
225
100
AcDbEntity
  8
BOND
100
AcDbVertex
100
AcDb2dVertex
 10
108.012000
 20
237.319050
 40
0.000000
 41
0.000000
 42
0.000000
  0
VERTEX
  5
226
100
AcDbEntity
  8
BOND
100
AcDbVertex
100
AcDb2dVertex
 10
107.712000
 20
237.319050
 40
0.000000
 41
0.000000
 42
0.000000
  0
VERTEX
  5
227
100
AcDbEntity
  8
BOND
100
AcDbVertex
100
AcDb2dVertex
 10
107.712000
 20
238.168950
 40
0.000000
 41
0.000000
 42
0.000000
  0
SEQEND
  5
223
100
AcDbEntity
  0
TEXT
  5
228
100
AcDbEntity
  8
TEXT
100
AcDbText
 10
107.184667
 20
237.744000
 11
107.862000
 21
237.744000
 40
2.032000
 41
1.000000
 50
0.000000
  7
STANDARD
 71
0
 72
1
  1
A12
100
AcDbText
 73
0
  0
POLYLINE
  5
229
100
AcDbEntity
  8
COND
100
AcDb2dPolyline
 66
1
 70
1
 40
0.000000
 41
0.000000
 39
0.000000
  0
VERTEX
  5
22b
100
AcDbEntity
  8
COND
100
AcDbVertex
100
AcDb2dVertex
 10
108.012000
 20
236.498950
 40
0.000000
 41
0.000000
 42
0.000000
  0
VERTEX
  5
22c
100
AcDbEntity
  8
COND
100
AcDbVertex
100
AcDb2dVertex
 10
108.012000
 20
235.649050
 40
0.000000
 41
0.000000
 42
0.000000
  0
VERTEX
  5
22d
100
AcDbEntity
  8
COND
100
AcDbVertex
100
AcDb2dVertex
 10
107.712000
 20
235.649050
 40
0.000000
 41
0.000000
 42
0.000000
  0
VERTEX
  5
22e
100
AcDbEntity
  8
COND
100
AcDbVertex
100
AcDb2dVertex
 10
107.712000
 20
236.498950
 40
0.000000
 41
0.000000
 42
0.000000
  0
SEQEND
  5
22a
100
AcDbEntity
  0
POLYLINE
  5
22f
100
AcDbEntity
  8
SOLDER_MASK
100
AcDb2dPolyline
 66
1
 70
1
 40
0.000000
 41
0.000000
 39
0.000000
  0
VERTEX
  5
231
100
AcDbEntity
  8
SOLDER_MASK
100
AcDbVertex
100
AcDb2dVertex
 10
108.012000
 20
236.498950
 40
0.000000
 41
0.000000
 42
0.000000
  0
VERTEX
  5
232
100
AcDbEntity
  8
SOLDER_MASK
100
AcDbVertex
100
AcDb2dVertex
 10
108.012000
 20
235.649050
 40
0.000000
 41
0.000000
 42
0.000000
  0
VERTEX
  5
233
100
AcDbEntity
  8
SOLDER_MASK
100
AcDbVertex
100
AcDb2dVertex
 10
107.712000
 20
235.649050
 40
0.000000
 41
0.000000
 42
0.000000
  0
VERTEX
  5
234
100
AcDbEntity
  8
SOLDER_MASK
100
AcDbVertex
100
AcDb2dVertex
 10
107.712000
 20
236.498950
 40
0.000000
 41
0.000000
 42
0.000000
  0
SEQEND
  5
230
100
AcDbEntity
  0
POLYLINE
  5
235
100
AcDbEntity
  8
BOND
100
AcDb2dPolyline
 66
1
 70
1
 40
0.000000
 41
0.000000
 39
0.000000
  0
VERTEX
  5
237
100
AcDbEntity
  8
BOND
100
AcDbVertex
100
AcDb2dVertex
 10
108.012000
 20
236.498950
 40
0.000000
 41
0.000000
 42
0.000000
  0
VERTEX
  5
238
100
AcDbEntity
  8
BOND
100
AcDbVertex
100
AcDb2dVertex
 10
108.012000
 20
235.649050
 40
0.000000
 41
0.000000
 42
0.000000
  0
VERTEX
  5
239
100
AcDbEntity
  8
BOND
100
AcDbVertex
100
AcDb2dVertex
 10
107.712000
 20
235.649050
 40
0.000000
 41
0.000000
 42
0.000000
  0
VERTEX
  5
23a
100
AcDbEntity
  8
BOND
100
AcDbVertex
100
AcDb2dVertex
 10
107.712000
 20
236.498950
 40
0.000000
 41
0.000000
 42
0.000000
  0
SEQEND
  5
236
100
AcDbEntity
  0
TEXT
  5
23b
100
AcDbEntity
  8
TEXT
100
AcDbText
 10
107.184667
 20
236.074000
 11
107.862000
 21
236.074000
 40
2.032000
 41
1.000000
 50
0.000000
  7
STANDARD
 71
0
 72
1
  1
B1
100
AcDbText
 73
0
  0
POLYLINE
  5
23c
100
AcDbEntity
  8
COND
100
AcDb2dPolyline
 66
1
 70
1
 40
0.000000
 41
0.000000
 39
0.000000
  0
VERTEX
  5
23e
100
AcDbEntity
  8
COND
100
AcDbVertex
100
AcDb2dVertex
 10
106.512000
 20
236.498950
 40
0.000000
 41
0.000000
 42
0.000000
  0
VERTEX
  5
23f
100
AcDbEntity
  8
COND
100
AcDbVertex
100
AcDb2dVertex
 10
106.512000
 20
235.649050
 40
0.000000
 41
0.000000
 42
0.000000
  0
VERTEX
  5
240
100
AcDbEntity
  8
COND
100
AcDbVertex
100
AcDb2dVertex
 10
106.212000
 20
235.649050
 40
0.000000
 41
0.000000
 42
0.000000
  0
VERTEX
  5
241
100
AcDbEntity
  8
COND
100
AcDbVertex
100
AcDb2dVertex
 10
106.212000
 20
236.498950
 40
0.000000
 41
0.000000
 42
0.000000
  0
SEQEND
  5
23d
100
AcDbEntity
  0
POLYLINE
  5
242
100
AcDbEntity
  8
SOLDER_MASK
100
AcDb2dPolyline
 66
1
 70
1
 40
0.000000
 41
0.000000
 39
0.000000
  0
VERTEX
  5
244
100
AcDbEntity
  8
SOLDER_MASK
100
AcDbVertex
100
AcDb2dVertex
 10
106.512000
 20
236.498950
 40
0.000000
 41
0.000000
 42
0.000000
  0
VERTEX
  5
245
100
AcDbEntity
  8
SOLDER_MASK
100
AcDbVertex
100
AcDb2dVertex
 10
106.512000
 20
235.649050
 40
0.000000
 41
0.000000
 42
0.000000
  0
VERTEX
  5
246
100
AcDbEntity
  8
SOLDER_MASK
100
AcDbVertex
100
AcDb2dVertex
 10
106.212000
 20
235.649050
 40
0.000000
 41
0.000000
 42
0.000000
  0
VERTEX
  5
247
100
AcDbEntity
  8
SOLDER_MASK
100
AcDbVertex
100
AcDb2dVertex
 10
106.212000
 20
236.498950
 40
0.000000
 41
0.000000
 42
0.000000
  0
SEQEND
  5
243
100
AcDbEntity
  0
POLYLINE
  5
248
100
AcDbEntity
  8
BOND
100
AcDb2dPolyline
 66
1
 70
1
 40
0.000000
 41
0.000000
 39
0.000000
  0
VERTEX
  5
24a
100
AcDbEntity
  8
BOND
100
AcDbVertex
100
AcDb2dVertex
 10
106.512000
 20
236.498950
 40
0.000000
 41
0.000000
 42
0.000000
  0
VERTEX
  5
24b
100
AcDbEntity
  8
BOND
100
AcDbVertex
100
AcDb2dVertex
 10
106.512000
 20
235.649050
 40
0.000000
 41
0.000000
 42
0.000000
  0
VERTEX
  5
24c
100
AcDbEntity
  8
BOND
100
AcDbVertex
100
AcDb2dVertex
 10
106.212000
 20
235.649050
 40
0.000000
 41
0.000000
 42
0.000000
  0
VERTEX
  5
24d
100
AcDbEntity
  8
BOND
100
AcDbVertex
100
AcDb2dVertex
 10
106.212000
 20
236.498950
 40
0.000000
 41
0.000000
 42
0.000000
  0
SEQEND
  5
249
100
AcDbEntity
  0
TEXT
  5
24e
100
AcDbEntity
  8
TEXT
100
AcDbText
 10
105.684667
 20
236.074000
 11
106.362000
 21
236.074000
 40
2.032000
 41
1.000000
 50
0.000000
  7
STANDARD
 71
0
 72
1
  1
B4
100
AcDbText
 73
0
  0
POLYLINE
  5
24f
100
AcDbEntity
  8
COND
100
AcDb2dPolyline
 66
1
 70
1
 40
0.000000
 41
0.000000
 39
0.000000
  0
VERTEX
  5
251
100
AcDbEntity
  8
COND
100
AcDbVertex
100
AcDb2dVertex
 10
106.012000
 20
236.498950
 40
0.000000
 41
0.000000
 42
0.000000
  0
VERTEX
  5
252
100
AcDbEntity
  8
COND
100
AcDbVertex
100
AcDb2dVertex
 10
106.012000
 20
235.649050
 40
0.000000
 41
0.000000
 42
0.000000
  0
VERTEX
  5
253
100
AcDbEntity
  8
COND
100
AcDbVertex
100
AcDb2dVertex
 10
105.712000
 20
235.649050
 40
0.000000
 41
0.000000
 42
0.000000
  0
VERTEX
  5
254
100
AcDbEntity
  8
COND
100
AcDbVertex
100
AcDb2dVertex
 10
105.712000
 20
236.498950
 40
0.000000
 41
0.000000
 42
0.000000
  0
SEQEND
  5
250
100
AcDbEntity
  0
POLYLINE
  5
255
100
AcDbEntity
  8
SOLDER_MASK
100
AcDb2dPolyline
 66
1
 70
1
 40
0.000000
 41
0.000000
 39
0.000000
  0
VERTEX
  5
257
100
AcDbEntity
  8
SOLDER_MASK
100
AcDbVertex
100
AcDb2dVertex
 10
106.012000
 20
236.498950
 40
0.000000
 41
0.000000
 42
0.000000
  0
VERTEX
  5
258
100
AcDbEntity
  8
SOLDER_MASK
100
AcDbVertex
100
AcDb2dVertex
 10
106.012000
 20
235.649050
 40
0.000000
 41
0.000000
 42
0.000000
  0
VERTEX
  5
259
100
AcDbEntity
  8
SOLDER_MASK
100
AcDbVertex
100
AcDb2dVertex
 10
105.712000
 20
235.649050
 40
0.000000
 41
0.000000
 42
0.000000
  0
VERTEX
  5
25a
100
AcDbEntity
  8
SOLDER_MASK
100
AcDbVertex
100
AcDb2dVertex
 10
105.712000
 20
236.498950
 40
0.000000
 41
0.000000
 42
0.000000
  0
SEQEND
  5
256
100
AcDbEntity
  0
POLYLINE
  5
25b
100
AcDbEntity
  8
BOND
100
AcDb2dPolyline
 66
1
 70
1
 40
0.000000
 41
0.000000
 39
0.000000
  0
VERTEX
  5
25d
100
AcDbEntity
  8
BOND
100
AcDbVertex
100
AcDb2dVertex
 10
106.012000
 20
236.498950
 40
0.000000
 41
0.000000
 42
0.000000
  0
VERTEX
  5
25e
100
AcDbEntity
  8
BOND
100
AcDbVertex
100
AcDb2dVertex
 10
106.012000
 20
235.649050
 40
0.000000
 41
0.000000
 42
0.000000
  0
VERTEX
  5
25f
100
AcDbEntity
  8
BOND
100
AcDbVertex
100
AcDb2dVertex
 10
105.712000
 20
235.649050
 40
0.000000
 41
0.000000
 42
0.000000
  0
VERTEX
  5
260
100
AcDbEntity
  8
BOND
100
AcDbVertex
100
AcDb2dVertex
 10
105.712000
 20
236.498950
 40
0.000000
 41
0.000000
 42
0.000000
  0
SEQEND
  5
25c
100
AcDbEntity
  0
TEXT
  5
261
100
AcDbEntity
  8
TEXT
100
AcDbText
 10
105.184667
 20
236.074000
 11
105.862000
 21
236.074000
 40
2.032000
 41
1.000000
 50
0.000000
  7
STANDARD
 71
0
 72
1
  1
B5
100
AcDbText
 73
0
  0
POLYLINE
  5
262
100
AcDbEntity
  8
COND
100
AcDb2dPolyline
 66
1
 70
1
 40
0.000000
 41
0.000000
 39
0.000000
  0
VERTEX
  5
264
100
AcDbEntity
  8
COND
100
AcDbVertex
100
AcDb2dVertex
 10
105.512000
 20
236.498950
 40
0.000000
 41
0.000000
 42
0.000000
  0
VERTEX
  5
265
100
AcDbEntity
  8
COND
100
AcDbVertex
100
AcDb2dVertex
 10
105.512000
 20
235.649050
 40
0.000000
 41
0.000000
 42
0.000000
  0
VERTEX
  5
266
100
AcDbEntity
  8
COND
100
AcDbVertex
100
AcDb2dVertex
 10
105.212000
 20
235.649050
 40
0.000000
 41
0.000000
 42
0.000000
  0
VERTEX
  5
267
100
AcDbEntity
  8
COND
100
AcDbVertex
100
AcDb2dVertex
 10
105.212000
 20
236.498950
 40
0.000000
 41
0.000000
 42
0.000000
  0
SEQEND
  5
263
100
AcDbEntity
  0
POLYLINE
  5
268
100
AcDbEntity
  8
SOLDER_MASK
100
AcDb2dPolyline
 66
1
 70
1
 40
0.000000
 41
0.000000
 39
0.000000
  0
VERTEX
  5
26a
100
AcDbEntity
  8
SOLDER_MASK
100
AcDbVertex
100
AcDb2dVertex
 10
105.512000
 20
236.498950
 40
0.000000
 41
0.000000
 42
0.000000
  0
VERTEX
  5
26b
100
AcDbEntity
  8
SOLDER_MASK
100
AcDbVertex
100
AcDb2dVertex
 10
105.512000
 20
235.649050
 40
0.000000
 41
0.000000
 42
0.000000
  0
VERTEX
  5
26c
100
AcDbEntity
  8
SOLDER_MASK
100
AcDbVertex
100
AcDb2dVertex
 10
105.212000
 20
235.649050
 40
0.000000
 41
0.000000
 42
0.000000
  0
VERTEX
  5
26d
100
AcDbEntity
  8
SOLDER_MASK
100
AcDbVertex
100
AcDb2dVertex
 10
105.212000
 20
236.498950
 40
0.000000
 41
0.000000
 42
0.000000
  0
SEQEND
  5
269
100
AcDbEntity
  0
POLYLINE
  5
26e
100
AcDbEntity
  8
BOND
100
AcDb2dPolyline
 66
1
 70
1
 40
0.000000
 41
0.000000
 39
0.000000
  0
VERTEX
  5
270
100
AcDbEntity
  8
BOND
100
AcDbVertex
100
AcDb2dVertex
 10
105.512000
 20
236.498950
 40
0.000000
 41
0.000000
 42
0.000000
  0
VERTEX
  5
271
100
AcDbEntity
  8
BOND
100
AcDbVertex
100
AcDb2dVertex
 10
105.512000
 20
235.649050
 40
0.000000
 41
0.000000
 42
0.000000
  0
VERTEX
  5
272
100
AcDbEntity
  8
BOND
100
AcDbVertex
100
AcDb2dVertex
 10
105.212000
 20
235.649050
 40
0.000000
 41
0.000000
 42
0.000000
  0
VERTEX
  5
273
100
AcDbEntity
  8
BOND
100
AcDbVertex
100
AcDb2dVertex
 10
105.212000
 20
236.498950
 40
0.000000
 41
0.000000
 42
0.000000
  0
SEQEND
  5
26f
100
AcDbEntity
  0
TEXT
  5
274
100
AcDbEntity
  8
TEXT
100
AcDbText
 10
104.684667
 20
236.074000
 11
105.362000
 21
236.074000
 40
2.032000
 41
1.000000
 50
0.000000
  7
STANDARD
 71
0
 72
1
  1
B6
100
AcDbText
 73
0
  0
POLYLINE
  5
275
100
AcDbEntity
  8
COND
100
AcDb2dPolyline
 66
1
 70
1
 40
0.000000
 41
0.000000
 39
0.000000
  0
VERTEX
  5
277
100
AcDbEntity
  8
COND
100
AcDbVertex
100
AcDb2dVertex
 10
105.012000
 20
236.498950
 40
0.000000
 41
0.000000
 42
0.000000
  0
VERTEX
  5
278
100
AcDbEntity
  8
COND
100
AcDbVertex
100
AcDb2dVertex
 10
105.012000
 20
235.649050
 40
0.000000
 41
0.000000
 42
0.000000
  0
VERTEX
  5
279
100
AcDbEntity
  8
COND
100
AcDbVertex
100
AcDb2dVertex
 10
104.712000
 20
235.649050
 40
0.000000
 41
0.000000
 42
0.000000
  0
VERTEX
  5
27a
100
AcDbEntity
  8
COND
100
AcDbVertex
100
AcDb2dVertex
 10
104.712000
 20
236.498950
 40
0.000000
 41
0.000000
 42
0.000000
  0
SEQEND
  5
276
100
AcDbEntity
  0
POLYLINE
  5
27b
100
AcDbEntity
  8
SOLDER_MASK
100
AcDb2dPolyline
 66
1
 70
1
 40
0.000000
 41
0.000000
 39
0.000000
  0
VERTEX
  5
27d
100
AcDbEntity
  8
SOLDER_MASK
100
AcDbVertex
100
AcDb2dVertex
 10
105.012000
 20
236.498950
 40
0.000000
 41
0.000000
 42
0.000000
  0
VERTEX
  5
27e
100
AcDbEntity
  8
SOLDER_MASK
100
AcDbVertex
100
AcDb2dVertex
 10
105.012000
 20
235.649050
 40
0.000000
 41
0.000000
 42
0.000000
  0
VERTEX
  5
27f
100
AcDbEntity
  8
SOLDER_MASK
100
AcDbVertex
100
AcDb2dVertex
 10
104.712000
 20
235.649050
 40
0.000000
 41
0.000000
 42
0.000000
  0
VERTEX
  5
280
100
AcDbEntity
  8
SOLDER_MASK
100
AcDbVertex
100
AcDb2dVertex
 10
104.712000
 20
236.498950
 40
0.000000
 41
0.000000
 42
0.000000
  0
SEQEND
  5
27c
100
AcDbEntity
  0
POLYLINE
  5
281
100
AcDbEntity
  8
BOND
100
AcDb2dPolyline
 66
1
 70
1
 40
0.000000
 41
0.000000
 39
0.000000
  0
VERTEX
  5
283
100
AcDbEntity
  8
BOND
100
AcDbVertex
100
AcDb2dVertex
 10
105.012000
 20
236.498950
 40
0.000000
 41
0.000000
 42
0.000000
  0
VERTEX
  5
284
100
AcDbEntity
  8
BOND
100
AcDbVertex
100
AcDb2dVertex
 10
105.012000
 20
235.649050
 40
0.000000
 41
0.000000
 42
0.000000
  0
VERTEX
  5
285
100
AcDbEntity
  8
BOND
100
AcDbVertex
100
AcDb2dVertex
 10
104.712000
 20
235.649050
 40
0.000000
 41
0.000000
 42
0.000000
  0
VERTEX
  5
286
100
AcDbEntity
  8
BOND
100
AcDbVertex
100
AcDb2dVertex
 10
104.712000
 20
236.498950
 40
0.000000
 41
0.000000
 42
0.000000
  0
SEQEND
  5
282
100
AcDbEntity
  0
TEXT
  5
287
100
AcDbEntity
  8
TEXT
100
AcDbText
 10
104.184667
 20
236.074000
 11
104.862000
 21
236.074000
 40
2.032000
 41
1.000000
 50
0.000000
  7
STANDARD
 71
0
 72
1
  1
B7
100
AcDbText
 73
0
  0
POLYLINE
  5
288
100
AcDbEntity
  8
COND
100
AcDb2dPolyline
 66
1
 70
1
 40
0.000000
 41
0.000000
 39
0.000000
  0
VERTEX
  5
28a
100
AcDbEntity
  8
COND
100
AcDbVertex
100
AcDb2dVertex
 10
104.512000
 20
236.498950
 40
0.000000
 41
0.000000
 42
0.000000
  0
VERTEX
  5
28b
100
AcDbEntity
  8
COND
100
AcDbVertex
100
AcDb2dVertex
 10
104.512000
 20
235.649050
 40
0.000000
 41
0.000000
 42
0.000000
  0
VERTEX
  5
28c
100
AcDbEntity
  8
COND
100
AcDbVertex
100
AcDb2dVertex
 10
104.212000
 20
235.649050
 40
0.000000
 41
0.000000
 42
0.000000
  0
VERTEX
  5
28d
100
AcDbEntity
  8
COND
100
AcDbVertex
100
AcDb2dVertex
 10
104.212000
 20
236.498950
 40
0.000000
 41
0.000000
 42
0.000000
  0
SEQEND
  5
289
100
AcDbEntity
  0
POLYLINE
  5
28e
100
AcDbEntity
  8
SOLDER_MASK
100
AcDb2dPolyline
 66
1
 70
1
 40
0.000000
 41
0.000000
 39
0.000000
  0
VERTEX
  5
290
100
AcDbEntity
  8
SOLDER_MASK
100
AcDbVertex
100
AcDb2dVertex
 10
104.512000
 20
236.498950
 40
0.000000
 41
0.000000
 42
0.000000
  0
VERTEX
  5
291
100
AcDbEntity
  8
SOLDER_MASK
100
AcDbVertex
100
AcDb2dVertex
 10
104.512000
 20
235.649050
 40
0.000000
 41
0.000000
 42
0.000000
  0
VERTEX
  5
292
100
AcDbEntity
  8
SOLDER_MASK
100
AcDbVertex
100
AcDb2dVertex
 10
104.212000
 20
235.649050
 40
0.000000
 41
0.000000
 42
0.000000
  0
VERTEX
  5
293
100
AcDbEntity
  8
SOLDER_MASK
100
AcDbVertex
100
AcDb2dVertex
 10
104.212000
 20
236.498950
 40
0.000000
 41
0.000000
 42
0.000000
  0
SEQEND
  5
28f
100
AcDbEntity
  0
POLYLINE
  5
294
100
AcDbEntity
  8
BOND
100
AcDb2dPolyline
 66
1
 70
1
 40
0.000000
 41
0.000000
 39
0.000000
  0
VERTEX
  5
296
100
AcDbEntity
  8
BOND
100
AcDbVertex
100
AcDb2dVertex
 10
104.512000
 20
236.498950
 40
0.000000
 41
0.000000
 42
0.000000
  0
VERTEX
  5
297
100
AcDbEntity
  8
BOND
100
AcDbVertex
100
AcDb2dVertex
 10
104.512000
 20
235.649050
 40
0.000000
 41
0.000000
 42
0.000000
  0
VERTEX
  5
298
100
AcDbEntity
  8
BOND
100
AcDbVertex
100
AcDb2dVertex
 10
104.212000
 20
235.649050
 40
0.000000
 41
0.000000
 42
0.000000
  0
VERTEX
  5
299
100
AcDbEntity
  8
BOND
100
AcDbVertex
100
AcDb2dVertex
 10
104.212000
 20
236.498950
 40
0.000000
 41
0.000000
 42
0.000000
  0
SEQEND
  5
295
100
AcDbEntity
  0
TEXT
  5
29a
100
AcDbEntity
  8
TEXT
100
AcDbText
 10
103.684667
 20
236.074000
 11
104.362000
 21
236.074000
 40
2.032000
 41
1.000000
 50
0.000000
  7
STANDARD
 71
0
 72
1
  1
B8
100
AcDbText
 73
0
  0
POLYLINE
  5
29b
100
AcDbEntity
  8
COND
100
AcDb2dPolyline
 66
1
 70
1
 40
0.000000
 41
0.000000
 39
0.000000
  0
VERTEX
  5
29d
100
AcDbEntity
  8
COND
100
AcDbVertex
100
AcDb2dVertex
 10
104.012000
 20
236.498950
 40
0.000000
 41
0.000000
 42
0.000000
  0
VERTEX
  5
29e
100
AcDbEntity
  8
COND
100
AcDbVertex
100
AcDb2dVertex
 10
104.012000
 20
235.649050
 40
0.000000
 41
0.000000
 42
0.000000
  0
VERTEX
  5
29f
100
AcDbEntity
  8
COND
100
AcDbVertex
100
AcDb2dVertex
 10
103.712000
 20
235.649050
 40
0.000000
 41
0.000000
 42
0.000000
  0
VERTEX
  5
2a0
100
AcDbEntity
  8
COND
100
AcDbVertex
100
AcDb2dVertex
 10
103.712000
 20
236.498950
 40
0.000000
 41
0.000000
 42
0.000000
  0
SEQEND
  5
29c
100
AcDbEntity
  0
POLYLINE
  5
2a1
100
AcDbEntity
  8
SOLDER_MASK
100
AcDb2dPolyline
 66
1
 70
1
 40
0.000000
 41
0.000000
 39
0.000000
  0
VERTEX
  5
2a3
100
AcDbEntity
  8
SOLDER_MASK
100
AcDbVertex
100
AcDb2dVertex
 10
104.012000
 20
236.498950
 40
0.000000
 41
0.000000
 42
0.000000
  0
VERTEX
  5
2a4
100
AcDbEntity
  8
SOLDER_MASK
100
AcDbVertex
100
AcDb2dVertex
 10
104.012000
 20
235.649050
 40
0.000000
 41
0.000000
 42
0.000000
  0
VERTEX
  5
2a5
100
AcDbEntity
  8
SOLDER_MASK
100
AcDbVertex
100
AcDb2dVertex
 10
103.712000
 20
235.649050
 40
0.000000
 41
0.000000
 42
0.000000
  0
VERTEX
  5
2a6
100
AcDbEntity
  8
SOLDER_MASK
100
AcDbVertex
100
AcDb2dVertex
 10
103.712000
 20
236.498950
 40
0.000000
 41
0.000000
 42
0.000000
  0
SEQEND
  5
2a2
100
AcDbEntity
  0
POLYLINE
  5
2a7
100
AcDbEntity
  8
BOND
100
AcDb2dPolyline
 66
1
 70
1
 40
0.000000
 41
0.000000
 39
0.000000
  0
VERTEX
  5
2a9
100
AcDbEntity
  8
BOND
100
AcDbVertex
100
AcDb2dVertex
 10
104.012000
 20
236.498950
 40
0.000000
 41
0.000000
 42
0.000000
  0
VERTEX
  5
2aa
100
AcDbEntity
  8
BOND
100
AcDbVertex
100
AcDb2dVertex
 10
104.012000
 20
235.649050
 40
0.000000
 41
0.000000
 42
0.000000
  0
VERTEX
  5
2ab
100
AcDbEntity
  8
BOND
100
AcDbVertex
100
AcDb2dVertex
 10
103.712000
 20
235.649050
 40
0.000000
 41
0.000000
 42
0.000000
  0
VERTEX
  5
2ac
100
AcDbEntity
  8
BOND
100
AcDbVertex
100
AcDb2dVertex
 10
103.712000
 20
236.498950
 40
0.000000
 41
0.000000
 42
0.000000
  0
SEQEND
  5
2a8
100
AcDbEntity
  0
TEXT
  5
2ad
100
AcDbEntity
  8
TEXT
100
AcDbText
 10
103.184667
 20
236.074000
 11
103.862000
 21
236.074000
 40
2.032000
 41
1.000000
 50
0.000000
  7
STANDARD
 71
0
 72
1
  1
B9
100
AcDbText
 73
0
  0
POLYLINE
  5
2ae
100
AcDbEntity
  8
COND
100
AcDb2dPolyline
 66
1
 70
1
 40
0.000000
 41
0.000000
 39
0.000000
  0
VERTEX
  5
2b0
100
AcDbEntity
  8
COND
100
AcDbVertex
100
AcDb2dVertex
 10
102.512000
 20
236.498950
 40
0.000000
 41
0.000000
 42
0.000000
  0
VERTEX
  5
2b1
100
AcDbEntity
  8
COND
100
AcDbVertex
100
AcDb2dVertex
 10
102.512000
 20
235.649050
 40
0.000000
 41
0.000000
 42
0.000000
  0
VERTEX
  5
2b2
100
AcDbEntity
  8
COND
100
AcDbVertex
100
AcDb2dVertex
 10
102.212000
 20
235.649050
 40
0.000000
 41
0.000000
 42
0.000000
  0
VERTEX
  5
2b3
100
AcDbEntity
  8
COND
100
AcDbVertex
100
AcDb2dVertex
 10
102.212000
 20
236.498950
 40
0.000000
 41
0.000000
 42
0.000000
  0
SEQEND
  5
2af
100
AcDbEntity
  0
POLYLINE
  5
2b4
100
AcDbEntity
  8
SOLDER_MASK
100
AcDb2dPolyline
 66
1
 70
1
 40
0.000000
 41
0.000000
 39
0.000000
  0
VERTEX
  5
2b6
100
AcDbEntity
  8
SOLDER_MASK
100
AcDbVertex
100
AcDb2dVertex
 10
102.512000
 20
236.498950
 40
0.000000
 41
0.000000
 42
0.000000
  0
VERTEX
  5
2b7
100
AcDbEntity
  8
SOLDER_MASK
100
AcDbVertex
100
AcDb2dVertex
 10
102.512000
 20
235.649050
 40
0.000000
 41
0.000000
 42
0.000000
  0
VERTEX
  5
2b8
100
AcDbEntity
  8
SOLDER_MASK
100
AcDbVertex
100
AcDb2dVertex
 10
102.212000
 20
235.649050
 40
0.000000
 41
0.000000
 42
0.000000
  0
VERTEX
  5
2b9
100
AcDbEntity
  8
SOLDER_MASK
100
AcDbVertex
100
AcDb2dVertex
 10
102.212000
 20
236.498950
 40
0.000000
 41
0.000000
 42
0.000000
  0
SEQEND
  5
2b5
100
AcDbEntity
  0
POLYLINE
  5
2ba
100
AcDbEntity
  8
BOND
100
AcDb2dPolyline
 66
1
 70
1
 40
0.000000
 41
0.000000
 39
0.000000
  0
VERTEX
  5
2bc
100
AcDbEntity
  8
BOND
100
AcDbVertex
100
AcDb2dVertex
 10
102.512000
 20
236.498950
 40
0.000000
 41
0.000000
 42
0.000000
  0
VERTEX
  5
2bd
100
AcDbEntity
  8
BOND
100
AcDbVertex
100
AcDb2dVertex
 10
102.512000
 20
235.649050
 40
0.000000
 41
0.000000
 42
0.000000
  0
VERTEX
  5
2be
100
AcDbEntity
  8
BOND
100
AcDbVertex
100
AcDb2dVertex
 10
102.212000
 20
235.649050
 40
0.000000
 41
0.000000
 42
0.000000
  0
VERTEX
  5
2bf
100
AcDbEntity
  8
BOND
100
AcDbVertex
100
AcDb2dVertex
 10
102.212000
 20
236.498950
 40
0.000000
 41
0.000000
 42
0.000000
  0
SEQEND
  5
2bb
100
AcDbEntity
  0
TEXT
  5
2c0
100
AcDbEntity
  8
TEXT
100
AcDbText
 10
101.684667
 20
236.074000
 11
102.362000
 21
236.074000
 40
2.032000
 41
1.000000
 50
0.000000
  7
STANDARD
 71
0
 72
1
  1
B12
100
AcDbText
 73
0
  0
CIRCLE
  5
2c1
100
AcDbEntity
  8
COND
100
AcDbCircle
 10
101.362000
 20
236.909000
 40
0.299950
  0
CIRCLE
  5
2c2
100
AcDbEntity
  8
COND2
100
AcDbCircle
 10
101.362000
 20
236.909000
 40
0.299950
  0
INSERT
  5
2c3
100
AcDbEntity
  8
MANUFACTURING_NCDRILL_FIGURE
100
AcDbBlockReference
  2
FIGURE_DIAMOND
 10
101.362000
 20
236.909000
 41
0.599900
 42
0.599900
 50
0.000000
  0
TEXT
  5
2c5
100
AcDbEntity
  8
MANUFACTURING_NCDRILL_FIGURE
100
AcDbText
 10
101.162033
 20
236.759025
 11
101.362000
 21
236.909000
 40
0.299950
 41
1.000000
 50
0.000000
  7
STANDARD
 71
0
 72
1
  1
A
100
AcDbText
 73
2
  0
CIRCLE
  5
2c6
100
AcDbEntity
  8
COND
100
AcDbCircle
 10
108.862000
 20
236.909000
 40
0.584950
  0
CIRCLE
  5
2c7
100
AcDbEntity
  8
COND2
100
AcDbCircle
 10
108.862000
 20
236.909000
 40
0.584950
  0
INSERT
  5
2c8
100
AcDbEntity
  8
MANUFACTURING_NCDRILL_FIGURE
100
AcDbBlockReference
  2
FIGURE_DIAMOND
 10
108.862000
 20
236.909000
 41
1.169900
 42
1.169900
 50
0.000000
  0
TEXT
  5
2ca
100
AcDbEntity
  8
MANUFACTURING_NCDRILL_FIGURE
100
AcDbText
 10
108.472033
 20
236.616525
 11
108.862000
 21
236.909000
 40
0.584950
 41
1.000000
 50
0.000000
  7
STANDARD
 71
0
 72
1
  1
B
100
AcDbText
 73
2
  0
CIRCLE
  5
2cb
100
AcDbEntity
  8
COND
100
AcDbCircle
 10
102.712000
 20
239.059000
 40
0.550050
  0
CIRCLE
  5
2cc
100
AcDbEntity
  8
COND2
100
AcDbCircle
 10
102.712000
 20
239.059000
 40
0.550050
  0
CIRCLE
  5
2cd
100
AcDbEntity
  8
SOLDER_MASK
100
AcDbCircle
 10
102.712000
 20
239.059000
 40
0.550050
  0
INSERT
  5
2ce
100
AcDbEntity
  8
MANUFACTURING_NCDRILL_FIGURE
100
AcDbBlockReference
  2
FIGURE_DIAMOND
 10
102.712000
 20
239.059000
 41
0.700000
 42
0.700000
 50
0.000000
  0
TEXT
  5
2d0
100
AcDbEntity
  8
MANUFACTURING_NCDRILL_FIGURE
100
AcDbText
 10
102.478667
 20
238.884000
 11
102.712000
 21
239.059000
 40
0.350000
 41
1.000000
 50
0.000000
  7
STANDARD
 71
0
 72
1
  1
C
100
AcDbText
 73
2
  0
TEXT
  5
2d1
100
AcDbEntity
  8
TEXT
100
AcDbText
 10
102.034667
 20
239.059000
 11
102.712000
 21
239.059000
 40
2.032000
 41
1.000000
 50
0.000000
  7
STANDARD
 71
0
 72
1
  1
MH3
100
AcDbText
 73
0
  0
CIRCLE
  5
2d2
100
AcDbEntity
  8
COND
100
AcDbCircle
 10
107.512000
 20
239.059000
 40
0.550050
  0
CIRCLE
  5
2d3
100
AcDbEntity
  8
COND2
100
AcDbCircle
 10
107.512000
 20
239.059000
 40
0.550050
  0
CIRCLE
  5
2d4
100
AcDbEntity
  8
SOLDER_MASK
100
AcDbCircle
 10
107.512000
 20
239.059000
 40
0.550050
  0
INSERT
  5
2d5
100
AcDbEntity
  8
MANUFACTURING_NCDRILL_FIGURE
100
AcDbBlockReference
  2
FIGURE_DIAMOND
 10
107.512000
 20
239.059000
 41
0.700000
 42
0.700000
 50
0.000000
  0
TEXT
  5
2d7
100
AcDbEntity
  8
MANUFACTURING_NCDRILL_FIGURE
100
AcDbText
 10
107.278667
 20
238.884000
 11
107.512000
 21
239.059000
 40
0.350000
 41
1.000000
 50
0.000000
  7
STANDARD
 71
0
 72
1
  1
C
100
AcDbText
 73
2
  0
TEXT
  5
2d8
100
AcDbEntity
  8
TEXT
100
AcDbText
 10
106.834667
 20
239.059000
 11
107.512000
 21
239.059000
 40
2.032000
 41
1.000000
 50
0.000000
  7
STANDARD
 71
0
 72
1
  1
MH4
100
AcDbText
 73
0
  0
CIRCLE
  5
2d9
100
AcDbEntity
  8
COND
100
AcDbCircle
 10
107.512000
 20
234.759000
 40
0.550050
  0
CIRCLE
  5
2da
100
AcDbEntity
  8
COND2
100
AcDbCircle
 10
107.512000
 20
234.759000
 40
0.550050
  0
CIRCLE
  5
2db
100
AcDbEntity
  8
SOLDER_MASK
100
AcDbCircle
 10
107.512000
 20
234.759000
 40
0.550050
  0
INSERT
  5
2dc
100
AcDbEntity
  8
MANUFACTURING_NCDRILL_FIGURE
100
AcDbBlockReference
  2
FIGURE_DIAMOND
 10
107.512000
 20
234.759000
 41
0.700000
 42
0.700000
 50
0.000000
  0
TEXT
  5
2de
100
AcDbEntity
  8
MANUFACTURING_NCDRILL_FIGURE
100
AcDbText
 10
107.278667
 20
234.584000
 11
107.512000
 21
234.759000
 40
0.350000
 41
1.000000
 50
0.000000
  7
STANDARD
 71
0
 72
1
  1
C
100
AcDbText
 73
2
  0
TEXT
  5
2df
100
AcDbEntity
  8
TEXT
100
AcDbText
 10
106.834667
 20
234.759000
 11
107.512000
 21
234.759000
 40
2.032000
 41
1.000000
 50
0.000000
  7
STANDARD
 71
0
 72
1
  1
MH5
100
AcDbText
 73
0
  0
CIRCLE
  5
2e0
100
AcDbEntity
  8
COND
100
AcDbCircle
 10
102.712000
 20
234.759000
 40
0.550050
  0
CIRCLE
  5
2e1
100
AcDbEntity
  8
COND2
100
AcDbCircle
 10
102.712000
 20
234.759000
 40
0.550050
  0
CIRCLE
  5
2e2
100
AcDbEntity
  8
SOLDER_MASK
100
AcDbCircle
 10
102.712000
 20
234.759000
 40
0.550050
  0
INSERT
  5
2e3
100
AcDbEntity
  8
MANUFACTURING_NCDRILL_FIGURE
100
AcDbBlockReference
  2
FIGURE_DIAMOND
 10
102.712000
 20
234.759000
 41
0.700000
 42
0.700000
 50
0.000000
  0
TEXT
  5
2e5
100
AcDbEntity
  8
MANUFACTURING_NCDRILL_FIGURE
100
AcDbText
 10
102.478667
 20
234.584000
 11
102.712000
 21
234.759000
 40
0.350000
 41
1.000000
 50
0.000000
  7
STANDARD
 71
0
 72
1
  1
C
100
AcDbText
 73
2
  0
TEXT
  5
2e6
100
AcDbEntity
  8
TEXT
100
AcDbText
 10
102.034667
 20
234.759000
 11
102.712000
 21
234.759000
 40
2.032000
 41
1.000000
 50
0.000000
  7
STANDARD
 71
0
 72
1
  1
MH6
100
AcDbText
 73
0
  0
LWPOLYLINE
  5
2e7
100
AcDbEntity
  8
ASSEMBLY
100
AcDbPolyline
 90
4
 70
1
 39
0.000000
 10
100.642000
 20
238.439000
 40
0.000000
 41
0.000000
 42
-1.000000
 10
100.642000
 20
238.539000
 40
0.000000
 41
0.000000
 42
0.000000
 10
109.582000
 20
238.539000
 40
0.000000
 41
0.000000
 42
-1.000000
 10
109.582000
 20
238.439000
 40
0.000000
 41
0.000000
 42
0.000000
  0
LWPOLYLINE
  5
2ec
100
AcDbEntity
  8
ASSEMBLY
100
AcDbPolyline
 90
4
 70
1
 39
0.000000
 10
109.532000
 20
238.489000
 40
0.000000
 41
0.000000
 42
-1.000000
 10
109.632000
 20
238.489000
 40
0.000000
 41
0.000000
 42
0.000000
 10
109.632000
 20
235.329000
 40
0.000000
 41
0.000000
 42
-1.000000
 10
109.532000
 20
235.329000
 40
0.000000
 41
0.000000
 42
0.000000
  0
LWPOLYLINE
  5
2f1
100
AcDbEntity
  8
ASSEMBLY
100
AcDbPolyline
 90
4
 70
1
 39
0.000000
 10
109.582000
 20
235.379000
 40
0.000000
 41
0.000000
 42
-1.000000
 10
109.582000
 20
235.279000
 40
0.000000
 41
0.000000
 42
0.000000
 10
100.642000
 20
235.279000
 40
0.000000
 41
0.000000
 42
-1.000000
 10
100.642000
 20
235.379000
 40
0.000000
 41
0.000000
 42
0.000000
  0
LWPOLYLINE
  5
2f6
100
AcDbEntity
  8
ASSEMBLY
100
AcDbPolyline
 90
4
 70
1
 39
0.000000
 10
100.692000
 20
235.329000
 40
0.000000
 41
0.000000
 42
-1.000000
 10
100.592000
 20
235.329000
 40
0.000000
 41
0.000000
 42
0.000000
 10
100.592000
 20
238.489000
 40
0.000000
 41
0.000000
 42
-1.000000
 10
100.692000
 20
238.489000
 40
0.000000
 41
0.000000
 42
0.000000
  0
LWPOLYLINE
  5
2fb
100
AcDbEntity
  8
SILK_SCREEN
100
AcDbPolyline
 90
3
 70
1
 39
0.000000
 10
100.162000
 20
237.744000
 40
0.000000
 41
0.000000
 42
-1.000000
 10
100.062000
 20
237.744000
 40
0.000000
 41
0.000000
 42
-1.000000
 10
99.962000
 20
237.744000
 40
0.000000
 41
0.000000
 42
-1.000000
  0
LWPOLYLINE
  5
2ff
100
AcDbEntity
  8
SILK_SCREEN
100
AcDbPolyline
 90
3
 70
1
 39
0.000000
 10
99.962000
 20
237.744000
 40
0.000000
 41
0.000000
 42
-1.000000
 10
100.062000
 20
237.744000
 40
0.000000
 41
0.000000
 42
-1.000000
 10
100.162000
 20
237.744000
 40
0.000000
 41
0.000000
 42
-1.000000
  0
POLYLINE
  5
303
100
AcDbEntity
  8
BOUND
100
AcDb2dPolyline
 66
1
 70
1
 40
0.000000
 41
0.000000
 39
0.000000
  0
VERTEX
  5
305
100
AcDbEntity
  8
BOUND
100
AcDbVertex
100
AcDb2dVertex
 10
99.642000
 20
233.209000
 40
0.000000
 41
0.000000
 42
0.000000
  0
VERTEX
  5
306
100
AcDbEntity
  8
BOUND
100
AcDbVertex
100
AcDb2dVertex
 10
99.642000
 20
240.609000
 40
0.000000
 41
0.000000
 42
0.000000
  0
VERTEX
  5
307
100
AcDbEntity
  8
BOUND
100
AcDbVertex
100
AcDb2dVertex
 10
110.582000
 20
240.609000
 40
0.000000
 41
0.000000
 42
0.000000
  0
VERTEX
  5
308
100
AcDbEntity
  8
BOUND
100
AcDbVertex
100
AcDb2dVertex
 10
110.582000
 20
233.209000
 40
0.000000
 41
0.000000
 42
0.000000
  0
SEQEND
  5
304
100
AcDbEntity
  0
TEXT
  5
309
100
AcDbEntity
  8
TEXT
100
AcDbText
 10
102.362000
 20
237.744000
 11
0.000000
 21
0.000000
 40
0.787400
 41
1.000000
 50
0.000000
  7
STANDARD
 71
0
 72
0
  1
J1
100
AcDbText
 73
0
  0
TEXT
  5
30a
100
AcDbEntity
  8
TEXT
100
AcDbText
 10
102.362000
 20
237.744000
 11
0.000000
 21
0.000000
 40
0.787400
 41
1.000000
 50
0.000000
  7
STANDARD
 71
0
 72
0
  1
J1
100
AcDbText
 73
0
  0
POLYLINE
  5
30b
100
AcDbEntity
  8
COND
100
AcDb2dPolyline
 66
1
 70
1
 40
0.000000
 41
0.000000
 39
0.000000
  0
VERTEX
  5
30d
100
AcDbEntity
  8
COND
100
AcDbVertex
100
AcDb2dVertex
 10
104.730500
 20
251.516000
 40
0.000000
 41
0.000000
 42
0.000000
  0
VERTEX
  5
30e
100
AcDbEntity
  8
COND
100
AcDbVertex
100
AcDb2dVertex
 10
103.205500
 20
251.516000
 40
0.000000
 41
0.000000
 42
0.000000
  0
VERTEX
  5
30f
100
AcDbEntity
  8
COND
100
AcDbVertex
100
AcDb2dVertex
 10
103.205500
 20
252.166000
 40
0.000000
 41
0.000000
 42
0.000000
  0
VERTEX
  5
310
100
AcDbEntity
  8
COND
100
AcDbVertex
100
AcDb2dVertex
 10
104.730500
 20
252.166000
 40
0.000000
 41
0.000000
 42
0.000000
  0
SEQEND
  5
30c
100
AcDbEntity
  0
POLYLINE
  5
311
100
AcDbEntity
  8
SOLDER_MASK
100
AcDb2dPolyline
 66
1
 70
1
 40
0.000000
 41
0.000000
 39
0.000000
  0
VERTEX
  5
313
100
AcDbEntity
  8
SOLDER_MASK
100
AcDbVertex
100
AcDb2dVertex
 10
104.730500
 20
251.516000
 40
0.000000
 41
0.000000
 42
0.000000
  0
VERTEX
  5
314
100
AcDbEntity
  8
SOLDER_MASK
100
AcDbVertex
100
AcDb2dVertex
 10
103.205500
 20
251.516000
 40
0.000000
 41
0.000000
 42
0.000000
  0
VERTEX
  5
315
100
AcDbEntity
  8
SOLDER_MASK
100
AcDbVertex
100
AcDb2dVertex
 10
103.205500
 20
252.166000
 40
0.000000
 41
0.000000
 42
0.000000
  0
VERTEX
  5
316
100
AcDbEntity
  8
SOLDER_MASK
100
AcDbVertex
100
AcDb2dVertex
 10
104.730500
 20
252.166000
 40
0.000000
 41
0.000000
 42
0.000000
  0
SEQEND
  5
312
100
AcDbEntity
  0
POLYLINE
  5
317
100
AcDbEntity
  8
BOND
100
AcDb2dPolyline
 66
1
 70
1
 40
0.000000
 41
0.000000
 39
0.000000
  0
VERTEX
  5
319
100
AcDbEntity
  8
BOND
100
AcDbVertex
100
AcDb2dVertex
 10
104.730500
 20
251.516000
 40
0.000000
 41
0.000000
 42
0.000000
  0
VERTEX
  5
31a
100
AcDbEntity
  8
BOND
100
AcDbVertex
100
AcDb2dVertex
 10
103.205500
 20
251.516000
 40
0.000000
 41
0.000000
 42
0.000000
  0
VERTEX
  5
31b
100
AcDbEntity
  8
BOND
100
AcDbVertex
100
AcDb2dVertex
 10
103.205500
 20
252.166000
 40
0.000000
 41
0.000000
 42
0.000000
  0
VERTEX
  5
31c
100
AcDbEntity
  8
BOND
100
AcDbVertex
100
AcDb2dVertex
 10
104.730500
 20
252.166000
 40
0.000000
 41
0.000000
 42
0.000000
  0
SEQEND
  5
318
100
AcDbEntity
  0
TEXT
  5
31d
100
AcDbEntity
  8
TEXT
100
AcDbText
 10
103.290667
 20
251.841000
 11
103.968000
 21
251.841000
 40
2.032000
 41
1.000000
 50
0.000000
  7
STANDARD
 71
0
 72
1
  1
1
100
AcDbText
 73
0
  0
POLYLINE
  5
31e
100
AcDbEntity
  8
COND
100
AcDb2dPolyline
 66
1
 70
1
 40
0.000000
 41
0.000000
 39
0.000000
  0
VERTEX
  5
320
100
AcDbEntity
  8
COND
100
AcDbVertex
100
AcDb2dVertex
 10
104.730500
 20
250.246000
 40
0.000000
 41
0.000000
 42
0.000000
  0
VERTEX
  5
321
100
AcDbEntity
  8
COND
100
AcDbVertex
100
AcDb2dVertex
 10
103.205500
 20
250.246000
 40
0.000000
 41
0.000000
 42
0.000000
  0
VERTEX
  5
322
100
AcDbEntity
  8
COND
100
AcDbVertex
100
AcDb2dVertex
 10
103.205500
 20
250.896000
 40
0.000000
 41
0.000000
 42
0.000000
  0
VERTEX
  5
323
100
AcDbEntity
  8
COND
100
AcDbVertex
100
AcDb2dVertex
 10
104.730500
 20
250.896000
 40
0.000000
 41
0.000000
 42
0.000000
  0
SEQEND
  5
31f
100
AcDbEntity
  0
POLYLINE
  5
324
100
AcDbEntity
  8
SOLDER_MASK
100
AcDb2dPolyline
 66
1
 70
1
 40
0.000000
 41
0.000000
 39
0.000000
  0
VERTEX
  5
326
100
AcDbEntity
  8
SOLDER_MASK
100
AcDbVertex
100
AcDb2dVertex
 10
104.730500
 20
250.246000
 40
0.000000
 41
0.000000
 42
0.000000
  0
VERTEX
  5
327
100
AcDbEntity
  8
SOLDER_MASK
100
AcDbVertex
100
AcDb2dVertex
 10
103.205500
 20
250.246000
 40
0.000000
 41
0.000000
 42
0.000000
  0
VERTEX
  5
328
100
AcDbEntity
  8
SOLDER_MASK
100
AcDbVertex
100
AcDb2dVertex
 10
103.205500
 20
250.896000
 40
0.000000
 41
0.000000
 42
0.000000
  0
VERTEX
  5
329
100
AcDbEntity
  8
SOLDER_MASK
100
AcDbVertex
100
AcDb2dVertex
 10
104.730500
 20
250.896000
 40
0.000000
 41
0.000000
 42
0.000000
  0
SEQEND
  5
325
100
AcDbEntity
  0
POLYLINE
  5
32a
100
AcDbEntity
  8
BOND
100
AcDb2dPolyline
 66
1
 70
1
 40
0.000000
 41
0.000000
 39
0.000000
  0
VERTEX
  5
32c
100
AcDbEntity
  8
BOND
100
AcDbVertex
100
AcDb2dVertex
 10
104.730500
 20
250.246000
 40
0.000000
 41
0.000000
 42
0.000000
  0
VERTEX
  5
32d
100
AcDbEntity
  8
BOND
100
AcDbVertex
100
AcDb2dVertex
 10
103.205500
 20
250.246000
 40
0.000000
 41
0.000000
 42
0.000000
  0
VERTEX
  5
32e
100
AcDbEntity
  8
BOND
100
AcDbVertex
100
AcDb2dVertex
 10
103.205500
 20
250.896000
 40
0.000000
 41
0.000000
 42
0.000000
  0
VERTEX
  5
32f
100
AcDbEntity
  8
BOND
100
AcDbVertex
100
AcDb2dVertex
 10
104.730500
 20
250.896000
 40
0.000000
 41
0.000000
 42
0.000000
  0
SEQEND
  5
32b
100
AcDbEntity
  0
TEXT
  5
330
100
AcDbEntity
  8
TEXT
100
AcDbText
 10
103.290667
 20
250.571000
 11
103.968000
 21
250.571000
 40
2.032000
 41
1.000000
 50
0.000000
  7
STANDARD
 71
0
 72
1
  1
2
100
AcDbText
 73
0
  0
POLYLINE
  5
331
100
AcDbEntity
  8
COND
100
AcDb2dPolyline
 66
1
 70
1
 40
0.000000
 41
0.000000
 39
0.000000
  0
VERTEX
  5
333
100
AcDbEntity
  8
COND
100
AcDbVertex
100
AcDb2dVertex
 10
104.730500
 20
248.976000
 40
0.000000
 41
0.000000
 42
0.000000
  0
VERTEX
  5
334
100
AcDbEntity
  8
COND
100
AcDbVertex
100
AcDb2dVertex
 10
103.205500
 20
248.976000
 40
0.000000
 41
0.000000
 42
0.000000
  0
VERTEX
  5
335
100
AcDbEntity
  8
COND
100
AcDbVertex
100
AcDb2dVertex
 10
103.205500
 20
249.626000
 40
0.000000
 41
0.000000
 42
0.000000
  0
VERTEX
  5
336
100
AcDbEntity
  8
COND
100
AcDbVertex
100
AcDb2dVertex
 10
104.730500
 20
249.626000
 40
0.000000
 41
0.000000
 42
0.000000
  0
SEQEND
  5
332
100
AcDbEntity
  0
POLYLINE
  5
337
100
AcDbEntity
  8
SOLDER_MASK
100
AcDb2dPolyline
 66
1
 70
1
 40
0.000000
 41
0.000000
 39
0.000000
  0
VERTEX
  5
339
100
AcDbEntity
  8
SOLDER_MASK
100
AcDbVertex
100
AcDb2dVertex
 10
104.730500
 20
248.976000
 40
0.000000
 41
0.000000
 42
0.000000
  0
VERTEX
  5
33a
100
AcDbEntity
  8
SOLDER_MASK
100
AcDbVertex
100
AcDb2dVertex
 10
103.205500
 20
248.976000
 40
0.000000
 41
0.000000
 42
0.000000
  0
VERTEX
  5
33b
100
AcDbEntity
  8
SOLDER_MASK
100
AcDbVertex
100
AcDb2dVertex
 10
103.205500
 20
249.626000
 40
0.000000
 41
0.000000
 42
0.000000
  0
VERTEX
  5
33c
100
AcDbEntity
  8
SOLDER_MASK
100
AcDbVertex
100
AcDb2dVertex
 10
104.730500
 20
249.626000
 40
0.000000
 41
0.000000
 42
0.000000
  0
SEQEND
  5
338
100
AcDbEntity
  0
POLYLINE
  5
33d
100
AcDbEntity
  8
BOND
100
AcDb2dPolyline
 66
1
 70
1
 40
0.000000
 41
0.000000
 39
0.000000
  0
VERTEX
  5
33f
100
AcDbEntity
  8
BOND
100
AcDbVertex
100
AcDb2dVertex
 10
104.730500
 20
248.976000
 40
0.000000
 41
0.000000
 42
0.000000
  0
VERTEX
  5
340
100
AcDbEntity
  8
BOND
100
AcDbVertex
100
AcDb2dVertex
 10
103.205500
 20
248.976000
 40
0.000000
 41
0.000000
 42
0.000000
  0
VERTEX
  5
341
100
AcDbEntity
  8
BOND
100
AcDbVertex
100
AcDb2dVertex
 10
103.205500
 20
249.626000
 40
0.000000
 41
0.000000
 42
0.000000
  0
VERTEX
  5
342
100
AcDbEntity
  8
BOND
100
AcDbVertex
100
AcDb2dVertex
 10
104.730500
 20
249.626000
 40
0.000000
 41
0.000000
 42
0.000000
  0
SEQEND
  5
33e
100
AcDbEntity
  0
TEXT
  5
343
100
AcDbEntity
  8
TEXT
100
AcDbText
 10
103.290667
 20
249.301000
 11
103.968000
 21
249.301000
 40
2.032000
 41
1.000000
 50
0.000000
  7
STANDARD
 71
0
 72
1
  1
3
100
AcDbText
 73
0
  0
POLYLINE
  5
344
100
AcDbEntity
  8
COND
100
AcDb2dPolyline
 66
1
 70
1
 40
0.000000
 41
0.000000
 39
0.000000
  0
VERTEX
  5
346
100
AcDbEntity
  8
COND
100
AcDbVertex
100
AcDb2dVertex
 10
104.730500
 20
247.706000
 40
0.000000
 41
0.000000
 42
0.000000
  0
VERTEX
  5
347
100
AcDbEntity
  8
COND
100
AcDbVertex
100
AcDb2dVertex
 10
103.205500
 20
247.706000
 40
0.000000
 41
0.000000
 42
0.000000
  0
VERTEX
  5
348
100
AcDbEntity
  8
COND
100
AcDbVertex
100
AcDb2dVertex
 10
103.205500
 20
248.356000
 40
0.000000
 41
0.000000
 42
0.000000
  0
VERTEX
  5
349
100
AcDbEntity
  8
COND
100
AcDbVertex
100
AcDb2dVertex
 10
104.730500
 20
248.356000
 40
0.000000
 41
0.000000
 42
0.000000
  0
SEQEND
  5
345
100
AcDbEntity
  0
POLYLINE
  5
34a
100
AcDbEntity
  8
SOLDER_MASK
100
AcDb2dPolyline
 66
1
 70
1
 40
0.000000
 41
0.000000
 39
0.000000
  0
VERTEX
  5
34c
100
AcDbEntity
  8
SOLDER_MASK
100
AcDbVertex
100
AcDb2dVertex
 10
104.730500
 20
247.706000
 40
0.000000
 41
0.000000
 42
0.000000
  0
VERTEX
  5
34d
100
AcDbEntity
  8
SOLDER_MASK
100
AcDbVertex
100
AcDb2dVertex
 10
103.205500
 20
247.706000
 40
0.000000
 41
0.000000
 42
0.000000
  0
VERTEX
  5
34e
100
AcDbEntity
  8
SOLDER_MASK
100
AcDbVertex
100
AcDb2dVertex
 10
103.205500
 20
248.356000
 40
0.000000
 41
0.000000
 42
0.000000
  0
VERTEX
  5
34f
100
AcDbEntity
  8
SOLDER_MASK
100
AcDbVertex
100
AcDb2dVertex
 10
104.730500
 20
248.356000
 40
0.000000
 41
0.000000
 42
0.000000
  0
SEQEND
  5
34b
100
AcDbEntity
  0
POLYLINE
  5
350
100
AcDbEntity
  8
BOND
100
AcDb2dPolyline
 66
1
 70
1
 40
0.000000
 41
0.000000
 39
0.000000
  0
VERTEX
  5
352
100
AcDbEntity
  8
BOND
100
AcDbVertex
100
AcDb2dVertex
 10
104.730500
 20
247.706000
 40
0.000000
 41
0.000000
 42
0.000000
  0
VERTEX
  5
353
100
AcDbEntity
  8
BOND
100
AcDbVertex
100
AcDb2dVertex
 10
103.205500
 20
247.706000
 40
0.000000
 41
0.000000
 42
0.000000
  0
VERTEX
  5
354
100
AcDbEntity
  8
BOND
100
AcDbVertex
100
AcDb2dVertex
 10
103.205500
 20
248.356000
 40
0.000000
 41
0.000000
 42
0.000000
  0
VERTEX
  5
355
100
AcDbEntity
  8
BOND
100
AcDbVertex
100
AcDb2dVertex
 10
104.730500
 20
248.356000
 40
0.000000
 41
0.000000
 42
0.000000
  0
SEQEND
  5
351
100
AcDbEntity
  0
TEXT
  5
356
100
AcDbEntity
  8
TEXT
100
AcDbText
 10
103.290667
 20
248.031000
 11
103.968000
 21
248.031000
 40
2.032000
 41
1.000000
 50
0.000000
  7
STANDARD
 71
0
 72
1
  1
4
100
AcDbText
 73
0
  0
POLYLINE
  5
357
100
AcDbEntity
  8
COND
100
AcDb2dPolyline
 66
1
 70
1
 40
0.000000
 41
0.000000
 39
0.000000
  0
VERTEX
  5
359
100
AcDbEntity
  8
COND
100
AcDbVertex
100
AcDb2dVertex
 10
104.730500
 20
246.436000
 40
0.000000
 41
0.000000
 42
0.000000
  0
VERTEX
  5
35a
100
AcDbEntity
  8
COND
100
AcDbVertex
100
AcDb2dVertex
 10
103.205500
 20
246.436000
 40
0.000000
 41
0.000000
 42
0.000000
  0
VERTEX
  5
35b
100
AcDbEntity
  8
COND
100
AcDbVertex
100
AcDb2dVertex
 10
103.205500
 20
247.086000
 40
0.000000
 41
0.000000
 42
0.000000
  0
VERTEX
  5
35c
100
AcDbEntity
  8
COND
100
AcDbVertex
100
AcDb2dVertex
 10
104.730500
 20
247.086000
 40
0.000000
 41
0.000000
 42
0.000000
  0
SEQEND
  5
358
100
AcDbEntity
  0
POLYLINE
  5
35d
100
AcDbEntity
  8
SOLDER_MASK
100
AcDb2dPolyline
 66
1
 70
1
 40
0.000000
 41
0.000000
 39
0.000000
  0
VERTEX
  5
35f
100
AcDbEntity
  8
SOLDER_MASK
100
AcDbVertex
100
AcDb2dVertex
 10
104.730500
 20
246.436000
 40
0.000000
 41
0.000000
 42
0.000000
  0
VERTEX
  5
360
100
AcDbEntity
  8
SOLDER_MASK
100
AcDbVertex
100
AcDb2dVertex
 10
103.205500
 20
246.436000
 40
0.000000
 41
0.000000
 42
0.000000
  0
VERTEX
  5
361
100
AcDbEntity
  8
SOLDER_MASK
100
AcDbVertex
100
AcDb2dVertex
 10
103.205500
 20
247.086000
 40
0.000000
 41
0.000000
 42
0.000000
  0
VERTEX
  5
362
100
AcDbEntity
  8
SOLDER_MASK
100
AcDbVertex
100
AcDb2dVertex
 10
104.730500
 20
247.086000
 40
0.000000
 41
0.000000
 42
0.000000
  0
SEQEND
  5
35e
100
AcDbEntity
  0
POLYLINE
  5
363
100
AcDbEntity
  8
BOND
100
AcDb2dPolyline
 66
1
 70
1
 40
0.000000
 41
0.000000
 39
0.000000
  0
VERTEX
  5
365
100
AcDbEntity
  8
BOND
100
AcDbVertex
100
AcDb2dVertex
 10
104.730500
 20
246.436000
 40
0.000000
 41
0.000000
 42
0.000000
  0
VERTEX
  5
366
100
AcDbEntity
  8
BOND
100
AcDbVertex
100
AcDb2dVertex
 10
103.205500
 20
246.436000
 40
0.000000
 41
0.000000
 42
0.000000
  0
VERTEX
  5
367
100
AcDbEntity
  8
BOND
100
AcDbVertex
100
AcDb2dVertex
 10
103.205500
 20
247.086000
 40
0.000000
 41
0.000000
 42
0.000000
  0
VERTEX
  5
368
100
AcDbEntity
  8
BOND
100
AcDbVertex
100
AcDb2dVertex
 10
104.730500
 20
247.086000
 40
0.000000
 41
0.000000
 42
0.000000
  0
SEQEND
  5
364
100
AcDbEntity
  0
TEXT
  5
369
100
AcDbEntity
  8
TEXT
100
AcDbText
 10
103.290667
 20
246.761000
 11
103.968000
 21
246.761000
 40
2.032000
 41
1.000000
 50
0.000000
  7
STANDARD
 71
0
 72
1
  1
5
100
AcDbText
 73
0
  0
POLYLINE
  5
36a
100
AcDbEntity
  8
COND
100
AcDb2dPolyline
 66
1
 70
1
 40
0.000000
 41
0.000000
 39
0.000000
  0
VERTEX
  5
36c
100
AcDbEntity
  8
COND
100
AcDbVertex
100
AcDb2dVertex
 10
104.730500
 20
245.166000
 40
0.000000
 41
0.000000
 42
0.000000
  0
VERTEX
  5
36d
100
AcDbEntity
  8
COND
100
AcDbVertex
100
AcDb2dVertex
 10
103.205500
 20
245.166000
 40
0.000000
 41
0.000000
 42
0.000000
  0
VERTEX
  5
36e
100
AcDbEntity
  8
COND
100
AcDbVertex
100
AcDb2dVertex
 10
103.205500
 20
245.816000
 40
0.000000
 41
0.000000
 42
0.000000
  0
VERTEX
  5
36f
100
AcDbEntity
  8
COND
100
AcDbVertex
100
AcDb2dVertex
 10
104.730500
 20
245.816000
 40
0.000000
 41
0.000000
 42
0.000000
  0
SEQEND
  5
36b
100
AcDbEntity
  0
POLYLINE
  5
370
100
AcDbEntity
  8
SOLDER_MASK
100
AcDb2dPolyline
 66
1
 70
1
 40
0.000000
 41
0.000000
 39
0.000000
  0
VERTEX
  5
372
100
AcDbEntity
  8
SOLDER_MASK
100
AcDbVertex
100
AcDb2dVertex
 10
104.730500
 20
245.166000
 40
0.000000
 41
0.000000
 42
0.000000
  0
VERTEX
  5
373
100
AcDbEntity
  8
SOLDER_MASK
100
AcDbVertex
100
AcDb2dVertex
 10
103.205500
 20
245.166000
 40
0.000000
 41
0.000000
 42
0.000000
  0
VERTEX
  5
374
100
AcDbEntity
  8
SOLDER_MASK
100
AcDbVertex
100
AcDb2dVertex
 10
103.205500
 20
245.816000
 40
0.000000
 41
0.000000
 42
0.000000
  0
VERTEX
  5
375
100
AcDbEntity
  8
SOLDER_MASK
100
AcDbVertex
100
AcDb2dVertex
 10
104.730500
 20
245.816000
 40
0.000000
 41
0.000000
 42
0.000000
  0
SEQEND
  5
371
100
AcDbEntity
  0
POLYLINE
  5
376
100
AcDbEntity
  8
BOND
100
AcDb2dPolyline
 66
1
 70
1
 40
0.000000
 41
0.000000
 39
0.000000
  0
VERTEX
  5
378
100
AcDbEntity
  8
BOND
100
AcDbVertex
100
AcDb2dVertex
 10
104.730500
 20
245.166000
 40
0.000000
 41
0.000000
 42
0.000000
  0
VERTEX
  5
379
100
AcDbEntity
  8
BOND
100
AcDbVertex
100
AcDb2dVertex
 10
103.205500
 20
245.166000
 40
0.000000
 41
0.000000
 42
0.000000
  0
VERTEX
  5
37a
100
AcDbEntity
  8
BOND
100
AcDbVertex
100
AcDb2dVertex
 10
103.205500
 20
245.816000
 40
0.000000
 41
0.000000
 42
0.000000
  0
VERTEX
  5
37b
100
AcDbEntity
  8
BOND
100
AcDbVertex
100
AcDb2dVertex
 10
104.730500
 20
245.816000
 40
0.000000
 41
0.000000
 42
0.000000
  0
SEQEND
  5
377
100
AcDbEntity
  0
TEXT
  5
37c
100
AcDbEntity
  8
TEXT
100
AcDbText
 10
103.290667
 20
245.491000
 11
103.968000
 21
245.491000
 40
2.032000
 41
1.000000
 50
0.000000
  7
STANDARD
 71
0
 72
1
  1
6
100
AcDbText
 73
0
  0
POLYLINE
  5
37d
100
AcDbEntity
  8
COND
100
AcDb2dPolyline
 66
1
 70
1
 40
0.000000
 41
0.000000
 39
0.000000
  0
VERTEX
  5
37f
100
AcDbEntity
  8
COND
100
AcDbVertex
100
AcDb2dVertex
 10
104.730500
 20
243.896000
 40
0.000000
 41
0.000000
 42
0.000000
  0
VERTEX
  5
380
100
AcDbEntity
  8
COND
100
AcDbVertex
100
AcDb2dVertex
 10
103.205500
 20
243.896000
 40
0.000000
 41
0.000000
 42
0.000000
  0
VERTEX
  5
381
100
AcDbEntity
  8
COND
100
AcDbVertex
100
AcDb2dVertex
 10
103.205500
 20
244.546000
 40
0.000000
 41
0.000000
 42
0.000000
  0
VERTEX
  5
382
100
AcDbEntity
  8
COND
100
AcDbVertex
100
AcDb2dVertex
 10
104.730500
 20
244.546000
 40
0.000000
 41
0.000000
 42
0.000000
  0
SEQEND
  5
37e
100
AcDbEntity
  0
POLYLINE
  5
383
100
AcDbEntity
  8
SOLDER_MASK
100
AcDb2dPolyline
 66
1
 70
1
 40
0.000000
 41
0.000000
 39
0.000000
  0
VERTEX
  5
385
100
AcDbEntity
  8
SOLDER_MASK
100
AcDbVertex
100
AcDb2dVertex
 10
104.730500
 20
243.896000
 40
0.000000
 41
0.000000
 42
0.000000
  0
VERTEX
  5
386
100
AcDbEntity
  8
SOLDER_MASK
100
AcDbVertex
100
AcDb2dVertex
 10
103.205500
 20
243.896000
 40
0.000000
 41
0.000000
 42
0.000000
  0
VERTEX
  5
387
100
AcDbEntity
  8
SOLDER_MASK
100
AcDbVertex
100
AcDb2dVertex
 10
103.205500
 20
244.546000
 40
0.000000
 41
0.000000
 42
0.000000
  0
VERTEX
  5
388
100
AcDbEntity
  8
SOLDER_MASK
100
AcDbVertex
100
AcDb2dVertex
 10
104.730500
 20
244.546000
 40
0.000000
 41
0.000000
 42
0.000000
  0
SEQEND
  5
384
100
AcDbEntity
  0
POLYLINE
  5
389
100
AcDbEntity
  8
BOND
100
AcDb2dPolyline
 66
1
 70
1
 40
0.000000
 41
0.000000
 39
0.000000
  0
VERTEX
  5
38b
100
AcDbEntity
  8
BOND
100
AcDbVertex
100
AcDb2dVertex
 10
104.730500
 20
243.896000
 40
0.000000
 41
0.000000
 42
0.000000
  0
VERTEX
  5
38c
100
AcDbEntity
  8
BOND
100
AcDbVertex
100
AcDb2dVertex
 10
103.205500
 20
243.896000
 40
0.000000
 41
0.000000
 42
0.000000
  0
VERTEX
  5
38d
100
AcDbEntity
  8
BOND
100
AcDbVertex
100
AcDb2dVertex
 10
103.205500
 20
244.546000
 40
0.000000
 41
0.000000
 42
0.000000
  0
VERTEX
  5
38e
100
AcDbEntity
  8
BOND
100
AcDbVertex
100
AcDb2dVertex
 10
104.730500
 20
244.546000
 40
0.000000
 41
0.000000
 42
0.000000
  0
SEQEND
  5
38a
100
AcDbEntity
  0
TEXT
  5
38f
100
AcDbEntity
  8
TEXT
100
AcDbText
 10
103.290667
 20
244.221000
 11
103.968000
 21
244.221000
 40
2.032000
 41
1.000000
 50
0.000000
  7
STANDARD
 71
0
 72
1
  1
7
100
AcDbText
 73
0
  0
POLYLINE
  5
390
100
AcDbEntity
  8
COND
100
AcDb2dPolyline
 66
1
 70
1
 40
0.000000
 41
0.000000
 39
0.000000
  0
VERTEX
  5
392
100
AcDbEntity
  8
COND
100
AcDbVertex
100
AcDb2dVertex
 10
104.730500
 20
242.626000
 40
0.000000
 41
0.000000
 42
0.000000
  0
VERTEX
  5
393
100
AcDbEntity
  8
COND
100
AcDbVertex
100
AcDb2dVertex
 10
103.205500
 20
242.626000
 40
0.000000
 41
0.000000
 42
0.000000
  0
VERTEX
  5
394
100
AcDbEntity
  8
COND
100
AcDbVertex
100
AcDb2dVertex
 10
103.205500
 20
243.276000
 40
0.000000
 41
0.000000
 42
0.000000
  0
VERTEX
  5
395
100
AcDbEntity
  8
COND
100
AcDbVertex
100
AcDb2dVertex
 10
104.730500
 20
243.276000
 40
0.000000
 41
0.000000
 42
0.000000
  0
SEQEND
  5
391
100
AcDbEntity
  0
POLYLINE
  5
396
100
AcDbEntity
  8
SOLDER_MASK
100
AcDb2dPolyline
 66
1
 70
1
 40
0.000000
 41
0.000000
 39
0.000000
  0
VERTEX
  5
398
100
AcDbEntity
  8
SOLDER_MASK
100
AcDbVertex
100
AcDb2dVertex
 10
104.730500
 20
242.626000
 40
0.000000
 41
0.000000
 42
0.000000
  0
VERTEX
  5
399
100
AcDbEntity
  8
SOLDER_MASK
100
AcDbVertex
100
AcDb2dVertex
 10
103.205500
 20
242.626000
 40
0.000000
 41
0.000000
 42
0.000000
  0
VERTEX
  5
39a
100
AcDbEntity
  8
SOLDER_MASK
100
AcDbVertex
100
AcDb2dVertex
 10
103.205500
 20
243.276000
 40
0.000000
 41
0.000000
 42
0.000000
  0
VERTEX
  5
39b
100
AcDbEntity
  8
SOLDER_MASK
100
AcDbVertex
100
AcDb2dVertex
 10
104.730500
 20
243.276000
 40
0.000000
 41
0.000000
 42
0.000000
  0
SEQEND
  5
397
100
AcDbEntity
  0
POLYLINE
  5
39c
100
AcDbEntity
  8
BOND
100
AcDb2dPolyline
 66
1
 70
1
 40
0.000000
 41
0.000000
 39
0.000000
  0
VERTEX
  5
39e
100
AcDbEntity
  8
BOND
100
AcDbVertex
100
AcDb2dVertex
 10
104.730500
 20
242.626000
 40
0.000000
 41
0.000000
 42
0.000000
  0
VERTEX
  5
39f
100
AcDbEntity
  8
BOND
100
AcDbVertex
100
AcDb2dVertex
 10
103.205500
 20
242.626000
 40
0.000000
 41
0.000000
 42
0.000000
  0
VERTEX
  5
3a0
100
AcDbEntity
  8
BOND
100
AcDbVertex
100
AcDb2dVertex
 10
103.205500
 20
243.276000
 40
0.000000
 41
0.000000
 42
0.000000
  0
VERTEX
  5
3a1
100
AcDbEntity
  8
BOND
100
AcDbVertex
100
AcDb2dVertex
 10
104.730500
 20
243.276000
 40
0.000000
 41
0.000000
 42
0.000000
  0
SEQEND
  5
39d
100
AcDbEntity
  0
TEXT
  5
3a2
100
AcDbEntity
  8
TEXT
100
AcDbText
 10
103.290667
 20
242.951000
 11
103.968000
 21
242.951000
 40
2.032000
 41
1.000000
 50
0.000000
  7
STANDARD
 71
0
 72
1
  1
8
100
AcDbText
 73
0
  0
POLYLINE
  5
3a3
100
AcDbEntity
  8
COND
100
AcDb2dPolyline
 66
1
 70
1
 40
0.000000
 41
0.000000
 39
0.000000
  0
VERTEX
  5
3a5
100
AcDbEntity
  8
COND
100
AcDbVertex
100
AcDb2dVertex
 10
110.154500
 20
242.626000
 40
0.000000
 41
0.000000
 42
0.000000
  0
VERTEX
  5
3a6
100
AcDbEntity
  8
COND
100
AcDbVertex
100
AcDb2dVertex
 10
108.629500
 20
242.626000
 40
0.000000
 41
0.000000
 42
0.000000
  0
VERTEX
  5
3a7
100
AcDbEntity
  8
COND
100
AcDbVertex
100
AcDb2dVertex
 10
108.629500
 20
243.276000
 40
0.000000
 41
0.000000
 42
0.000000
  0
VERTEX
  5
3a8
100
AcDbEntity
  8
COND
100
AcDbVertex
100
AcDb2dVertex
 10
110.154500
 20
243.276000
 40
0.000000
 41
0.000000
 42
0.000000
  0
SEQEND
  5
3a4
100
AcDbEntity
  0
POLYLINE
  5
3a9
100
AcDbEntity
  8
SOLDER_MASK
100
AcDb2dPolyline
 66
1
 70
1
 40
0.000000
 41
0.000000
 39
0.000000
  0
VERTEX
  5
3ab
100
AcDbEntity
  8
SOLDER_MASK
100
AcDbVertex
100
AcDb2dVertex
 10
110.154500
 20
242.626000
 40
0.000000
 41
0.000000
 42
0.000000
  0
VERTEX
  5
3ac
100
AcDbEntity
  8
SOLDER_MASK
100
AcDbVertex
100
AcDb2dVertex
 10
108.629500
 20
242.626000
 40
0.000000
 41
0.000000
 42
0.000000
  0
VERTEX
  5
3ad
100
AcDbEntity
  8
SOLDER_MASK
100
AcDbVertex
100
AcDb2dVertex
 10
108.629500
 20
243.276000
 40
0.000000
 41
0.000000
 42
0.000000
  0
VERTEX
  5
3ae
100
AcDbEntity
  8
SOLDER_MASK
100
AcDbVertex
100
AcDb2dVertex
 10
110.154500
 20
243.276000
 40
0.000000
 41
0.000000
 42
0.000000
  0
SEQEND
  5
3aa
100
AcDbEntity
  0
POLYLINE
  5
3af
100
AcDbEntity
  8
BOND
100
AcDb2dPolyline
 66
1
 70
1
 40
0.000000
 41
0.000000
 39
0.000000
  0
VERTEX
  5
3b1
100
AcDbEntity
  8
BOND
100
AcDbVertex
100
AcDb2dVertex
 10
110.154500
 20
242.626000
 40
0.000000
 41
0.000000
 42
0.000000
  0
VERTEX
  5
3b2
100
AcDbEntity
  8
BOND
100
AcDbVertex
100
AcDb2dVertex
 10
108.629500
 20
242.626000
 40
0.000000
 41
0.000000
 42
0.000000
  0
VERTEX
  5
3b3
100
AcDbEntity
  8
BOND
100
AcDbVertex
100
AcDb2dVertex
 10
108.629500
 20
243.276000
 40
0.000000
 41
0.000000
 42
0.000000
  0
VERTEX
  5
3b4
100
AcDbEntity
  8
BOND
100
AcDbVertex
100
AcDb2dVertex
 10
110.154500
 20
243.276000
 40
0.000000
 41
0.000000
 42
0.000000
  0
SEQEND
  5
3b0
100
AcDbEntity
  0
TEXT
  5
3b5
100
AcDbEntity
  8
TEXT
100
AcDbText
 10
108.714667
 20
242.951000
 11
109.392000
 21
242.951000
 40
2.032000
 41
1.000000
 50
0.000000
  7
STANDARD
 71
0
 72
1
  1
9
100
AcDbText
 73
0
  0
POLYLINE
  5
3b6
100
AcDbEntity
  8
COND
100
AcDb2dPolyline
 66
1
 70
1
 40
0.000000
 41
0.000000
 39
0.000000
  0
VERTEX
  5
3b8
100
AcDbEntity
  8
COND
100
AcDbVertex
100
AcDb2dVertex
 10
110.154500
 20
243.896000
 40
0.000000
 41
0.000000
 42
0.000000
  0
VERTEX
  5
3b9
100
AcDbEntity
  8
COND
100
AcDbVertex
100
AcDb2dVertex
 10
108.629500
 20
243.896000
 40
0.000000
 41
0.000000
 42
0.000000
  0
VERTEX
  5
3ba
100
AcDbEntity
  8
COND
100
AcDbVertex
100
AcDb2dVertex
 10
108.629500
 20
244.546000
 40
0.000000
 41
0.000000
 42
0.000000
  0
VERTEX
  5
3bb
100
AcDbEntity
  8
COND
100
AcDbVertex
100
AcDb2dVertex
 10
110.154500
 20
244.546000
 40
0.000000
 41
0.000000
 42
0.000000
  0
SEQEND
  5
3b7
100
AcDbEntity
  0
POLYLINE
  5
3bc
100
AcDbEntity
  8
SOLDER_MASK
100
AcDb2dPolyline
 66
1
 70
1
 40
0.000000
 41
0.000000
 39
0.000000
  0
VERTEX
  5
3be
100
AcDbEntity
  8
SOLDER_MASK
100
AcDbVertex
100
AcDb2dVertex
 10
110.154500
 20
243.896000
 40
0.000000
 41
0.000000
 42
0.000000
  0
VERTEX
  5
3bf
100
AcDbEntity
  8
SOLDER_MASK
100
AcDbVertex
100
AcDb2dVertex
 10
108.629500
 20
243.896000
 40
0.000000
 41
0.000000
 42
0.000000
  0
VERTEX
  5
3c0
100
AcDbEntity
  8
SOLDER_MASK
100
AcDbVertex
100
AcDb2dVertex
 10
108.629500
 20
244.546000
 40
0.000000
 41
0.000000
 42
0.000000
  0
VERTEX
  5
3c1
100
AcDbEntity
  8
SOLDER_MASK
100
AcDbVertex
100
AcDb2dVertex
 10
110.154500
 20
244.546000
 40
0.000000
 41
0.000000
 42
0.000000
  0
SEQEND
  5
3bd
100
AcDbEntity
  0
POLYLINE
  5
3c2
100
AcDbEntity
  8
BOND
100
AcDb2dPolyline
 66
1
 70
1
 40
0.000000
 41
0.000000
 39
0.000000
  0
VERTEX
  5
3c4
100
AcDbEntity
  8
BOND
100
AcDbVertex
100
AcDb2dVertex
 10
110.154500
 20
243.896000
 40
0.000000
 41
0.000000
 42
0.000000
  0
VERTEX
  5
3c5
100
AcDbEntity
  8
BOND
100
AcDbVertex
100
AcDb2dVertex
 10
108.629500
 20
243.896000
 40
0.000000
 41
0.000000
 42
0.000000
  0
VERTEX
  5
3c6
100
AcDbEntity
  8
BOND
100
AcDbVertex
100
AcDb2dVertex
 10
108.629500
 20
244.546000
 40
0.000000
 41
0.000000
 42
0.000000
  0
VERTEX
  5
3c7
100
AcDbEntity
  8
BOND
100
AcDbVertex
100
AcDb2dVertex
 10
110.154500
 20
244.546000
 40
0.000000
 41
0.000000
 42
0.000000
  0
SEQEND
  5
3c3
100
AcDbEntity
  0
TEXT
  5
3c8
100
AcDbEntity
  8
TEXT
100
AcDbText
 10
108.714667
 20
244.221000
 11
109.392000
 21
244.221000
 40
2.032000
 41
1.000000
 50
0.000000
  7
STANDARD
 71
0
 72
1
  1
10
100
AcDbText
 73
0
  0
POLYLINE
  5
3c9
100
AcDbEntity
  8
COND
100
AcDb2dPolyline
 66
1
 70
1
 40
0.000000
 41
0.000000
 39
0.000000
  0
VERTEX
  5
3cb
100
AcDbEntity
  8
COND
100
AcDbVertex
100
AcDb2dVertex
 10
110.154500
 20
245.166000
 40
0.000000
 41
0.000000
 42
0.000000
  0
VERTEX
  5
3cc
100
AcDbEntity
  8
COND
100
AcDbVertex
100
AcDb2dVertex
 10
108.629500
 20
245.166000
 40
0.000000
 41
0.000000
 42
0.000000
  0
VERTEX
  5
3cd
100
AcDbEntity
  8
COND
100
AcDbVertex
100
AcDb2dVertex
 10
108.629500
 20
245.816000
 40
0.000000
 41
0.000000
 42
0.000000
  0
VERTEX
  5
3ce
100
AcDbEntity
  8
COND
100
AcDbVertex
100
AcDb2dVertex
 10
110.154500
 20
245.816000
 40
0.000000
 41
0.000000
 42
0.000000
  0
SEQEND
  5
3ca
100
AcDbEntity
  0
POLYLINE
  5
3cf
100
AcDbEntity
  8
SOLDER_MASK
100
AcDb2dPolyline
 66
1
 70
1
 40
0.000000
 41
0.000000
 39
0.000000
  0
VERTEX
  5
3d1
100
AcDbEntity
  8
SOLDER_MASK
100
AcDbVertex
100
AcDb2dVertex
 10
110.154500
 20
245.166000
 40
0.000000
 41
0.000000
 42
0.000000
  0
VERTEX
  5
3d2
100
AcDbEntity
  8
SOLDER_MASK
100
AcDbVertex
100
AcDb2dVertex
 10
108.629500
 20
245.166000
 40
0.000000
 41
0.000000
 42
0.000000
  0
VERTEX
  5
3d3
100
AcDbEntity
  8
SOLDER_MASK
100
AcDbVertex
100
AcDb2dVertex
 10
108.629500
 20
245.816000
 40
0.000000
 41
0.000000
 42
0.000000
  0
VERTEX
  5
3d4
100
AcDbEntity
  8
SOLDER_MASK
100
AcDbVertex
100
AcDb2dVertex
 10
110.154500
 20
245.816000
 40
0.000000
 41
0.000000
 42
0.000000
  0
SEQEND
  5
3d0
100
AcDbEntity
  0
POLYLINE
  5
3d5
100
AcDbEntity
  8
BOND
100
AcDb2dPolyline
 66
1
 70
1
 40
0.000000
 41
0.000000
 39
0.000000
  0
VERTEX
  5
3d7
100
AcDbEntity
  8
BOND
100
AcDbVertex
100
AcDb2dVertex
 10
110.154500
 20
245.166000
 40
0.000000
 41
0.000000
 42
0.000000
  0
VERTEX
  5
3d8
100
AcDbEntity
  8
BOND
100
AcDbVertex
100
AcDb2dVertex
 10
108.629500
 20
245.166000
 40
0.000000
 41
0.000000
 42
0.000000
  0
VERTEX
  5
3d9
100
AcDbEntity
  8
BOND
100
AcDbVertex
100
AcDb2dVertex
 10
108.629500
 20
245.816000
 40
0.000000
 41
0.000000
 42
0.000000
  0
VERTEX
  5
3da
100
AcDbEntity
  8
BOND
100
AcDbVertex
100
AcDb2dVertex
 10
110.154500
 20
245.816000
 40
0.000000
 41
0.000000
 42
0.000000
  0
SEQEND
  5
3d6
100
AcDbEntity
  0
TEXT
  5
3db
100
AcDbEntity
  8
TEXT
100
AcDbText
 10
108.714667
 20
245.491000
 11
109.392000
 21
245.491000
 40
2.032000
 41
1.000000
 50
0.000000
  7
STANDARD
 71
0
 72
1
  1
11
100
AcDbText
 73
0
  0
POLYLINE
  5
3dc
100
AcDbEntity
  8
COND
100
AcDb2dPolyline
 66
1
 70
1
 40
0.000000
 41
0.000000
 39
0.000000
  0
VERTEX
  5
3de
100
AcDbEntity
  8
COND
100
AcDbVertex
100
AcDb2dVertex
 10
110.154500
 20
246.436000
 40
0.000000
 41
0.000000
 42
0.000000
  0
VERTEX
  5
3df
100
AcDbEntity
  8
COND
100
AcDbVertex
100
AcDb2dVertex
 10
108.629500
 20
246.436000
 40
0.000000
 41
0.000000
 42
0.000000
  0
VERTEX
  5
3e0
100
AcDbEntity
  8
COND
100
AcDbVertex
100
AcDb2dVertex
 10
108.629500
 20
247.086000
 40
0.000000
 41
0.000000
 42
0.000000
  0
VERTEX
  5
3e1
100
AcDbEntity
  8
COND
100
AcDbVertex
100
AcDb2dVertex
 10
110.154500
 20
247.086000
 40
0.000000
 41
0.000000
 42
0.000000
  0
SEQEND
  5
3dd
100
AcDbEntity
  0
POLYLINE
  5
3e2
100
AcDbEntity
  8
SOLDER_MASK
100
AcDb2dPolyline
 66
1
 70
1
 40
0.000000
 41
0.000000
 39
0.000000
  0
VERTEX
  5
3e4
100
AcDbEntity
  8
SOLDER_MASK
100
AcDbVertex
100
AcDb2dVertex
 10
110.154500
 20
246.436000
 40
0.000000
 41
0.000000
 42
0.000000
  0
VERTEX
  5
3e5
100
AcDbEntity
  8
SOLDER_MASK
100
AcDbVertex
100
AcDb2dVertex
 10
108.629500
 20
246.436000
 40
0.000000
 41
0.000000
 42
0.000000
  0
VERTEX
  5
3e6
100
AcDbEntity
  8
SOLDER_MASK
100
AcDbVertex
100
AcDb2dVertex
 10
108.629500
 20
247.086000
 40
0.000000
 41
0.000000
 42
0.000000
  0
VERTEX
  5
3e7
100
AcDbEntity
  8
SOLDER_MASK
100
AcDbVertex
100
AcDb2dVertex
 10
110.154500
 20
247.086000
 40
0.000000
 41
0.000000
 42
0.000000
  0
SEQEND
  5
3e3
100
AcDbEntity
  0
POLYLINE
  5
3e8
100
AcDbEntity
  8
BOND
100
AcDb2dPolyline
 66
1
 70
1
 40
0.000000
 41
0.000000
 39
0.000000
  0
VERTEX
  5
3ea
100
AcDbEntity
  8
BOND
100
AcDbVertex
100
AcDb2dVertex
 10
110.154500
 20
246.436000
 40
0.000000
 41
0.000000
 42
0.000000
  0
VERTEX
  5
3eb
100
AcDbEntity
  8
BOND
100
AcDbVertex
100
AcDb2dVertex
 10
108.629500
 20
246.436000
 40
0.000000
 41
0.000000
 42
0.000000
  0
VERTEX
  5
3ec
100
AcDbEntity
  8
BOND
100
AcDbVertex
100
AcDb2dVertex
 10
108.629500
 20
247.086000
 40
0.000000
 41
0.000000
 42
0.000000
  0
VERTEX
  5
3ed
100
AcDbEntity
  8
BOND
100
AcDbVertex
100
AcDb2dVertex
 10
110.154500
 20
247.086000
 40
0.000000
 41
0.000000
 42
0.000000
  0
SEQEND
  5
3e9
100
AcDbEntity
  0
TEXT
  5
3ee
100
AcDbEntity
  8
TEXT
100
AcDbText
 10
108.714667
 20
246.761000
 11
109.392000
 21
246.761000
 40
2.032000
 41
1.000000
 50
0.000000
  7
STANDARD
 71
0
 72
1
  1
12
100
AcDbText
 73
0
  0
POLYLINE
  5
3ef
100
AcDbEntity
  8
COND
100
AcDb2dPolyline
 66
1
 70
1
 40
0.000000
 41
0.000000
 39
0.000000
  0
VERTEX
  5
3f1
100
AcDbEntity
  8
COND
100
AcDbVertex
100
AcDb2dVertex
 10
110.154500
 20
247.706000
 40
0.000000
 41
0.000000
 42
0.000000
  0
VERTEX
  5
3f2
100
AcDbEntity
  8
COND
100
AcDbVertex
100
AcDb2dVertex
 10
108.629500
 20
247.706000
 40
0.000000
 41
0.000000
 42
0.000000
  0
VERTEX
  5
3f3
100
AcDbEntity
  8
COND
100
AcDbVertex
100
AcDb2dVertex
 10
108.629500
 20
248.356000
 40
0.000000
 41
0.000000
 42
0.000000
  0
VERTEX
  5
3f4
100
AcDbEntity
  8
COND
100
AcDbVertex
100
AcDb2dVertex
 10
110.154500
 20
248.356000
 40
0.000000
 41
0.000000
 42
0.000000
  0
SEQEND
  5
3f0
100
AcDbEntity
  0
POLYLINE
  5
3f5
100
AcDbEntity
  8
SOLDER_MASK
100
AcDb2dPolyline
 66
1
 70
1
 40
0.000000
 41
0.000000
 39
0.000000
  0
VERTEX
  5
3f7
100
AcDbEntity
  8
SOLDER_MASK
100
AcDbVertex
100
AcDb2dVertex
 10
110.154500
 20
247.706000
 40
0.000000
 41
0.000000
 42
0.000000
  0
VERTEX
  5
3f8
100
AcDbEntity
  8
SOLDER_MASK
100
AcDbVertex
100
AcDb2dVertex
 10
108.629500
 20
247.706000
 40
0.000000
 41
0.000000
 42
0.000000
  0
VERTEX
  5
3f9
100
AcDbEntity
  8
SOLDER_MASK
100
AcDbVertex
100
AcDb2dVertex
 10
108.629500
 20
248.356000
 40
0.000000
 41
0.000000
 42
0.000000
  0
VERTEX
  5
3fa
100
AcDbEntity
  8
SOLDER_MASK
100
AcDbVertex
100
AcDb2dVertex
 10
110.154500
 20
248.356000
 40
0.000000
 41
0.000000
 42
0.000000
  0
SEQEND
  5
3f6
100
AcDbEntity
  0
POLYLINE
  5
3fb
100
AcDbEntity
  8
BOND
100
AcDb2dPolyline
 66
1
 70
1
 40
0.000000
 41
0.000000
 39
0.000000
  0
VERTEX
  5
3fd
100
AcDbEntity
  8
BOND
100
AcDbVertex
100
AcDb2dVertex
 10
110.154500
 20
247.706000
 40
0.000000
 41
0.000000
 42
0.000000
  0
VERTEX
  5
3fe
100
AcDbEntity
  8
BOND
100
AcDbVertex
100
AcDb2dVertex
 10
108.629500
 20
247.706000
 40
0.000000
 41
0.000000
 42
0.000000
  0
VERTEX
  5
3ff
100
AcDbEntity
  8
BOND
100
AcDbVertex
100
AcDb2dVertex
 10
108.629500
 20
248.356000
 40
0.000000
 41
0.000000
 42
0.000000
  0
VERTEX
  5
400
100
AcDbEntity
  8
BOND
100
AcDbVertex
100
AcDb2dVertex
 10
110.154500
 20
248.356000
 40
0.000000
 41
0.000000
 42
0.000000
  0
SEQEND
  5
3fc
100
AcDbEntity
  0
TEXT
  5
401
100
AcDbEntity
  8
TEXT
100
AcDbText
 10
108.714667
 20
248.031000
 11
109.392000
 21
248.031000
 40
2.032000
 41
1.000000
 50
0.000000
  7
STANDARD
 71
0
 72
1
  1
13
100
AcDbText
 73
0
  0
POLYLINE
  5
402
100
AcDbEntity
  8
COND
100
AcDb2dPolyline
 66
1
 70
1
 40
0.000000
 41
0.000000
 39
0.000000
  0
VERTEX
  5
404
100
AcDbEntity
  8
COND
100
AcDbVertex
100
AcDb2dVertex
 10
110.154500
 20
248.976000
 40
0.000000
 41
0.000000
 42
0.000000
  0
VERTEX
  5
405
100
AcDbEntity
  8
COND
100
AcDbVertex
100
AcDb2dVertex
 10
108.629500
 20
248.976000
 40
0.000000
 41
0.000000
 42
0.000000
  0
VERTEX
  5
406
100
AcDbEntity
  8
COND
100
AcDbVertex
100
AcDb2dVertex
 10
108.629500
 20
249.626000
 40
0.000000
 41
0.000000
 42
0.000000
  0
VERTEX
  5
407
100
AcDbEntity
  8
COND
100
AcDbVertex
100
AcDb2dVertex
 10
110.154500
 20
249.626000
 40
0.000000
 41
0.000000
 42
0.000000
  0
SEQEND
  5
403
100
AcDbEntity
  0
POLYLINE
  5
408
100
AcDbEntity
  8
SOLDER_MASK
100
AcDb2dPolyline
 66
1
 70
1
 40
0.000000
 41
0.000000
 39
0.000000
  0
VERTEX
  5
40a
100
AcDbEntity
  8
SOLDER_MASK
100
AcDbVertex
100
AcDb2dVertex
 10
110.154500
 20
248.976000
 40
0.000000
 41
0.000000
 42
0.000000
  0
VERTEX
  5
40b
100
AcDbEntity
  8
SOLDER_MASK
100
AcDbVertex
100
AcDb2dVertex
 10
108.629500
 20
248.976000
 40
0.000000
 41
0.000000
 42
0.000000
  0
VERTEX
  5
40c
100
AcDbEntity
  8
SOLDER_MASK
100
AcDbVertex
100
AcDb2dVertex
 10
108.629500
 20
249.626000
 40
0.000000
 41
0.000000
 42
0.000000
  0
VERTEX
  5
40d
100
AcDbEntity
  8
SOLDER_MASK
100
AcDbVertex
100
AcDb2dVertex
 10
110.154500
 20
249.626000
 40
0.000000
 41
0.000000
 42
0.000000
  0
SEQEND
  5
409
100
AcDbEntity
  0
POLYLINE
  5
40e
100
AcDbEntity
  8
BOND
100
AcDb2dPolyline
 66
1
 70
1
 40
0.000000
 41
0.000000
 39
0.000000
  0
VERTEX
  5
410
100
AcDbEntity
  8
BOND
100
AcDbVertex
100
AcDb2dVertex
 10
110.154500
 20
248.976000
 40
0.000000
 41
0.000000
 42
0.000000
  0
VERTEX
  5
411
100
AcDbEntity
  8
BOND
100
AcDbVertex
100
AcDb2dVertex
 10
108.629500
 20
248.976000
 40
0.000000
 41
0.000000
 42
0.000000
  0
VERTEX
  5
412
100
AcDbEntity
  8
BOND
100
AcDbVertex
100
AcDb2dVertex
 10
108.629500
 20
249.626000
 40
0.000000
 41
0.000000
 42
0.000000
  0
VERTEX
  5
413
100
AcDbEntity
  8
BOND
100
AcDbVertex
100
AcDb2dVertex
 10
110.154500
 20
249.626000
 40
0.000000
 41
0.000000
 42
0.000000
  0
SEQEND
  5
40f
100
AcDbEntity
  0
TEXT
  5
414
100
AcDbEntity
  8
TEXT
100
AcDbText
 10
108.714667
 20
249.301000
 11
109.392000
 21
249.301000
 40
2.032000
 41
1.000000
 50
0.000000
  7
STANDARD
 71
0
 72
1
  1
14
100
AcDbText
 73
0
  0
POLYLINE
  5
415
100
AcDbEntity
  8
COND
100
AcDb2dPolyline
 66
1
 70
1
 40
0.000000
 41
0.000000
 39
0.000000
  0
VERTEX
  5
417
100
AcDbEntity
  8
COND
100
AcDbVertex
100
AcDb2dVertex
 10
110.154500
 20
250.246000
 40
0.000000
 41
0.000000
 42
0.000000
  0
VERTEX
  5
418
100
AcDbEntity
  8
COND
100
AcDbVertex
100
AcDb2dVertex
 10
108.629500
 20
250.246000
 40
0.000000
 41
0.000000
 42
0.000000
  0
VERTEX
  5
419
100
AcDbEntity
  8
COND
100
AcDbVertex
100
AcDb2dVertex
 10
108.629500
 20
250.896000
 40
0.000000
 41
0.000000
 42
0.000000
  0
VERTEX
  5
41a
100
AcDbEntity
  8
COND
100
AcDbVertex
100
AcDb2dVertex
 10
110.154500
 20
250.896000
 40
0.000000
 41
0.000000
 42
0.000000
  0
SEQEND
  5
416
100
AcDbEntity
  0
POLYLINE
  5
41b
100
AcDbEntity
  8
SOLDER_MASK
100
AcDb2dPolyline
 66
1
 70
1
 40
0.000000
 41
0.000000
 39
0.000000
  0
VERTEX
  5
41d
100
AcDbEntity
  8
SOLDER_MASK
100
AcDbVertex
100
AcDb2dVertex
 10
110.154500
 20
250.246000
 40
0.000000
 41
0.000000
 42
0.000000
  0
VERTEX
  5
41e
100
AcDbEntity
  8
SOLDER_MASK
100
AcDbVertex
100
AcDb2dVertex
 10
108.629500
 20
250.246000
 40
0.000000
 41
0.000000
 42
0.000000
  0
VERTEX
  5
41f
100
AcDbEntity
  8
SOLDER_MASK
100
AcDbVertex
100
AcDb2dVertex
 10
108.629500
 20
250.896000
 40
0.000000
 41
0.000000
 42
0.000000
  0
VERTEX
  5
420
100
AcDbEntity
  8
SOLDER_MASK
100
AcDbVertex
100
AcDb2dVertex
 10
110.154500
 20
250.896000
 40
0.000000
 41
0.000000
 42
0.000000
  0
SEQEND
  5
41c
100
AcDbEntity
  0
POLYLINE
  5
421
100
AcDbEntity
  8
BOND
100
AcDb2dPolyline
 66
1
 70
1
 40
0.000000
 41
0.000000
 39
0.000000
  0
VERTEX
  5
423
100
AcDbEntity
  8
BOND
100
AcDbVertex
100
AcDb2dVertex
 10
110.154500
 20
250.246000
 40
0.000000
 41
0.000000
 42
0.000000
  0
VERTEX
  5
424
100
AcDbEntity
  8
BOND
100
AcDbVertex
100
AcDb2dVertex
 10
108.629500
 20
250.246000
 40
0.000000
 41
0.000000
 42
0.000000
  0
VERTEX
  5
425
100
AcDbEntity
  8
BOND
100
AcDbVertex
100
AcDb2dVertex
 10
108.629500
 20
250.896000
 40
0.000000
 41
0.000000
 42
0.000000
  0
VERTEX
  5
426
100
AcDbEntity
  8
BOND
100
AcDbVertex
100
AcDb2dVertex
 10
110.154500
 20
250.896000
 40
0.000000
 41
0.000000
 42
0.000000
  0
SEQEND
  5
422
100
AcDbEntity
  0
TEXT
  5
427
100
AcDbEntity
  8
TEXT
100
AcDbText
 10
108.714667
 20
250.571000
 11
109.392000
 21
250.571000
 40
2.032000
 41
1.000000
 50
0.000000
  7
STANDARD
 71
0
 72
1
  1
15
100
AcDbText
 73
0
  0
POLYLINE
  5
428
100
AcDbEntity
  8
COND
100
AcDb2dPolyline
 66
1
 70
1
 40
0.000000
 41
0.000000
 39
0.000000
  0
VERTEX
  5
42a
100
AcDbEntity
  8
COND
100
AcDbVertex
100
AcDb2dVertex
 10
110.154500
 20
251.516000
 40
0.000000
 41
0.000000
 42
0.000000
  0
VERTEX
  5
42b
100
AcDbEntity
  8
COND
100
AcDbVertex
100
AcDb2dVertex
 10
108.629500
 20
251.516000
 40
0.000000
 41
0.000000
 42
0.000000
  0
VERTEX
  5
42c
100
AcDbEntity
  8
COND
100
AcDbVertex
100
AcDb2dVertex
 10
108.629500
 20
252.166000
 40
0.000000
 41
0.000000
 42
0.000000
  0
VERTEX
  5
42d
100
AcDbEntity
  8
COND
100
AcDbVertex
100
AcDb2dVertex
 10
110.154500
 20
252.166000
 40
0.000000
 41
0.000000
 42
0.000000
  0
SEQEND
  5
429
100
AcDbEntity
  0
POLYLINE
  5
42e
100
AcDbEntity
  8
SOLDER_MASK
100
AcDb2dPolyline
 66
1
 70
1
 40
0.000000
 41
0.000000
 39
0.000000
  0
VERTEX
  5
430
100
AcDbEntity
  8
SOLDER_MASK
100
AcDbVertex
100
AcDb2dVertex
 10
110.154500
 20
251.516000
 40
0.000000
 41
0.000000
 42
0.000000
  0
VERTEX
  5
431
100
AcDbEntity
  8
SOLDER_MASK
100
AcDbVertex
100
AcDb2dVertex
 10
108.629500
 20
251.516000
 40
0.000000
 41
0.000000
 42
0.000000
  0
VERTEX
  5
432
100
AcDbEntity
  8
SOLDER_MASK
100
AcDbVertex
100
AcDb2dVertex
 10
108.629500
 20
252.166000
 40
0.000000
 41
0.000000
 42
0.000000
  0
VERTEX
  5
433
100
AcDbEntity
  8
SOLDER_MASK
100
AcDbVertex
100
AcDb2dVertex
 10
110.154500
 20
252.166000
 40
0.000000
 41
0.000000
 42
0.000000
  0
SEQEND
  5
42f
100
AcDbEntity
  0
POLYLINE
  5
434
100
AcDbEntity
  8
BOND
100
AcDb2dPolyline
 66
1
 70
1
 40
0.000000
 41
0.000000
 39
0.000000
  0
VERTEX
  5
436
100
AcDbEntity
  8
BOND
100
AcDbVertex
100
AcDb2dVertex
 10
110.154500
 20
251.516000
 40
0.000000
 41
0.000000
 42
0.000000
  0
VERTEX
  5
437
100
AcDbEntity
  8
BOND
100
AcDbVertex
100
AcDb2dVertex
 10
108.629500
 20
251.516000
 40
0.000000
 41
0.000000
 42
0.000000
  0
VERTEX
  5
438
100
AcDbEntity
  8
BOND
100
AcDbVertex
100
AcDb2dVertex
 10
108.629500
 20
252.166000
 40
0.000000
 41
0.000000
 42
0.000000
  0
VERTEX
  5
439
100
AcDbEntity
  8
BOND
100
AcDbVertex
100
AcDb2dVertex
 10
110.154500
 20
252.166000
 40
0.000000
 41
0.000000
 42
0.000000
  0
SEQEND
  5
435
100
AcDbEntity
  0
TEXT
  5
43a
100
AcDbEntity
  8
TEXT
100
AcDbText
 10
108.714667
 20
251.841000
 11
109.392000
 21
251.841000
 40
2.032000
 41
1.000000
 50
0.000000
  7
STANDARD
 71
0
 72
1
  1
16
100
AcDbText
 73
0
  0
LWPOLYLINE
  5
43b
100
AcDbEntity
  8
ASSEMBLY
100
AcDbPolyline
 90
4
 70
1
 39
0.000000
 10
104.730000
 20
252.296000
 40
0.000000
 41
0.000000
 42
-1.000000
 10
104.730000
 20
252.396000
 40
0.000000
 41
0.000000
 42
0.000000
 10
108.630000
 20
252.396000
 40
0.000000
 41
0.000000
 42
-1.000000
 10
108.630000
 20
252.296000
 40
0.000000
 41
0.000000
 42
0.000000
  0
LWPOLYLINE
  5
440
100
AcDbEntity
  8
ASSEMBLY
100
AcDbPolyline
 90
4
 70
1
 39
0.000000
 10
108.580000
 20
252.346000
 40
0.000000
 41
0.000000
 42
-1.000000
 10
108.680000
 20
252.346000
 40
0.000000
 41
0.000000
 42
0.000000
 10
108.680000
 20
242.446000
 40
0.000000
 41
0.000000
 42
-1.000000
 10
108.580000
 20
242.446000
 40
0.000000
 41
0.000000
 42
0.000000
  0
LWPOLYLINE
  5
445
100
AcDbEntity
  8
ASSEMBLY
100
AcDbPolyline
 90
4
 70
1
 39
0.000000
 10
108.630000
 20
242.496000
 40
0.000000
 41
0.000000
 42
-1.000000
 10
108.630000
 20
242.396000
 40
0.000000
 41
0.000000
 42
0.000000
 10
104.730000
 20
242.396000
 40
0.000000
 41
0.000000
 42
-1.000000
 10
104.730000
 20
242.496000
 40
0.000000
 41
0.000000
 42
0.000000
  0
LWPOLYLINE
  5
44a
100
AcDbEntity
  8
ASSEMBLY
100
AcDbPolyline
 90
4
 70
1
 39
0.000000
 10
104.780000
 20
242.446000
 40
0.000000
 41
0.000000
 42
-1.000000
 10
104.680000
 20
242.446000
 40
0.000000
 41
0.000000
 42
0.000000
 10
104.680000
 20
252.346000
 40
0.000000
 41
0.000000
 42
-1.000000
 10
104.780000
 20
252.346000
 40
0.000000
 41
0.000000
 42
0.000000
  0
LWPOLYLINE
  5
44f
100
AcDbEntity
  8
ASSEMBLY
100
AcDbPolyline
 90
8
 70
1
 39
0.000000
 10
104.765400
 20
251.040600
 40
0.000000
 41
0.000000
 42
-0.198913
 10
104.730000
 20
251.026000
 40
0.000000
 41
0.000000
 42
-0.414214
 10
104.680000
 20
251.076000
 40
0.000000
 41
0.000000
 42
-0.198913
 10
104.694600
 20
251.111400
 40
0.000000
 41
0.000000
 42
0.000000
 10
105.964600
 20
252.381400
 40
0.000000
 41
0.000000
 42
-0.198913
 10
106.000000
 20
252.396000
 40
0.000000
 41
0.000000
 42
-0.414214
 10
106.050000
 20
252.346000
 40
0.000000
 41
0.000000
 42
-0.198913
 10
106.035400
 20
252.310600
 40
0.000000
 41
0.000000
 42
0.000000
  0
LWPOLYLINE
  5
458
100
AcDbEntity
  8
SILK_SCREEN
100
AcDbPolyline
 90
4
 70
1
 39
0.000000
 10
105.080000
 20
252.246000
 40
0.000000
 41
0.000000
 42
-1.000000
 10
105.080000
 20
252.446000
 40
0.000000
 41
0.000000
 42
0.000000
 10
108.280000
 20
252.446000
 40
0.000000
 41
0.000000
 42
-1.000000
 10
108.280000
 20
252.246000
 40
0.000000
 41
0.000000
 42
0.000000
  0
LWPOLYLINE
  5
45d
100
AcDbEntity
  8
SILK_SCREEN
100
AcDbPolyline
 90
4
 70
1
 39
0.000000
 10
108.180000
 20
252.346000
 40
0.000000
 41
0.000000
 42
-1.000000
 10
108.380000
 20
252.346000
 40
0.000000
 41
0.000000
 42
0.000000
 10
108.380000
 20
242.446000
 40
0.000000
 41
0.000000
 42
-1.000000
 10
108.180000
 20
242.446000
 40
0.000000
 41
0.000000
 42
0.000000
  0
LWPOLYLINE
  5
462
100
AcDbEntity
  8
SILK_SCREEN
100
AcDbPolyline
 90
4
 70
1
 39
0.000000
 10
108.280000
 20
242.546000
 40
0.000000
 41
0.000000
 42
-1.000000
 10
108.280000
 20
242.346000
 40
0.000000
 41
0.000000
 42
0.000000
 10
105.080000
 20
242.346000
 40
0.000000
 41
0.000000
 42
-1.000000
 10
105.080000
 20
242.546000
 40
0.000000
 41
0.000000
 42
0.000000
  0
LWPOLYLINE
  5
467
100
AcDbEntity
  8
SILK_SCREEN
100
AcDbPolyline
 90
4
 70
1
 39
0.000000
 10
105.180000
 20
242.446000
 40
0.000000
 41
0.000000
 42
-1.000000
 10
104.980000
 20
242.446000
 40
0.000000
 41
0.000000
 42
0.000000
 10
104.980000
 20
252.346000
 40
0.000000
 41
0.000000
 42
-1.000000
 10
105.180000
 20
252.346000
 40
0.000000
 41
0.000000
 42
0.000000
  0
LWPOLYLINE
  5
46c
100
AcDbEntity
  8
SILK_SCREEN
100
AcDbPolyline
 90
4
 70
1
 39
0.000000
 10
103.205000
 20
252.416000
 40
0.000000
 41
0.000000
 42
-1.000000
 10
103.205000
 20
252.616000
 40
0.000000
 41
0.000000
 42
0.000000
 10
104.730000
 20
252.616000
 40
0.000000
 41
0.000000
 42
-1.000000
 10
104.730000
 20
252.416000
 40
0.000000
 41
0.000000
 42
0.000000
  0
POLYLINE
  5
471
100
AcDbEntity
  8
BOUND
100
AcDb2dPolyline
 66
1
 70
1
 40
0.000000
 41
0.000000
 39
0.000000
  0
VERTEX
  5
473
100
AcDbEntity
  8
BOUND
100
AcDbVertex
100
AcDb2dVertex
 10
102.955000
 20
242.146000
 40
0.000000
 41
0.000000
 42
0.000000
  0
VERTEX
  5
474
100
AcDbEntity
  8
BOUND
100
AcDbVertex
100
AcDb2dVertex
 10
102.955000
 20
252.646000
 40
0.000000
 41
0.000000
 42
0.000000
  0
VERTEX
  5
475
100
AcDbEntity
  8
BOUND
100
AcDbVertex
100
AcDb2dVertex
 10
110.405000
 20
252.646000
 40
0.000000
 41
0.000000
 42
0.000000
  0
VERTEX
  5
476
100
AcDbEntity
  8
BOUND
100
AcDbVertex
100
AcDb2dVertex
 10
110.405000
 20
242.146000
 40
0.000000
 41
0.000000
 42
0.000000
  0
SEQEND
  5
472
100
AcDbEntity
  0
TEXT
  5
477
100
AcDbEntity
  8
TEXT
100
AcDbText
 10
106.680000
 20
247.396000
 11
0.000000
 21
0.000000
 40
0.787400
 41
1.000000
 50
0.000000
  7
STANDARD
 71
0
 72
0
  1
IC1
100
AcDbText
 73
0
  0
TEXT
  5
478
100
AcDbEntity
  8
TEXT
100
AcDbText
 10
106.680000
 20
247.396000
 11
0.000000
 21
0.000000
 40
0.787400
 41
1.000000
 50
0.000000
  7
STANDARD
 71
0
 72
0
  1
IC1
100
AcDbText
 73
0
  0
POLYLINE
  5
479
100
AcDbEntity
  8
COND
100
AcDb2dPolyline
 66
1
 70
1
 40
0.000000
 41
0.000000
 39
0.000000
  0
VERTEX
  5
47b
100
AcDbEntity
  8
COND
100
AcDbVertex
100
AcDb2dVertex
 10
112.819900
 20
249.528000
 40
0.000000
 41
0.000000
 42
0.000000
  0
VERTEX
  5
47c
100
AcDbEntity
  8
COND
100
AcDbVertex
100
AcDb2dVertex
 10
112.819900
 20
249.988000
 40
0.000000
 41
0.000000
 42
0.000000
  0
VERTEX
  5
47d
100
AcDbEntity
  8
COND
100
AcDbVertex
100
AcDb2dVertex
 10
113.240000
 20
249.988000
 40
0.000000
 41
0.000000
 42
0.000000
  0
VERTEX
  5
47e
100
AcDbEntity
  8
COND
100
AcDbVertex
100
AcDb2dVertex
 10
113.240000
 20
249.528000
 40
0.000000
 41
0.000000
 42
0.000000
  0
SEQEND
  5
47a
100
AcDbEntity
  0
TEXT
  5
47f
100
AcDbEntity
  8
TEXT
100
AcDbText
 10
112.352667
 20
249.758000
 11
113.030000
 21
249.758000
 40
2.032000
 41
1.000000
 50
270.000000
  7
STANDARD
 71
0
 72
1
  1
1
100
AcDbText
 73
0
  0
POLYLINE
  5
480
100
AcDbEntity
  8
COND
100
AcDb2dPolyline
 66
1
 70
1
 40
0.000000
 41
0.000000
 39
0.000000
  0
VERTEX
  5
482
100
AcDbEntity
  8
COND
100
AcDbVertex
100
AcDb2dVertex
 10
112.819900
 20
248.868000
 40
0.000000
 41
0.000000
 42
0.000000
  0
VERTEX
  5
483
100
AcDbEntity
  8
COND
100
AcDbVertex
100
AcDb2dVertex
 10
112.819900
 20
249.328000
 40
0.000000
 41
0.000000
 42
0.000000
  0
VERTEX
  5
484
100
AcDbEntity
  8
COND
100
AcDbVertex
100
AcDb2dVertex
 10
113.240000
 20
249.328000
 40
0.000000
 41
0.000000
 42
0.000000
  0
VERTEX
  5
485
100
AcDbEntity
  8
COND
100
AcDbVertex
100
AcDb2dVertex
 10
113.240000
 20
248.868000
 40
0.000000
 41
0.000000
 42
0.000000
  0
SEQEND
  5
481
100
AcDbEntity
  0
TEXT
  5
486
100
AcDbEntity
  8
TEXT
100
AcDbText
 10
112.352667
 20
249.098000
 11
113.030000
 21
249.098000
 40
2.032000
 41
1.000000
 50
270.000000
  7
STANDARD
 71
0
 72
1
  1
2
100
AcDbText
 73
0
  0
LWPOLYLINE
  5
487
100
AcDbEntity
  8
BOUND
100
AcDbPolyline
 90
4
 70
1
 39
0.000000
 10
113.365000
 20
250.138000
 40
0.000000
 41
0.000000
 42
-1.000000
 10
113.415000
 20
250.138000
 40
0.000000
 41
0.000000
 42
0.000000
 10
113.415000
 20
248.718000
 40
0.000000
 41
0.000000
 42
-1.000000
 10
113.365000
 20
248.718000
 40
0.000000
 41
0.000000
 42
0.000000
  0
LWPOLYLINE
  5
48c
100
AcDbEntity
  8
BOUND
100
AcDbPolyline
 90
4
 70
1
 39
0.000000
 10
113.390000
 20
248.743000
 40
0.000000
 41
0.000000
 42
-1.000000
 10
113.390000
 20
248.693000
 40
0.000000
 41
0.000000
 42
0.000000
 10
112.670000
 20
248.693000
 40
0.000000
 41
0.000000
 42
-1.000000
 10
112.670000
 20
248.743000
 40
0.000000
 41
0.000000
 42
0.000000
  0
LWPOLYLINE
  5
491
100
AcDbEntity
  8
BOUND
100
AcDbPolyline
 90
4
 70
1
 39
0.000000
 10
112.695000
 20
248.718000
 40
0.000000
 41
0.000000
 42
-1.000000
 10
112.645000
 20
248.718000
 40
0.000000
 41
0.000000
 42
0.000000
 10
112.645000
 20
250.138000
 40
0.000000
 41
0.000000
 42
-1.000000
 10
112.695000
 20
250.138000
 40
0.000000
 41
0.000000
 42
0.000000
  0
LWPOLYLINE
  5
496
100
AcDbEntity
  8
BOUND
100
AcDbPolyline
 90
4
 70
1
 39
0.000000
 10
112.670000
 20
250.113000
 40
0.000000
 41
0.000000
 42
-1.000000
 10
112.670000
 20
250.163000
 40
0.000000
 41
0.000000
 42
0.000000
 10
113.390000
 20
250.163000
 40
0.000000
 41
0.000000
 42
-1.000000
 10
113.390000
 20
250.113000
 40
0.000000
 41
0.000000
 42
0.000000
  0
LWPOLYLINE
  5
49b
100
AcDbEntity
  8
ASSEMBLY
100
AcDbPolyline
 90
4
 70
1
 39
0.000000
 10
113.130000
 20
249.728000
 40
0.000000
 41
0.000000
 42
-1.000000
 10
113.230000
 20
249.728000
 40
0.000000
 41
0.000000
 42
0.000000
 10
113.230000
 20
249.128000
 40
0.000000
 41
0.000000
 42
-1.000000
 10
113.130000
 20
249.128000
 40
0.000000
 41
0.000000
 42
0.000000
  0
LWPOLYLINE
  5
4a0
100
AcDbEntity
  8
ASSEMBLY
100
AcDbPolyline
 90
4
 70
1
 39
0.000000
 10
113.180000
 20
249.178000
 40
0.000000
 41
0.000000
 42
-1.000000
 10
113.180000
 20
249.078000
 40
0.000000
 41
0.000000
 42
0.000000
 10
112.880000
 20
249.078000
 40
0.000000
 41
0.000000
 42
-1.000000
 10
112.880000
 20
249.178000
 40
0.000000
 41
0.000000
 42
0.000000
  0
LWPOLYLINE
  5
4a5
100
AcDbEntity
  8
ASSEMBLY
100
AcDbPolyline
 90
4
 70
1
 39
0.000000
 10
112.930000
 20
249.128000
 40
0.000000
 41
0.000000
 42
-1.000000
 10
112.830000
 20
249.128000
 40
0.000000
 41
0.000000
 42
0.000000
 10
112.830000
 20
249.728000
 40
0.000000
 41
0.000000
 42
-1.000000
 10
112.930000
 20
249.728000
 40
0.000000
 41
0.000000
 42
0.000000
  0
LWPOLYLINE
  5
4aa
100
AcDbEntity
  8
ASSEMBLY
100
AcDbPolyline
 90
4
 70
1
 39
0.000000
 10
112.880000
 20
249.678000
 40
0.000000
 41
0.000000
 42
-1.000000
 10
112.880000
 20
249.778000
 40
0.000000
 41
0.000000
 42
0.000000
 10
113.180000
 20
249.778000
 40
0.000000
 41
0.000000
 42
-1.000000
 10
113.180000
 20
249.678000
 40
0.000000
 41
0.000000
 42
0.000000
  0
POLYLINE
  5
4af
100
AcDbEntity
  8
BOUND
100
AcDb2dPolyline
 66
1
 70
1
 40
0.000000
 41
0.000000
 39
0.000000
  0
VERTEX
  5
4b1
100
AcDbEntity
  8
BOUND
100
AcDbVertex
100
AcDb2dVertex
 10
112.645000
 20
250.163000
 40
0.000000
 41
0.000000
 42
0.000000
  0
VERTEX
  5
4b2
100
AcDbEntity
  8
BOUND
100
AcDbVertex
100
AcDb2dVertex
 10
113.415000
 20
250.163000
 40
0.000000
 41
0.000000
 42
0.000000
  0
VERTEX
  5
4b3
100
AcDbEntity
  8
BOUND
100
AcDbVertex
100
AcDb2dVertex
 10
113.415000
 20
248.693000
 40
0.000000
 41
0.000000
 42
0.000000
  0
VERTEX
  5
4b4
100
AcDbEntity
  8
BOUND
100
AcDbVertex
100
AcDb2dVertex
 10
112.645000
 20
248.693000
 40
0.000000
 41
0.000000
 42
0.000000
  0
SEQEND
  5
4b0
100
AcDbEntity
  0
TEXT
  5
4b5
100
AcDbEntity
  8
TEXT
100
AcDbText
 10
113.030000
 20
249.428000
 11
0.000000
 21
0.000000
 40
0.787400
 41
1.000000
 50
270.000000
  7
STANDARD
 71
0
 72
0
  1
C1
100
AcDbText
 73
0
  0
ENDSEC
  0
SECTION
  2
OBJECTS
  0
DICTIONARY
  5
2c
100
AcDbDictionary
  3
ACAD_GROUP
350
2d
  3
ACAD_MLINESTYLE
350
2e
  0
DICTIONARY
  5
2d
100
AcDbDictionary
  0
DICTIONARY
  5
2e
100
AcDbDictionary
  0
ENDSEC
  0
EOF
