G04 ================== begin FILE IDENTIFICATION RECORD ==================*
G04 Layout Name:  ST-LINKV3_open.brd*
G04 Film Name:    BOTTOM_SOLDER*
G04 File Format:  Gerber RS274X*
G04 File Origin:  Cadence Allegro 23.1-S005*
G04 Origin Date:  Fri Jul 26 11:07:03 2024*
G04 *
G04 Layer:  VIA CLASS/SOLDERMASK_BOTTOM*
G04 Layer:  PIN/SOLDERMASK_BOTTOM*
G04 Layer:  PACKAGE GEOMETRY/SOLDERMASK_BOTTOM*
G04 *
G04 Offset:    (0.0000 0.0000)*
G04 Mirror:    No*
G04 Mode:      Positive*
G04 Rotation:  0*
G04 FullContactRelief:  No*
G04 UndefLineWidth:     0.0000*
G04 ================== end FILE IDENTIFICATION RECORD ====================*
%FSTAX35Y35*MOMM*%
%IR0*IPPOS*OFA0.00000B0.00000*MIA0B0*SFA1.00000B1.00000*%
%ADD10C,1.65*%
%ADD12C,1.1176*%
%ADD11R,1.65X1.65*%
%LPD*%
G75*
G54D10*
X161798Y233426D03*
Y235966D03*
Y238506D03*
Y241046D03*
Y243586D03*
X195834Y233172D03*
Y235712D03*
Y238252D03*
Y240792D03*
Y243332D03*
G54D11*
X161798Y246126D03*
X195834Y245872D03*
G54D12*
X162814Y250698D03*
X161798Y249936D03*
X1651Y233426D03*
X165354Y249174D03*
X167386Y254762D03*
X165608Y25146D03*
X167132Y259842D03*
X170434Y232156D03*
X171196Y236728D03*
X169418D03*
X171196Y239268D03*
X168656Y238506D03*
X169418Y24003D03*
X168082Y242636D03*
X171196Y241046D03*
X169164Y246888D03*
X168656Y250444D03*
X169418Y252476D03*
X167894Y253492D03*
Y258318D03*
Y256794D03*
X172212Y232156D03*
Y244602D03*
X173228Y24638D03*
X172974Y249428D03*
X175006Y26162D03*
X174244Y27305D03*
X17526Y231648D03*
X177038Y239014D03*
X17526D03*
X176784Y24638D03*
X177038Y24511D03*
X178054Y24638D03*
Y26162D03*
X177292Y265684D03*
X178054Y262636D03*
X175768Y26797D03*
X18034Y235966D03*
X178816D03*
X181356Y239522D03*
X178816Y244602D03*
X18161Y254254D03*
X18034Y255016D03*
X180086Y257302D03*
X178816Y265684D03*
Y267208D03*
X1844195Y2281075D03*
X18288Y25019D03*
X185409Y254243D03*
X183134Y254254D03*
X182372Y256794D03*
X185166D03*
X185409Y270245D03*
X186182Y232156D03*
Y237998D03*
X187198Y23876D03*
X188976Y24638D03*
X186436Y255016D03*
X188722Y252222D03*
Y256794D03*
X186436Y256286D03*
X188214Y27051D03*
X186436Y271018D03*
X191516Y2286D03*
X191262Y25654D03*
Y260096D03*
Y261366D03*
Y26289D03*
X189738Y271526D03*
X193294Y260096D03*
Y261366D03*
Y26289D03*
Y266446D03*
X1999198Y2372142D03*
X197612Y2579116D03*
X202438Y231902D03*
X20066Y245872D03*
M02*
