G04 ================== begin FILE IDENTIFICATION RECORD ==================*
G04 Layout Name:  ST-LINKV3_open.brd*
G04 Film Name:    GND*
G04 File Format:  Gerber RS274X*
G04 File Origin:  Cadence Allegro 23.1-S005*
G04 Origin Date:  Fri Jul 26 10:50:19 2024*
G04 *
G04 Layer:  ETCH/GND*
G04 Layer:  PIN/GND*
G04 Layer:  VIA CLASS/GND*
G04 *
G04 Offset:    (0.0000 0.0000)*
G04 Mirror:    No*
G04 Mode:      Positive*
G04 Rotation:  0*
G04 FullContactRelief:  No*
G04 UndefLineWidth:     0.0000*
G04 ================== end FILE IDENTIFICATION RECORD ====================*
%FSTAX35Y35*MOMM*%
%IR0*IPPOS*OFA0.00000B0.00000*MIA0B0*SFA1.00000B1.00000*%
%ADD12C,.6096*%
%ADD14C,.5999*%
%ADD13C,.8999*%
%ADD10C,1.1001*%
%ADD11C,1.65*%
%ADD15C,1.1699*%
%ADD16C,.127*%
%ADD17C,.381*%
%ADD19C,.864*%
%ADD22C,1.0068*%
%ADD21C,1.9044*%
%ADD18C,1.3068*%
%ADD20C,1.3546*%
%ADD23C,1.5768*%
G75*
%LPD*%
G75*
G36*
G01X202438Y232334D02*
G03Y23147I0J-000432D01*
G03X202767Y2316221I0J00043187D01*
G02X202946Y2315563I00007739J-00006585D01*
G01Y215646D01*
X155956D01*
Y281686D01*
X202946D01*
Y2322477D01*
G02X202767Y2321819I-00010161J00000005D01*
G03X202438Y232334I-000329J-00027977D01*
G37*
%LPC*%
G75*
G36*
G01X1669413Y257556D02*
Y2594544D01*
G02X1667Y259842I00019065J0003876D01*
G02X167564I000432J0D01*
G02X1673227Y2594544I-00043195J0D01*
G01Y257635D01*
X167754Y2572037D01*
X1677823Y2572113D01*
G02X167894Y257226I00011173J-0004173D01*
G02X167462Y256794I0J-000432D01*
G02X1674767Y2569057I000432J-00000003D01*
G01X1674843Y256934D01*
X1669972Y2574212D01*
G02X1669413Y257556I00013477J00013488D01*
G37*
G36*
G01X170688Y2502537D02*
G02X1709126Y2501606I-00000008J-00031767D01*
G01X1733596Y2477137D01*
X177038D01*
G02X1772626Y2476206I-00000008J-00031767D01*
G01X1780712Y2468121D01*
X1780898Y2468105D01*
G02X178486Y24638I-00003578J-0004305D01*
G02X178054Y245948I-000432J0D01*
G02X1776235Y2463442I0J00043198D01*
G01X1776219Y2463628D01*
X1769064Y2470783D01*
X173228D01*
G02X1730034Y2471714I00000008J00031767D01*
G01X1705564Y2496183D01*
X1691597D01*
X1691384Y2495971D01*
G02X1689138Y249504I-00022468J00022457D01*
G01X1683982D01*
G02X1681736Y2495971I00000008J00031767D01*
G01X1681523Y2496183D01*
X165763D01*
G03X1656851Y2494515I00000001J-00010159D01*
G02X165786Y249174I-00033115J-0002775D01*
G02X164922I-000432J0D01*
G02X1650229Y2494515I00043205J0D01*
G03X164945Y2496183I-00007791J00006521D01*
G01X1620907D01*
G02X161798Y249504I-0002927J00031762D01*
G02Y250368I0J000432D01*
G02X1620907Y2502537I0J-00043192D01*
G01X162405D01*
G03X1624829Y2504205I-00000001J00010159D01*
G02X162382Y250698I00033115J0002775D01*
G02X163246I000432J0D01*
G02X1631451Y2504205I-00043205J0D01*
G03X163223Y2502537I00007791J-00006521D01*
G01X1681298D01*
G03X16823Y2503722I00000002J00010159D01*
G02X168224Y2504439I000426J00007175D01*
G01Y250444D01*
G02X169088I000432J0D01*
G01Y2504439D01*
G02X169082Y2503722I-000432J00000005D01*
G03X1691822Y2502537I00010018J-00001691D01*
G01X170688D01*
G37*
G54D19*
X174244Y27305D03*
X1844195Y2281075D03*
X191516Y2286D03*
X170434Y232156D03*
X17526Y231648D03*
X1651Y233426D03*
X169418Y236728D03*
X171196D03*
X178816Y235966D03*
X18034D03*
X171196Y239268D03*
X168656Y238506D03*
X169418Y24003D03*
X177038Y239014D03*
X17526D03*
X181356Y239522D03*
X186182Y237998D03*
X168082Y242636D03*
X171196Y241046D03*
X169164Y246888D03*
X172212Y244602D03*
X173228Y24638D03*
X177038Y24511D03*
X176784Y24638D03*
X178816Y244602D03*
X188976Y24638D03*
X20066Y245872D03*
X172974Y249428D03*
X18288Y25019D03*
X167386Y254762D03*
X165608Y25146D03*
X167894Y253492D03*
X169418Y252476D03*
X185409Y254243D03*
X183134Y254254D03*
X186436Y255016D03*
X188722Y252222D03*
X167894Y258318D03*
X182372Y256794D03*
X185166D03*
X186436Y256286D03*
X188722Y256794D03*
X191262Y25654D03*
X197612Y2579116D03*
X178054Y26162D03*
X191262Y261366D03*
Y260096D03*
X193294Y261366D03*
Y260096D03*
X178054Y262636D03*
X178816Y265684D03*
X191262Y26289D03*
X193294D03*
X175768Y26797D03*
X178816Y267208D03*
X185409Y270245D03*
X188214Y27051D03*
X186436Y271018D03*
X189738Y271526D03*
X186182Y232156D03*
G54D22*
X182896Y234115D03*
G54D21*
X161798Y233426D03*
X195834Y233172D03*
X161798Y235966D03*
X195834Y235712D03*
X161798Y238506D03*
X195834Y238252D03*
X161798Y241046D03*
Y243586D03*
X195834Y240792D03*
Y243332D03*
X161798Y246126D03*
X195834Y245872D03*
G54D18*
X170716Y27057D03*
Y27357D03*
G54D20*
X15748Y249936D03*
Y232156D03*
X184246Y231965D03*
X189046D03*
X15748Y234696D03*
X184246Y236265D03*
X189046D03*
X15748Y237236D03*
Y239776D03*
Y242316D03*
Y244856D03*
Y247396D03*
G54D23*
X190396Y234115D03*
%LPD*%
G75*
G54D10*
X15748Y232156D03*
Y234696D03*
Y237236D03*
Y239776D03*
Y242316D03*
Y244856D03*
Y247396D03*
Y249936D03*
X184246Y231965D03*
Y236265D03*
X189046Y231965D03*
Y236265D03*
G54D11*
X161798Y233426D03*
Y235966D03*
Y238506D03*
Y241046D03*
Y243586D03*
Y246126D03*
X195834Y233172D03*
Y235712D03*
Y238252D03*
Y240792D03*
Y243332D03*
Y245872D03*
G54D12*
X162814Y250698D03*
X161798Y249936D03*
X1651Y233426D03*
X165354Y249174D03*
X167386Y254762D03*
X165608Y25146D03*
X167132Y259842D03*
X170434Y232156D03*
X171196Y236728D03*
X169418D03*
X171196Y239268D03*
X168656Y238506D03*
X169418Y24003D03*
X168082Y242636D03*
X171196Y241046D03*
X169164Y246888D03*
X168656Y250444D03*
X169418Y252476D03*
X167894Y253492D03*
Y258318D03*
Y256794D03*
X172212Y232156D03*
Y244602D03*
X173228Y24638D03*
X172974Y249428D03*
X175006Y26162D03*
X174244Y27305D03*
X17526Y231648D03*
X177038Y239014D03*
X17526D03*
X176784Y24638D03*
X177038Y24511D03*
X178054Y24638D03*
Y26162D03*
X177292Y265684D03*
X178054Y262636D03*
X175768Y26797D03*
X18034Y235966D03*
X178816D03*
X181356Y239522D03*
X178816Y244602D03*
X18161Y254254D03*
X18034Y255016D03*
X180086Y257302D03*
X178816Y265684D03*
Y267208D03*
X1844195Y2281075D03*
X18288Y25019D03*
X185409Y254243D03*
X183134Y254254D03*
X182372Y256794D03*
X185166D03*
X185409Y270245D03*
X186182Y232156D03*
Y237998D03*
X187198Y23876D03*
X188976Y24638D03*
X186436Y255016D03*
X188722Y252222D03*
Y256794D03*
X186436Y256286D03*
X188214Y27051D03*
X186436Y271018D03*
X191516Y2286D03*
X191262Y25654D03*
Y260096D03*
Y261366D03*
Y26289D03*
X189738Y271526D03*
X193294Y260096D03*
Y261366D03*
Y26289D03*
Y266446D03*
X1999198Y2372142D03*
X197612Y2579116D03*
X202438Y231902D03*
X20066Y245872D03*
G54D13*
X170716Y27057D03*
Y27357D03*
G54D14*
X182896Y234115D03*
G54D15*
X190396D03*
G54D16*
G01X15748Y2492079D02*
Y249936D01*
G01D02*
Y2506641D01*
G01X1567519Y249936D02*
X15748D01*
G01D02*
X1582081D01*
G01X161798Y234963D02*
Y235966D01*
G01D02*
Y236969D01*
G01X160795Y235966D02*
X161798D01*
G01D02*
X162801D01*
G01X167132Y259842D02*
Y257556D01*
X167894Y256794D01*
G01X184246Y2312369D02*
Y231965D01*
G01D02*
Y2326931D01*
G01X1835179Y231965D02*
X184246D01*
G01D02*
X1849741D01*
G01X184246Y2355369D02*
Y236265D01*
G01D02*
Y2369931D01*
G01X1835179Y236265D02*
X184246D01*
G01D02*
X1849741D01*
G01X189046Y2312369D02*
Y231965D01*
G01D02*
Y2326931D01*
G01X1883179Y231965D02*
X189046D01*
G01D02*
X1897741D01*
G01X189046Y2355369D02*
Y236265D01*
G01D02*
Y2369931D01*
G01X1883179Y236265D02*
X189046D01*
G01D02*
X1897741D01*
G01X195834Y234709D02*
Y235712D01*
G01D02*
Y236715D01*
G01X194831Y235712D02*
X195834D01*
G01D02*
X196837D01*
G54D17*
G01X178054Y24638D02*
X177038Y247396D01*
X173228D01*
X170688Y249936D01*
X1690281D01*
X1689138Y2498217D01*
X1683982D01*
X1682839Y249936D01*
X161798D01*
M02*
