G04 ================== begin FILE IDENTIFICATION RECORD ==================*
G04 Layout Name:  ST-LINKV3_open.brd*
G04 Film Name:    POWER-withMask*
G04 File Format:  Gerber RS274X*
G04 File Origin:  Cadence Allegro 23.1-S005*
G04 Origin Date:  Wed Jul 24 18:16:18 2024*
G04 *
G04 Layer:  ETCH/POWER*
G04 Layer:  PIN/POWER*
G04 Layer:  VIA CLASS/POWER*
G04 *
G04 Offset:    (0.0000 0.0000)*
G04 Mirror:    No*
G04 Mode:      Positive*
G04 Rotation:  0*
G04 FullContactRelief:  No*
G04 UndefLineWidth:     0.0000*
G04 ================== end FILE IDENTIFICATION RECORD ====================*
%FSLAX25Y25*MOMM*%
%IR0*IPPOS*OFA0.00000B0.00000*MIA0B0*SFA1.00000B1.00000*%
%ADD12C,.6096*%
%ADD14C,.5999*%
%ADD13C,.8999*%
%ADD10C,1.1001*%
%ADD11C,1.65*%
%ADD15C,1.1699*%
%ADD16C,.381*%
G75*
%LPD*%
G75*
G54D10*
X15748000Y23215600D03*
Y23469600D03*
Y23723600D03*
Y23977600D03*
Y24231600D03*
Y24485600D03*
Y24739600D03*
Y24993600D03*
X18424600Y23196500D03*
Y23626500D03*
X18904600Y23196500D03*
Y23626500D03*
G54D11*
X16179800Y23342600D03*
Y23596600D03*
Y23850600D03*
Y24104600D03*
Y24358600D03*
Y24612600D03*
X19583400Y23317200D03*
Y23571200D03*
Y23825200D03*
Y24079200D03*
Y24333200D03*
Y24587200D03*
G54D12*
X16281400Y25069800D03*
X16179800Y24993600D03*
X16510000Y23342600D03*
X16535400Y24917400D03*
X16738600Y25476200D03*
X16560800Y25146000D03*
X16713200Y25984200D03*
X16535400Y26822400D03*
X17043400Y23215600D03*
X17119600Y23672800D03*
X16941800D03*
X17119600Y23926800D03*
X16865600Y23850600D03*
X16941800Y24003000D03*
X16808200Y24263600D03*
X17119600Y24104600D03*
X16916400Y24688800D03*
X16865600Y25044400D03*
X16941800Y25247600D03*
X16789400Y25349200D03*
Y25831800D03*
Y25679400D03*
X17221200Y23215600D03*
Y24460200D03*
X17322800Y24638000D03*
X17297400Y24942800D03*
X17500600Y26162000D03*
X17424400Y27305000D03*
X17526000Y23164800D03*
X17703800Y23901400D03*
X17526000D03*
X17678400Y24638000D03*
X17703800Y24511000D03*
X17805400Y24638000D03*
Y26162000D03*
X17729200Y26568400D03*
X17805400Y26263600D03*
X17576800Y26797000D03*
X18034000Y23596600D03*
X17881600D03*
X18135600Y23952200D03*
X17881600Y24460200D03*
X18161000Y25425400D03*
X18034000Y25501600D03*
X18008600Y25730200D03*
X17881600Y26568400D03*
Y26720800D03*
X18441950Y22810750D03*
X18288000Y25019000D03*
X18540900Y25424300D03*
X18313400Y25425400D03*
X18237200Y25679400D03*
X18516600D03*
X18540900Y27024500D03*
X18618200Y23215600D03*
Y23799800D03*
X18719800Y23876000D03*
X18897600Y24638000D03*
X18643600Y25501600D03*
X18872200Y25222200D03*
Y25679400D03*
X18643600Y25628600D03*
X18821400Y27051000D03*
X18643600Y27101800D03*
X19151600Y22860000D03*
X19126200Y25654000D03*
Y26009600D03*
Y26136600D03*
Y26289000D03*
X18973800Y27152600D03*
X19202400D03*
X19329400Y26009600D03*
Y26136600D03*
Y26289000D03*
Y26644600D03*
X19991980Y23721420D03*
X19761200Y25791160D03*
X20243800Y23190200D03*
X20066000Y24587200D03*
G54D13*
X17071600Y27057000D03*
Y27357000D03*
G54D14*
X18289600Y23411500D03*
G54D15*
X19039600D03*
G54D16*
G01X18618200Y23037800D02*
X16027400D01*
X15925800Y23139400D01*
Y23723600D01*
G01X17322800Y23765400D02*
X16348600D01*
X16306800Y23723600D01*
X15925800D01*
G01X15748000Y24739600D02*
X15849600D01*
X15925800Y24663400D01*
Y23723600D01*
G01X16637000Y25019000D02*
X16484600D01*
X16433800Y25069800D01*
X16281400D01*
G01X16179800Y24993600D02*
Y25195250D01*
X16206750Y25222200D01*
X16484600D01*
X16535400Y25273000D01*
Y25730200D01*
X16713200Y25908000D01*
Y25984200D01*
G01X17322800Y24638000D02*
X17272000Y24587200D01*
X16814800D01*
X16637000Y24765000D01*
Y25019000D01*
G01X16789400Y25831800D02*
X16637000Y25679400D01*
Y25019000D01*
G01X17424400Y27305000D02*
X17138920D01*
X17106550Y27272630D01*
X17036650D01*
X17004280Y27305000D01*
X16814800D01*
X16713200Y27203400D01*
Y25984200D01*
G01X16789400Y25831800D02*
Y27076390D01*
X16854380Y27141370D01*
X17283230D01*
X17339950Y27084650D01*
X17576800D01*
G01X18034000Y23596600D02*
Y23723600D01*
X17992200Y23765400D01*
X17322800D01*
G01D02*
Y24384000D01*
X17576800Y24638000D01*
X17678400D01*
G01X17322800D02*
X17526000Y24841200D01*
X18288000D01*
G01X18135600Y23952200D02*
X17881600D01*
X17805400Y24028400D01*
Y24638000D01*
G01X17576800Y27084650D02*
Y26797000D01*
G01X18643600Y27101800D02*
X18581360D01*
X18566290Y27086730D01*
X18515120D01*
X18513040Y27084650D01*
X17576800D01*
G01X18441950Y22810750D02*
X18494300Y22758400D01*
X20091400D01*
X20167600Y22834600D01*
Y23190200D01*
G01X18288000Y24841200D02*
X20066000D01*
G01X18288000Y25019000D02*
Y24841200D01*
G01X19151600Y22860000D02*
Y22987000D01*
X19100800Y23037800D01*
X18618200D01*
G01D02*
Y23215600D01*
G01D02*
Y23799800D01*
G01X18643600Y25628600D02*
Y25755600D01*
X18679160Y25791160D01*
X19761200D01*
G01X18643600Y27101800D02*
Y27000200D01*
X18684380Y26959420D01*
X19161620D01*
X19202400Y27000200D01*
Y27152600D01*
G01X19761200Y25791160D02*
X20005040D01*
X20066000Y25730200D01*
Y24841200D01*
G01X20167600Y23190200D02*
Y23749000D01*
X20066000Y23850600D01*
Y24587200D01*
G01X20243800Y23190200D02*
X20167600D01*
G01X20066000Y24841200D02*
Y24587200D01*
M02*
