M48
METRIC,TZ
T01C.3302
T02C.7
T03C1.1001
T04C.5999
T05C.8999
T06C1.1699
;LEADER: 12 
;HEADER: 
;CODE  : ASCII 
;FILE  : ST-LINKV3_open-1-4.drl for board D:/Projects/HardwareDesign/PCB_ST-LINK V3_1/allegro/#Taaaafw09740.tmp ... layers TOP and BOTTOM
;T01 Holesize 1. = 0.330200 Tolerance = +0.000000/-0.000000 PLATED MM Quantity = 78
;T02 Holesize 2. = 0.700000 Tolerance = +0.000000/-0.000000 PLATED MM Quantity = 12
;T03 Holesize 3. = 1.100100 Tolerance = +0.000000/-0.000000 PLATED MM Quantity = 12
;T04 Holesize 4. = 0.599900 Tolerance = +0.000000/-0.000000 NON_PLATED MM Quantity = 1
;T05 Holesize 5. = 0.899900 Tolerance = +0.000000/-0.000000 NON_PLATED MM Quantity = 2
;T06 Holesize 6. = 1.169900 Tolerance = +0.000000/-0.000000 NON_PLATED MM Quantity = 1
%
G90
T01
X16510000Y23342600
X17043400Y23215600
X17221200
X17526000Y23164800
X18441950Y22810750
X18618200Y23215600
X19151600Y22860000
X20243800Y23190200
X19991980Y23721420
X18719800Y23876000
X18618200Y23799800
X18135600Y23952200
X18034000Y23596600
X17881600
X17703800Y23901400
X17526000
X17119600Y24104600
Y23926800
Y23672800
X16941800Y24003000
Y23672800
X16865600Y23850600
X16808200Y24263600
X16179800Y24993600
X16281400Y25069800
X16535400Y24917400
X16560800Y25146000
X16789400Y25349200
X16865600Y25044400
X16916400Y24688800
X16941800Y25247600
X17221200Y24460200
X17297400Y24942800
X17322800Y24638000
X17678400
X17703800Y24511000
X17805400Y24638000
X17881600Y24460200
X18288000Y25019000
X18872200Y25222200
X18897600Y24638000
X20066000Y24587200
X19761200Y25791160
X19329400Y26289000
Y26136600
Y26009600
X19126200Y26289000
Y26136600
Y26009600
Y25654000
X18872200Y25679400
X18643600Y25628600
Y25501600
X18540900Y25424300
X18516600Y25679400
X18313400Y25425400
X18237200Y25679400
X18161000Y25425400
X18034000Y25501600
X18008600Y25730200
X17805400Y26263600
Y26162000
X17500600
X16789400Y25831800
Y25679400
X16738600Y25476200
X16713200Y25984200
X17424400Y27305000
X17576800Y26797000
X17729200Y26568400
X17881600
Y26720800
X18540900Y27024500
X18643600Y27101800
X18821400Y27051000
X18973800Y27152600
X19202400
X19329400Y26644600
T02
X15748000Y23215600
Y23469600
Y23723600
Y23977600
Y24231600
Y24485600
Y24739600
Y24993600
X18424600Y23626500
Y23196500
X18904600
Y23626500
T03
X16179800Y23342600
Y23596600
Y23850600
Y24104600
Y24358600
Y24612600
X19583400Y24587200
Y24333200
Y24079200
Y23825200
Y23571200
Y23317200
T04
X18289600Y23411500
T05
X17071600Y27057000
Y27357000
T06
X19039600Y23411500
M30
