G04 ================== begin FILE IDENTIFICATION RECORD ==================*
G04 Layout Name:  ST-LINKV3_open.brd*
G04 Film Name:    TOP*
G04 File Format:  Gerber RS274X*
G04 File Origin:  Cadence Allegro 23.1-S005*
G04 Origin Date:  Fri Jul 26 11:07:03 2024*
G04 *
G04 Layer:  ETCH/TOP*
G04 Layer:  PIN/TOP*
G04 Layer:  VIA CLASS/TOP*
G04 *
G04 Offset:    (0.0000 0.0000)*
G04 Mirror:    No*
G04 Mode:      Positive*
G04 Rotation:  0*
G04 FullContactRelief:  No*
G04 UndefLineWidth:     0.0100*
G04 ================== end FILE IDENTIFICATION RECORD ====================*
%FSTAX35Y35*MOMM*%
%IR0*IPPOS*OFA0.00000B0.00000*MIA0B0*SFA1.00000B1.00000*%
%ADD17R,.4X1.*%
%ADD19R,.8001X1.*%
%ADD21R,1.5001X.7*%
%ADD24C,.224*%
%ADD25R,1.7501X.95*%
%ADD23R,.4501X1.475*%
%ADD32R,.8001X.8001*%
%ADD15C,.6096*%
%ADD28R,1.1501X.5999*%
%ADD26C,.5999*%
%ADD20C,.8999*%
%ADD18R,1.3X1.1001*%
%ADD10C,1.1001*%
%ADD12R,2.54X1.27*%
%ADD22R,.46X.4201*%
%ADD33R,.4201X.46*%
%ADD11R,1.1001X1.1001*%
%ADD13C,1.65*%
%ADD31R,.8001X.95*%
%ADD16R,1.1501X1.1501*%
%ADD14R,1.65X1.65*%
%ADD27R,.3X.8499*%
%ADD30C,1.1699*%
%ADD29R,1.7501X3.1999*%
%ADD34C,.127*%
%ADD35C,.254*%
%ADD36C,.381*%
%ADD37C,.508*%
%ADD38C,1.3546*%
%ADD39R,8.1284X5.3344*%
G75*
%LPD*%
G75*
G36*
G01X202946Y215646D02*
X155956D01*
Y226822D01*
X202946D01*
Y215646D01*
G37*
G36*
G01X155956Y281686D02*
X202946D01*
Y274828D01*
X1979272D01*
Y2756498D01*
X1981211D01*
G03X1982482Y2757769I-00000005J00012715D01*
G01Y2769271D01*
G03X1981211Y2770542I-00012715J-00000005D01*
G01X1969709D01*
G03X1968438Y2769271I00000005J-00012715D01*
G01Y2757769D01*
G03X1969709Y2756498I00012715J00000005D01*
G01X1971648D01*
Y274828D01*
X189484D01*
X188214Y273558D01*
X184658D01*
X183896Y27432D01*
Y276098D01*
X183388Y276606D01*
X1826938D01*
Y2768565D01*
G03X1826903Y2769034I-00031773J-00000013D01*
G01X1826897Y2769072D01*
Y2797764D01*
X1830116Y2800983D01*
X1889714D01*
X1891663Y2799034D01*
Y2787589D01*
X1891607Y278748D01*
G03X1891468Y27869I00011406J-000058D01*
G01Y27757D01*
G03X189274Y2774428I0001272J0D01*
G01X189694D01*
G03X1898212Y27757I0J0001272D01*
G01Y27869D01*
G03X1898073Y278748I-00012796J0D01*
G01X1898017Y2787589D01*
Y280035D01*
G03X1897086Y2802596I-00031767J-00000008D01*
G01X1893276Y2806406D01*
G03X189103Y2807337I-00022468J-00022457D01*
G01X18288D01*
G03X1826554Y2806406I00000008J-00031767D01*
G01X1821474Y2801326D01*
G03X1820543Y279908I00022457J-00022468D01*
G01Y2768594D01*
G03X1820578Y2768125I00031773J00000013D01*
G01X1820584Y2768087D01*
Y276606D01*
X178816D01*
X178308Y276098D01*
Y2759077D01*
X1776857D01*
Y276302D01*
X177697Y276316D01*
G03X1777252Y2763957I-00009902J00007987D01*
G01Y276816D01*
G03X177598Y2769432I-0001272J0D01*
G01X176478D01*
G03X1763508Y276816I0J-0001272D01*
G01Y276396D01*
G03X176478Y2762688I0001272J0D01*
G01X1770503D01*
Y2759272D01*
X176478D01*
G03X1763508Y2758I0J-0001272D01*
G01Y27538D01*
G03X176478Y2752528I0001272J0D01*
G01X177598D01*
G03X177656Y2752667I0J00012796D01*
G01X1776669Y2752723D01*
X178308D01*
Y275082D01*
X177038Y273812D01*
Y2736412D01*
X176478D01*
G03X1763508Y273514I0J-0001272D01*
G01Y273094D01*
G03X176478Y2729668I0001272J0D01*
G01X177038D01*
Y272796D01*
X17653Y272288D01*
X175514D01*
X175006Y272796D01*
Y273558D01*
X174752Y273812D01*
X1734378D01*
G02X1733393Y2739386I-00000002J0001016D01*
G03X1733432Y2739697I-00012327J00003125D01*
G01Y27467D01*
G03X173216Y2747972I-0001272J0D01*
G01X171716D01*
G03X1715888Y27467I0J-0001272D01*
G01Y27397D01*
G03X1716267Y2738794I00012724J0D01*
G02X1716272Y2737352I-00007134J-00007235D01*
G01X1715298Y2736378D01*
G02X1713581Y2736909I-00007184J00007185D01*
G03X170716Y2742234I-0006421J-00012088D01*
G03Y2729166I0J-0006534D01*
G03X1712633Y2732131I0J00065337D01*
G02X17145Y2731576I0000851J-00005551D01*
G01Y2716377D01*
X1712908D01*
X1709238Y2720046D01*
G03X1706992Y2720977I-00022468J-00022457D01*
G01X161544D01*
G03X1613194Y2720046I00000008J-00031767D01*
G01X1605574Y2712426D01*
G03X1604643Y271018I00022457J-00022468D01*
G01Y2653076D01*
X1601424Y2649857D01*
X1597032D01*
Y265303D01*
G03X159576Y2654302I-0001272J0D01*
G01X157036D01*
G03X1569088Y265303I0J-0001272D01*
G01Y264033D01*
G03X157036Y2639058I0001272J0D01*
G01X159576D01*
G03X1597032Y264033I0J0001272D01*
G01Y2643503D01*
X160274D01*
G03X1604986Y2644434I-00000008J00031767D01*
G01X1610066Y2649514D01*
G03X1610997Y265176I-00022457J00022468D01*
G01Y2708864D01*
X1616756Y2714623D01*
X1705676D01*
X1706464Y2713835D01*
G02X1705936Y2712118I-00007181J-00007189D01*
G03X1700626Y27057I00012236J-0006418D01*
G03X170716Y2699166I0006534J0D01*
G03X1712633Y2702131I0J00065337D01*
G02X17145Y2701576I0000851J-00005551D01*
G01Y269494D01*
X171704Y26924D01*
X174752D01*
X175006Y268986D01*
Y2667D01*
X174498Y266192D01*
X168402D01*
X1682117Y2660017D01*
X1662476D01*
X1655786Y2666706D01*
G03X165354Y2667637I-00022468J-00022457D01*
G01X16256D01*
G03X1623354Y2666706I00000008J-00031767D01*
G01X1615734Y2659086D01*
G03X1614803Y265684I00022457J-00022468D01*
G01Y2637836D01*
X1605574Y2628606D01*
G03X1604643Y262636I00022457J-00022468D01*
G01Y2482896D01*
X1598884Y2477137D01*
X1580782D01*
G03X15748Y2480733I-0005982J-00031776D01*
G03Y2467187I0J-0006773D01*
G03X1580782Y2470783I0J00067736D01*
G01X16002D01*
G03X1602446Y2471714I-00000008J00031767D01*
G01X1606086Y2475353D01*
G02X160782Y2474635I0000718J-00007187D01*
G01Y2451737D01*
X1580782D01*
G03X15748Y2455333I-0005982J-00031776D01*
G03Y2441787I0J-0006773D01*
G03X1580782Y2445383I0J00067736D01*
G01X160782D01*
Y2412367D01*
X160353D01*
X1591388Y2424508D01*
G03X159004Y2425067I-00013488J-00013477D01*
G01X1581309D01*
X158119Y2425406D01*
G03X15748Y2429933I-000639J-00022463D01*
G03Y2416387I0J-0006773D01*
G03X158119Y2420914I0J00067733D01*
G01X1581309Y2421253D01*
X158925D01*
X1601392Y2409112D01*
G03X160274Y2408553I00013488J00013477D01*
G01X160782D01*
Y2386967D01*
X160099D01*
X1588848Y2399108D01*
G03X15875Y2399667I-00013488J-00013477D01*
G01X1581309D01*
X158119Y2400006D01*
G03X15748Y2404533I-000639J-00022463D01*
G03Y2390987I0J-0006773D01*
G03X158119Y2395514I0J00067733D01*
G01X1581309Y2395853D01*
X158671D01*
X1598852Y2383712D01*
G03X16002Y2383153I00013488J00013477D01*
G01X160782D01*
Y2323467D01*
X1581309D01*
X158119Y2323806D01*
G03X15748Y2328333I-000639J-00022463D01*
G03Y2314787I0J-0006773D01*
G03X158119Y2319314I0J00067733D01*
G01X1581309Y2319653D01*
X160782D01*
Y2308227D01*
X157305D01*
X1566392Y2314885D01*
Y2343475D01*
X1567114Y2344197D01*
G02X1568741Y2343933I00007184J-00007184D01*
G03X15748Y2340187I0006059J00030271D01*
G03Y2353733I0J0006773D01*
G03X156841Y2349206I0J-00067733D01*
G01X1568291Y2348867D01*
X156718D01*
G03X1565832Y2348308I00000008J-00019067D01*
G01X1563137Y2345613D01*
G03X1562578Y2344265I00013477J-00013488D01*
G01Y2314095D01*
G03X1563137Y2312747I00019067J00000008D01*
G01X1570912Y2304972D01*
G03X157226Y2304413I00013488J00013477D01*
G01X160782D01*
Y226822D01*
X155956D01*
Y281686D01*
G37*
G36*
G01X160782Y226822D02*
Y230378D01*
X181356D01*
X181864Y22987D01*
Y226822D01*
X160782D01*
G37*
G36*
G01X1626916Y2661283D02*
X1652224D01*
X1658914Y2654594D01*
G03X166116Y2653663I00022468J00022457D01*
G01X167894D01*
Y261112D01*
X16764Y260858D01*
X1665607D01*
Y26416D01*
G03X1665048Y2642948I-00019067J-00000008D01*
G01X1659968Y2648028D01*
G03X165862Y2648587I-00013488J-00013477D01*
G01X1651632D01*
Y265303D01*
G03X165036Y2654302I-0001272J0D01*
G01X162496D01*
G03X1623688Y265303I0J-0001272D01*
G01Y264033D01*
G03X162496Y2639058I0001272J0D01*
G01X165036D01*
G03X1651632Y264033I0J0001272D01*
G01Y2644773D01*
X165783D01*
X1661793Y264081D01*
Y2623257D01*
G02X1660059Y2622538I-00010159J-00000003D01*
G01X1659968Y2622628D01*
G03X165862Y2623187I-00013488J-00013477D01*
G01X1651632D01*
Y262763D01*
G03X165036Y2628902I-0001272J0D01*
G01X162496D01*
G03X1623688Y262763I0J-0001272D01*
G01Y261493D01*
G03X162496Y2613658I0001272J0D01*
G01X165036D01*
G03X1651632Y261493I0J0001272D01*
G01Y2619373D01*
X165783D01*
X1659253Y261795D01*
Y260858D01*
X16256D01*
X162306Y260604D01*
Y251714D01*
X1612731Y2506811D01*
G02X1610997Y250753I-0000718J00007188D01*
G01Y2625044D01*
X1620226Y2634274D01*
G03X1621157Y263652I-00022457J00022468D01*
G01Y2655524D01*
X1626916Y2661283D01*
G37*
G36*
G01X17526Y27432D02*
X177038D01*
Y2736412D01*
X176478D01*
G03X1763508Y273514I0J-0001272D01*
G01Y273094D01*
G03X176478Y2729668I0001272J0D01*
G01X177038D01*
Y272796D01*
X17526D01*
Y27432D01*
G37*
G36*
G01X192278Y226822D02*
Y229616D01*
X192786Y230124D01*
X202946D01*
Y226822D01*
X192278D01*
G37*
G36*
G01X19939Y2747008D02*
X202946D01*
Y24892D01*
X198628D01*
X198374Y249174D01*
Y266954D01*
X19939Y26797D01*
Y2747008D01*
G37*
%LPC*%
G75*
G36*
G01X1568028Y2504861D02*
G02X1569299Y2506132I00012715J-00000005D01*
G01X1580301D01*
G02X1581572Y2504861I-00000005J-00012715D01*
G01Y2493859D01*
G02X1580301Y2492588I-00012715J00000005D01*
G01X1569299D01*
G02X1568028Y2493859I00000005J00012715D01*
G01Y2504861D01*
G37*
G36*
G01X1569088Y255143D02*
G02X157036Y2552702I0001272J0D01*
G01X159576D01*
G02X1597032Y255143I0J-0001272D01*
G01Y253873D01*
G02X159576Y2537458I-0001272J0D01*
G01X157036D01*
G02X1569088Y253873I0J0001272D01*
G01Y255143D01*
G37*
G36*
G01Y257683D02*
G02X157036Y2578102I0001272J0D01*
G01X159576D01*
G02X1597032Y257683I0J-0001272D01*
G01Y256413D01*
G02X159576Y2562858I-0001272J0D01*
G01X157036D01*
G02X1569088Y256413I0J0001272D01*
G01Y257683D01*
G37*
G36*
G01Y260223D02*
G02X157036Y2603502I0001272J0D01*
G01X159576D01*
G02X1597032Y260223I0J-0001272D01*
G01Y258953D01*
G02X159576Y2588258I-0001272J0D01*
G01X157036D01*
G02X1569088Y258953I0J0001272D01*
G01Y260223D01*
G37*
G36*
G01Y262763D02*
G02X157036Y2628902I0001272J0D01*
G01X159576D01*
G02X1597032Y262763I0J-0001272D01*
G01Y261493D01*
G02X159576Y2613658I-0001272J0D01*
G01X157036D01*
G02X1569088Y261493I0J0001272D01*
G01Y262763D01*
G37*
G36*
G01X1690888Y26892D02*
G02X169216Y2690472I0001272J0D01*
G01X170016D01*
G02X1701432Y26892I0J-0001272D01*
G01Y26792D01*
G02X170016Y2677928I-0001272J0D01*
G01X169216D01*
G02X1690888Y26792I0J0001272D01*
G01Y26892D01*
G37*
G36*
G01X1712888D02*
G02X171416Y2690472I0001272J0D01*
G01X172216D01*
G02X1723432Y26892I0J-0001272D01*
G01Y26792D01*
G02X172216Y2677928I-0001272J0D01*
G01X171416D01*
G02X1712888Y26792I0J0001272D01*
G01Y26892D01*
G37*
G36*
G01X1690888Y27622D02*
G02X169216Y2763472I0001272J0D01*
G01X170016D01*
G02X1701432Y27622I0J-0001272D01*
G01Y27522D01*
G02X170016Y2750928I-0001272J0D01*
G01X169216D01*
G02X1690888Y27522I0J0001272D01*
G01Y27622D01*
G37*
G36*
G01X1712888D02*
G02X171416Y2763472I0001272J0D01*
G01X172216D01*
G02X1723432Y27622I0J-0001272D01*
G01Y27522D01*
G02X172216Y2750928I-0001272J0D01*
G01X171416D01*
G02X1712888Y27522I0J0001272D01*
G01Y27622D01*
G37*
G36*
G01X1949438Y2769271D02*
G02X1950709Y2770542I00012715J-00000005D01*
G01X1962211D01*
G02X1963482Y2769271I-00000005J-00012715D01*
G01Y2757769D01*
G02X1962211Y2756498I-00012715J00000005D01*
G01X1950709D01*
G02X1949438Y2757769I00000005J00012715D01*
G01Y2759708D01*
X1933251D01*
G02X1932359Y2759814I00000007J00038119D01*
G01X19323Y2759828D01*
X1930648D01*
X1930572Y2759411D01*
G02X1929322Y2758368I-00012511J00002289D01*
G01X1921319D01*
G02X1920048Y2759639I00000005J00012715D01*
G01Y2767641D01*
G02X1921319Y2768912I00012715J-00000005D01*
G01X1929322D01*
G02X1930572Y2767869I-00000011J-00012719D01*
G01X1930648Y2767452D01*
X1933131D01*
G02X1934023Y2767346I-00000007J-00038119D01*
G01X1934082Y2767332D01*
X1949438D01*
Y2769271D01*
G37*
G36*
G01X1857898Y27719D02*
G02X185917Y2773172I0001272J0D01*
G01X187667D01*
G02X1877942Y27719I0J-0001272D01*
G01Y27399D01*
G02X187667Y2738628I-0001272J0D01*
G01X185917D01*
G02X1857898Y27399I0J0001272D01*
G01Y27719D01*
G37*
G36*
G01X1920048Y2782641D02*
G02X1921319Y2783912I00012715J-00000005D01*
G01X1929321D01*
G02X1930592Y2782641I-00000005J-00012715D01*
G01Y2774639D01*
G02X1929321Y2773368I-00012715J00000005D01*
G01X1921319D01*
G02X1920048Y2774639I00000005J00012715D01*
G01Y2782641D01*
G37*
G36*
G01X1794898Y278365D02*
G02X179617Y2784922I0001272J0D01*
G01X181367D01*
G02X1814942Y278365I0J-0001272D01*
G01Y277415D01*
G02X181367Y2772878I-0001272J0D01*
G01X179617D01*
G02X1794898Y277415I0J0001272D01*
G01Y278365D01*
G37*
G54D38*
X15748Y237236D03*
G54D39*
X162687Y27559D03*
%LPD*%
G75*
G36*
G01X166878Y27813D02*
Y272796D01*
X158496D01*
Y27813D01*
X166878D01*
G37*
G36*
G01X158496Y278384D02*
X166878D01*
Y27813D01*
X158496D01*
Y278384D01*
G37*
G54D10*
X15748Y232156D03*
Y234696D03*
Y237236D03*
Y239776D03*
Y242316D03*
Y244856D03*
Y247396D03*
X184246Y231965D03*
Y236265D03*
X189046Y231965D03*
Y236265D03*
G54D11*
X15748Y249936D03*
G54D20*
X170716Y27057D03*
Y27357D03*
G54D30*
X190396Y234115D03*
G54D12*
X158306Y254508D03*
Y257048D03*
Y259588D03*
Y262128D03*
Y264668D03*
X163766Y254508D03*
Y257048D03*
Y259588D03*
Y262128D03*
Y264668D03*
G54D21*
X172466Y26982D03*
Y27132D03*
Y27432D03*
G54D31*
X191428Y27305D03*
X193128D03*
G54D13*
X161798Y233426D03*
Y235966D03*
Y238506D03*
Y241046D03*
Y243586D03*
X195834Y233172D03*
Y235712D03*
Y238252D03*
Y240792D03*
Y243332D03*
G54D22*
X176708Y271272D03*
X177368D03*
Y27559D03*
X176708D03*
X177368Y273304D03*
X176708D03*
X177368Y276606D03*
X176708D03*
X18067Y271272D03*
X18001D03*
X18321Y228092D03*
X18255D03*
X18321Y229362D03*
X18255D03*
X1960624Y2579116D03*
X1954024D03*
X1960624Y256032D03*
X1954024D03*
X20099Y232664D03*
X20033D03*
X2010408Y2338832D03*
X2003808D03*
X200584Y23876D03*
X201244D03*
G54D14*
X161798Y246126D03*
X195834Y245872D03*
G54D32*
X192532Y276364D03*
Y277864D03*
G54D23*
X181509Y24649D03*
X180859D03*
X180209D03*
X179559D03*
Y252366D03*
X180209D03*
X180859D03*
X181509D03*
X185409Y24649D03*
X184759D03*
X184109D03*
X183459D03*
X182809D03*
X182159D03*
Y252366D03*
X182809D03*
X183459D03*
X184109D03*
X184759D03*
X185409D03*
X186709Y24649D03*
X186059D03*
Y252366D03*
X186709D03*
G54D33*
X189484Y27846D03*
Y2778D03*
X193294Y264084D03*
Y264744D03*
Y268554D03*
Y267894D03*
X197612Y261544D03*
Y262204D03*
G54D15*
X162814Y250698D03*
X161798Y249936D03*
X1651Y233426D03*
X165354Y249174D03*
X167386Y254762D03*
X165608Y25146D03*
X167132Y259842D03*
X170434Y232156D03*
X171196Y236728D03*
X169418D03*
X171196Y239268D03*
X168656Y238506D03*
X169418Y24003D03*
X168082Y242636D03*
X171196Y241046D03*
X169164Y246888D03*
X168656Y250444D03*
X169418Y252476D03*
X167894Y253492D03*
Y258318D03*
Y256794D03*
X172212Y232156D03*
Y244602D03*
X173228Y24638D03*
X172974Y249428D03*
X175006Y26162D03*
X174244Y27305D03*
X17526Y231648D03*
X177038Y239014D03*
X17526D03*
X176784Y24638D03*
X177038Y24511D03*
X178054Y24638D03*
Y26162D03*
X177292Y265684D03*
X178054Y262636D03*
X175768Y26797D03*
X18034Y235966D03*
X178816D03*
X181356Y239522D03*
X178816Y244602D03*
X18161Y254254D03*
X18034Y255016D03*
X180086Y257302D03*
X178816Y265684D03*
Y267208D03*
X1844195Y2281075D03*
X18288Y25019D03*
X185409Y254243D03*
X183134Y254254D03*
X182372Y256794D03*
X185166D03*
X185409Y270245D03*
X186182Y232156D03*
Y237998D03*
X187198Y23876D03*
X188976Y24638D03*
X186436Y255016D03*
X188722Y252222D03*
Y256794D03*
X186436Y256286D03*
X188214Y27051D03*
X186436Y271018D03*
X191516Y2286D03*
X191262Y25654D03*
Y260096D03*
Y261366D03*
Y26289D03*
X189738Y271526D03*
X193294Y260096D03*
Y261366D03*
Y26289D03*
Y266446D03*
X1999198Y2372142D03*
X197612Y2579116D03*
X202438Y231902D03*
X20066Y245872D03*
G54D24*
X181774Y258848D03*
X181124D03*
X181774Y259498D03*
X181124D03*
X181774Y260148D03*
X181124D03*
X181774Y260798D03*
X181124D03*
X181774Y261448D03*
X181124D03*
X181774Y262098D03*
X181124D03*
X181774Y262748D03*
X181124D03*
X181774Y263398D03*
X181124D03*
X181774Y264048D03*
X181124D03*
X181774Y264698D03*
X181124D03*
X181774Y265348D03*
X181124D03*
X181774Y265998D03*
X181124D03*
X181774Y266648D03*
X181124D03*
X181774Y267298D03*
X181124D03*
X181774Y267948D03*
X181124D03*
X185024Y258848D03*
X184374D03*
X183724D03*
X183074D03*
X182424D03*
X185024Y259498D03*
X184374D03*
X183724D03*
X183074D03*
X182424D03*
X185024Y260148D03*
X184374D03*
X183724D03*
X183074D03*
X182424D03*
X185024Y260798D03*
X184374D03*
X183724D03*
X183074D03*
X182424D03*
X183074Y261448D03*
X182424D03*
X185024Y262098D03*
X184374D03*
X183074D03*
X182424D03*
X185024Y262748D03*
X184374D03*
X183074D03*
X182424D03*
X185024Y263398D03*
X184374D03*
X183074D03*
X182424D03*
X185024Y264048D03*
X184374D03*
X183074D03*
X182424D03*
X185024Y264698D03*
X184374D03*
X183074D03*
X182424D03*
X183074Y265348D03*
X182424D03*
X185024Y265998D03*
X184374D03*
X183724D03*
X183074D03*
X182424D03*
X185024Y266648D03*
X184374D03*
X183724D03*
X183074D03*
X182424D03*
X185024Y267298D03*
X184374D03*
X183724D03*
X183074D03*
X182424D03*
X185024Y267948D03*
X184374D03*
X183724D03*
X183074D03*
X182424D03*
X188924Y258848D03*
X188274D03*
X187624D03*
X186974D03*
X186324D03*
X185674D03*
X188924Y259498D03*
X188274D03*
X187624D03*
X186974D03*
X186324D03*
X185674D03*
X188924Y260148D03*
X188274D03*
X187624D03*
X186974D03*
X186324D03*
X185674D03*
X188924Y260798D03*
X188274D03*
X187624D03*
X186974D03*
X186324D03*
X185674D03*
X188924Y261448D03*
X188274D03*
X188924Y262098D03*
X188274D03*
X186974D03*
X186324D03*
X185674D03*
X188924Y262748D03*
X188274D03*
X186974D03*
X186324D03*
X185674D03*
X188924Y263398D03*
X188274D03*
X186974D03*
X186324D03*
X185674D03*
X188924Y264048D03*
X188274D03*
X186974D03*
X186324D03*
X185674D03*
X188924Y264698D03*
X188274D03*
X186974D03*
X186324D03*
X185674D03*
X188924Y265348D03*
X188274D03*
X188924Y265998D03*
X188274D03*
X187624D03*
X186974D03*
X186324D03*
X185674D03*
X188924Y266648D03*
X188274D03*
X187624D03*
X186974D03*
X186324D03*
X185674D03*
X188924Y267298D03*
X188274D03*
X187624D03*
X186974D03*
X186324D03*
X185674D03*
X188924Y267948D03*
X188274D03*
X187624D03*
X186974D03*
X186324D03*
X185674D03*
X190224Y258848D03*
X189574D03*
X190224Y259498D03*
X189574D03*
X190224Y260148D03*
X189574D03*
X190224Y260798D03*
X189574D03*
X190224Y261448D03*
X189574D03*
X190224Y262098D03*
X189574D03*
X190224Y262748D03*
X189574D03*
X190224Y263398D03*
X189574D03*
X190224Y264048D03*
X189574D03*
X190224Y264698D03*
X189574D03*
X190224Y265348D03*
X189574D03*
X190224Y265998D03*
X189574D03*
X190224Y266648D03*
X189574D03*
X190224Y267298D03*
X189574D03*
X190224Y267948D03*
X189574D03*
G54D34*
G01X16764Y232222D02*
X1656739D01*
X1656079Y232156D01*
X15748D01*
G01X175006Y243586D02*
X17399D01*
X173736Y243332D01*
Y2308859D01*
X1734821Y230632D01*
X157226D01*
X1564485Y2314095D01*
Y2344265D01*
X156718Y234696D01*
X15748D01*
G01X161798Y238506D02*
X16002D01*
X15875Y239776D01*
X15748D01*
G01Y242316D02*
X159004D01*
X160274Y241046D01*
X161798D01*
G01X158306Y253695D02*
Y254508D01*
G01D02*
Y255321D01*
G01X156858Y254508D02*
X158306D01*
G01D02*
X159754D01*
G01X158306Y261315D02*
Y262128D01*
G01Y258775D02*
Y259588D01*
G01D02*
Y260401D01*
G01X156858Y259588D02*
X158306D01*
G01D02*
X159754D01*
G01X158306Y262128D02*
Y262941D01*
G01X156858Y262128D02*
X158306D01*
G01D02*
X159754D01*
G01X161798Y233426D02*
X1651D01*
G01X161798Y238506D02*
X16383D01*
X16478Y237556D01*
X166624D01*
G01X161798Y243586D02*
X163068D01*
X1651Y241554D01*
X1696097D01*
X169926Y2418703D01*
Y242636D01*
G01X161798Y241046D02*
X169418D01*
G01X171196Y239268D02*
X169164D01*
X168976Y239456D01*
X166624D01*
G01X168656Y237556D02*
X166624D01*
G01Y242636D02*
X168082D01*
G01X166624Y249174D02*
Y244536D01*
G01X165354Y249174D02*
X166624D01*
G01D02*
Y252699D01*
X165608Y253715D01*
Y256921D01*
X165481Y257048D01*
X163766D01*
G01X169164Y246888D02*
X168148D01*
X167894Y247142D01*
Y2517883D01*
X165862Y2538203D01*
Y259334D01*
X165608Y259588D01*
X163766D01*
G01Y262128D02*
X165862D01*
X166116Y261874D01*
Y254D01*
X168656Y25146D01*
Y250444D01*
G01X165608Y25146D02*
Y2533557D01*
X165354Y2536097D01*
Y2543806D01*
X1652266Y254508D01*
X163766D01*
G01X167386Y254762D02*
X166878D01*
X16637Y25527D01*
Y26416D01*
X165862Y264668D01*
X163766D01*
G01X170434Y232156D02*
Y23368D01*
X169992Y234122D01*
X16764D01*
G01Y232222D02*
X1686105Y2312515D01*
X1730855D01*
X173482Y231648D01*
Y2452153D01*
X1724533Y246244D01*
Y247015D01*
X1737074Y2482691D01*
Y251587D01*
X1738344Y251714D01*
X174244D01*
X174356Y251602D01*
Y250378D01*
G01X168656Y238506D02*
Y237556D01*
G01X171338Y248478D02*
Y247D01*
X173228Y24511D01*
Y238506D01*
X172278Y237556D01*
X168656D01*
G01X171196Y236728D02*
X169418D01*
G01X169926Y242636D02*
X168976Y243586D01*
Y2450056D01*
X170688Y2467176D01*
Y248478D01*
G01X169418Y241046D02*
X171196D01*
G01X169418Y24003D02*
Y241046D01*
G01X172212Y244602D02*
X1707577D01*
X1706917Y244536D01*
X169926D01*
G01X170038Y248478D02*
Y247254D01*
X169672Y246888D01*
X169164D01*
G01X172974Y249428D02*
X169672D01*
X169418Y249682D01*
Y252476D01*
G01X167894Y253492D02*
X169926D01*
X17018Y253238D01*
Y2512106D01*
X170038Y2510686D01*
Y250378D01*
G01X170246Y259334D02*
X172974D01*
X17399Y258318D01*
Y25781D01*
X17526Y25654D01*
X1805941D01*
X181124Y2570699D01*
Y258848D01*
G01X169616Y267742D02*
Y26842D01*
G01D02*
Y269098D01*
G01X1690379Y26842D02*
X169616D01*
G01D02*
X1701941D01*
G01X169616Y275042D02*
Y27572D01*
G01D02*
Y276398D01*
G01X1690379Y27572D02*
X169616D01*
G01D02*
X1701941D01*
G01X177038Y239014D02*
Y239776D01*
X176784Y24003D01*
X174498D01*
X174244Y240284D01*
Y2413D01*
X174498Y241554D01*
X175326D01*
G01X171338Y250378D02*
Y251348D01*
X171704Y251714D01*
X17272D01*
X172974Y25146D01*
Y249428D01*
G01X183074Y258848D02*
Y25648D01*
X182626Y256032D01*
X1786673D01*
X1784133Y256286D01*
X1749437D01*
X1729117Y258318D01*
X172146D01*
G01X171816Y267742D02*
Y26842D01*
G01D02*
Y269098D01*
G01X1712379Y26842D02*
X171816D01*
G01D02*
X1723941D01*
G01X1751061Y274886D02*
X173538D01*
G01X171816Y275042D02*
Y27572D01*
G01D02*
Y276398D01*
G01X1712379Y27572D02*
X171816D01*
G01D02*
X1723941D01*
G01X17526Y231648D02*
Y234508D01*
G01Y236408D02*
Y239014D01*
G01X18066Y243586D02*
X175006D01*
G01D02*
Y248478D01*
G01X178816Y235966D02*
Y2413D01*
X178562Y241554D01*
X177226D01*
G01X184109Y24649D02*
Y245069D01*
X183642Y244602D01*
X180086D01*
X179324Y24384D01*
X178308D01*
X177038Y24511D01*
G01X175326Y255016D02*
Y255844D01*
X175514Y256032D01*
X178308D01*
X178562Y255778D01*
X183388D01*
X183896Y256286D01*
Y2585921D01*
X1840265Y2587226D01*
Y2589734D01*
X1838494Y2591505D01*
X1832945D01*
X183272Y259173D01*
X1822787D01*
X182099Y2593527D01*
Y2596433D01*
X182424Y2599683D01*
Y260148D01*
G01X177226Y258318D02*
X1781711D01*
X1809761Y261123D01*
X1819192D01*
X182099Y2613028D01*
Y261646D01*
X182226Y261773D01*
X182749D01*
X183074Y261448D01*
G01X178054Y26162D02*
X1808365D01*
X1809895Y261773D01*
X181449D01*
X181774Y261448D01*
G01X177292Y265684D02*
X177953Y265023D01*
X1812692D01*
X1815942Y264698D01*
X181774D01*
G01X178054Y262636D02*
X180848D01*
X18096Y262748D01*
X181124D01*
G01X177226Y263906D02*
X17907D01*
X179212Y264048D01*
X181124D01*
G01X177368Y271272D02*
X18001D01*
G01X176708Y2752019D02*
Y27559D01*
G01D02*
Y2759781D01*
G01X1763Y27559D02*
X176708D01*
G01Y276606D02*
X1763D01*
G01X176708D02*
Y2771337D01*
G01X185396Y23495D02*
Y2363927D01*
X1845527Y237236D01*
X180467D01*
X18034Y237109D01*
Y235966D01*
G01X178816Y244602D02*
X1797267D01*
X1799807Y244856D01*
X1827531D01*
X183459Y2455619D01*
Y24649D01*
G01X185674Y260798D02*
X185349Y260473D01*
Y2600025D01*
X1855285Y259823D01*
X185872D01*
X185999Y259696D01*
Y256738D01*
X184785Y255524D01*
X181864D01*
X18161Y25527D01*
Y254254D01*
G01X181774Y260148D02*
X181449Y259823D01*
Y2593D01*
X181576Y259173D01*
X1819191D01*
X182099Y2589931D01*
Y2587135D01*
X181449Y2580635D01*
Y257209D01*
X181864Y256794D01*
X182372D01*
G01X180086Y257302D02*
X180594Y25781D01*
Y260268D01*
X181124Y260798D01*
G01X181774Y260148D02*
X182099Y260473D01*
Y2609435D01*
X182424Y2612685D01*
Y261448D01*
G01X181124Y259498D02*
Y258848D01*
G01X181774Y264698D02*
Y264048D01*
G01X182424Y264698D02*
X182099Y265023D01*
X1816711D01*
X1814715Y2652226D01*
Y2655684D01*
X1813894Y2656505D01*
X1810436D01*
X1808215Y2658726D01*
Y2663455D01*
X181124Y266648D01*
G01X178816Y265684D02*
Y267208D01*
G01X183724Y266648D02*
X183399Y266973D01*
X1814489D01*
X181338Y2668621D01*
Y266862D01*
X181124Y266648D01*
G01X180492Y277237D02*
Y27789D01*
G01D02*
Y278543D01*
G01Y27789D02*
X1815451D01*
G01X186182Y232156D02*
X185523D01*
X185396Y232283D01*
Y23328D01*
G01X186896D02*
Y231521D01*
X186769Y231394D01*
X18542D01*
X1849866Y2318274D01*
Y2339356D01*
X185166Y234115D01*
X1861766D01*
X186396Y2343344D01*
Y23495D01*
G01X18255Y229362D02*
Y231826D01*
X182689Y231965D01*
X182943D01*
G01D02*
X184246D01*
G01X182943D02*
Y2325932D01*
X18307Y2327202D01*
X1836112D01*
X183896Y233005D01*
Y23328D01*
G01D02*
Y233555D01*
G01D02*
X184277D01*
X184404Y233682D01*
Y2353664D01*
X184246Y2355244D01*
Y236265D01*
G01X183896Y233555D02*
Y23495D01*
G01X186896D02*
Y2360139D01*
X185166Y2377439D01*
Y240538D01*
X185354Y240726D01*
X188742D01*
G01X185896Y23495D02*
Y236252D01*
X184216Y237932D01*
Y239776D01*
G01X185409Y252366D02*
Y254243D01*
G01X186436Y255016D02*
X184912D01*
X184759Y254863D01*
Y252366D01*
G01X183134Y254254D02*
X183896D01*
X184109Y254041D01*
Y252366D01*
G01X185166Y256794D02*
Y2585305D01*
X185349Y2587135D01*
Y2596432D01*
X1851692Y259823D01*
X182749D01*
X182424Y259498D01*
G01X183724Y265998D02*
Y264698D01*
X184374D01*
G01X185674D02*
X185024D01*
G01X184374D02*
X185024D01*
G01X184374Y262098D02*
Y262748D01*
G01D02*
Y263398D01*
G01Y264698D02*
Y264048D01*
G01D02*
Y263398D01*
G01Y262098D02*
X185024D01*
G01D02*
Y262748D01*
G01D02*
Y263398D01*
G01Y264698D02*
Y264048D01*
G01D02*
Y263398D01*
G01Y262098D02*
X185674D01*
G01X182424Y264048D02*
Y264698D01*
G01Y264048D02*
X182749Y263723D01*
Y262423D01*
X183074Y262098D01*
G01X185409Y270245D02*
Y268333D01*
X185024Y267948D01*
G01X185674Y265998D02*
X185024D01*
G01D02*
X1846765Y2663455D01*
X1840715D01*
X183724Y265998D01*
G01X185024Y266648D02*
X184374D01*
G01X185024D02*
X185674D01*
G01X183724D02*
X184374D01*
G01X191516Y2286D02*
Y227838D01*
X191008Y22733D01*
X188468D01*
X18796Y227838D01*
Y2326004D01*
X187896Y2326644D01*
Y23328D01*
G01X187396D02*
Y2297517D01*
X18701Y2293657D01*
Y2286D01*
G01X187896Y23495D02*
Y2355428D01*
X1877781Y2356607D01*
Y2357669D01*
X187452Y236093D01*
Y237744D01*
X187198Y237998D01*
X186182D01*
G01X191242Y239776D02*
X1909669D01*
X1883054Y2371145D01*
Y235852D01*
X188773Y2353844D01*
Y234432D01*
X187896Y233555D01*
Y23328D01*
G01X186896D02*
Y2337685D01*
X1872425Y234115D01*
X1879055D01*
X188519Y2347285D01*
Y2352791D01*
X1880321Y235766D01*
Y2383912D01*
X1884669Y238826D01*
X188742D01*
G01X186896Y23495D02*
Y2343939D01*
X186396Y2338939D01*
Y23328D01*
G01X190224Y258848D02*
Y2393924D01*
X1896576Y238826D01*
X188742D01*
G01X186116Y239776D02*
X187132Y23876D01*
X187198D01*
G01X186116Y239776D02*
X188742D01*
G01X189574Y258848D02*
X189788Y258634D01*
Y2410063D01*
X1895077Y240726D01*
X188742D01*
G01X187624Y260798D02*
Y2607979D01*
X187949Y2604729D01*
Y2587135D01*
X187624Y2583885D01*
Y247732D01*
X188976Y24638D01*
G01X188722Y252222D02*
Y256794D01*
G01X186436Y256286D02*
Y257048D01*
X187299Y257911D01*
Y259823D01*
X186974Y260148D01*
G01Y260798D02*
X187299Y261123D01*
X1905314D01*
X1906584Y260996D01*
Y2607056D01*
X1909116Y2604524D01*
Y2604464D01*
X191262Y260096D01*
G01X188274Y260148D02*
X188599Y259823D01*
X190519D01*
X191262Y25908D01*
Y25654D01*
G01X188924Y262098D02*
X188599Y261773D01*
X187299D01*
X186974Y262098D01*
G01X186324D02*
Y260798D01*
G01X185674D02*
X186324D01*
G01X186974Y260148D02*
X186324D01*
G01X185674D02*
X186324D01*
G01X186974Y262748D02*
Y262098D01*
G01X188274Y263398D02*
Y264048D01*
G01Y264698D02*
Y264048D01*
G01Y263398D02*
X186974D01*
G01X185674Y264698D02*
X186324D01*
G01X186974D02*
X186324D01*
G01X185674D02*
Y264048D01*
G01D02*
Y263398D01*
G01D02*
Y262748D01*
G01D02*
Y262098D01*
G01X186974Y264698D02*
Y264048D01*
G01D02*
Y263398D01*
G01Y262748D02*
Y263398D01*
G01X186324Y262748D02*
Y263398D01*
G01D02*
Y264048D01*
G01Y264698D02*
Y264048D01*
G01Y262748D02*
Y262098D01*
G01X185674D02*
X186324D01*
G01D02*
X186974D01*
G01X188924Y262748D02*
Y263398D01*
G01Y264048D02*
Y263398D01*
G01Y262748D02*
X188274D01*
G01X191428Y27305D02*
Y271946D01*
X1879715Y2684895D01*
Y2665226D01*
X1881486Y2663455D01*
X189047D01*
X189249Y2661435D01*
Y26515D01*
X189122Y265023D01*
X188726D01*
X188599Y264896D01*
Y264373D01*
X188924Y264048D01*
G01X193294Y268554D02*
Y2685739D01*
X19282Y2690479D01*
X190246D01*
X1892715Y2680734D01*
Y2678226D01*
X1894936Y2676005D01*
X1903494D01*
X190754Y2671959D01*
Y264728D01*
X190399Y264373D01*
X189249D01*
X188924Y264698D01*
G01X197546Y27305D02*
Y271968D01*
X197104Y271526D01*
X194056D01*
X193802Y271272D01*
Y269748D01*
X193548Y269494D01*
X1903328D01*
X1890893Y2682505D01*
X1887986D01*
X1886215Y2680734D01*
Y2678226D01*
X1888436Y2676005D01*
X1890494D01*
X1892265Y2674234D01*
Y2665253D01*
X1894288Y266323D01*
X189899D01*
X190224Y265998D01*
G01X189738Y271526D02*
X18796D01*
X186944Y27051D01*
Y2683459D01*
X1866715Y2680734D01*
Y2671726D01*
X186944Y2669001D01*
Y266678D01*
X186974Y266648D01*
G01X188214Y27051D02*
Y2692399D01*
X1872765Y2683024D01*
Y2665676D01*
X1875436Y2663005D01*
X1877494D01*
X1880519Y265998D01*
X188274D01*
G01X186436Y271018D02*
Y2700019D01*
X1860215Y2695874D01*
Y2671726D01*
X1861986Y2669955D01*
X1863239D01*
X186324Y2669954D01*
Y266648D01*
G01D02*
X185674D01*
G01X1890959Y2778D02*
X189484D01*
G01X189396Y23495D02*
Y23328D01*
G01D02*
X1897366D01*
X1897533Y2332633D01*
X1907488D01*
X1907508Y2332653D01*
X192278D01*
G01X1927661Y238826D02*
X191242D01*
G01X1927661D02*
X192786Y2388459D01*
Y2415539D01*
X1930396Y2418075D01*
X1968495D01*
X197104Y242062D01*
Y244348D01*
X19685Y244602D01*
X192786D01*
X192532Y244856D01*
Y268097D01*
X1923785Y2682505D01*
X1898765D01*
X189574Y267948D01*
G01X195834Y243332D02*
X192786D01*
X1926934Y2432394D01*
X192278D01*
G01D02*
Y2409963D01*
X1920077Y240726D01*
X191242D01*
G01X190224Y267948D02*
X192151D01*
X192278Y267821D01*
Y2432394D01*
G01X190224Y262748D02*
X189899Y262423D01*
Y2619D01*
X190026Y261773D01*
X1903586D01*
X1907656Y261366D01*
X191262D01*
G01Y26289D02*
X1905415D01*
X1903585Y263073D01*
X189899D01*
X189574Y262748D01*
G01X189484Y277392D02*
Y2778D01*
G01D02*
X1898721D01*
G01X192532Y2772859D02*
Y277864D01*
G01D02*
Y2784421D01*
G01Y277864D02*
X1931101D01*
G01X195834Y238252D02*
X194056D01*
X193482Y238826D01*
X1927661D01*
G01X193294Y260096D02*
X197104D01*
X197612Y260604D01*
Y261544D01*
G01X193294Y261366D02*
X195326D01*
X19558Y26162D01*
Y26448D01*
G01X193294Y264084D02*
Y26289D01*
G01Y264744D02*
Y266446D01*
G01Y267894D02*
Y266446D01*
G01X201244Y23782D02*
X2011541Y2377301D01*
G54D16*
X16764Y232222D03*
Y234122D03*
X166624Y237556D03*
Y239456D03*
Y242636D03*
Y244536D03*
X169926Y242636D03*
Y244536D03*
X170246Y255016D03*
Y258318D03*
X172146Y255016D03*
Y258318D03*
X17526Y234508D03*
Y236408D03*
X177226Y241554D03*
X175326D03*
X177226Y255016D03*
X175326D03*
Y258318D03*
X177226D03*
Y263906D03*
X175326D03*
X18066Y243586D03*
X184216Y239776D03*
X185994Y243586D03*
X18256D03*
X18891Y2286D03*
X18701D03*
X186116Y239776D03*
X187894Y243586D03*
X19558Y26448D03*
Y26638D03*
X195646Y269748D03*
Y27305D03*
Y276352D03*
X197546Y269748D03*
Y27305D03*
Y276352D03*
X20066Y240858D03*
Y242758D03*
G54D25*
X180492Y27329D03*
Y27559D03*
Y27789D03*
G54D35*
G01X195834Y240792D02*
X1997649D01*
X1998309Y240858D01*
X20066D01*
G01D02*
Y2393001D01*
X200584Y2392241D01*
Y23876D01*
G54D26*
X182896Y234115D03*
G54D17*
X170688Y248478D03*
X170038D03*
Y250378D03*
X170688D03*
X174356Y248478D03*
Y250378D03*
X171338Y248478D03*
Y250378D03*
X175656Y248478D03*
X175006D03*
Y250378D03*
X175656D03*
G54D36*
G01X15748Y247396D02*
X16002D01*
X160782Y248158D01*
Y262636D01*
X161798Y263652D01*
Y265684D01*
X16256Y266446D01*
X165354D01*
X166116Y265684D01*
X176022D01*
X18067Y270332D01*
Y271272D01*
G01X162814Y250698D02*
X16383Y249682D01*
Y245618D01*
X163068Y244856D01*
X15748D01*
G01X172466Y27132D02*
X1711592D01*
X1706992Y27178D01*
X161544D01*
X160782Y271018D01*
Y265176D01*
X160274Y264668D01*
X158306D01*
G01X172212Y232156D02*
Y234696D01*
X170942Y235966D01*
X161798D01*
G01Y246126D02*
Y249936D01*
G01X170688Y250378D02*
Y251968D01*
X171086Y252366D01*
X175006D01*
G01X170246Y258318D02*
X167894D01*
G01Y256794D02*
Y255524D01*
X168402Y255016D01*
X170246D01*
G01X173228Y24638D02*
X17399D01*
X174356Y246746D01*
Y248478D01*
G01X172146Y255016D02*
X175326D01*
G01X175768Y26797D02*
Y269494D01*
X175442Y26982D01*
X172466D01*
G01X176708Y271272D02*
X1754429D01*
X1753949Y27132D01*
X172466D01*
G01X174244Y27305D02*
X172974D01*
X172466Y272542D01*
Y27132D01*
G01X176784Y24638D02*
X176022D01*
X175656Y246746D01*
Y248478D01*
G01X178054Y24638D02*
Y251333D01*
X177673Y251714D01*
X176022D01*
X175656Y251348D01*
Y250378D01*
G01X175006D02*
Y252366D01*
G01D02*
X179559D01*
G01X177226Y255016D02*
X18034D01*
G01X175006Y26162D02*
Y26035D01*
X175326Y26003D01*
Y258318D01*
G01X177368Y271272D02*
Y271958D01*
X176708Y272618D01*
G01D02*
Y273304D01*
G01X177368D02*
X1792853D01*
X1792993Y27329D01*
X180492D01*
G01X177368Y276606D02*
Y27559D01*
G01X180492D02*
X177368D01*
G01X181356Y239522D02*
Y241681D01*
X181737Y242062D01*
X187452D01*
X187894Y242504D01*
Y243586D01*
G01X179559Y24649D02*
Y247885D01*
G01D02*
Y252366D01*
G01X185409Y24649D02*
Y247661D01*
X185185Y247885D01*
X179559D01*
G01X180209Y252366D02*
X179559D01*
G01X180859D02*
X180209D01*
G01X181509D02*
X180859D01*
G01X182159D02*
X181509D01*
G01X179559D02*
Y253473D01*
X18034Y254254D01*
Y255016D01*
G01X18067Y271272D02*
Y2723194D01*
X180492Y2724974D01*
Y27329D01*
G01X1823761Y27559D02*
X180492D01*
G01X18255Y228092D02*
Y229362D01*
G01X1844195Y2281075D02*
Y2290925D01*
X18415Y229362D01*
X18321D01*
G01D02*
Y228092D01*
G01X185994Y243586D02*
X1846869D01*
G01D02*
X184759Y2436581D01*
Y24649D01*
G01X1846869Y243586D02*
X18256D01*
G01X183459Y252366D02*
Y251262D01*
X183769Y250952D01*
X185928D01*
X186059Y251083D01*
Y252366D01*
G01X18288Y25019D02*
X186436D01*
X186709Y250463D01*
Y252366D01*
G01X182809D02*
X182159D01*
G01X183459D02*
X182809D01*
G01X186436Y27305D02*
X18415D01*
X183388Y273812D01*
Y275082D01*
X18288Y27559D01*
X1823761D01*
G01D02*
Y2768559D01*
X182372Y27686D01*
Y279908D01*
X18288Y280416D01*
X189103D01*
X189484Y280035D01*
Y27846D01*
G01X18891Y2286D02*
Y2308978D01*
X189046Y2310338D01*
Y231965D01*
G01D02*
X191579D01*
X192278Y232664D01*
Y2332653D01*
G01X189046Y236265D02*
X192278D01*
G01X187894Y243586D02*
Y2458477D01*
X1872517Y24649D01*
X186709D01*
G01D02*
X186059D01*
G01X186436Y271018D02*
Y27305D01*
G01X191428D02*
X186436D01*
G01X192278Y236265D02*
X194075D01*
X194628Y235712D01*
X195834D01*
G01X192278Y2332653D02*
Y236265D01*
G01X195834Y235712D02*
X19812D01*
G01X1954024Y256032D02*
Y2490976D01*
X196342Y248158D01*
X202057D01*
X202438Y247777D01*
Y240538D01*
X201244Y239344D01*
Y23876D01*
G01X1954024Y2579116D02*
Y256032D01*
G01X1960624Y2579116D02*
X197612D01*
G01X1960624D02*
Y256032D01*
G01X19558Y26638D02*
X197546D01*
X197612Y266446D01*
G01X195646Y269748D02*
Y26829D01*
X19525Y267894D01*
X193294D01*
G01X19558Y26638D02*
X19463D01*
X194564Y266446D01*
X193294D01*
G01X19812Y235712D02*
X1999198D01*
G01X19812D02*
Y234188D01*
X1984248Y2338832D01*
X2003808D01*
G01X1999198Y235712D02*
X20066D01*
X201244Y236296D01*
Y23782D01*
G01X1999198Y235712D02*
Y2372142D01*
G01X197612Y262204D02*
Y266446D01*
G01D02*
X197546Y266512D01*
Y269748D01*
G01X20033Y232664D02*
Y2333047D01*
X2003808Y2333555D01*
Y2338832D01*
G01X2010408D02*
Y2332425D01*
X20099Y2331917D01*
Y232664D01*
G01X202438Y231902D02*
Y233426D01*
X2019808Y2338832D01*
X2010408D01*
G01X201244Y23876D02*
Y23782D01*
G54D27*
X183896Y23328D03*
X185396D03*
Y23495D03*
X183896D03*
X185896Y23328D03*
X186396D03*
X186896D03*
X187396D03*
X187896D03*
Y23495D03*
X187396D03*
X186896D03*
X186396D03*
X185896D03*
X189396Y23328D03*
Y23495D03*
G54D18*
X169892Y262319D03*
Y263969D03*
X171992Y262319D03*
Y263969D03*
G54D37*
G01X170246Y258318D02*
Y259334D01*
G01D02*
Y2600299D01*
X169892Y2603839D01*
Y262319D01*
G01Y263969D02*
Y262319D01*
G01X171992D02*
X174307D01*
X175006Y26162D01*
G01X171992Y263969D02*
X1743069D01*
X1743699Y263906D01*
X175326D01*
G01X195646Y276352D02*
X1933251D01*
X1933131Y276364D01*
X192532D01*
G01X195834Y245872D02*
X20066D01*
G01X193128Y27305D02*
X195646D01*
G01X197546D02*
Y276352D01*
G01X20066Y242758D02*
Y245872D01*
G54D28*
X188742Y238826D03*
Y239776D03*
Y240726D03*
X191242Y239776D03*
Y238826D03*
Y240726D03*
G54D19*
X169616Y26842D03*
Y27572D03*
X171816Y26842D03*
Y27572D03*
G54D29*
X186792Y27559D03*
M02*
