G04 ================== begin FILE IDENTIFICATION RECORD ==================*
G04 Layout Name:  ST-LINKV3_open.brd*
G04 Film Name:    TOP_ASSEMBLY-withMask*
G04 File Format:  Gerber RS274X*
G04 File Origin:  Cadence Allegro 23.1-S005*
G04 Origin Date:  Thu Jul 25 10:05:58 2024*
G04 *
G04 Layer:  PACKAGE GEOMETRY/ASSEMBLY_TOP*
G04 *
G04 Offset:    (0.0000 0.0000)*
G04 Mirror:    No*
G04 Mode:      Positive*
G04 Rotation:  0*
G04 FullContactRelief:  No*
G04 UndefLineWidth:     0.0000*
G04 ================== end FILE IDENTIFICATION RECORD ====================*
%FSLAX25Y25*MOMM*%
%IR0*IPPOS*OFA0.00000B0.00000*MIA0B0*SFA1.00000B1.00000*%
%ADD10C,.1*%
%ADD11C,.2*%
G75*
%LPD*%
G75*
G54D10*
G01X15621000Y23088600D02*
Y25120600D01*
G01X15875000Y23088600D02*
X15621000D01*
G01Y25120600D02*
X15875000D01*
G01D02*
Y23088600D01*
G01X15939800Y23087600D02*
Y24867600D01*
G01X16469800Y23087600D02*
X15939800D01*
G01Y24867600D02*
X16469800D01*
G01X15862100Y25323800D02*
X16345100D01*
G01X15862100Y25577800D02*
Y25323800D01*
G01X15828600Y25577800D02*
X15862100D01*
G01X15828600Y26339800D02*
Y25577800D01*
G01X15862100Y26339800D02*
X15828600D01*
G01X15862100Y26593800D02*
Y26339800D01*
G01X16103600Y26593800D02*
X15862100D01*
G01X16345100Y25323800D02*
Y25577800D01*
G01D02*
X16376600D01*
G01X16345100Y26339800D02*
Y26593800D01*
G01X16378600Y26339800D02*
X16345100D01*
G01Y26593800D02*
X16103600D01*
G01X16469800Y24867600D02*
Y23087600D01*
G01X16701500Y23217200D02*
Y23417200D01*
G01X16826500Y23217200D02*
X16701500D01*
G01Y23417200D02*
X16826500D01*
G01X16599900Y23950600D02*
X16724900D01*
G01X16599900Y23750600D02*
Y23950600D01*
G01X16724900Y23750600D02*
X16599900D01*
G01X16724900Y23950600D02*
Y23750600D01*
G01Y24258600D02*
X16599900D01*
G01X16724900Y24458600D02*
Y24258600D01*
G01X16599900D02*
Y24458600D01*
G01D02*
X16724900D01*
G01X16376600Y25577800D02*
X16378600Y26339800D01*
G01X16826500Y23417200D02*
Y23217200D01*
G01X16930100Y24258600D02*
Y24458600D01*
G01X17055100Y24258600D02*
X16930100D01*
G01X17055100Y24458600D02*
Y24258600D01*
G01X16930100Y24458600D02*
X17055100D01*
G01X16968800Y25005300D02*
X17168800D01*
G01X16968800Y24880300D02*
Y25005300D01*
G01X17168800Y24880300D02*
X16968800D01*
G01X17019600Y25439100D02*
Y25564100D01*
G01X17219600Y25439100D02*
X17019600D01*
G01Y25769300D02*
Y25894300D01*
G01X17219600Y25769300D02*
X17019600D01*
G01Y25564100D02*
X17219600D01*
G01X17019600Y25894300D02*
X17219600D01*
G01X17400600Y25005300D02*
X17600600D01*
G01X17400600Y24880300D02*
Y25005300D01*
G01X17600600Y24880300D02*
X17400600D01*
G01X17103800Y25005300D02*
X17168800Y24940300D01*
G01Y25005300D02*
Y24880300D01*
G01X17219600Y25564100D02*
Y25439100D01*
G01Y25894300D02*
Y25769300D01*
G01X17463500Y23445800D02*
Y23645800D01*
G01X17588500Y23445800D02*
X17463500D01*
G01X17588500Y23645800D02*
Y23445800D01*
G01X17463500Y23645800D02*
X17588500D01*
G01X17527600Y24092900D02*
Y24217900D01*
G01X17727600Y24092900D02*
X17527600D01*
G01X17727600Y24217900D02*
Y24092900D01*
G01X17527600Y24217900D02*
X17727600D01*
G01X17535600Y25005300D02*
X17600600Y24940300D01*
G01Y25005300D02*
Y24880300D01*
G01X17527600Y25439100D02*
Y25564100D01*
G01X17727600Y25439100D02*
X17527600D01*
G01X17727600Y25564100D02*
Y25439100D01*
G01X17527600Y25564100D02*
X17727600D01*
G01Y25894300D02*
Y25769300D01*
G01X17527600D02*
Y25894300D01*
G01X17727600Y25769300D02*
X17527600D01*
G01Y25894300D02*
X17727600D01*
G01X17527600Y26328100D02*
Y26453100D01*
G01X17727600Y26328100D02*
X17527600D01*
G01X17727600Y26453100D02*
Y26328100D01*
G01X17527600Y26453100D02*
X17727600D01*
G01X17733800Y27142200D02*
Y27112200D01*
G01X17673800Y27142200D02*
X17733800D01*
G01X17673800Y27112200D02*
Y27142200D01*
G01X17733800Y27112200D02*
X17673800D01*
G01Y27544000D02*
Y27574000D01*
G01X17733800Y27544000D02*
X17673800D01*
G01X17733800Y27574000D02*
Y27544000D01*
G01X17673800Y27574000D02*
X17733800D01*
G01X17673800Y27315400D02*
Y27345400D01*
G01X17733800Y27315400D02*
X17673800D01*
G01X17733800Y27345400D02*
Y27315400D01*
G01X17673800Y27345400D02*
X17733800D01*
G01X17673800Y27645600D02*
Y27675600D01*
G01X17733800Y27645600D02*
X17673800D01*
G01X17733800Y27675600D02*
Y27645600D01*
G01X17673800Y27675600D02*
X17733800D01*
G01X18061000Y24296100D02*
Y24421100D01*
G01X18261000Y24296100D02*
X18061000D01*
G01X17923400Y24722800D02*
Y25162800D01*
G01X18703400Y24722800D02*
X17923400D01*
G01X18061000Y24421100D02*
X18261000D01*
G01X17923400Y25162800D02*
X18703400D01*
G01X18067400Y25839800D02*
Y26839800D01*
G01X19067400Y25839800D02*
X18067400D01*
G01Y26588600D02*
X18318600Y26839800D01*
G01X18067400D02*
X19067400D01*
G01X18004000Y27112200D02*
Y27142200D01*
G01X18064000Y27112200D02*
X18004000D01*
G01X18064000Y27142200D02*
Y27112200D01*
G01X18004000Y27142200D02*
X18064000D01*
G01X18258000Y22794200D02*
Y22824200D01*
G01X18318000Y22794200D02*
X18258000D01*
G01X18318000Y22824200D02*
Y22794200D01*
G01X18258000Y22824200D02*
X18318000D01*
G01X18217600Y23253500D02*
Y23569500D01*
G01X19111600Y23253500D02*
X18217600D01*
G01X18258000Y22921200D02*
Y22951200D01*
G01X18318000Y22921200D02*
X18258000D01*
G01X18318000Y22951200D02*
Y22921200D01*
G01X18258000Y22951200D02*
X18318000D01*
G01X18217600Y23569500D02*
X19111600D01*
G01X18416600Y23915100D02*
Y24040100D01*
G01X18616600Y23915100D02*
X18416600D01*
G01X18261000Y24421100D02*
Y24296100D01*
G01X18416600Y24040100D02*
X18616600D01*
G01X18189200Y27234000D02*
Y27884000D01*
G01X18539200Y27234000D02*
X18189200D01*
G01X18539200Y27884000D02*
Y27234000D01*
G01X18189200Y27654000D02*
X18419200Y27884000D01*
G01X18189200D02*
X18539200D01*
G01X18696000Y22797500D02*
Y22922500D01*
G01X18896000Y22797500D02*
X18696000D01*
G01X18896000Y22922500D02*
Y22797500D01*
G01X18696000Y22922500D02*
X18896000D01*
G01X18616600Y24040100D02*
Y23915100D01*
G01X18794400Y24421100D02*
Y24296100D01*
G01X18594400D02*
Y24421100D01*
G01X18794400Y24296100D02*
X18594400D01*
G01X18703400Y25162800D02*
Y24722800D01*
G01X18594400Y24421100D02*
X18794400D01*
G01X18638400Y25162800D02*
X18703400Y25097800D01*
G01X19111600Y23569500D02*
Y23253500D01*
G01X18918000Y23830100D02*
Y24125100D01*
G01X19080400Y23830100D02*
X18918000D01*
G01X19080400Y24125100D02*
Y23830100D01*
G01X18918000Y24030100D02*
X19013000Y24125100D01*
G01X18918000D02*
X19080400D01*
G01X19067400Y26839800D02*
Y25839800D01*
G01X19147800Y27265000D02*
Y27345000D01*
G01X19307800Y27265000D02*
X19147800D01*
G01Y27318300D02*
X19174500Y27345000D01*
G01X19147800D02*
X19307800D01*
G01X18963400Y27783000D02*
X18933400D01*
G01X18963400Y27843000D02*
Y27783000D01*
G01X18933400Y27843000D02*
X18963400D01*
G01X18933400Y27783000D02*
Y27843000D01*
G01X19343400Y23062200D02*
Y24842200D01*
G01X19873400Y23062200D02*
X19343400D01*
G01Y24842200D02*
X19873400D01*
G01X19543240Y25776160D02*
Y25806160D01*
G01X19603240Y25776160D02*
X19543240D01*
G01X19603240Y25806160D02*
Y25776160D01*
G01X19543240Y25806160D02*
X19603240D01*
G01X19543240Y25588200D02*
Y25618200D01*
G01X19603240Y25588200D02*
X19543240D01*
G01X19603240Y25618200D02*
Y25588200D01*
G01X19543240Y25618200D02*
X19603240D01*
G01X19314400Y26471400D02*
X19344400D01*
G01X19314400Y26411400D02*
Y26471400D01*
G01X19344400Y26411400D02*
X19314400D01*
G01X19344400Y26471400D02*
Y26411400D01*
G01X19620500Y26443000D02*
X19495500D01*
G01X19620500Y26643000D02*
Y26443000D01*
G01X19495500D02*
Y26643000D01*
G01X19344400Y26792400D02*
X19314400D01*
G01X19344400Y26852400D02*
Y26792400D01*
G01X19314400Y26852400D02*
X19344400D01*
G01X19314400Y26792400D02*
Y26852400D01*
G01X19495500Y26643000D02*
X19620500D01*
G01X19307800Y27345000D02*
Y27265000D01*
G01X19559600Y26912300D02*
Y27037300D01*
G01X19759600Y26912300D02*
X19559600D01*
G01Y27037300D02*
X19759600D01*
G01X19559600Y27242500D02*
Y27367500D01*
G01X19759600Y27242500D02*
X19559600D01*
G01Y27367500D02*
X19759600D01*
G01X19559600Y27572700D02*
Y27697700D01*
G01X19759600Y27572700D02*
X19559600D01*
G01Y27697700D02*
X19759600D01*
G01X19873400Y24842200D02*
Y23062200D01*
G01X19746200Y26157400D02*
Y26217400D01*
G01X19776200Y26157400D02*
X19746200D01*
G01X19776200Y26217400D02*
Y26157400D01*
G01X19746200Y26217400D02*
X19776200D01*
G01X19759600Y27037300D02*
Y26912300D01*
G01Y27367500D02*
Y27242500D01*
G01Y27697700D02*
Y27572700D01*
G01X20036000Y23251400D02*
Y23281400D01*
G01X20096000Y23251400D02*
X20036000D01*
G01X20096000Y23281400D02*
Y23251400D01*
G01X20041080Y23373320D02*
Y23403320D01*
G01X20101080Y23373320D02*
X20041080D01*
G01X20101080Y23403320D02*
Y23373320D01*
G01X20041080Y23403320D02*
X20101080D01*
G01X20036000Y23281400D02*
X20096000D01*
G01X20121400Y23891000D02*
Y23861000D01*
G01X20061400Y23891000D02*
X20121400D01*
G01X20061400Y23861000D02*
Y23891000D01*
G01X20121400Y23861000D02*
X20061400D01*
G01X20003500Y24280800D02*
X20128500D01*
G01X20003500Y24080800D02*
Y24280800D01*
G01X20128500Y24080800D02*
X20003500D01*
G01X20128500Y24280800D02*
Y24080800D01*
G54D11*
G01X16934200Y26189400D02*
Y26439400D01*
G01X17254200Y26189400D02*
X16934200D01*
G01Y26439400D02*
X17254200D01*
G01X16941600Y26872000D02*
X17201600D01*
G01X16941600Y27542000D02*
Y26872000D01*
G01X17201600Y27542000D02*
X16941600D01*
G01X17254200Y26439400D02*
Y26189400D01*
G01X17201600Y26872000D02*
Y27542000D01*
G01X19213200Y27631400D02*
Y27791400D01*
G01X19293200Y27631400D02*
X19213200D01*
G01Y27791400D02*
X19293200D01*
G01D02*
Y27631400D01*
M02*
