G04 ================== begin FILE IDENTIFICATION RECORD ==================*
G04 Layout Name:  ST-LINKV3_open.brd*
G04 Film Name:    TOP_SILK*
G04 File Format:  Gerber RS274X*
G04 File Origin:  Cadence Allegro 23.1-S005*
G04 Origin Date:  Fri Jul 26 11:07:03 2024*
G04 *
G04 Layer:  MANUFACTURING/AUTOSILK_TOP*
G04 Layer:  REF DES/SILKSCREEN_TOP*
G04 Layer:  PACKAGE GEOMETRY/SILKSCREEN_TOP*
G04 Layer:  BOARD GEOMETRY/SILKSCREEN_TOP*
G04 *
G04 Offset:    (0.0000 0.0000)*
G04 Mirror:    No*
G04 Mode:      Positive*
G04 Rotation:  0*
G04 FullContactRelief:  No*
G04 UndefLineWidth:     0.0100*
G04 ================== end FILE IDENTIFICATION RECORD ====================*
%FSTAX35Y35*MOMM*%
%IR0*IPPOS*OFA0.00000B0.00000*MIA0B0*SFA1.00000B1.00000*%
%ADD10C,.1*%
%ADD11C,.2*%
%ADD12C,.01*%
G75*
%LPD*%
G75*
G54D10*
G01X156536Y264668D02*
G03X156436I-00005J0D01*
G01D02*
G03X156536I00005J0D01*
G01X156436D02*
G03X156536I00005J0D01*
G01D02*
G03X156436I-00005J0D01*
G01X169942Y261544D02*
G02X169842I-00005J0D01*
G01D02*
G02X169942I00005J0D01*
G01D02*
G03X169842I-00005J0D01*
G01D02*
G03X169942I00005J0D01*
G01X170742Y261894D02*
X171142D01*
G01X170742Y264394D02*
X171142D01*
G01X169342Y263244D02*
Y263044D01*
G01Y263244D02*
Y263044D01*
G01X170742Y264394D02*
X171142D01*
G01X170742Y261894D02*
X171142D01*
G01X169416Y27497D02*
Y26917D01*
G01Y27497D02*
Y26917D01*
G01X172542Y263244D02*
Y263044D01*
G01Y263244D02*
Y263044D01*
G01X181546Y23495D02*
G03X181646I00005J0D01*
G01D02*
G03X181546I-00005J0D01*
G01X181646D02*
G03X181546I-00005J0D01*
G01D02*
G03X181646I00005J0D01*
G54D11*
G01X15621Y230886D02*
X15875D01*
G01X15621Y251206D02*
Y230886D01*
G01Y251206D02*
Y230886D01*
G01D02*
X15875D01*
G01X15748Y251206D02*
X15621D01*
G01X15748D02*
X15621D01*
G01X15875Y230886D02*
Y249936D01*
G01Y230886D02*
Y249936D01*
G01X159398Y230876D02*
X164698D01*
G01X159398Y246126D02*
Y230876D01*
G01Y246126D02*
Y230876D01*
G01D02*
X164698D01*
G01X163451Y253238D02*
X158621D01*
G01X163451D02*
X158621D01*
G01X163451Y265938D02*
X158621D01*
G01X163451D02*
X158621D01*
G01X164698Y248676D02*
X161798D01*
G01X164698D02*
X161798D01*
G01X164698Y230876D02*
Y248676D01*
G01Y230876D02*
Y2332134D01*
G01Y2336386D02*
Y248676D01*
G01X167015Y233372D02*
Y232972D01*
G01Y233372D02*
Y232972D01*
G01X167249Y238706D02*
Y238306D01*
G01X165999Y238706D02*
Y238306D01*
G01Y238706D02*
Y238306D01*
G01X167249Y238706D02*
Y238306D01*
G01X166524Y240506D02*
G03X166724I0001J0D01*
G01D02*
G03X166524I-0001J0D01*
G01X166724D02*
G03X166524I-0001J0D01*
G01D02*
G03X166724I0001J0D01*
G01X165999Y243386D02*
Y243786D01*
G01X167249Y243386D02*
Y243786D01*
G01X166724Y241586D02*
G03X166524I-0001J0D01*
G01D02*
G03X166724I0001J0D01*
G01X166524D02*
G03X166724I0001J0D01*
G01D02*
G03X166524I-0001J0D01*
G01X167249Y243386D02*
Y243786D01*
G01X165999Y243386D02*
Y243786D01*
G01X168265Y233372D02*
Y232972D01*
G01X16754Y235172D02*
G03X16774I0001J0D01*
G01D02*
G03X16754I-0001J0D01*
G01X16774D02*
G03X16754I-0001J0D01*
G01D02*
G03X16774I0001J0D01*
G01X168265Y233372D02*
Y232972D01*
G01X170551Y243786D02*
Y243386D01*
G01X169301Y243786D02*
Y243386D01*
G01Y243786D02*
Y243386D01*
G01X170551Y243786D02*
Y243386D01*
G01X169826Y245586D02*
G03X170026I0001J0D01*
G01D02*
G03X169826I-0001J0D01*
G01X170026D02*
G03X169826I-0001J0D01*
G01D02*
G03X170026I0001J0D01*
G01X169688Y249528D02*
X171688D01*
G01X169688Y249328D02*
Y249528D01*
G01X171688Y249328D02*
X169688D01*
G01X171688D02*
X169688D01*
G01D02*
Y249528D01*
G01D02*
X171688D01*
G01X169196Y254916D02*
G03Y255116I0J0001D01*
G01D02*
G03Y254916I0J-0001D01*
G01Y255116D02*
G03Y254916I0J-0001D01*
G01D02*
G03Y255116I0J0001D01*
G01X174276Y241454D02*
G03Y241654I0J0001D01*
G01D02*
G03Y241454I0J-0001D01*
G01Y241654D02*
G03Y241454I0J-0001D01*
G01D02*
G03Y241654I0J0001D01*
G01X174006Y249528D02*
X176006D01*
G01X174006Y249328D02*
Y249528D01*
G01X176006Y249328D02*
X174006D01*
G01X176006D02*
X174006D01*
G01D02*
Y249528D01*
G01D02*
X176006D01*
G01X171888Y250878D02*
Y249878D01*
G01X171688Y249528D02*
Y249328D01*
G01Y249528D02*
Y249328D01*
G01X171888Y250878D02*
Y249878D01*
G01X170996Y254391D02*
X171396D01*
G01X170996D02*
X171396D01*
G01Y257693D02*
X170996D01*
G01X173196Y258418D02*
G03Y258218I0J-0001D01*
G01D02*
G03Y258418I0J0001D01*
G01Y258218D02*
G03Y258418I0J0001D01*
G01D02*
G03Y258218I0J-0001D01*
G01X171396Y257693D02*
X170996D01*
G01Y255641D02*
X171396D01*
G01X170996D02*
X171396D01*
G01X174276Y254916D02*
G03Y255116I0J0001D01*
G01D02*
G03Y254916I0J-0001D01*
G01Y255116D02*
G03Y254916I0J-0001D01*
G01D02*
G03Y255116I0J0001D01*
G01X171396Y258943D02*
X170996D01*
G01X171396D02*
X170996D01*
G01X174276Y263806D02*
G03Y264006I0J0001D01*
G01D02*
G03Y263806I0J-0001D01*
G01Y264006D02*
G03Y263806I0J-0001D01*
G01D02*
G03Y264006I0J0001D01*
G01X173916Y27437D02*
G03X173816I-00005J0D01*
G01D02*
G03X173916I00005J0D01*
G01D02*
G03X173816I-00005J0D01*
G01X173916D02*
G03X173816I-00005J0D01*
G01D02*
G03X173916I00005J0D01*
G01D02*
G03X173816I-00005J0D01*
G01X175885Y235658D02*
Y235258D01*
G01X174635Y235658D02*
Y235258D01*
G01Y235658D02*
Y235258D01*
G01X175885Y235658D02*
Y235258D01*
G01X17516Y237458D02*
G03X17536I0001J0D01*
G01D02*
G03X17516I-0001J0D01*
G01X17536D02*
G03X17516I-0001J0D01*
G01D02*
G03X17536I0001J0D01*
G01X176076Y242179D02*
X176476D01*
G01X176076Y240929D02*
X176476D01*
G01X176076D02*
X176476D01*
G01X176076Y242179D02*
X176476D01*
G01X176206Y250878D02*
Y249878D01*
G01X176006Y249528D02*
Y249328D01*
G01Y249528D02*
Y249328D01*
G01X176206Y250878D02*
Y249878D01*
G01X176076Y254391D02*
X176476D01*
G01X176076D02*
X176476D01*
G01X176076Y255641D02*
X176476D01*
G01X176076D02*
X176476D01*
G01Y257693D02*
X176076D01*
G01X176476D02*
X176076D01*
G01X176476Y258943D02*
X176076D01*
G01X178276Y258418D02*
G03Y258218I0J-0001D01*
G01Y258418D02*
G03Y258218I0J-0001D01*
G01X176476Y258943D02*
X176076D01*
G01Y264531D02*
X176476D01*
G01X176076Y263281D02*
X176476D01*
G01X176076D02*
X176476D01*
G01X176076Y264531D02*
X176476D01*
G01X18181Y242961D02*
X18141D01*
G01X18181D02*
X18141D01*
G01X18181Y244211D02*
X18141D01*
G01X18181D02*
X18141D01*
G01X179234Y247578D02*
Y251278D01*
G01X187034Y247578D02*
X179234D01*
G01X187034D02*
X179234D01*
G01D02*
Y251278D01*
G01D02*
X187034D01*
G01X179234D02*
X187034D01*
G01X178276Y258218D02*
G03Y258418I0J0001D01*
G01Y258218D02*
G03Y258418I0J0001D01*
G01X180662Y258386D02*
Y267948D01*
G01X190686Y258386D02*
X180662D01*
G01X190686D02*
X180662D01*
G01D02*
Y267948D01*
G01X180762Y26841D02*
G02I-0001J0D01*
G01X180662Y267948D02*
X181124Y26841D01*
G01D02*
X190686D01*
G01X181124D02*
X190686D01*
G01X180662Y267948D02*
X181124Y26841D01*
G01X180762D02*
G03I-0001J0D01*
G01X179617Y278715D02*
X181367D01*
G01X179617D02*
X181367D01*
G01X184966Y239151D02*
X185366D01*
G01X183166Y239676D02*
G03Y239876I0J0001D01*
G01D02*
G03Y239676I0J-0001D01*
G01Y239876D02*
G03Y239676I0J-0001D01*
G01D02*
G03Y239876I0J0001D01*
G01X184966Y239151D02*
X185366D01*
G01X18361Y243686D02*
G03Y243486I0J-0001D01*
G01D02*
G03Y243686I0J0001D01*
G01Y243486D02*
G03Y243686I0J0001D01*
G01D02*
G03Y243486I0J-0001D01*
G01X184966Y240401D02*
X185366D01*
G01X184966D02*
X185366D01*
G01X181892Y27234D02*
Y27884D01*
G01X185392Y27234D02*
X181892D01*
G01X185392Y27884D02*
Y27234D01*
G01Y27884D02*
Y27234D01*
G01D02*
X181892D01*
G01D02*
Y27884D01*
G01D02*
X185392D01*
G01X181892D02*
X185392D01*
G01X18776Y227975D02*
X18816D01*
G01X18596Y2285D02*
G03Y2287I0J0001D01*
G01D02*
G03Y2285I0J-0001D01*
G01Y2287D02*
G03Y2285I0J-0001D01*
G01D02*
G03Y2287I0J0001D01*
G01X18776Y227975D02*
X18816D01*
G01X18776Y229225D02*
X18816D01*
G01X18776D02*
X18816D01*
G01X188167Y241376D02*
X189317D01*
G01X188167D02*
X189317D01*
G01X187144Y242961D02*
X186744D01*
G01X188944Y243686D02*
G03Y243486I0J-0001D01*
G01D02*
G03Y243686I0J0001D01*
G01Y243486D02*
G03Y243686I0J0001D01*
G01D02*
G03Y243486I0J-0001D01*
G01X187144Y242961D02*
X186744D01*
G01X187144Y244211D02*
X186744D01*
G01X187144D02*
X186744D01*
G01X187034Y251278D02*
Y247578D01*
G01Y251278D02*
Y247578D01*
G01X187284Y253103D02*
Y251628D01*
G01Y253103D02*
Y251628D01*
G01X189667Y238301D02*
Y241251D01*
G01X190317Y238301D02*
X189667D01*
G01X190317Y241251D02*
Y238301D01*
G01Y241251D02*
Y238301D01*
G01D02*
X189667D01*
G01D02*
Y241251D01*
G01D02*
X190317D01*
G01X189667D02*
X190317D01*
G01X190686Y26841D02*
Y258386D01*
G01Y26841D02*
Y258386D01*
G01X190678Y272225D02*
X193128D01*
G01X190678Y273875D02*
Y272225D01*
G01Y273875D02*
Y272225D01*
G01D02*
X193128D01*
G01Y273875D02*
X190678D01*
G01X193128D02*
X190678D01*
G01X192532Y278814D02*
G03Y278914I0J00005D01*
G01D02*
G03Y278814I0J-00005D01*
G01D02*
G03Y278914I0J00005D01*
G01Y278814D02*
G03Y278914I0J00005D01*
G01D02*
G03Y278814I0J-00005D01*
G01D02*
G03Y278914I0J00005D01*
G01X193434Y230622D02*
X198734D01*
G01X193434Y245872D02*
Y230622D01*
G01Y245872D02*
Y230622D01*
G01D02*
X198734D01*
G01Y248422D02*
X195834D01*
G01X198734D02*
X195834D01*
G01X194955Y26523D02*
Y26563D01*
G01X196205Y26523D02*
Y26563D01*
G01X19568Y26343D02*
G03X19548I-0001J0D01*
G01D02*
G03X19568I0001J0D01*
G01X19548D02*
G03X19568I0001J0D01*
G01D02*
G03X19548I-0001J0D01*
G01X196205Y26523D02*
Y26563D01*
G01X194955Y26523D02*
Y26563D01*
G01X196396Y269123D02*
X196796D01*
G01X196396D02*
X196796D01*
G01X196396Y270373D02*
X196796D01*
G01X194596Y269648D02*
G03Y269848I0J0001D01*
G01D02*
G03Y269648I0J-0001D01*
G01Y269848D02*
G03Y269648I0J-0001D01*
G01D02*
G03Y269848I0J0001D01*
G01X196396Y270373D02*
X196796D01*
G01X196396Y272425D02*
X196796D01*
G01X196396D02*
X196796D01*
G01X196396Y273675D02*
X196796D01*
G01X194596Y27295D02*
G03Y27315I0J0001D01*
G01D02*
G03Y27295I0J-0001D01*
G01Y27315D02*
G03Y27295I0J-0001D01*
G01D02*
G03Y27315I0J0001D01*
G01X196396Y273675D02*
X196796D01*
G01X196396Y275727D02*
X196796D01*
G01X194596Y276252D02*
G03Y276452I0J0001D01*
G01D02*
G03Y276252I0J-0001D01*
G01Y276452D02*
G03Y276252I0J-0001D01*
G01D02*
G03Y276452I0J0001D01*
G01X196396Y275727D02*
X196796D01*
G01X196396Y276977D02*
X196796D01*
G01X196396D02*
X196796D01*
G01X198734Y230622D02*
Y248422D01*
G01Y230622D02*
Y248422D01*
G01X200035Y242008D02*
Y241608D01*
G01Y242008D02*
Y241608D01*
G01X201285Y242008D02*
Y241608D01*
G01Y242008D02*
Y241608D01*
G01X20056Y243808D02*
G03X20076I0001J0D01*
G01D02*
G03X20056I-0001J0D01*
G01X20076D02*
G03X20056I-0001J0D01*
G01D02*
G03X20076I0001J0D01*
G54D12*
G01X1619555Y2460286D02*
X1618767Y2459799D01*
X1618242Y2459215D01*
X161798Y2458534D01*
X1618242Y2457755D01*
X1618767Y2457171D01*
X1619555Y2456586D01*
X1620605Y2456392D01*
X1625854D01*
G01X161798Y2449297D02*
X1625854D01*
X1620211Y2452899D01*
Y2448031D01*
G01X1628445Y2451396D02*
X1627657Y2450909D01*
X1627132Y2450325D01*
X162687Y2449644D01*
X1627132Y2448865D01*
X1627657Y2448281D01*
X1628445Y2447696D01*
X1629495Y2447502D01*
X1634744D01*
G01X162687Y2440407D02*
X1634744D01*
X1629101Y2444009D01*
Y2439141D01*
G01X1669796Y2368D02*
Y2360126D01*
X1667362D01*
X1666583Y236052D01*
X1666096Y2361045D01*
X1665902Y2362095D01*
X1666096Y2363144D01*
X1666681Y23638D01*
X1667362Y2364194D01*
X1669796D01*
G01X1667362D02*
X1665902Y2368D01*
G01X1659975D02*
Y2360126D01*
X1661143Y2361701D01*
G01Y2368D02*
X1658807D01*
G01X1650933D02*
Y2360126D01*
X1654535Y2365769D01*
X1649667D01*
G01X166624Y2384086D02*
X1674114D01*
Y2381652D01*
X167372Y2380873D01*
X1673195Y2380386D01*
X1672145Y2380192D01*
X1671096Y2380386D01*
X167044Y2380971D01*
X1670046Y2381652D01*
Y2384086D01*
G01Y2381652D02*
X166624Y2380192D01*
G01Y2374265D02*
X1674114D01*
X1672539Y2375433D01*
G01X166624D02*
Y2373097D01*
G01Y2365223D02*
X1674114D01*
X1668471Y2368825D01*
Y2363957D01*
G01X1710986Y258318D02*
Y2575306D01*
X1708552D01*
X1707773Y25757D01*
X1707286Y2576225D01*
X1707092Y2577275D01*
X1707286Y2578324D01*
X1707871Y257898D01*
X1708552Y2579374D01*
X1710986D01*
G01X1708552D02*
X1707092Y258318D01*
G01X1701165D02*
Y2575306D01*
X1702333Y2576881D01*
G01Y258318D02*
X1699997D01*
G01X1702096Y257429D02*
Y2566416D01*
X1699662D01*
X1698883Y256681D01*
X1698396Y2567335D01*
X1698202Y2568385D01*
X1698396Y2569434D01*
X1698981Y257009D01*
X1699662Y2570484D01*
X1702096D01*
G01X1699662D02*
X1698202Y257429D01*
G01X1692275D02*
Y2566416D01*
X1693443Y2567991D01*
G01Y257429D02*
X1691107D01*
G01X1712934Y255016D02*
Y2558034D01*
X1715368D01*
X1716147Y255764D01*
X1716634Y2557115D01*
X1716828Y2556065D01*
X1716634Y2555016D01*
X1716049Y255436D01*
X1715368Y2553966D01*
X1712934D01*
G01X1715368D02*
X1716828Y255016D01*
G01X1720905Y2556722D02*
X1721489Y2557509D01*
X1722171Y2557903D01*
X172295Y2558034D01*
X1723923Y2557772D01*
X1724605Y2557115D01*
X17248Y2556328D01*
X1724702Y255554D01*
X1724313Y2554884D01*
X1722366Y2553572D01*
X1721489Y2552653D01*
X1720905Y2551341D01*
X172071Y255016D01*
X17248D01*
G01X1721824Y255905D02*
Y2566924D01*
X1724258D01*
X1725037Y256653D01*
X1725524Y2566005D01*
X1725718Y2564955D01*
X1725524Y2563906D01*
X1724939Y256325D01*
X1724258Y2562856D01*
X1721824D01*
G01X1724258D02*
X1725718Y255905D01*
G01X1729795Y2565612D02*
X1730379Y2566399D01*
X1731061Y2566793D01*
X173184Y2566924D01*
X1732813Y2566662D01*
X1733495Y2566005D01*
X173369Y2565218D01*
X1733592Y256443D01*
X1733203Y2563774D01*
X1731256Y2562462D01*
X1730379Y2561543D01*
X1729795Y2560231D01*
X17296Y255905D01*
X173369D01*
G01X1761786Y258318D02*
Y2575306D01*
X1759352D01*
X1758573Y25757D01*
X1758086Y2576225D01*
X1757892Y2577275D01*
X1758086Y2578324D01*
X1758671Y257898D01*
X1759352Y2579374D01*
X1761786D01*
G01X1759352D02*
X1757892Y258318D01*
G01X1751965D02*
Y2575306D01*
X1753133Y2576881D01*
G01Y258318D02*
X1750797D01*
G01X1744091D02*
Y2575306D01*
X1745259Y2576881D01*
G01Y258318D02*
X1742923D01*
G01X1752896Y257429D02*
Y2566416D01*
X1750462D01*
X1749683Y256681D01*
X1749196Y2567335D01*
X1749002Y2568385D01*
X1749196Y2569434D01*
X1749781Y257009D01*
X1750462Y2570484D01*
X1752896D01*
G01X1750462D02*
X1749002Y257429D01*
G01X1743075D02*
Y2566416D01*
X1744243Y2567991D01*
G01Y257429D02*
X1741907D01*
G01X1735201D02*
Y2566416D01*
X1736369Y2567991D01*
G01Y257429D02*
X1734033D01*
G01X1730121Y261228D02*
Y2615823D01*
X1728174Y2620154D01*
G01X1732068D02*
X1730121Y2615823D01*
G01X1737995Y261228D02*
Y2620154D01*
X1736827Y2618579D01*
G01Y261228D02*
X1739163D01*
G01X1712341Y263006D02*
Y2633603D01*
X1710394Y2637934D01*
G01X1714288D02*
X1712341Y2633603D01*
G01X1720215Y263006D02*
Y2637934D01*
X1719047Y2636359D01*
G01Y263006D02*
X1721383D01*
G01X177982Y2419096D02*
X1787694D01*
Y2416662D01*
X17873Y2415883D01*
X1786775Y2415396D01*
X1785725Y2415202D01*
X1784676Y2415396D01*
X178402Y2415981D01*
X1783626Y2416662D01*
Y2419096D01*
G01Y2416662D02*
X177982Y2415202D01*
G01Y2409275D02*
X1787694D01*
X1786119Y2410443D01*
G01X177982D02*
Y2408107D01*
G01X1780738Y2403056D02*
X1780082Y2402375D01*
X177982Y2401596D01*
X1780082Y2400817D01*
X178087Y2400135D01*
X1782051Y2399648D01*
X1783232Y2399454D01*
X1784676D01*
X1785857Y2399648D01*
X1786907Y2400135D01*
X1787432Y2400719D01*
X1787694Y2401401D01*
X1787432Y240218D01*
X1786907Y2402764D01*
X1786119Y2403154D01*
X1785069Y2403348D01*
X1784151Y2403154D01*
X1783232Y2402667D01*
X1782707Y2402083D01*
X1782576Y2401401D01*
X1782838Y2400622D01*
X1783494Y2400038D01*
X1784676Y2399454D01*
G01X1763734Y241554D02*
Y2423414D01*
X1766168D01*
X1766947Y242302D01*
X1767434Y2422495D01*
X1767628Y2421445D01*
X1767434Y2420396D01*
X1766849Y241974D01*
X1766168Y2419346D01*
X1763734D01*
G01X1766168D02*
X1767628Y241554D01*
G01X1773555D02*
Y2423414D01*
X1772387Y2421839D01*
G01Y241554D02*
X1774723D01*
G01X1779774Y2416458D02*
X1780455Y2415802D01*
X1781234Y241554D01*
X1782013Y2415802D01*
X1782695Y241659D01*
X1783182Y2417771D01*
X1783376Y2418952D01*
Y2420396D01*
X1783182Y2421577D01*
X1782695Y2422627D01*
X1782111Y2423152D01*
X1781429Y2423414D01*
X178065Y2423152D01*
X1780066Y2422627D01*
X1779676Y2421839D01*
X1779482Y2420789D01*
X1779676Y2419871D01*
X1780163Y2418952D01*
X1780747Y2418427D01*
X1781429Y2418296D01*
X1782208Y2418558D01*
X1782792Y2419214D01*
X1783376Y2420396D01*
G01X1763734Y255016D02*
Y2558034D01*
X1766168D01*
X1766947Y255764D01*
X1767434Y2557115D01*
X1767628Y2556065D01*
X1767434Y2555016D01*
X1766849Y255436D01*
X1766168Y2553966D01*
X1763734D01*
G01X1766168D02*
X1767628Y255016D01*
G01X1771413Y2551735D02*
X1771997Y2550816D01*
X1772776Y2550291D01*
X1773652Y255016D01*
X1774431Y2550291D01*
X177521Y2550947D01*
X1775697Y2551735D01*
X1775794Y2552522D01*
X17756Y2553441D01*
X1774918Y2554097D01*
X1774237Y255436D01*
X177336D01*
G01X1774237D02*
X1774821Y2554753D01*
X1775308Y2555409D01*
X1775502Y2556197D01*
X1775308Y2556984D01*
X1774821Y255764D01*
X1773944Y2558034D01*
X1773068Y2557903D01*
X1772192Y2557378D01*
G01X1772624Y255905D02*
Y2566924D01*
X1775058D01*
X1775837Y256653D01*
X1776324Y2566005D01*
X1776518Y2564955D01*
X1776324Y2563906D01*
X1775739Y256325D01*
X1775058Y2562856D01*
X1772624D01*
G01X1775058D02*
X1776518Y255905D01*
G01X1780303Y2560625D02*
X1780887Y2559706D01*
X1781666Y2559181D01*
X1782542Y255905D01*
X1783321Y2559181D01*
X17841Y2559837D01*
X1784587Y2560625D01*
X1784684Y2561412D01*
X178449Y2562331D01*
X1783808Y2562987D01*
X1783127Y256325D01*
X178225D01*
G01X1783127D02*
X1783711Y2563643D01*
X1784198Y2564299D01*
X1784392Y2565087D01*
X1784198Y2565874D01*
X1783711Y256653D01*
X1782834Y2566924D01*
X1781958Y2566793D01*
X1781082Y2566268D01*
G01X1815126Y243586D02*
Y2427986D01*
X1812692D01*
X1811913Y242838D01*
X1811426Y2428905D01*
X1811232Y2429955D01*
X1811426Y2431004D01*
X1812011Y243166D01*
X1812692Y2432054D01*
X1815126D01*
G01X1812692D02*
X1811232Y243586D01*
G01X18055D02*
X1805305Y2434154D01*
X1805013Y2432711D01*
X1804623Y2431398D01*
X1804137Y2429955D01*
X1803358Y2427986D01*
X1807252D01*
G01X1806236Y242697D02*
Y2419096D01*
X1803802D01*
X1803023Y241949D01*
X1802536Y2420015D01*
X1802342Y2421065D01*
X1802536Y2422114D01*
X1803121Y242277D01*
X1803802Y2423164D01*
X1806236D01*
G01X1803802D02*
X1802342Y242697D01*
G01X179661D02*
X1796415Y2425264D01*
X1796123Y2423821D01*
X1795733Y2422508D01*
X1795247Y2421065D01*
X1794468Y2419096D01*
X1798362D01*
G01X1839934Y2351075D02*
X1840421Y2350287D01*
X1841005Y2349762D01*
X1841686Y23495D01*
X1842465Y2349762D01*
X1843049Y2350287D01*
X1843634Y2351075D01*
X1843828Y2352125D01*
Y2357374D01*
G01X1847905Y2356062D02*
X1848489Y2356849D01*
X1849171Y2357243D01*
X184995Y2357374D01*
X1850923Y2357112D01*
X1851605Y2356455D01*
X18518Y2355668D01*
X1851702Y235488D01*
X1851313Y2354224D01*
X1849366Y2352912D01*
X1848489Y2351993D01*
X1847905Y2350681D01*
X184771Y23495D01*
X18518D01*
G01X1844768Y2358009D02*
X184398Y2357522D01*
X1843455Y2356938D01*
X1843193Y2356257D01*
X1843455Y2355478D01*
X184398Y2354894D01*
X1844768Y2354309D01*
X1845818Y2354115D01*
X1851067D01*
G01X1849755Y2350038D02*
X1850542Y2349454D01*
X1850936Y2348772D01*
X1851067Y2347993D01*
X1850805Y234702D01*
X1850148Y2346338D01*
X1849361Y2346143D01*
X1848573Y2346241D01*
X1847917Y234663D01*
X1846605Y2348577D01*
X1845686Y2349454D01*
X1844374Y2350038D01*
X1843193Y2350233D01*
Y2346143D01*
G01X1859576Y242697D02*
Y2419096D01*
X1857142D01*
X1856363Y241949D01*
X1855876Y2420015D01*
X1855682Y2421065D01*
X1855876Y2422114D01*
X1856461Y242277D01*
X1857142Y2423164D01*
X1859576D01*
G01X1857142D02*
X1855682Y242697D01*
G01X1848587D02*
Y2419096D01*
X1852189Y2424739D01*
X1847321D01*
G01X1880574Y2286D02*
Y2293874D01*
X1883008D01*
X1883787Y229348D01*
X1884274Y2292955D01*
X1884468Y2291905D01*
X1884274Y2290856D01*
X1883689Y22902D01*
X1883008Y2289806D01*
X1880574D01*
G01X1883008D02*
X1884468Y2286D01*
G01X188874Y2286918D02*
X1889421Y2286262D01*
X18902Y2286D01*
X1890979Y2286262D01*
X1891661Y228705D01*
X1892148Y2288231D01*
X1892342Y2289412D01*
Y2290856D01*
X1892148Y2292037D01*
X1891661Y2293087D01*
X1891077Y2293612D01*
X1890395Y2293874D01*
X1889616Y2293612D01*
X1889032Y2293087D01*
X1888642Y2292299D01*
X1888448Y2291249D01*
X1888642Y2290331D01*
X1889129Y2289412D01*
X1889713Y2288887D01*
X1890395Y2288756D01*
X1891174Y2289018D01*
X1891758Y2289674D01*
X1892342Y2290856D01*
G01X1889464Y229489D02*
Y2302764D01*
X1891898D01*
X1892677Y230237D01*
X1893164Y2301845D01*
X1893358Y2300795D01*
X1893164Y2299746D01*
X1892579Y229909D01*
X1891898Y2298696D01*
X1889464D01*
G01X1891898D02*
X1893358Y229489D01*
G01X189763Y2295808D02*
X1898311Y2295152D01*
X189909Y229489D01*
X1899869Y2295152D01*
X1900551Y229594D01*
X1901038Y2297121D01*
X1901232Y2298302D01*
Y2299746D01*
X1901038Y2300927D01*
X1900551Y2301977D01*
X1899967Y2302502D01*
X1899285Y2302764D01*
X1898506Y2302502D01*
X1897922Y2301977D01*
X1897532Y2301189D01*
X1897338Y2300139D01*
X1897532Y2299221D01*
X1898019Y2298302D01*
X1898603Y2297777D01*
X1899285Y2297646D01*
X1900064Y2297908D01*
X1900648Y2298564D01*
X1901232Y2299746D01*
G01X1868466Y243586D02*
Y2427986D01*
X1866032D01*
X1865253Y242838D01*
X1864766Y2428905D01*
X1864572Y2429955D01*
X1864766Y2431004D01*
X1865351Y243166D01*
X1866032Y2432054D01*
X1868466D01*
G01X1866032D02*
X1864572Y243586D01*
G01X1857477D02*
Y2427986D01*
X1861079Y2433629D01*
X1856211D01*
G01X1959915Y2457746D02*
X1959127Y2457259D01*
X1958602Y2456675D01*
X195834Y2455994D01*
X1958602Y2455215D01*
X1959127Y2454631D01*
X1959915Y2454046D01*
X1960965Y2453852D01*
X1966214D01*
G01X195834Y2447925D02*
X1966214D01*
X1964639Y2449093D01*
G01X195834D02*
Y2446757D01*
G01X1968805Y2448856D02*
X1968017Y2448369D01*
X1967492Y2447785D01*
X196723Y2447104D01*
X1967492Y2446325D01*
X1968017Y2445741D01*
X1968805Y2445156D01*
X1969855Y2444962D01*
X1975104D01*
G01X196723Y2439035D02*
X1975104D01*
X1973529Y2440203D01*
G01X196723D02*
Y2437867D01*
G01X1966934Y269748D02*
Y2705354D01*
X1969368D01*
X1970147Y270496D01*
X1970634Y2704435D01*
X1970828Y2703385D01*
X1970634Y2702336D01*
X1970049Y270168D01*
X1969368Y2701286D01*
X1966934D01*
G01X1969368D02*
X1970828Y269748D01*
G01X1974613Y2698661D02*
X1975197Y2698005D01*
X1975879Y2697611D01*
X1976755Y269748D01*
X1977631Y2697742D01*
X1978313Y2698267D01*
X19788Y2699186D01*
X1978897Y2700236D01*
X1978702Y2701286D01*
X1978215Y2701942D01*
X1977534Y2702467D01*
X1976852Y2702598D01*
X1976171Y2702467D01*
X1975295Y2701942D01*
X1975587Y2705354D01*
X1978215D01*
G01X1975824Y270637D02*
Y2714244D01*
X1978258D01*
X1979037Y271385D01*
X1979524Y2713325D01*
X1979718Y2712275D01*
X1979524Y2711226D01*
X1978939Y271057D01*
X1978258Y2710176D01*
X1975824D01*
G01X1978258D02*
X1979718Y270637D01*
G01X1983503Y2707551D02*
X1984087Y2706895D01*
X1984769Y2706501D01*
X1985645Y270637D01*
X1986521Y2706632D01*
X1987203Y2707157D01*
X198769Y2708076D01*
X1987787Y2709126D01*
X1987592Y2710176D01*
X1987105Y2710832D01*
X1986424Y2711357D01*
X1985742Y2711488D01*
X1985061Y2711357D01*
X1984185Y2710832D01*
X1984477Y2714244D01*
X1987105D01*
G01X201549Y2408216D02*
X2023364D01*
Y2405782D01*
X202297Y2405003D01*
X2022445Y2404516D01*
X2021395Y2404322D01*
X2020346Y2404516D01*
X201969Y2405101D01*
X2019296Y2405782D01*
Y2408216D01*
G01Y2405782D02*
X201549Y2404322D01*
G01X2018771Y2400245D02*
X201969Y2399563D01*
X2020214Y2398979D01*
X2020477Y23982D01*
X2020214Y2397519D01*
X201969Y2397032D01*
X2018902Y2396642D01*
X2017983Y2396545D01*
X2017196Y2396642D01*
X2016408Y2397032D01*
X2015752Y2397616D01*
X201549Y2398298D01*
X2015752Y2399077D01*
X201654Y2399758D01*
X2017721Y2400148D01*
X2019033Y2400245D01*
X2020739Y240005D01*
X2021658Y2399758D01*
X2022577Y2399271D01*
X2023233Y239859D01*
X2023364Y2397908D01*
X2023102Y2397227D01*
X2022445Y239674D01*
G01X20066Y2417106D02*
X2014474D01*
Y2414672D01*
X201408Y2413893D01*
X2013555Y2413406D01*
X2012505Y2413212D01*
X2011456Y2413406D01*
X20108Y2413991D01*
X2010406Y2414672D01*
Y2417106D01*
G01Y2414672D02*
X20066Y2413212D01*
G01X2009881Y2409135D02*
X20108Y2408453D01*
X2011324Y2407869D01*
X2011587Y240709D01*
X2011324Y2406409D01*
X20108Y2405922D01*
X2010012Y2405532D01*
X2009093Y2405435D01*
X2008306Y2405532D01*
X2007518Y2405922D01*
X2006862Y2406506D01*
X20066Y2407188D01*
X2006862Y2407967D01*
X200765Y2408648D01*
X2008831Y2409038D01*
X2010143Y2409135D01*
X2011849Y240894D01*
X2012768Y2408648D01*
X2013687Y2408161D01*
X2014343Y240748D01*
X2014474Y2406798D01*
X2014212Y2406117D01*
X2013555Y240563D01*
M02*
