G04 ================== begin FILE IDENTIFICATION RECORD ==================*
G04 Layout Name:  ST-LINKV3_open.brd*
G04 Film Name:    TOP_SILK*
G04 File Format:  Gerber RS274X*
G04 File Origin:  Cadence Allegro 23.1-S005*
G04 Origin Date:  Fri Jul 26 10:50:19 2024*
G04 *
G04 Layer:  MANUFACTURING/AUTOSILK_TOP*
G04 Layer:  REF DES/SILKSCREEN_TOP*
G04 Layer:  PACKAGE GEOMETRY/SILKSCREEN_TOP*
G04 Layer:  BOARD GEOMETRY/SILKSCREEN_TOP*
G04 *
G04 Offset:    (0.0000 0.0000)*
G04 Mirror:    No*
G04 Mode:      Positive*
G04 Rotation:  0*
G04 FullContactRelief:  No*
G04 UndefLineWidth:     0.0000*
G04 ================== end FILE IDENTIFICATION RECORD ====================*
%FSTAX35Y35*MOMM*%
%IR0*IPPOS*OFA0.00000B0.00000*MIA0B0*SFA1.00000B1.00000*%
%ADD10C,.1*%
%ADD11C,.2*%
G75*
%LPD*%
G75*
G54D10*
G01X156536Y264668D02*
G03X156436I-00005J0D01*
G01D02*
G03X156536I00005J0D01*
G01X156436D02*
G03X156536I00005J0D01*
G01D02*
G03X156436I-00005J0D01*
G01X169942Y261544D02*
G02X169842I-00005J0D01*
G01D02*
G02X169942I00005J0D01*
G01D02*
G03X169842I-00005J0D01*
G01D02*
G03X169942I00005J0D01*
G01X170742Y261894D02*
X171142D01*
G01X170742Y264394D02*
X171142D01*
G01X169342Y263244D02*
Y263044D01*
G01Y263244D02*
Y263044D01*
G01X170742Y264394D02*
X171142D01*
G01X170742Y261894D02*
X171142D01*
G01X169416Y27497D02*
Y26917D01*
G01Y27497D02*
Y26917D01*
G01X172542Y263244D02*
Y263044D01*
G01Y263244D02*
Y263044D01*
G01X181546Y23495D02*
G03X181646I00005J0D01*
G01D02*
G03X181546I-00005J0D01*
G01X181646D02*
G03X181546I-00005J0D01*
G01D02*
G03X181646I00005J0D01*
G54D11*
G01X15621Y230886D02*
X15875D01*
G01X15621Y251206D02*
Y230886D01*
G01Y251206D02*
Y230886D01*
G01D02*
X15875D01*
G01X15748Y251206D02*
X15621D01*
G01X15748D02*
X15621D01*
G01X15875Y230886D02*
Y249936D01*
G01Y230886D02*
Y249936D01*
G01X159398Y230876D02*
X164698D01*
G01X159398Y246126D02*
Y230876D01*
G01Y246126D02*
Y230876D01*
G01D02*
X164698D01*
G01X163451Y253238D02*
X158621D01*
G01X163451D02*
X158621D01*
G01X163451Y265938D02*
X158621D01*
G01X163451D02*
X158621D01*
G01X164698Y248676D02*
X161798D01*
G01X164698D02*
X161798D01*
G01X164698Y230876D02*
Y248676D01*
G01Y230876D02*
Y2333789D01*
G01Y2334731D02*
Y248676D01*
G01X167015Y233372D02*
Y232972D01*
G01Y233372D02*
Y232972D01*
G01X167249Y238706D02*
Y238306D01*
G01X165999Y238706D02*
Y238306D01*
G01Y238706D02*
Y238306D01*
G01X167249Y238706D02*
Y238306D01*
G01X166524Y240506D02*
G03X166724I0001J0D01*
G01D02*
G03X166524I-0001J0D01*
G01X166724D02*
G03X166524I-0001J0D01*
G01D02*
G03X166724I0001J0D01*
G01X165999Y243386D02*
Y243786D01*
G01X167249Y243386D02*
Y243786D01*
G01X166724Y241586D02*
G03X166524I-0001J0D01*
G01D02*
G03X166724I0001J0D01*
G01X166524D02*
G03X166724I0001J0D01*
G01D02*
G03X166524I-0001J0D01*
G01X167249Y243386D02*
Y243786D01*
G01X165999Y243386D02*
Y243786D01*
G01X168265Y233372D02*
Y232972D01*
G01X16754Y235172D02*
G03X16774I0001J0D01*
G01D02*
G03X16754I-0001J0D01*
G01X16774D02*
G03X16754I-0001J0D01*
G01D02*
G03X16774I0001J0D01*
G01X168265Y233372D02*
Y232972D01*
G01X170551Y243786D02*
Y243386D01*
G01X169301Y243786D02*
Y243386D01*
G01Y243786D02*
Y243386D01*
G01X170551Y243786D02*
Y243386D01*
G01X169826Y245586D02*
G03X170026I0001J0D01*
G01D02*
G03X169826I-0001J0D01*
G01X170026D02*
G03X169826I-0001J0D01*
G01D02*
G03X170026I0001J0D01*
G01X169688Y249528D02*
X171688D01*
G01X169688Y249328D02*
Y249528D01*
G01X171688Y249328D02*
X169688D01*
G01X171688D02*
X169688D01*
G01D02*
Y249528D01*
G01D02*
X171688D01*
G01X169196Y254916D02*
G03Y255116I0J0001D01*
G01D02*
G03Y254916I0J-0001D01*
G01Y255116D02*
G03Y254916I0J-0001D01*
G01D02*
G03Y255116I0J0001D01*
G01X174276Y241454D02*
G03Y241654I0J0001D01*
G01D02*
G03Y241454I0J-0001D01*
G01Y241654D02*
G03Y241454I0J-0001D01*
G01D02*
G03Y241654I0J0001D01*
G01X174006Y249528D02*
X176006D01*
G01X174006Y249328D02*
Y249528D01*
G01X176006Y249328D02*
X174006D01*
G01X176006D02*
X174006D01*
G01D02*
Y249528D01*
G01D02*
X176006D01*
G01X171888Y250878D02*
Y249878D01*
G01X171688Y249528D02*
Y249328D01*
G01Y249528D02*
Y249328D01*
G01X171888Y250878D02*
Y249878D01*
G01X170996Y254391D02*
X171396D01*
G01X170996D02*
X171396D01*
G01Y257693D02*
X170996D01*
G01X173196Y258418D02*
G03Y258218I0J-0001D01*
G01D02*
G03Y258418I0J0001D01*
G01Y258218D02*
G03Y258418I0J0001D01*
G01D02*
G03Y258218I0J-0001D01*
G01X171396Y257693D02*
X170996D01*
G01Y255641D02*
X171396D01*
G01X170996D02*
X171396D01*
G01X174276Y254916D02*
G03Y255116I0J0001D01*
G01D02*
G03Y254916I0J-0001D01*
G01Y255116D02*
G03Y254916I0J-0001D01*
G01D02*
G03Y255116I0J0001D01*
G01X171396Y258943D02*
X170996D01*
G01X171396D02*
X170996D01*
G01X174276Y263806D02*
G03Y264006I0J0001D01*
G01D02*
G03Y263806I0J-0001D01*
G01Y264006D02*
G03Y263806I0J-0001D01*
G01D02*
G03Y264006I0J0001D01*
G01X173916Y27437D02*
G03X173816I-00005J0D01*
G01D02*
G03X173916I00005J0D01*
G01D02*
G03X173816I-00005J0D01*
G01X173916D02*
G03X173816I-00005J0D01*
G01D02*
G03X173916I00005J0D01*
G01D02*
G03X173816I-00005J0D01*
G01X175885Y235658D02*
Y235258D01*
G01X174635Y235658D02*
Y235258D01*
G01Y235658D02*
Y235258D01*
G01X175885Y235658D02*
Y235258D01*
G01X17516Y237458D02*
G03X17536I0001J0D01*
G01D02*
G03X17516I-0001J0D01*
G01X17536D02*
G03X17516I-0001J0D01*
G01D02*
G03X17536I0001J0D01*
G01X176076Y242179D02*
X176476D01*
G01X176076Y240929D02*
X176476D01*
G01X176076D02*
X176476D01*
G01X176076Y242179D02*
X176476D01*
G01X176206Y250878D02*
Y249878D01*
G01X176006Y249528D02*
Y249328D01*
G01Y249528D02*
Y249328D01*
G01X176206Y250878D02*
Y249878D01*
G01X176076Y254391D02*
X176476D01*
G01X176076D02*
X176476D01*
G01X176076Y255641D02*
X176476D01*
G01X176076D02*
X176476D01*
G01Y257693D02*
X176076D01*
G01X176476D02*
X176076D01*
G01X176476Y258943D02*
X176076D01*
G01X178276Y258418D02*
G03Y258218I0J-0001D01*
G01Y258418D02*
G03Y258218I0J-0001D01*
G01X176476Y258943D02*
X176076D01*
G01Y264531D02*
X176476D01*
G01X176076Y263281D02*
X176476D01*
G01X176076D02*
X176476D01*
G01X176076Y264531D02*
X176476D01*
G01X18181Y242961D02*
X18141D01*
G01X18181D02*
X18141D01*
G01X18181Y244211D02*
X18141D01*
G01X18181D02*
X18141D01*
G01X179234Y247578D02*
Y251278D01*
G01X187034Y247578D02*
X179234D01*
G01X187034D02*
X179234D01*
G01D02*
Y251278D01*
G01D02*
X187034D01*
G01X179234D02*
X187034D01*
G01X178276Y258218D02*
G03Y258418I0J0001D01*
G01Y258218D02*
G03Y258418I0J0001D01*
G01X180662Y258386D02*
Y267948D01*
G01X190686Y258386D02*
X180662D01*
G01X190686D02*
X180662D01*
G01D02*
Y267948D01*
G01X180762Y26841D02*
G02I-0001J0D01*
G01X180662Y267948D02*
X181124Y26841D01*
G01D02*
X190686D01*
G01X181124D02*
X190686D01*
G01X180662Y267948D02*
X181124Y26841D01*
G01X180762D02*
G03I-0001J0D01*
G01X179617Y278715D02*
X181367D01*
G01X179617D02*
X181367D01*
G01X184966Y239151D02*
X185366D01*
G01X183166Y239676D02*
G03Y239876I0J0001D01*
G01D02*
G03Y239676I0J-0001D01*
G01Y239876D02*
G03Y239676I0J-0001D01*
G01D02*
G03Y239876I0J0001D01*
G01X184966Y239151D02*
X185366D01*
G01X18361Y243686D02*
G03Y243486I0J-0001D01*
G01D02*
G03Y243686I0J0001D01*
G01Y243486D02*
G03Y243686I0J0001D01*
G01D02*
G03Y243486I0J-0001D01*
G01X184966Y240401D02*
X185366D01*
G01X184966D02*
X185366D01*
G01X181892Y27234D02*
Y27884D01*
G01X185392Y27234D02*
X181892D01*
G01X185392Y27884D02*
Y27234D01*
G01Y27884D02*
Y27234D01*
G01D02*
X181892D01*
G01D02*
Y27884D01*
G01D02*
X185392D01*
G01X181892D02*
X185392D01*
G01X18776Y227975D02*
X18816D01*
G01X18596Y2285D02*
G03Y2287I0J0001D01*
G01D02*
G03Y2285I0J-0001D01*
G01Y2287D02*
G03Y2285I0J-0001D01*
G01D02*
G03Y2287I0J0001D01*
G01X18776Y227975D02*
X18816D01*
G01X18776Y229225D02*
X18816D01*
G01X18776D02*
X18816D01*
G01X188167Y241376D02*
X189317D01*
G01X188167D02*
X189317D01*
G01X187144Y242961D02*
X186744D01*
G01X188944Y243686D02*
G03Y243486I0J-0001D01*
G01D02*
G03Y243686I0J0001D01*
G01Y243486D02*
G03Y243686I0J0001D01*
G01D02*
G03Y243486I0J-0001D01*
G01X187144Y242961D02*
X186744D01*
G01X187144Y244211D02*
X186744D01*
G01X187144D02*
X186744D01*
G01X187034Y251278D02*
Y247578D01*
G01Y251278D02*
Y247578D01*
G01X187284Y253103D02*
Y251628D01*
G01Y253103D02*
Y251628D01*
G01X189667Y238301D02*
Y241251D01*
G01X190317Y238301D02*
X189667D01*
G01X190317Y241251D02*
Y238301D01*
G01Y241251D02*
Y238301D01*
G01D02*
X189667D01*
G01D02*
Y241251D01*
G01D02*
X190317D01*
G01X189667D02*
X190317D01*
G01X190686Y26841D02*
Y258386D01*
G01Y26841D02*
Y258386D01*
G01X190678Y272225D02*
X193128D01*
G01X190678Y273875D02*
Y272225D01*
G01Y273875D02*
Y272225D01*
G01D02*
X193128D01*
G01Y273875D02*
X190678D01*
G01X193128D02*
X190678D01*
G01X192532Y278814D02*
G03Y278914I0J00005D01*
G01D02*
G03Y278814I0J-00005D01*
G01D02*
G03Y278914I0J00005D01*
G01Y278814D02*
G03Y278914I0J00005D01*
G01D02*
G03Y278814I0J-00005D01*
G01D02*
G03Y278914I0J00005D01*
G01X193434Y230622D02*
X198734D01*
G01X193434Y245872D02*
Y230622D01*
G01Y245872D02*
Y230622D01*
G01D02*
X198734D01*
G01Y248422D02*
X195834D01*
G01X198734D02*
X195834D01*
G01X194955Y26523D02*
Y26563D01*
G01X196205Y26523D02*
Y26563D01*
G01X19568Y26343D02*
G03X19548I-0001J0D01*
G01D02*
G03X19568I0001J0D01*
G01X19548D02*
G03X19568I0001J0D01*
G01D02*
G03X19548I-0001J0D01*
G01X196205Y26523D02*
Y26563D01*
G01X194955Y26523D02*
Y26563D01*
G01X196396Y269123D02*
X196796D01*
G01X196396D02*
X196796D01*
G01X196396Y270373D02*
X196796D01*
G01X194596Y269648D02*
G03Y269848I0J0001D01*
G01D02*
G03Y269648I0J-0001D01*
G01Y269848D02*
G03Y269648I0J-0001D01*
G01D02*
G03Y269848I0J0001D01*
G01X196396Y270373D02*
X196796D01*
G01X196396Y272425D02*
X196796D01*
G01X196396D02*
X196796D01*
G01X196396Y273675D02*
X196796D01*
G01X194596Y27295D02*
G03Y27315I0J0001D01*
G01D02*
G03Y27295I0J-0001D01*
G01Y27315D02*
G03Y27295I0J-0001D01*
G01D02*
G03Y27315I0J0001D01*
G01X196396Y273675D02*
X196796D01*
G01X196396Y275727D02*
X196796D01*
G01X194596Y276252D02*
G03Y276452I0J0001D01*
G01D02*
G03Y276252I0J-0001D01*
G01Y276452D02*
G03Y276252I0J-0001D01*
G01D02*
G03Y276452I0J0001D01*
G01X196396Y275727D02*
X196796D01*
G01X196396Y276977D02*
X196796D01*
G01X196396D02*
X196796D01*
G01X198734Y230622D02*
Y248422D01*
G01Y230622D02*
Y248422D01*
G01X200035Y242008D02*
Y241608D01*
G01Y242008D02*
Y241608D01*
G01X201285Y242008D02*
Y241608D01*
G01Y242008D02*
Y241608D01*
G01X20056Y243808D02*
G03X20076I0001J0D01*
G01D02*
G03X20056I-0001J0D01*
G01X20076D02*
G03X20056I-0001J0D01*
G01D02*
G03X20076I0001J0D01*
M02*
