G04 ================== begin FILE IDENTIFICATION RECORD ==================*
G04 Layout Name:  ST-LINKV3_open.brd*
G04 Film Name:    TOP_SOLDER*
G04 File Format:  Gerber RS274X*
G04 File Origin:  Cadence Allegro 23.1-S005*
G04 Origin Date:  Fri Jul 26 11:07:03 2024*
G04 *
G04 Layer:  VIA CLASS/SOLDERMASK_TOP*
G04 Layer:  PIN/SOLDERMASK_TOP*
G04 Layer:  PACKAGE GEOMETRY/SOLDERMASK_TOP*
G04 *
G04 Offset:    (0.0000 0.0000)*
G04 Mirror:    No*
G04 Mode:      Positive*
G04 Rotation:  0*
G04 FullContactRelief:  No*
G04 UndefLineWidth:     0.0000*
G04 ================== end FILE IDENTIFICATION RECORD ====================*
%FSTAX35Y35*MOMM*%
%IR0*IPPOS*OFA0.00000B0.00000*MIA0B0*SFA1.00000B1.00000*%
%ADD16R,.8001X1.*%
%ADD17R,1.5001X.7*%
%ADD19R,1.7501X.95*%
%ADD18R,.4501X1.475*%
%ADD15R,1.3X1.1001*%
%ADD10R,2.54X1.27*%
%ADD11C,1.65*%
%ADD14R,1.1501X1.1501*%
%ADD13C,1.1176*%
%ADD12R,1.65X1.65*%
%ADD20R,.3X.8499*%
%ADD21R,1.7501X3.1999*%
%LPD*%
G75*
G54D10*
X158306Y254508D03*
Y257048D03*
Y259588D03*
Y262128D03*
Y264668D03*
X163766Y254508D03*
Y257048D03*
Y259588D03*
Y262128D03*
Y264668D03*
G54D20*
X183896Y23328D03*
X185396D03*
Y23495D03*
X183896D03*
X185896Y23328D03*
X186396D03*
X186896D03*
X187396D03*
X187896D03*
Y23495D03*
X187396D03*
X186896D03*
X186396D03*
X185896D03*
X189396Y23328D03*
Y23495D03*
G54D11*
X161798Y233426D03*
Y235966D03*
Y238506D03*
Y241046D03*
Y243586D03*
X195834Y233172D03*
Y235712D03*
Y238252D03*
Y240792D03*
Y243332D03*
G54D21*
X186792Y27559D03*
G54D12*
X161798Y246126D03*
X195834Y245872D03*
G54D13*
X162814Y250698D03*
X161798Y249936D03*
X1651Y233426D03*
X165354Y249174D03*
X167386Y254762D03*
X165608Y25146D03*
X167132Y259842D03*
X170434Y232156D03*
X171196Y236728D03*
X169418D03*
X171196Y239268D03*
X168656Y238506D03*
X169418Y24003D03*
X168082Y242636D03*
X171196Y241046D03*
X169164Y246888D03*
X168656Y250444D03*
X169418Y252476D03*
X167894Y253492D03*
Y258318D03*
Y256794D03*
X172212Y232156D03*
Y244602D03*
X173228Y24638D03*
X172974Y249428D03*
X175006Y26162D03*
X174244Y27305D03*
X17526Y231648D03*
X177038Y239014D03*
X17526D03*
X176784Y24638D03*
X177038Y24511D03*
X178054Y24638D03*
Y26162D03*
X177292Y265684D03*
X178054Y262636D03*
X175768Y26797D03*
X18034Y235966D03*
X178816D03*
X181356Y239522D03*
X178816Y244602D03*
X18161Y254254D03*
X18034Y255016D03*
X180086Y257302D03*
X178816Y265684D03*
Y267208D03*
X1844195Y2281075D03*
X18288Y25019D03*
X185409Y254243D03*
X183134Y254254D03*
X182372Y256794D03*
X185166D03*
X185409Y270245D03*
X186182Y232156D03*
Y237998D03*
X187198Y23876D03*
X188976Y24638D03*
X186436Y255016D03*
X188722Y252222D03*
Y256794D03*
X186436Y256286D03*
X188214Y27051D03*
X186436Y271018D03*
X191516Y2286D03*
X191262Y25654D03*
Y260096D03*
Y261366D03*
Y26289D03*
X189738Y271526D03*
X193294Y260096D03*
Y261366D03*
Y26289D03*
Y266446D03*
X1999198Y2372142D03*
X197612Y2579116D03*
X202438Y231902D03*
X20066Y245872D03*
G54D14*
X16764Y232222D03*
Y234122D03*
X166624Y237556D03*
Y239456D03*
Y242636D03*
Y244536D03*
X169926Y242636D03*
Y244536D03*
X170246Y255016D03*
Y258318D03*
X172146Y255016D03*
Y258318D03*
X17526Y234508D03*
Y236408D03*
X177226Y241554D03*
X175326D03*
X177226Y255016D03*
X175326D03*
Y258318D03*
X177226D03*
Y263906D03*
X175326D03*
X18066Y243586D03*
X184216Y239776D03*
X185994Y243586D03*
X18256D03*
X18891Y2286D03*
X18701D03*
X186116Y239776D03*
X187894Y243586D03*
X19558Y26448D03*
Y26638D03*
X195646Y269748D03*
Y27305D03*
Y276352D03*
X197546Y269748D03*
Y27305D03*
Y276352D03*
X20066Y240858D03*
Y242758D03*
G54D15*
X169892Y262319D03*
Y263969D03*
X171992Y262319D03*
Y263969D03*
G54D16*
X169616Y26842D03*
Y27572D03*
X171816Y26842D03*
Y27572D03*
G54D17*
X172466Y26982D03*
Y27132D03*
Y27432D03*
G54D18*
X181509Y24649D03*
X180859D03*
X180209D03*
X179559D03*
Y252366D03*
X180209D03*
X180859D03*
X181509D03*
X185409Y24649D03*
X184759D03*
X184109D03*
X183459D03*
X182809D03*
X182159D03*
Y252366D03*
X182809D03*
X183459D03*
X184109D03*
X184759D03*
X185409D03*
X186709Y24649D03*
X186059D03*
Y252366D03*
X186709D03*
G54D19*
X180492Y27329D03*
Y27559D03*
Y27789D03*
M02*
