%FSTAX23Y23*%
%MOIN*%
%SFA1B1*%

%IPPOS*%
%ADD11C,0.005000*%
%ADD12C,0.010000*%
%ADD14C,0.001000*%
%ADD15C,0.006000*%
%LNpcb1-1*%
%LPD*%
G54D11*
X0Y0D02*
X0315D01*
Y00472*
X0D02*
X0315D01*
X0Y0D02*
Y00472D01*
G54D12*
X00118Y0069D02*
Y0063D01*
Y0069D02*
X00141Y0063D01*
X00164Y0069D02*
X00141Y0063D01*
X00164Y0069D02*
Y0063D01*
X00181Y0069D02*
Y0063D01*
Y0069D02*
X00207D01*
X00215Y00687*
X00218Y00684*
X00221Y00678*
Y00673*
X00218Y00667*
X00215Y00664*
X00207Y00661*
X00181D02*
X00207D01*
X00215Y00658*
X00218Y00656*
X00221Y0065*
Y00641*
X00218Y00636*
X00215Y00633*
X00207Y0063*
X00181*
X00234Y00678D02*
X0024Y00681D01*
X00249Y0069*
Y0063*
X00278Y00678D02*
X00284Y00681D01*
X00293Y0069*
Y0063*
X00359Y0067D02*
X00357Y00661D01*
X00351Y00656*
X00342Y00653*
X00339*
X00331Y00656*
X00325Y00661*
X00322Y0067*
Y00673*
X00325Y00681*
X00331Y00687*
X00339Y0069*
X00342*
X00351Y00687*
X00357Y00681*
X00359Y0067*
Y00656*
X00357Y00641*
X00351Y00633*
X00342Y0063*
X00337*
X00328Y00633*
X00325Y00638*
X00413Y0067D02*
X0041Y00661D01*
X00404Y00656*
X00396Y00653*
X00393*
X00384Y00656*
X00379Y00661*
X00376Y0067*
Y00673*
X00379Y00681*
X00384Y00687*
X00393Y0069*
X00396*
X00404Y00687*
X0041Y00681*
X00413Y0067*
Y00656*
X0041Y00641*
X00404Y00633*
X00396Y0063*
X0039*
X00381Y00633*
X00379Y00638*
G54D14*
X01462Y0036D02*
X01798D01*
X01459Y00359D02*
X01799D01*
X01457D02*
X01799D01*
X01454D02*
X018D01*
X01452Y00358D02*
X018D01*
X01451Y00357D02*
X018D01*
X01449D02*
X018D01*
X01448Y00356D02*
X018D01*
X01447D02*
X018D01*
X01446D02*
X018D01*
X01444Y00355D02*
X018D01*
X01444Y00354D02*
X01799D01*
X01442D02*
X01799D01*
X01441D02*
X01799D01*
X01441Y00353D02*
X01799D01*
X01439Y00352D02*
X01799D01*
X01439D02*
X01798D01*
X01438D02*
X01798D01*
X01437Y00351D02*
X01798D01*
X01436Y0035D02*
X01798D01*
X01436D02*
X01798D01*
X01435D02*
X01798D01*
X01434Y00349D02*
X01798D01*
X01434D02*
X01797D01*
X01433Y00348D02*
X01797D01*
X01433Y00347D02*
X01796D01*
X01431D02*
X01796D01*
X01431D02*
X01796D01*
X01431Y00346D02*
X01796D01*
X0143Y00345D02*
X01796D01*
X01429D02*
X01796D01*
X01429D02*
X01796D01*
X01428Y00344D02*
X01796D01*
X01428Y00343D02*
X01795D01*
X01427D02*
X01795D01*
X01426D02*
X01794D01*
X01426Y00342D02*
X01794D01*
X01426D02*
X01794D01*
X01426Y00341D02*
X01794D01*
X01425Y0034D02*
X01794D01*
X01424D02*
X01793D01*
X01424D02*
X01793D01*
X01423Y00339D02*
X01793D01*
X01423Y00338D02*
X01793D01*
X01423D02*
X01793D01*
X01423D02*
X01793D01*
X01422Y00337D02*
X01793D01*
X01421Y00336D02*
X01792D01*
X01421D02*
X01792D01*
X01421D02*
X01792D01*
X01421Y00335D02*
X01791D01*
X0142D02*
X01791D01*
X01419Y00334D02*
X01791D01*
X01419Y00333D02*
X01791D01*
X01419D02*
X01791D01*
X01418D02*
X01791D01*
X01418Y00332D02*
X01791D01*
X01418Y00331D02*
X0179D01*
X01418D02*
X0179D01*
X01418D02*
X01789D01*
X01417Y0033D02*
X01789D01*
X01417Y00329D02*
X01789D01*
X01416D02*
X01789D01*
X01416D02*
X01789D01*
X01416Y00328D02*
X01788D01*
X01416Y00327D02*
X01788D01*
X01416D02*
X01788D01*
X01416Y00326D02*
X01788D01*
X01415D02*
X01787D01*
X01415D02*
X01786D01*
X01414Y00325D02*
X01488D01*
X01414Y00324D02*
X01485D01*
X01414D02*
X01482D01*
X01414D02*
X0148D01*
X01414Y00323D02*
X01478D01*
X01413Y00322D02*
X01476D01*
X01413D02*
X01474D01*
X01413D02*
X01474D01*
X01413Y00321D02*
X01472D01*
X01413Y0032D02*
X01471D01*
X01413D02*
X01469D01*
X01413Y00319D02*
X01469D01*
X01412D02*
X01467D01*
X01412D02*
X01467D01*
X01412Y00318D02*
X01466D01*
X01411Y00317D02*
X01465D01*
X01411D02*
X01464D01*
X01411D02*
X01464D01*
X01411Y00316D02*
X01462D01*
X01411Y00315D02*
X01462D01*
X01411D02*
X01461D01*
X01411D02*
X01461D01*
X0141Y00314D02*
X0146D01*
X0141Y00313D02*
X01459D01*
X0141D02*
X01459D01*
X0141Y00312D02*
X01458D01*
X0141D02*
X01457D01*
X01409D02*
X01457D01*
X01409Y00311D02*
X01456D01*
X01408Y0031D02*
X01456D01*
X01408D02*
X01455D01*
X01408D02*
X01454D01*
X01408Y00309D02*
X01454D01*
X01408Y00308D02*
X01454D01*
X01408D02*
X01454D01*
X01408D02*
X01453D01*
X01407Y00307D02*
X01452D01*
X01407Y00306D02*
X01452D01*
X01407D02*
X01452D01*
X01406D02*
X01451D01*
X01406Y00305D02*
X01451D01*
X01406D02*
X01451D01*
X01406Y00304D02*
X0145D01*
X01406Y00303D02*
X01449D01*
X01406D02*
X01449D01*
X01406D02*
X01449D01*
X01405Y00302D02*
X01449D01*
X01405Y00301D02*
X01448D01*
X01405D02*
X01448D01*
X01405D02*
X01447D01*
X01405Y003D02*
X01447D01*
X01404Y00299D02*
X01447D01*
X01404D02*
X01446D01*
X01403D02*
X01446D01*
X01403Y00298D02*
X01446D01*
X01403D02*
X01446D01*
X01403Y00297D02*
X01446D01*
X01403Y00296D02*
X01446D01*
X01403D02*
X01445D01*
X01403D02*
X01445D01*
X01402Y00295D02*
X01444D01*
X01402Y00294D02*
X01444D01*
X01402D02*
X01444D01*
X01401D02*
X01444D01*
X01401Y00293D02*
X01444D01*
X01401Y00292D02*
X01444D01*
X01401D02*
X01444D01*
X01401D02*
X01443D01*
X01401Y00291D02*
X01443D01*
X01401Y0029D02*
X01442D01*
X014D02*
X01442D01*
X014Y00289D02*
X01442D01*
X014D02*
X01442D01*
X014D02*
X01442D01*
X014Y00288D02*
X01442D01*
X01399Y00287D02*
X01441D01*
X01399D02*
X01441D01*
X01398D02*
X01441D01*
X01398Y00286D02*
X01441D01*
X01398Y00285D02*
X01441D01*
X01398D02*
X01441D01*
X01398D02*
X01441D01*
X01398Y00284D02*
X01441D01*
X01398Y00283D02*
X01441D01*
X01397D02*
X01441D01*
X01397Y00282D02*
X01441D01*
X01397D02*
X01441D01*
X01396D02*
X0144D01*
X01396Y00281D02*
X0144D01*
X01491D02*
X01653D01*
X01706D02*
X01766D01*
X01396Y0028D02*
X0144D01*
X0149D02*
X01655D01*
X01704D02*
X01766D01*
X01396D02*
X0144D01*
X01489D02*
X01655D01*
X01704D02*
X01767D01*
X01396D02*
X0144D01*
X01488D02*
X01655D01*
X01703D02*
X01768D01*
X01395Y00279D02*
X0144D01*
X01487D02*
X01655D01*
X01702D02*
X01768D01*
X01395Y00278D02*
X01439D01*
X01487D02*
X01656D01*
X01702D02*
X01768D01*
X01395D02*
X01439D01*
X01486D02*
X01656D01*
X01702D02*
X01768D01*
X01395D02*
X01439D01*
X01485D02*
X01656D01*
X01701D02*
X01768D01*
X01395Y00277D02*
X01439D01*
X01485D02*
X01655D01*
X01701D02*
X01768D01*
X01395Y00276D02*
X01439D01*
X01485D02*
X01655D01*
X01701D02*
X01768D01*
X01395D02*
X01439D01*
X01485D02*
X01655D01*
X017D02*
X01768D01*
X01394Y00275D02*
X01439D01*
X01485D02*
X01655D01*
X017D02*
X01767D01*
X01394D02*
X01439D01*
X01484D02*
X01655D01*
X01699D02*
X01767D01*
X01393D02*
X01439D01*
X01484D02*
X01655D01*
X01699D02*
X01766D01*
X01393Y00274D02*
X01439D01*
X01484D02*
X01654D01*
X01699D02*
X01766D01*
X01393Y00273D02*
X01439D01*
X01484D02*
X01654D01*
X01699D02*
X01766D01*
X01393D02*
X01439D01*
X01484D02*
X01653D01*
X01699D02*
X01766D01*
X01393D02*
X01439D01*
X01484D02*
X01653D01*
X01699D02*
X01766D01*
X01393Y00272D02*
X01439D01*
X01483D02*
X01653D01*
X01699D02*
X01765D01*
X01393Y00271D02*
X01439D01*
X01483D02*
X01653D01*
X01698D02*
X01765D01*
X01393D02*
X01439D01*
X01483D02*
X01653D01*
X01698D02*
X01765D01*
X01392D02*
X01439D01*
X01483D02*
X01653D01*
X01698D02*
X01765D01*
X01392Y0027D02*
X01439D01*
X01483D02*
X01653D01*
X01697D02*
X01765D01*
X01391Y00269D02*
X01439D01*
X01483D02*
X01652D01*
X01697D02*
X01765D01*
X01391D02*
X01439D01*
X01484D02*
X01652D01*
X01697D02*
X01765D01*
X01391D02*
X01439D01*
X01484D02*
X01652D01*
X01697D02*
X01764D01*
X01391Y00268D02*
X01439D01*
X01484D02*
X01651D01*
X01697D02*
X01764D01*
X01391D02*
X01439D01*
X01484D02*
X01651D01*
X01696D02*
X01764D01*
X0139Y00267D02*
X01439D01*
X01484D02*
X01651D01*
X01696D02*
X01763D01*
X0139Y00266D02*
X01439D01*
X01484D02*
X01651D01*
X01696D02*
X01763D01*
X0139D02*
X01439D01*
X01485D02*
X01651D01*
X01696D02*
X01763D01*
X0139D02*
X01439D01*
X01485D02*
X01651D01*
X01696D02*
X01763D01*
X0139Y00265D02*
X01439D01*
X01485D02*
X01651D01*
X01696D02*
X01763D01*
X0139Y00264D02*
X01439D01*
X01485D02*
X0165D01*
X01696D02*
X01763D01*
X0139D02*
X01439D01*
X01485D02*
X0165D01*
X01695D02*
X01763D01*
X01389D02*
X01439D01*
X01486D02*
X0165D01*
X01695D02*
X01762D01*
X01389Y00263D02*
X01439D01*
X01487D02*
X0165D01*
X01694D02*
X01762D01*
X01388Y00262D02*
X01439D01*
X01487D02*
X0165D01*
X01694D02*
X01762D01*
X01388D02*
X0144D01*
X01487D02*
X01649D01*
X01694D02*
X01762D01*
X01388D02*
X0144D01*
X01488D02*
X01649D01*
X01694D02*
X01762D01*
X01388Y00261D02*
X0144D01*
X01488D02*
X01648D01*
X01694D02*
X01761D01*
X01388D02*
X0144D01*
X01489D02*
X01648D01*
X01694D02*
X01761D01*
X01388Y0026D02*
X0144D01*
X0149D02*
X01648D01*
X01694D02*
X0176D01*
X01388Y00259D02*
X0144D01*
X0149D02*
X01648D01*
X01694D02*
X0176D01*
X01388D02*
X01441D01*
X0149D02*
X01648D01*
X01693D02*
X0176D01*
X01387D02*
X01441D01*
X01491D02*
X01648D01*
X01693D02*
X0176D01*
X01387Y00258D02*
X01441D01*
X01492D02*
X01648D01*
X01692D02*
X0176D01*
X01387Y00257D02*
X01441D01*
X01492D02*
X01648D01*
X01692D02*
X0176D01*
X01387D02*
X01441D01*
X01493D02*
X01647D01*
X01692D02*
X0176D01*
X01386D02*
X01441D01*
X01493D02*
X01647D01*
X01692D02*
X01759D01*
X01386Y00256D02*
X01441D01*
X01494D02*
X01646D01*
X01692D02*
X01759D01*
X01386Y00255D02*
X01441D01*
X01495D02*
X01646D01*
X01691D02*
X01759D01*
X01385D02*
X01441D01*
X01495D02*
X01646D01*
X01691D02*
X01758D01*
X01385D02*
X01441D01*
X01495D02*
X01646D01*
X01691D02*
X01758D01*
X01385Y00254D02*
X01441D01*
X01496D02*
X01646D01*
X01691D02*
X01758D01*
X01385D02*
X01442D01*
X01497D02*
X01645D01*
X01691D02*
X01758D01*
X01385Y00253D02*
X01442D01*
X01497D02*
X01645D01*
X01691D02*
X01758D01*
X01385Y00252D02*
X01442D01*
X01497D02*
X01645D01*
X01691D02*
X01758D01*
X01385D02*
X01442D01*
X01498D02*
X01645D01*
X0169D02*
X01758D01*
X01384D02*
X01442D01*
X01499D02*
X01645D01*
X0169D02*
X01757D01*
X01384Y00251D02*
X01442D01*
X015D02*
X01645D01*
X01689D02*
X01757D01*
X01384Y0025D02*
X01443D01*
X015D02*
X01645D01*
X01689D02*
X01757D01*
X01383D02*
X01443D01*
X015D02*
X01644D01*
X01689D02*
X01757D01*
X01383D02*
X01443D01*
X01501D02*
X01644D01*
X01689D02*
X01757D01*
X01383Y00249D02*
X01444D01*
X01502D02*
X01643D01*
X01689D02*
X01756D01*
X01383D02*
X01444D01*
X01502D02*
X01643D01*
X01689D02*
X01756D01*
X01383Y00248D02*
X01444D01*
X01503D02*
X01643D01*
X01689D02*
X01755D01*
X01383D02*
X01444D01*
X01503D02*
X01643D01*
X01689D02*
X01755D01*
X01383Y00247D02*
X01444D01*
X01503D02*
X01643D01*
X01688D02*
X01755D01*
X01382D02*
X01444D01*
X01504D02*
X01643D01*
X01688D02*
X01755D01*
X01382Y00246D02*
X01445D01*
X01505D02*
X01643D01*
X01688D02*
X01755D01*
X01382Y00245D02*
X01445D01*
X01505D02*
X01643D01*
X01688D02*
X01755D01*
X01382D02*
X01446D01*
X01506D02*
X01642D01*
X01688D02*
X01755D01*
X01382Y00244D02*
X01446D01*
X01507D02*
X01642D01*
X01687D02*
X01754D01*
X01381D02*
X01446D01*
X01507D02*
X01641D01*
X01687D02*
X01754D01*
X01381Y00243D02*
X01446D01*
X01508D02*
X01641D01*
X01686D02*
X01754D01*
X0138D02*
X01446D01*
X01508D02*
X01641D01*
X01686D02*
X01753D01*
X0138D02*
X01446D01*
X01508D02*
X01641D01*
X01686D02*
X01753D01*
X0138Y00242D02*
X01447D01*
X01509D02*
X01641D01*
X01686D02*
X01753D01*
X0138D02*
X01447D01*
X0151D02*
X0164D01*
X01686D02*
X01753D01*
X0138Y00241D02*
X01447D01*
X0151D02*
X0164D01*
X01686D02*
X01753D01*
X0138D02*
X01448D01*
X0151D02*
X0164D01*
X01686D02*
X01753D01*
X0138Y0024D02*
X01449D01*
X01511D02*
X0164D01*
X01685D02*
X01753D01*
X01379D02*
X01449D01*
X01512D02*
X0164D01*
X01685D02*
X01752D01*
X01379Y00239D02*
X01449D01*
X01512D02*
X0164D01*
X01685D02*
X01752D01*
X01379Y00238D02*
X01449D01*
X01513D02*
X0164D01*
X01684D02*
X01752D01*
X01378D02*
X01449D01*
X01513D02*
X01639D01*
X01684D02*
X01752D01*
X01378Y00237D02*
X0145D01*
X01514D02*
X01639D01*
X01684D02*
X01752D01*
X01378D02*
X01451D01*
X01515D02*
X01639D01*
X01684D02*
X01751D01*
X01378Y00236D02*
X01451D01*
X01515D02*
X01638D01*
X01684D02*
X01751D01*
X01378D02*
X01452D01*
X01515D02*
X01638D01*
X01684D02*
X0175D01*
X01378Y00235D02*
X01452D01*
X01516D02*
X01638D01*
X01684D02*
X0175D01*
X01378D02*
X01452D01*
X01516D02*
X01638D01*
X01683D02*
X0175D01*
X01377D02*
X01452D01*
X01517D02*
X01638D01*
X01683D02*
X0175D01*
X01377Y00234D02*
X01453D01*
X01518D02*
X01638D01*
X01683D02*
X0175D01*
X01377D02*
X01454D01*
X01518D02*
X01638D01*
X01683D02*
X0175D01*
X01377Y00233D02*
X01454D01*
X01518D02*
X01637D01*
X01683D02*
X0175D01*
X01377D02*
X01455D01*
X01519D02*
X01637D01*
X01682D02*
X0175D01*
X01376Y00232D02*
X01456D01*
X0152D02*
X01637D01*
X01682D02*
X01749D01*
X01376Y00231D02*
X01456D01*
X0152D02*
X01637D01*
X01681D02*
X01749D01*
X01375D02*
X01457D01*
X01521D02*
X01637D01*
X01681D02*
X01748D01*
X01375Y0023D02*
X01457D01*
X01521D02*
X01636D01*
X01681D02*
X01748D01*
X01375D02*
X01457D01*
X01522D02*
X01636D01*
X01681D02*
X01748D01*
X01375Y00229D02*
X01458D01*
X01523D02*
X01635D01*
X01681D02*
X01748D01*
X01375D02*
X01459D01*
X01523D02*
X01635D01*
X01681D02*
X01748D01*
X01375Y00228D02*
X01459D01*
X01523D02*
X01635D01*
X01681D02*
X01747D01*
X01375D02*
X01459D01*
X01524D02*
X01635D01*
X0168D02*
X01747D01*
X01374D02*
X0146D01*
X01525D02*
X01635D01*
X0168D02*
X01747D01*
X01374Y00227D02*
X01461D01*
X01525D02*
X01635D01*
X0168D02*
X01747D01*
X01374D02*
X01461D01*
X01526D02*
X01635D01*
X01679D02*
X01747D01*
X01373Y00226D02*
X01462D01*
X01526D02*
X01634D01*
X01679D02*
X01747D01*
X01373D02*
X01462D01*
X01526D02*
X01634D01*
X01679D02*
X01747D01*
X01373Y00225D02*
X01463D01*
X01527D02*
X01634D01*
X01679D02*
X01746D01*
X01373D02*
X01464D01*
X01528D02*
X01633D01*
X01679D02*
X01746D01*
X01373Y00224D02*
X01464D01*
X01528D02*
X01633D01*
X01679D02*
X01746D01*
X01372Y00223D02*
X01464D01*
X01529D02*
X01633D01*
X01679D02*
X01745D01*
X01372D02*
X01465D01*
X0153D02*
X01633D01*
X01678D02*
X01745D01*
X01372Y00222D02*
X01465D01*
X0153D02*
X01633D01*
X01678D02*
X01745D01*
X01372D02*
X01466D01*
X01531D02*
X01633D01*
X01678D02*
X01745D01*
X01372Y00221D02*
X01467D01*
X01531D02*
X01633D01*
X01678D02*
X01745D01*
X01372D02*
X01467D01*
X01531D02*
X01632D01*
X01678D02*
X01745D01*
X01372D02*
X01467D01*
X01532D02*
X01632D01*
X01677D02*
X01745D01*
X01371Y0022D02*
X01468D01*
X01533D02*
X01632D01*
X01677D02*
X01744D01*
X01371D02*
X01469D01*
X01533D02*
X01632D01*
X01676D02*
X01744D01*
X0137Y00219D02*
X01469D01*
X01533D02*
X01632D01*
X01676D02*
X01743D01*
X0137D02*
X01469D01*
X01534D02*
X01631D01*
X01676D02*
X01743D01*
X0137Y00218D02*
X0147D01*
X01535D02*
X01631D01*
X01676D02*
X01743D01*
X0137D02*
X01471D01*
X01536D02*
X0163D01*
X01676D02*
X01743D01*
X0137Y00217D02*
X01472D01*
X01536D02*
X0163D01*
X01676D02*
X01743D01*
X0137Y00216D02*
X01472D01*
X01536D02*
X0163D01*
X01676D02*
X01742D01*
X0137D02*
X01472D01*
X01537D02*
X0163D01*
X01676D02*
X01742D01*
X01369Y00215D02*
X01473D01*
X01538D02*
X0163D01*
X01675D02*
X01742D01*
X01369D02*
X01474D01*
X01538D02*
X0163D01*
X01675D02*
X01742D01*
X01369Y00214D02*
X01474D01*
X01538D02*
X0163D01*
X01674D02*
X01742D01*
X01368D02*
X01474D01*
X01539D02*
X01629D01*
X01674D02*
X01742D01*
X01368Y00213D02*
X01475D01*
X01539D02*
X01629D01*
X01674D02*
X01742D01*
X01368D02*
X01475D01*
X0154D02*
X01629D01*
X01674D02*
X01741D01*
X01368D02*
X01476D01*
X01541D02*
X01628D01*
X01674D02*
X01741D01*
X01368Y00212D02*
X01477D01*
X01541D02*
X01628D01*
X01673D02*
X01741D01*
X01367D02*
X01477D01*
X01541D02*
X01628D01*
X01673D02*
X0174D01*
X01367Y00211D02*
X01478D01*
X01542D02*
X01628D01*
X01673D02*
X0174D01*
X01367D02*
X01479D01*
X01543D02*
X01628D01*
X01673D02*
X0174D01*
X01367Y0021D02*
X01479D01*
X01543D02*
X01628D01*
X01673D02*
X0174D01*
X01367Y00209D02*
X0148D01*
X01543D02*
X01628D01*
X01673D02*
X0174D01*
X01367D02*
X0148D01*
X01543D02*
X01627D01*
X01673D02*
X0174D01*
X01367Y00208D02*
X0148D01*
X01544D02*
X01627D01*
X01672D02*
X0174D01*
X01366D02*
X01481D01*
X01544D02*
X01627D01*
X01672D02*
X01739D01*
X01366Y00207D02*
X01482D01*
X01544D02*
X01627D01*
X01671D02*
X01739D01*
X01365D02*
X01482D01*
X01545D02*
X01627D01*
X01671D02*
X01738D01*
X01365Y00206D02*
X01482D01*
X01546D02*
X01626D01*
X01671D02*
X01738D01*
X01365D02*
X01483D01*
X01546D02*
X01626D01*
X01671D02*
X01738D01*
X01365D02*
X01484D01*
X01546D02*
X01625D01*
X01671D02*
X01738D01*
X01365Y00205D02*
X01484D01*
X01546D02*
X01625D01*
X01671D02*
X01738D01*
X01365D02*
X01485D01*
X01547D02*
X01625D01*
X01671D02*
X01737D01*
X01365Y00204D02*
X01485D01*
X01547D02*
X01625D01*
X01671D02*
X01737D01*
X01364D02*
X01486D01*
X01548D02*
X01625D01*
X0167D02*
X01737D01*
X01364Y00203D02*
X01487D01*
X01548D02*
X01625D01*
X0167D02*
X01737D01*
X01364D02*
X01487D01*
X01548D02*
X01625D01*
X01669D02*
X01737D01*
X01363Y00202D02*
X01487D01*
X01548D02*
X01625D01*
X01669D02*
X01737D01*
X01363Y00201D02*
X01488D01*
X01548D02*
X01624D01*
X01669D02*
X01737D01*
X01363D02*
X01488D01*
X01549D02*
X01624D01*
X01669D02*
X01736D01*
X01363Y002D02*
X01489D01*
X01549D02*
X01623D01*
X01669D02*
X01736D01*
X01363D02*
X0149D01*
X01549D02*
X01623D01*
X01668D02*
X01736D01*
X01362Y00199D02*
X0149D01*
X0155D02*
X01623D01*
X01668D02*
X01735D01*
X01362D02*
X0149D01*
X0155D02*
X01623D01*
X01668D02*
X01735D01*
X01362D02*
X01491D01*
X01551D02*
X01623D01*
X01668D02*
X01735D01*
X01362Y00198D02*
X01492D01*
X01551D02*
X01622D01*
X01668D02*
X01735D01*
X01362D02*
X01492D01*
X01551D02*
X01622D01*
X01668D02*
X01735D01*
X01362Y00197D02*
X01492D01*
X01551D02*
X01622D01*
X01668D02*
X01735D01*
X01362D02*
X01493D01*
X01551D02*
X01622D01*
X01667D02*
X01735D01*
X01361Y00196D02*
X01494D01*
X01551D02*
X01622D01*
X01667D02*
X01734D01*
X01361D02*
X01495D01*
X01552D02*
X01622D01*
X01667D02*
X01734D01*
X0136Y00195D02*
X01495D01*
X01552D02*
X01622D01*
X01666D02*
X01734D01*
X0136Y00194D02*
X01495D01*
X01552D02*
X01621D01*
X01666D02*
X01734D01*
X0136D02*
X01496D01*
X01553D02*
X01621D01*
X01666D02*
X01734D01*
X0136Y00193D02*
X01497D01*
X01553D02*
X01621D01*
X01666D02*
X01733D01*
X0136D02*
X01497D01*
X01553D02*
X0162D01*
X01666D02*
X01733D01*
X0136Y00192D02*
X01497D01*
X01553D02*
X0162D01*
X01666D02*
X01732D01*
X0136D02*
X01498D01*
X01553D02*
X0162D01*
X01666D02*
X01732D01*
X0136Y00191D02*
X01498D01*
X01554D02*
X0162D01*
X01665D02*
X01732D01*
X01359D02*
X01499D01*
X01554D02*
X0162D01*
X01665D02*
X01732D01*
X01359D02*
X015D01*
X01554D02*
X0162D01*
X01664D02*
X01732D01*
X01359Y0019D02*
X015D01*
X01554D02*
X0162D01*
X01664D02*
X01732D01*
X01359D02*
X015D01*
X01554D02*
X01619D01*
X01664D02*
X01732D01*
X01358Y00189D02*
X01502D01*
X01554D02*
X01619D01*
X01664D02*
X01732D01*
X01358D02*
X01502D01*
X01554D02*
X01618D01*
X01664D02*
X01731D01*
X01358Y00188D02*
X01503D01*
X01554D02*
X01618D01*
X01663D02*
X01731D01*
X01357D02*
X01503D01*
X01554D02*
X01618D01*
X01663D02*
X0173D01*
X01357Y00187D02*
X01503D01*
X01555D02*
X01618D01*
X01663D02*
X0173D01*
X01357Y00186D02*
X01504D01*
X01555D02*
X01618D01*
X01663D02*
X0173D01*
X01357D02*
X01505D01*
X01555D02*
X01617D01*
X01663D02*
X0173D01*
X01357Y00185D02*
X01505D01*
X01555D02*
X01617D01*
X01663D02*
X0173D01*
X01357D02*
X01505D01*
X01555D02*
X01617D01*
X01663D02*
X0173D01*
X01357Y00184D02*
X01506D01*
X01556D02*
X01617D01*
X01662D02*
X0173D01*
X01356D02*
X01507D01*
X01556D02*
X01617D01*
X01662D02*
X01729D01*
X01356D02*
X01507D01*
X01556D02*
X01617D01*
X01662D02*
X01729D01*
X01355Y00183D02*
X01508D01*
X01556D02*
X01617D01*
X01661D02*
X01729D01*
X01355D02*
X01508D01*
X01556D02*
X01616D01*
X01661D02*
X01729D01*
X01355Y00182D02*
X01508D01*
X01556D02*
X01616D01*
X01661D02*
X01729D01*
X01355D02*
X01509D01*
X01556D02*
X01616D01*
X01661D02*
X01728D01*
X01355Y00181D02*
X0151D01*
X01556D02*
X01615D01*
X01661D02*
X01728D01*
X01355D02*
X0151D01*
X01556D02*
X01615D01*
X01661D02*
X01727D01*
X01355Y0018D02*
X0151D01*
X01556D02*
X01615D01*
X01661D02*
X01727D01*
X01355Y00179D02*
X0151D01*
X01556D02*
X01615D01*
X0166D02*
X01727D01*
X01354D02*
X01511D01*
X01556D02*
X01615D01*
X0166D02*
X01727D01*
X01354Y00178D02*
X01511D01*
X01556D02*
X01615D01*
X0166D02*
X01727D01*
X01354D02*
X01512D01*
X01556D02*
X01615D01*
X0166D02*
X01727D01*
X01354Y00177D02*
X01512D01*
X01556D02*
X01614D01*
X0166D02*
X01727D01*
X01353D02*
X01512D01*
X01556D02*
X01614D01*
X01659D02*
X01727D01*
X01353Y00176D02*
X01512D01*
X01556D02*
X01613D01*
X01659D02*
X01726D01*
X01353D02*
X01512D01*
X01556D02*
X01613D01*
X01658D02*
X01726D01*
X01352D02*
X01512D01*
X01556D02*
X01613D01*
X01658D02*
X01725D01*
X01352Y00175D02*
X01512D01*
X01556D02*
X01613D01*
X01658D02*
X01725D01*
X01352D02*
X01512D01*
X01556D02*
X01613D01*
X01658D02*
X01725D01*
X01352Y00174D02*
X01512D01*
X01556D02*
X01612D01*
X01658D02*
X01725D01*
X01352D02*
X01512D01*
X01556D02*
X01612D01*
X01658D02*
X01725D01*
X01352Y00173D02*
X01512D01*
X01556D02*
X01612D01*
X01658D02*
X01724D01*
X01352Y00172D02*
X01512D01*
X01556D02*
X01612D01*
X01658D02*
X01724D01*
X01351D02*
X01512D01*
X01556D02*
X01612D01*
X01657D02*
X01724D01*
X01351Y00171D02*
X01512D01*
X01556D02*
X01612D01*
X01657D02*
X01724D01*
X01351D02*
X01512D01*
X01556D02*
X01612D01*
X01656D02*
X01724D01*
X0135Y0017D02*
X01512D01*
X01556D02*
X01611D01*
X01656D02*
X01724D01*
X0135D02*
X01512D01*
X01556D02*
X01611D01*
X01656D02*
X01724D01*
X0135Y00169D02*
X01512D01*
X01556D02*
X01611D01*
X01656D02*
X01723D01*
X0135D02*
X01511D01*
X01556D02*
X0161D01*
X01656D02*
X01723D01*
X0135D02*
X0151D01*
X01556D02*
X0161D01*
X01656D02*
X01723D01*
X0135Y00168D02*
X0151D01*
X01556D02*
X0161D01*
X01656D02*
X01722D01*
X0135D02*
X0151D01*
X01556D02*
X0161D01*
X01655D02*
X01722D01*
X0135Y00167D02*
X0151D01*
X01556D02*
X0161D01*
X01655D02*
X01722D01*
X0135D02*
X01509D01*
X01556D02*
X0161D01*
X01655D02*
X01722D01*
X0135Y00166D02*
X01508D01*
X01556D02*
X0161D01*
X01655D02*
X01722D01*
X0135D02*
X01507D01*
X01556D02*
X01609D01*
X01655D02*
X01722D01*
X01351Y00165D02*
X01506D01*
X01556D02*
X01609D01*
X01654D02*
X01722D01*
X01352Y00164D02*
X01505D01*
X01555D02*
X01609D01*
X01654D02*
X01721D01*
X01555D02*
X01609D01*
X01653D02*
X01721D01*
X01555Y00163D02*
X01609D01*
X01653D02*
X0172D01*
X01555D02*
X01608D01*
X01653D02*
X0172D01*
X01555Y00162D02*
X01608D01*
X01653D02*
X0172D01*
X01554D02*
X01607D01*
X01653D02*
X0172D01*
X01554D02*
X01607D01*
X01653D02*
X0172D01*
X01554Y00161D02*
X01607D01*
X01653D02*
X01719D01*
X01554D02*
X01607D01*
X01653D02*
X01719D01*
X01554Y0016D02*
X01607D01*
X01652D02*
X01719D01*
X01554D02*
X01607D01*
X01652D02*
X01719D01*
X01554Y00159D02*
X01607D01*
X01651D02*
X01719D01*
X01554D02*
X01607D01*
X01651D02*
X01719D01*
X01554Y00158D02*
X01606D01*
X01651D02*
X01719D01*
X01554Y00157D02*
X01606D01*
X01651D02*
X01718D01*
X01553D02*
X01605D01*
X01651D02*
X01718D01*
X01553Y00156D02*
X01605D01*
X01651D02*
X01717D01*
X01553D02*
X01605D01*
X01651D02*
X01717D01*
X01553Y00155D02*
X01605D01*
X0165D02*
X01717D01*
X01553D02*
X01605D01*
X0165D02*
X01717D01*
X01553Y00154D02*
X01605D01*
X0165D02*
X01717D01*
X01552D02*
X01605D01*
X0165D02*
X01717D01*
X01552D02*
X01604D01*
X0165D02*
X01717D01*
X01551Y00153D02*
X01604D01*
X01649D02*
X01716D01*
X01551D02*
X01604D01*
X01649D02*
X01716D01*
X01551Y00152D02*
X01604D01*
X01649D02*
X01715D01*
X01551D02*
X01604D01*
X01648D02*
X01715D01*
X01551Y00151D02*
X01603D01*
X01648D02*
X01715D01*
X01551Y0015D02*
X01603D01*
X01648D02*
X01714D01*
X01551D02*
X01602D01*
X01648D02*
X01714D01*
X0155Y00149D02*
X01602D01*
X01648D02*
X01714D01*
X0155D02*
X01602D01*
X01648D02*
X01714D01*
X01549Y00148D02*
X01602D01*
X01648D02*
X01714D01*
X01549D02*
X01602D01*
X01647D02*
X01713D01*
X01549Y00147D02*
X01602D01*
X01647D02*
X01713D01*
X01548D02*
X01602D01*
X01646D02*
X01712D01*
X01548D02*
X01602D01*
X01646D02*
X01712D01*
X01548Y00146D02*
X01601D01*
X01646D02*
X01712D01*
X01548D02*
X01601D01*
X01646D02*
X01712D01*
X01548Y00145D02*
X016D01*
X01646D02*
X01711D01*
X01548D02*
X016D01*
X01645D02*
X01711D01*
X01547Y00144D02*
X016D01*
X01645D02*
X01711D01*
X01546D02*
X016D01*
X01645D02*
X0171D01*
X01546Y00143D02*
X016D01*
X01645D02*
X01709D01*
X01546Y00142D02*
X01599D01*
X01645D02*
X01709D01*
X01546D02*
X01599D01*
X01645D02*
X01709D01*
X01546Y00141D02*
X01599D01*
X01645D02*
X01708D01*
X01545D02*
X01599D01*
X01644D02*
X01708D01*
X01544Y0014D02*
X01599D01*
X01644D02*
X01707D01*
X01544D02*
X01599D01*
X01644D02*
X01707D01*
X01544D02*
X01599D01*
X01643D02*
X01707D01*
X01543Y00139D02*
X01598D01*
X01643D02*
X01706D01*
X01543D02*
X01598D01*
X01643D02*
X01706D01*
X01543Y00138D02*
X01598D01*
X01643D02*
X01705D01*
X01542D02*
X01597D01*
X01643D02*
X01704D01*
X01542Y00137D02*
X01597D01*
X01643D02*
X01704D01*
X01541D02*
X01597D01*
X01643D02*
X01704D01*
X01541Y00136D02*
X01597D01*
X01642D02*
X01703D01*
X01541Y00135D02*
X01597D01*
X01642D02*
X01702D01*
X0154D02*
X01597D01*
X01641D02*
X01702D01*
X01539Y00134D02*
X01597D01*
X01641D02*
X01701D01*
X01539D02*
X01596D01*
X01641D02*
X01701D01*
X01538Y00133D02*
X01596D01*
X01641D02*
X017D01*
X01538D02*
X01595D01*
X01641D02*
X01699D01*
X01538Y00132D02*
X01595D01*
X0164D02*
X01699D01*
X01537D02*
X01595D01*
X0164D02*
X01698D01*
X01536D02*
X01595D01*
X0164D02*
X01697D01*
X01536Y00131D02*
X01595D01*
X0164D02*
X01696D01*
X01536D02*
X01594D01*
X0164D02*
X01696D01*
X01535Y0013D02*
X01594D01*
X0164D02*
X01695D01*
X01534D02*
X01594D01*
X0164D02*
X01694D01*
X01533Y00129D02*
X01594D01*
X0164D02*
X01694D01*
X01533Y00128D02*
X01594D01*
X01639D02*
X01692D01*
X01532D02*
X01594D01*
X01639D02*
X01691D01*
X01531Y00127D02*
X01594D01*
X01638D02*
X01691D01*
X01531D02*
X01593D01*
X01638D02*
X01689D01*
X0153Y00126D02*
X01593D01*
X01638D02*
X01689D01*
X0153D02*
X01593D01*
X01638D02*
X01688D01*
X01528Y00125D02*
X01592D01*
X01638D02*
X01686D01*
X01528D02*
X01592D01*
X01638D02*
X01686D01*
X01527Y00124D02*
X01592D01*
X01638D02*
X01684D01*
X01526D02*
X01592D01*
X01638D02*
X01683D01*
X01525Y00123D02*
X01592D01*
X01638D02*
X01681D01*
X01524D02*
X01591D01*
X01638D02*
X01679D01*
X01523D02*
X0159D01*
X01638D02*
X01678D01*
X01523Y00122D02*
X01589D01*
X01638D02*
X01676D01*
X01523D02*
X01589D01*
X01638D02*
X01673D01*
X01523Y00121D02*
X01587D01*
X01639D02*
X01671D01*
X01523Y0012D02*
X01586D01*
X0164D02*
X01664D01*
G54D15*
X00118Y00335D02*
Y00276D01*
Y00335D02*
X00141Y00276D01*
X00163Y00335D02*
X00141Y00276D01*
X00163Y00335D02*
Y00276D01*
X0018Y00335D02*
Y00276D01*
Y00335D02*
X00205D01*
X00214Y00332*
X00217Y00329*
X00219Y00323*
Y00318*
X00217Y00312*
X00214Y00309*
X00205Y00307*
X0018D02*
X00205D01*
X00214Y00304*
X00217Y00301*
X00219Y00295*
Y00287*
X00217Y00281*
X00214Y00278*
X00205Y00276*
X0018*
X00233Y00323D02*
X00238Y00326D01*
X00247Y00335*
Y00276*
X00276Y00323D02*
X00281Y00326D01*
X0029Y00335*
Y00276*
X00356Y00315D02*
X00353Y00307D01*
X00347Y00301*
X00339Y00298*
X00336*
X00328Y00301*
X00322Y00307*
X00319Y00315*
Y00318*
X00322Y00326*
X00328Y00332*
X00336Y00335*
X00339*
X00347Y00332*
X00353Y00326*
X00356Y00315*
Y00301*
X00353Y00287*
X00347Y00278*
X00339Y00276*
X00333*
X00325Y00278*
X00322Y00284*
X00408Y00315D02*
X00405Y00307D01*
X004Y00301*
X00391Y00298*
X00389*
X0038Y00301*
X00375Y00307*
X00372Y00315*
Y00318*
X00375Y00326*
X0038Y00332*
X00389Y00335*
X00391*
X004Y00332*
X00405Y00326*
X00408Y00315*
Y00301*
X00405Y00287*
X004Y00278*
X00391Y00276*
X00386*
X00377Y00278*
X00375Y00284*
X00471Y00335D02*
Y00276D01*
Y00335D02*
X00496D01*
X00504Y00332*
X00507Y00329*
X0051Y00323*
Y00318*
X00507Y00312*
X00504Y00309*
X00496Y00307*
X00471*
X0049D02*
X0051Y00276D01*
X00523Y00298D02*
X00557D01*
Y00304*
X00554Y00309*
X00551Y00312*
X00546Y00315*
X00537*
X00532Y00312*
X00526Y00307*
X00523Y00298*
Y00292*
X00526Y00284*
X00532Y00278*
X00537Y00276*
X00546*
X00551Y00278*
X00557Y00284*
X0057Y00315D02*
X00587Y00276D01*
X00603Y00315D02*
X00587Y00276D01*
X00704D02*
X00682Y00335D01*
X00659Y00276*
X00668Y00295D02*
X00696D01*
X00721Y00281D02*
X00718Y00278D01*
X00721Y00276*
X00724Y00278*
X00721Y00281*
X00754Y00335D02*
X00745Y00332D01*
X00739Y00323*
X00737Y00309*
Y00301*
X00739Y00287*
X00745Y00278*
X00754Y00276*
X00759*
X00768Y00278*
X00773Y00287*
X00776Y00301*
Y00309*
X00773Y00323*
X00768Y00332*
X00759Y00335*
X00754*
X00789Y00323D02*
X00795Y00326D01*
X00803Y00335*
Y00276*
X00118Y00177D02*
Y00118D01*
Y00177D02*
X00138D01*
X00146Y00174*
X00152Y00169*
X00155Y00163*
X00157Y00155*
Y00141*
X00155Y00132*
X00152Y00127*
X00146Y00121*
X00138Y00118*
X00118*
X00171Y00141D02*
X00204D01*
Y00146*
X00202Y00152*
X00199Y00155*
X00193Y00157*
X00185*
X00179Y00155*
X00173Y00149*
X00171Y00141*
Y00135*
X00173Y00127*
X00179Y00121*
X00185Y00118*
X00193*
X00199Y00121*
X00204Y00127*
X00226Y00177D02*
Y00129D01*
X00228Y00121*
X00234Y00118*
X0024*
X00217Y00157D02*
X00237D01*
X00248Y00141D02*
X00282D01*
Y00146*
X00279Y00152*
X00276Y00155*
X0027Y00157*
X00262*
X00256Y00155*
X00251Y00149*
X00248Y00141*
Y00135*
X00251Y00127*
X00256Y00121*
X00262Y00118*
X0027*
X00276Y00121*
X00282Y00127*
X00328Y00149D02*
X00323Y00155D01*
X00317Y00157*
X00308*
X00303Y00155*
X00297Y00149*
X00294Y00141*
Y00135*
X00297Y00127*
X00303Y00121*
X00308Y00118*
X00317*
X00323Y00121*
X00328Y00127*
X00349Y00177D02*
Y00129D01*
X00352Y00121*
X00358Y00118*
X00363*
X00341Y00157D02*
X0036D01*
X00377Y00177D02*
X0038Y00174D01*
X00383Y00177*
X0038Y0018*
X00377Y00177*
X0038Y00157D02*
Y00118D01*
X00407Y00157D02*
X00402Y00155D01*
X00396Y00149*
X00393Y00141*
Y00135*
X00396Y00127*
X00402Y00121*
X00407Y00118*
X00416*
X00421Y00121*
X00427Y00127*
X0043Y00135*
Y00141*
X00427Y00149*
X00421Y00155*
X00416Y00157*
X00407*
X00443D02*
Y00118D01*
Y00146D02*
X00451Y00155D01*
X00457Y00157*
X00465*
X00471Y00155*
X00474Y00146*
Y00118*
X00569Y00157D02*
Y00118D01*
Y00149D02*
X00564Y00155D01*
X00558Y00157*
X0055*
X00544Y00155*
X00538Y00149*
X00536Y00141*
Y00135*
X00538Y00127*
X00544Y00121*
X0055Y00118*
X00558*
X00564Y00121*
X00569Y00127*
X00619Y00149D02*
X00613Y00155D01*
X00608Y00157*
X00599*
X00594Y00155*
X00588Y00149*
X00585Y00141*
Y00135*
X00588Y00127*
X00594Y00121*
X00599Y00118*
X00608*
X00613Y00121*
X00619Y00127*
X00665Y00149D02*
X0066Y00155D01*
X00654Y00157*
X00646*
X0064Y00155*
X00634Y00149*
X00631Y00141*
Y00135*
X00634Y00127*
X0064Y00121*
X00646Y00118*
X00654*
X0066Y00121*
X00665Y00127*
X00678Y00141D02*
X00712D01*
Y00146*
X00709Y00152*
X00706Y00155*
X007Y00157*
X00692*
X00686Y00155*
X00681Y00149*
X00678Y00141*
Y00135*
X00681Y00127*
X00686Y00121*
X00692Y00118*
X007*
X00706Y00121*
X00712Y00127*
X00755Y00149D02*
X00752Y00155D01*
X00744Y00157*
X00736*
X00727Y00155*
X00724Y00149*
X00727Y00143*
X00733Y00141*
X00747Y00138*
X00752Y00135*
X00755Y00129*
Y00127*
X00752Y00121*
X00744Y00118*
X00736*
X00727Y00121*
X00724Y00127*
X00799Y00149D02*
X00796Y00155D01*
X00787Y00157*
X00779*
X0077Y00155*
X00768Y00149*
X0077Y00143*
X00776Y00141*
X0079Y00138*
X00796Y00135*
X00799Y00129*
Y00127*
X00796Y00121*
X00787Y00118*
X00779*
X0077Y00121*
X00768Y00127*
X00825Y00157D02*
X00819Y00155D01*
X00814Y00149*
X00811Y00141*
Y00135*
X00814Y00127*
X00819Y00121*
X00825Y00118*
X00833*
X00839Y00121*
X00845Y00127*
X00847Y00135*
Y00141*
X00845Y00149*
X00839Y00155*
X00833Y00157*
X00825*
X0086D02*
Y00118D01*
Y00141D02*
X00863Y00149D01*
X00869Y00155*
X00874Y00157*
X00883*
X00891D02*
X00908Y00118D01*
X00925Y00157D02*
X00908Y00118D01*
X00902Y00107*
X00897Y00101*
X00891Y00098*
X00888*
M02*