<?xml version="1.0" encoding="utf-8"?>
<!DOCTYPE svg PUBLIC "-//W3C//DTD SVG 1.1//EN" "http://www.w3.org/Graphics/SVG/1.1/DTD/svg11.dtd">
<svg  version="1.1" baseProfile="full" width="1742" height="2000" viewBox="0 0 1742 2000" xmlns="http://www.w3.org/2000/svg">
  <style  type="text/css">
  <![CDATA[
.SVGBG { fill:#000000; stroke:#000000; opacity:1.0; }
.ANTI { fill:#000000; stroke:#000000; opacity:1.0; }
.THERMAL { fill:#000000; stroke:#000000; opacity:1.0; }
.SHAPE { opacity:0.5; }
.XSHAPE { opacity:0.5; }
.PIN { opacity:0.7; }
.VIA { opacity:0.7; }
.LINE { opacity:0.9; }
.LABEL { opacity:0.9; }
.TEXT { opacity:1.0; }
.VECTORTEXT { opacity:1.0; }
.HOLE { fill:#ACACAC; stroke:#ACACAC; opacity:1.0; }
.FIGURE { opacity:1.0; }
.FINISH_ENIG_BOTTOM {  fill:#638B3A; stroke:#638B3A; stroke-width:0; }
.FINISH_ENEPIG_BOTTOM {  fill:#638B3A; stroke:#638B3A; stroke-width:0; }
.FINISH_IMMERSION_TIN_BOTTOM {  fill:#638B3A; stroke:#638B3A; stroke-width:0; }
.FINISH_IMMERSION_SILVER_BOTTOM {  fill:#638B3A; stroke:#638B3A; stroke-width:0; }
.FINISH_OSP_BOTTOM {  fill:#638B3A; stroke:#638B3A; stroke-width:0; }
.FINISH_GOLD_HARD_BOTTOM {  fill:#638B3A; stroke:#638B3A; stroke-width:0; }
.FINISH_GOLD_SOFT_BOTTOM {  fill:#638B3A; stroke:#638B3A; stroke-width:0; }
.FINISH_TIN_PLATE_BOTTOM {  fill:#638B3A; stroke:#638B3A; stroke-width:0; }
.FINISH_CARBON_BOTTOM {  fill:#638B3A; stroke:#638B3A; stroke-width:0; }
.FINISH_SILVER_INK_BOTTOM {  fill:#638B3A; stroke:#638B3A; stroke-width:0; }
.RGDFLEX_COVERLAY_BOTTOM {  fill:#638B3A; stroke:#638B3A; stroke-width:0; }
.RGDFLEX_EMI_SHIELD_BOTTOM {  fill:#638B3A; stroke:#638B3A; stroke-width:0; }
.RGDFLEX_STIFFENER_BOTTOM {  fill:#638B3A; stroke:#638B3A; stroke-width:0; }
.RGDFLEX_STIFFENER_METAL_BOTTOM {  fill:#638B3A; stroke:#638B3A; stroke-width:0; }
.PARTNO_ASSEMBLY_BOTTOM {  fill:#638B3A;  font-family:Monospace; }
.PARTNO_SILKSCREEN_BOTTOM {  fill:#638B3A;  font-family:Monospace; }
.PARTNO_DISPLAY_BOTTOM {  fill:#638B3A;  font-family:Monospace; }
.TOL_ASSEMBLY_BOTTOM {  fill:#638B3A;  font-family:Monospace; }
.TOL_SILKSCREEN_BOTTOM {  fill:#638B3A;  font-family:Monospace; }
.TOL_DISPLAY_BOTTOM {  fill:#638B3A;  font-family:Monospace; }
.REFDES_ASSEMBLY_BOTTOM {  fill:#0097B7;  font-family:Monospace; }
.REFDES_SILKSCREEN_BOTTOM {  fill:#0097B7;  font-family:Monospace; }
.REFDES_DISPLAY_BOTTOM {  fill:#0097B7;  font-family:Monospace; }
.MFG_NO_GLOSS_BOTTOM {  fill:#638B3A; stroke:#638B3A; stroke-width:0; }
.MFG_PROBE_BOTTOM {  fill:#638B3A; stroke:#638B3A; stroke-width:0; }
.MFG_AUTOSILK_BOTTOM {  fill:#638B3A; stroke:#638B3A; stroke-width:0; }
.MFG_NO_PROBE_BOTTOM {  fill:#638B3A; stroke:#638B3A; stroke-width:0; }
.DEVTYPE_ASSEMBLY_BOTTOM {  fill:#638B3A;  font-family:Monospace; }
.DEVTYPE_SILKSCREEN_BOTTOM {  fill:#638B3A;  font-family:Monospace; }
.DEVTYPE_DISPLAY_BOTTOM {  fill:#638B3A;  font-family:Monospace; }
.COMPVAL_ASSEMBLY_BOTTOM {  fill:#638B3A;  font-family:Monospace; }
.COMPVAL_SILKSCREEN_BOTTOM {  fill:#638B3A;  font-family:Monospace; }
.COMPVAL_DISPLAY_BOTTOM {  fill:#638B3A;  font-family:Monospace; }
.BRDGEO_PLACE_GRID_BOTTOM {  fill:#638B3A; stroke:#638B3A; stroke-width:0; }
.BRDGEO_SWITCH_AREA_BOTTOM {  fill:#638B3A; stroke:#638B3A; stroke-width:0; }
.BRDGEO_SILKSCREEN_BOTTOM {  fill:#638B3A; stroke:#638B3A; stroke-width:0; }
.PKGGEO_DISPLAY_BOTTOM {  fill:#638B3A; stroke:#638B3A; stroke-width:0; }
.PKGGEO_SILKSCREEN_BOTTOM {  fill:#638B3A; stroke:#638B3A; stroke-width:0; }
.PKGGEO_ASSEMBLY_BOTTOM {  fill:#A90512; stroke:#A90512; stroke-width:0; }
.PKGGEO_DFA_BOUND_BOTTOM {  fill:#638B3A; stroke:#638B3A; stroke-width:0; }
.PKGGEO_PLACE_BOUND_BOTTOM {  fill:#638B3A; stroke:#638B3A; stroke-width:0; }
.PKGGEO_PASTEMASK_BOTTOM {  fill:#638B3A; stroke:#638B3A; stroke-width:0; }
.PIN_FILMMASK_BOTTOM {  fill:#638B3A; stroke:#638B3A; stroke-width:0; }
.VIA_FILMMASK_BOTTOM {  fill:#638B3A; stroke:#638B3A; stroke-width:0; }
.PIN_PASTEMASK_BOTTOM {  fill:#638B3A; stroke:#638B3A; stroke-width:0; }
.VIA_PASTEMASK_BOTTOM {  fill:#638B3A; stroke:#638B3A; stroke-width:0; }
.PKGGEO_SOLDERMASK_BOTTOM {  fill:#638B3A; stroke:#638B3A; stroke-width:0; }
.BRDGEO_SOLDERMASK_BOTTOM {  fill:#638B3A; stroke:#638B3A; stroke-width:0; }
.PIN_SOLDERMASK_BOTTOM {  fill:#638B3A; stroke:#638B3A; stroke-width:0; }
.VIA_SOLDERMASK_BOTTOM {  fill:#638B3A; stroke:#638B3A; stroke-width:0; }
.RTEKPO_BOTTOM {  fill:#9C8672; stroke:#9C8672; stroke-width:0; }
.VIAKPO_BOTTOM {  fill:#9C8672; stroke:#9C8672; stroke-width:0; }
.COND_BOTTOM {  fill:#FFFF00; stroke:#FFFF00; stroke-width:0; }
.RTEKPO_TOP {  fill:#9C8672; stroke:#9C8672; stroke-width:0; }
.VIAKPO_TOP {  fill:#9C8672; stroke:#9C8672; stroke-width:0; }
.COND_TOP {  fill:#26FF26; stroke:#26FF26; stroke-width:0; }
.VIA_SOLDERMASK_TOP {  fill:#638B3A; stroke:#638B3A; stroke-width:0; }
.PIN_SOLDERMASK_TOP {  fill:#638B3A; stroke:#638B3A; stroke-width:0; }
.BRDGEO_SOLDERMASK_TOP {  fill:#638B3A; stroke:#638B3A; stroke-width:0; }
.PKGGEO_SOLDERMASK_TOP {  fill:#638B3A; stroke:#638B3A; stroke-width:0; }
.VIA_PASTEMASK_TOP {  fill:#638B3A; stroke:#638B3A; stroke-width:0; }
.PIN_PASTEMASK_TOP {  fill:#638B3A; stroke:#638B3A; stroke-width:0; }
.VIA_FILMMASK_TOP {  fill:#638B3A; stroke:#638B3A; stroke-width:0; }
.PIN_FILMMASK_TOP {  fill:#638B3A; stroke:#638B3A; stroke-width:0; }
.PKGGEO_PASTEMASK_TOP {  fill:#638B3A; stroke:#638B3A; stroke-width:0; }
.PKGGEO_PLACE_BOUND_TOP {  fill:#638B3A; stroke:#638B3A; stroke-width:0; }
.PKGGEO_DFA_BOUND_TOP {  fill:#638B3A; stroke:#638B3A; stroke-width:0; }
.PKGGEO_ASSEMBLY_TOP {  fill:#75FFD9; stroke:#75FFD9; stroke-width:0; }
.PKGGEO_SILKSCREEN_TOP {  fill:#638B3A; stroke:#638B3A; stroke-width:0; }
.PKGGEO_DISPLAY_TOP {  fill:#638B3A; stroke:#638B3A; stroke-width:0; }
.PKGGEO_PIN_NUMBER {  fill:#638B3A;  font-family:Monospace; }
.BRDGEO_NCROUTE_PATH {  fill:#638B3A; stroke:#638B3A; stroke-width:0; }
.BRDGEO_CUTOUT {  fill:#638B3A; stroke:#638B3A; stroke-width:0; }
.BRDGEO_DESIGN_OUTLINE {  fill:#638B3A; stroke:#638B3A; stroke-width:0; }
.BRDGEO_WB_GUIDE_LINE {  fill:#638B3A; stroke:#638B3A; stroke-width:0; }
.BRDGEO_OFF_GRID_AREA {  fill:#638B3A; stroke:#638B3A; stroke-width:0; }
.BRDGEO_ASSEMBLY_DETAIL {  fill:#638B3A; stroke:#638B3A; stroke-width:0; }
.BRDGEO_SILKSCREEN_TOP {  fill:#638B3A; stroke:#638B3A; stroke-width:0; }
.BRDGEO_SWITCH_AREA_TOP {  fill:#638B3A; stroke:#638B3A; stroke-width:0; }
.BRDGEO_BOTH_ROOMS {  fill:#638B3A; stroke:#638B3A; stroke-width:0; }
.BRDGEO_BOTTOM_ROOM {  fill:#638B3A; stroke:#638B3A; stroke-width:0; }
.BRDGEO_TOP_ROOM {  fill:#638B3A; stroke:#638B3A; stroke-width:0; }
.BRDGEO_PLACE_GRID_TOP {  fill:#638B3A; stroke:#638B3A; stroke-width:0; }
.BRDGEO_DIMENSION {  fill:#638B3A; stroke:#638B3A; stroke-width:0; }
.BRDGEO_TOOLING_CORNERS {  fill:#638B3A; stroke:#638B3A; stroke-width:0; }
.BRDGEO_ASSEMBLY_NOTES {  fill:#638B3A; stroke:#638B3A; stroke-width:0; }
.BRDGEO_PLATING_BAR {  fill:#638B3A; stroke:#638B3A; stroke-width:0; }
.BRDGEO_OUTLINE {  fill:#ACACAC; stroke:#ACACAC; stroke-width:0; }
.COMPVAL_DISPLAY_TOP {  fill:#638B3A;  font-family:Monospace; }
.COMPVAL_SILKSCREEN_TOP {  fill:#638B3A;  font-family:Monospace; }
.COMPVAL_ASSEMBLY_TOP {  fill:#638B3A;  font-family:Monospace; }
.DEVTYPE_DISPLAY_TOP {  fill:#638B3A;  font-family:Monospace; }
.DEVTYPE_SILKSCREEN_TOP {  fill:#638B3A;  font-family:Monospace; }
.DEVTYPE_ASSEMBLY_TOP {  fill:#638B3A;  font-family:Monospace; }
.DRGFMT_DRAWING_ORIGIN {  fill:#638B3A; stroke:#638B3A; stroke-width:0; }
.DRGFMT_REVISION_DATA {  fill:#638B3A; stroke:#638B3A; stroke-width:0; }
.DRGFMT_REVISION_BLOCK {  fill:#638B3A; stroke:#638B3A; stroke-width:0; }
.DRGFMT_TITLE_DATA {  fill:#638B3A; stroke:#638B3A; stroke-width:0; }
.DRGFMT_TITLE_BLOCK {  fill:#638B3A; stroke:#638B3A; stroke-width:0; }
.DRGFMT_OUTLINE {  fill:#638B3A; stroke:#638B3A; stroke-width:0; }
.MFG_XSECTION_CHART {  fill:#638B3A; stroke:#638B3A; stroke-width:0; }
.MFG_NO_PROBE_TOP {  fill:#638B3A; stroke:#638B3A; stroke-width:0; }
.MFG_AUTOSILK_TOP {  fill:#638B3A; stroke:#638B3A; stroke-width:0; }
.MFG_PROBE_TOP {  fill:#638B3A; stroke:#638B3A; stroke-width:0; }
.MFG_NCDRILL_FIGURE {  fill:#638B3A; stroke:#638B3A; stroke-width:0; }
.MFG_NCDRILL_LEGEND {  fill:#638B3A; stroke:#638B3A; stroke-width:0; }
.MFG_NO_GLOSS_INTERNAL {  fill:#638B3A; stroke:#638B3A; stroke-width:0; }
.MFG_NO_GLOSS_TOP {  fill:#638B3A; stroke:#638B3A; stroke-width:0; }
.MFG_NO_GLOSS_ALL {  fill:#638B3A; stroke:#638B3A; stroke-width:0; }
.MFG_PHOTOPLOT_OUTLINE {  fill:#638B3A; stroke:#638B3A; stroke-width:0; }
.ANLYS___EPB_SCRATCH_ACON_SPACE_POLY {  fill:#26FF26; stroke:#26FF26; stroke-width:0; }
.ANLYS_PCB_TEMPERATURE {  fill:#638B3A; stroke:#638B3A; stroke-width:0; }
.ANLYS_HIGH_ISOCONTOUR {  fill:#638B3A; stroke:#638B3A; stroke-width:0; }
.ANLYS_MEDIUM3_ISOCONTOUR {  fill:#638B3A; stroke:#638B3A; stroke-width:0; }
.ANLYS_MEDIUM2_ISOCONTOUR {  fill:#638B3A; stroke:#638B3A; stroke-width:0; }
.ANLYS_MEDIUM1_ISOCONTOUR {  fill:#638B3A; stroke:#638B3A; stroke-width:0; }
.ANLYS_LOW_ISOCONTOUR {  fill:#638B3A; stroke:#638B3A; stroke-width:0; }
.PKGGEO_MODEL_OUTLINE {  fill:#638B3A; stroke:#638B3A; stroke-width:0; }
.PKGGEO_MODULES {  fill:#638B3A; stroke:#638B3A; stroke-width:0; }
.PKGGEO_BODY_CENTER {  fill:#638B3A; stroke:#638B3A; stroke-width:0; }
.PKGGEO_PAD_STACK_NAME {  fill:#638B3A; stroke:#638B3A; stroke-width:0; }
.PKGKPI_ALL {  fill:#95004A; stroke:#95004A; stroke-width:0; }
.PKGKPI_BOTTOM {  fill:#95004A; stroke:#95004A; stroke-width:0; }
.PKGKPI_TOP {  fill:#95004A; stroke:#95004A; stroke-width:0; }
.PKGKPI_ALL {  fill:#95004A; stroke:#95004A; stroke-width:0; }
.REFDES_DISPLAY_TOP {  fill:#0097B7;  font-family:Monospace; }
.REFDES_SILKSCREEN_TOP {  fill:#0097B7;  font-family:Monospace; }
.REFDES_ASSEMBLY_TOP {  fill:#0097B7;  font-family:Monospace; }
.RTEKPI_ALL {  fill:#F2B068; stroke:#F2B068; stroke-width:0; }
.RTEKPO_ALL {  fill:#9C8672; stroke:#9C8672; stroke-width:0; }
.TOL_DISPLAY_TOP {  fill:#638B3A;  font-family:Monospace; }
.TOL_SILKSCREEN_TOP {  fill:#638B3A;  font-family:Monospace; }
.TOL_ASSEMBLY_TOP {  fill:#638B3A;  font-family:Monospace; }
.PARTNO_DISPLAY_TOP {  fill:#638B3A;  font-family:Monospace; }
.PARTNO_SILKSCREEN_TOP {  fill:#638B3A;  font-family:Monospace; }
.PARTNO_ASSEMBLY_TOP {  fill:#638B3A;  font-family:Monospace; }
.VIAKPO_ALL {  fill:#9C8672; stroke:#9C8672; stroke-width:0; }
.ANTI_TOP {  fill:#26FF26; stroke:#26FF26; stroke-width:0; }
.ANTI_BOTTOM {  fill:#FFFF00; stroke:#FFFF00; stroke-width:0; }
.ANTI_ALL {  fill:#638B3A; stroke:#638B3A; stroke-width:0; }
.REG_TOP {  fill:#FF3399; stroke:#FF3399; stroke-width:0; }
.REG_BOTTOM {  fill:#FF3399; stroke:#FF3399; stroke-width:0; }
.REG_INNER_PLANE_LAYERS {  fill:#FF3399; stroke:#FF3399; stroke-width:0; }
.REG_INNER_SIGNAL_LAYERS {  fill:#FF3399; stroke:#FF3399; stroke-width:0; }
.REG_OUTER_LAYERS {  fill:#FF3399; stroke:#FF3399; stroke-width:0; }
.REG_ALL {  fill:#FF3399; stroke:#FF3399; stroke-width:0; }
.CAV_TOP {  fill:#26FF26; stroke:#26FF26; stroke-width:0; }
.CAV_BOTTOM {  fill:#FFFF00; stroke:#FFFF00; stroke-width:0; }
.RGDFLEX_STIFFENER_METAL_TOP {  fill:#638B3A; stroke:#638B3A; stroke-width:0; }
.RGDFLEX_STIFFENER_TOP {  fill:#638B3A; stroke:#638B3A; stroke-width:0; }
.RGDFLEX_EMI_SHIELD_TOP {  fill:#638B3A; stroke:#638B3A; stroke-width:0; }
.RGDFLEX_COVERLAY_TOP {  fill:#638B3A; stroke:#638B3A; stroke-width:0; }
.RGDFLEX_TRANSITION_ZONE {  fill:#638B3A; stroke:#638B3A; stroke-width:0; }
.RGDFLEX_BEND_LINE {  fill:#638B3A; stroke:#638B3A; stroke-width:0; }
.RGDFLEX_BEND_AREA {  fill:#638B3A; stroke:#638B3A; stroke-width:0; }
.RGDFLEX_ZONE_OUTLINE {  fill:#638B3A; stroke:#638B3A; stroke-width:0; }
.FINISH_SILVER_INK_TOP {  fill:#638B3A; stroke:#638B3A; stroke-width:0; }
.FINISH_CARBON_TOP {  fill:#638B3A; stroke:#638B3A; stroke-width:0; }
.FINISH_TIN_PLATE_TOP {  fill:#638B3A; stroke:#638B3A; stroke-width:0; }
.FINISH_GOLD_SOFT_TOP {  fill:#638B3A; stroke:#638B3A; stroke-width:0; }
.FINISH_GOLD_HARD_TOP {  fill:#638B3A; stroke:#638B3A; stroke-width:0; }
.FINISH_OSP_TOP {  fill:#638B3A; stroke:#638B3A; stroke-width:0; }
.FINISH_IMMERSION_SILVER_TOP {  fill:#638B3A; stroke:#638B3A; stroke-width:0; }
.FINISH_IMMERSION_TIN_TOP {  fill:#638B3A; stroke:#638B3A; stroke-width:0; }
.FINISH_ENEPIG_TOP {  fill:#638B3A; stroke:#638B3A; stroke-width:0; }
.FINISH_ENIG_TOP {  fill:#638B3A; stroke:#638B3A; stroke-width:0; }
.ORIGIN {  fill:#638B3A; stroke:#638B3A; stroke-width:0; }
]]>
  </style>
<title>Generated by PCB Editor</title>
  <g class="SVGBG">
    <rect  x="0" y="0" width="1742" height="2000" />
  </g>
  <g class="PIN_SOLDERMASK_BOTTOM">
     <path class="PIN" d="M 249.149 622.259 A 58.914 58.914 0 1 0 131.321 622.259 A 58.914 58.914 0 1 0 249.149 622.259"  />
     <path class="PIN" d="M 324.189 735.928 A 34.147 34.147 0 1 0 255.895 735.928 A 34.147 34.147 0 1 0 324.189 735.928"  />
     <path class="PIN" d="M 382.872 853.293 A 34.147 34.147 0 1 0 314.578 853.293 A 34.147 34.147 0 1 0 382.872 853.293"  />
     <path class="PIN" d="M 441.554 735.928 A 34.147 34.147 0 1 0 373.26 735.928 A 34.147 34.147 0 1 0 441.554 735.928"  />
     <path class="PIN" d="M 500.237 853.293 A 34.147 34.147 0 1 0 431.943 853.293 A 34.147 34.147 0 1 0 500.237 853.293"  />
     <path class="PIN" d="M 558.919 735.928 A 34.147 34.147 0 1 0 490.625 735.928 A 34.147 34.147 0 1 0 558.919 735.928"  />
     <path class="PIN" d="M 617.602 853.293 A 34.147 34.147 0 1 0 549.308 853.293 A 34.147 34.147 0 1 0 617.602 853.293"  />
     <path class="PIN" d="M 676.285 735.928 A 34.147 34.147 0 1 0 607.991 735.928 A 34.147 34.147 0 1 0 676.285 735.928"  />
     <path class="PIN" d="M 734.967 853.293 A 34.147 34.147 0 1 0 666.673 853.293 A 34.147 34.147 0 1 0 734.967 853.293"  />
     <path class="PIN" d="M 793.65 735.928 A 34.147 34.147 0 1 0 725.356 735.928 A 34.147 34.147 0 1 0 793.65 735.928"  />
     <path class="PIN" d="M 852.333 853.293 A 34.147 34.147 0 1 0 784.039 853.293 A 34.147 34.147 0 1 0 852.333 853.293"  />
     <path class="PIN" d="M 976.906 622.259 A 58.914 58.914 0 1 0 859.078 622.259 A 58.914 58.914 0 1 0 976.906 622.259"  />
     <path class="PIN" d="M 1117.98 1836.251 A 25.418 25.418 0 1 0 1067.144 1836.251 A 25.418 25.418 0 1 0 1117.98 1836.251"  />
     <path class="PIN" d="M 1117.98 1637.561 A 25.418 25.418 0 1 0 1067.144 1637.561 A 25.418 25.418 0 1 0 1117.98 1637.561"  />
     <path class="PIN" d="M 1339.772 1836.251 A 25.418 25.418 0 1 0 1288.936 1836.251 A 25.418 25.418 0 1 0 1339.772 1836.251"  />
     <path class="PIN" d="M 1339.772 1637.561 A 25.418 25.418 0 1 0 1288.936 1637.561 A 25.418 25.418 0 1 0 1339.772 1637.561"  />
     <path class="HOLE" d="M 229.511 622.259 A 39.276 39.276 0 1 0 150.959 622.259 A 39.276 39.276 0 1 0 229.511 622.259"  />
     <path class="HOLE" d="M 311.99 735.928 A 21.948 21.948 0 1 0 268.094 735.928 A 21.948 21.948 0 1 0 311.99 735.928"  />
     <path class="HOLE" d="M 370.673 853.293 A 21.948 21.948 0 1 0 326.777 853.293 A 21.948 21.948 0 1 0 370.673 853.293"  />
     <path class="HOLE" d="M 429.355 735.928 A 21.948 21.948 0 1 0 385.459 735.928 A 21.948 21.948 0 1 0 429.355 735.928"  />
     <path class="HOLE" d="M 488.038 853.293 A 21.948 21.948 0 1 0 444.142 853.293 A 21.948 21.948 0 1 0 488.038 853.293"  />
     <path class="HOLE" d="M 546.72 735.928 A 21.948 21.948 0 1 0 502.824 735.928 A 21.948 21.948 0 1 0 546.72 735.928"  />
     <path class="HOLE" d="M 605.403 853.293 A 21.948 21.948 0 1 0 561.507 853.293 A 21.948 21.948 0 1 0 605.403 853.293"  />
     <path class="HOLE" d="M 664.086 735.928 A 21.948 21.948 0 1 0 620.19 735.928 A 21.948 21.948 0 1 0 664.086 735.928"  />
     <path class="HOLE" d="M 722.768 853.293 A 21.948 21.948 0 1 0 678.872 853.293 A 21.948 21.948 0 1 0 722.768 853.293"  />
     <path class="HOLE" d="M 781.451 735.928 A 21.948 21.948 0 1 0 737.555 735.928 A 21.948 21.948 0 1 0 781.451 735.928"  />
     <path class="HOLE" d="M 840.134 853.293 A 21.948 21.948 0 1 0 796.238 853.293 A 21.948 21.948 0 1 0 840.134 853.293"  />
     <path class="HOLE" d="M 957.268 622.259 A 39.276 39.276 0 1 0 878.716 622.259 A 39.276 39.276 0 1 0 957.268 622.259"  />
     <path class="HOLE" d="M 1108.734 1836.251 A 16.172 16.172 0 1 0 1076.39 1836.251 A 16.172 16.172 0 1 0 1108.734 1836.251"  />
     <path class="HOLE" d="M 1108.734 1637.561 A 16.172 16.172 0 1 0 1076.39 1637.561 A 16.172 16.172 0 1 0 1108.734 1637.561"  />
     <path class="HOLE" d="M 1330.526 1836.251 A 16.172 16.172 0 1 0 1298.182 1836.251 A 16.172 16.172 0 1 0 1330.526 1836.251"  />
     <path class="HOLE" d="M 1330.526 1637.561 A 16.172 16.172 0 1 0 1298.182 1637.561 A 16.172 16.172 0 1 0 1330.526 1637.561"  />
  </g>
  <g class="COND_BOTTOM">
     <path class="PIN" d="M 368.594 442.515 A 78.552 78.552 0 1 0 211.49 442.515 A 78.552 78.552 0 1 0 368.594 442.515"  />
     <path class="PIN" d="M 249.149 622.259 A 58.914 58.914 0 1 0 131.321 622.259 A 58.914 58.914 0 1 0 249.149 622.259"  />
     <path class="PIN" d="M 324.189 735.928 A 34.147 34.147 0 1 0 255.895 735.928 A 34.147 34.147 0 1 0 324.189 735.928"  />
     <path class="PIN" d="M 382.872 853.293 A 34.147 34.147 0 1 0 314.578 853.293 A 34.147 34.147 0 1 0 382.872 853.293"  />
     <path class="PIN" d="M 441.554 735.928 A 34.147 34.147 0 1 0 373.26 735.928 A 34.147 34.147 0 1 0 441.554 735.928"  />
     <path class="PIN" d="M 500.237 853.293 A 34.147 34.147 0 1 0 431.943 853.293 A 34.147 34.147 0 1 0 500.237 853.293"  />
     <path class="PIN" d="M 558.919 735.928 A 34.147 34.147 0 1 0 490.625 735.928 A 34.147 34.147 0 1 0 558.919 735.928"  />
     <path class="PIN" d="M 617.602 853.293 A 34.147 34.147 0 1 0 549.308 853.293 A 34.147 34.147 0 1 0 617.602 853.293"  />
     <path class="PIN" d="M 676.285 735.928 A 34.147 34.147 0 1 0 607.991 735.928 A 34.147 34.147 0 1 0 676.285 735.928"  />
     <path class="PIN" d="M 734.967 853.293 A 34.147 34.147 0 1 0 666.673 853.293 A 34.147 34.147 0 1 0 734.967 853.293"  />
     <path class="PIN" d="M 793.65 735.928 A 34.147 34.147 0 1 0 725.356 735.928 A 34.147 34.147 0 1 0 793.65 735.928"  />
     <path class="PIN" d="M 852.333 853.293 A 34.147 34.147 0 1 0 784.039 853.293 A 34.147 34.147 0 1 0 852.333 853.293"  />
     <path class="PIN" d="M 896.738 442.515 A 78.552 78.552 0 1 0 739.634 442.515 A 78.552 78.552 0 1 0 896.738 442.515"  />
     <path class="PIN" d="M 976.906 622.259 A 58.914 58.914 0 1 0 859.078 622.259 A 58.914 58.914 0 1 0 976.906 622.259"  />
     <path class="PIN" d="M 1117.98 1836.251 A 25.418 25.418 0 1 0 1067.144 1836.251 A 25.418 25.418 0 1 0 1117.98 1836.251"  />
     <path class="PIN" d="M 1117.98 1637.561 A 25.418 25.418 0 1 0 1067.144 1637.561 A 25.418 25.418 0 1 0 1117.98 1637.561"  />
     <path class="PIN" d="M 1044.044 1736.906 A 13.862 13.862 0 1 0 1016.32 1736.906 A 13.862 13.862 0 1 0 1044.044 1736.906"  />
     <path class="PIN" d="M 1339.772 1836.251 A 25.418 25.418 0 1 0 1288.936 1836.251 A 25.418 25.418 0 1 0 1339.772 1836.251"  />
     <path class="PIN" d="M 1339.772 1637.561 A 25.418 25.418 0 1 0 1288.936 1637.561 A 25.418 25.418 0 1 0 1339.772 1637.561"  />
     <path class="PIN" d="M 1403.764 1736.906 A 27.031 27.031 0 1 0 1349.702 1736.906 A 27.031 27.031 0 1 0 1403.764 1736.906"  />
     <path class="HOLE" d="M 368.594 442.515 A 78.552 78.552 0 1 0 211.49 442.515 A 78.552 78.552 0 1 0 368.594 442.515"  />
     <path class="HOLE" d="M 229.511 622.259 A 39.276 39.276 0 1 0 150.959 622.259 A 39.276 39.276 0 1 0 229.511 622.259"  />
     <path class="HOLE" d="M 311.99 735.928 A 21.948 21.948 0 1 0 268.094 735.928 A 21.948 21.948 0 1 0 311.99 735.928"  />
     <path class="HOLE" d="M 370.673 853.293 A 21.948 21.948 0 1 0 326.777 853.293 A 21.948 21.948 0 1 0 370.673 853.293"  />
     <path class="HOLE" d="M 429.355 735.928 A 21.948 21.948 0 1 0 385.459 735.928 A 21.948 21.948 0 1 0 429.355 735.928"  />
     <path class="HOLE" d="M 488.038 853.293 A 21.948 21.948 0 1 0 444.142 853.293 A 21.948 21.948 0 1 0 488.038 853.293"  />
     <path class="HOLE" d="M 546.72 735.928 A 21.948 21.948 0 1 0 502.824 735.928 A 21.948 21.948 0 1 0 546.72 735.928"  />
     <path class="HOLE" d="M 605.403 853.293 A 21.948 21.948 0 1 0 561.507 853.293 A 21.948 21.948 0 1 0 605.403 853.293"  />
     <path class="HOLE" d="M 664.086 735.928 A 21.948 21.948 0 1 0 620.19 735.928 A 21.948 21.948 0 1 0 664.086 735.928"  />
     <path class="HOLE" d="M 722.768 853.293 A 21.948 21.948 0 1 0 678.872 853.293 A 21.948 21.948 0 1 0 722.768 853.293"  />
     <path class="HOLE" d="M 781.451 735.928 A 21.948 21.948 0 1 0 737.555 735.928 A 21.948 21.948 0 1 0 781.451 735.928"  />
     <path class="HOLE" d="M 840.134 853.293 A 21.948 21.948 0 1 0 796.238 853.293 A 21.948 21.948 0 1 0 840.134 853.293"  />
     <path class="HOLE" d="M 896.738 442.515 A 78.552 78.552 0 1 0 739.634 442.515 A 78.552 78.552 0 1 0 896.738 442.515"  />
     <path class="HOLE" d="M 957.268 622.259 A 39.276 39.276 0 1 0 878.716 622.259 A 39.276 39.276 0 1 0 957.268 622.259"  />
     <path class="HOLE" d="M 1108.734 1836.251 A 16.172 16.172 0 1 0 1076.39 1836.251 A 16.172 16.172 0 1 0 1108.734 1836.251"  />
     <path class="HOLE" d="M 1108.734 1637.561 A 16.172 16.172 0 1 0 1076.39 1637.561 A 16.172 16.172 0 1 0 1108.734 1637.561"  />
     <path class="HOLE" d="M 1044.039 1736.906 A 13.857 13.857 0 1 0 1016.325 1736.906 A 13.857 13.857 0 1 0 1044.039 1736.906"  />
     <path class="HOLE" d="M 1330.526 1836.251 A 16.172 16.172 0 1 0 1298.182 1836.251 A 16.172 16.172 0 1 0 1330.526 1836.251"  />
     <path class="HOLE" d="M 1330.526 1637.561 A 16.172 16.172 0 1 0 1298.182 1637.561 A 16.172 16.172 0 1 0 1330.526 1637.561"  />
     <path class="HOLE" d="M 1403.764 1736.906 A 27.031 27.031 0 1 0 1349.702 1736.906 A 27.031 27.031 0 1 0 1403.764 1736.906"  />
  </g>
  <g class="COND_TOP">
     <path class="LINE" d="M 290.042 735.928 L 290.042 1041.078 L 471.958 1222.994 L 1150.597 1222.994"   stroke-width="23.658" fill="none" stroke-linecap="round" stroke-linejoin="round"/>
     <path class="LINE" d="M 348.725 853.293 L 348.725 1029.341 L 483.695 1164.311 L 1150.597 1164.311"   stroke-width="11.737" fill="none" stroke-linecap="round" stroke-linejoin="round"/>
     <path class="LINE" d="M 407.407 735.928 L 407.407 1017.605 L 495.431 1105.629 L 1150.597 1105.629"   stroke-width="5.868" fill="none" stroke-linecap="round" stroke-linejoin="round"/>
     <path class="LINE" d="M 1150.597 1046.946 L 512.297 1046.946 L 466.09 1000.739 L 466.09 853.293"   stroke-width="46.207" fill="none" stroke-linecap="round" stroke-linejoin="round"/>
     <path class="LINE" d="M 1401.223 1105.629 L 1532.677 1105.629 L 1569.323 1142.275 L 1569.323 1143.195"   stroke-width="11.737" fill="none" stroke-linecap="round" stroke-linejoin="round"/>
     <path class="LINE" d="M 1401.223 1222.994 L 1557.582 1222.994 L 1569.323 1211.253 L 1569.323 1173.691"   stroke-width="11.737" fill="none" stroke-linecap="round" stroke-linejoin="round"/>
     <path class="PIN" d="M 368.594 442.515 A 78.552 78.552 0 1 0 211.49 442.515 A 78.552 78.552 0 1 0 368.594 442.515"  />
     <path class="PIN" d="M 249.149 622.259 A 58.914 58.914 0 1 0 131.321 622.259 A 58.914 58.914 0 1 0 249.149 622.259"  />
     <path class="PIN" d="M 324.189 735.928 A 34.147 34.147 0 1 0 255.895 735.928 A 34.147 34.147 0 1 0 324.189 735.928"  />
     <path class="PIN" d="M 382.872 853.293 A 34.147 34.147 0 1 0 314.578 853.293 A 34.147 34.147 0 1 0 382.872 853.293"  />
     <path class="PIN" d="M 441.554 735.928 A 34.147 34.147 0 1 0 373.26 735.928 A 34.147 34.147 0 1 0 441.554 735.928"  />
     <path class="PIN" d="M 500.237 853.293 A 34.147 34.147 0 1 0 431.943 853.293 A 34.147 34.147 0 1 0 500.237 853.293"  />
     <path class="PIN" d="M 558.919 735.928 A 34.147 34.147 0 1 0 490.625 735.928 A 34.147 34.147 0 1 0 558.919 735.928"  />
     <path class="PIN" d="M 617.602 853.293 A 34.147 34.147 0 1 0 549.308 853.293 A 34.147 34.147 0 1 0 617.602 853.293"  />
     <path class="PIN" d="M 676.285 735.928 A 34.147 34.147 0 1 0 607.991 735.928 A 34.147 34.147 0 1 0 676.285 735.928"  />
     <path class="PIN" d="M 734.967 853.293 A 34.147 34.147 0 1 0 666.673 853.293 A 34.147 34.147 0 1 0 734.967 853.293"  />
     <path class="PIN" d="M 793.65 735.928 A 34.147 34.147 0 1 0 725.356 735.928 A 34.147 34.147 0 1 0 793.65 735.928"  />
     <path class="PIN" d="M 852.333 853.293 A 34.147 34.147 0 1 0 784.039 853.293 A 34.147 34.147 0 1 0 852.333 853.293"  />
     <path class="PIN" d="M 896.738 442.515 A 78.552 78.552 0 1 0 739.634 442.515 A 78.552 78.552 0 1 0 896.738 442.515"  />
     <path class="PIN" d="M 976.906 622.259 A 58.914 58.914 0 1 0 859.078 622.259 A 58.914 58.914 0 1 0 976.906 622.259"  />
     <path class="PIN" d="M 1117.98 1836.251 A 25.418 25.418 0 1 0 1067.144 1836.251 A 25.418 25.418 0 1 0 1117.98 1836.251"  />
     <path class="PIN" d="M 1069.458 1795.127 L 1083.32 1795.127 L 1083.32 1755.855 L 1069.458 1755.855 L 1069.458 1795.127"  />
     <path class="PIN" d="M 1138.768 1795.127 L 1152.63 1795.127 L 1152.63 1755.855 L 1138.768 1755.855 L 1138.768 1795.127"  />
     <path class="PIN" d="M 1161.872 1795.127 L 1175.734 1795.127 L 1175.734 1755.855 L 1161.872 1755.855 L 1161.872 1795.127"  />
     <path class="PIN" d="M 1184.975 1795.127 L 1198.837 1795.127 L 1198.837 1755.855 L 1184.975 1755.855 L 1184.975 1795.127"  />
     <path class="PIN" d="M 1208.079 1795.127 L 1221.941 1795.127 L 1221.941 1755.855 L 1208.079 1755.855 L 1208.079 1795.127"  />
     <path class="PIN" d="M 1231.182 1795.127 L 1245.044 1795.127 L 1245.044 1755.855 L 1231.182 1755.855 L 1231.182 1795.127"  />
     <path class="PIN" d="M 1254.285 1795.127 L 1268.147 1795.127 L 1268.147 1755.855 L 1254.285 1755.855 L 1254.285 1795.127"  />
     <path class="PIN" d="M 1117.98 1637.561 A 25.418 25.418 0 1 0 1067.144 1637.561 A 25.418 25.418 0 1 0 1117.98 1637.561"  />
     <path class="PIN" d="M 1044.044 1736.906 A 13.862 13.862 0 1 0 1016.32 1736.906 A 13.862 13.862 0 1 0 1044.044 1736.906"  />
     <path class="PIN" d="M 1254.285 1717.961 L 1268.147 1717.961 L 1268.147 1678.69 L 1254.285 1678.69 L 1254.285 1717.961"  />
     <path class="PIN" d="M 1231.182 1717.961 L 1245.044 1717.961 L 1245.044 1678.69 L 1231.182 1678.69 L 1231.182 1717.961"  />
     <path class="PIN" d="M 1208.079 1717.961 L 1221.941 1717.961 L 1221.941 1678.69 L 1208.079 1678.69 L 1208.079 1717.961"  />
     <path class="PIN" d="M 1184.975 1717.961 L 1198.837 1717.961 L 1198.837 1678.69 L 1184.975 1678.69 L 1184.975 1717.961"  />
     <path class="PIN" d="M 1161.872 1717.961 L 1175.734 1717.961 L 1175.734 1678.69 L 1161.872 1678.69 L 1161.872 1717.961"  />
     <path class="PIN" d="M 1138.768 1717.961 L 1152.63 1717.961 L 1152.63 1678.69 L 1138.768 1678.69 L 1138.768 1717.961"  />
     <path class="PIN" d="M 1069.458 1717.961 L 1083.32 1717.961 L 1083.32 1678.69 L 1069.458 1678.69 L 1069.458 1717.961"  />
     <path class="PIN" d="M 1115.365 1472.742 L 1185.83 1472.742 L 1185.83 1442.707 L 1115.365 1442.707 L 1115.365 1472.742"  />
     <path class="PIN" d="M 1115.365 1414.059 L 1185.83 1414.059 L 1185.83 1384.025 L 1115.365 1384.025 L 1115.365 1414.059"  />
     <path class="PIN" d="M 1115.365 1355.376 L 1185.83 1355.376 L 1185.83 1325.342 L 1115.365 1325.342 L 1115.365 1355.376"  />
     <path class="PIN" d="M 1115.365 1296.694 L 1185.83 1296.694 L 1185.83 1266.659 L 1115.365 1266.659 L 1115.365 1296.694"  />
     <path class="PIN" d="M 1115.365 1238.011 L 1185.83 1238.011 L 1185.83 1207.977 L 1115.365 1207.977 L 1115.365 1238.011"  />
     <path class="PIN" d="M 1115.365 1179.329 L 1185.83 1179.329 L 1185.83 1149.294 L 1115.365 1149.294 L 1115.365 1179.329"  />
     <path class="PIN" d="M 1115.365 1120.646 L 1185.83 1120.646 L 1185.83 1090.612 L 1115.365 1090.612 L 1115.365 1120.646"  />
     <path class="PIN" d="M 1115.365 1061.963 L 1185.83 1061.963 L 1185.83 1031.929 L 1115.365 1031.929 L 1115.365 1061.963"  />
     <path class="PIN" d="M 1339.772 1836.251 A 25.418 25.418 0 1 0 1288.936 1836.251 A 25.418 25.418 0 1 0 1339.772 1836.251"  />
     <path class="PIN" d="M 1323.596 1795.127 L 1337.458 1795.127 L 1337.458 1755.855 L 1323.596 1755.855 L 1323.596 1795.127"  />
     <path class="PIN" d="M 1339.772 1637.561 A 25.418 25.418 0 1 0 1288.936 1637.561 A 25.418 25.418 0 1 0 1339.772 1637.561"  />
     <path class="PIN" d="M 1403.764 1736.906 A 27.031 27.031 0 1 0 1349.702 1736.906 A 27.031 27.031 0 1 0 1403.764 1736.906"  />
     <path class="PIN" d="M 1323.596 1717.961 L 1337.458 1717.961 L 1337.458 1678.69 L 1323.596 1678.69 L 1323.596 1717.961"  />
     <path class="PIN" d="M 1365.99 1472.742 L 1436.456 1472.742 L 1436.456 1442.707 L 1365.99 1442.707 L 1365.99 1472.742"  />
     <path class="PIN" d="M 1559.615 1153.822 L 1579.027 1153.822 L 1579.027 1132.567 L 1559.615 1132.567 L 1559.615 1153.822"  />
     <path class="PIN" d="M 1559.615 1184.319 L 1579.027 1184.319 L 1579.027 1163.064 L 1559.615 1163.064 L 1559.615 1184.319"  />
     <path class="PIN" d="M 1365.99 1120.646 L 1436.456 1120.646 L 1436.456 1090.612 L 1365.99 1090.612 L 1365.99 1120.646"  />
     <path class="PIN" d="M 1365.99 1179.329 L 1436.456 1179.329 L 1436.456 1149.294 L 1365.99 1149.294 L 1365.99 1179.329"  />
     <path class="PIN" d="M 1365.99 1238.011 L 1436.456 1238.011 L 1436.456 1207.977 L 1365.99 1207.977 L 1365.99 1238.011"  />
     <path class="PIN" d="M 1365.99 1296.694 L 1436.456 1296.694 L 1436.456 1266.659 L 1365.99 1266.659 L 1365.99 1296.694"  />
     <path class="PIN" d="M 1365.99 1355.376 L 1436.456 1355.376 L 1436.456 1325.342 L 1365.99 1325.342 L 1365.99 1355.376"  />
     <path class="PIN" d="M 1365.99 1414.059 L 1436.456 1414.059 L 1436.456 1384.025 L 1365.99 1384.025 L 1365.99 1414.059"  />
     <path class="PIN" d="M 1365.99 1061.963 L 1436.456 1061.963 L 1436.456 1031.929 L 1365.99 1031.929 L 1365.99 1061.963"  />
     <path class="HOLE" d="M 368.594 442.515 A 78.552 78.552 0 1 0 211.49 442.515 A 78.552 78.552 0 1 0 368.594 442.515"  />
     <path class="HOLE" d="M 229.511 622.259 A 39.276 39.276 0 1 0 150.959 622.259 A 39.276 39.276 0 1 0 229.511 622.259"  />
     <path class="HOLE" d="M 311.99 735.928 A 21.948 21.948 0 1 0 268.094 735.928 A 21.948 21.948 0 1 0 311.99 735.928"  />
     <path class="HOLE" d="M 370.673 853.293 A 21.948 21.948 0 1 0 326.777 853.293 A 21.948 21.948 0 1 0 370.673 853.293"  />
     <path class="HOLE" d="M 429.355 735.928 A 21.948 21.948 0 1 0 385.459 735.928 A 21.948 21.948 0 1 0 429.355 735.928"  />
     <path class="HOLE" d="M 488.038 853.293 A 21.948 21.948 0 1 0 444.142 853.293 A 21.948 21.948 0 1 0 488.038 853.293"  />
     <path class="HOLE" d="M 546.72 735.928 A 21.948 21.948 0 1 0 502.824 735.928 A 21.948 21.948 0 1 0 546.72 735.928"  />
     <path class="HOLE" d="M 605.403 853.293 A 21.948 21.948 0 1 0 561.507 853.293 A 21.948 21.948 0 1 0 605.403 853.293"  />
     <path class="HOLE" d="M 664.086 735.928 A 21.948 21.948 0 1 0 620.19 735.928 A 21.948 21.948 0 1 0 664.086 735.928"  />
     <path class="HOLE" d="M 722.768 853.293 A 21.948 21.948 0 1 0 678.872 853.293 A 21.948 21.948 0 1 0 722.768 853.293"  />
     <path class="HOLE" d="M 781.451 735.928 A 21.948 21.948 0 1 0 737.555 735.928 A 21.948 21.948 0 1 0 781.451 735.928"  />
     <path class="HOLE" d="M 840.134 853.293 A 21.948 21.948 0 1 0 796.238 853.293 A 21.948 21.948 0 1 0 840.134 853.293"  />
     <path class="HOLE" d="M 896.738 442.515 A 78.552 78.552 0 1 0 739.634 442.515 A 78.552 78.552 0 1 0 896.738 442.515"  />
     <path class="HOLE" d="M 957.268 622.259 A 39.276 39.276 0 1 0 878.716 622.259 A 39.276 39.276 0 1 0 957.268 622.259"  />
     <path class="HOLE" d="M 1108.734 1836.251 A 16.172 16.172 0 1 0 1076.39 1836.251 A 16.172 16.172 0 1 0 1108.734 1836.251"  />
     <path class="HOLE" d="M 1108.734 1637.561 A 16.172 16.172 0 1 0 1076.39 1637.561 A 16.172 16.172 0 1 0 1108.734 1637.561"  />
     <path class="HOLE" d="M 1044.039 1736.906 A 13.857 13.857 0 1 0 1016.325 1736.906 A 13.857 13.857 0 1 0 1044.039 1736.906"  />
     <path class="HOLE" d="M 1330.526 1836.251 A 16.172 16.172 0 1 0 1298.182 1836.251 A 16.172 16.172 0 1 0 1330.526 1836.251"  />
     <path class="HOLE" d="M 1330.526 1637.561 A 16.172 16.172 0 1 0 1298.182 1637.561 A 16.172 16.172 0 1 0 1330.526 1637.561"  />
     <path class="HOLE" d="M 1403.764 1736.906 A 27.031 27.031 0 1 0 1349.702 1736.906 A 27.031 27.031 0 1 0 1403.764 1736.906"  />
  </g>
  <g class="PIN_SOLDERMASK_TOP">
     <path class="PIN" d="M 249.149 622.259 A 58.914 58.914 0 1 0 131.321 622.259 A 58.914 58.914 0 1 0 249.149 622.259"  />
     <path class="PIN" d="M 324.189 735.928 A 34.147 34.147 0 1 0 255.895 735.928 A 34.147 34.147 0 1 0 324.189 735.928"  />
     <path class="PIN" d="M 382.872 853.293 A 34.147 34.147 0 1 0 314.578 853.293 A 34.147 34.147 0 1 0 382.872 853.293"  />
     <path class="PIN" d="M 441.554 735.928 A 34.147 34.147 0 1 0 373.26 735.928 A 34.147 34.147 0 1 0 441.554 735.928"  />
     <path class="PIN" d="M 500.237 853.293 A 34.147 34.147 0 1 0 431.943 853.293 A 34.147 34.147 0 1 0 500.237 853.293"  />
     <path class="PIN" d="M 558.919 735.928 A 34.147 34.147 0 1 0 490.625 735.928 A 34.147 34.147 0 1 0 558.919 735.928"  />
     <path class="PIN" d="M 617.602 853.293 A 34.147 34.147 0 1 0 549.308 853.293 A 34.147 34.147 0 1 0 617.602 853.293"  />
     <path class="PIN" d="M 676.285 735.928 A 34.147 34.147 0 1 0 607.991 735.928 A 34.147 34.147 0 1 0 676.285 735.928"  />
     <path class="PIN" d="M 734.967 853.293 A 34.147 34.147 0 1 0 666.673 853.293 A 34.147 34.147 0 1 0 734.967 853.293"  />
     <path class="PIN" d="M 793.65 735.928 A 34.147 34.147 0 1 0 725.356 735.928 A 34.147 34.147 0 1 0 793.65 735.928"  />
     <path class="PIN" d="M 852.333 853.293 A 34.147 34.147 0 1 0 784.039 853.293 A 34.147 34.147 0 1 0 852.333 853.293"  />
     <path class="PIN" d="M 976.906 622.259 A 58.914 58.914 0 1 0 859.078 622.259 A 58.914 58.914 0 1 0 976.906 622.259"  />
     <path class="PIN" d="M 1117.98 1836.251 A 25.418 25.418 0 1 0 1067.144 1836.251 A 25.418 25.418 0 1 0 1117.98 1836.251"  />
     <path class="PIN" d="M 1069.458 1795.127 L 1083.32 1795.127 L 1083.32 1755.855 L 1069.458 1755.855 L 1069.458 1795.127"  />
     <path class="PIN" d="M 1138.768 1795.127 L 1152.63 1795.127 L 1152.63 1755.855 L 1138.768 1755.855 L 1138.768 1795.127"  />
     <path class="PIN" d="M 1161.872 1795.127 L 1175.734 1795.127 L 1175.734 1755.855 L 1161.872 1755.855 L 1161.872 1795.127"  />
     <path class="PIN" d="M 1184.975 1795.127 L 1198.837 1795.127 L 1198.837 1755.855 L 1184.975 1755.855 L 1184.975 1795.127"  />
     <path class="PIN" d="M 1208.079 1795.127 L 1221.941 1795.127 L 1221.941 1755.855 L 1208.079 1755.855 L 1208.079 1795.127"  />
     <path class="PIN" d="M 1231.182 1795.127 L 1245.044 1795.127 L 1245.044 1755.855 L 1231.182 1755.855 L 1231.182 1795.127"  />
     <path class="PIN" d="M 1254.285 1795.127 L 1268.147 1795.127 L 1268.147 1755.855 L 1254.285 1755.855 L 1254.285 1795.127"  />
     <path class="PIN" d="M 1117.98 1637.561 A 25.418 25.418 0 1 0 1067.144 1637.561 A 25.418 25.418 0 1 0 1117.98 1637.561"  />
     <path class="PIN" d="M 1254.285 1717.961 L 1268.147 1717.961 L 1268.147 1678.69 L 1254.285 1678.69 L 1254.285 1717.961"  />
     <path class="PIN" d="M 1231.182 1717.961 L 1245.044 1717.961 L 1245.044 1678.69 L 1231.182 1678.69 L 1231.182 1717.961"  />
     <path class="PIN" d="M 1208.079 1717.961 L 1221.941 1717.961 L 1221.941 1678.69 L 1208.079 1678.69 L 1208.079 1717.961"  />
     <path class="PIN" d="M 1184.975 1717.961 L 1198.837 1717.961 L 1198.837 1678.69 L 1184.975 1678.69 L 1184.975 1717.961"  />
     <path class="PIN" d="M 1161.872 1717.961 L 1175.734 1717.961 L 1175.734 1678.69 L 1161.872 1678.69 L 1161.872 1717.961"  />
     <path class="PIN" d="M 1138.768 1717.961 L 1152.63 1717.961 L 1152.63 1678.69 L 1138.768 1678.69 L 1138.768 1717.961"  />
     <path class="PIN" d="M 1069.458 1717.961 L 1083.32 1717.961 L 1083.32 1678.69 L 1069.458 1678.69 L 1069.458 1717.961"  />
     <path class="PIN" d="M 1115.365 1472.742 L 1185.83 1472.742 L 1185.83 1442.707 L 1115.365 1442.707 L 1115.365 1472.742"  />
     <path class="PIN" d="M 1115.365 1414.059 L 1185.83 1414.059 L 1185.83 1384.025 L 1115.365 1384.025 L 1115.365 1414.059"  />
     <path class="PIN" d="M 1115.365 1355.376 L 1185.83 1355.376 L 1185.83 1325.342 L 1115.365 1325.342 L 1115.365 1355.376"  />
     <path class="PIN" d="M 1115.365 1296.694 L 1185.83 1296.694 L 1185.83 1266.659 L 1115.365 1266.659 L 1115.365 1296.694"  />
     <path class="PIN" d="M 1115.365 1238.011 L 1185.83 1238.011 L 1185.83 1207.977 L 1115.365 1207.977 L 1115.365 1238.011"  />
     <path class="PIN" d="M 1115.365 1179.329 L 1185.83 1179.329 L 1185.83 1149.294 L 1115.365 1149.294 L 1115.365 1179.329"  />
     <path class="PIN" d="M 1115.365 1120.646 L 1185.83 1120.646 L 1185.83 1090.612 L 1115.365 1090.612 L 1115.365 1120.646"  />
     <path class="PIN" d="M 1115.365 1061.963 L 1185.83 1061.963 L 1185.83 1031.929 L 1115.365 1031.929 L 1115.365 1061.963"  />
     <path class="PIN" d="M 1339.772 1836.251 A 25.418 25.418 0 1 0 1288.936 1836.251 A 25.418 25.418 0 1 0 1339.772 1836.251"  />
     <path class="PIN" d="M 1323.596 1795.127 L 1337.458 1795.127 L 1337.458 1755.855 L 1323.596 1755.855 L 1323.596 1795.127"  />
     <path class="PIN" d="M 1339.772 1637.561 A 25.418 25.418 0 1 0 1288.936 1637.561 A 25.418 25.418 0 1 0 1339.772 1637.561"  />
     <path class="PIN" d="M 1323.596 1717.961 L 1337.458 1717.961 L 1337.458 1678.69 L 1323.596 1678.69 L 1323.596 1717.961"  />
     <path class="PIN" d="M 1365.99 1472.742 L 1436.456 1472.742 L 1436.456 1442.707 L 1365.99 1442.707 L 1365.99 1472.742"  />
     <path class="PIN" d="M 1365.99 1120.646 L 1436.456 1120.646 L 1436.456 1090.612 L 1365.99 1090.612 L 1365.99 1120.646"  />
     <path class="PIN" d="M 1365.99 1179.329 L 1436.456 1179.329 L 1436.456 1149.294 L 1365.99 1149.294 L 1365.99 1179.329"  />
     <path class="PIN" d="M 1365.99 1238.011 L 1436.456 1238.011 L 1436.456 1207.977 L 1365.99 1207.977 L 1365.99 1238.011"  />
     <path class="PIN" d="M 1365.99 1296.694 L 1436.456 1296.694 L 1436.456 1266.659 L 1365.99 1266.659 L 1365.99 1296.694"  />
     <path class="PIN" d="M 1365.99 1355.376 L 1436.456 1355.376 L 1436.456 1325.342 L 1365.99 1325.342 L 1365.99 1355.376"  />
     <path class="PIN" d="M 1365.99 1414.059 L 1436.456 1414.059 L 1436.456 1384.025 L 1365.99 1384.025 L 1365.99 1414.059"  />
     <path class="PIN" d="M 1365.99 1061.963 L 1436.456 1061.963 L 1436.456 1031.929 L 1365.99 1031.929 L 1365.99 1061.963"  />
     <path class="HOLE" d="M 229.511 622.259 A 39.276 39.276 0 1 0 150.959 622.259 A 39.276 39.276 0 1 0 229.511 622.259"  />
     <path class="HOLE" d="M 311.99 735.928 A 21.948 21.948 0 1 0 268.094 735.928 A 21.948 21.948 0 1 0 311.99 735.928"  />
     <path class="HOLE" d="M 370.673 853.293 A 21.948 21.948 0 1 0 326.777 853.293 A 21.948 21.948 0 1 0 370.673 853.293"  />
     <path class="HOLE" d="M 429.355 735.928 A 21.948 21.948 0 1 0 385.459 735.928 A 21.948 21.948 0 1 0 429.355 735.928"  />
     <path class="HOLE" d="M 488.038 853.293 A 21.948 21.948 0 1 0 444.142 853.293 A 21.948 21.948 0 1 0 488.038 853.293"  />
     <path class="HOLE" d="M 546.72 735.928 A 21.948 21.948 0 1 0 502.824 735.928 A 21.948 21.948 0 1 0 546.72 735.928"  />
     <path class="HOLE" d="M 605.403 853.293 A 21.948 21.948 0 1 0 561.507 853.293 A 21.948 21.948 0 1 0 605.403 853.293"  />
     <path class="HOLE" d="M 664.086 735.928 A 21.948 21.948 0 1 0 620.19 735.928 A 21.948 21.948 0 1 0 664.086 735.928"  />
     <path class="HOLE" d="M 722.768 853.293 A 21.948 21.948 0 1 0 678.872 853.293 A 21.948 21.948 0 1 0 722.768 853.293"  />
     <path class="HOLE" d="M 781.451 735.928 A 21.948 21.948 0 1 0 737.555 735.928 A 21.948 21.948 0 1 0 781.451 735.928"  />
     <path class="HOLE" d="M 840.134 853.293 A 21.948 21.948 0 1 0 796.238 853.293 A 21.948 21.948 0 1 0 840.134 853.293"  />
     <path class="HOLE" d="M 957.268 622.259 A 39.276 39.276 0 1 0 878.716 622.259 A 39.276 39.276 0 1 0 957.268 622.259"  />
     <path class="HOLE" d="M 1108.734 1836.251 A 16.172 16.172 0 1 0 1076.39 1836.251 A 16.172 16.172 0 1 0 1108.734 1836.251"  />
     <path class="HOLE" d="M 1108.734 1637.561 A 16.172 16.172 0 1 0 1076.39 1637.561 A 16.172 16.172 0 1 0 1108.734 1637.561"  />
     <path class="HOLE" d="M 1330.526 1836.251 A 16.172 16.172 0 1 0 1298.182 1836.251 A 16.172 16.172 0 1 0 1330.526 1836.251"  />
     <path class="HOLE" d="M 1330.526 1637.561 A 16.172 16.172 0 1 0 1298.182 1637.561 A 16.172 16.172 0 1 0 1330.526 1637.561"  />
  </g>
  <g class="PIN_PASTEMASK_TOP">
     <path class="PIN" d="M 1069.458 1795.127 L 1083.32 1795.127 L 1083.32 1755.855 L 1069.458 1755.855 L 1069.458 1795.127"  />
     <path class="PIN" d="M 1138.768 1795.127 L 1152.63 1795.127 L 1152.63 1755.855 L 1138.768 1755.855 L 1138.768 1795.127"  />
     <path class="PIN" d="M 1161.872 1795.127 L 1175.734 1795.127 L 1175.734 1755.855 L 1161.872 1755.855 L 1161.872 1795.127"  />
     <path class="PIN" d="M 1184.975 1795.127 L 1198.837 1795.127 L 1198.837 1755.855 L 1184.975 1755.855 L 1184.975 1795.127"  />
     <path class="PIN" d="M 1208.079 1795.127 L 1221.941 1795.127 L 1221.941 1755.855 L 1208.079 1755.855 L 1208.079 1795.127"  />
     <path class="PIN" d="M 1231.182 1795.127 L 1245.044 1795.127 L 1245.044 1755.855 L 1231.182 1755.855 L 1231.182 1795.127"  />
     <path class="PIN" d="M 1254.285 1795.127 L 1268.147 1795.127 L 1268.147 1755.855 L 1254.285 1755.855 L 1254.285 1795.127"  />
     <path class="PIN" d="M 1254.285 1717.961 L 1268.147 1717.961 L 1268.147 1678.69 L 1254.285 1678.69 L 1254.285 1717.961"  />
     <path class="PIN" d="M 1231.182 1717.961 L 1245.044 1717.961 L 1245.044 1678.69 L 1231.182 1678.69 L 1231.182 1717.961"  />
     <path class="PIN" d="M 1208.079 1717.961 L 1221.941 1717.961 L 1221.941 1678.69 L 1208.079 1678.69 L 1208.079 1717.961"  />
     <path class="PIN" d="M 1184.975 1717.961 L 1198.837 1717.961 L 1198.837 1678.69 L 1184.975 1678.69 L 1184.975 1717.961"  />
     <path class="PIN" d="M 1161.872 1717.961 L 1175.734 1717.961 L 1175.734 1678.69 L 1161.872 1678.69 L 1161.872 1717.961"  />
     <path class="PIN" d="M 1138.768 1717.961 L 1152.63 1717.961 L 1152.63 1678.69 L 1138.768 1678.69 L 1138.768 1717.961"  />
     <path class="PIN" d="M 1069.458 1717.961 L 1083.32 1717.961 L 1083.32 1678.69 L 1069.458 1678.69 L 1069.458 1717.961"  />
     <path class="PIN" d="M 1115.365 1472.742 L 1185.83 1472.742 L 1185.83 1442.707 L 1115.365 1442.707 L 1115.365 1472.742"  />
     <path class="PIN" d="M 1115.365 1414.059 L 1185.83 1414.059 L 1185.83 1384.025 L 1115.365 1384.025 L 1115.365 1414.059"  />
     <path class="PIN" d="M 1115.365 1355.376 L 1185.83 1355.376 L 1185.83 1325.342 L 1115.365 1325.342 L 1115.365 1355.376"  />
     <path class="PIN" d="M 1115.365 1296.694 L 1185.83 1296.694 L 1185.83 1266.659 L 1115.365 1266.659 L 1115.365 1296.694"  />
     <path class="PIN" d="M 1115.365 1238.011 L 1185.83 1238.011 L 1185.83 1207.977 L 1115.365 1207.977 L 1115.365 1238.011"  />
     <path class="PIN" d="M 1115.365 1179.329 L 1185.83 1179.329 L 1185.83 1149.294 L 1115.365 1149.294 L 1115.365 1179.329"  />
     <path class="PIN" d="M 1115.365 1120.646 L 1185.83 1120.646 L 1185.83 1090.612 L 1115.365 1090.612 L 1115.365 1120.646"  />
     <path class="PIN" d="M 1115.365 1061.963 L 1185.83 1061.963 L 1185.83 1031.929 L 1115.365 1031.929 L 1115.365 1061.963"  />
     <path class="PIN" d="M 1323.596 1795.127 L 1337.458 1795.127 L 1337.458 1755.855 L 1323.596 1755.855 L 1323.596 1795.127"  />
     <path class="PIN" d="M 1323.596 1717.961 L 1337.458 1717.961 L 1337.458 1678.69 L 1323.596 1678.69 L 1323.596 1717.961"  />
     <path class="PIN" d="M 1365.99 1472.742 L 1436.456 1472.742 L 1436.456 1442.707 L 1365.99 1442.707 L 1365.99 1472.742"  />
     <path class="PIN" d="M 1365.99 1120.646 L 1436.456 1120.646 L 1436.456 1090.612 L 1365.99 1090.612 L 1365.99 1120.646"  />
     <path class="PIN" d="M 1365.99 1179.329 L 1436.456 1179.329 L 1436.456 1149.294 L 1365.99 1149.294 L 1365.99 1179.329"  />
     <path class="PIN" d="M 1365.99 1238.011 L 1436.456 1238.011 L 1436.456 1207.977 L 1365.99 1207.977 L 1365.99 1238.011"  />
     <path class="PIN" d="M 1365.99 1296.694 L 1436.456 1296.694 L 1436.456 1266.659 L 1365.99 1266.659 L 1365.99 1296.694"  />
     <path class="PIN" d="M 1365.99 1355.376 L 1436.456 1355.376 L 1436.456 1325.342 L 1365.99 1325.342 L 1365.99 1355.376"  />
     <path class="PIN" d="M 1365.99 1414.059 L 1436.456 1414.059 L 1436.456 1384.025 L 1365.99 1384.025 L 1365.99 1414.059"  />
     <path class="PIN" d="M 1365.99 1061.963 L 1436.456 1061.963 L 1436.456 1031.929 L 1365.99 1031.929 L 1365.99 1061.963"  />
  </g>
  <g class="PKGGEO_PLACE_BOUND_TOP">
     <path class="SHAPE" d="M 1023.113 83.026 L 1023.113 978.514 L 85.115 978.514 L 85.115 83.026 L 1023.113 83.026"   />
     <path class="SHAPE" d="M 950.707 1907.871 L 950.707 1565.941 L 1456.209 1565.941 L 1456.209 1907.871 L 950.707 1907.871"   />
     <path class="SHAPE" d="M 1103.79 1494.921 L 1103.79 1009.75 L 1448.031 1009.75 L 1448.031 1494.921 L 1103.79 1494.921"   />
     <path class="SHAPE" d="M 1551.534 1124.481 L 1587.113 1124.481 L 1587.113 1192.405 L 1551.534 1192.405 L 1551.534 1124.481"   />
  </g>
  <g class="PKGGEO_ASSEMBLY_TOP">
     <path class="LINE" d="M 184.459 900.886 L 923.768 900.886"   stroke-width="9.241" fill="none" stroke-linecap="round" stroke-linejoin="round"/>
     <path class="LINE" d="M 184.459 129.233 L 184.459 900.886"   stroke-width="9.241" fill="none" stroke-linecap="round" stroke-linejoin="round"/>
     <path class="LINE" d="M 923.768 129.233 L 184.459 129.233"   stroke-width="9.241" fill="none" stroke-linecap="round" stroke-linejoin="round"/>
     <path class="LINE" d="M 923.768 900.886 L 923.768 129.233"   stroke-width="9.241" fill="none" stroke-linecap="round" stroke-linejoin="round"/>
     <path class="LINE" d="M 996.914 1809.913 L 996.914 1663.899"   stroke-width="4.621" fill="none" stroke-linecap="round" stroke-linejoin="round"/>
     <path class="LINE" d="M 1410.002 1809.913 L 996.914 1809.913"   stroke-width="4.621" fill="none" stroke-linecap="round" stroke-linejoin="round"/>
     <path class="LINE" d="M 996.914 1663.899 L 1410.002 1663.899"   stroke-width="4.621" fill="none" stroke-linecap="round" stroke-linejoin="round"/>
     <path class="LINE" d="M 1185.807 1481.059 L 1185.807 1023.612"   stroke-width="4.621" fill="none" stroke-linecap="round" stroke-linejoin="round"/>
     <path class="LINE" d="M 1366.013 1481.059 L 1185.807 1481.059"   stroke-width="4.621" fill="none" stroke-linecap="round" stroke-linejoin="round"/>
     <path class="LINE" d="M 1185.807 1082.294 L 1244.49 1023.612"   stroke-width="4.621" fill="none" stroke-linecap="round" stroke-linejoin="round"/>
     <path class="LINE" d="M 1185.807 1023.612 L 1366.013 1023.612"   stroke-width="4.621" fill="none" stroke-linecap="round" stroke-linejoin="round"/>
     <path class="LINE" d="M 1410.002 1663.899 L 1410.002 1809.913"   stroke-width="4.621" fill="none" stroke-linecap="round" stroke-linejoin="round"/>
     <path class="LINE" d="M 1366.013 1023.612 L 1366.013 1481.059"   stroke-width="4.621" fill="none" stroke-linecap="round" stroke-linejoin="round"/>
     <path class="LINE" d="M 1576.254 1144.581 L 1576.254 1172.305"   stroke-width="4.621" fill="none" stroke-linecap="round" stroke-linejoin="round"/>
     <path class="LINE" d="M 1576.254 1172.305 L 1562.392 1172.305"   stroke-width="4.621" fill="none" stroke-linecap="round" stroke-linejoin="round"/>
     <path class="LINE" d="M 1562.392 1172.305 L 1562.392 1144.581"   stroke-width="4.621" fill="none" stroke-linecap="round" stroke-linejoin="round"/>
     <path class="LINE" d="M 1562.392 1144.581 L 1576.254 1144.581"   stroke-width="4.621" fill="none" stroke-linecap="round" stroke-linejoin="round"/>
  </g>
  <g class="PKGGEO_SILKSCREEN_TOP">
     <path class="LINE" d="M 184.459 708.204 L 184.459 900.886"   stroke-width="4.621" fill="none" stroke-linecap="round" stroke-linejoin="round"/>
     <path class="LINE" d="M 184.459 900.886 L 184.459 708.204"   stroke-width="4.621" fill="none" stroke-linecap="round" stroke-linejoin="round"/>
     <path class="LINE" d="M 184.459 900.886 L 923.768 900.886"   stroke-width="4.621" fill="none" stroke-linecap="round" stroke-linejoin="round"/>
     <path class="LINE" d="M 923.768 900.886 L 184.459 900.886"   stroke-width="4.621" fill="none" stroke-linecap="round" stroke-linejoin="round"/>
     <path class="LINE" d="M 184.459 130.619 L 184.459 534.929"   stroke-width="4.621" fill="none" stroke-linecap="round" stroke-linejoin="round"/>
     <path class="LINE" d="M 184.459 534.929 L 184.459 130.619"   stroke-width="4.621" fill="none" stroke-linecap="round" stroke-linejoin="round"/>
     <path class="LINE" d="M 925.385 130.619 L 184.459 130.619"   stroke-width="4.621" fill="none" stroke-linecap="round" stroke-linejoin="round"/>
     <path class="LINE" d="M 184.459 130.619 L 925.385 130.619"   stroke-width="4.621" fill="none" stroke-linecap="round" stroke-linejoin="round"/>
     <path class="LINE" d="M 816.799 932.307 A 2.31 2.31 0 0 0 816.799 927.686"   stroke-width="9.241" fill="none" stroke-linecap="round" stroke-linejoin="round"/>
     <path class="LINE" d="M 816.799 927.686 A 2.31 2.31 0 0 0 816.799 932.307"   stroke-width="9.241" fill="none" stroke-linecap="round" stroke-linejoin="round"/>
     <path class="LINE" d="M 816.799 932.307 A 2.31 2.31 0 0 0 816.799 927.686"   stroke-width="9.241" fill="none" stroke-linecap="round" stroke-linejoin="round"/>
     <path class="LINE" d="M 923.768 900.886 L 923.768 708.204"   stroke-width="4.621" fill="none" stroke-linecap="round" stroke-linejoin="round"/>
     <path class="LINE" d="M 923.768 708.204 L 923.768 900.886"   stroke-width="4.621" fill="none" stroke-linecap="round" stroke-linejoin="round"/>
     <path class="LINE" d="M 923.768 534.929 L 923.768 130.619"   stroke-width="4.621" fill="none" stroke-linecap="round" stroke-linejoin="round"/>
     <path class="LINE" d="M 923.768 130.619 L 923.768 534.929"   stroke-width="4.621" fill="none" stroke-linecap="round" stroke-linejoin="round"/>
     <path class="LINE" d="M 967.803 1698.323 A 2.31 2.31 0 0 0 972.424 1698.323"   stroke-width="4.621" fill="none" stroke-linecap="round" stroke-linejoin="round"/>
     <path class="LINE" d="M 972.424 1698.323 A 2.31 2.31 0 0 0 967.803 1698.323"   stroke-width="4.621" fill="none" stroke-linecap="round" stroke-linejoin="round"/>
     <path class="LINE" d="M 1201.979 1481.059 L 1201.979 1023.612"   stroke-width="9.241" fill="none" stroke-linecap="round" stroke-linejoin="round"/>
     <path class="LINE" d="M 1349.841 1481.059 L 1201.979 1481.059"   stroke-width="9.241" fill="none" stroke-linecap="round" stroke-linejoin="round"/>
     <path class="LINE" d="M 1115.342 1015.757 L 1185.807 1015.757"   stroke-width="9.241" fill="none" stroke-linecap="round" stroke-linejoin="round"/>
     <path class="LINE" d="M 1201.979 1023.612 L 1349.841 1023.612"   stroke-width="9.241" fill="none" stroke-linecap="round" stroke-linejoin="round"/>
     <path class="LINE" d="M 1349.841 1023.612 L 1349.841 1481.059"   stroke-width="9.241" fill="none" stroke-linecap="round" stroke-linejoin="round"/>
  </g>
  <g class="PKGGEO_PIN_NUMBER">
     <text class="LABEL" x="1401.223" y="1341.646"   font-size="12.9" text-anchor="middle" alignment-baseline="middle" transform=" rotate(-90, 1401.223, 1341.646)"> 11 </text>
     <text class="LABEL" x="1401.223" y="1282.964"   font-size="12.9" text-anchor="middle" alignment-baseline="middle" transform=" rotate(-90, 1401.223, 1282.964)"> 12 </text>
     <text class="LABEL" x="1401.223" y="1224.281"   font-size="12.9" text-anchor="middle" alignment-baseline="middle" transform=" rotate(-90, 1401.223, 1224.281)"> 13 </text>
     <text class="LABEL" x="1401.223" y="1165.599"   font-size="12.9" text-anchor="middle" alignment-baseline="middle" transform=" rotate(-90, 1401.223, 1165.599)"> 14 </text>
     <text class="LABEL" x="1401.223" y="1106.916"   font-size="12.9" text-anchor="middle" alignment-baseline="middle" transform=" rotate(-90, 1401.223, 1106.916)"> 15 </text>
     <text class="LABEL" x="1401.223" y="1048.233"   font-size="12.9" text-anchor="middle" alignment-baseline="middle" transform=" rotate(-90, 1401.223, 1048.233)"> 16 </text>
     <text class="LABEL" x="1569.323" y="1175.285"   font-size="15.9" text-anchor="middle" alignment-baseline="middle" > 2 </text>
     <text class="LABEL" x="1569.323" y="1144.789"   font-size="15.9" text-anchor="middle" alignment-baseline="middle" > 1 </text>
     <text class="LABEL" x="1401.223" y="1460.728"   font-size="30.0" text-anchor="middle" alignment-baseline="middle" transform=" rotate(-90, 1401.223, 1460.728)"> 9 </text>
     <text class="LABEL" x="1401.223" y="1400.329"   font-size="12.9" text-anchor="middle" alignment-baseline="middle" transform=" rotate(-90, 1401.223, 1400.329)"> 10 </text>
     <text class="LABEL" x="1150.597" y="1049.95"   font-size="30.0" text-anchor="middle" alignment-baseline="middle" transform=" rotate(-90, 1150.597, 1049.95)"> 1 </text>
     <text class="LABEL" x="1150.597" y="1108.632"   font-size="30.0" text-anchor="middle" alignment-baseline="middle" transform=" rotate(-90, 1150.597, 1108.632)"> 2 </text>
     <text class="LABEL" x="1150.597" y="1167.315"   font-size="30.0" text-anchor="middle" alignment-baseline="middle" transform=" rotate(-90, 1150.597, 1167.315)"> 3 </text>
     <text class="LABEL" x="1150.597" y="1225.997"   font-size="30.0" text-anchor="middle" alignment-baseline="middle" transform=" rotate(-90, 1150.597, 1225.997)"> 4 </text>
     <text class="LABEL" x="1150.597" y="1284.68"   font-size="30.0" text-anchor="middle" alignment-baseline="middle" transform=" rotate(-90, 1150.597, 1284.68)"> 5 </text>
     <text class="LABEL" x="1150.597" y="1343.363"   font-size="30.0" text-anchor="middle" alignment-baseline="middle" transform=" rotate(-90, 1150.597, 1343.363)"> 6 </text>
     <text class="LABEL" x="1150.597" y="1402.045"   font-size="30.0" text-anchor="middle" alignment-baseline="middle" transform=" rotate(-90, 1150.597, 1402.045)"> 7 </text>
     <text class="LABEL" x="1150.597" y="1460.728"   font-size="30.0" text-anchor="middle" alignment-baseline="middle" transform=" rotate(-90, 1150.597, 1460.728)"> 8 </text>
     <text class="LABEL" x="1076.389" y="1698.917"   font-size="5.9" text-anchor="middle" alignment-baseline="middle" transform=" rotate(-360.0, 1076.389, 1698.917)"> A1 </text>
     <text class="LABEL" x="1145.699" y="1698.917"   font-size="5.9" text-anchor="middle" alignment-baseline="middle" transform=" rotate(-360.0, 1145.699, 1698.917)"> A4 </text>
     <text class="LABEL" x="1168.803" y="1698.917"   font-size="5.9" text-anchor="middle" alignment-baseline="middle" transform=" rotate(-360.0, 1168.803, 1698.917)"> A5 </text>
     <text class="LABEL" x="1191.906" y="1698.917"   font-size="5.9" text-anchor="middle" alignment-baseline="middle" transform=" rotate(-360.0, 1191.906, 1698.917)"> A6 </text>
     <text class="LABEL" x="1215.01" y="1698.917"   font-size="5.9" text-anchor="middle" alignment-baseline="middle" transform=" rotate(-360.0, 1215.01, 1698.917)"> A7 </text>
     <text class="LABEL" x="1238.113" y="1698.917"   font-size="5.9" text-anchor="middle" alignment-baseline="middle" transform=" rotate(-360.0, 1238.113, 1698.917)"> A8 </text>
     <text class="LABEL" x="1261.216" y="1698.917"   font-size="5.9" text-anchor="middle" alignment-baseline="middle" transform=" rotate(-360.0, 1261.216, 1698.917)"> A9 </text>
     <text class="LABEL" x="1330.527" y="1698.701"   font-size="3.8" text-anchor="middle" alignment-baseline="middle" transform=" rotate(-360.0, 1330.527, 1698.701)"> A12 </text>
     <text class="LABEL" x="1092.562" y="1638.948"   font-size="13.9" text-anchor="middle" alignment-baseline="middle" > MH3 </text>
     <text class="LABEL" x="1314.354" y="1638.948"   font-size="13.9" text-anchor="middle" alignment-baseline="middle" > MH4 </text>
     <text class="LABEL" x="1330.527" y="1776.083"   font-size="5.9" text-anchor="middle" alignment-baseline="middle" transform=" rotate(-360.0, 1330.527, 1776.083)"> B1 </text>
     <text class="LABEL" x="1261.216" y="1776.083"   font-size="5.9" text-anchor="middle" alignment-baseline="middle" transform=" rotate(-360.0, 1261.216, 1776.083)"> B4 </text>
     <text class="LABEL" x="1238.113" y="1776.083"   font-size="5.9" text-anchor="middle" alignment-baseline="middle" transform=" rotate(-360.0, 1238.113, 1776.083)"> B5 </text>
     <text class="LABEL" x="1215.01" y="1776.083"   font-size="5.9" text-anchor="middle" alignment-baseline="middle" transform=" rotate(-360.0, 1215.01, 1776.083)"> B6 </text>
     <text class="LABEL" x="1191.906" y="1776.083"   font-size="5.9" text-anchor="middle" alignment-baseline="middle" transform=" rotate(-360.0, 1191.906, 1776.083)"> B7 </text>
     <text class="LABEL" x="1168.803" y="1776.083"   font-size="5.9" text-anchor="middle" alignment-baseline="middle" transform=" rotate(-360.0, 1168.803, 1776.083)"> B8 </text>
     <text class="LABEL" x="1145.699" y="1776.083"   font-size="5.9" text-anchor="middle" alignment-baseline="middle" transform=" rotate(-360.0, 1145.699, 1776.083)"> B9 </text>
     <text class="LABEL" x="1076.389" y="1775.867"   font-size="3.8" text-anchor="middle" alignment-baseline="middle" transform=" rotate(-360.0, 1076.389, 1775.867)"> B12 </text>
     <text class="LABEL" x="1314.354" y="1837.637"   font-size="13.9" text-anchor="middle" alignment-baseline="middle" > MH5 </text>
     <text class="LABEL" x="1092.562" y="1837.637"   font-size="13.9" text-anchor="middle" alignment-baseline="middle" > MH6 </text>
     <text class="LABEL" x="818.186" y="858.415"   font-size="51.2" text-anchor="middle" alignment-baseline="middle" transform=" rotate(-360.0, 818.186, 858.415)"> 1 </text>
     <text class="LABEL" x="759.503" y="741.05"   font-size="51.2" text-anchor="middle" alignment-baseline="middle" transform=" rotate(-360.0, 759.503, 741.05)"> 2 </text>
     <text class="LABEL" x="700.82" y="858.415"   font-size="51.2" text-anchor="middle" alignment-baseline="middle" transform=" rotate(-360.0, 700.82, 858.415)"> 3 </text>
     <text class="LABEL" x="642.138" y="741.05"   font-size="51.2" text-anchor="middle" alignment-baseline="middle" transform=" rotate(-360.0, 642.138, 741.05)"> 4 </text>
     <text class="LABEL" x="917.992" y="625.473"   font-size="32.1" text-anchor="middle" alignment-baseline="middle" transform=" rotate(-360.0, 917.992, 625.473)"> MH1 </text>
     <text class="LABEL" x="583.455" y="858.415"   font-size="51.2" text-anchor="middle" alignment-baseline="middle" transform=" rotate(-360.0, 583.455, 858.415)"> 5 </text>
     <text class="LABEL" x="524.772" y="741.05"   font-size="51.2" text-anchor="middle" alignment-baseline="middle" transform=" rotate(-360.0, 524.772, 741.05)"> 6 </text>
     <text class="LABEL" x="466.09" y="858.415"   font-size="51.2" text-anchor="middle" alignment-baseline="middle" transform=" rotate(-360.0, 466.09, 858.415)"> 7 </text>
     <text class="LABEL" x="407.407" y="741.05"   font-size="51.2" text-anchor="middle" alignment-baseline="middle" transform=" rotate(-360.0, 407.407, 741.05)"> 8 </text>
     <text class="LABEL" x="348.725" y="858.415"   font-size="51.2" text-anchor="middle" alignment-baseline="middle" transform=" rotate(-360.0, 348.725, 858.415)"> 9 </text>
     <text class="LABEL" x="290.042" y="738.855"   font-size="29.3" text-anchor="middle" alignment-baseline="middle" transform=" rotate(-360.0, 290.042, 738.855)"> 10 </text>
     <text class="LABEL" x="190.235" y="625.473"   font-size="32.1" text-anchor="middle" alignment-baseline="middle" transform=" rotate(-360.0, 190.235, 625.473)"> MH2 </text>
  </g>
  <g class="BRDGEO_DESIGN_OUTLINE">
     <path class="POLYLINE" d="M 20.102 20.0 L 1592.796 20.0 L 1721.898 149.102 L 1721.898 1862.635 L 1604.533 1980.0 L 125.731 1980.0 L 20.102 1874.371 L 20.102 20.0"   stroke-width="1.15517" fill="none" stroke-linecap="round" stroke-linejoin="round"/>
  </g>
  <g class="REFDES_SILKSCREEN_TOP">
     <text class="LABEL" x="1289.181" y="1252.335"   font-size="132.7" text-anchor="middle" alignment-baseline="middle" transform=" rotate(-90, 1289.181, 1252.335)"> IC1 </text>
     <text class="LABEL" x="1569.323" y="1161.112"   font-size="26.7" text-anchor="middle" alignment-baseline="middle" transform=" rotate(-450.0, 1569.323, 1161.112)"> C1 </text>
     <text class="LABEL" x="1203.458" y="1758.671"   font-size="217.6" text-anchor="middle" alignment-baseline="middle" > J1 </text>
     <text class="LABEL" x="554.114" y="553.873"   font-size="231.0" text-anchor="middle" alignment-baseline="middle" transform=" rotate(-360.0, 554.114, 553.873)"> J2 </text>
  </g>
  <g class="REFDES_ASSEMBLY_TOP">
     <text class="LABEL" x="1289.181" y="1252.335"   font-size="132.7" text-anchor="middle" alignment-baseline="middle" transform=" rotate(-90, 1289.181, 1252.335)"> IC1 </text>
     <text class="LABEL" x="1203.458" y="1758.671"   font-size="217.6" text-anchor="middle" alignment-baseline="middle" > J1 </text>
     <text class="LABEL" x="554.114" y="553.873"   font-size="231.0" text-anchor="middle" alignment-baseline="middle" transform=" rotate(-360.0, 554.114, 553.873)"> J2 </text>
  </g>
  <g class="ORIGIN">
     <circle class="LINE" cx="-3653.431" cy="12683.71" r="13.862"   stroke-width="0.462068"  fill="none" stroke-linecap="round" stroke-linejoin="round"/>
     <path class="LINE" d="M -3681.155 12683.71 L -3625.707 12683.71"   stroke-width="0.462068" fill="none" stroke-linecap="round" stroke-linejoin="round"/>
     <path class="LINE" d="M -3653.431 12711.44 L -3653.431 12655.99"   stroke-width="0.462068" fill="none" stroke-linecap="round" stroke-linejoin="round"/>
  </g>
</svg>
