  0
SECTION
  2
HEADER
  9
$EXTMIN
 10
-0.303000
 20
-0.015000
  9
$EXTMAX
 10
6.875000
 20
1.918000
  9
$LIMMIN
 10
-0.303000
 20
-0.015000
  9
$LIMMAX
 10
6.875000
 20
1.918000
  9
$FILLMODE
 70
  1
  0
ENDSEC
  0
SECTION
  2
TABLES
  0
TABLE
  2
LTYPE
 70
  1
  0
LTYPE
  2
CONTINUOUS
 70
 64
  3
Solid line
 72
 65
 73
  0
 40
0.0
  0
ENDTAB
  0
TABLE
  2
LAYER
 70
 1
  0
LAYER
  2
0
 70
  0
 62
7
  6
CONTINUOUS
  0
LAYER
  2
gbo
 70
  0
 62
1
  6
CONTINUOUS
  0
LAYER
  2
gm1
 70
  0
 62
6
  6
CONTINUOUS
  0
ENDTAB
  0
TABLE
  2
STYLE
 70
  1
  0
STYLE
  2
STANDARD
 70
  0
 40
0.0
 41
1.0
 50
0.0
 71
  0
 42
0.2
  3
txt
  4

  0
ENDTAB
  0
ENDSEC
  0
SECTION
  2
BLOCKS
  0
BLOCK
  8
0
  2
D10
 70
64
 10
0.0
 20
0.0
  3
D10
  0
CIRCLE
  8
0
 10
0.000000
 20
0.000000
 40
0.007500
 0
ENDBLK
  8
0
  0
BLOCK
  8
0
  2
D11
 70
64
 10
0.0
 20
0.0
  3
D11
  0
CIRCLE
  8
0
 10
0.000000
 20
0.000000
 40
0.005000
 0
ENDBLK
  8
0
  0
BLOCK
  8
0
  2
D12
 70
64
 10
0.0
 20
0.0
  3
D12
  0
CIRCLE
  8
0
 10
0.000000
 20
0.000000
 40
0.003500
 0
ENDBLK
  8
0
  0
BLOCK
  8
0
  2
D13
 70
64
 10
0.0
 20
0.0
  3
D13
  0
CIRCLE
  8
0
 10
0.000000
 20
0.000000
 40
0.006000
 0
ENDBLK
  8
0
  0
BLOCK
  8
0
  2
D14
 70
64
 10
0.0
 20
0.0
  3
D14
  0
CIRCLE
  8
0
 10
0.000000
 20
0.000000
 40
0.010000
 0
ENDBLK
  8
0
  0
BLOCK
  8
0
  2
D15
 70
64
 10
0.0
 20
0.0
  3
D15
  0
CIRCLE
  8
0
 10
0.000000
 20
0.000000
 40
0.012500
 0
ENDBLK
  8
0
  0
BLOCK
  8
0
  2
D16
 70
64
 10
0.0
 20
0.0
  3
D16
  0
CIRCLE
  8
0
 10
0.000000
 20
0.000000
 40
0.002500
 0
ENDBLK
  8
0
  0
BLOCK
  8
0
  2
D17
 70
64
 10
0.0
 20
0.0
  3
D17
  0
CIRCLE
  8
0
 10
0.000000
 20
0.000000
 40
0.004000
 0
ENDBLK
  8
0
  0
BLOCK
  8
0
  2
D18
 70
64
 10
0.0
 20
0.0
  3
D18
  0
CIRCLE
  8
0
 10
0.000000
 20
0.000000
 40
0.003000
 0
ENDBLK
  8
0
  0
BLOCK
  8
0
  2
D19
 70
64
 10
0.0
 20
0.0
  3
D19
  0
CIRCLE
  8
0
 10
0.000000
 20
0.000000
 40
0.030000
 0
ENDBLK
  8
0
  0
BLOCK
  8
0
  2
D20
 70
64
 10
0.0
 20
0.0
  3
D20
  0
CIRCLE
  8
0
 10
0.000000
 20
0.000000
 40
0.062990
 0
ENDBLK
  8
0
  0
BLOCK
  8
0
  2
D21
 70
64
 10
0.0
 20
0.0
  3
D21
  0
CIRCLE
  8
0
 10
0.000000
 20
0.000000
 40
0.008000
 0
ENDBLK
  8
0
  0
BLOCK
  8
0
  2
D22
 70
64
 10
0.0
 20
0.0
  3
D22
  0
CIRCLE
  8
0
 10
0.000000
 20
0.000000
 40
0.012500
 0
ENDBLK
  8
0
  0
BLOCK
  8
0
  2
D23
 70
64
 10
0.0
 20
0.0
  3
D23
  0
POLYLINE
  8
0
 66
1
 10
0.0
 20
0.0
 70
1
 40
0.0
 41
0.0
  0
VERTEX
  8
0
 10
-0.039370
 20
-0.029530
  0
VERTEX
  8
0
 10
0.039370
 20
-0.029530
  0
VERTEX
  8
0
 10
0.039370
 20
0.029530
  0
VERTEX
  8
0
 10
-0.039370
 20
0.029530
  0
SEQEND
  8
0
 0
ENDBLK
  8
0
  0
BLOCK
  8
0
  2
D24
 70
64
 10
0.0
 20
0.0
  3
D24
  0
POLYLINE
  8
0
 66
1
 10
0.0
 20
0.0
 70
1
 40
0.0
 41
0.0
  0
VERTEX
  8
0
 10
-0.039370
 20
-0.029530
  0
VERTEX
  8
0
 10
0.039370
 20
-0.029530
  0
VERTEX
  8
0
 10
0.039370
 20
0.029530
  0
VERTEX
  8
0
 10
-0.039370
 20
0.029530
  0
SEQEND
  8
0
 0
ENDBLK
  8
0
  0
BLOCK
  8
0
  2
D25
 70
64
 10
0.0
 20
0.0
  3
D25
  0
POLYLINE
  8
0
 66
1
 10
0.0
 20
0.0
 70
1
 40
0.0
 41
0.0
  0
VERTEX
  8
0
 10
-0.015000
 20
-0.015000
  0
VERTEX
  8
0
 10
0.015000
 20
-0.015000
  0
VERTEX
  8
0
 10
0.015000
 20
0.015000
  0
VERTEX
  8
0
 10
-0.015000
 20
0.015000
  0
SEQEND
  8
0
 0
ENDBLK
  8
0
  0
BLOCK
  8
0
  2
D26
 70
64
 10
0.0
 20
0.0
  3
D26
  0
POLYLINE
  8
0
 66
1
 10
0.0
 20
0.0
 70
1
 40
0.0
 41
0.0
  0
VERTEX
  8
0
 10
-0.007875
 20
-0.017500
  0
VERTEX
  8
0
 10
0.007875
 20
-0.017500
  0
VERTEX
  8
0
 10
0.007875
 20
0.017500
  0
VERTEX
  8
0
 10
-0.007875
 20
0.017500
  0
SEQEND
  8
0
 0
ENDBLK
  8
0
  0
BLOCK
  8
0
  2
D27
 70
64
 10
0.0
 20
0.0
  3
D27
  0
POLYLINE
  8
0
 66
1
 10
0.0
 20
0.0
 70
1
 40
0.0
 41
0.0
  0
VERTEX
  8
0
 10
-0.017500
 20
-0.007875
  0
VERTEX
  8
0
 10
0.017500
 20
-0.007875
  0
VERTEX
  8
0
 10
0.017500
 20
0.007875
  0
VERTEX
  8
0
 10
-0.017500
 20
0.007875
  0
SEQEND
  8
0
 0
ENDBLK
  8
0
  0
BLOCK
  8
0
  2
D28
 70
64
 10
0.0
 20
0.0
  3
D28
  0
POLYLINE
  8
0
 66
1
 10
0.0
 20
0.0
 70
1
 40
0.0
 41
0.0
  0
VERTEX
  8
0
 10
-0.013780
 20
-0.005905
  0
VERTEX
  8
0
 10
0.013780
 20
-0.005905
  0
VERTEX
  8
0
 10
0.013780
 20
0.005905
  0
VERTEX
  8
0
 10
-0.013780
 20
0.005905
  0
SEQEND
  8
0
 0
ENDBLK
  8
0
  0
BLOCK
  8
0
  2
D29
 70
64
 10
0.0
 20
0.0
  3
D29
  0
POLYLINE
  8
0
 66
1
 10
0.0
 20
0.0
 70
1
 40
0.0
 41
0.0
  0
VERTEX
  8
0
 10
-0.029530
 20
-0.045275
  0
VERTEX
  8
0
 10
0.029530
 20
-0.045275
  0
VERTEX
  8
0
 10
0.029530
 20
0.045275
  0
VERTEX
  8
0
 10
-0.029530
 20
0.045275
  0
SEQEND
  8
0
 0
ENDBLK
  8
0
  0
BLOCK
  8
0
  2
D30
 70
64
 10
0.0
 20
0.0
  3
D30
  0
POLYLINE
  8
0
 66
1
 10
0.0
 20
0.0
 70
1
 40
0.0
 41
0.0
  0
VERTEX
  8
0
 10
-0.015000
 20
-0.025000
  0
VERTEX
  8
0
 10
0.015000
 20
-0.025000
  0
VERTEX
  8
0
 10
0.015000
 20
0.025000
  0
VERTEX
  8
0
 10
-0.015000
 20
0.025000
  0
SEQEND
  8
0
 0
ENDBLK
  8
0
  0
BLOCK
  8
0
  2
D31
 70
64
 10
0.0
 20
0.0
  3
D31
  0
POLYLINE
  8
0
 66
1
 10
0.0
 20
0.0
 70
1
 40
0.0
 41
0.0
  0
VERTEX
  8
0
 10
-0.052560
 20
-0.039370
  0
VERTEX
  8
0
 10
0.052560
 20
-0.039370
  0
VERTEX
  8
0
 10
0.052560
 20
0.039370
  0
VERTEX
  8
0
 10
-0.052560
 20
0.039370
  0
SEQEND
  8
0
 0
ENDBLK
  8
0
  0
BLOCK
  8
0
  2
D32
 70
64
 10
0.0
 20
0.0
  3
D32
  0
POLYLINE
  8
0
 66
1
 10
0.0
 20
0.0
 70
1
 40
0.0
 41
0.0
  0
VERTEX
  8
0
 10
-0.015000
 20
-0.015000
  0
VERTEX
  8
0
 10
0.015000
 20
-0.015000
  0
VERTEX
  8
0
 10
0.015000
 20
0.015000
  0
VERTEX
  8
0
 10
-0.015000
 20
0.015000
  0
SEQEND
  8
0
 0
ENDBLK
  8
0
  0
BLOCK
  8
0
  2
D33
 70
64
 10
0.0
 20
0.0
  3
D33
  0
POLYLINE
  8
0
 66
1
 10
0.0
 20
0.0
 70
1
 40
0.0
 41
0.0
  0
VERTEX
  8
0
 10
-0.029530
 20
-0.039370
  0
VERTEX
  8
0
 10
0.029530
 20
-0.039370
  0
VERTEX
  8
0
 10
0.029530
 20
0.039370
  0
VERTEX
  8
0
 10
-0.029530
 20
0.039370
  0
SEQEND
  8
0
 0
ENDBLK
  8
0
  0
BLOCK
  8
0
  2
D34
 70
64
 10
0.0
 20
0.0
  3
D34
  0
POLYLINE
  8
0
 66
1
 10
0.0
 20
0.0
 70
1
 40
0.0
 41
0.0
  0
VERTEX
  8
0
 10
-0.029530
 20
-0.039370
  0
VERTEX
  8
0
 10
0.029530
 20
-0.039370
  0
VERTEX
  8
0
 10
0.029530
 20
0.039370
  0
VERTEX
  8
0
 10
-0.029530
 20
0.039370
  0
SEQEND
  8
0
 0
ENDBLK
  8
0
  0
BLOCK
  8
0
  2
D35
 70
64
 10
0.0
 20
0.0
  3
D35
  0
CIRCLE
  8
0
 10
0.000000
 20
0.000000
 40
0.020000
 0
ENDBLK
  8
0
  0
BLOCK
  8
0
  2
D36
 70
64
 10
0.0
 20
0.0
  3
D36
  0
POLYLINE
  8
0
 66
1
 10
0.0
 20
0.0
 70
1
 40
0.0
 41
0.0
  0
VERTEX
  8
0
 10
-0.010000
 20
-0.009000
  0
VERTEX
  8
0
 10
0.010000
 20
-0.009000
  0
VERTEX
  8
0
 10
0.010000
 20
0.009000
  0
VERTEX
  8
0
 10
-0.010000
 20
0.009000
  0
SEQEND
  8
0
 0
ENDBLK
  8
0
  0
BLOCK
  8
0
  2
D37
 70
64
 10
0.0
 20
0.0
  3
D37
  0
POLYLINE
  8
0
 66
1
 10
0.0
 20
0.0
 70
1
 40
0.0
 41
0.0
  0
VERTEX
  8
0
 10
-0.030000
 20
-0.025000
  0
VERTEX
  8
0
 10
0.030000
 20
-0.025000
  0
VERTEX
  8
0
 10
0.030000
 20
0.025000
  0
VERTEX
  8
0
 10
-0.030000
 20
0.025000
  0
SEQEND
  8
0
 0
ENDBLK
  8
0
  0
BLOCK
  8
0
  2
D38
 70
64
 10
0.0
 20
0.0
  3
D38
  0
POLYLINE
  8
0
 66
1
 10
0.0
 20
0.0
 70
1
 40
0.0
 41
0.0
  0
VERTEX
  8
0
 10
-0.009000
 20
-0.010000
  0
VERTEX
  8
0
 10
0.009000
 20
-0.010000
  0
VERTEX
  8
0
 10
0.009000
 20
0.010000
  0
VERTEX
  8
0
 10
-0.009000
 20
0.010000
  0
SEQEND
  8
0
 0
ENDBLK
  8
0
  0
BLOCK
  8
0
  2
D39
 70
64
 10
0.0
 20
0.0
  3
D39
  0
POLYLINE
  8
0
 66
1
 10
0.0
 20
0.0
 70
1
 40
0.0
 41
0.0
  0
VERTEX
  8
0
 10
-0.019685
 20
-0.007875
  0
VERTEX
  8
0
 10
0.019685
 20
-0.007875
  0
VERTEX
  8
0
 10
0.019685
 20
0.007875
  0
VERTEX
  8
0
 10
-0.019685
 20
0.007875
  0
SEQEND
  8
0
 0
ENDBLK
  8
0
  0
BLOCK
  8
0
  2
D40
 70
64
 10
0.0
 20
0.0
  3
D40
  0
POLYLINE
  8
0
 66
1
 10
0.0
 20
0.0
 70
1
 40
0.0
 41
0.0
  0
VERTEX
  8
0
 10
-0.010000
 20
-0.049215
  0
VERTEX
  8
0
 10
0.010000
 20
-0.049215
  0
VERTEX
  8
0
 10
0.010000
 20
0.049215
  0
VERTEX
  8
0
 10
-0.010000
 20
0.049215
  0
SEQEND
  8
0
 0
ENDBLK
  8
0
  0
BLOCK
  8
0
  2
D41
 70
64
 10
0.0
 20
0.0
  3
D41
  0
POLYLINE
  8
0
 66
1
 10
0.0
 20
0.0
 70
1
 40
0.0
 41
0.0
  0
VERTEX
  8
0
 10
-0.015750
 20
-0.005905
  0
VERTEX
  8
0
 10
0.015750
 20
-0.005905
  0
VERTEX
  8
0
 10
0.015750
 20
0.005905
  0
VERTEX
  8
0
 10
-0.015750
 20
0.005905
  0
SEQEND
  8
0
 0
ENDBLK
  8
0
  0
BLOCK
  8
0
  2
D42
 70
64
 10
0.0
 20
0.0
  3
D42
  0
POLYLINE
  8
0
 66
1
 10
0.0
 20
0.0
 70
1
 40
0.0
 41
0.0
  0
VERTEX
  8
0
 10
-0.015750
 20
-0.005905
  0
VERTEX
  8
0
 10
0.015750
 20
-0.005905
  0
VERTEX
  8
0
 10
0.015750
 20
0.005905
  0
VERTEX
  8
0
 10
-0.015750
 20
0.005905
  0
SEQEND
  8
0
 0
ENDBLK
  8
0
  0
BLOCK
  8
0
  2
D43
 70
64
 10
0.0
 20
0.0
  3
D43
  0
CIRCLE
  8
0
 10
0.000000
 20
0.000000
 40
0.000500
 0
ENDBLK
  8
0
  0
BLOCK
  8
0
  2
D44
 70
64
 10
0.0
 20
0.0
  3
D44
  0
CIRCLE
  8
0
 10
0.000000
 20
0.000000
 40
0.002000
 0
ENDBLK
  8
0
  0
BLOCK
  8
0
  2
D45
 70
64
 10
0.0
 20
0.0
  3
D45
  0
CIRCLE
  8
0
 10
0.000000
 20
0.000000
 40
0.034000
 0
ENDBLK
  8
0
  0
BLOCK
  8
0
  2
D46
 70
64
 10
0.0
 20
0.0
  3
D46
  0
CIRCLE
  8
0
 10
0.000000
 20
0.000000
 40
0.066990
 0
ENDBLK
  8
0
  0
BLOCK
  8
0
  2
D47
 70
64
 10
0.0
 20
0.0
  3
D47
  0
CIRCLE
  8
0
 10
0.000000
 20
0.000000
 40
0.012000
 0
ENDBLK
  8
0
  0
BLOCK
  8
0
  2
D48
 70
64
 10
0.0
 20
0.0
  3
D48
  0
POLYLINE
  8
0
 66
1
 10
0.0
 20
0.0
 70
1
 40
0.0
 41
0.0
  0
VERTEX
  8
0
 10
-0.043370
 20
-0.033530
  0
VERTEX
  8
0
 10
0.043370
 20
-0.033530
  0
VERTEX
  8
0
 10
0.043370
 20
0.033530
  0
VERTEX
  8
0
 10
-0.043370
 20
0.033530
  0
SEQEND
  8
0
 0
ENDBLK
  8
0
  0
BLOCK
  8
0
  2
D49
 70
64
 10
0.0
 20
0.0
  3
D49
  0
POLYLINE
  8
0
 66
1
 10
0.0
 20
0.0
 70
1
 40
0.0
 41
0.0
  0
VERTEX
  8
0
 10
-0.043370
 20
-0.033530
  0
VERTEX
  8
0
 10
0.043370
 20
-0.033530
  0
VERTEX
  8
0
 10
0.043370
 20
0.033530
  0
VERTEX
  8
0
 10
-0.043370
 20
0.033530
  0
SEQEND
  8
0
 0
ENDBLK
  8
0
  0
BLOCK
  8
0
  2
D50
 70
64
 10
0.0
 20
0.0
  3
D50
  0
POLYLINE
  8
0
 66
1
 10
0.0
 20
0.0
 70
1
 40
0.0
 41
0.0
  0
VERTEX
  8
0
 10
-0.019000
 20
-0.019000
  0
VERTEX
  8
0
 10
0.019000
 20
-0.019000
  0
VERTEX
  8
0
 10
0.019000
 20
0.019000
  0
VERTEX
  8
0
 10
-0.019000
 20
0.019000
  0
SEQEND
  8
0
 0
ENDBLK
  8
0
  0
BLOCK
  8
0
  2
D51
 70
64
 10
0.0
 20
0.0
  3
D51
  0
POLYLINE
  8
0
 66
1
 10
0.0
 20
0.0
 70
1
 40
0.0
 41
0.0
  0
VERTEX
  8
0
 10
-0.011875
 20
-0.021500
  0
VERTEX
  8
0
 10
0.011875
 20
-0.021500
  0
VERTEX
  8
0
 10
0.011875
 20
0.021500
  0
VERTEX
  8
0
 10
-0.011875
 20
0.021500
  0
SEQEND
  8
0
 0
ENDBLK
  8
0
  0
BLOCK
  8
0
  2
D52
 70
64
 10
0.0
 20
0.0
  3
D52
  0
POLYLINE
  8
0
 66
1
 10
0.0
 20
0.0
 70
1
 40
0.0
 41
0.0
  0
VERTEX
  8
0
 10
-0.021500
 20
-0.011875
  0
VERTEX
  8
0
 10
0.021500
 20
-0.011875
  0
VERTEX
  8
0
 10
0.021500
 20
0.011875
  0
VERTEX
  8
0
 10
-0.021500
 20
0.011875
  0
SEQEND
  8
0
 0
ENDBLK
  8
0
  0
BLOCK
  8
0
  2
D53
 70
64
 10
0.0
 20
0.0
  3
D53
  0
POLYLINE
  8
0
 66
1
 10
0.0
 20
0.0
 70
1
 40
0.0
 41
0.0
  0
VERTEX
  8
0
 10
-0.017780
 20
-0.009905
  0
VERTEX
  8
0
 10
0.017780
 20
-0.009905
  0
VERTEX
  8
0
 10
0.017780
 20
0.009905
  0
VERTEX
  8
0
 10
-0.017780
 20
0.009905
  0
SEQEND
  8
0
 0
ENDBLK
  8
0
  0
BLOCK
  8
0
  2
D54
 70
64
 10
0.0
 20
0.0
  3
D54
  0
POLYLINE
  8
0
 66
1
 10
0.0
 20
0.0
 70
1
 40
0.0
 41
0.0
  0
VERTEX
  8
0
 10
-0.033530
 20
-0.049275
  0
VERTEX
  8
0
 10
0.033530
 20
-0.049275
  0
VERTEX
  8
0
 10
0.033530
 20
0.049275
  0
VERTEX
  8
0
 10
-0.033530
 20
0.049275
  0
SEQEND
  8
0
 0
ENDBLK
  8
0
  0
BLOCK
  8
0
  2
D55
 70
64
 10
0.0
 20
0.0
  3
D55
  0
POLYLINE
  8
0
 66
1
 10
0.0
 20
0.0
 70
1
 40
0.0
 41
0.0
  0
VERTEX
  8
0
 10
-0.019000
 20
-0.029000
  0
VERTEX
  8
0
 10
0.019000
 20
-0.029000
  0
VERTEX
  8
0
 10
0.019000
 20
0.029000
  0
VERTEX
  8
0
 10
-0.019000
 20
0.029000
  0
SEQEND
  8
0
 0
ENDBLK
  8
0
  0
BLOCK
  8
0
  2
D56
 70
64
 10
0.0
 20
0.0
  3
D56
  0
POLYLINE
  8
0
 66
1
 10
0.0
 20
0.0
 70
1
 40
0.0
 41
0.0
  0
VERTEX
  8
0
 10
-0.056560
 20
-0.043370
  0
VERTEX
  8
0
 10
0.056560
 20
-0.043370
  0
VERTEX
  8
0
 10
0.056560
 20
0.043370
  0
VERTEX
  8
0
 10
-0.056560
 20
0.043370
  0
SEQEND
  8
0
 0
ENDBLK
  8
0
  0
BLOCK
  8
0
  2
D57
 70
64
 10
0.0
 20
0.0
  3
D57
  0
POLYLINE
  8
0
 66
1
 10
0.0
 20
0.0
 70
1
 40
0.0
 41
0.0
  0
VERTEX
  8
0
 10
-0.019000
 20
-0.019000
  0
VERTEX
  8
0
 10
0.019000
 20
-0.019000
  0
VERTEX
  8
0
 10
0.019000
 20
0.019000
  0
VERTEX
  8
0
 10
-0.019000
 20
0.019000
  0
SEQEND
  8
0
 0
ENDBLK
  8
0
  0
BLOCK
  8
0
  2
D58
 70
64
 10
0.0
 20
0.0
  3
D58
  0
POLYLINE
  8
0
 66
1
 10
0.0
 20
0.0
 70
1
 40
0.0
 41
0.0
  0
VERTEX
  8
0
 10
-0.033530
 20
-0.043370
  0
VERTEX
  8
0
 10
0.033530
 20
-0.043370
  0
VERTEX
  8
0
 10
0.033530
 20
0.043370
  0
VERTEX
  8
0
 10
-0.033530
 20
0.043370
  0
SEQEND
  8
0
 0
ENDBLK
  8
0
  0
BLOCK
  8
0
  2
D59
 70
64
 10
0.0
 20
0.0
  3
D59
  0
POLYLINE
  8
0
 66
1
 10
0.0
 20
0.0
 70
1
 40
0.0
 41
0.0
  0
VERTEX
  8
0
 10
-0.033530
 20
-0.043370
  0
VERTEX
  8
0
 10
0.033530
 20
-0.043370
  0
VERTEX
  8
0
 10
0.033530
 20
0.043370
  0
VERTEX
  8
0
 10
-0.033530
 20
0.043370
  0
SEQEND
  8
0
 0
ENDBLK
  8
0
  0
BLOCK
  8
0
  2
D60
 70
64
 10
0.0
 20
0.0
  3
D60
  0
CIRCLE
  8
0
 10
0.000000
 20
0.000000
 40
0.024000
 0
ENDBLK
  8
0
  0
BLOCK
  8
0
  2
D61
 70
64
 10
0.0
 20
0.0
  3
D61
  0
POLYLINE
  8
0
 66
1
 10
0.0
 20
0.0
 70
1
 40
0.0
 41
0.0
  0
VERTEX
  8
0
 10
-0.014000
 20
-0.013000
  0
VERTEX
  8
0
 10
0.014000
 20
-0.013000
  0
VERTEX
  8
0
 10
0.014000
 20
0.013000
  0
VERTEX
  8
0
 10
-0.014000
 20
0.013000
  0
SEQEND
  8
0
 0
ENDBLK
  8
0
  0
BLOCK
  8
0
  2
D62
 70
64
 10
0.0
 20
0.0
  3
D62
  0
POLYLINE
  8
0
 66
1
 10
0.0
 20
0.0
 70
1
 40
0.0
 41
0.0
  0
VERTEX
  8
0
 10
-0.034000
 20
-0.029000
  0
VERTEX
  8
0
 10
0.034000
 20
-0.029000
  0
VERTEX
  8
0
 10
0.034000
 20
0.029000
  0
VERTEX
  8
0
 10
-0.034000
 20
0.029000
  0
SEQEND
  8
0
 0
ENDBLK
  8
0
  0
BLOCK
  8
0
  2
D63
 70
64
 10
0.0
 20
0.0
  3
D63
  0
POLYLINE
  8
0
 66
1
 10
0.0
 20
0.0
 70
1
 40
0.0
 41
0.0
  0
VERTEX
  8
0
 10
-0.013000
 20
-0.014000
  0
VERTEX
  8
0
 10
0.013000
 20
-0.014000
  0
VERTEX
  8
0
 10
0.013000
 20
0.014000
  0
VERTEX
  8
0
 10
-0.013000
 20
0.014000
  0
SEQEND
  8
0
 0
ENDBLK
  8
0
  0
BLOCK
  8
0
  2
D64
 70
64
 10
0.0
 20
0.0
  3
D64
  0
POLYLINE
  8
0
 66
1
 10
0.0
 20
0.0
 70
1
 40
0.0
 41
0.0
  0
VERTEX
  8
0
 10
-0.023685
 20
-0.011875
  0
VERTEX
  8
0
 10
0.023685
 20
-0.011875
  0
VERTEX
  8
0
 10
0.023685
 20
0.011875
  0
VERTEX
  8
0
 10
-0.023685
 20
0.011875
  0
SEQEND
  8
0
 0
ENDBLK
  8
0
  0
BLOCK
  8
0
  2
D65
 70
64
 10
0.0
 20
0.0
  3
D65
  0
POLYLINE
  8
0
 66
1
 10
0.0
 20
0.0
 70
1
 40
0.0
 41
0.0
  0
VERTEX
  8
0
 10
-0.014000
 20
-0.053210
  0
VERTEX
  8
0
 10
0.014000
 20
-0.053210
  0
VERTEX
  8
0
 10
0.014000
 20
0.053210
  0
VERTEX
  8
0
 10
-0.014000
 20
0.053210
  0
SEQEND
  8
0
 0
ENDBLK
  8
0
  0
BLOCK
  8
0
  2
D66
 70
64
 10
0.0
 20
0.0
  3
D66
  0
POLYLINE
  8
0
 66
1
 10
0.0
 20
0.0
 70
1
 40
0.0
 41
0.0
  0
VERTEX
  8
0
 10
-0.019750
 20
-0.009905
  0
VERTEX
  8
0
 10
0.019750
 20
-0.009905
  0
VERTEX
  8
0
 10
0.019750
 20
0.009905
  0
VERTEX
  8
0
 10
-0.019750
 20
0.009905
  0
SEQEND
  8
0
 0
ENDBLK
  8
0
  0
BLOCK
  8
0
  2
D67
 70
64
 10
0.0
 20
0.0
  3
D67
  0
POLYLINE
  8
0
 66
1
 10
0.0
 20
0.0
 70
1
 40
0.0
 41
0.0
  0
VERTEX
  8
0
 10
-0.019750
 20
-0.009905
  0
VERTEX
  8
0
 10
0.019750
 20
-0.009905
  0
VERTEX
  8
0
 10
0.019750
 20
0.009905
  0
VERTEX
  8
0
 10
-0.019750
 20
0.009905
  0
SEQEND
  8
0
 0
ENDBLK
  8
0
  0
BLOCK
  8
0
  2
D68
 70
64
 10
0.0
 20
0.0
  3
D68
  0
CIRCLE
  8
0
 10
0.000000
 20
0.000000
 40
0.001500
 0
ENDBLK
  8
0
  0
BLOCK
  8
0
  2
D69
 70
64
 10
0.0
 20
0.0
  3
D69
  0
CIRCLE
  8
0
 10
0.000000
 20
0.000000
 40
0.008000
 0
ENDBLK
  8
0
  0
ENDSEC
  0
SECTION
  2
ENTITIES
  0
POLYLINE
  8
gbo
 62
1
 40
0.000000
 41
0.000000
 66
  1
  0
VERTEX
  8
gbo
 10
2.503900
 20
0.414180
  0
VERTEX
  8
gbo
 10
2.503900
 20
0.414180
  0
VERTEX
  8
gbo
 10
2.503900
 20
0.414180
 42
1.000000
  0
VERTEX
  8
gbo
 10
2.493900
 20
0.414180
  0
VERTEX
  8
gbo
 10
2.493900
 20
0.414180
  0
VERTEX
  8
gbo
 10
2.493900
 20
0.414180
 42
1.000000
  0
VERTEX
  8
gbo
 10
2.503900
 20
0.414180
  0
VERTEX
  8
gbo
 10
2.503900
 20
0.414180
  0
SEQEND
  8
gbo
  0
POLYLINE
  8
gbo
 62
1
 40
0.000000
 41
0.000000
 66
  1
  0
VERTEX
  8
gbo
 10
3.555000
 20
0.049990
  0
VERTEX
  8
gbo
 10
3.555000
 20
-0.010000
  0
SEQEND
  8
gbo
  0
POLYLINE
  8
gbo
 62
1
 40
0.000000
 41
0.000000
 66
  1
  0
VERTEX
  8
gbo
 10
3.555000
 20
0.049990
  0
VERTEX
  8
gbo
 10
3.577850
 20
-0.010000
  0
SEQEND
  8
gbo
  0
POLYLINE
  8
gbo
 62
1
 40
0.000000
 41
0.000000
 66
  1
  0
VERTEX
  8
gbo
 10
3.600700
 20
0.049990
  0
VERTEX
  8
gbo
 10
3.577850
 20
-0.010000
  0
SEQEND
  8
gbo
  0
POLYLINE
  8
gbo
 62
1
 40
0.000000
 41
0.000000
 66
  1
  0
VERTEX
  8
gbo
 10
3.600700
 20
0.049990
  0
VERTEX
  8
gbo
 10
3.600700
 20
-0.010000
  0
SEQEND
  8
gbo
  0
POLYLINE
  8
gbo
 62
1
 40
0.000000
 41
0.000000
 66
  1
  0
VERTEX
  8
gbo
 10
3.617840
 20
0.049990
  0
VERTEX
  8
gbo
 10
3.617840
 20
-0.010000
  0
SEQEND
  8
gbo
  0
POLYLINE
  8
gbo
 62
1
 40
0.000000
 41
0.000000
 66
  1
  0
VERTEX
  8
gbo
 10
3.617840
 20
0.049990
  0
VERTEX
  8
gbo
 10
3.643550
 20
0.049990
  0
VERTEX
  8
gbo
 10
3.652120
 20
0.047130
  0
VERTEX
  8
gbo
 10
3.654980
 20
0.044270
  0
VERTEX
  8
gbo
 10
3.657840
 20
0.038560
  0
VERTEX
  8
gbo
 10
3.657840
 20
0.032850
  0
VERTEX
  8
gbo
 10
3.654980
 20
0.027130
  0
VERTEX
  8
gbo
 10
3.652120
 20
0.024280
  0
VERTEX
  8
gbo
 10
3.643550
 20
0.021420
  0
SEQEND
  8
gbo
  0
POLYLINE
  8
gbo
 62
1
 40
0.000000
 41
0.000000
 66
  1
  0
VERTEX
  8
gbo
 10
3.617840
 20
0.021420
  0
VERTEX
  8
gbo
 10
3.643550
 20
0.021420
  0
VERTEX
  8
gbo
 10
3.652120
 20
0.018560
  0
VERTEX
  8
gbo
 10
3.654980
 20
0.015710
  0
VERTEX
  8
gbo
 10
3.657840
 20
0.010000
  0
VERTEX
  8
gbo
 10
3.657840
 20
0.001430
  0
VERTEX
  8
gbo
 10
3.654980
 20
-0.004290
  0
VERTEX
  8
gbo
 10
3.652120
 20
-0.007140
  0
VERTEX
  8
gbo
 10
3.643550
 20
-0.010000
  0
VERTEX
  8
gbo
 10
3.617840
 20
-0.010000
  0
SEQEND
  8
gbo
  0
POLYLINE
  8
gbo
 62
1
 40
0.000000
 41
0.000000
 66
  1
  0
VERTEX
  8
gbo
 10
3.685540
 20
0.049990
  0
VERTEX
  8
gbo
 10
3.676970
 20
0.047130
  0
VERTEX
  8
gbo
 10
3.674120
 20
0.041420
  0
VERTEX
  8
gbo
 10
3.674120
 20
0.035710
  0
VERTEX
  8
gbo
 10
3.676970
 20
0.029990
  0
VERTEX
  8
gbo
 10
3.682690
 20
0.027130
  0
VERTEX
  8
gbo
 10
3.694110
 20
0.024280
  0
VERTEX
  8
gbo
 10
3.702680
 20
0.021420
  0
VERTEX
  8
gbo
 10
3.708400
 20
0.015710
  0
VERTEX
  8
gbo
 10
3.711250
 20
0.010000
  0
VERTEX
  8
gbo
 10
3.711250
 20
0.001430
  0
VERTEX
  8
gbo
 10
3.708400
 20
-0.004290
  0
VERTEX
  8
gbo
 10
3.705540
 20
-0.007140
  0
VERTEX
  8
gbo
 10
3.696970
 20
-0.010000
  0
VERTEX
  8
gbo
 10
3.685540
 20
-0.010000
  0
VERTEX
  8
gbo
 10
3.676970
 20
-0.007140
  0
VERTEX
  8
gbo
 10
3.674120
 20
-0.004290
  0
VERTEX
  8
gbo
 10
3.671260
 20
0.001430
  0
VERTEX
  8
gbo
 10
3.671260
 20
0.010000
  0
VERTEX
  8
gbo
 10
3.674120
 20
0.015710
  0
VERTEX
  8
gbo
 10
3.679830
 20
0.021420
  0
VERTEX
  8
gbo
 10
3.688400
 20
0.024280
  0
VERTEX
  8
gbo
 10
3.699830
 20
0.027130
  0
VERTEX
  8
gbo
 10
3.705540
 20
0.029990
  0
VERTEX
  8
gbo
 10
3.708400
 20
0.035710
  0
VERTEX
  8
gbo
 10
3.708400
 20
0.041420
  0
VERTEX
  8
gbo
 10
3.705540
 20
0.047130
  0
VERTEX
  8
gbo
 10
3.696970
 20
0.049990
  0
VERTEX
  8
gbo
 10
3.685540
 20
0.049990
  0
SEQEND
  8
gbo
  0
POLYLINE
  8
gbo
 62
1
 40
0.000000
 41
0.000000
 66
  1
  0
VERTEX
  8
gbo
 10
3.761810
 20
0.029990
  0
VERTEX
  8
gbo
 10
3.758960
 20
0.021420
  0
VERTEX
  8
gbo
 10
3.753240
 20
0.015710
  0
VERTEX
  8
gbo
 10
3.744670
 20
0.012850
  0
VERTEX
  8
gbo
 10
3.741820
 20
0.012850
  0
VERTEX
  8
gbo
 10
3.733250
 20
0.015710
  0
VERTEX
  8
gbo
 10
3.727530
 20
0.021420
  0
VERTEX
  8
gbo
 10
3.724680
 20
0.029990
  0
VERTEX
  8
gbo
 10
3.724680
 20
0.032850
  0
VERTEX
  8
gbo
 10
3.727530
 20
0.041420
  0
VERTEX
  8
gbo
 10
3.733250
 20
0.047130
  0
VERTEX
  8
gbo
 10
3.741820
 20
0.049990
  0
VERTEX
  8
gbo
 10
3.744670
 20
0.049990
  0
VERTEX
  8
gbo
 10
3.753240
 20
0.047130
  0
VERTEX
  8
gbo
 10
3.758960
 20
0.041420
  0
VERTEX
  8
gbo
 10
3.761810
 20
0.029990
  0
VERTEX
  8
gbo
 10
3.761810
 20
0.015710
  0
VERTEX
  8
gbo
 10
3.758960
 20
0.001430
  0
VERTEX
  8
gbo
 10
3.753240
 20
-0.007140
  0
VERTEX
  8
gbo
 10
3.744670
 20
-0.010000
  0
VERTEX
  8
gbo
 10
3.738960
 20
-0.010000
  0
VERTEX
  8
gbo
 10
3.730390
 20
-0.007140
  0
VERTEX
  8
gbo
 10
3.727530
 20
-0.001430
  0
SEQEND
  8
gbo
  0
POLYLINE
  8
gbo
 62
1
 40
0.000000
 41
0.000000
 66
  1
  0
VERTEX
  8
gbo
 10
3.812370
 20
0.049990
  0
VERTEX
  8
gbo
 10
3.783810
 20
0.049990
  0
VERTEX
  8
gbo
 10
3.780950
 20
0.024280
  0
VERTEX
  8
gbo
 10
3.783810
 20
0.027130
  0
VERTEX
  8
gbo
 10
3.792380
 20
0.029990
  0
VERTEX
  8
gbo
 10
3.800950
 20
0.029990
  0
VERTEX
  8
gbo
 10
3.809520
 20
0.027130
  0
VERTEX
  8
gbo
 10
3.815230
 20
0.021420
  0
VERTEX
  8
gbo
 10
3.818090
 20
0.012850
  0
VERTEX
  8
gbo
 10
3.818090
 20
0.007140
  0
VERTEX
  8
gbo
 10
3.815230
 20
-0.001430
  0
VERTEX
  8
gbo
 10
3.809520
 20
-0.007140
  0
VERTEX
  8
gbo
 10
3.800950
 20
-0.010000
  0
VERTEX
  8
gbo
 10
3.792380
 20
-0.010000
  0
VERTEX
  8
gbo
 10
3.783810
 20
-0.007140
  0
VERTEX
  8
gbo
 10
3.780950
 20
-0.004290
  0
VERTEX
  8
gbo
 10
3.778100
 20
0.001430
  0
SEQEND
  8
gbo
  0
POLYLINE
  8
gbo
 62
1
 40
0.000000
 41
0.000000
 66
  1
  0
VERTEX
  8
gbo
 10
3.874360
 20
0.035710
  0
VERTEX
  8
gbo
 10
3.871500
 20
0.041420
  0
VERTEX
  8
gbo
 10
3.865790
 20
0.047130
  0
VERTEX
  8
gbo
 10
3.860080
 20
0.049990
  0
VERTEX
  8
gbo
 10
3.848650
 20
0.049990
  0
VERTEX
  8
gbo
 10
3.842940
 20
0.047130
  0
VERTEX
  8
gbo
 10
3.837220
 20
0.041420
  0
VERTEX
  8
gbo
 10
3.834370
 20
0.035710
  0
VERTEX
  8
gbo
 10
3.831510
 20
0.027130
  0
VERTEX
  8
gbo
 10
3.831510
 20
0.012850
  0
VERTEX
  8
gbo
 10
3.834370
 20
0.004280
  0
VERTEX
  8
gbo
 10
3.837220
 20
-0.001430
  0
VERTEX
  8
gbo
 10
3.842940
 20
-0.007140
  0
VERTEX
  8
gbo
 10
3.848650
 20
-0.010000
  0
VERTEX
  8
gbo
 10
3.860080
 20
-0.010000
  0
VERTEX
  8
gbo
 10
3.865790
 20
-0.007140
  0
VERTEX
  8
gbo
 10
3.871500
 20
-0.001430
  0
VERTEX
  8
gbo
 10
3.874360
 20
0.004280
  0
SEQEND
  8
gbo
  0
POLYLINE
  8
gbo
 62
1
 40
0.000000
 41
0.000000
 66
  1
  0
VERTEX
  8
gbo
 10
3.320000
 20
1.742780
  0
VERTEX
  8
gbo
 10
3.320000
 20
1.805280
  0
SEQEND
  8
gbo
  0
POLYLINE
  8
gbo
 62
1
 40
0.000000
 41
0.000000
 66
  1
  0
VERTEX
  8
gbo
 10
0.000000
 20
1.742500
  0
VERTEX
  8
gbo
 10
0.000000
 20
1.805280
  0
SEQEND
  8
gbo
  0
POLYLINE
  8
gbo
 62
1
 40
0.000000
 41
0.000000
 66
  1
  0
VERTEX
  8
gbo
 10
1.844940
 20
1.795280
  0
VERTEX
  8
gbo
 10
3.320000
 20
1.795280
  0
SEQEND
  8
gbo
  0
POLYLINE
  8
gbo
 62
1
 40
0.000000
 41
0.000000
 66
  1
  0
VERTEX
  8
gbo
 10
0.000000
 20
1.795280
  0
VERTEX
  8
gbo
 10
1.443060
 20
1.795280
  0
SEQEND
  8
gbo
  0
POLYLINE
  8
gbo
 62
1
 40
0.000000
 41
0.000000
 66
  1
  0
VERTEX
  8
gbo
 10
3.260000
 20
1.815280
  0
VERTEX
  8
gbo
 10
3.320000
 20
1.795280
  0
SEQEND
  8
gbo
  0
POLYLINE
  8
gbo
 62
1
 40
0.000000
 41
0.000000
 66
  1
  0
VERTEX
  8
gbo
 10
3.260000
 20
1.775280
  0
VERTEX
  8
gbo
 10
3.320000
 20
1.795280
  0
SEQEND
  8
gbo
  0
POLYLINE
  8
gbo
 62
1
 40
0.000000
 41
0.000000
 66
  1
  0
VERTEX
  8
gbo
 10
0.000000
 20
1.795280
  0
VERTEX
  8
gbo
 10
0.060000
 20
1.775280
  0
SEQEND
  8
gbo
  0
POLYLINE
  8
gbo
 62
1
 40
0.000000
 41
0.000000
 66
  1
  0
VERTEX
  8
gbo
 10
0.000000
 20
1.795280
  0
VERTEX
  8
gbo
 10
0.060000
 20
1.815280
  0
SEQEND
  8
gbo
  0
POLYLINE
  8
gbo
 62
1
 40
0.000000
 41
0.000000
 66
  1
  0
VERTEX
  8
gbo
 10
-0.110000
 20
0.157570
  0
VERTEX
  8
gbo
 10
0.020070
 20
0.157570
  0
SEQEND
  8
gbo
  0
POLYLINE
  8
gbo
 62
1
 40
0.000000
 41
0.000000
 66
  1
  0
VERTEX
  8
gbo
 10
-0.110000
 20
1.575280
  0
VERTEX
  8
gbo
 10
0.020070
 20
1.575280
  0
SEQEND
  8
gbo
  0
POLYLINE
  8
gbo
 62
1
 40
0.000000
 41
0.000000
 66
  1
  0
VERTEX
  8
gbo
 10
-0.100000
 20
0.157570
  0
VERTEX
  8
gbo
 10
-0.100000
 20
0.659480
  0
SEQEND
  8
gbo
  0
POLYLINE
  8
gbo
 62
1
 40
0.000000
 41
0.000000
 66
  1
  0
VERTEX
  8
gbo
 10
-0.100000
 20
1.041370
  0
VERTEX
  8
gbo
 10
-0.100000
 20
1.575280
  0
SEQEND
  8
gbo
  0
POLYLINE
  8
gbo
 62
1
 40
0.000000
 41
0.000000
 66
  1
  0
VERTEX
  8
gbo
 10
-0.100000
 20
0.157570
  0
VERTEX
  8
gbo
 10
-0.080000
 20
0.217570
  0
SEQEND
  8
gbo
  0
POLYLINE
  8
gbo
 62
1
 40
0.000000
 41
0.000000
 66
  1
  0
VERTEX
  8
gbo
 10
-0.120000
 20
0.217570
  0
VERTEX
  8
gbo
 10
-0.100000
 20
0.157570
  0
SEQEND
  8
gbo
  0
POLYLINE
  8
gbo
 62
1
 40
0.000000
 41
0.000000
 66
  1
  0
VERTEX
  8
gbo
 10
-0.120000
 20
1.515280
  0
VERTEX
  8
gbo
 10
-0.100000
 20
1.575280
  0
VERTEX
  8
gbo
 10
-0.080000
 20
1.515280
  0
SEQEND
  8
gbo
  0
POLYLINE
  8
gbo
 62
1
 40
0.000000
 41
0.000000
 66
  1
  0
VERTEX
  8
gbo
 10
-0.110000
 20
1.575280
  0
VERTEX
  8
gbo
 10
0.020070
 20
1.575280
  0
SEQEND
  8
gbo
  0
POLYLINE
  8
gbo
 62
1
 40
0.000000
 41
0.000000
 66
  1
  0
VERTEX
  8
gbo
 10
-0.110000
 20
1.730000
  0
VERTEX
  8
gbo
 10
-0.012500
 20
1.730000
  0
SEQEND
  8
gbo
  0
POLYLINE
  8
gbo
 62
1
 40
0.000000
 41
0.000000
 66
  1
  0
VERTEX
  8
gbo
 10
-0.100000
 20
1.575280
  0
VERTEX
  8
gbo
 10
-0.100000
 20
1.652640
  0
VERTEX
  8
gbo
 10
-0.100000
 20
1.730000
  0
SEQEND
  8
gbo
  0
POLYLINE
  8
gbo
 62
1
 40
0.000000
 41
0.000000
 66
  1
  0
VERTEX
  8
gbo
 10
-0.100000
 20
1.575280
  0
VERTEX
  8
gbo
 10
-0.080000
 20
1.635280
  0
SEQEND
  8
gbo
  0
POLYLINE
  8
gbo
 62
1
 40
0.000000
 41
0.000000
 66
  1
  0
VERTEX
  8
gbo
 10
-0.120000
 20
1.635280
  0
VERTEX
  8
gbo
 10
-0.100000
 20
1.575280
  0
SEQEND
  8
gbo
  0
POLYLINE
  8
gbo
 62
1
 40
0.000000
 41
0.000000
 66
  1
  0
VERTEX
  8
gbo
 10
-0.120000
 20
1.670000
  0
VERTEX
  8
gbo
 10
-0.100000
 20
1.730000
  0
VERTEX
  8
gbo
 10
-0.080000
 20
1.670000
  0
SEQEND
  8
gbo
  0
POLYLINE
  8
gbo
 62
1
 40
0.000000
 41
0.000000
 66
  1
  0
VERTEX
  8
gbo
 10
-0.220000
 20
0.000000
  0
VERTEX
  8
gbo
 10
-0.012500
 20
0.000000
  0
SEQEND
  8
gbo
  0
POLYLINE
  8
gbo
 62
1
 40
0.000000
 41
0.000000
 66
  1
  0
VERTEX
  8
gbo
 10
-0.220000
 20
1.730000
  0
VERTEX
  8
gbo
 10
-0.012500
 20
1.730000
  0
SEQEND
  8
gbo
  0
POLYLINE
  8
gbo
 62
1
 40
0.000000
 41
0.000000
 66
  1
  0
VERTEX
  8
gbo
 10
-0.210000
 20
0.000000
  0
VERTEX
  8
gbo
 10
-0.210000
 20
0.865000
  0
VERTEX
  8
gbo
 10
-0.210000
 20
1.730000
  0
SEQEND
  8
gbo
  0
POLYLINE
  8
gbo
 62
1
 40
0.000000
 41
0.000000
 66
  1
  0
VERTEX
  8
gbo
 10
-0.210000
 20
0.000000
  0
VERTEX
  8
gbo
 10
-0.190000
 20
0.060000
  0
SEQEND
  8
gbo
  0
POLYLINE
  8
gbo
 62
1
 40
0.000000
 41
0.000000
 66
  1
  0
VERTEX
  8
gbo
 10
-0.230000
 20
0.060000
  0
VERTEX
  8
gbo
 10
-0.210000
 20
0.000000
  0
SEQEND
  8
gbo
  0
POLYLINE
  8
gbo
 62
1
 40
0.000000
 41
0.000000
 66
  1
  0
VERTEX
  8
gbo
 10
-0.230000
 20
1.670000
  0
VERTEX
  8
gbo
 10
-0.210000
 20
1.730000
  0
VERTEX
  8
gbo
 10
-0.190000
 20
1.670000
  0
SEQEND
  8
gbo
  0
POLYLINE
  8
gbo
 62
1
 40
0.000000
 41
0.000000
 66
  1
  0
VERTEX
  8
gbo
 10
2.665000
 20
0.652000
  0
VERTEX
  8
gbo
 10
2.665000
 20
0.652000
  0
VERTEX
  8
gbo
 10
2.665000
 20
0.652000
 42
1.000000
  0
VERTEX
  8
gbo
 10
2.575000
 20
0.652000
  0
VERTEX
  8
gbo
 10
2.575000
 20
0.652000
  0
VERTEX
  8
gbo
 10
2.575000
 20
0.652000
 42
1.000000
  0
VERTEX
  8
gbo
 10
2.665000
 20
0.652000
  0
VERTEX
  8
gbo
 10
2.665000
 20
0.652000
  0
SEQEND
  8
gbo
  0
POLYLINE
  8
gbo
 62
1
 40
0.000000
 41
0.000000
 66
  1
  0
VERTEX
  8
gbo
 10
2.840000
 20
0.172000
  0
VERTEX
  8
gbo
 10
2.840000
 20
0.172000
  0
VERTEX
  8
gbo
 10
2.840000
 20
0.172000
 42
1.000000
  0
VERTEX
  8
gbo
 10
2.750000
 20
0.172000
  0
VERTEX
  8
gbo
 10
2.750000
 20
0.172000
  0
VERTEX
  8
gbo
 10
2.750000
 20
0.172000
 42
1.000000
  0
VERTEX
  8
gbo
 10
2.840000
 20
0.172000
  0
VERTEX
  8
gbo
 10
2.840000
 20
0.172000
  0
SEQEND
  8
gbo
  0
POLYLINE
  8
gbo
 62
1
 40
0.000000
 41
0.000000
 66
  1
  0
VERTEX
  8
gbo
 10
2.840000
 20
0.645280
  0
VERTEX
  8
gbo
 10
2.840000
 20
0.645280
  0
VERTEX
  8
gbo
 10
2.840000
 20
0.645280
 42
1.000000
  0
VERTEX
  8
gbo
 10
2.750000
 20
0.645280
  0
VERTEX
  8
gbo
 10
2.750000
 20
0.645280
  0
VERTEX
  8
gbo
 10
2.750000
 20
0.645280
 42
1.000000
  0
VERTEX
  8
gbo
 10
2.840000
 20
0.645280
  0
VERTEX
  8
gbo
 10
2.840000
 20
0.645280
  0
SEQEND
  8
gbo
  0
POLYLINE
  8
gbo
 62
1
 40
0.000000
 41
0.000000
 66
  1
  0
VERTEX
  8
gbo
 10
2.140000
 20
0.145280
  0
VERTEX
  8
gbo
 10
2.140000
 20
0.145280
  0
VERTEX
  8
gbo
 10
2.140000
 20
0.145280
 42
1.000000
  0
VERTEX
  8
gbo
 10
2.050000
 20
0.145280
  0
VERTEX
  8
gbo
 10
2.050000
 20
0.145280
  0
VERTEX
  8
gbo
 10
2.050000
 20
0.145280
 42
1.000000
  0
VERTEX
  8
gbo
 10
2.140000
 20
0.145280
  0
VERTEX
  8
gbo
 10
2.140000
 20
0.145280
  0
SEQEND
  8
gbo
  0
POLYLINE
  8
gbo
 62
1
 40
0.000000
 41
0.000000
 66
  1
  0
VERTEX
  8
gbo
 10
2.840940
 20
0.270280
  0
VERTEX
  8
gbo
 10
2.840940
 20
0.270280
  0
VERTEX
  8
gbo
 10
2.840940
 20
0.270280
 42
1.000000
  0
VERTEX
  8
gbo
 10
2.750940
 20
0.270280
  0
VERTEX
  8
gbo
 10
2.750940
 20
0.270280
  0
VERTEX
  8
gbo
 10
2.750940
 20
0.270280
 42
1.000000
  0
VERTEX
  8
gbo
 10
2.840940
 20
0.270280
  0
VERTEX
  8
gbo
 10
2.840940
 20
0.270280
  0
SEQEND
  8
gbo
  0
POLYLINE
  8
gbo
 62
1
 40
0.000000
 41
0.000000
 66
  1
  0
VERTEX
  8
gbo
 10
2.360940
 20
0.404340
  0
VERTEX
  8
gbo
 10
2.479050
 20
0.404340
  0
SEQEND
  8
gbo
  0
POLYLINE
  8
gbo
 62
1
 40
0.000000
 41
0.000000
 66
  1
  0
VERTEX
  8
gbo
 10
2.360940
 20
0.394500
  0
VERTEX
  8
gbo
 10
2.360940
 20
0.404340
  0
SEQEND
  8
gbo
  0
POLYLINE
  8
gbo
 62
1
 40
0.000000
 41
0.000000
 66
  1
  0
VERTEX
  8
gbo
 10
2.479050
 20
0.394500
  0
VERTEX
  8
gbo
 10
2.479050
 20
0.404340
  0
SEQEND
  8
gbo
  0
POLYLINE
  8
gbo
 62
1
 40
0.000000
 41
0.000000
 66
  1
  0
VERTEX
  8
gbo
 10
2.360940
 20
0.286230
  0
VERTEX
  8
gbo
 10
2.360940
 20
0.296070
  0
SEQEND
  8
gbo
  0
POLYLINE
  8
gbo
 62
1
 40
0.000000
 41
0.000000
 66
  1
  0
VERTEX
  8
gbo
 10
2.360940
 20
0.286230
  0
VERTEX
  8
gbo
 10
2.479050
 20
0.286230
  0
VERTEX
  8
gbo
 10
2.479050
 20
0.296070
  0
SEQEND
  8
gbo
  0
POLYLINE
  8
gbo
 62
1
 40
0.000000
 41
0.000000
 66
  1
  0
VERTEX
  8
gbo
 10
2.195000
 20
0.580280
  0
VERTEX
  8
gbo
 10
2.195000
 20
0.595280
  0
SEQEND
  8
gbo
  0
POLYLINE
  8
gbo
 62
1
 40
0.000000
 41
0.000000
 66
  1
  0
VERTEX
  8
gbo
 10
2.160000
 20
0.595280
  0
VERTEX
  8
gbo
 10
2.195000
 20
0.595280
  0
SEQEND
  8
gbo
  0
POLYLINE
  8
gbo
 62
1
 40
0.000000
 41
0.000000
 66
  1
  0
VERTEX
  8
gbo
 10
2.195000
 20
0.495280
  0
VERTEX
  8
gbo
 10
2.195000
 20
0.510280
  0
SEQEND
  8
gbo
  0
POLYLINE
  8
gbo
 62
1
 40
0.000000
 41
0.000000
 66
  1
  0
VERTEX
  8
gbo
 10
2.160000
 20
0.495280
  0
VERTEX
  8
gbo
 10
2.195000
 20
0.495280
  0
SEQEND
  8
gbo
  0
POLYLINE
  8
gbo
 62
1
 40
0.000000
 41
0.000000
 66
  1
  0
VERTEX
  8
gbo
 10
1.470000
 20
0.420280
  0
VERTEX
  8
gbo
 10
1.970000
 20
0.420280
  0
SEQEND
  8
gbo
  0
POLYLINE
  8
gbo
 62
1
 40
0.000000
 41
0.000000
 66
  1
  0
VERTEX
  8
gbo
 10
1.845000
 20
0.295280
  0
VERTEX
  8
gbo
 10
1.845000
 20
0.545280
  0
SEQEND
  8
gbo
  0
POLYLINE
  8
gbo
 62
1
 40
0.000000
 41
0.000000
 66
  1
  0
VERTEX
  8
gbo
 10
1.720000
 20
0.295280
  0
VERTEX
  8
gbo
 10
1.720000
 20
0.545280
  0
SEQEND
  8
gbo
  0
POLYLINE
  8
gbo
 62
1
 40
0.000000
 41
0.000000
 66
  1
  0
VERTEX
  8
gbo
 10
1.595000
 20
0.510280
  0
VERTEX
  8
gbo
 10
1.595000
 20
0.545280
  0
SEQEND
  8
gbo
  0
POLYLINE
  8
gbo
 62
1
 40
0.000000
 41
0.000000
 66
  1
  0
VERTEX
  8
gbo
 10
1.595000
 20
0.295280
  0
VERTEX
  8
gbo
 10
1.595000
 20
0.540280
  0
SEQEND
  8
gbo
  0
POLYLINE
  8
gbo
 62
1
 40
0.000000
 41
0.000000
 66
  1
  0
VERTEX
  8
gbo
 10
1.470000
 20
0.295280
  0
VERTEX
  8
gbo
 10
1.470000
 20
0.545280
  0
VERTEX
  8
gbo
 10
1.970000
 20
0.545280
  0
SEQEND
  8
gbo
  0
POLYLINE
  8
gbo
 62
1
 40
0.000000
 41
0.000000
 66
  1
  0
VERTEX
  8
gbo
 10
1.970000
 20
0.295280
  0
VERTEX
  8
gbo
 10
1.970000
 20
0.545280
  0
SEQEND
  8
gbo
  0
POLYLINE
  8
gbo
 62
1
 40
0.000000
 41
0.000000
 66
  1
  0
VERTEX
  8
gbo
 10
1.470000
 20
0.295280
  0
VERTEX
  8
gbo
 10
1.970000
 20
0.295280
  0
SEQEND
  8
gbo
  0
POLYLINE
  8
gbo
 62
1
 40
0.000000
 41
0.000000
 66
  1
  0
VERTEX
  8
gbo
 10
2.678280
 20
1.730280
  0
VERTEX
  8
gbo
 10
2.895000
 20
1.730280
  0
SEQEND
  8
gbo
  0
POLYLINE
  8
gbo
 62
1
 40
0.000000
 41
0.000000
 66
  1
  0
VERTEX
  8
gbo
 10
2.895000
 20
0.000000
  0
VERTEX
  8
gbo
 10
2.895000
 20
1.730280
  0
SEQEND
  8
gbo
  0
POLYLINE
  8
gbo
 62
1
 40
0.000000
 41
0.000000
 66
  1
  0
VERTEX
  8
gbo
 10
1.375200
 20
1.569900
  0
VERTEX
  8
gbo
 10
1.375200
 20
1.582970
  0
SEQEND
  8
gbo
  0
POLYLINE
  8
gbo
 62
1
 40
0.000000
 41
0.000000
 66
  1
  0
VERTEX
  8
gbo
 10
1.374880
 20
1.583280
  0
VERTEX
  8
gbo
 10
1.375200
 20
1.582970
  0
SEQEND
  8
gbo
  0
POLYLINE
  8
gbo
 62
1
 40
0.000000
 41
0.000000
 66
  1
  0
VERTEX
  8
gbo
 10
1.319880
 20
1.583280
  0
VERTEX
  8
gbo
 10
1.374880
 20
1.583280
  0
SEQEND
  8
gbo
  0
POLYLINE
  8
gbo
 62
1
 40
0.000000
 41
0.000000
 66
  1
  0
VERTEX
  8
gbo
 10
1.375310
 20
0.933280
  0
VERTEX
  8
gbo
 10
1.375310
 20
0.947930
  0
SEQEND
  8
gbo
  0
POLYLINE
  8
gbo
 62
1
 40
0.000000
 41
0.000000
 66
  1
  0
VERTEX
  8
gbo
 10
1.319880
 20
0.933280
  0
VERTEX
  8
gbo
 10
1.375310
 20
0.933280
  0
SEQEND
  8
gbo
  0
POLYLINE
  8
gbo
 62
1
 40
0.000000
 41
0.000000
 66
  1
  0
VERTEX
  8
gbo
 10
1.375200
 20
1.569900
  0
VERTEX
  8
gbo
 10
1.398820
 20
1.569900
  0
SEQEND
  8
gbo
  0
POLYLINE
  8
gbo
 62
1
 40
0.000000
 41
0.000000
 66
  1
  0
VERTEX
  8
gbo
 10
1.398820
 20
1.550210
  0
VERTEX
  8
gbo
 10
1.398820
 20
1.569900
  0
SEQEND
  8
gbo
  0
POLYLINE
  8
gbo
 62
1
 40
0.000000
 41
0.000000
 66
  1
  0
VERTEX
  8
gbo
 10
1.402870
 20
0.947930
  0
VERTEX
  8
gbo
 10
1.402870
 20
0.963680
  0
SEQEND
  8
gbo
  0
POLYLINE
  8
gbo
 62
1
 40
0.000000
 41
0.000000
 66
  1
  0
VERTEX
  8
gbo
 10
1.375310
 20
0.947930
  0
VERTEX
  8
gbo
 10
1.402870
 20
0.947930
  0
SEQEND
  8
gbo
  0
POLYLINE
  8
gbo
 62
1
 40
0.000000
 41
0.000000
 66
  1
  0
VERTEX
  8
gbo
 10
2.171680
 20
0.418630
  0
VERTEX
  8
gbo
 10
2.165010
 20
0.425290
  0
VERTEX
  8
gbo
 10
2.165010
 20
0.438620
  0
VERTEX
  8
gbo
 10
2.171680
 20
0.445280
  0
VERTEX
  8
gbo
 10
2.198340
 20
0.445280
  0
VERTEX
  8
gbo
 10
2.205000
 20
0.438620
  0
VERTEX
  8
gbo
 10
2.205000
 20
0.425290
  0
VERTEX
  8
gbo
 10
2.198340
 20
0.418630
  0
SEQEND
  8
gbo
  0
POLYLINE
  8
gbo
 62
1
 40
0.000000
 41
0.000000
 66
  1
  0
VERTEX
  8
gbo
 10
2.165010
 20
0.405300
  0
VERTEX
  8
gbo
 10
2.165010
 20
0.378640
  0
VERTEX
  8
gbo
 10
2.171680
 20
0.378640
  0
VERTEX
  8
gbo
 10
2.198340
 20
0.405300
  0
VERTEX
  8
gbo
 10
2.205000
 20
0.405300
  0
SEQEND
  8
gbo
  0
POLYLINE
  8
gbo
 62
1
 40
0.000000
 41
0.000000
 66
  1
  0
VERTEX
  8
gbo
 10
0.470000
 20
0.245280
  0
VERTEX
  8
gbo
 10
0.470000
 20
0.245280
  0
VERTEX
  8
gbo
 10
0.470000
 20
0.245280
 42
1.000000
  0
VERTEX
  8
gbo
 10
0.570000
 20
0.245280
  0
VERTEX
  8
gbo
 10
0.570000
 20
0.245280
  0
SEQEND
  8
gbo
  0
POLYLINE
  8
gbo
 62
1
 40
0.000000
 41
0.000000
 66
  1
  0
VERTEX
  8
gbo
 10
0.570000
 20
1.470280
  0
VERTEX
  8
gbo
 10
0.570000
 20
1.470280
  0
VERTEX
  8
gbo
 10
0.570000
 20
1.470280
 42
1.000000
  0
VERTEX
  8
gbo
 10
0.470000
 20
1.470280
  0
VERTEX
  8
gbo
 10
0.470000
 20
1.470280
  0
SEQEND
  8
gbo
  0
POLYLINE
  8
gbo
 62
1
 40
0.000000
 41
0.000000
 66
  1
  0
VERTEX
  8
gbo
 10
0.620000
 20
1.685280
  0
VERTEX
  8
gbo
 10
0.820000
 20
1.685280
  0
VERTEX
  8
gbo
 10
0.865000
 20
1.730280
  0
VERTEX
  8
gbo
 10
3.320000
 20
1.730280
  0
SEQEND
  8
gbo
  0
POLYLINE
  8
gbo
 62
1
 40
0.000000
 41
0.000000
 66
  1
  0
VERTEX
  8
gbo
 10
0.575000
 20
1.730280
  0
VERTEX
  8
gbo
 10
0.620000
 20
1.685280
  0
SEQEND
  8
gbo
  0
POLYLINE
  8
gbo
 62
1
 40
0.000000
 41
0.000000
 66
  1
  0
VERTEX
  8
gbo
 10
0.000000
 20
0.000000
  0
VERTEX
  8
gbo
 10
3.315500
 20
0.000000
  0
SEQEND
  8
gbo
  0
POLYLINE
  8
gbo
 62
1
 40
0.000000
 41
0.000000
 66
  1
  0
VERTEX
  8
gbo
 10
0.000000
 20
0.000000
  0
VERTEX
  8
gbo
 10
0.000000
 20
1.730000
  0
SEQEND
  8
gbo
  0
POLYLINE
  8
gbo
 62
1
 40
0.000000
 41
0.000000
 66
  1
  0
VERTEX
  8
gbo
 10
0.570000
 20
0.245280
  0
VERTEX
  8
gbo
 10
0.570000
 20
1.470280
  0
SEQEND
  8
gbo
  0
POLYLINE
  8
gbo
 62
1
 40
0.000000
 41
0.000000
 66
  1
  0
VERTEX
  8
gbo
 10
0.470000
 20
0.245280
  0
VERTEX
  8
gbo
 10
0.470000
 20
1.470280
  0
SEQEND
  8
gbo
  0
POLYLINE
  8
gbo
 62
1
 40
0.000000
 41
0.000000
 66
  1
  0
VERTEX
  8
gbo
 10
3.320000
 20
0.000280
  0
VERTEX
  8
gbo
 10
3.320000
 20
1.730280
  0
SEQEND
  8
gbo
  0
POLYLINE
  8
gbo
 62
1
 40
0.000000
 41
0.000000
 66
  1
  0
VERTEX
  8
gbo
 10
3.315500
 20
0.000000
  0
VERTEX
  8
gbo
 10
3.320000
 20
0.000280
  0
SEQEND
  8
gbo
  0
POLYLINE
  8
gbo
 62
1
 40
0.000000
 41
0.000000
 66
  1
  0
VERTEX
  8
gbo
 10
0.000000
 20
1.730000
  0
VERTEX
  8
gbo
 10
0.575000
 20
1.730280
  0
SEQEND
  8
gbo
  0
POLYLINE
  8
gbo
 62
1
 40
0.000000
 41
0.000000
 66
  1
  0
VERTEX
  8
gbo
 10
1.925000
 20
0.505270
  0
VERTEX
  8
gbo
 10
1.925000
 20
0.455280
  0
SEQEND
  8
gbo
  0
POLYLINE
  8
gbo
 62
1
 40
0.000000
 41
0.000000
 66
  1
  0
VERTEX
  8
gbo
 10
1.925000
 20
0.505270
  0
VERTEX
  8
gbo
 10
1.903580
 20
0.505270
  0
VERTEX
  8
gbo
 10
1.896440
 20
0.502890
  0
VERTEX
  8
gbo
 10
1.894050
 20
0.500510
  0
VERTEX
  8
gbo
 10
1.891670
 20
0.495750
  0
VERTEX
  8
gbo
 10
1.891670
 20
0.490990
  0
VERTEX
  8
gbo
 10
1.894050
 20
0.486230
  0
VERTEX
  8
gbo
 10
1.896440
 20
0.483850
  0
VERTEX
  8
gbo
 10
1.903580
 20
0.481470
  0
SEQEND
  8
gbo
  0
POLYLINE
  8
gbo
 62
1
 40
0.000000
 41
0.000000
 66
  1
  0
VERTEX
  8
gbo
 10
1.925000
 20
0.481470
  0
VERTEX
  8
gbo
 10
1.903580
 20
0.481470
  0
VERTEX
  8
gbo
 10
1.896440
 20
0.479090
  0
VERTEX
  8
gbo
 10
1.894050
 20
0.476710
  0
VERTEX
  8
gbo
 10
1.891670
 20
0.471950
  0
VERTEX
  8
gbo
 10
1.891670
 20
0.464810
  0
VERTEX
  8
gbo
 10
1.894050
 20
0.460050
  0
VERTEX
  8
gbo
 10
1.896440
 20
0.457660
  0
VERTEX
  8
gbo
 10
1.903580
 20
0.455280
  0
VERTEX
  8
gbo
 10
1.925000
 20
0.455280
  0
SEQEND
  8
gbo
  0
POLYLINE
  8
gbo
 62
1
 40
0.000000
 41
0.000000
 66
  1
  0
VERTEX
  8
gbo
 10
1.888290
 20
0.374370
  0
VERTEX
  8
gbo
 10
1.890670
 20
0.379130
  0
VERTEX
  8
gbo
 10
1.895430
 20
0.383890
  0
VERTEX
  8
gbo
 10
1.900200
 20
0.386270
  0
VERTEX
  8
gbo
 10
1.909720
 20
0.386270
  0
VERTEX
  8
gbo
 10
1.914480
 20
0.383890
  0
VERTEX
  8
gbo
 10
1.919240
 20
0.379130
  0
VERTEX
  8
gbo
 10
1.921620
 20
0.374370
  0
VERTEX
  8
gbo
 10
1.924000
 20
0.367230
  0
VERTEX
  8
gbo
 10
1.924000
 20
0.355330
  0
VERTEX
  8
gbo
 10
1.921620
 20
0.348190
  0
VERTEX
  8
gbo
 10
1.919240
 20
0.343430
  0
VERTEX
  8
gbo
 10
1.914480
 20
0.338660
  0
VERTEX
  8
gbo
 10
1.909720
 20
0.336280
  0
VERTEX
  8
gbo
 10
1.900200
 20
0.336280
  0
VERTEX
  8
gbo
 10
1.895430
 20
0.338660
  0
VERTEX
  8
gbo
 10
1.890670
 20
0.343430
  0
VERTEX
  8
gbo
 10
1.888290
 20
0.348190
  0
SEQEND
  8
gbo
  0
POLYLINE
  8
gbo
 62
1
 40
0.000000
 41
0.000000
 66
  1
  0
VERTEX
  8
gbo
 10
2.144210
 20
0.270280
  0
VERTEX
  8
gbo
 10
2.144210
 20
0.322780
  0
SEQEND
  8
gbo
  0
POLYLINE
  8
gbo
 62
1
 40
0.000000
 41
0.000000
 66
  1
  0
VERTEX
  8
gbo
 10
2.045790
 20
0.270280
  0
VERTEX
  8
gbo
 10
2.045790
 20
0.322780
  0
SEQEND
  8
gbo
  0
POLYLINE
  8
gbo
 62
1
 40
0.000000
 41
0.000000
 66
  1
  0
VERTEX
  8
gbo
 10
2.144210
 20
0.377780
  0
VERTEX
  8
gbo
 10
2.144210
 20
0.420280
  0
SEQEND
  8
gbo
  0
POLYLINE
  8
gbo
 62
1
 40
0.000000
 41
0.000000
 66
  1
  0
VERTEX
  8
gbo
 10
2.045790
 20
0.377780
  0
VERTEX
  8
gbo
 10
2.045790
 20
0.420280
  0
SEQEND
  8
gbo
  0
POLYLINE
  8
gbo
 62
1
 40
0.000000
 41
0.000000
 66
  1
  0
VERTEX
  8
gbo
 10
2.045790
 20
0.270280
  0
VERTEX
  8
gbo
 10
2.055000
 20
0.270280
  0
SEQEND
  8
gbo
  0
POLYLINE
  8
gbo
 62
1
 40
0.000000
 41
0.000000
 66
  1
  0
VERTEX
  8
gbo
 10
2.135000
 20
0.270280
  0
VERTEX
  8
gbo
 10
2.144210
 20
0.270280
  0
SEQEND
  8
gbo
  0
POLYLINE
  8
gbo
 62
1
 40
0.000000
 41
0.000000
 66
  1
  0
VERTEX
  8
gbo
 10
2.135000
 20
0.420280
  0
VERTEX
  8
gbo
 10
2.144210
 20
0.420280
  0
SEQEND
  8
gbo
  0
POLYLINE
  8
gbo
 62
1
 40
0.000000
 41
0.000000
 66
  1
  0
VERTEX
  8
gbo
 10
2.045790
 20
0.420280
  0
VERTEX
  8
gbo
 10
2.055000
 20
0.420280
  0
SEQEND
  8
gbo
  0
POLYLINE
  8
gbo
 62
1
 40
0.000000
 41
0.000000
 66
  1
  0
VERTEX
  8
gbo
 10
2.645790
 20
0.270280
  0
VERTEX
  8
gbo
 10
2.655000
 20
0.270280
  0
SEQEND
  8
gbo
  0
POLYLINE
  8
gbo
 62
1
 40
0.000000
 41
0.000000
 66
  1
  0
VERTEX
  8
gbo
 10
2.735000
 20
0.270280
  0
VERTEX
  8
gbo
 10
2.744210
 20
0.270280
  0
SEQEND
  8
gbo
  0
POLYLINE
  8
gbo
 62
1
 40
0.000000
 41
0.000000
 66
  1
  0
VERTEX
  8
gbo
 10
2.735000
 20
0.120280
  0
VERTEX
  8
gbo
 10
2.744210
 20
0.120280
  0
SEQEND
  8
gbo
  0
POLYLINE
  8
gbo
 62
1
 40
0.000000
 41
0.000000
 66
  1
  0
VERTEX
  8
gbo
 10
2.645790
 20
0.120280
  0
VERTEX
  8
gbo
 10
2.655000
 20
0.120280
  0
SEQEND
  8
gbo
  0
POLYLINE
  8
gbo
 62
1
 40
0.000000
 41
0.000000
 66
  1
  0
VERTEX
  8
gbo
 10
2.645790
 20
0.227780
  0
VERTEX
  8
gbo
 10
2.645790
 20
0.270280
  0
SEQEND
  8
gbo
  0
POLYLINE
  8
gbo
 62
1
 40
0.000000
 41
0.000000
 66
  1
  0
VERTEX
  8
gbo
 10
2.744210
 20
0.227780
  0
VERTEX
  8
gbo
 10
2.744210
 20
0.270280
  0
SEQEND
  8
gbo
  0
POLYLINE
  8
gbo
 62
1
 40
0.000000
 41
0.000000
 66
  1
  0
VERTEX
  8
gbo
 10
2.645790
 20
0.120280
  0
VERTEX
  8
gbo
 10
2.645790
 20
0.172780
  0
SEQEND
  8
gbo
  0
POLYLINE
  8
gbo
 62
1
 40
0.000000
 41
0.000000
 66
  1
  0
VERTEX
  8
gbo
 10
2.744210
 20
0.120280
  0
VERTEX
  8
gbo
 10
2.744210
 20
0.172780
  0
SEQEND
  8
gbo
  0
POLYLINE
  8
gbo
 62
1
 40
0.000000
 41
0.000000
 66
  1
  0
VERTEX
  8
gbo
 10
3.200000
 20
0.770280
  0
VERTEX
  8
gbo
 10
3.200000
 20
0.795280
  0
VERTEX
  8
gbo
 10
3.240000
 20
0.795280
  0
SEQEND
  8
gbo
  0
POLYLINE
  8
gbo
 62
1
 40
0.000000
 41
0.000000
 66
  1
  0
VERTEX
  8
gbo
 10
3.240000
 20
0.770280
  0
VERTEX
  8
gbo
 10
3.240000
 20
0.795280
  0
SEQEND
  8
gbo
  0
POLYLINE
  8
gbo
 62
1
 40
0.000000
 41
0.000000
 66
  1
  0
VERTEX
  8
gbo
 10
3.240000
 20
0.695280
  0
VERTEX
  8
gbo
 10
3.240000
 20
0.720280
  0
SEQEND
  8
gbo
  0
POLYLINE
  8
gbo
 62
1
 40
0.000000
 41
0.000000
 66
  1
  0
VERTEX
  8
gbo
 10
3.200000
 20
0.695280
  0
VERTEX
  8
gbo
 10
3.240000
 20
0.695280
  0
SEQEND
  8
gbo
  0
POLYLINE
  8
gbo
 62
1
 40
0.000000
 41
0.000000
 66
  1
  0
VERTEX
  8
gbo
 10
3.200000
 20
0.695280
  0
VERTEX
  8
gbo
 10
3.200000
 20
0.720280
  0
SEQEND
  8
gbo
  0
POLYLINE
  8
gbo
 62
1
 40
0.000000
 41
0.000000
 66
  1
  0
VERTEX
  8
gbo
 10
1.925000
 20
0.745280
  0
VERTEX
  8
gbo
 10
1.925000
 20
0.770280
  0
VERTEX
  8
gbo
 10
1.965000
 20
0.770280
  0
SEQEND
  8
gbo
  0
POLYLINE
  8
gbo
 62
1
 40
0.000000
 41
0.000000
 66
  1
  0
VERTEX
  8
gbo
 10
1.965000
 20
0.745280
  0
VERTEX
  8
gbo
 10
1.965000
 20
0.770280
  0
SEQEND
  8
gbo
  0
POLYLINE
  8
gbo
 62
1
 40
0.000000
 41
0.000000
 66
  1
  0
VERTEX
  8
gbo
 10
1.965000
 20
0.670280
  0
VERTEX
  8
gbo
 10
1.965000
 20
0.695280
  0
SEQEND
  8
gbo
  0
POLYLINE
  8
gbo
 62
1
 40
0.000000
 41
0.000000
 66
  1
  0
VERTEX
  8
gbo
 10
1.925000
 20
0.670280
  0
VERTEX
  8
gbo
 10
1.965000
 20
0.670280
  0
SEQEND
  8
gbo
  0
POLYLINE
  8
gbo
 62
1
 40
0.000000
 41
0.000000
 66
  1
  0
VERTEX
  8
gbo
 10
1.925000
 20
0.670280
  0
VERTEX
  8
gbo
 10
1.925000
 20
0.695280
  0
SEQEND
  8
gbo
  0
POLYLINE
  8
gbo
 62
1
 40
0.000000
 41
0.000000
 66
  1
  0
VERTEX
  8
gbo
 10
2.350000
 20
0.670280
  0
VERTEX
  8
gbo
 10
2.350000
 20
0.695280
  0
SEQEND
  8
gbo
  0
POLYLINE
  8
gbo
 62
1
 40
0.000000
 41
0.000000
 66
  1
  0
VERTEX
  8
gbo
 10
2.350000
 20
0.670280
  0
VERTEX
  8
gbo
 10
2.390000
 20
0.670280
  0
VERTEX
  8
gbo
 10
2.390000
 20
0.695280
  0
SEQEND
  8
gbo
  0
POLYLINE
  8
gbo
 62
1
 40
0.000000
 41
0.000000
 66
  1
  0
VERTEX
  8
gbo
 10
2.390000
 20
0.745280
  0
VERTEX
  8
gbo
 10
2.390000
 20
0.770280
  0
SEQEND
  8
gbo
  0
POLYLINE
  8
gbo
 62
1
 40
0.000000
 41
0.000000
 66
  1
  0
VERTEX
  8
gbo
 10
2.350000
 20
0.770280
  0
VERTEX
  8
gbo
 10
2.390000
 20
0.770280
  0
SEQEND
  8
gbo
  0
POLYLINE
  8
gbo
 62
1
 40
0.000000
 41
0.000000
 66
  1
  0
VERTEX
  8
gbo
 10
2.350000
 20
0.745280
  0
VERTEX
  8
gbo
 10
2.350000
 20
0.770280
  0
SEQEND
  8
gbo
  0
POLYLINE
  8
gbo
 62
1
 40
0.000000
 41
0.000000
 66
  1
  0
VERTEX
  8
gbo
 10
2.250000
 20
1.572780
  0
VERTEX
  8
gbo
 10
2.256000
 20
1.572780
  0
SEQEND
  8
gbo
  0
POLYLINE
  8
gbo
 62
1
 40
0.000000
 41
0.000000
 66
  1
  0
VERTEX
  8
gbo
 10
2.250000
 20
1.517780
  0
VERTEX
  8
gbo
 10
2.250000
 20
1.572780
  0
SEQEND
  8
gbo
  0
POLYLINE
  8
gbo
 62
1
 40
0.000000
 41
0.000000
 66
  1
  0
VERTEX
  8
gbo
 10
2.250000
 20
1.517780
  0
VERTEX
  8
gbo
 10
2.259000
 20
1.517780
  0
SEQEND
  8
gbo
  0
POLYLINE
  8
gbo
 62
1
 40
0.000000
 41
0.000000
 66
  1
  0
VERTEX
  8
gbo
 10
2.381000
 20
1.517780
  0
VERTEX
  8
gbo
 10
2.389000
 20
1.517780
  0
SEQEND
  8
gbo
  0
POLYLINE
  8
gbo
 62
1
 40
0.000000
 41
0.000000
 66
  1
  0
VERTEX
  8
gbo
 10
2.390000
 20
1.517780
  0
VERTEX
  8
gbo
 10
2.390000
 20
1.572780
  0
SEQEND
  8
gbo
  0
POLYLINE
  8
gbo
 62
1
 40
0.000000
 41
0.000000
 66
  1
  0
VERTEX
  8
gbo
 10
2.381000
 20
1.572780
  0
VERTEX
  8
gbo
 10
2.390000
 20
1.572780
  0
SEQEND
  8
gbo
  0
POLYLINE
  8
gbo
 62
1
 40
0.000000
 41
0.000000
 66
  1
  0
VERTEX
  8
gbo
 10
1.322500
 20
0.500280
  0
VERTEX
  8
gbo
 10
1.322500
 20
0.506280
  0
SEQEND
  8
gbo
  0
POLYLINE
  8
gbo
 62
1
 40
0.000000
 41
0.000000
 66
  1
  0
VERTEX
  8
gbo
 10
1.267500
 20
0.500280
  0
VERTEX
  8
gbo
 10
1.322500
 20
0.500280
  0
SEQEND
  8
gbo
  0
POLYLINE
  8
gbo
 62
1
 40
0.000000
 41
0.000000
 66
  1
  0
VERTEX
  8
gbo
 10
1.267500
 20
0.500280
  0
VERTEX
  8
gbo
 10
1.267500
 20
0.509280
  0
SEQEND
  8
gbo
  0
POLYLINE
  8
gbo
 62
1
 40
0.000000
 41
0.000000
 66
  1
  0
VERTEX
  8
gbo
 10
1.267500
 20
0.631280
  0
VERTEX
  8
gbo
 10
1.267500
 20
0.639280
  0
SEQEND
  8
gbo
  0
POLYLINE
  8
gbo
 62
1
 40
0.000000
 41
0.000000
 66
  1
  0
VERTEX
  8
gbo
 10
1.267500
 20
0.640280
  0
VERTEX
  8
gbo
 10
1.322500
 20
0.640280
  0
SEQEND
  8
gbo
  0
POLYLINE
  8
gbo
 62
1
 40
0.000000
 41
0.000000
 66
  1
  0
VERTEX
  8
gbo
 10
1.322500
 20
0.631280
  0
VERTEX
  8
gbo
 10
1.322500
 20
0.640280
  0
SEQEND
  8
gbo
  0
POLYLINE
  8
gbo
 62
1
 40
0.000000
 41
0.000000
 66
  1
  0
VERTEX
  8
gbo
 10
2.156000
 20
1.572780
  0
VERTEX
  8
gbo
 10
2.165000
 20
1.572780
  0
SEQEND
  8
gbo
  0
POLYLINE
  8
gbo
 62
1
 40
0.000000
 41
0.000000
 66
  1
  0
VERTEX
  8
gbo
 10
2.165000
 20
1.517780
  0
VERTEX
  8
gbo
 10
2.165000
 20
1.572780
  0
SEQEND
  8
gbo
  0
POLYLINE
  8
gbo
 62
1
 40
0.000000
 41
0.000000
 66
  1
  0
VERTEX
  8
gbo
 10
2.156000
 20
1.517780
  0
VERTEX
  8
gbo
 10
2.164000
 20
1.517780
  0
SEQEND
  8
gbo
  0
POLYLINE
  8
gbo
 62
1
 40
0.000000
 41
0.000000
 66
  1
  0
VERTEX
  8
gbo
 10
2.025000
 20
1.517780
  0
VERTEX
  8
gbo
 10
2.034000
 20
1.517780
  0
SEQEND
  8
gbo
  0
POLYLINE
  8
gbo
 62
1
 40
0.000000
 41
0.000000
 66
  1
  0
VERTEX
  8
gbo
 10
2.025000
 20
1.517780
  0
VERTEX
  8
gbo
 10
2.025000
 20
1.572780
  0
VERTEX
  8
gbo
 10
2.031000
 20
1.572780
  0
SEQEND
  8
gbo
  0
POLYLINE
  8
gbo
 62
1
 40
0.000000
 41
0.000000
 66
  1
  0
VERTEX
  8
gbo
 10
1.322500
 20
0.881280
  0
VERTEX
  8
gbo
 10
1.322500
 20
0.890280
  0
SEQEND
  8
gbo
  0
POLYLINE
  8
gbo
 62
1
 40
0.000000
 41
0.000000
 66
  1
  0
VERTEX
  8
gbo
 10
1.267500
 20
0.890280
  0
VERTEX
  8
gbo
 10
1.322500
 20
0.890280
  0
SEQEND
  8
gbo
  0
POLYLINE
  8
gbo
 62
1
 40
0.000000
 41
0.000000
 66
  1
  0
VERTEX
  8
gbo
 10
1.267500
 20
0.881280
  0
VERTEX
  8
gbo
 10
1.267500
 20
0.889280
  0
SEQEND
  8
gbo
  0
POLYLINE
  8
gbo
 62
1
 40
0.000000
 41
0.000000
 66
  1
  0
VERTEX
  8
gbo
 10
1.267500
 20
0.750280
  0
VERTEX
  8
gbo
 10
1.267500
 20
0.759280
  0
SEQEND
  8
gbo
  0
POLYLINE
  8
gbo
 62
1
 40
0.000000
 41
0.000000
 66
  1
  0
VERTEX
  8
gbo
 10
1.267500
 20
0.750280
  0
VERTEX
  8
gbo
 10
1.322500
 20
0.750280
  0
VERTEX
  8
gbo
 10
1.322500
 20
0.756280
  0
SEQEND
  8
gbo
  0
POLYLINE
  8
gbo
 62
1
 40
0.000000
 41
0.000000
 66
  1
  0
VERTEX
  8
gbo
 10
2.565000
 20
0.470280
  0
VERTEX
  8
gbo
 10
2.565000
 20
0.495280
  0
SEQEND
  8
gbo
  0
POLYLINE
  8
gbo
 62
1
 40
0.000000
 41
0.000000
 66
  1
  0
VERTEX
  8
gbo
 10
2.525000
 20
0.470280
  0
VERTEX
  8
gbo
 10
2.565000
 20
0.470280
  0
SEQEND
  8
gbo
  0
POLYLINE
  8
gbo
 62
1
 40
0.000000
 41
0.000000
 66
  1
  0
VERTEX
  8
gbo
 10
2.525000
 20
0.470280
  0
VERTEX
  8
gbo
 10
2.525000
 20
0.495280
  0
SEQEND
  8
gbo
  0
POLYLINE
  8
gbo
 62
1
 40
0.000000
 41
0.000000
 66
  1
  0
VERTEX
  8
gbo
 10
2.525000
 20
0.545280
  0
VERTEX
  8
gbo
 10
2.525000
 20
0.570280
  0
VERTEX
  8
gbo
 10
2.565000
 20
0.570280
  0
SEQEND
  8
gbo
  0
POLYLINE
  8
gbo
 62
1
 40
0.000000
 41
0.000000
 66
  1
  0
VERTEX
  8
gbo
 10
2.565000
 20
0.545280
  0
VERTEX
  8
gbo
 10
2.565000
 20
0.570280
  0
SEQEND
  8
gbo
  0
POLYLINE
  8
gbo
 62
1
 40
0.000000
 41
0.000000
 66
  1
  0
VERTEX
  8
gbo
 10
2.265000
 20
0.195280
  0
VERTEX
  8
gbo
 10
2.265000
 20
0.220280
  0
SEQEND
  8
gbo
  0
POLYLINE
  8
gbo
 62
1
 40
0.000000
 41
0.000000
 66
  1
  0
VERTEX
  8
gbo
 10
2.225000
 20
0.195280
  0
VERTEX
  8
gbo
 10
2.265000
 20
0.195280
  0
SEQEND
  8
gbo
  0
POLYLINE
  8
gbo
 62
1
 40
0.000000
 41
0.000000
 66
  1
  0
VERTEX
  8
gbo
 10
2.225000
 20
0.195280
  0
VERTEX
  8
gbo
 10
2.225000
 20
0.220280
  0
SEQEND
  8
gbo
  0
POLYLINE
  8
gbo
 62
1
 40
0.000000
 41
0.000000
 66
  1
  0
VERTEX
  8
gbo
 10
2.225000
 20
0.270280
  0
VERTEX
  8
gbo
 10
2.225000
 20
0.295280
  0
VERTEX
  8
gbo
 10
2.265000
 20
0.295280
  0
SEQEND
  8
gbo
  0
POLYLINE
  8
gbo
 62
1
 40
0.000000
 41
0.000000
 66
  1
  0
VERTEX
  8
gbo
 10
2.265000
 20
0.270280
  0
VERTEX
  8
gbo
 10
2.265000
 20
0.295280
  0
SEQEND
  8
gbo
  0
POLYLINE
  8
gbo
 62
1
 40
0.000000
 41
0.000000
 66
  1
  0
VERTEX
  8
gbo
 10
2.590000
 20
0.145280
  0
VERTEX
  8
gbo
 10
2.590000
 20
0.170280
  0
SEQEND
  8
gbo
  0
POLYLINE
  8
gbo
 62
1
 40
0.000000
 41
0.000000
 66
  1
  0
VERTEX
  8
gbo
 10
2.550000
 20
0.145280
  0
VERTEX
  8
gbo
 10
2.590000
 20
0.145280
  0
SEQEND
  8
gbo
  0
POLYLINE
  8
gbo
 62
1
 40
0.000000
 41
0.000000
 66
  1
  0
VERTEX
  8
gbo
 10
2.550000
 20
0.145280
  0
VERTEX
  8
gbo
 10
2.550000
 20
0.170280
  0
SEQEND
  8
gbo
  0
POLYLINE
  8
gbo
 62
1
 40
0.000000
 41
0.000000
 66
  1
  0
VERTEX
  8
gbo
 10
2.550000
 20
0.220280
  0
VERTEX
  8
gbo
 10
2.550000
 20
0.245280
  0
VERTEX
  8
gbo
 10
2.590000
 20
0.245280
  0
SEQEND
  8
gbo
  0
POLYLINE
  8
gbo
 62
1
 40
0.000000
 41
0.000000
 66
  1
  0
VERTEX
  8
gbo
 10
2.590000
 20
0.220280
  0
VERTEX
  8
gbo
 10
2.590000
 20
0.245280
  0
SEQEND
  8
gbo
  0
POLYLINE
  8
gbo
 62
1
 40
0.000000
 41
0.000000
 66
  1
  0
VERTEX
  8
gbo
 10
2.665000
 20
0.470280
  0
VERTEX
  8
gbo
 10
2.665000
 20
0.495280
  0
SEQEND
  8
gbo
  0
POLYLINE
  8
gbo
 62
1
 40
0.000000
 41
0.000000
 66
  1
  0
VERTEX
  8
gbo
 10
2.625000
 20
0.470280
  0
VERTEX
  8
gbo
 10
2.665000
 20
0.470280
  0
SEQEND
  8
gbo
  0
POLYLINE
  8
gbo
 62
1
 40
0.000000
 41
0.000000
 66
  1
  0
VERTEX
  8
gbo
 10
2.625000
 20
0.470280
  0
VERTEX
  8
gbo
 10
2.625000
 20
0.495280
  0
SEQEND
  8
gbo
  0
POLYLINE
  8
gbo
 62
1
 40
0.000000
 41
0.000000
 66
  1
  0
VERTEX
  8
gbo
 10
2.625000
 20
0.545280
  0
VERTEX
  8
gbo
 10
2.625000
 20
0.570280
  0
VERTEX
  8
gbo
 10
2.665000
 20
0.570280
  0
SEQEND
  8
gbo
  0
POLYLINE
  8
gbo
 62
1
 40
0.000000
 41
0.000000
 66
  1
  0
VERTEX
  8
gbo
 10
2.665000
 20
0.545280
  0
VERTEX
  8
gbo
 10
2.665000
 20
0.570280
  0
SEQEND
  8
gbo
  0
POLYLINE
  8
gbo
 62
1
 40
0.000000
 41
0.000000
 66
  1
  0
VERTEX
  8
gbo
 10
1.550000
 20
1.517780
  0
VERTEX
  8
gbo
 10
1.556000
 20
1.517780
  0
SEQEND
  8
gbo
  0
POLYLINE
  8
gbo
 62
1
 40
0.000000
 41
0.000000
 66
  1
  0
VERTEX
  8
gbo
 10
1.550000
 20
1.517780
  0
VERTEX
  8
gbo
 10
1.550000
 20
1.572780
  0
VERTEX
  8
gbo
 10
1.559000
 20
1.572780
  0
SEQEND
  8
gbo
  0
POLYLINE
  8
gbo
 62
1
 40
0.000000
 41
0.000000
 66
  1
  0
VERTEX
  8
gbo
 10
1.681000
 20
1.572780
  0
VERTEX
  8
gbo
 10
1.689000
 20
1.572780
  0
SEQEND
  8
gbo
  0
POLYLINE
  8
gbo
 62
1
 40
0.000000
 41
0.000000
 66
  1
  0
VERTEX
  8
gbo
 10
1.690000
 20
1.517780
  0
VERTEX
  8
gbo
 10
1.690000
 20
1.572780
  0
SEQEND
  8
gbo
  0
POLYLINE
  8
gbo
 62
1
 40
0.000000
 41
0.000000
 66
  1
  0
VERTEX
  8
gbo
 10
1.681000
 20
1.517780
  0
VERTEX
  8
gbo
 10
1.690000
 20
1.517780
  0
SEQEND
  8
gbo
  0
POLYLINE
  8
gbo
 62
1
 40
0.000000
 41
0.000000
 66
  1
  0
VERTEX
  8
gbo
 10
0.920000
 20
1.590280
  0
VERTEX
  8
gbo
 10
0.945000
 20
1.590280
  0
SEQEND
  8
gbo
  0
POLYLINE
  8
gbo
 62
1
 40
0.000000
 41
0.000000
 66
  1
  0
VERTEX
  8
gbo
 10
0.920000
 20
1.550280
  0
VERTEX
  8
gbo
 10
0.920000
 20
1.590280
  0
SEQEND
  8
gbo
  0
POLYLINE
  8
gbo
 62
1
 40
0.000000
 41
0.000000
 66
  1
  0
VERTEX
  8
gbo
 10
0.920000
 20
1.550280
  0
VERTEX
  8
gbo
 10
0.945000
 20
1.550280
  0
SEQEND
  8
gbo
  0
POLYLINE
  8
gbo
 62
1
 40
0.000000
 41
0.000000
 66
  1
  0
VERTEX
  8
gbo
 10
0.995000
 20
1.550280
  0
VERTEX
  8
gbo
 10
1.020000
 20
1.550280
  0
VERTEX
  8
gbo
 10
1.020000
 20
1.590280
  0
SEQEND
  8
gbo
  0
POLYLINE
  8
gbo
 62
1
 40
0.000000
 41
0.000000
 66
  1
  0
VERTEX
  8
gbo
 10
0.995000
 20
1.590280
  0
VERTEX
  8
gbo
 10
1.020000
 20
1.590280
  0
SEQEND
  8
gbo
  0
POLYLINE
  8
gbo
 62
1
 40
0.000000
 41
0.000000
 66
  1
  0
VERTEX
  8
gbo
 10
1.525000
 20
0.670280
  0
VERTEX
  8
gbo
 10
1.525000
 20
0.695280
  0
SEQEND
  8
gbo
  0
POLYLINE
  8
gbo
 62
1
 40
0.000000
 41
0.000000
 66
  1
  0
VERTEX
  8
gbo
 10
1.525000
 20
0.670280
  0
VERTEX
  8
gbo
 10
1.565000
 20
0.670280
  0
VERTEX
  8
gbo
 10
1.565000
 20
0.695280
  0
SEQEND
  8
gbo
  0
POLYLINE
  8
gbo
 62
1
 40
0.000000
 41
0.000000
 66
  1
  0
VERTEX
  8
gbo
 10
1.565000
 20
0.745280
  0
VERTEX
  8
gbo
 10
1.565000
 20
0.770280
  0
SEQEND
  8
gbo
  0
POLYLINE
  8
gbo
 62
1
 40
0.000000
 41
0.000000
 66
  1
  0
VERTEX
  8
gbo
 10
1.525000
 20
0.770280
  0
VERTEX
  8
gbo
 10
1.565000
 20
0.770280
  0
SEQEND
  8
gbo
  0
POLYLINE
  8
gbo
 62
1
 40
0.000000
 41
0.000000
 66
  1
  0
VERTEX
  8
gbo
 10
1.525000
 20
0.745280
  0
VERTEX
  8
gbo
 10
1.525000
 20
0.770280
  0
SEQEND
  8
gbo
  0
POLYLINE
  8
gbo
 62
1
 40
0.000000
 41
0.000000
 66
  1
  0
VERTEX
  8
gbo
 10
2.445000
 20
0.585280
  0
VERTEX
  8
gbo
 10
2.445000
 20
0.594500
  0
SEQEND
  8
gbo
  0
POLYLINE
  8
gbo
 62
1
 40
0.000000
 41
0.000000
 66
  1
  0
VERTEX
  8
gbo
 10
2.445000
 20
0.496070
  0
VERTEX
  8
gbo
 10
2.445000
 20
0.505280
  0
SEQEND
  8
gbo
  0
POLYLINE
  8
gbo
 62
1
 40
0.000000
 41
0.000000
 66
  1
  0
VERTEX
  8
gbo
 10
2.295000
 20
0.496070
  0
VERTEX
  8
gbo
 10
2.295000
 20
0.505280
  0
SEQEND
  8
gbo
  0
POLYLINE
  8
gbo
 62
1
 40
0.000000
 41
0.000000
 66
  1
  0
VERTEX
  8
gbo
 10
2.295000
 20
0.585280
  0
VERTEX
  8
gbo
 10
2.295000
 20
0.594500
  0
SEQEND
  8
gbo
  0
POLYLINE
  8
gbo
 62
1
 40
0.000000
 41
0.000000
 66
  1
  0
VERTEX
  8
gbo
 10
2.402500
 20
0.594500
  0
VERTEX
  8
gbo
 10
2.445000
 20
0.594500
  0
SEQEND
  8
gbo
  0
POLYLINE
  8
gbo
 62
1
 40
0.000000
 41
0.000000
 66
  1
  0
VERTEX
  8
gbo
 10
2.402500
 20
0.496070
  0
VERTEX
  8
gbo
 10
2.445000
 20
0.496070
  0
SEQEND
  8
gbo
  0
POLYLINE
  8
gbo
 62
1
 40
0.000000
 41
0.000000
 66
  1
  0
VERTEX
  8
gbo
 10
2.295000
 20
0.594500
  0
VERTEX
  8
gbo
 10
2.347500
 20
0.594500
  0
SEQEND
  8
gbo
  0
POLYLINE
  8
gbo
 62
1
 40
0.000000
 41
0.000000
 66
  1
  0
VERTEX
  8
gbo
 10
2.295000
 20
0.496070
  0
VERTEX
  8
gbo
 10
2.347500
 20
0.496070
  0
SEQEND
  8
gbo
  0
POLYLINE
  8
gbo
 62
1
 40
0.000000
 41
0.000000
 66
  1
  0
VERTEX
  8
gbo
 10
2.725000
 20
0.320280
  0
VERTEX
  8
gbo
 10
2.725000
 20
0.345280
  0
SEQEND
  8
gbo
  0
POLYLINE
  8
gbo
 62
1
 40
0.000000
 41
0.000000
 66
  1
  0
VERTEX
  8
gbo
 10
2.725000
 20
0.320280
  0
VERTEX
  8
gbo
 10
2.765000
 20
0.320280
  0
VERTEX
  8
gbo
 10
2.765000
 20
0.345280
  0
SEQEND
  8
gbo
  0
POLYLINE
  8
gbo
 62
1
 40
0.000000
 41
0.000000
 66
  1
  0
VERTEX
  8
gbo
 10
2.765000
 20
0.395280
  0
VERTEX
  8
gbo
 10
2.765000
 20
0.420280
  0
SEQEND
  8
gbo
  0
POLYLINE
  8
gbo
 62
1
 40
0.000000
 41
0.000000
 66
  1
  0
VERTEX
  8
gbo
 10
2.725000
 20
0.420280
  0
VERTEX
  8
gbo
 10
2.765000
 20
0.420280
  0
SEQEND
  8
gbo
  0
POLYLINE
  8
gbo
 62
1
 40
0.000000
 41
0.000000
 66
  1
  0
VERTEX
  8
gbo
 10
2.725000
 20
0.395280
  0
VERTEX
  8
gbo
 10
2.725000
 20
0.420280
  0
SEQEND
  8
gbo
  0
POLYLINE
  8
gbo
 62
1
 40
0.000000
 41
0.000000
 66
  1
  0
VERTEX
  8
gbo
 10
2.225000
 20
0.345280
  0
VERTEX
  8
gbo
 10
2.225000
 20
0.370280
  0
SEQEND
  8
gbo
  0
POLYLINE
  8
gbo
 62
1
 40
0.000000
 41
0.000000
 66
  1
  0
VERTEX
  8
gbo
 10
2.225000
 20
0.345280
  0
VERTEX
  8
gbo
 10
2.265000
 20
0.345280
  0
VERTEX
  8
gbo
 10
2.265000
 20
0.370280
  0
SEQEND
  8
gbo
  0
POLYLINE
  8
gbo
 62
1
 40
0.000000
 41
0.000000
 66
  1
  0
VERTEX
  8
gbo
 10
2.265000
 20
0.420280
  0
VERTEX
  8
gbo
 10
2.265000
 20
0.445280
  0
SEQEND
  8
gbo
  0
POLYLINE
  8
gbo
 62
1
 40
0.000000
 41
0.000000
 66
  1
  0
VERTEX
  8
gbo
 10
2.225000
 20
0.445280
  0
VERTEX
  8
gbo
 10
2.265000
 20
0.445280
  0
SEQEND
  8
gbo
  0
POLYLINE
  8
gbo
 62
1
 40
0.000000
 41
0.000000
 66
  1
  0
VERTEX
  8
gbo
 10
2.225000
 20
0.420280
  0
VERTEX
  8
gbo
 10
2.225000
 20
0.445280
  0
SEQEND
  8
gbo
  0
POLYLINE
  8
gbo
 62
1
 40
0.000000
 41
0.000000
 66
  1
  0
VERTEX
  8
gbo
 10
2.330000
 20
0.861000
  0
VERTEX
  8
gbo
 10
2.410000
 20
0.861000
  0
SEQEND
  8
gbo
  0
POLYLINE
  8
gbo
 62
1
 40
0.000000
 41
0.000000
 66
  1
  0
VERTEX
  8
gbo
 10
2.330000
 20
1.016000
  0
VERTEX
  8
gbo
 10
2.330000
 20
1.051000
  0
VERTEX
  8
gbo
 10
2.410000
 20
1.051000
  0
SEQEND
  8
gbo
  0
POLYLINE
  8
gbo
 62
1
 40
0.000000
 41
0.000000
 66
  1
  0
VERTEX
  8
gbo
 10
2.410000
 20
1.016000
  0
VERTEX
  8
gbo
 10
2.410000
 20
1.051000
  0
SEQEND
  8
gbo
  0
POLYLINE
  8
gbo
 62
1
 40
0.000000
 41
0.000000
 66
  1
  0
VERTEX
  8
gbo
 10
2.410000
 20
0.861000
  0
VERTEX
  8
gbo
 10
2.410000
 20
0.896000
  0
SEQEND
  8
gbo
  0
POLYLINE
  8
gbo
 62
1
 40
0.000000
 41
0.000000
 66
  1
  0
VERTEX
  8
gbo
 10
2.330000
 20
0.861000
  0
VERTEX
  8
gbo
 10
2.330000
 20
0.896000
  0
SEQEND
  8
gbo
  0
POLYLINE
  8
gbo
 62
1
 40
0.000000
 41
0.000000
 66
  1
  0
VERTEX
  8
gbo
 10
1.459060
 20
1.809280
  0
VERTEX
  8
gbo
 10
1.469060
 20
1.819270
  0
VERTEX
  8
gbo
 10
1.489050
 20
1.819270
  0
VERTEX
  8
gbo
 10
1.499050
 20
1.809280
  0
VERTEX
  8
gbo
 10
1.499050
 20
1.799280
  0
VERTEX
  8
gbo
 10
1.489050
 20
1.789280
  0
VERTEX
  8
gbo
 10
1.479050
 20
1.789280
  0
VERTEX
  8
gbo
 10
1.489050
 20
1.789280
  0
VERTEX
  8
gbo
 10
1.499050
 20
1.779290
  0
VERTEX
  8
gbo
 10
1.499050
 20
1.769290
  0
VERTEX
  8
gbo
 10
1.489050
 20
1.759290
  0
VERTEX
  8
gbo
 10
1.469060
 20
1.759290
  0
VERTEX
  8
gbo
 10
1.459060
 20
1.769290
  0
SEQEND
  8
gbo
  0
POLYLINE
  8
gbo
 62
1
 40
0.000000
 41
0.000000
 66
  1
  0
VERTEX
  8
gbo
 10
1.519040
 20
1.809280
  0
VERTEX
  8
gbo
 10
1.529040
 20
1.819270
  0
VERTEX
  8
gbo
 10
1.549030
 20
1.819270
  0
VERTEX
  8
gbo
 10
1.559030
 20
1.809280
  0
VERTEX
  8
gbo
 10
1.559030
 20
1.799280
  0
VERTEX
  8
gbo
 10
1.549030
 20
1.789280
  0
VERTEX
  8
gbo
 10
1.539030
 20
1.789280
  0
VERTEX
  8
gbo
 10
1.549030
 20
1.789280
  0
VERTEX
  8
gbo
 10
1.559030
 20
1.779290
  0
VERTEX
  8
gbo
 10
1.559030
 20
1.769290
  0
VERTEX
  8
gbo
 10
1.549030
 20
1.759290
  0
VERTEX
  8
gbo
 10
1.529040
 20
1.759290
  0
VERTEX
  8
gbo
 10
1.519040
 20
1.769290
  0
SEQEND
  8
gbo
  0
POLYLINE
  8
gbo
 62
1
 40
0.000000
 41
0.000000
 66
  1
  0
VERTEX
  8
gbo
 10
1.619010
 20
1.759290
  0
VERTEX
  8
gbo
 10
1.579020
 20
1.759290
  0
VERTEX
  8
gbo
 10
1.619010
 20
1.799280
  0
VERTEX
  8
gbo
 10
1.619010
 20
1.809280
  0
VERTEX
  8
gbo
 10
1.609010
 20
1.819270
  0
VERTEX
  8
gbo
 10
1.589020
 20
1.819270
  0
VERTEX
  8
gbo
 10
1.579020
 20
1.809280
  0
SEQEND
  8
gbo
  0
POLYLINE
  8
gbo
 62
1
 40
0.000000
 41
0.000000
 66
  1
  0
VERTEX
  8
gbo
 10
1.639000
 20
1.809280
  0
VERTEX
  8
gbo
 10
1.649000
 20
1.819270
  0
VERTEX
  8
gbo
 10
1.668990
 20
1.819270
  0
VERTEX
  8
gbo
 10
1.678990
 20
1.809280
  0
VERTEX
  8
gbo
 10
1.678990
 20
1.769290
  0
VERTEX
  8
gbo
 10
1.668990
 20
1.759290
  0
VERTEX
  8
gbo
 10
1.649000
 20
1.759290
  0
VERTEX
  8
gbo
 10
1.639000
 20
1.769290
  0
VERTEX
  8
gbo
 10
1.639000
 20
1.809280
  0
SEQEND
  8
gbo
  0
POLYLINE
  8
gbo
 62
1
 40
0.000000
 41
0.000000
 66
  1
  0
VERTEX
  8
gbo
 10
1.698980
 20
1.759290
  0
VERTEX
  8
gbo
 10
1.698980
 20
1.799280
  0
VERTEX
  8
gbo
 10
1.708980
 20
1.799280
  0
VERTEX
  8
gbo
 10
1.718980
 20
1.789280
  0
VERTEX
  8
gbo
 10
1.718980
 20
1.759290
  0
VERTEX
  8
gbo
 10
1.718980
 20
1.789280
  0
VERTEX
  8
gbo
 10
1.728970
 20
1.799280
  0
VERTEX
  8
gbo
 10
1.738970
 20
1.789280
  0
VERTEX
  8
gbo
 10
1.738970
 20
1.759290
  0
SEQEND
  8
gbo
  0
POLYLINE
  8
gbo
 62
1
 40
0.000000
 41
0.000000
 66
  1
  0
VERTEX
  8
gbo
 10
1.758960
 20
1.759290
  0
VERTEX
  8
gbo
 10
1.778960
 20
1.759290
  0
VERTEX
  8
gbo
 10
1.768960
 20
1.759290
  0
VERTEX
  8
gbo
 10
1.768960
 20
1.799280
  0
VERTEX
  8
gbo
 10
1.758960
 20
1.799280
  0
SEQEND
  8
gbo
  0
POLYLINE
  8
gbo
 62
1
 40
0.000000
 41
0.000000
 66
  1
  0
VERTEX
  8
gbo
 10
1.808950
 20
1.759290
  0
VERTEX
  8
gbo
 10
1.828940
 20
1.759290
  0
VERTEX
  8
gbo
 10
1.818940
 20
1.759290
  0
VERTEX
  8
gbo
 10
1.818940
 20
1.819270
  0
VERTEX
  8
gbo
 10
1.808950
 20
1.819270
  0
SEQEND
  8
gbo
  0
POLYLINE
  8
gbo
 62
1
 40
0.000000
 41
0.000000
 66
  1
  0
VERTEX
  8
gbo
 10
-0.064010
 20
0.675480
  0
VERTEX
  8
gbo
 10
-0.064010
 20
0.695480
  0
VERTEX
  8
gbo
 10
-0.064010
 20
0.685480
  0
VERTEX
  8
gbo
 10
-0.123990
 20
0.685480
  0
VERTEX
  8
gbo
 10
-0.113990
 20
0.675480
  0
SEQEND
  8
gbo
  0
POLYLINE
  8
gbo
 62
1
 40
0.000000
 41
0.000000
 66
  1
  0
VERTEX
  8
gbo
 10
-0.064010
 20
0.755460
  0
VERTEX
  8
gbo
 10
-0.123990
 20
0.755460
  0
VERTEX
  8
gbo
 10
-0.094000
 20
0.725470
  0
VERTEX
  8
gbo
 10
-0.094000
 20
0.765450
  0
SEQEND
  8
gbo
  0
POLYLINE
  8
gbo
 62
1
 40
0.000000
 41
0.000000
 66
  1
  0
VERTEX
  8
gbo
 10
-0.064010
 20
0.785450
  0
VERTEX
  8
gbo
 10
-0.064010
 20
0.805440
  0
VERTEX
  8
gbo
 10
-0.064010
 20
0.795440
  0
VERTEX
  8
gbo
 10
-0.123990
 20
0.795440
  0
VERTEX
  8
gbo
 10
-0.113990
 20
0.785450
  0
SEQEND
  8
gbo
  0
POLYLINE
  8
gbo
 62
1
 40
0.000000
 41
0.000000
 66
  1
  0
VERTEX
  8
gbo
 10
-0.113990
 20
0.835430
  0
VERTEX
  8
gbo
 10
-0.123990
 20
0.845430
  0
VERTEX
  8
gbo
 10
-0.123990
 20
0.865420
  0
VERTEX
  8
gbo
 10
-0.113990
 20
0.875420
  0
VERTEX
  8
gbo
 10
-0.104000
 20
0.875420
  0
VERTEX
  8
gbo
 10
-0.094000
 20
0.865420
  0
VERTEX
  8
gbo
 10
-0.084000
 20
0.875420
  0
VERTEX
  8
gbo
 10
-0.074010
 20
0.875420
  0
VERTEX
  8
gbo
 10
-0.064010
 20
0.865420
  0
VERTEX
  8
gbo
 10
-0.064010
 20
0.845430
  0
VERTEX
  8
gbo
 10
-0.074010
 20
0.835430
  0
VERTEX
  8
gbo
 10
-0.084000
 20
0.835430
  0
VERTEX
  8
gbo
 10
-0.094000
 20
0.845430
  0
VERTEX
  8
gbo
 10
-0.104000
 20
0.835430
  0
VERTEX
  8
gbo
 10
-0.113990
 20
0.835430
  0
SEQEND
  8
gbo
  0
POLYLINE
  8
gbo
 62
1
 40
0.000000
 41
0.000000
 66
  1
  0
VERTEX
  8
gbo
 10
-0.094000
 20
0.845430
  0
VERTEX
  8
gbo
 10
-0.094000
 20
0.865420
  0
SEQEND
  8
gbo
  0
POLYLINE
  8
gbo
 62
1
 40
0.000000
 41
0.000000
 66
  1
  0
VERTEX
  8
gbo
 10
-0.064010
 20
0.895410
  0
VERTEX
  8
gbo
 10
-0.104000
 20
0.895410
  0
VERTEX
  8
gbo
 10
-0.104000
 20
0.905410
  0
VERTEX
  8
gbo
 10
-0.094000
 20
0.915400
  0
VERTEX
  8
gbo
 10
-0.064010
 20
0.915400
  0
VERTEX
  8
gbo
 10
-0.094000
 20
0.915400
  0
VERTEX
  8
gbo
 10
-0.104000
 20
0.925400
  0
VERTEX
  8
gbo
 10
-0.094000
 20
0.935400
  0
VERTEX
  8
gbo
 10
-0.064010
 20
0.935400
  0
SEQEND
  8
gbo
  0
POLYLINE
  8
gbo
 62
1
 40
0.000000
 41
0.000000
 66
  1
  0
VERTEX
  8
gbo
 10
-0.064010
 20
0.955390
  0
VERTEX
  8
gbo
 10
-0.064010
 20
0.975390
  0
VERTEX
  8
gbo
 10
-0.064010
 20
0.965390
  0
VERTEX
  8
gbo
 10
-0.104000
 20
0.965390
  0
VERTEX
  8
gbo
 10
-0.104000
 20
0.955390
  0
SEQEND
  8
gbo
  0
POLYLINE
  8
gbo
 62
1
 40
0.000000
 41
0.000000
 66
  1
  0
VERTEX
  8
gbo
 10
-0.064010
 20
1.005380
  0
VERTEX
  8
gbo
 10
-0.064010
 20
1.025370
  0
VERTEX
  8
gbo
 10
-0.064010
 20
1.015370
  0
VERTEX
  8
gbo
 10
-0.123990
 20
1.015370
  0
VERTEX
  8
gbo
 10
-0.123990
 20
1.005380
  0
SEQEND
  8
gbo
  0
POLYLINE
  8
gbo
 62
1
 40
0.000000
 41
0.000000
 66
  1
  0
VERTEX
  8
gbo
 10
-0.135000
 20
1.765280
  0
VERTEX
  8
gbo
 10
-0.135000
 20
1.785280
  0
VERTEX
  8
gbo
 10
-0.135000
 20
1.775280
  0
VERTEX
  8
gbo
 10
-0.194980
 20
1.775280
  0
VERTEX
  8
gbo
 10
-0.184980
 20
1.765280
  0
SEQEND
  8
gbo
  0
POLYLINE
  8
gbo
 62
1
 40
0.000000
 41
0.000000
 66
  1
  0
VERTEX
  8
gbo
 10
-0.194980
 20
1.855260
  0
VERTEX
  8
gbo
 10
-0.194980
 20
1.815270
  0
VERTEX
  8
gbo
 10
-0.164990
 20
1.815270
  0
VERTEX
  8
gbo
 10
-0.174990
 20
1.835260
  0
VERTEX
  8
gbo
 10
-0.174990
 20
1.845260
  0
VERTEX
  8
gbo
 10
-0.164990
 20
1.855260
  0
VERTEX
  8
gbo
 10
-0.145000
 20
1.855260
  0
VERTEX
  8
gbo
 10
-0.135000
 20
1.845260
  0
VERTEX
  8
gbo
 10
-0.135000
 20
1.825270
  0
VERTEX
  8
gbo
 10
-0.145000
 20
1.815270
  0
SEQEND
  8
gbo
  0
POLYLINE
  8
gbo
 62
1
 40
0.000000
 41
0.000000
 66
  1
  0
VERTEX
  8
gbo
 10
-0.194980
 20
1.915240
  0
VERTEX
  8
gbo
 10
-0.194980
 20
1.875250
  0
VERTEX
  8
gbo
 10
-0.164990
 20
1.875250
  0
VERTEX
  8
gbo
 10
-0.174990
 20
1.895240
  0
VERTEX
  8
gbo
 10
-0.174990
 20
1.905240
  0
VERTEX
  8
gbo
 10
-0.164990
 20
1.915240
  0
VERTEX
  8
gbo
 10
-0.145000
 20
1.915240
  0
VERTEX
  8
gbo
 10
-0.135000
 20
1.905240
  0
VERTEX
  8
gbo
 10
-0.135000
 20
1.885240
  0
VERTEX
  8
gbo
 10
-0.145000
 20
1.875250
  0
SEQEND
  8
gbo
  0
POLYLINE
  8
gbo
 62
1
 40
0.000000
 41
0.000000
 66
  1
  0
VERTEX
  8
gbo
 10
-0.240000
 20
0.660280
  0
VERTEX
  8
gbo
 10
-0.240000
 20
0.680280
  0
VERTEX
  8
gbo
 10
-0.240000
 20
0.670280
  0
VERTEX
  8
gbo
 10
-0.299980
 20
0.670280
  0
VERTEX
  8
gbo
 10
-0.289980
 20
0.660280
  0
SEQEND
  8
gbo
  0
POLYLINE
  8
gbo
 62
1
 40
0.000000
 41
0.000000
 66
  1
  0
VERTEX
  8
gbo
 10
-0.299980
 20
0.710270
  0
VERTEX
  8
gbo
 10
-0.299980
 20
0.750250
  0
VERTEX
  8
gbo
 10
-0.289980
 20
0.750250
  0
VERTEX
  8
gbo
 10
-0.250000
 20
0.710270
  0
VERTEX
  8
gbo
 10
-0.240000
 20
0.710270
  0
SEQEND
  8
gbo
  0
POLYLINE
  8
gbo
 62
1
 40
0.000000
 41
0.000000
 66
  1
  0
VERTEX
  8
gbo
 10
-0.289980
 20
0.770250
  0
VERTEX
  8
gbo
 10
-0.299980
 20
0.780250
  0
VERTEX
  8
gbo
 10
-0.299980
 20
0.800240
  0
VERTEX
  8
gbo
 10
-0.289980
 20
0.810240
  0
VERTEX
  8
gbo
 10
-0.279990
 20
0.810240
  0
VERTEX
  8
gbo
 10
-0.269990
 20
0.800240
  0
VERTEX
  8
gbo
 10
-0.269990
 20
0.790240
  0
VERTEX
  8
gbo
 10
-0.269990
 20
0.800240
  0
VERTEX
  8
gbo
 10
-0.259990
 20
0.810240
  0
VERTEX
  8
gbo
 10
-0.250000
 20
0.810240
  0
VERTEX
  8
gbo
 10
-0.240000
 20
0.800240
  0
VERTEX
  8
gbo
 10
-0.240000
 20
0.780250
  0
VERTEX
  8
gbo
 10
-0.250000
 20
0.770250
  0
SEQEND
  8
gbo
  0
POLYLINE
  8
gbo
 62
1
 40
0.000000
 41
0.000000
 66
  1
  0
VERTEX
  8
gbo
 10
-0.289980
 20
0.830230
  0
VERTEX
  8
gbo
 10
-0.299980
 20
0.840230
  0
VERTEX
  8
gbo
 10
-0.299980
 20
0.860220
  0
VERTEX
  8
gbo
 10
-0.289980
 20
0.870220
  0
VERTEX
  8
gbo
 10
-0.250000
 20
0.870220
  0
VERTEX
  8
gbo
 10
-0.240000
 20
0.860220
  0
VERTEX
  8
gbo
 10
-0.240000
 20
0.840230
  0
VERTEX
  8
gbo
 10
-0.250000
 20
0.830230
  0
VERTEX
  8
gbo
 10
-0.289980
 20
0.830230
  0
SEQEND
  8
gbo
  0
POLYLINE
  8
gbo
 62
1
 40
0.000000
 41
0.000000
 66
  1
  0
VERTEX
  8
gbo
 10
-0.240000
 20
0.890210
  0
VERTEX
  8
gbo
 10
-0.279990
 20
0.890210
  0
VERTEX
  8
gbo
 10
-0.279990
 20
0.900210
  0
VERTEX
  8
gbo
 10
-0.269990
 20
0.910200
  0
VERTEX
  8
gbo
 10
-0.240000
 20
0.910200
  0
VERTEX
  8
gbo
 10
-0.269990
 20
0.910200
  0
VERTEX
  8
gbo
 10
-0.279990
 20
0.920200
  0
VERTEX
  8
gbo
 10
-0.269990
 20
0.930200
  0
VERTEX
  8
gbo
 10
-0.240000
 20
0.930200
  0
SEQEND
  8
gbo
  0
POLYLINE
  8
gbo
 62
1
 40
0.000000
 41
0.000000
 66
  1
  0
VERTEX
  8
gbo
 10
-0.240000
 20
0.950190
  0
VERTEX
  8
gbo
 10
-0.240000
 20
0.970180
  0
VERTEX
  8
gbo
 10
-0.240000
 20
0.960190
  0
VERTEX
  8
gbo
 10
-0.279990
 20
0.960190
  0
VERTEX
  8
gbo
 10
-0.279990
 20
0.950190
  0
SEQEND
  8
gbo
  0
POLYLINE
  8
gbo
 62
1
 40
0.000000
 41
0.000000
 66
  1
  0
VERTEX
  8
gbo
 10
-0.240000
 20
1.000170
  0
VERTEX
  8
gbo
 10
-0.240000
 20
1.020170
  0
VERTEX
  8
gbo
 10
-0.240000
 20
1.010170
  0
VERTEX
  8
gbo
 10
-0.299980
 20
1.010170
  0
VERTEX
  8
gbo
 10
-0.299980
 20
1.000170
  0
SEQEND
  8
gbo
  0
POLYLINE
  8
gbo
 62
1
 40
0.000000
 41
0.000000
 66
  1
  0
VERTEX
  8
gbo
 10
1.806000
 20
1.514280
  0
VERTEX
  8
gbo
 10
1.806000
 20
1.528280
  0
SEQEND
  8
gbo
  0
POLYLINE
  8
gbo
 62
1
 40
0.000000
 41
0.000000
 66
  1
  0
VERTEX
  8
gbo
 10
1.834000
 20
1.514280
  0
VERTEX
  8
gbo
 10
1.834000
 20
1.528280
  0
SEQEND
  8
gbo
  0
POLYLINE
  8
gbo
 62
1
 40
0.000000
 41
0.000000
 66
  1
  0
VERTEX
  8
gbo
 10
1.834000
 20
1.561280
  0
VERTEX
  8
gbo
 10
1.834000
 20
1.576280
  0
SEQEND
  8
gbo
  0
POLYLINE
  8
gbo
 62
1
 40
0.000000
 41
0.000000
 66
  1
  0
VERTEX
  8
gbo
 10
1.806000
 20
1.514280
  0
VERTEX
  8
gbo
 10
1.834000
 20
1.514280
  0
SEQEND
  8
gbo
  0
POLYLINE
  8
gbo
 62
1
 40
0.000000
 41
0.000000
 66
  1
  0
VERTEX
  8
gbo
 10
1.806000
 20
1.561280
  0
VERTEX
  8
gbo
 10
1.806000
 20
1.576280
  0
VERTEX
  8
gbo
 10
1.834000
 20
1.576280
  0
SEQEND
  8
gbo
  0
POLYLINE
  8
gbo
 62
1
 40
0.000000
 41
0.000000
 66
  1
  0
VERTEX
  8
gbo
 10
1.881000
 20
1.514280
  0
VERTEX
  8
gbo
 10
1.881000
 20
1.528280
  0
SEQEND
  8
gbo
  0
POLYLINE
  8
gbo
 62
1
 40
0.000000
 41
0.000000
 66
  1
  0
VERTEX
  8
gbo
 10
1.909000
 20
1.514280
  0
VERTEX
  8
gbo
 10
1.909000
 20
1.528280
  0
SEQEND
  8
gbo
  0
POLYLINE
  8
gbo
 62
1
 40
0.000000
 41
0.000000
 66
  1
  0
VERTEX
  8
gbo
 10
1.909000
 20
1.561280
  0
VERTEX
  8
gbo
 10
1.909000
 20
1.576280
  0
SEQEND
  8
gbo
  0
POLYLINE
  8
gbo
 62
1
 40
0.000000
 41
0.000000
 66
  1
  0
VERTEX
  8
gbo
 10
1.881000
 20
1.514280
  0
VERTEX
  8
gbo
 10
1.909000
 20
1.514280
  0
SEQEND
  8
gbo
  0
POLYLINE
  8
gbo
 62
1
 40
0.000000
 41
0.000000
 66
  1
  0
VERTEX
  8
gbo
 10
1.881000
 20
1.561280
  0
VERTEX
  8
gbo
 10
1.881000
 20
1.576280
  0
VERTEX
  8
gbo
 10
1.909000
 20
1.576280
  0
SEQEND
  8
gbo
  0
POLYLINE
  8
gbo
 62
1
 40
0.000000
 41
0.000000
 66
  1
  0
VERTEX
  8
gbo
 10
1.484000
 20
0.987280
  0
VERTEX
  8
gbo
 10
1.484000
 20
1.001280
  0
SEQEND
  8
gbo
  0
POLYLINE
  8
gbo
 62
1
 40
0.000000
 41
0.000000
 66
  1
  0
VERTEX
  8
gbo
 10
1.456000
 20
0.987280
  0
VERTEX
  8
gbo
 10
1.456000
 20
1.001280
  0
SEQEND
  8
gbo
  0
POLYLINE
  8
gbo
 62
1
 40
0.000000
 41
0.000000
 66
  1
  0
VERTEX
  8
gbo
 10
1.456000
 20
0.939280
  0
VERTEX
  8
gbo
 10
1.456000
 20
0.954280
  0
SEQEND
  8
gbo
  0
POLYLINE
  8
gbo
 62
1
 40
0.000000
 41
0.000000
 66
  1
  0
VERTEX
  8
gbo
 10
1.456000
 20
1.001280
  0
VERTEX
  8
gbo
 10
1.484000
 20
1.001280
  0
SEQEND
  8
gbo
  0
POLYLINE
  8
gbo
 62
1
 40
0.000000
 41
0.000000
 66
  1
  0
VERTEX
  8
gbo
 10
1.484000
 20
0.939280
  0
VERTEX
  8
gbo
 10
1.484000
 20
0.954280
  0
SEQEND
  8
gbo
  0
POLYLINE
  8
gbo
 62
1
 40
0.000000
 41
0.000000
 66
  1
  0
VERTEX
  8
gbo
 10
1.456000
 20
0.939280
  0
VERTEX
  8
gbo
 10
1.484000
 20
0.939280
  0
SEQEND
  8
gbo
  0
POLYLINE
  8
gbo
 62
1
 40
0.000000
 41
0.000000
 66
  1
  0
VERTEX
  8
gbo
 10
1.731000
 20
1.514280
  0
VERTEX
  8
gbo
 10
1.731000
 20
1.528280
  0
SEQEND
  8
gbo
  0
POLYLINE
  8
gbo
 62
1
 40
0.000000
 41
0.000000
 66
  1
  0
VERTEX
  8
gbo
 10
1.759000
 20
1.514280
  0
VERTEX
  8
gbo
 10
1.759000
 20
1.528280
  0
SEQEND
  8
gbo
  0
POLYLINE
  8
gbo
 62
1
 40
0.000000
 41
0.000000
 66
  1
  0
VERTEX
  8
gbo
 10
1.759000
 20
1.561280
  0
VERTEX
  8
gbo
 10
1.759000
 20
1.576280
  0
SEQEND
  8
gbo
  0
POLYLINE
  8
gbo
 62
1
 40
0.000000
 41
0.000000
 66
  1
  0
VERTEX
  8
gbo
 10
1.731000
 20
1.514280
  0
VERTEX
  8
gbo
 10
1.759000
 20
1.514280
  0
SEQEND
  8
gbo
  0
POLYLINE
  8
gbo
 62
1
 40
0.000000
 41
0.000000
 66
  1
  0
VERTEX
  8
gbo
 10
1.731000
 20
1.561280
  0
VERTEX
  8
gbo
 10
1.731000
 20
1.576280
  0
VERTEX
  8
gbo
 10
1.759000
 20
1.576280
  0
SEQEND
  8
gbo
  0
POLYLINE
  8
gbo
 62
1
 40
0.000000
 41
0.000000
 66
  1
  0
VERTEX
  8
gbo
 10
2.631000
 20
0.339280
  0
VERTEX
  8
gbo
 10
2.659000
 20
0.339280
  0
VERTEX
  8
gbo
 10
2.659000
 20
0.354280
  0
SEQEND
  8
gbo
  0
POLYLINE
  8
gbo
 62
1
 40
0.000000
 41
0.000000
 66
  1
  0
VERTEX
  8
gbo
 10
2.631000
 20
0.401280
  0
VERTEX
  8
gbo
 10
2.659000
 20
0.401280
  0
SEQEND
  8
gbo
  0
POLYLINE
  8
gbo
 62
1
 40
0.000000
 41
0.000000
 66
  1
  0
VERTEX
  8
gbo
 10
2.631000
 20
0.339280
  0
VERTEX
  8
gbo
 10
2.631000
 20
0.354280
  0
SEQEND
  8
gbo
  0
POLYLINE
  8
gbo
 62
1
 40
0.000000
 41
0.000000
 66
  1
  0
VERTEX
  8
gbo
 10
2.631000
 20
0.387280
  0
VERTEX
  8
gbo
 10
2.631000
 20
0.401280
  0
SEQEND
  8
gbo
  0
POLYLINE
  8
gbo
 62
1
 40
0.000000
 41
0.000000
 66
  1
  0
VERTEX
  8
gbo
 10
2.659000
 20
0.387280
  0
VERTEX
  8
gbo
 10
2.659000
 20
0.401280
  0
SEQEND
  8
gbo
  0
POLYLINE
  8
gbo
 62
1
 40
0.000000
 41
0.000000
 66
  1
  0
VERTEX
  8
gbo
 10
2.556000
 20
0.339280
  0
VERTEX
  8
gbo
 10
2.584000
 20
0.339280
  0
VERTEX
  8
gbo
 10
2.584000
 20
0.354280
  0
SEQEND
  8
gbo
  0
POLYLINE
  8
gbo
 62
1
 40
0.000000
 41
0.000000
 66
  1
  0
VERTEX
  8
gbo
 10
2.556000
 20
0.401280
  0
VERTEX
  8
gbo
 10
2.584000
 20
0.401280
  0
SEQEND
  8
gbo
  0
POLYLINE
  8
gbo
 62
1
 40
0.000000
 41
0.000000
 66
  1
  0
VERTEX
  8
gbo
 10
2.556000
 20
0.339280
  0
VERTEX
  8
gbo
 10
2.556000
 20
0.354280
  0
SEQEND
  8
gbo
  0
POLYLINE
  8
gbo
 62
1
 40
0.000000
 41
0.000000
 66
  1
  0
VERTEX
  8
gbo
 10
2.556000
 20
0.387280
  0
VERTEX
  8
gbo
 10
2.556000
 20
0.401280
  0
SEQEND
  8
gbo
  0
POLYLINE
  8
gbo
 62
1
 40
0.000000
 41
0.000000
 66
  1
  0
VERTEX
  8
gbo
 10
2.584000
 20
0.387280
  0
VERTEX
  8
gbo
 10
2.584000
 20
0.401280
  0
SEQEND
  8
gbo
  0
POLYLINE
  8
gbo
 62
1
 40
0.000000
 41
0.000000
 66
  1
  0
VERTEX
  8
gbo
 10
1.456000
 20
1.089280
  0
VERTEX
  8
gbo
 10
1.484000
 20
1.089280
  0
VERTEX
  8
gbo
 10
1.484000
 20
1.104280
  0
SEQEND
  8
gbo
  0
POLYLINE
  8
gbo
 62
1
 40
0.000000
 41
0.000000
 66
  1
  0
VERTEX
  8
gbo
 10
1.456000
 20
1.151280
  0
VERTEX
  8
gbo
 10
1.484000
 20
1.151280
  0
SEQEND
  8
gbo
  0
POLYLINE
  8
gbo
 62
1
 40
0.000000
 41
0.000000
 66
  1
  0
VERTEX
  8
gbo
 10
1.456000
 20
1.089280
  0
VERTEX
  8
gbo
 10
1.456000
 20
1.104280
  0
SEQEND
  8
gbo
  0
POLYLINE
  8
gbo
 62
1
 40
0.000000
 41
0.000000
 66
  1
  0
VERTEX
  8
gbo
 10
1.456000
 20
1.137280
  0
VERTEX
  8
gbo
 10
1.456000
 20
1.151280
  0
SEQEND
  8
gbo
  0
POLYLINE
  8
gbo
 62
1
 40
0.000000
 41
0.000000
 66
  1
  0
VERTEX
  8
gbo
 10
1.484000
 20
1.137280
  0
VERTEX
  8
gbo
 10
1.484000
 20
1.151280
  0
SEQEND
  8
gbo
  0
POLYLINE
  8
gbo
 62
1
 40
0.000000
 41
0.000000
 66
  1
  0
VERTEX
  8
gbo
 10
1.264000
 20
0.709280
  0
VERTEX
  8
gbo
 10
1.278000
 20
0.709280
  0
SEQEND
  8
gbo
  0
POLYLINE
  8
gbo
 62
1
 40
0.000000
 41
0.000000
 66
  1
  0
VERTEX
  8
gbo
 10
1.264000
 20
0.681280
  0
VERTEX
  8
gbo
 10
1.278000
 20
0.681280
  0
SEQEND
  8
gbo
  0
POLYLINE
  8
gbo
 62
1
 40
0.000000
 41
0.000000
 66
  1
  0
VERTEX
  8
gbo
 10
1.311000
 20
0.681280
  0
VERTEX
  8
gbo
 10
1.326000
 20
0.681280
  0
SEQEND
  8
gbo
  0
POLYLINE
  8
gbo
 62
1
 40
0.000000
 41
0.000000
 66
  1
  0
VERTEX
  8
gbo
 10
1.264000
 20
0.681280
  0
VERTEX
  8
gbo
 10
1.264000
 20
0.709280
  0
SEQEND
  8
gbo
  0
POLYLINE
  8
gbo
 62
1
 40
0.000000
 41
0.000000
 66
  1
  0
VERTEX
  8
gbo
 10
1.311000
 20
0.709280
  0
VERTEX
  8
gbo
 10
1.326000
 20
0.709280
  0
SEQEND
  8
gbo
  0
POLYLINE
  8
gbo
 62
1
 40
0.000000
 41
0.000000
 66
  1
  0
VERTEX
  8
gbo
 10
1.326000
 20
0.681280
  0
VERTEX
  8
gbo
 10
1.326000
 20
0.709280
  0
SEQEND
  8
gbo
  0
POLYLINE
  8
gbo
 62
1
 40
0.000000
 41
0.000000
 66
  1
  0
VERTEX
  8
gbo
 10
1.956000
 20
1.576280
  0
VERTEX
  8
gbo
 10
1.984000
 20
1.576280
  0
SEQEND
  8
gbo
  0
POLYLINE
  8
gbo
 62
1
 40
0.000000
 41
0.000000
 66
  1
  0
VERTEX
  8
gbo
 10
1.956000
 20
1.561280
  0
VERTEX
  8
gbo
 10
1.956000
 20
1.576280
  0
SEQEND
  8
gbo
  0
POLYLINE
  8
gbo
 62
1
 40
0.000000
 41
0.000000
 66
  1
  0
VERTEX
  8
gbo
 10
1.956000
 20
1.514280
  0
VERTEX
  8
gbo
 10
1.984000
 20
1.514280
  0
SEQEND
  8
gbo
  0
POLYLINE
  8
gbo
 62
1
 40
0.000000
 41
0.000000
 66
  1
  0
VERTEX
  8
gbo
 10
1.984000
 20
1.561280
  0
VERTEX
  8
gbo
 10
1.984000
 20
1.576280
  0
SEQEND
  8
gbo
  0
POLYLINE
  8
gbo
 62
1
 40
0.000000
 41
0.000000
 66
  1
  0
VERTEX
  8
gbo
 10
1.984000
 20
1.514280
  0
VERTEX
  8
gbo
 10
1.984000
 20
1.528280
  0
SEQEND
  8
gbo
  0
POLYLINE
  8
gbo
 62
1
 40
0.000000
 41
0.000000
 66
  1
  0
VERTEX
  8
gbo
 10
1.956000
 20
1.514280
  0
VERTEX
  8
gbo
 10
1.956000
 20
1.528280
  0
SEQEND
  8
gbo
  0
POLYLINE
  8
gbo
 62
1
 40
0.000000
 41
0.000000
 66
  1
  0
VERTEX
  8
gbo
 10
1.361440
 20
1.655750
  0
VERTEX
  8
gbo
 10
1.363340
 20
1.659560
  0
VERTEX
  8
gbo
 10
1.367150
 20
1.663370
  0
VERTEX
  8
gbo
 10
1.370960
 20
1.665270
  0
VERTEX
  8
gbo
 10
1.378570
 20
1.665270
  0
VERTEX
  8
gbo
 10
1.382380
 20
1.663370
  0
VERTEX
  8
gbo
 10
1.386190
 20
1.659560
  0
VERTEX
  8
gbo
 10
1.388100
 20
1.655750
  0
VERTEX
  8
gbo
 10
1.390000
 20
1.650040
  0
VERTEX
  8
gbo
 10
1.390000
 20
1.640520
  0
VERTEX
  8
gbo
 10
1.388100
 20
1.634810
  0
VERTEX
  8
gbo
 10
1.386190
 20
1.631000
  0
VERTEX
  8
gbo
 10
1.382380
 20
1.627190
  0
VERTEX
  8
gbo
 10
1.378570
 20
1.625280
  0
VERTEX
  8
gbo
 10
1.370960
 20
1.625280
  0
VERTEX
  8
gbo
 10
1.367150
 20
1.627190
  0
VERTEX
  8
gbo
 10
1.363340
 20
1.631000
  0
VERTEX
  8
gbo
 10
1.361440
 20
1.634810
  0
SEQEND
  8
gbo
  0
POLYLINE
  8
gbo
 62
1
 40
0.000000
 41
0.000000
 66
  1
  0
VERTEX
  8
gbo
 10
1.350200
 20
1.665270
  0
VERTEX
  8
gbo
 10
1.350200
 20
1.625280
  0
SEQEND
  8
gbo
  0
POLYLINE
  8
gbo
 62
1
 40
0.000000
 41
0.000000
 66
  1
  0
VERTEX
  8
gbo
 10
1.350200
 20
1.665270
  0
VERTEX
  8
gbo
 10
1.323540
 20
1.625280
  0
SEQEND
  8
gbo
  0
POLYLINE
  8
gbo
 62
1
 40
0.000000
 41
0.000000
 66
  1
  0
VERTEX
  8
gbo
 10
1.323540
 20
1.665270
  0
VERTEX
  8
gbo
 10
1.323540
 20
1.625280
  0
SEQEND
  8
gbo
  0
POLYLINE
  8
gbo
 62
1
 40
0.000000
 41
0.000000
 66
  1
  0
VERTEX
  8
gbo
 10
1.308680
 20
1.665270
  0
VERTEX
  8
gbo
 10
1.287740
 20
1.665270
  0
VERTEX
  8
gbo
 10
1.299160
 20
1.650040
  0
VERTEX
  8
gbo
 10
1.293450
 20
1.650040
  0
VERTEX
  8
gbo
 10
1.289640
 20
1.648140
  0
VERTEX
  8
gbo
 10
1.287740
 20
1.646230
  0
VERTEX
  8
gbo
 10
1.285830
 20
1.640520
  0
VERTEX
  8
gbo
 10
1.285830
 20
1.636710
  0
VERTEX
  8
gbo
 10
1.287740
 20
1.631000
  0
VERTEX
  8
gbo
 10
1.291550
 20
1.627190
  0
VERTEX
  8
gbo
 10
1.297260
 20
1.625280
  0
VERTEX
  8
gbo
 10
1.302970
 20
1.625280
  0
VERTEX
  8
gbo
 10
1.308680
 20
1.627190
  0
VERTEX
  8
gbo
 10
1.310590
 20
1.629090
  0
VERTEX
  8
gbo
 10
1.312490
 20
1.632900
  0
SEQEND
  8
gbo
  0
POLYLINE
  8
gbo
 62
1
 40
0.000000
 41
0.000000
 66
  1
  0
VERTEX
  8
gbo
 10
2.725010
 20
0.500000
  0
VERTEX
  8
gbo
 10
2.765000
 20
0.500000
  0
VERTEX
  8
gbo
 10
2.765000
 20
0.477150
  0
SEQEND
  8
gbo
  0
POLYLINE
  8
gbo
 62
1
 40
0.000000
 41
0.000000
 66
  1
  0
VERTEX
  8
gbo
 10
2.734530
 20
0.470860
  0
VERTEX
  8
gbo
 10
2.732630
 20
0.470860
  0
VERTEX
  8
gbo
 10
2.728820
 20
0.468960
  0
VERTEX
  8
gbo
 10
2.726910
 20
0.467050
  0
VERTEX
  8
gbo
 10
2.725010
 20
0.463250
  0
VERTEX
  8
gbo
 10
2.725010
 20
0.455630
  0
VERTEX
  8
gbo
 10
2.726910
 20
0.451820
  0
VERTEX
  8
gbo
 10
2.728820
 20
0.449920
  0
VERTEX
  8
gbo
 10
2.732630
 20
0.448010
  0
VERTEX
  8
gbo
 10
2.736430
 20
0.448010
  0
VERTEX
  8
gbo
 10
2.740240
 20
0.449920
  0
VERTEX
  8
gbo
 10
2.745960
 20
0.453720
  0
VERTEX
  8
gbo
 10
2.765000
 20
0.472770
  0
VERTEX
  8
gbo
 10
2.765000
 20
0.446110
  0
SEQEND
  8
gbo
  0
POLYLINE
  8
gbo
 62
1
 40
0.000000
 41
0.000000
 66
  1
  0
VERTEX
  8
gbo
 10
1.509530
 20
1.121720
  0
VERTEX
  8
gbo
 10
1.505720
 20
1.123620
  0
VERTEX
  8
gbo
 10
1.501910
 20
1.127430
  0
VERTEX
  8
gbo
 10
1.500010
 20
1.131240
  0
VERTEX
  8
gbo
 10
1.500010
 20
1.138860
  0
VERTEX
  8
gbo
 10
1.501910
 20
1.142670
  0
VERTEX
  8
gbo
 10
1.505720
 20
1.146470
  0
VERTEX
  8
gbo
 10
1.509530
 20
1.148380
  0
VERTEX
  8
gbo
 10
1.515240
 20
1.150280
  0
VERTEX
  8
gbo
 10
1.524770
 20
1.150280
  0
VERTEX
  8
gbo
 10
1.530480
 20
1.148380
  0
VERTEX
  8
gbo
 10
1.534290
 20
1.146470
  0
VERTEX
  8
gbo
 10
1.538100
 20
1.142670
  0
VERTEX
  8
gbo
 10
1.540000
 20
1.138860
  0
VERTEX
  8
gbo
 10
1.540000
 20
1.131240
  0
VERTEX
  8
gbo
 10
1.538100
 20
1.127430
  0
VERTEX
  8
gbo
 10
1.534290
 20
1.123620
  0
VERTEX
  8
gbo
 10
1.530480
 20
1.121720
  0
SEQEND
  8
gbo
  0
POLYLINE
  8
gbo
 62
1
 40
0.000000
 41
0.000000
 66
  1
  0
VERTEX
  8
gbo
 10
1.505720
 20
1.087630
  0
VERTEX
  8
gbo
 10
1.501910
 20
1.089530
  0
VERTEX
  8
gbo
 10
1.500010
 20
1.095250
  0
VERTEX
  8
gbo
 10
1.500010
 20
1.099060
  0
VERTEX
  8
gbo
 10
1.501910
 20
1.104770
  0
VERTEX
  8
gbo
 10
1.507630
 20
1.108580
  0
VERTEX
  8
gbo
 10
1.517150
 20
1.110480
  0
VERTEX
  8
gbo
 10
1.526670
 20
1.110480
  0
VERTEX
  8
gbo
 10
1.534290
 20
1.108580
  0
VERTEX
  8
gbo
 10
1.538100
 20
1.104770
  0
VERTEX
  8
gbo
 10
1.540000
 20
1.099060
  0
VERTEX
  8
gbo
 10
1.540000
 20
1.097150
  0
VERTEX
  8
gbo
 10
1.538100
 20
1.091440
  0
VERTEX
  8
gbo
 10
1.534290
 20
1.087630
  0
VERTEX
  8
gbo
 10
1.528570
 20
1.085730
  0
VERTEX
  8
gbo
 10
1.526670
 20
1.085730
  0
VERTEX
  8
gbo
 10
1.520960
 20
1.087630
  0
VERTEX
  8
gbo
 10
1.517150
 20
1.091440
  0
VERTEX
  8
gbo
 10
1.515240
 20
1.097150
  0
VERTEX
  8
gbo
 10
1.515240
 20
1.099060
  0
VERTEX
  8
gbo
 10
1.517150
 20
1.104770
  0
VERTEX
  8
gbo
 10
1.520960
 20
1.108580
  0
VERTEX
  8
gbo
 10
1.526670
 20
1.110480
  0
SEQEND
  8
gbo
  0
POLYLINE
  8
gbo
 62
1
 40
0.000000
 41
0.000000
 66
  1
  0
VERTEX
  8
gbo
 10
2.514530
 20
0.376720
  0
VERTEX
  8
gbo
 10
2.510720
 20
0.378620
  0
VERTEX
  8
gbo
 10
2.506910
 20
0.382430
  0
VERTEX
  8
gbo
 10
2.505010
 20
0.386240
  0
VERTEX
  8
gbo
 10
2.505010
 20
0.393860
  0
VERTEX
  8
gbo
 10
2.506910
 20
0.397670
  0
VERTEX
  8
gbo
 10
2.510720
 20
0.401480
  0
VERTEX
  8
gbo
 10
2.514530
 20
0.403380
  0
VERTEX
  8
gbo
 10
2.520240
 20
0.405280
  0
VERTEX
  8
gbo
 10
2.529760
 20
0.405280
  0
VERTEX
  8
gbo
 10
2.535480
 20
0.403380
  0
VERTEX
  8
gbo
 10
2.539290
 20
0.401480
  0
VERTEX
  8
gbo
 10
2.543100
 20
0.397670
  0
VERTEX
  8
gbo
 10
2.545000
 20
0.393860
  0
VERTEX
  8
gbo
 10
2.545000
 20
0.386240
  0
VERTEX
  8
gbo
 10
2.543100
 20
0.382430
  0
VERTEX
  8
gbo
 10
2.539290
 20
0.378620
  0
VERTEX
  8
gbo
 10
2.535480
 20
0.376720
  0
SEQEND
  8
gbo
  0
POLYLINE
  8
gbo
 62
1
 40
0.000000
 41
0.000000
 66
  1
  0
VERTEX
  8
gbo
 10
2.505010
 20
0.342630
  0
VERTEX
  8
gbo
 10
2.505010
 20
0.361670
  0
VERTEX
  8
gbo
 10
2.522150
 20
0.363580
  0
VERTEX
  8
gbo
 10
2.520240
 20
0.361670
  0
VERTEX
  8
gbo
 10
2.518340
 20
0.355960
  0
VERTEX
  8
gbo
 10
2.518340
 20
0.350250
  0
VERTEX
  8
gbo
 10
2.520240
 20
0.344530
  0
VERTEX
  8
gbo
 10
2.524050
 20
0.340730
  0
VERTEX
  8
gbo
 10
2.529760
 20
0.338820
  0
VERTEX
  8
gbo
 10
2.533570
 20
0.338820
  0
VERTEX
  8
gbo
 10
2.539290
 20
0.340730
  0
VERTEX
  8
gbo
 10
2.543100
 20
0.344530
  0
VERTEX
  8
gbo
 10
2.545000
 20
0.350250
  0
VERTEX
  8
gbo
 10
2.545000
 20
0.355960
  0
VERTEX
  8
gbo
 10
2.543100
 20
0.361670
  0
VERTEX
  8
gbo
 10
2.541190
 20
0.363580
  0
VERTEX
  8
gbo
 10
2.537380
 20
0.365480
  0
SEQEND
  8
gbo
  0
POLYLINE
  8
gbo
 62
1
 40
0.000000
 41
0.000000
 66
  1
  0
VERTEX
  8
gbo
 10
2.679530
 20
0.376720
  0
VERTEX
  8
gbo
 10
2.675720
 20
0.378620
  0
VERTEX
  8
gbo
 10
2.671910
 20
0.382430
  0
VERTEX
  8
gbo
 10
2.670010
 20
0.386240
  0
VERTEX
  8
gbo
 10
2.670010
 20
0.393860
  0
VERTEX
  8
gbo
 10
2.671910
 20
0.397670
  0
VERTEX
  8
gbo
 10
2.675720
 20
0.401480
  0
VERTEX
  8
gbo
 10
2.679530
 20
0.403380
  0
VERTEX
  8
gbo
 10
2.685240
 20
0.405280
  0
VERTEX
  8
gbo
 10
2.694770
 20
0.405280
  0
VERTEX
  8
gbo
 10
2.700480
 20
0.403380
  0
VERTEX
  8
gbo
 10
2.704290
 20
0.401480
  0
VERTEX
  8
gbo
 10
2.708100
 20
0.397670
  0
VERTEX
  8
gbo
 10
2.710000
 20
0.393860
  0
VERTEX
  8
gbo
 10
2.710000
 20
0.386240
  0
VERTEX
  8
gbo
 10
2.708100
 20
0.382430
  0
VERTEX
  8
gbo
 10
2.704290
 20
0.378620
  0
VERTEX
  8
gbo
 10
2.700480
 20
0.376720
  0
SEQEND
  8
gbo
  0
POLYLINE
  8
gbo
 62
1
 40
0.000000
 41
0.000000
 66
  1
  0
VERTEX
  8
gbo
 10
2.670010
 20
0.346440
  0
VERTEX
  8
gbo
 10
2.696670
 20
0.365480
  0
VERTEX
  8
gbo
 10
2.696670
 20
0.336920
  0
SEQEND
  8
gbo
  0
POLYLINE
  8
gbo
 62
1
 40
0.000000
 41
0.000000
 66
  1
  0
VERTEX
  8
gbo
 10
2.670010
 20
0.346440
  0
VERTEX
  8
gbo
 10
2.710000
 20
0.346440
  0
SEQEND
  8
gbo
  0
POLYLINE
  8
gbo
 62
1
 40
0.000000
 41
0.000000
 66
  1
  0
VERTEX
  8
gbo
 10
1.366720
 20
0.652000
  0
VERTEX
  8
gbo
 10
1.406720
 20
0.652000
  0
SEQEND
  8
gbo
  0
POLYLINE
  8
gbo
 62
1
 40
0.000000
 41
0.000000
 66
  1
  0
VERTEX
  8
gbo
 10
1.366720
 20
0.652000
  0
VERTEX
  8
gbo
 10
1.366720
 20
0.634860
  0
VERTEX
  8
gbo
 10
1.368630
 20
0.629150
  0
VERTEX
  8
gbo
 10
1.370530
 20
0.627240
  0
VERTEX
  8
gbo
 10
1.374340
 20
0.625340
  0
VERTEX
  8
gbo
 10
1.378150
 20
0.625340
  0
VERTEX
  8
gbo
 10
1.381960
 20
0.627240
  0
VERTEX
  8
gbo
 10
1.383860
 20
0.629150
  0
VERTEX
  8
gbo
 10
1.385770
 20
0.634860
  0
VERTEX
  8
gbo
 10
1.385770
 20
0.652000
  0
SEQEND
  8
gbo
  0
POLYLINE
  8
gbo
 62
1
 40
0.000000
 41
0.000000
 66
  1
  0
VERTEX
  8
gbo
 10
1.385770
 20
0.638670
  0
VERTEX
  8
gbo
 10
1.406720
 20
0.625340
  0
SEQEND
  8
gbo
  0
POLYLINE
  8
gbo
 62
1
 40
0.000000
 41
0.000000
 66
  1
  0
VERTEX
  8
gbo
 10
1.387670
 20
0.616390
  0
VERTEX
  8
gbo
 10
1.387670
 20
0.599250
  0
VERTEX
  8
gbo
 10
1.385770
 20
0.593540
  0
VERTEX
  8
gbo
 10
1.383860
 20
0.591630
  0
VERTEX
  8
gbo
 10
1.380050
 20
0.589730
  0
VERTEX
  8
gbo
 10
1.374340
 20
0.589730
  0
VERTEX
  8
gbo
 10
1.370530
 20
0.591630
  0
VERTEX
  8
gbo
 10
1.368630
 20
0.593540
  0
VERTEX
  8
gbo
 10
1.366720
 20
0.599250
  0
VERTEX
  8
gbo
 10
1.366720
 20
0.616390
  0
VERTEX
  8
gbo
 10
1.406720
 20
0.616390
  0
SEQEND
  8
gbo
  0
POLYLINE
  8
gbo
 62
1
 40
0.000000
 41
0.000000
 66
  1
  0
VERTEX
  8
gbo
 10
1.366720
 20
0.557920
  0
VERTEX
  8
gbo
 10
1.366720
 20
0.576970
  0
VERTEX
  8
gbo
 10
1.383860
 20
0.578870
  0
VERTEX
  8
gbo
 10
1.381960
 20
0.576970
  0
VERTEX
  8
gbo
 10
1.380050
 20
0.571260
  0
VERTEX
  8
gbo
 10
1.380050
 20
0.565540
  0
VERTEX
  8
gbo
 10
1.381960
 20
0.559830
  0
VERTEX
  8
gbo
 10
1.385770
 20
0.556020
  0
VERTEX
  8
gbo
 10
1.391480
 20
0.554120
  0
VERTEX
  8
gbo
 10
1.395290
 20
0.554120
  0
VERTEX
  8
gbo
 10
1.401000
 20
0.556020
  0
VERTEX
  8
gbo
 10
1.404810
 20
0.559830
  0
VERTEX
  8
gbo
 10
1.406720
 20
0.565540
  0
VERTEX
  8
gbo
 10
1.406720
 20
0.571260
  0
VERTEX
  8
gbo
 10
1.404810
 20
0.576970
  0
VERTEX
  8
gbo
 10
1.402910
 20
0.578870
  0
VERTEX
  8
gbo
 10
1.399100
 20
0.580780
  0
SEQEND
  8
gbo
  0
POLYLINE
  8
gbo
 62
1
 40
0.000000
 41
0.000000
 66
  1
  0
VERTEX
  8
gbo
 10
1.363950
 20
0.871280
  0
VERTEX
  8
gbo
 10
1.403940
 20
0.871280
  0
SEQEND
  8
gbo
  0
POLYLINE
  8
gbo
 62
1
 40
0.000000
 41
0.000000
 66
  1
  0
VERTEX
  8
gbo
 10
1.363950
 20
0.871280
  0
VERTEX
  8
gbo
 10
1.363950
 20
0.854140
  0
VERTEX
  8
gbo
 10
1.365850
 20
0.848430
  0
VERTEX
  8
gbo
 10
1.367750
 20
0.846530
  0
VERTEX
  8
gbo
 10
1.371560
 20
0.844620
  0
VERTEX
  8
gbo
 10
1.375370
 20
0.844620
  0
VERTEX
  8
gbo
 10
1.379180
 20
0.846530
  0
VERTEX
  8
gbo
 10
1.381090
 20
0.848430
  0
VERTEX
  8
gbo
 10
1.382990
 20
0.854140
  0
VERTEX
  8
gbo
 10
1.382990
 20
0.871280
  0
SEQEND
  8
gbo
  0
POLYLINE
  8
gbo
 62
1
 40
0.000000
 41
0.000000
 66
  1
  0
VERTEX
  8
gbo
 10
1.382990
 20
0.857950
  0
VERTEX
  8
gbo
 10
1.403940
 20
0.844620
  0
SEQEND
  8
gbo
  0
POLYLINE
  8
gbo
 62
1
 40
0.000000
 41
0.000000
 66
  1
  0
VERTEX
  8
gbo
 10
1.384890
 20
0.835670
  0
VERTEX
  8
gbo
 10
1.384890
 20
0.818530
  0
VERTEX
  8
gbo
 10
1.382990
 20
0.812820
  0
VERTEX
  8
gbo
 10
1.381090
 20
0.810920
  0
VERTEX
  8
gbo
 10
1.377280
 20
0.809010
  0
VERTEX
  8
gbo
 10
1.371560
 20
0.809010
  0
VERTEX
  8
gbo
 10
1.367750
 20
0.810920
  0
VERTEX
  8
gbo
 10
1.365850
 20
0.812820
  0
VERTEX
  8
gbo
 10
1.363950
 20
0.818530
  0
VERTEX
  8
gbo
 10
1.363950
 20
0.835670
  0
VERTEX
  8
gbo
 10
1.403940
 20
0.835670
  0
SEQEND
  8
gbo
  0
POLYLINE
  8
gbo
 62
1
 40
0.000000
 41
0.000000
 66
  1
  0
VERTEX
  8
gbo
 10
1.363950
 20
0.781020
  0
VERTEX
  8
gbo
 10
1.390610
 20
0.800060
  0
VERTEX
  8
gbo
 10
1.390610
 20
0.771500
  0
SEQEND
  8
gbo
  0
POLYLINE
  8
gbo
 62
1
 40
0.000000
 41
0.000000
 66
  1
  0
VERTEX
  8
gbo
 10
1.363950
 20
0.781020
  0
VERTEX
  8
gbo
 10
1.403940
 20
0.781020
  0
SEQEND
  8
gbo
  0
POLYLINE
  8
gbo
 62
1
 40
0.000000
 41
0.000000
 66
  1
  0
VERTEX
  8
gbo
 10
2.367240
 20
1.651280
  0
VERTEX
  8
gbo
 10
2.367240
 20
1.611280
  0
SEQEND
  8
gbo
  0
POLYLINE
  8
gbo
 62
1
 40
0.000000
 41
0.000000
 66
  1
  0
VERTEX
  8
gbo
 10
2.367240
 20
1.651280
  0
VERTEX
  8
gbo
 10
2.350110
 20
1.651280
  0
VERTEX
  8
gbo
 10
2.344390
 20
1.649370
  0
VERTEX
  8
gbo
 10
2.342490
 20
1.647470
  0
VERTEX
  8
gbo
 10
2.340580
 20
1.643660
  0
VERTEX
  8
gbo
 10
2.340580
 20
1.639850
  0
VERTEX
  8
gbo
 10
2.342490
 20
1.636040
  0
VERTEX
  8
gbo
 10
2.344390
 20
1.634140
  0
VERTEX
  8
gbo
 10
2.350110
 20
1.632230
  0
VERTEX
  8
gbo
 10
2.367240
 20
1.632230
  0
SEQEND
  8
gbo
  0
POLYLINE
  8
gbo
 62
1
 40
0.000000
 41
0.000000
 66
  1
  0
VERTEX
  8
gbo
 10
2.353910
 20
1.632230
  0
VERTEX
  8
gbo
 10
2.340580
 20
1.611280
  0
SEQEND
  8
gbo
  0
POLYLINE
  8
gbo
 62
1
 40
0.000000
 41
0.000000
 66
  1
  0
VERTEX
  8
gbo
 10
2.331630
 20
1.630330
  0
VERTEX
  8
gbo
 10
2.314490
 20
1.630330
  0
VERTEX
  8
gbo
 10
2.308780
 20
1.632230
  0
VERTEX
  8
gbo
 10
2.306880
 20
1.634140
  0
VERTEX
  8
gbo
 10
2.304970
 20
1.637950
  0
VERTEX
  8
gbo
 10
2.304970
 20
1.643660
  0
VERTEX
  8
gbo
 10
2.306880
 20
1.647470
  0
VERTEX
  8
gbo
 10
2.308780
 20
1.649370
  0
VERTEX
  8
gbo
 10
2.314490
 20
1.651280
  0
VERTEX
  8
gbo
 10
2.331630
 20
1.651280
  0
VERTEX
  8
gbo
 10
2.331630
 20
1.611280
  0
SEQEND
  8
gbo
  0
POLYLINE
  8
gbo
 62
1
 40
0.000000
 41
0.000000
 66
  1
  0
VERTEX
  8
gbo
 10
2.294120
 20
1.641750
  0
VERTEX
  8
gbo
 10
2.294120
 20
1.643660
  0
VERTEX
  8
gbo
 10
2.292210
 20
1.647470
  0
VERTEX
  8
gbo
 10
2.290310
 20
1.649370
  0
VERTEX
  8
gbo
 10
2.286500
 20
1.651280
  0
VERTEX
  8
gbo
 10
2.278880
 20
1.651280
  0
VERTEX
  8
gbo
 10
2.275070
 20
1.649370
  0
VERTEX
  8
gbo
 10
2.273170
 20
1.647470
  0
VERTEX
  8
gbo
 10
2.271270
 20
1.643660
  0
VERTEX
  8
gbo
 10
2.271270
 20
1.639850
  0
VERTEX
  8
gbo
 10
2.273170
 20
1.636040
  0
VERTEX
  8
gbo
 10
2.276980
 20
1.630330
  0
VERTEX
  8
gbo
 10
2.296020
 20
1.611280
  0
VERTEX
  8
gbo
 10
2.269360
 20
1.611280
  0
SEQEND
  8
gbo
  0
POLYLINE
  8
gbo
 62
1
 40
0.000000
 41
0.000000
 66
  1
  0
VERTEX
  8
gbo
 10
2.118340
 20
0.660270
  0
VERTEX
  8
gbo
 10
2.145000
 20
0.620280
  0
SEQEND
  8
gbo
  0
POLYLINE
  8
gbo
 62
1
 40
0.000000
 41
0.000000
 66
  1
  0
VERTEX
  8
gbo
 10
2.145000
 20
0.660270
  0
VERTEX
  8
gbo
 10
2.118340
 20
0.660270
  0
SEQEND
  8
gbo
  0
POLYLINE
  8
gbo
 62
1
 40
0.000000
 41
0.000000
 66
  1
  0
VERTEX
  8
gbo
 10
2.145000
 20
0.620280
  0
VERTEX
  8
gbo
 10
2.118340
 20
0.620280
  0
SEQEND
  8
gbo
  0
POLYLINE
  8
gbo
 62
1
 40
0.000000
 41
0.000000
 66
  1
  0
VERTEX
  8
gbo
 10
2.109390
 20
0.652660
  0
VERTEX
  8
gbo
 10
2.105580
 20
0.654560
  0
VERTEX
  8
gbo
 10
2.099870
 20
0.660270
  0
VERTEX
  8
gbo
 10
2.099870
 20
0.620280
  0
SEQEND
  8
gbo
  0
POLYLINE
  8
gbo
 62
1
 40
0.000000
 41
0.000000
 66
  1
  0
VERTEX
  8
gbo
 10
1.715010
 20
1.680280
  0
VERTEX
  8
gbo
 10
1.755000
 20
1.680280
  0
SEQEND
  8
gbo
  0
POLYLINE
  8
gbo
 62
1
 40
0.000000
 41
0.000000
 66
  1
  0
VERTEX
  8
gbo
 10
1.715010
 20
1.680280
  0
VERTEX
  8
gbo
 10
1.715010
 20
1.663140
  0
VERTEX
  8
gbo
 10
1.716910
 20
1.657430
  0
VERTEX
  8
gbo
 10
1.718820
 20
1.655530
  0
VERTEX
  8
gbo
 10
1.722630
 20
1.653620
  0
VERTEX
  8
gbo
 10
1.726430
 20
1.653620
  0
VERTEX
  8
gbo
 10
1.730240
 20
1.655530
  0
VERTEX
  8
gbo
 10
1.732150
 20
1.657430
  0
VERTEX
  8
gbo
 10
1.734050
 20
1.663140
  0
VERTEX
  8
gbo
 10
1.734050
 20
1.680280
  0
SEQEND
  8
gbo
  0
POLYLINE
  8
gbo
 62
1
 40
0.000000
 41
0.000000
 66
  1
  0
VERTEX
  8
gbo
 10
1.734050
 20
1.666950
  0
VERTEX
  8
gbo
 10
1.755000
 20
1.653620
  0
SEQEND
  8
gbo
  0
POLYLINE
  8
gbo
 62
1
 40
0.000000
 41
0.000000
 66
  1
  0
VERTEX
  8
gbo
 10
1.715010
 20
1.635150
  0
VERTEX
  8
gbo
 10
1.716910
 20
1.640860
  0
VERTEX
  8
gbo
 10
1.720720
 20
1.642770
  0
VERTEX
  8
gbo
 10
1.724530
 20
1.642770
  0
VERTEX
  8
gbo
 10
1.728340
 20
1.640860
  0
VERTEX
  8
gbo
 10
1.730240
 20
1.637060
  0
VERTEX
  8
gbo
 10
1.732150
 20
1.629440
  0
VERTEX
  8
gbo
 10
1.734050
 20
1.623730
  0
VERTEX
  8
gbo
 10
1.737860
 20
1.619920
  0
VERTEX
  8
gbo
 10
1.741670
 20
1.618010
  0
VERTEX
  8
gbo
 10
1.747380
 20
1.618010
  0
VERTEX
  8
gbo
 10
1.751190
 20
1.619920
  0
VERTEX
  8
gbo
 10
1.753100
 20
1.621820
  0
VERTEX
  8
gbo
 10
1.755000
 20
1.627530
  0
VERTEX
  8
gbo
 10
1.755000
 20
1.635150
  0
VERTEX
  8
gbo
 10
1.753100
 20
1.640860
  0
VERTEX
  8
gbo
 10
1.751190
 20
1.642770
  0
VERTEX
  8
gbo
 10
1.747380
 20
1.644670
  0
VERTEX
  8
gbo
 10
1.741670
 20
1.644670
  0
VERTEX
  8
gbo
 10
1.737860
 20
1.642770
  0
VERTEX
  8
gbo
 10
1.734050
 20
1.638960
  0
VERTEX
  8
gbo
 10
1.732150
 20
1.633250
  0
VERTEX
  8
gbo
 10
1.730240
 20
1.625630
  0
VERTEX
  8
gbo
 10
1.728340
 20
1.621820
  0
VERTEX
  8
gbo
 10
1.724530
 20
1.619920
  0
VERTEX
  8
gbo
 10
1.720720
 20
1.619920
  0
VERTEX
  8
gbo
 10
1.716910
 20
1.621820
  0
VERTEX
  8
gbo
 10
1.715010
 20
1.627530
  0
VERTEX
  8
gbo
 10
1.715010
 20
1.635150
  0
SEQEND
  8
gbo
  0
POLYLINE
  8
gbo
 62
1
 40
0.000000
 41
0.000000
 66
  1
  0
VERTEX
  8
gbo
 10
1.499950
 20
1.000280
  0
VERTEX
  8
gbo
 10
1.539940
 20
1.000280
  0
SEQEND
  8
gbo
  0
POLYLINE
  8
gbo
 62
1
 40
0.000000
 41
0.000000
 66
  1
  0
VERTEX
  8
gbo
 10
1.499950
 20
1.000280
  0
VERTEX
  8
gbo
 10
1.499950
 20
0.983140
  0
VERTEX
  8
gbo
 10
1.501850
 20
0.977430
  0
VERTEX
  8
gbo
 10
1.503750
 20
0.975530
  0
VERTEX
  8
gbo
 10
1.507560
 20
0.973620
  0
VERTEX
  8
gbo
 10
1.511370
 20
0.973620
  0
VERTEX
  8
gbo
 10
1.515180
 20
0.975530
  0
VERTEX
  8
gbo
 10
1.517080
 20
0.977430
  0
VERTEX
  8
gbo
 10
1.518990
 20
0.983140
  0
VERTEX
  8
gbo
 10
1.518990
 20
1.000280
  0
SEQEND
  8
gbo
  0
POLYLINE
  8
gbo
 62
1
 40
0.000000
 41
0.000000
 66
  1
  0
VERTEX
  8
gbo
 10
1.518990
 20
0.986950
  0
VERTEX
  8
gbo
 10
1.539940
 20
0.973620
  0
SEQEND
  8
gbo
  0
POLYLINE
  8
gbo
 62
1
 40
0.000000
 41
0.000000
 66
  1
  0
VERTEX
  8
gbo
 10
1.499950
 20
0.938010
  0
VERTEX
  8
gbo
 10
1.539940
 20
0.957050
  0
SEQEND
  8
gbo
  0
POLYLINE
  8
gbo
 62
1
 40
0.000000
 41
0.000000
 66
  1
  0
VERTEX
  8
gbo
 10
1.499950
 20
0.964670
  0
VERTEX
  8
gbo
 10
1.499950
 20
0.938010
  0
SEQEND
  8
gbo
  0
POLYLINE
  8
gbo
 62
1
 40
0.000000
 41
0.000000
 66
  1
  0
VERTEX
  8
gbo
 10
1.950010
 20
1.685280
  0
VERTEX
  8
gbo
 10
1.990000
 20
1.685280
  0
SEQEND
  8
gbo
  0
POLYLINE
  8
gbo
 62
1
 40
0.000000
 41
0.000000
 66
  1
  0
VERTEX
  8
gbo
 10
1.950010
 20
1.685280
  0
VERTEX
  8
gbo
 10
1.950010
 20
1.668140
  0
VERTEX
  8
gbo
 10
1.951910
 20
1.662430
  0
VERTEX
  8
gbo
 10
1.953820
 20
1.660530
  0
VERTEX
  8
gbo
 10
1.957630
 20
1.658620
  0
VERTEX
  8
gbo
 10
1.961430
 20
1.658620
  0
VERTEX
  8
gbo
 10
1.965240
 20
1.660530
  0
VERTEX
  8
gbo
 10
1.967150
 20
1.662430
  0
VERTEX
  8
gbo
 10
1.969050
 20
1.668140
  0
VERTEX
  8
gbo
 10
1.969050
 20
1.685280
  0
SEQEND
  8
gbo
  0
POLYLINE
  8
gbo
 62
1
 40
0.000000
 41
0.000000
 66
  1
  0
VERTEX
  8
gbo
 10
1.969050
 20
1.671950
  0
VERTEX
  8
gbo
 10
1.990000
 20
1.658620
  0
SEQEND
  8
gbo
  0
POLYLINE
  8
gbo
 62
1
 40
0.000000
 41
0.000000
 66
  1
  0
VERTEX
  8
gbo
 10
1.955720
 20
1.626820
  0
VERTEX
  8
gbo
 10
1.951910
 20
1.628730
  0
VERTEX
  8
gbo
 10
1.950010
 20
1.634440
  0
VERTEX
  8
gbo
 10
1.950010
 20
1.638250
  0
VERTEX
  8
gbo
 10
1.951910
 20
1.643960
  0
VERTEX
  8
gbo
 10
1.957630
 20
1.647770
  0
VERTEX
  8
gbo
 10
1.967150
 20
1.649670
  0
VERTEX
  8
gbo
 10
1.976670
 20
1.649670
  0
VERTEX
  8
gbo
 10
1.984290
 20
1.647770
  0
VERTEX
  8
gbo
 10
1.988100
 20
1.643960
  0
VERTEX
  8
gbo
 10
1.990000
 20
1.638250
  0
VERTEX
  8
gbo
 10
1.990000
 20
1.636340
  0
VERTEX
  8
gbo
 10
1.988100
 20
1.630630
  0
VERTEX
  8
gbo
 10
1.984290
 20
1.626820
  0
VERTEX
  8
gbo
 10
1.978570
 20
1.624920
  0
VERTEX
  8
gbo
 10
1.976670
 20
1.624920
  0
VERTEX
  8
gbo
 10
1.970960
 20
1.626820
  0
VERTEX
  8
gbo
 10
1.967150
 20
1.630630
  0
VERTEX
  8
gbo
 10
1.965240
 20
1.636340
  0
VERTEX
  8
gbo
 10
1.965240
 20
1.638250
  0
VERTEX
  8
gbo
 10
1.967150
 20
1.643960
  0
VERTEX
  8
gbo
 10
1.970960
 20
1.647770
  0
VERTEX
  8
gbo
 10
1.976670
 20
1.649670
  0
SEQEND
  8
gbo
  0
POLYLINE
  8
gbo
 62
1
 40
0.000000
 41
0.000000
 66
  1
  0
VERTEX
  8
gbo
 10
1.415000
 20
0.720270
  0
VERTEX
  8
gbo
 10
1.415000
 20
0.680280
  0
SEQEND
  8
gbo
  0
POLYLINE
  8
gbo
 62
1
 40
0.000000
 41
0.000000
 66
  1
  0
VERTEX
  8
gbo
 10
1.415000
 20
0.720270
  0
VERTEX
  8
gbo
 10
1.397860
 20
0.720270
  0
VERTEX
  8
gbo
 10
1.392150
 20
0.718370
  0
VERTEX
  8
gbo
 10
1.390240
 20
0.716470
  0
VERTEX
  8
gbo
 10
1.388340
 20
0.712660
  0
VERTEX
  8
gbo
 10
1.388340
 20
0.708850
  0
VERTEX
  8
gbo
 10
1.390240
 20
0.705040
  0
VERTEX
  8
gbo
 10
1.392150
 20
0.703140
  0
VERTEX
  8
gbo
 10
1.397860
 20
0.701230
  0
VERTEX
  8
gbo
 10
1.415000
 20
0.701230
  0
SEQEND
  8
gbo
  0
POLYLINE
  8
gbo
 62
1
 40
0.000000
 41
0.000000
 66
  1
  0
VERTEX
  8
gbo
 10
1.401670
 20
0.701230
  0
VERTEX
  8
gbo
 10
1.388340
 20
0.680280
  0
SEQEND
  8
gbo
  0
POLYLINE
  8
gbo
 62
1
 40
0.000000
 41
0.000000
 66
  1
  0
VERTEX
  8
gbo
 10
1.356540
 20
0.720270
  0
VERTEX
  8
gbo
 10
1.375580
 20
0.720270
  0
VERTEX
  8
gbo
 10
1.377480
 20
0.703140
  0
VERTEX
  8
gbo
 10
1.375580
 20
0.705040
  0
VERTEX
  8
gbo
 10
1.369870
 20
0.706950
  0
VERTEX
  8
gbo
 10
1.364150
 20
0.706950
  0
VERTEX
  8
gbo
 10
1.358440
 20
0.705040
  0
VERTEX
  8
gbo
 10
1.354630
 20
0.701230
  0
VERTEX
  8
gbo
 10
1.352730
 20
0.695520
  0
VERTEX
  8
gbo
 10
1.352730
 20
0.691710
  0
VERTEX
  8
gbo
 10
1.354630
 20
0.686000
  0
VERTEX
  8
gbo
 10
1.358440
 20
0.682190
  0
VERTEX
  8
gbo
 10
1.364150
 20
0.680280
  0
VERTEX
  8
gbo
 10
1.369870
 20
0.680280
  0
VERTEX
  8
gbo
 10
1.375580
 20
0.682190
  0
VERTEX
  8
gbo
 10
1.377480
 20
0.684090
  0
VERTEX
  8
gbo
 10
1.379390
 20
0.687900
  0
SEQEND
  8
gbo
  0
POLYLINE
  8
gbo
 62
1
 40
0.000000
 41
0.000000
 66
  1
  0
VERTEX
  8
gbo
 10
2.470010
 20
0.570280
  0
VERTEX
  8
gbo
 10
2.510000
 20
0.570280
  0
SEQEND
  8
gbo
  0
POLYLINE
  8
gbo
 62
1
 40
0.000000
 41
0.000000
 66
  1
  0
VERTEX
  8
gbo
 10
2.470010
 20
0.570280
  0
VERTEX
  8
gbo
 10
2.470010
 20
0.553140
  0
VERTEX
  8
gbo
 10
2.471910
 20
0.547430
  0
VERTEX
  8
gbo
 10
2.473820
 20
0.545530
  0
VERTEX
  8
gbo
 10
2.477630
 20
0.543620
  0
VERTEX
  8
gbo
 10
2.481440
 20
0.543620
  0
VERTEX
  8
gbo
 10
2.485240
 20
0.545530
  0
VERTEX
  8
gbo
 10
2.487150
 20
0.547430
  0
VERTEX
  8
gbo
 10
2.489050
 20
0.553140
  0
VERTEX
  8
gbo
 10
2.489050
 20
0.570280
  0
SEQEND
  8
gbo
  0
POLYLINE
  8
gbo
 62
1
 40
0.000000
 41
0.000000
 66
  1
  0
VERTEX
  8
gbo
 10
2.489050
 20
0.556950
  0
VERTEX
  8
gbo
 10
2.510000
 20
0.543620
  0
SEQEND
  8
gbo
  0
POLYLINE
  8
gbo
 62
1
 40
0.000000
 41
0.000000
 66
  1
  0
VERTEX
  8
gbo
 10
2.470010
 20
0.515630
  0
VERTEX
  8
gbo
 10
2.496670
 20
0.534670
  0
VERTEX
  8
gbo
 10
2.496670
 20
0.506110
  0
SEQEND
  8
gbo
  0
POLYLINE
  8
gbo
 62
1
 40
0.000000
 41
0.000000
 66
  1
  0
VERTEX
  8
gbo
 10
2.470010
 20
0.515630
  0
VERTEX
  8
gbo
 10
2.510000
 20
0.515630
  0
SEQEND
  8
gbo
  0
POLYLINE
  8
gbo
 62
1
 40
0.000000
 41
0.000000
 66
  1
  0
VERTEX
  8
gbo
 10
2.170010
 20
0.295280
  0
VERTEX
  8
gbo
 10
2.210000
 20
0.295280
  0
SEQEND
  8
gbo
  0
POLYLINE
  8
gbo
 62
1
 40
0.000000
 41
0.000000
 66
  1
  0
VERTEX
  8
gbo
 10
2.170010
 20
0.295280
  0
VERTEX
  8
gbo
 10
2.170010
 20
0.278140
  0
VERTEX
  8
gbo
 10
2.171910
 20
0.272430
  0
VERTEX
  8
gbo
 10
2.173820
 20
0.270530
  0
VERTEX
  8
gbo
 10
2.177630
 20
0.268620
  0
VERTEX
  8
gbo
 10
2.181440
 20
0.268620
  0
VERTEX
  8
gbo
 10
2.185240
 20
0.270530
  0
VERTEX
  8
gbo
 10
2.187150
 20
0.272430
  0
VERTEX
  8
gbo
 10
2.189050
 20
0.278140
  0
VERTEX
  8
gbo
 10
2.189050
 20
0.295280
  0
SEQEND
  8
gbo
  0
POLYLINE
  8
gbo
 62
1
 40
0.000000
 41
0.000000
 66
  1
  0
VERTEX
  8
gbo
 10
2.189050
 20
0.281950
  0
VERTEX
  8
gbo
 10
2.210000
 20
0.268620
  0
SEQEND
  8
gbo
  0
POLYLINE
  8
gbo
 62
1
 40
0.000000
 41
0.000000
 66
  1
  0
VERTEX
  8
gbo
 10
2.170010
 20
0.255860
  0
VERTEX
  8
gbo
 10
2.170010
 20
0.234920
  0
VERTEX
  8
gbo
 10
2.185240
 20
0.246340
  0
VERTEX
  8
gbo
 10
2.185240
 20
0.240630
  0
VERTEX
  8
gbo
 10
2.187150
 20
0.236820
  0
VERTEX
  8
gbo
 10
2.189050
 20
0.234920
  0
VERTEX
  8
gbo
 10
2.194770
 20
0.233010
  0
VERTEX
  8
gbo
 10
2.198570
 20
0.233010
  0
VERTEX
  8
gbo
 10
2.204290
 20
0.234920
  0
VERTEX
  8
gbo
 10
2.208100
 20
0.238730
  0
VERTEX
  8
gbo
 10
2.210000
 20
0.244440
  0
VERTEX
  8
gbo
 10
2.210000
 20
0.250150
  0
VERTEX
  8
gbo
 10
2.208100
 20
0.255860
  0
VERTEX
  8
gbo
 10
2.206190
 20
0.257770
  0
VERTEX
  8
gbo
 10
2.202380
 20
0.259670
  0
SEQEND
  8
gbo
  0
POLYLINE
  8
gbo
 62
1
 40
0.000000
 41
0.000000
 66
  1
  0
VERTEX
  8
gbo
 10
2.495010
 20
0.212000
  0
VERTEX
  8
gbo
 10
2.535000
 20
0.212000
  0
SEQEND
  8
gbo
  0
POLYLINE
  8
gbo
 62
1
 40
0.000000
 41
0.000000
 66
  1
  0
VERTEX
  8
gbo
 10
2.495010
 20
0.212000
  0
VERTEX
  8
gbo
 10
2.495010
 20
0.194860
  0
VERTEX
  8
gbo
 10
2.496910
 20
0.189150
  0
VERTEX
  8
gbo
 10
2.498820
 20
0.187240
  0
VERTEX
  8
gbo
 10
2.502630
 20
0.185340
  0
VERTEX
  8
gbo
 10
2.506430
 20
0.185340
  0
VERTEX
  8
gbo
 10
2.510240
 20
0.187240
  0
VERTEX
  8
gbo
 10
2.512150
 20
0.189150
  0
VERTEX
  8
gbo
 10
2.514050
 20
0.194860
  0
VERTEX
  8
gbo
 10
2.514050
 20
0.212000
  0
SEQEND
  8
gbo
  0
POLYLINE
  8
gbo
 62
1
 40
0.000000
 41
0.000000
 66
  1
  0
VERTEX
  8
gbo
 10
2.514050
 20
0.198670
  0
VERTEX
  8
gbo
 10
2.535000
 20
0.185340
  0
SEQEND
  8
gbo
  0
POLYLINE
  8
gbo
 62
1
 40
0.000000
 41
0.000000
 66
  1
  0
VERTEX
  8
gbo
 10
2.504530
 20
0.174480
  0
VERTEX
  8
gbo
 10
2.502630
 20
0.174480
  0
VERTEX
  8
gbo
 10
2.498820
 20
0.172580
  0
VERTEX
  8
gbo
 10
2.496910
 20
0.170670
  0
VERTEX
  8
gbo
 10
2.495010
 20
0.166870
  0
VERTEX
  8
gbo
 10
2.495010
 20
0.159250
  0
VERTEX
  8
gbo
 10
2.496910
 20
0.155440
  0
VERTEX
  8
gbo
 10
2.498820
 20
0.153540
  0
VERTEX
  8
gbo
 10
2.502630
 20
0.151630
  0
VERTEX
  8
gbo
 10
2.506430
 20
0.151630
  0
VERTEX
  8
gbo
 10
2.510240
 20
0.153540
  0
VERTEX
  8
gbo
 10
2.515960
 20
0.157340
  0
VERTEX
  8
gbo
 10
2.535000
 20
0.176390
  0
VERTEX
  8
gbo
 10
2.535000
 20
0.149730
  0
SEQEND
  8
gbo
  0
POLYLINE
  8
gbo
 62
1
 40
0.000000
 41
0.000000
 66
  1
  0
VERTEX
  8
gbo
 10
2.575010
 20
0.570280
  0
VERTEX
  8
gbo
 10
2.615000
 20
0.570280
  0
SEQEND
  8
gbo
  0
POLYLINE
  8
gbo
 62
1
 40
0.000000
 41
0.000000
 66
  1
  0
VERTEX
  8
gbo
 10
2.575010
 20
0.570280
  0
VERTEX
  8
gbo
 10
2.575010
 20
0.553140
  0
VERTEX
  8
gbo
 10
2.576910
 20
0.547430
  0
VERTEX
  8
gbo
 10
2.578820
 20
0.545530
  0
VERTEX
  8
gbo
 10
2.582630
 20
0.543620
  0
VERTEX
  8
gbo
 10
2.586440
 20
0.543620
  0
VERTEX
  8
gbo
 10
2.590240
 20
0.545530
  0
VERTEX
  8
gbo
 10
2.592150
 20
0.547430
  0
VERTEX
  8
gbo
 10
2.594050
 20
0.553140
  0
VERTEX
  8
gbo
 10
2.594050
 20
0.570280
  0
SEQEND
  8
gbo
  0
POLYLINE
  8
gbo
 62
1
 40
0.000000
 41
0.000000
 66
  1
  0
VERTEX
  8
gbo
 10
2.594050
 20
0.556950
  0
VERTEX
  8
gbo
 10
2.615000
 20
0.543620
  0
SEQEND
  8
gbo
  0
POLYLINE
  8
gbo
 62
1
 40
0.000000
 41
0.000000
 66
  1
  0
VERTEX
  8
gbo
 10
2.582630
 20
0.534670
  0
VERTEX
  8
gbo
 10
2.580720
 20
0.530860
  0
VERTEX
  8
gbo
 10
2.575010
 20
0.525150
  0
VERTEX
  8
gbo
 10
2.615000
 20
0.525150
  0
SEQEND
  8
gbo
  0
POLYLINE
  8
gbo
 62
1
 40
0.000000
 41
0.000000
 66
  1
  0
VERTEX
  8
gbo
 10
2.355940
 20
0.655270
  0
VERTEX
  8
gbo
 10
2.355940
 20
0.615280
  0
VERTEX
  8
gbo
 10
2.333090
 20
0.615280
  0
SEQEND
  8
gbo
  0
POLYLINE
  8
gbo
 62
1
 40
0.000000
 41
0.000000
 66
  1
  0
VERTEX
  8
gbo
 10
2.328710
 20
0.647660
  0
VERTEX
  8
gbo
 10
2.324900
 20
0.649560
  0
VERTEX
  8
gbo
 10
2.319180
 20
0.655270
  0
VERTEX
  8
gbo
 10
2.319180
 20
0.615280
  0
SEQEND
  8
gbo
  0
POLYLINE
  8
gbo
 62
1
 40
0.000000
 41
0.000000
 66
  1
  0
VERTEX
  8
gbo
 10
2.712370
 20
0.085750
  0
VERTEX
  8
gbo
 10
2.714280
 20
0.089560
  0
VERTEX
  8
gbo
 10
2.718090
 20
0.093370
  0
VERTEX
  8
gbo
 10
2.721890
 20
0.095270
  0
VERTEX
  8
gbo
 10
2.729510
 20
0.095270
  0
VERTEX
  8
gbo
 10
2.733320
 20
0.093370
  0
VERTEX
  8
gbo
 10
2.737130
 20
0.089560
  0
VERTEX
  8
gbo
 10
2.739030
 20
0.085750
  0
VERTEX
  8
gbo
 10
2.740940
 20
0.080040
  0
VERTEX
  8
gbo
 10
2.740940
 20
0.070520
  0
VERTEX
  8
gbo
 10
2.739030
 20
0.064810
  0
VERTEX
  8
gbo
 10
2.737130
 20
0.061000
  0
VERTEX
  8
gbo
 10
2.733320
 20
0.057190
  0
VERTEX
  8
gbo
 10
2.729510
 20
0.055280
  0
VERTEX
  8
gbo
 10
2.721890
 20
0.055280
  0
VERTEX
  8
gbo
 10
2.718090
 20
0.057190
  0
VERTEX
  8
gbo
 10
2.714280
 20
0.061000
  0
VERTEX
  8
gbo
 10
2.712370
 20
0.064810
  0
SEQEND
  8
gbo
  0
POLYLINE
  8
gbo
 62
1
 40
0.000000
 41
0.000000
 66
  1
  0
VERTEX
  8
gbo
 10
2.699230
 20
0.085750
  0
VERTEX
  8
gbo
 10
2.699230
 20
0.087660
  0
VERTEX
  8
gbo
 10
2.697330
 20
0.091470
  0
VERTEX
  8
gbo
 10
2.695420
 20
0.093370
  0
VERTEX
  8
gbo
 10
2.691610
 20
0.095270
  0
VERTEX
  8
gbo
 10
2.684000
 20
0.095270
  0
VERTEX
  8
gbo
 10
2.680190
 20
0.093370
  0
VERTEX
  8
gbo
 10
2.678280
 20
0.091470
  0
VERTEX
  8
gbo
 10
2.676380
 20
0.087660
  0
VERTEX
  8
gbo
 10
2.676380
 20
0.083850
  0
VERTEX
  8
gbo
 10
2.678280
 20
0.080040
  0
VERTEX
  8
gbo
 10
2.682090
 20
0.074330
  0
VERTEX
  8
gbo
 10
2.701140
 20
0.055280
  0
VERTEX
  8
gbo
 10
2.674470
 20
0.055280
  0
SEQEND
  8
gbo
  0
POLYLINE
  8
gbo
 62
1
 40
0.000000
 41
0.000000
 66
  1
  0
VERTEX
  8
gbo
 10
1.997470
 20
0.386720
  0
VERTEX
  8
gbo
 10
1.993660
 20
0.388620
  0
VERTEX
  8
gbo
 10
1.989850
 20
0.392430
  0
VERTEX
  8
gbo
 10
1.987950
 20
0.396240
  0
VERTEX
  8
gbo
 10
1.987950
 20
0.403860
  0
VERTEX
  8
gbo
 10
1.989850
 20
0.407670
  0
VERTEX
  8
gbo
 10
1.993660
 20
0.411480
  0
VERTEX
  8
gbo
 10
1.997470
 20
0.413380
  0
VERTEX
  8
gbo
 10
2.003180
 20
0.415280
  0
VERTEX
  8
gbo
 10
2.012700
 20
0.415280
  0
VERTEX
  8
gbo
 10
2.018410
 20
0.413380
  0
VERTEX
  8
gbo
 10
2.022220
 20
0.411480
  0
VERTEX
  8
gbo
 10
2.026030
 20
0.407670
  0
VERTEX
  8
gbo
 10
2.027940
 20
0.403860
  0
VERTEX
  8
gbo
 10
2.027940
 20
0.396240
  0
VERTEX
  8
gbo
 10
2.026030
 20
0.392430
  0
VERTEX
  8
gbo
 10
2.022220
 20
0.388620
  0
VERTEX
  8
gbo
 10
2.018410
 20
0.386720
  0
SEQEND
  8
gbo
  0
POLYLINE
  8
gbo
 62
1
 40
0.000000
 41
0.000000
 66
  1
  0
VERTEX
  8
gbo
 10
1.995560
 20
0.375480
  0
VERTEX
  8
gbo
 10
1.993660
 20
0.371670
  0
VERTEX
  8
gbo
 10
1.987950
 20
0.365960
  0
VERTEX
  8
gbo
 10
2.027940
 20
0.365960
  0
SEQEND
  8
gbo
  0
POLYLINE
  8
gbo
 62
1
 40
0.000000
 41
0.000000
 66
  1
  0
VERTEX
  8
gbo
 10
1.665000
 20
1.650270
  0
VERTEX
  8
gbo
 10
1.665000
 20
1.610280
  0
SEQEND
  8
gbo
  0
POLYLINE
  8
gbo
 62
1
 40
0.000000
 41
0.000000
 66
  1
  0
VERTEX
  8
gbo
 10
1.665000
 20
1.650270
  0
VERTEX
  8
gbo
 10
1.647860
 20
1.650270
  0
VERTEX
  8
gbo
 10
1.642150
 20
1.648370
  0
VERTEX
  8
gbo
 10
1.640240
 20
1.646470
  0
VERTEX
  8
gbo
 10
1.638340
 20
1.642660
  0
VERTEX
  8
gbo
 10
1.638340
 20
1.638850
  0
VERTEX
  8
gbo
 10
1.640240
 20
1.635040
  0
VERTEX
  8
gbo
 10
1.642150
 20
1.633140
  0
VERTEX
  8
gbo
 10
1.647860
 20
1.631230
  0
VERTEX
  8
gbo
 10
1.665000
 20
1.631230
  0
SEQEND
  8
gbo
  0
POLYLINE
  8
gbo
 62
1
 40
0.000000
 41
0.000000
 66
  1
  0
VERTEX
  8
gbo
 10
1.651670
 20
1.631230
  0
VERTEX
  8
gbo
 10
1.638340
 20
1.610280
  0
SEQEND
  8
gbo
  0
POLYLINE
  8
gbo
 62
1
 40
0.000000
 41
0.000000
 66
  1
  0
VERTEX
  8
gbo
 10
1.629390
 20
1.629330
  0
VERTEX
  8
gbo
 10
1.612250
 20
1.629330
  0
VERTEX
  8
gbo
 10
1.606540
 20
1.631230
  0
VERTEX
  8
gbo
 10
1.604630
 20
1.633140
  0
VERTEX
  8
gbo
 10
1.602730
 20
1.636950
  0
VERTEX
  8
gbo
 10
1.602730
 20
1.642660
  0
VERTEX
  8
gbo
 10
1.604630
 20
1.646470
  0
VERTEX
  8
gbo
 10
1.606540
 20
1.648370
  0
VERTEX
  8
gbo
 10
1.612250
 20
1.650270
  0
VERTEX
  8
gbo
 10
1.629390
 20
1.650270
  0
VERTEX
  8
gbo
 10
1.629390
 20
1.610280
  0
SEQEND
  8
gbo
  0
POLYLINE
  8
gbo
 62
1
 40
0.000000
 41
0.000000
 66
  1
  0
VERTEX
  8
gbo
 10
1.593780
 20
1.642660
  0
VERTEX
  8
gbo
 10
1.589970
 20
1.644560
  0
VERTEX
  8
gbo
 10
1.584250
 20
1.650270
  0
VERTEX
  8
gbo
 10
1.584250
 20
1.610280
  0
SEQEND
  8
gbo
  0
POLYLINE
  8
gbo
 62
1
 40
0.000000
 41
0.000000
 66
  1
  0
VERTEX
  8
gbo
 10
1.870010
 20
1.680280
  0
VERTEX
  8
gbo
 10
1.910000
 20
1.680280
  0
SEQEND
  8
gbo
  0
POLYLINE
  8
gbo
 62
1
 40
0.000000
 41
0.000000
 66
  1
  0
VERTEX
  8
gbo
 10
1.870010
 20
1.680280
  0
VERTEX
  8
gbo
 10
1.870010
 20
1.663140
  0
VERTEX
  8
gbo
 10
1.871910
 20
1.657430
  0
VERTEX
  8
gbo
 10
1.873820
 20
1.655530
  0
VERTEX
  8
gbo
 10
1.877630
 20
1.653620
  0
VERTEX
  8
gbo
 10
1.881440
 20
1.653620
  0
VERTEX
  8
gbo
 10
1.885240
 20
1.655530
  0
VERTEX
  8
gbo
 10
1.887150
 20
1.657430
  0
VERTEX
  8
gbo
 10
1.889050
 20
1.663140
  0
VERTEX
  8
gbo
 10
1.889050
 20
1.680280
  0
SEQEND
  8
gbo
  0
POLYLINE
  8
gbo
 62
1
 40
0.000000
 41
0.000000
 66
  1
  0
VERTEX
  8
gbo
 10
1.889050
 20
1.666950
  0
VERTEX
  8
gbo
 10
1.910000
 20
1.653620
  0
SEQEND
  8
gbo
  0
POLYLINE
  8
gbo
 62
1
 40
0.000000
 41
0.000000
 66
  1
  0
VERTEX
  8
gbo
 10
1.877630
 20
1.644670
  0
VERTEX
  8
gbo
 10
1.875720
 20
1.640860
  0
VERTEX
  8
gbo
 10
1.870010
 20
1.635150
  0
VERTEX
  8
gbo
 10
1.910000
 20
1.635150
  0
SEQEND
  8
gbo
  0
POLYLINE
  8
gbo
 62
1
 40
0.000000
 41
0.000000
 66
  1
  0
VERTEX
  8
gbo
 10
1.870010
 20
1.603920
  0
VERTEX
  8
gbo
 10
1.871910
 20
1.609630
  0
VERTEX
  8
gbo
 10
1.877630
 20
1.613440
  0
VERTEX
  8
gbo
 10
1.887150
 20
1.615350
  0
VERTEX
  8
gbo
 10
1.892860
 20
1.615350
  0
VERTEX
  8
gbo
 10
1.902380
 20
1.613440
  0
VERTEX
  8
gbo
 10
1.908100
 20
1.609630
  0
VERTEX
  8
gbo
 10
1.910000
 20
1.603920
  0
VERTEX
  8
gbo
 10
1.910000
 20
1.600110
  0
VERTEX
  8
gbo
 10
1.908100
 20
1.594400
  0
VERTEX
  8
gbo
 10
1.902380
 20
1.590590
  0
VERTEX
  8
gbo
 10
1.892860
 20
1.588690
  0
VERTEX
  8
gbo
 10
1.887150
 20
1.588690
  0
VERTEX
  8
gbo
 10
1.877630
 20
1.590590
  0
VERTEX
  8
gbo
 10
1.871910
 20
1.594400
  0
VERTEX
  8
gbo
 10
1.870010
 20
1.600110
  0
VERTEX
  8
gbo
 10
1.870010
 20
1.603920
  0
SEQEND
  8
gbo
  0
POLYLINE
  8
gbo
 62
1
 40
0.000000
 41
0.000000
 66
  1
  0
VERTEX
  8
gbo
 10
1.785010
 20
1.680280
  0
VERTEX
  8
gbo
 10
1.825000
 20
1.680280
  0
SEQEND
  8
gbo
  0
POLYLINE
  8
gbo
 62
1
 40
0.000000
 41
0.000000
 66
  1
  0
VERTEX
  8
gbo
 10
1.785010
 20
1.680280
  0
VERTEX
  8
gbo
 10
1.785010
 20
1.663140
  0
VERTEX
  8
gbo
 10
1.786910
 20
1.657430
  0
VERTEX
  8
gbo
 10
1.788820
 20
1.655530
  0
VERTEX
  8
gbo
 10
1.792630
 20
1.653620
  0
VERTEX
  8
gbo
 10
1.796430
 20
1.653620
  0
VERTEX
  8
gbo
 10
1.800240
 20
1.655530
  0
VERTEX
  8
gbo
 10
1.802150
 20
1.657430
  0
VERTEX
  8
gbo
 10
1.804050
 20
1.663140
  0
VERTEX
  8
gbo
 10
1.804050
 20
1.680280
  0
SEQEND
  8
gbo
  0
POLYLINE
  8
gbo
 62
1
 40
0.000000
 41
0.000000
 66
  1
  0
VERTEX
  8
gbo
 10
1.804050
 20
1.666950
  0
VERTEX
  8
gbo
 10
1.825000
 20
1.653620
  0
SEQEND
  8
gbo
  0
POLYLINE
  8
gbo
 62
1
 40
0.000000
 41
0.000000
 66
  1
  0
VERTEX
  8
gbo
 10
1.798340
 20
1.619920
  0
VERTEX
  8
gbo
 10
1.804050
 20
1.621820
  0
VERTEX
  8
gbo
 10
1.807860
 20
1.625630
  0
VERTEX
  8
gbo
 10
1.809760
 20
1.631340
  0
VERTEX
  8
gbo
 10
1.809760
 20
1.633250
  0
VERTEX
  8
gbo
 10
1.807860
 20
1.638960
  0
VERTEX
  8
gbo
 10
1.804050
 20
1.642770
  0
VERTEX
  8
gbo
 10
1.798340
 20
1.644670
  0
VERTEX
  8
gbo
 10
1.796430
 20
1.644670
  0
VERTEX
  8
gbo
 10
1.790720
 20
1.642770
  0
VERTEX
  8
gbo
 10
1.786910
 20
1.638960
  0
VERTEX
  8
gbo
 10
1.785010
 20
1.633250
  0
VERTEX
  8
gbo
 10
1.785010
 20
1.631340
  0
VERTEX
  8
gbo
 10
1.786910
 20
1.625630
  0
VERTEX
  8
gbo
 10
1.790720
 20
1.621820
  0
VERTEX
  8
gbo
 10
1.798340
 20
1.619920
  0
VERTEX
  8
gbo
 10
1.807860
 20
1.619920
  0
VERTEX
  8
gbo
 10
1.817380
 20
1.621820
  0
VERTEX
  8
gbo
 10
1.823100
 20
1.625630
  0
VERTEX
  8
gbo
 10
1.825000
 20
1.631340
  0
VERTEX
  8
gbo
 10
1.825000
 20
1.635150
  0
VERTEX
  8
gbo
 10
1.823100
 20
1.640860
  0
VERTEX
  8
gbo
 10
1.819290
 20
1.642770
  0
SEQEND
  8
gbo
  0
POLYLINE
  8
gbo
 62
1
 40
0.000000
 41
0.000000
 66
  1
  0
VERTEX
  8
gbo
 10
2.437530
 20
1.024720
  0
VERTEX
  8
gbo
 10
2.433720
 20
1.026620
  0
VERTEX
  8
gbo
 10
2.429910
 20
1.030430
  0
VERTEX
  8
gbo
 10
2.428010
 20
1.034240
  0
VERTEX
  8
gbo
 10
2.428010
 20
1.041860
  0
VERTEX
  8
gbo
 10
2.429910
 20
1.045670
  0
VERTEX
  8
gbo
 10
2.433720
 20
1.049470
  0
VERTEX
  8
gbo
 10
2.437530
 20
1.051380
  0
VERTEX
  8
gbo
 10
2.443240
 20
1.053280
  0
VERTEX
  8
gbo
 10
2.452760
 20
1.053280
  0
VERTEX
  8
gbo
 10
2.458480
 20
1.051380
  0
VERTEX
  8
gbo
 10
2.462290
 20
1.049470
  0
VERTEX
  8
gbo
 10
2.466100
 20
1.045670
  0
VERTEX
  8
gbo
 10
2.468000
 20
1.041860
  0
VERTEX
  8
gbo
 10
2.468000
 20
1.034240
  0
VERTEX
  8
gbo
 10
2.466100
 20
1.030430
  0
VERTEX
  8
gbo
 10
2.462290
 20
1.026620
  0
VERTEX
  8
gbo
 10
2.458480
 20
1.024720
  0
SEQEND
  8
gbo
  0
POLYLINE
  8
gbo
 62
1
 40
0.000000
 41
0.000000
 66
  1
  0
VERTEX
  8
gbo
 10
2.428010
 20
1.009670
  0
VERTEX
  8
gbo
 10
2.428010
 20
0.988730
  0
VERTEX
  8
gbo
 10
2.443240
 20
1.000150
  0
VERTEX
  8
gbo
 10
2.443240
 20
0.994440
  0
VERTEX
  8
gbo
 10
2.445150
 20
0.990630
  0
VERTEX
  8
gbo
 10
2.447050
 20
0.988730
  0
VERTEX
  8
gbo
 10
2.452760
 20
0.986820
  0
VERTEX
  8
gbo
 10
2.456570
 20
0.986820
  0
VERTEX
  8
gbo
 10
2.462290
 20
0.988730
  0
VERTEX
  8
gbo
 10
2.466100
 20
0.992530
  0
VERTEX
  8
gbo
 10
2.468000
 20
0.998250
  0
VERTEX
  8
gbo
 10
2.468000
 20
1.003960
  0
VERTEX
  8
gbo
 10
2.466100
 20
1.009670
  0
VERTEX
  8
gbo
 10
2.464190
 20
1.011580
  0
VERTEX
  8
gbo
 10
2.460380
 20
1.013480
  0
SEQEND
  8
gbo
  0
POLYLINE
  8
gbo
 62
1
 40
0.000000
 41
0.000000
 66
  1
  0
VERTEX
  8
gbo
 10
2.142240
 20
1.651280
  0
VERTEX
  8
gbo
 10
2.142240
 20
1.611280
  0
SEQEND
  8
gbo
  0
POLYLINE
  8
gbo
 62
1
 40
0.000000
 41
0.000000
 66
  1
  0
VERTEX
  8
gbo
 10
2.142240
 20
1.651280
  0
VERTEX
  8
gbo
 10
2.125100
 20
1.651280
  0
VERTEX
  8
gbo
 10
2.119390
 20
1.649370
  0
VERTEX
  8
gbo
 10
2.117490
 20
1.647470
  0
VERTEX
  8
gbo
 10
2.115580
 20
1.643660
  0
VERTEX
  8
gbo
 10
2.115580
 20
1.639850
  0
VERTEX
  8
gbo
 10
2.117490
 20
1.636040
  0
VERTEX
  8
gbo
 10
2.119390
 20
1.634140
  0
VERTEX
  8
gbo
 10
2.125100
 20
1.632230
  0
VERTEX
  8
gbo
 10
2.142240
 20
1.632230
  0
SEQEND
  8
gbo
  0
POLYLINE
  8
gbo
 62
1
 40
0.000000
 41
0.000000
 66
  1
  0
VERTEX
  8
gbo
 10
2.128910
 20
1.632230
  0
VERTEX
  8
gbo
 10
2.115580
 20
1.611280
  0
SEQEND
  8
gbo
  0
POLYLINE
  8
gbo
 62
1
 40
0.000000
 41
0.000000
 66
  1
  0
VERTEX
  8
gbo
 10
2.106630
 20
1.630330
  0
VERTEX
  8
gbo
 10
2.089490
 20
1.630330
  0
VERTEX
  8
gbo
 10
2.083780
 20
1.632230
  0
VERTEX
  8
gbo
 10
2.081880
 20
1.634140
  0
VERTEX
  8
gbo
 10
2.079970
 20
1.637950
  0
VERTEX
  8
gbo
 10
2.079970
 20
1.643660
  0
VERTEX
  8
gbo
 10
2.081880
 20
1.647470
  0
VERTEX
  8
gbo
 10
2.083780
 20
1.649370
  0
VERTEX
  8
gbo
 10
2.089490
 20
1.651280
  0
VERTEX
  8
gbo
 10
2.106630
 20
1.651280
  0
VERTEX
  8
gbo
 10
2.106630
 20
1.611280
  0
SEQEND
  8
gbo
  0
POLYLINE
  8
gbo
 62
1
 40
0.000000
 41
0.000000
 66
  1
  0
VERTEX
  8
gbo
 10
2.067210
 20
1.651280
  0
VERTEX
  8
gbo
 10
2.046260
 20
1.651280
  0
VERTEX
  8
gbo
 10
2.057690
 20
1.636040
  0
VERTEX
  8
gbo
 10
2.051980
 20
1.636040
  0
VERTEX
  8
gbo
 10
2.048170
 20
1.634140
  0
VERTEX
  8
gbo
 10
2.046260
 20
1.632230
  0
VERTEX
  8
gbo
 10
2.044360
 20
1.626520
  0
VERTEX
  8
gbo
 10
2.044360
 20
1.622710
  0
VERTEX
  8
gbo
 10
2.046260
 20
1.617000
  0
VERTEX
  8
gbo
 10
2.050070
 20
1.613190
  0
VERTEX
  8
gbo
 10
2.055790
 20
1.611280
  0
VERTEX
  8
gbo
 10
2.061500
 20
1.611280
  0
VERTEX
  8
gbo
 10
2.067210
 20
1.613190
  0
VERTEX
  8
gbo
 10
2.069120
 20
1.615090
  0
VERTEX
  8
gbo
 10
2.071020
 20
1.618900
  0
SEQEND
  8
gbo
  0
POLYLINE
  8
gbo
 62
1
 40
0.000000
 41
0.000000
 66
  1
  0
VERTEX
  8
gbo
 10
2.285010
 20
0.345280
  0
VERTEX
  8
gbo
 10
2.313570
 20
0.345280
  0
VERTEX
  8
gbo
 10
2.319290
 20
0.343380
  0
VERTEX
  8
gbo
 10
2.323100
 20
0.339570
  0
VERTEX
  8
gbo
 10
2.325000
 20
0.333860
  0
VERTEX
  8
gbo
 10
2.325000
 20
0.330050
  0
VERTEX
  8
gbo
 10
2.323100
 20
0.324340
  0
VERTEX
  8
gbo
 10
2.319290
 20
0.320530
  0
VERTEX
  8
gbo
 10
2.313570
 20
0.318620
  0
VERTEX
  8
gbo
 10
2.285010
 20
0.318620
  0
SEQEND
  8
gbo
  0
POLYLINE
  8
gbo
 62
1
 40
0.000000
 41
0.000000
 66
  1
  0
VERTEX
  8
gbo
 10
2.292630
 20
0.307580
  0
VERTEX
  8
gbo
 10
2.290720
 20
0.303770
  0
VERTEX
  8
gbo
 10
2.285010
 20
0.298060
  0
VERTEX
  8
gbo
 10
2.325000
 20
0.298060
  0
SEQEND
  8
gbo
  0
POLYLINE
  8
gbo
 62
1
 40
0.000000
 41
0.000000
 66
  1
  0
VERTEX
  8
gbo
 10
1.145000
 20
1.545280
  0
VERTEX
  8
gbo
 10
1.145000
 20
1.585270
  0
VERTEX
  8
gbo
 10
1.125010
 20
1.585270
  0
VERTEX
  8
gbo
 10
1.118340
 20
1.578610
  0
VERTEX
  8
gbo
 10
1.118340
 20
1.565280
  0
VERTEX
  8
gbo
 10
1.125010
 20
1.558610
  0
VERTEX
  8
gbo
 10
1.145000
 20
1.558610
  0
SEQEND
  8
gbo
  0
POLYLINE
  8
gbo
 62
1
 40
0.000000
 41
0.000000
 66
  1
  0
VERTEX
  8
gbo
 10
1.131670
 20
1.558610
  0
VERTEX
  8
gbo
 10
1.118340
 20
1.545280
  0
SEQEND
  8
gbo
  0
POLYLINE
  8
gbo
 62
1
 40
0.000000
 41
0.000000
 66
  1
  0
VERTEX
  8
gbo
 10
1.105010
 20
1.545280
  0
VERTEX
  8
gbo
 10
1.091680
 20
1.545280
  0
VERTEX
  8
gbo
 10
1.098350
 20
1.545280
  0
VERTEX
  8
gbo
 10
1.098350
 20
1.585270
  0
VERTEX
  8
gbo
 10
1.105010
 20
1.578610
  0
SEQEND
  8
gbo
  0
POLYLINE
  8
gbo
 62
1
 40
0.000000
 41
0.000000
 66
  1
  0
VERTEX
  8
gbo
 10
1.071690
 20
1.545280
  0
VERTEX
  8
gbo
 10
1.058360
 20
1.545280
  0
VERTEX
  8
gbo
 10
1.065030
 20
1.545280
  0
VERTEX
  8
gbo
 10
1.065030
 20
1.585270
  0
VERTEX
  8
gbo
 10
1.071690
 20
1.578610
  0
SEQEND
  8
gbo
  0
POLYLINE
  8
gbo
 62
1
 40
0.000000
 41
0.000000
 66
  1
  0
VERTEX
  8
gbo
 10
2.448000
 20
0.772000
  0
VERTEX
  8
gbo
 10
2.408010
 20
0.772000
  0
VERTEX
  8
gbo
 10
2.408010
 20
0.752010
  0
VERTEX
  8
gbo
 10
2.414680
 20
0.745340
  0
VERTEX
  8
gbo
 10
2.428010
 20
0.745340
  0
VERTEX
  8
gbo
 10
2.434670
 20
0.752010
  0
VERTEX
  8
gbo
 10
2.434670
 20
0.772000
  0
SEQEND
  8
gbo
  0
POLYLINE
  8
gbo
 62
1
 40
0.000000
 41
0.000000
 66
  1
  0
VERTEX
  8
gbo
 10
2.434670
 20
0.758670
  0
VERTEX
  8
gbo
 10
2.448000
 20
0.745340
  0
SEQEND
  8
gbo
  0
POLYLINE
  8
gbo
 62
1
 40
0.000000
 41
0.000000
 66
  1
  0
VERTEX
  8
gbo
 10
2.448000
 20
0.732010
  0
VERTEX
  8
gbo
 10
2.448000
 20
0.718680
  0
VERTEX
  8
gbo
 10
2.448000
 20
0.725350
  0
VERTEX
  8
gbo
 10
2.408010
 20
0.725350
  0
VERTEX
  8
gbo
 10
2.414680
 20
0.732010
  0
SEQEND
  8
gbo
  0
POLYLINE
  8
gbo
 62
1
 40
0.000000
 41
0.000000
 66
  1
  0
VERTEX
  8
gbo
 10
2.448000
 20
0.672030
  0
VERTEX
  8
gbo
 10
2.448000
 20
0.698690
  0
VERTEX
  8
gbo
 10
2.421340
 20
0.672030
  0
VERTEX
  8
gbo
 10
2.414680
 20
0.672030
  0
VERTEX
  8
gbo
 10
2.408010
 20
0.678700
  0
VERTEX
  8
gbo
 10
2.408010
 20
0.692030
  0
VERTEX
  8
gbo
 10
2.414680
 20
0.698690
  0
SEQEND
  8
gbo
  0
POLYLINE
  8
gbo
 62
1
 40
0.000000
 41
0.000000
 66
  1
  0
VERTEX
  8
gbo
 10
2.019940
 20
0.765280
  0
VERTEX
  8
gbo
 10
1.979950
 20
0.765280
  0
VERTEX
  8
gbo
 10
1.979950
 20
0.745290
  0
VERTEX
  8
gbo
 10
1.986610
 20
0.738630
  0
VERTEX
  8
gbo
 10
1.999940
 20
0.738630
  0
VERTEX
  8
gbo
 10
2.006610
 20
0.745290
  0
VERTEX
  8
gbo
 10
2.006610
 20
0.765280
  0
SEQEND
  8
gbo
  0
POLYLINE
  8
gbo
 62
1
 40
0.000000
 41
0.000000
 66
  1
  0
VERTEX
  8
gbo
 10
2.006610
 20
0.751950
  0
VERTEX
  8
gbo
 10
2.019940
 20
0.738630
  0
SEQEND
  8
gbo
  0
POLYLINE
  8
gbo
 62
1
 40
0.000000
 41
0.000000
 66
  1
  0
VERTEX
  8
gbo
 10
2.019940
 20
0.725300
  0
VERTEX
  8
gbo
 10
2.019940
 20
0.711970
  0
VERTEX
  8
gbo
 10
2.019940
 20
0.718630
  0
VERTEX
  8
gbo
 10
1.979950
 20
0.718630
  0
VERTEX
  8
gbo
 10
1.986610
 20
0.725300
  0
SEQEND
  8
gbo
  0
POLYLINE
  8
gbo
 62
1
 40
0.000000
 41
0.000000
 66
  1
  0
VERTEX
  8
gbo
 10
1.986610
 20
0.691970
  0
VERTEX
  8
gbo
 10
1.979950
 20
0.685310
  0
VERTEX
  8
gbo
 10
1.979950
 20
0.671980
  0
VERTEX
  8
gbo
 10
1.986610
 20
0.665320
  0
VERTEX
  8
gbo
 10
1.993280
 20
0.665320
  0
VERTEX
  8
gbo
 10
1.999940
 20
0.671980
  0
VERTEX
  8
gbo
 10
1.999940
 20
0.678650
  0
VERTEX
  8
gbo
 10
1.999940
 20
0.671980
  0
VERTEX
  8
gbo
 10
2.006610
 20
0.665320
  0
VERTEX
  8
gbo
 10
2.013270
 20
0.665320
  0
VERTEX
  8
gbo
 10
2.019940
 20
0.671980
  0
VERTEX
  8
gbo
 10
2.019940
 20
0.685310
  0
VERTEX
  8
gbo
 10
2.013270
 20
0.691970
  0
SEQEND
  8
gbo
  0
POLYLINE
  8
gbo
 62
1
 40
0.000000
 41
0.000000
 66
  1
  0
VERTEX
  8
gbo
 10
1.625000
 20
0.764000
  0
VERTEX
  8
gbo
 10
1.585010
 20
0.764000
  0
VERTEX
  8
gbo
 10
1.585010
 20
0.744010
  0
VERTEX
  8
gbo
 10
1.591680
 20
0.737340
  0
VERTEX
  8
gbo
 10
1.605010
 20
0.737340
  0
VERTEX
  8
gbo
 10
1.611670
 20
0.744010
  0
VERTEX
  8
gbo
 10
1.611670
 20
0.764000
  0
SEQEND
  8
gbo
  0
POLYLINE
  8
gbo
 62
1
 40
0.000000
 41
0.000000
 66
  1
  0
VERTEX
  8
gbo
 10
1.611670
 20
0.750670
  0
VERTEX
  8
gbo
 10
1.625000
 20
0.737340
  0
SEQEND
  8
gbo
  0
POLYLINE
  8
gbo
 62
1
 40
0.000000
 41
0.000000
 66
  1
  0
VERTEX
  8
gbo
 10
1.625000
 20
0.724010
  0
VERTEX
  8
gbo
 10
1.625000
 20
0.710680
  0
VERTEX
  8
gbo
 10
1.625000
 20
0.717350
  0
VERTEX
  8
gbo
 10
1.585010
 20
0.717350
  0
VERTEX
  8
gbo
 10
1.591680
 20
0.724010
  0
SEQEND
  8
gbo
  0
POLYLINE
  8
gbo
 62
1
 40
0.000000
 41
0.000000
 66
  1
  0
VERTEX
  8
gbo
 10
1.625000
 20
0.670700
  0
VERTEX
  8
gbo
 10
1.585010
 20
0.670700
  0
VERTEX
  8
gbo
 10
1.605010
 20
0.690690
  0
VERTEX
  8
gbo
 10
1.605010
 20
0.664030
  0
SEQEND
  8
gbo
  0
POLYLINE
  8
gbo
 62
1
 40
0.000000
 41
0.000000
 66
  1
  0
VERTEX
  8
gbo
 10
3.295000
 20
0.815280
  0
VERTEX
  8
gbo
 10
3.295000
 20
0.855270
  0
VERTEX
  8
gbo
 10
3.275010
 20
0.855270
  0
VERTEX
  8
gbo
 10
3.268340
 20
0.848610
  0
VERTEX
  8
gbo
 10
3.268340
 20
0.835280
  0
VERTEX
  8
gbo
 10
3.275010
 20
0.828610
  0
VERTEX
  8
gbo
 10
3.295000
 20
0.828610
  0
SEQEND
  8
gbo
  0
POLYLINE
  8
gbo
 62
1
 40
0.000000
 41
0.000000
 66
  1
  0
VERTEX
  8
gbo
 10
3.281670
 20
0.828610
  0
VERTEX
  8
gbo
 10
3.268340
 20
0.815280
  0
SEQEND
  8
gbo
  0
POLYLINE
  8
gbo
 62
1
 40
0.000000
 41
0.000000
 66
  1
  0
VERTEX
  8
gbo
 10
3.255010
 20
0.815280
  0
VERTEX
  8
gbo
 10
3.241680
 20
0.815280
  0
VERTEX
  8
gbo
 10
3.248350
 20
0.815280
  0
VERTEX
  8
gbo
 10
3.248350
 20
0.855270
  0
VERTEX
  8
gbo
 10
3.255010
 20
0.848610
  0
SEQEND
  8
gbo
  0
POLYLINE
  8
gbo
 62
1
 40
0.000000
 41
0.000000
 66
  1
  0
VERTEX
  8
gbo
 10
3.195030
 20
0.855270
  0
VERTEX
  8
gbo
 10
3.221690
 20
0.855270
  0
VERTEX
  8
gbo
 10
3.221690
 20
0.835280
  0
VERTEX
  8
gbo
 10
3.208360
 20
0.841940
  0
VERTEX
  8
gbo
 10
3.201700
 20
0.841940
  0
VERTEX
  8
gbo
 10
3.195030
 20
0.835280
  0
VERTEX
  8
gbo
 10
3.195030
 20
0.821950
  0
VERTEX
  8
gbo
 10
3.201700
 20
0.815280
  0
VERTEX
  8
gbo
 10
3.215030
 20
0.815280
  0
VERTEX
  8
gbo
 10
3.221690
 20
0.821950
  0
SEQEND
  8
gbo
  0
POLYLINE
  8
gbo
 62
1
 40
0.000000
 41
0.000000
 66
  1
  0
VERTEX
  8
gbo
 10
1.314880
 20
1.208280
  0
VERTEX
  8
gbo
 10
1.339880
 20
1.208280
  0
VERTEX
  8
gbo
 10
1.339880
 20
1.308280
  0
SEQEND
  8
gbo
  0
POLYLINE
  8
gbo
 62
1
 40
0.000000
 41
0.000000
 66
  1
  0
VERTEX
  8
gbo
 10
1.314880
 20
1.308280
  0
VERTEX
  8
gbo
 10
1.339880
 20
1.308280
  0
SEQEND
  8
gbo
  0
POLYLINE
  8
gbo
 62
1
 40
0.000000
 41
0.000000
 66
  1
  0
VERTEX
  8
gbo
 10
1.314880
 20
1.023280
  0
VERTEX
  8
gbo
 10
1.314880
 20
1.208280
  0
SEQEND
  8
gbo
  0
POLYLINE
  8
gbo
 62
1
 40
0.000000
 41
0.000000
 66
  1
  0
VERTEX
  8
gbo
 10
1.314880
 20
1.308280
  0
VERTEX
  8
gbo
 10
1.314880
 20
1.483280
  0
SEQEND
  8
gbo
  0
POLYLINE
  8
gm1
 62
6
 40
0.000000
 41
0.000000
 66
  1
  0
VERTEX
  8
gm1
 10
3.320000
 20
1.742780
  0
VERTEX
  8
gm1
 10
3.320000
 20
1.805280
  0
SEQEND
  8
gm1
  0
POLYLINE
  8
gm1
 62
6
 40
0.000000
 41
0.000000
 66
  1
  0
VERTEX
  8
gm1
 10
0.000000
 20
1.742500
  0
VERTEX
  8
gm1
 10
0.000000
 20
1.805280
  0
SEQEND
  8
gm1
  0
POLYLINE
  8
gm1
 62
6
 40
0.000000
 41
0.000000
 66
  1
  0
VERTEX
  8
gm1
 10
1.844940
 20
1.795280
  0
VERTEX
  8
gm1
 10
3.320000
 20
1.795280
  0
SEQEND
  8
gm1
  0
POLYLINE
  8
gm1
 62
6
 40
0.000000
 41
0.000000
 66
  1
  0
VERTEX
  8
gm1
 10
0.000000
 20
1.795280
  0
VERTEX
  8
gm1
 10
1.443060
 20
1.795280
  0
SEQEND
  8
gm1
  0
POLYLINE
  8
gm1
 62
6
 40
0.000000
 41
0.000000
 66
  1
  0
VERTEX
  8
gm1
 10
3.260000
 20
1.815280
  0
VERTEX
  8
gm1
 10
3.320000
 20
1.795280
  0
SEQEND
  8
gm1
  0
POLYLINE
  8
gm1
 62
6
 40
0.000000
 41
0.000000
 66
  1
  0
VERTEX
  8
gm1
 10
3.260000
 20
1.775280
  0
VERTEX
  8
gm1
 10
3.320000
 20
1.795280
  0
SEQEND
  8
gm1
  0
POLYLINE
  8
gm1
 62
6
 40
0.000000
 41
0.000000
 66
  1
  0
VERTEX
  8
gm1
 10
0.000000
 20
1.795280
  0
VERTEX
  8
gm1
 10
0.060000
 20
1.775280
  0
SEQEND
  8
gm1
  0
POLYLINE
  8
gm1
 62
6
 40
0.000000
 41
0.000000
 66
  1
  0
VERTEX
  8
gm1
 10
0.000000
 20
1.795280
  0
VERTEX
  8
gm1
 10
0.060000
 20
1.815280
  0
SEQEND
  8
gm1
  0
POLYLINE
  8
gm1
 62
6
 40
0.000000
 41
0.000000
 66
  1
  0
VERTEX
  8
gm1
 10
-0.110000
 20
0.157570
  0
VERTEX
  8
gm1
 10
0.020070
 20
0.157570
  0
SEQEND
  8
gm1
  0
POLYLINE
  8
gm1
 62
6
 40
0.000000
 41
0.000000
 66
  1
  0
VERTEX
  8
gm1
 10
-0.110000
 20
1.575280
  0
VERTEX
  8
gm1
 10
0.020070
 20
1.575280
  0
SEQEND
  8
gm1
  0
POLYLINE
  8
gm1
 62
6
 40
0.000000
 41
0.000000
 66
  1
  0
VERTEX
  8
gm1
 10
-0.100000
 20
0.157570
  0
VERTEX
  8
gm1
 10
-0.100000
 20
0.659480
  0
SEQEND
  8
gm1
  0
POLYLINE
  8
gm1
 62
6
 40
0.000000
 41
0.000000
 66
  1
  0
VERTEX
  8
gm1
 10
-0.100000
 20
1.041370
  0
VERTEX
  8
gm1
 10
-0.100000
 20
1.575280
  0
SEQEND
  8
gm1
  0
POLYLINE
  8
gm1
 62
6
 40
0.000000
 41
0.000000
 66
  1
  0
VERTEX
  8
gm1
 10
-0.100000
 20
0.157570
  0
VERTEX
  8
gm1
 10
-0.080000
 20
0.217570
  0
SEQEND
  8
gm1
  0
POLYLINE
  8
gm1
 62
6
 40
0.000000
 41
0.000000
 66
  1
  0
VERTEX
  8
gm1
 10
-0.120000
 20
0.217570
  0
VERTEX
  8
gm1
 10
-0.100000
 20
0.157570
  0
SEQEND
  8
gm1
  0
POLYLINE
  8
gm1
 62
6
 40
0.000000
 41
0.000000
 66
  1
  0
VERTEX
  8
gm1
 10
-0.120000
 20
1.515280
  0
VERTEX
  8
gm1
 10
-0.100000
 20
1.575280
  0
VERTEX
  8
gm1
 10
-0.080000
 20
1.515280
  0
SEQEND
  8
gm1
  0
POLYLINE
  8
gm1
 62
6
 40
0.000000
 41
0.000000
 66
  1
  0
VERTEX
  8
gm1
 10
-0.110000
 20
1.575280
  0
VERTEX
  8
gm1
 10
0.020070
 20
1.575280
  0
SEQEND
  8
gm1
  0
POLYLINE
  8
gm1
 62
6
 40
0.000000
 41
0.000000
 66
  1
  0
VERTEX
  8
gm1
 10
-0.110000
 20
1.730000
  0
VERTEX
  8
gm1
 10
-0.012500
 20
1.730000
  0
SEQEND
  8
gm1
  0
POLYLINE
  8
gm1
 62
6
 40
0.000000
 41
0.000000
 66
  1
  0
VERTEX
  8
gm1
 10
-0.100000
 20
1.575280
  0
VERTEX
  8
gm1
 10
-0.100000
 20
1.652640
  0
VERTEX
  8
gm1
 10
-0.100000
 20
1.730000
  0
SEQEND
  8
gm1
  0
POLYLINE
  8
gm1
 62
6
 40
0.000000
 41
0.000000
 66
  1
  0
VERTEX
  8
gm1
 10
-0.100000
 20
1.575280
  0
VERTEX
  8
gm1
 10
-0.080000
 20
1.635280
  0
SEQEND
  8
gm1
  0
POLYLINE
  8
gm1
 62
6
 40
0.000000
 41
0.000000
 66
  1
  0
VERTEX
  8
gm1
 10
-0.120000
 20
1.635280
  0
VERTEX
  8
gm1
 10
-0.100000
 20
1.575280
  0
SEQEND
  8
gm1
  0
POLYLINE
  8
gm1
 62
6
 40
0.000000
 41
0.000000
 66
  1
  0
VERTEX
  8
gm1
 10
-0.120000
 20
1.670000
  0
VERTEX
  8
gm1
 10
-0.100000
 20
1.730000
  0
VERTEX
  8
gm1
 10
-0.080000
 20
1.670000
  0
SEQEND
  8
gm1
  0
POLYLINE
  8
gm1
 62
6
 40
0.000000
 41
0.000000
 66
  1
  0
VERTEX
  8
gm1
 10
-0.220000
 20
0.000000
  0
VERTEX
  8
gm1
 10
-0.012500
 20
0.000000
  0
SEQEND
  8
gm1
  0
POLYLINE
  8
gm1
 62
6
 40
0.000000
 41
0.000000
 66
  1
  0
VERTEX
  8
gm1
 10
-0.220000
 20
1.730000
  0
VERTEX
  8
gm1
 10
-0.012500
 20
1.730000
  0
SEQEND
  8
gm1
  0
POLYLINE
  8
gm1
 62
6
 40
0.000000
 41
0.000000
 66
  1
  0
VERTEX
  8
gm1
 10
-0.210000
 20
0.000000
  0
VERTEX
  8
gm1
 10
-0.210000
 20
0.865000
  0
VERTEX
  8
gm1
 10
-0.210000
 20
1.730000
  0
SEQEND
  8
gm1
  0
POLYLINE
  8
gm1
 62
6
 40
0.000000
 41
0.000000
 66
  1
  0
VERTEX
  8
gm1
 10
-0.210000
 20
0.000000
  0
VERTEX
  8
gm1
 10
-0.190000
 20
0.060000
  0
SEQEND
  8
gm1
  0
POLYLINE
  8
gm1
 62
6
 40
0.000000
 41
0.000000
 66
  1
  0
VERTEX
  8
gm1
 10
-0.230000
 20
0.060000
  0
VERTEX
  8
gm1
 10
-0.210000
 20
0.000000
  0
SEQEND
  8
gm1
  0
POLYLINE
  8
gm1
 62
6
 40
0.000000
 41
0.000000
 66
  1
  0
VERTEX
  8
gm1
 10
-0.230000
 20
1.670000
  0
VERTEX
  8
gm1
 10
-0.210000
 20
1.730000
  0
VERTEX
  8
gm1
 10
-0.190000
 20
1.670000
  0
SEQEND
  8
gm1
  0
POLYLINE
  8
gm1
 62
6
 40
0.000000
 41
0.000000
 66
  1
  0
VERTEX
  8
gm1
 10
3.320000
 20
1.742780
  0
VERTEX
  8
gm1
 10
3.320000
 20
1.805280
  0
SEQEND
  8
gm1
  0
POLYLINE
  8
gm1
 62
6
 40
0.000000
 41
0.000000
 66
  1
  0
VERTEX
  8
gm1
 10
0.000000
 20
1.742500
  0
VERTEX
  8
gm1
 10
0.000000
 20
1.805280
  0
SEQEND
  8
gm1
  0
POLYLINE
  8
gm1
 62
6
 40
0.000000
 41
0.000000
 66
  1
  0
VERTEX
  8
gm1
 10
1.844940
 20
1.795280
  0
VERTEX
  8
gm1
 10
3.320000
 20
1.795280
  0
SEQEND
  8
gm1
  0
POLYLINE
  8
gm1
 62
6
 40
0.000000
 41
0.000000
 66
  1
  0
VERTEX
  8
gm1
 10
0.000000
 20
1.795280
  0
VERTEX
  8
gm1
 10
1.443060
 20
1.795280
  0
SEQEND
  8
gm1
  0
POLYLINE
  8
gm1
 62
6
 40
0.000000
 41
0.000000
 66
  1
  0
VERTEX
  8
gm1
 10
3.260000
 20
1.815280
  0
VERTEX
  8
gm1
 10
3.320000
 20
1.795280
  0
SEQEND
  8
gm1
  0
POLYLINE
  8
gm1
 62
6
 40
0.000000
 41
0.000000
 66
  1
  0
VERTEX
  8
gm1
 10
3.260000
 20
1.775280
  0
VERTEX
  8
gm1
 10
3.320000
 20
1.795280
  0
SEQEND
  8
gm1
  0
POLYLINE
  8
gm1
 62
6
 40
0.000000
 41
0.000000
 66
  1
  0
VERTEX
  8
gm1
 10
0.000000
 20
1.795280
  0
VERTEX
  8
gm1
 10
0.060000
 20
1.775280
  0
SEQEND
  8
gm1
  0
POLYLINE
  8
gm1
 62
6
 40
0.000000
 41
0.000000
 66
  1
  0
VERTEX
  8
gm1
 10
0.000000
 20
1.795280
  0
VERTEX
  8
gm1
 10
0.060000
 20
1.815280
  0
SEQEND
  8
gm1
  0
POLYLINE
  8
gm1
 62
6
 40
0.000000
 41
0.000000
 66
  1
  0
VERTEX
  8
gm1
 10
-0.110000
 20
0.157570
  0
VERTEX
  8
gm1
 10
0.020070
 20
0.157570
  0
SEQEND
  8
gm1
  0
POLYLINE
  8
gm1
 62
6
 40
0.000000
 41
0.000000
 66
  1
  0
VERTEX
  8
gm1
 10
-0.110000
 20
1.575280
  0
VERTEX
  8
gm1
 10
0.020070
 20
1.575280
  0
SEQEND
  8
gm1
  0
POLYLINE
  8
gm1
 62
6
 40
0.000000
 41
0.000000
 66
  1
  0
VERTEX
  8
gm1
 10
-0.100000
 20
0.157570
  0
VERTEX
  8
gm1
 10
-0.100000
 20
0.659480
  0
SEQEND
  8
gm1
  0
POLYLINE
  8
gm1
 62
6
 40
0.000000
 41
0.000000
 66
  1
  0
VERTEX
  8
gm1
 10
-0.100000
 20
1.041370
  0
VERTEX
  8
gm1
 10
-0.100000
 20
1.575280
  0
SEQEND
  8
gm1
  0
POLYLINE
  8
gm1
 62
6
 40
0.000000
 41
0.000000
 66
  1
  0
VERTEX
  8
gm1
 10
-0.100000
 20
0.157570
  0
VERTEX
  8
gm1
 10
-0.080000
 20
0.217570
  0
SEQEND
  8
gm1
  0
POLYLINE
  8
gm1
 62
6
 40
0.000000
 41
0.000000
 66
  1
  0
VERTEX
  8
gm1
 10
-0.120000
 20
0.217570
  0
VERTEX
  8
gm1
 10
-0.100000
 20
0.157570
  0
SEQEND
  8
gm1
  0
POLYLINE
  8
gm1
 62
6
 40
0.000000
 41
0.000000
 66
  1
  0
VERTEX
  8
gm1
 10
-0.120000
 20
1.515280
  0
VERTEX
  8
gm1
 10
-0.100000
 20
1.575280
  0
VERTEX
  8
gm1
 10
-0.080000
 20
1.515280
  0
SEQEND
  8
gm1
  0
POLYLINE
  8
gm1
 62
6
 40
0.000000
 41
0.000000
 66
  1
  0
VERTEX
  8
gm1
 10
-0.110000
 20
1.575280
  0
VERTEX
  8
gm1
 10
0.020070
 20
1.575280
  0
SEQEND
  8
gm1
  0
POLYLINE
  8
gm1
 62
6
 40
0.000000
 41
0.000000
 66
  1
  0
VERTEX
  8
gm1
 10
-0.110000
 20
1.730000
  0
VERTEX
  8
gm1
 10
-0.012500
 20
1.730000
  0
SEQEND
  8
gm1
  0
POLYLINE
  8
gm1
 62
6
 40
0.000000
 41
0.000000
 66
  1
  0
VERTEX
  8
gm1
 10
-0.100000
 20
1.575280
  0
VERTEX
  8
gm1
 10
-0.100000
 20
1.652640
  0
VERTEX
  8
gm1
 10
-0.100000
 20
1.730000
  0
SEQEND
  8
gm1
  0
POLYLINE
  8
gm1
 62
6
 40
0.000000
 41
0.000000
 66
  1
  0
VERTEX
  8
gm1
 10
-0.100000
 20
1.575280
  0
VERTEX
  8
gm1
 10
-0.080000
 20
1.635280
  0
SEQEND
  8
gm1
  0
POLYLINE
  8
gm1
 62
6
 40
0.000000
 41
0.000000
 66
  1
  0
VERTEX
  8
gm1
 10
-0.120000
 20
1.635280
  0
VERTEX
  8
gm1
 10
-0.100000
 20
1.575280
  0
SEQEND
  8
gm1
  0
POLYLINE
  8
gm1
 62
6
 40
0.000000
 41
0.000000
 66
  1
  0
VERTEX
  8
gm1
 10
-0.120000
 20
1.670000
  0
VERTEX
  8
gm1
 10
-0.100000
 20
1.730000
  0
VERTEX
  8
gm1
 10
-0.080000
 20
1.670000
  0
SEQEND
  8
gm1
  0
POLYLINE
  8
gm1
 62
6
 40
0.000000
 41
0.000000
 66
  1
  0
VERTEX
  8
gm1
 10
-0.220000
 20
0.000000
  0
VERTEX
  8
gm1
 10
-0.012500
 20
0.000000
  0
SEQEND
  8
gm1
  0
POLYLINE
  8
gm1
 62
6
 40
0.000000
 41
0.000000
 66
  1
  0
VERTEX
  8
gm1
 10
-0.220000
 20
1.730000
  0
VERTEX
  8
gm1
 10
-0.012500
 20
1.730000
  0
SEQEND
  8
gm1
  0
POLYLINE
  8
gm1
 62
6
 40
0.000000
 41
0.000000
 66
  1
  0
VERTEX
  8
gm1
 10
-0.210000
 20
0.000000
  0
VERTEX
  8
gm1
 10
-0.210000
 20
0.865000
  0
VERTEX
  8
gm1
 10
-0.210000
 20
1.730000
  0
SEQEND
  8
gm1
  0
POLYLINE
  8
gm1
 62
6
 40
0.000000
 41
0.000000
 66
  1
  0
VERTEX
  8
gm1
 10
-0.210000
 20
0.000000
  0
VERTEX
  8
gm1
 10
-0.190000
 20
0.060000
  0
SEQEND
  8
gm1
  0
POLYLINE
  8
gm1
 62
6
 40
0.000000
 41
0.000000
 66
  1
  0
VERTEX
  8
gm1
 10
-0.230000
 20
0.060000
  0
VERTEX
  8
gm1
 10
-0.210000
 20
0.000000
  0
SEQEND
  8
gm1
  0
POLYLINE
  8
gm1
 62
6
 40
0.000000
 41
0.000000
 66
  1
  0
VERTEX
  8
gm1
 10
-0.230000
 20
1.670000
  0
VERTEX
  8
gm1
 10
-0.210000
 20
1.730000
  0
VERTEX
  8
gm1
 10
-0.190000
 20
1.670000
  0
SEQEND
  8
gm1
  0
POLYLINE
  8
gm1
 62
6
 40
0.000000
 41
0.000000
 66
  1
  0
VERTEX
  8
gm1
 10
0.470000
 20
0.245280
  0
VERTEX
  8
gm1
 10
0.470000
 20
0.245280
  0
VERTEX
  8
gm1
 10
0.470000
 20
0.245280
 42
1.000000
  0
VERTEX
  8
gm1
 10
0.570000
 20
0.245280
  0
VERTEX
  8
gm1
 10
0.570000
 20
0.245280
  0
SEQEND
  8
gm1
  0
POLYLINE
  8
gm1
 62
6
 40
0.000000
 41
0.000000
 66
  1
  0
VERTEX
  8
gm1
 10
0.570000
 20
1.470280
  0
VERTEX
  8
gm1
 10
0.570000
 20
1.470280
  0
VERTEX
  8
gm1
 10
0.570000
 20
1.470280
 42
1.000000
  0
VERTEX
  8
gm1
 10
0.470000
 20
1.470280
  0
VERTEX
  8
gm1
 10
0.470000
 20
1.470280
  0
SEQEND
  8
gm1
  0
POLYLINE
  8
gm1
 62
6
 40
0.000000
 41
0.000000
 66
  1
  0
VERTEX
  8
gm1
 10
0.620000
 20
1.685280
  0
VERTEX
  8
gm1
 10
0.820000
 20
1.685280
  0
VERTEX
  8
gm1
 10
0.865000
 20
1.730280
  0
VERTEX
  8
gm1
 10
3.320000
 20
1.730280
  0
SEQEND
  8
gm1
  0
POLYLINE
  8
gm1
 62
6
 40
0.000000
 41
0.000000
 66
  1
  0
VERTEX
  8
gm1
 10
0.575000
 20
1.730280
  0
VERTEX
  8
gm1
 10
0.620000
 20
1.685280
  0
SEQEND
  8
gm1
  0
POLYLINE
  8
gm1
 62
6
 40
0.000000
 41
0.000000
 66
  1
  0
VERTEX
  8
gm1
 10
0.000000
 20
0.000000
  0
VERTEX
  8
gm1
 10
3.315500
 20
0.000000
  0
SEQEND
  8
gm1
  0
POLYLINE
  8
gm1
 62
6
 40
0.000000
 41
0.000000
 66
  1
  0
VERTEX
  8
gm1
 10
0.000000
 20
0.000000
  0
VERTEX
  8
gm1
 10
0.000000
 20
1.730000
  0
SEQEND
  8
gm1
  0
POLYLINE
  8
gm1
 62
6
 40
0.000000
 41
0.000000
 66
  1
  0
VERTEX
  8
gm1
 10
0.570000
 20
0.245280
  0
VERTEX
  8
gm1
 10
0.570000
 20
1.470280
  0
SEQEND
  8
gm1
  0
POLYLINE
  8
gm1
 62
6
 40
0.000000
 41
0.000000
 66
  1
  0
VERTEX
  8
gm1
 10
0.470000
 20
0.245280
  0
VERTEX
  8
gm1
 10
0.470000
 20
1.470280
  0
SEQEND
  8
gm1
  0
POLYLINE
  8
gm1
 62
6
 40
0.000000
 41
0.000000
 66
  1
  0
VERTEX
  8
gm1
 10
3.320000
 20
0.000280
  0
VERTEX
  8
gm1
 10
3.320000
 20
1.730280
  0
SEQEND
  8
gm1
  0
POLYLINE
  8
gm1
 62
6
 40
0.000000
 41
0.000000
 66
  1
  0
VERTEX
  8
gm1
 10
3.315500
 20
0.000000
  0
VERTEX
  8
gm1
 10
3.320000
 20
0.000280
  0
SEQEND
  8
gm1
  0
POLYLINE
  8
gm1
 62
6
 40
0.000000
 41
0.000000
 66
  1
  0
VERTEX
  8
gm1
 10
0.000000
 20
1.730000
  0
VERTEX
  8
gm1
 10
0.575000
 20
1.730280
  0
SEQEND
  8
gm1
  0
POLYLINE
  8
gm1
 62
6
 40
0.000000
 41
0.000000
 66
  1
  0
VERTEX
  8
gm1
 10
0.470000
 20
0.245280
  0
VERTEX
  8
gm1
 10
0.470000
 20
0.245280
  0
VERTEX
  8
gm1
 10
0.470000
 20
0.245280
 42
1.000000
  0
VERTEX
  8
gm1
 10
0.570000
 20
0.245280
  0
VERTEX
  8
gm1
 10
0.570000
 20
0.245280
  0
SEQEND
  8
gm1
  0
POLYLINE
  8
gm1
 62
6
 40
0.000000
 41
0.000000
 66
  1
  0
VERTEX
  8
gm1
 10
0.570000
 20
1.470280
  0
VERTEX
  8
gm1
 10
0.570000
 20
1.470280
  0
VERTEX
  8
gm1
 10
0.570000
 20
1.470280
 42
1.000000
  0
VERTEX
  8
gm1
 10
0.470000
 20
1.470280
  0
VERTEX
  8
gm1
 10
0.470000
 20
1.470280
  0
SEQEND
  8
gm1
  0
POLYLINE
  8
gm1
 62
6
 40
0.000000
 41
0.000000
 66
  1
  0
VERTEX
  8
gm1
 10
0.620000
 20
1.685280
  0
VERTEX
  8
gm1
 10
0.820000
 20
1.685280
  0
VERTEX
  8
gm1
 10
0.865000
 20
1.730280
  0
VERTEX
  8
gm1
 10
3.320000
 20
1.730280
  0
SEQEND
  8
gm1
  0
POLYLINE
  8
gm1
 62
6
 40
0.000000
 41
0.000000
 66
  1
  0
VERTEX
  8
gm1
 10
0.575000
 20
1.730280
  0
VERTEX
  8
gm1
 10
0.620000
 20
1.685280
  0
SEQEND
  8
gm1
  0
POLYLINE
  8
gm1
 62
6
 40
0.000000
 41
0.000000
 66
  1
  0
VERTEX
  8
gm1
 10
0.000000
 20
0.000000
  0
VERTEX
  8
gm1
 10
3.315500
 20
0.000000
  0
SEQEND
  8
gm1
  0
POLYLINE
  8
gm1
 62
6
 40
0.000000
 41
0.000000
 66
  1
  0
VERTEX
  8
gm1
 10
0.000000
 20
0.000000
  0
VERTEX
  8
gm1
 10
0.000000
 20
1.730000
  0
SEQEND
  8
gm1
  0
POLYLINE
  8
gm1
 62
6
 40
0.000000
 41
0.000000
 66
  1
  0
VERTEX
  8
gm1
 10
0.570000
 20
0.245280
  0
VERTEX
  8
gm1
 10
0.570000
 20
1.470280
  0
SEQEND
  8
gm1
  0
POLYLINE
  8
gm1
 62
6
 40
0.000000
 41
0.000000
 66
  1
  0
VERTEX
  8
gm1
 10
0.470000
 20
0.245280
  0
VERTEX
  8
gm1
 10
0.470000
 20
1.470280
  0
SEQEND
  8
gm1
  0
POLYLINE
  8
gm1
 62
6
 40
0.000000
 41
0.000000
 66
  1
  0
VERTEX
  8
gm1
 10
3.320000
 20
0.000280
  0
VERTEX
  8
gm1
 10
3.320000
 20
1.730280
  0
SEQEND
  8
gm1
  0
POLYLINE
  8
gm1
 62
6
 40
0.000000
 41
0.000000
 66
  1
  0
VERTEX
  8
gm1
 10
3.315500
 20
0.000000
  0
VERTEX
  8
gm1
 10
3.320000
 20
0.000280
  0
SEQEND
  8
gm1
  0
POLYLINE
  8
gm1
 62
6
 40
0.000000
 41
0.000000
 66
  1
  0
VERTEX
  8
gm1
 10
0.000000
 20
1.730000
  0
VERTEX
  8
gm1
 10
0.575000
 20
1.730280
  0
SEQEND
  8
gm1
  0
POLYLINE
  8
gm1
 62
6
 40
0.000000
 41
0.000000
 66
  1
  0
VERTEX
  8
gm1
 10
1.459060
 20
1.809280
  0
VERTEX
  8
gm1
 10
1.469060
 20
1.819270
  0
VERTEX
  8
gm1
 10
1.489050
 20
1.819270
  0
VERTEX
  8
gm1
 10
1.499050
 20
1.809280
  0
VERTEX
  8
gm1
 10
1.499050
 20
1.799280
  0
VERTEX
  8
gm1
 10
1.489050
 20
1.789280
  0
VERTEX
  8
gm1
 10
1.479050
 20
1.789280
  0
VERTEX
  8
gm1
 10
1.489050
 20
1.789280
  0
VERTEX
  8
gm1
 10
1.499050
 20
1.779290
  0
VERTEX
  8
gm1
 10
1.499050
 20
1.769290
  0
VERTEX
  8
gm1
 10
1.489050
 20
1.759290
  0
VERTEX
  8
gm1
 10
1.469060
 20
1.759290
  0
VERTEX
  8
gm1
 10
1.459060
 20
1.769290
  0
SEQEND
  8
gm1
  0
POLYLINE
  8
gm1
 62
6
 40
0.000000
 41
0.000000
 66
  1
  0
VERTEX
  8
gm1
 10
1.519040
 20
1.809280
  0
VERTEX
  8
gm1
 10
1.529040
 20
1.819270
  0
VERTEX
  8
gm1
 10
1.549030
 20
1.819270
  0
VERTEX
  8
gm1
 10
1.559030
 20
1.809280
  0
VERTEX
  8
gm1
 10
1.559030
 20
1.799280
  0
VERTEX
  8
gm1
 10
1.549030
 20
1.789280
  0
VERTEX
  8
gm1
 10
1.539030
 20
1.789280
  0
VERTEX
  8
gm1
 10
1.549030
 20
1.789280
  0
VERTEX
  8
gm1
 10
1.559030
 20
1.779290
  0
VERTEX
  8
gm1
 10
1.559030
 20
1.769290
  0
VERTEX
  8
gm1
 10
1.549030
 20
1.759290
  0
VERTEX
  8
gm1
 10
1.529040
 20
1.759290
  0
VERTEX
  8
gm1
 10
1.519040
 20
1.769290
  0
SEQEND
  8
gm1
  0
POLYLINE
  8
gm1
 62
6
 40
0.000000
 41
0.000000
 66
  1
  0
VERTEX
  8
gm1
 10
1.619010
 20
1.759290
  0
VERTEX
  8
gm1
 10
1.579020
 20
1.759290
  0
VERTEX
  8
gm1
 10
1.619010
 20
1.799280
  0
VERTEX
  8
gm1
 10
1.619010
 20
1.809280
  0
VERTEX
  8
gm1
 10
1.609010
 20
1.819270
  0
VERTEX
  8
gm1
 10
1.589020
 20
1.819270
  0
VERTEX
  8
gm1
 10
1.579020
 20
1.809280
  0
SEQEND
  8
gm1
  0
POLYLINE
  8
gm1
 62
6
 40
0.000000
 41
0.000000
 66
  1
  0
VERTEX
  8
gm1
 10
1.639000
 20
1.809280
  0
VERTEX
  8
gm1
 10
1.649000
 20
1.819270
  0
VERTEX
  8
gm1
 10
1.668990
 20
1.819270
  0
VERTEX
  8
gm1
 10
1.678990
 20
1.809280
  0
VERTEX
  8
gm1
 10
1.678990
 20
1.769290
  0
VERTEX
  8
gm1
 10
1.668990
 20
1.759290
  0
VERTEX
  8
gm1
 10
1.649000
 20
1.759290
  0
VERTEX
  8
gm1
 10
1.639000
 20
1.769290
  0
VERTEX
  8
gm1
 10
1.639000
 20
1.809280
  0
SEQEND
  8
gm1
  0
POLYLINE
  8
gm1
 62
6
 40
0.000000
 41
0.000000
 66
  1
  0
VERTEX
  8
gm1
 10
1.698980
 20
1.759290
  0
VERTEX
  8
gm1
 10
1.698980
 20
1.799280
  0
VERTEX
  8
gm1
 10
1.708980
 20
1.799280
  0
VERTEX
  8
gm1
 10
1.718980
 20
1.789280
  0
VERTEX
  8
gm1
 10
1.718980
 20
1.759290
  0
VERTEX
  8
gm1
 10
1.718980
 20
1.789280
  0
VERTEX
  8
gm1
 10
1.728970
 20
1.799280
  0
VERTEX
  8
gm1
 10
1.738970
 20
1.789280
  0
VERTEX
  8
gm1
 10
1.738970
 20
1.759290
  0
SEQEND
  8
gm1
  0
POLYLINE
  8
gm1
 62
6
 40
0.000000
 41
0.000000
 66
  1
  0
VERTEX
  8
gm1
 10
1.758960
 20
1.759290
  0
VERTEX
  8
gm1
 10
1.778960
 20
1.759290
  0
VERTEX
  8
gm1
 10
1.768960
 20
1.759290
  0
VERTEX
  8
gm1
 10
1.768960
 20
1.799280
  0
VERTEX
  8
gm1
 10
1.758960
 20
1.799280
  0
SEQEND
  8
gm1
  0
POLYLINE
  8
gm1
 62
6
 40
0.000000
 41
0.000000
 66
  1
  0
VERTEX
  8
gm1
 10
1.808950
 20
1.759290
  0
VERTEX
  8
gm1
 10
1.828940
 20
1.759290
  0
VERTEX
  8
gm1
 10
1.818940
 20
1.759290
  0
VERTEX
  8
gm1
 10
1.818940
 20
1.819270
  0
VERTEX
  8
gm1
 10
1.808950
 20
1.819270
  0
SEQEND
  8
gm1
  0
POLYLINE
  8
gm1
 62
6
 40
0.000000
 41
0.000000
 66
  1
  0
VERTEX
  8
gm1
 10
-0.064010
 20
0.675480
  0
VERTEX
  8
gm1
 10
-0.064010
 20
0.695480
  0
VERTEX
  8
gm1
 10
-0.064010
 20
0.685480
  0
VERTEX
  8
gm1
 10
-0.123990
 20
0.685480
  0
VERTEX
  8
gm1
 10
-0.113990
 20
0.675480
  0
SEQEND
  8
gm1
  0
POLYLINE
  8
gm1
 62
6
 40
0.000000
 41
0.000000
 66
  1
  0
VERTEX
  8
gm1
 10
-0.064010
 20
0.755460
  0
VERTEX
  8
gm1
 10
-0.123990
 20
0.755460
  0
VERTEX
  8
gm1
 10
-0.094000
 20
0.725470
  0
VERTEX
  8
gm1
 10
-0.094000
 20
0.765450
  0
SEQEND
  8
gm1
  0
POLYLINE
  8
gm1
 62
6
 40
0.000000
 41
0.000000
 66
  1
  0
VERTEX
  8
gm1
 10
-0.064010
 20
0.785450
  0
VERTEX
  8
gm1
 10
-0.064010
 20
0.805440
  0
VERTEX
  8
gm1
 10
-0.064010
 20
0.795440
  0
VERTEX
  8
gm1
 10
-0.123990
 20
0.795440
  0
VERTEX
  8
gm1
 10
-0.113990
 20
0.785450
  0
SEQEND
  8
gm1
  0
POLYLINE
  8
gm1
 62
6
 40
0.000000
 41
0.000000
 66
  1
  0
VERTEX
  8
gm1
 10
-0.113990
 20
0.835430
  0
VERTEX
  8
gm1
 10
-0.123990
 20
0.845430
  0
VERTEX
  8
gm1
 10
-0.123990
 20
0.865420
  0
VERTEX
  8
gm1
 10
-0.113990
 20
0.875420
  0
VERTEX
  8
gm1
 10
-0.104000
 20
0.875420
  0
VERTEX
  8
gm1
 10
-0.094000
 20
0.865420
  0
VERTEX
  8
gm1
 10
-0.084000
 20
0.875420
  0
VERTEX
  8
gm1
 10
-0.074010
 20
0.875420
  0
VERTEX
  8
gm1
 10
-0.064010
 20
0.865420
  0
VERTEX
  8
gm1
 10
-0.064010
 20
0.845430
  0
VERTEX
  8
gm1
 10
-0.074010
 20
0.835430
  0
VERTEX
  8
gm1
 10
-0.084000
 20
0.835430
  0
VERTEX
  8
gm1
 10
-0.094000
 20
0.845430
  0
VERTEX
  8
gm1
 10
-0.104000
 20
0.835430
  0
VERTEX
  8
gm1
 10
-0.113990
 20
0.835430
  0
SEQEND
  8
gm1
  0
POLYLINE
  8
gm1
 62
6
 40
0.000000
 41
0.000000
 66
  1
  0
VERTEX
  8
gm1
 10
-0.094000
 20
0.845430
  0
VERTEX
  8
gm1
 10
-0.094000
 20
0.865420
  0
SEQEND
  8
gm1
  0
POLYLINE
  8
gm1
 62
6
 40
0.000000
 41
0.000000
 66
  1
  0
VERTEX
  8
gm1
 10
-0.064010
 20
0.895410
  0
VERTEX
  8
gm1
 10
-0.104000
 20
0.895410
  0
VERTEX
  8
gm1
 10
-0.104000
 20
0.905410
  0
VERTEX
  8
gm1
 10
-0.094000
 20
0.915400
  0
VERTEX
  8
gm1
 10
-0.064010
 20
0.915400
  0
VERTEX
  8
gm1
 10
-0.094000
 20
0.915400
  0
VERTEX
  8
gm1
 10
-0.104000
 20
0.925400
  0
VERTEX
  8
gm1
 10
-0.094000
 20
0.935400
  0
VERTEX
  8
gm1
 10
-0.064010
 20
0.935400
  0
SEQEND
  8
gm1
  0
POLYLINE
  8
gm1
 62
6
 40
0.000000
 41
0.000000
 66
  1
  0
VERTEX
  8
gm1
 10
-0.064010
 20
0.955390
  0
VERTEX
  8
gm1
 10
-0.064010
 20
0.975390
  0
VERTEX
  8
gm1
 10
-0.064010
 20
0.965390
  0
VERTEX
  8
gm1
 10
-0.104000
 20
0.965390
  0
VERTEX
  8
gm1
 10
-0.104000
 20
0.955390
  0
SEQEND
  8
gm1
  0
POLYLINE
  8
gm1
 62
6
 40
0.000000
 41
0.000000
 66
  1
  0
VERTEX
  8
gm1
 10
-0.064010
 20
1.005380
  0
VERTEX
  8
gm1
 10
-0.064010
 20
1.025370
  0
VERTEX
  8
gm1
 10
-0.064010
 20
1.015370
  0
VERTEX
  8
gm1
 10
-0.123990
 20
1.015370
  0
VERTEX
  8
gm1
 10
-0.123990
 20
1.005380
  0
SEQEND
  8
gm1
  0
POLYLINE
  8
gm1
 62
6
 40
0.000000
 41
0.000000
 66
  1
  0
VERTEX
  8
gm1
 10
-0.135000
 20
1.765280
  0
VERTEX
  8
gm1
 10
-0.135000
 20
1.785280
  0
VERTEX
  8
gm1
 10
-0.135000
 20
1.775280
  0
VERTEX
  8
gm1
 10
-0.194980
 20
1.775280
  0
VERTEX
  8
gm1
 10
-0.184980
 20
1.765280
  0
SEQEND
  8
gm1
  0
POLYLINE
  8
gm1
 62
6
 40
0.000000
 41
0.000000
 66
  1
  0
VERTEX
  8
gm1
 10
-0.194980
 20
1.855260
  0
VERTEX
  8
gm1
 10
-0.194980
 20
1.815270
  0
VERTEX
  8
gm1
 10
-0.164990
 20
1.815270
  0
VERTEX
  8
gm1
 10
-0.174990
 20
1.835260
  0
VERTEX
  8
gm1
 10
-0.174990
 20
1.845260
  0
VERTEX
  8
gm1
 10
-0.164990
 20
1.855260
  0
VERTEX
  8
gm1
 10
-0.145000
 20
1.855260
  0
VERTEX
  8
gm1
 10
-0.135000
 20
1.845260
  0
VERTEX
  8
gm1
 10
-0.135000
 20
1.825270
  0
VERTEX
  8
gm1
 10
-0.145000
 20
1.815270
  0
SEQEND
  8
gm1
  0
POLYLINE
  8
gm1
 62
6
 40
0.000000
 41
0.000000
 66
  1
  0
VERTEX
  8
gm1
 10
-0.194980
 20
1.915240
  0
VERTEX
  8
gm1
 10
-0.194980
 20
1.875250
  0
VERTEX
  8
gm1
 10
-0.164990
 20
1.875250
  0
VERTEX
  8
gm1
 10
-0.174990
 20
1.895240
  0
VERTEX
  8
gm1
 10
-0.174990
 20
1.905240
  0
VERTEX
  8
gm1
 10
-0.164990
 20
1.915240
  0
VERTEX
  8
gm1
 10
-0.145000
 20
1.915240
  0
VERTEX
  8
gm1
 10
-0.135000
 20
1.905240
  0
VERTEX
  8
gm1
 10
-0.135000
 20
1.885240
  0
VERTEX
  8
gm1
 10
-0.145000
 20
1.875250
  0
SEQEND
  8
gm1
  0
POLYLINE
  8
gm1
 62
6
 40
0.000000
 41
0.000000
 66
  1
  0
VERTEX
  8
gm1
 10
-0.240000
 20
0.660280
  0
VERTEX
  8
gm1
 10
-0.240000
 20
0.680280
  0
VERTEX
  8
gm1
 10
-0.240000
 20
0.670280
  0
VERTEX
  8
gm1
 10
-0.299980
 20
0.670280
  0
VERTEX
  8
gm1
 10
-0.289980
 20
0.660280
  0
SEQEND
  8
gm1
  0
POLYLINE
  8
gm1
 62
6
 40
0.000000
 41
0.000000
 66
  1
  0
VERTEX
  8
gm1
 10
-0.299980
 20
0.710270
  0
VERTEX
  8
gm1
 10
-0.299980
 20
0.750250
  0
VERTEX
  8
gm1
 10
-0.289980
 20
0.750250
  0
VERTEX
  8
gm1
 10
-0.250000
 20
0.710270
  0
VERTEX
  8
gm1
 10
-0.240000
 20
0.710270
  0
SEQEND
  8
gm1
  0
POLYLINE
  8
gm1
 62
6
 40
0.000000
 41
0.000000
 66
  1
  0
VERTEX
  8
gm1
 10
-0.289980
 20
0.770250
  0
VERTEX
  8
gm1
 10
-0.299980
 20
0.780250
  0
VERTEX
  8
gm1
 10
-0.299980
 20
0.800240
  0
VERTEX
  8
gm1
 10
-0.289980
 20
0.810240
  0
VERTEX
  8
gm1
 10
-0.279990
 20
0.810240
  0
VERTEX
  8
gm1
 10
-0.269990
 20
0.800240
  0
VERTEX
  8
gm1
 10
-0.269990
 20
0.790240
  0
VERTEX
  8
gm1
 10
-0.269990
 20
0.800240
  0
VERTEX
  8
gm1
 10
-0.259990
 20
0.810240
  0
VERTEX
  8
gm1
 10
-0.250000
 20
0.810240
  0
VERTEX
  8
gm1
 10
-0.240000
 20
0.800240
  0
VERTEX
  8
gm1
 10
-0.240000
 20
0.780250
  0
VERTEX
  8
gm1
 10
-0.250000
 20
0.770250
  0
SEQEND
  8
gm1
  0
POLYLINE
  8
gm1
 62
6
 40
0.000000
 41
0.000000
 66
  1
  0
VERTEX
  8
gm1
 10
-0.289980
 20
0.830230
  0
VERTEX
  8
gm1
 10
-0.299980
 20
0.840230
  0
VERTEX
  8
gm1
 10
-0.299980
 20
0.860220
  0
VERTEX
  8
gm1
 10
-0.289980
 20
0.870220
  0
VERTEX
  8
gm1
 10
-0.250000
 20
0.870220
  0
VERTEX
  8
gm1
 10
-0.240000
 20
0.860220
  0
VERTEX
  8
gm1
 10
-0.240000
 20
0.840230
  0
VERTEX
  8
gm1
 10
-0.250000
 20
0.830230
  0
VERTEX
  8
gm1
 10
-0.289980
 20
0.830230
  0
SEQEND
  8
gm1
  0
POLYLINE
  8
gm1
 62
6
 40
0.000000
 41
0.000000
 66
  1
  0
VERTEX
  8
gm1
 10
-0.240000
 20
0.890210
  0
VERTEX
  8
gm1
 10
-0.279990
 20
0.890210
  0
VERTEX
  8
gm1
 10
-0.279990
 20
0.900210
  0
VERTEX
  8
gm1
 10
-0.269990
 20
0.910200
  0
VERTEX
  8
gm1
 10
-0.240000
 20
0.910200
  0
VERTEX
  8
gm1
 10
-0.269990
 20
0.910200
  0
VERTEX
  8
gm1
 10
-0.279990
 20
0.920200
  0
VERTEX
  8
gm1
 10
-0.269990
 20
0.930200
  0
VERTEX
  8
gm1
 10
-0.240000
 20
0.930200
  0
SEQEND
  8
gm1
  0
POLYLINE
  8
gm1
 62
6
 40
0.000000
 41
0.000000
 66
  1
  0
VERTEX
  8
gm1
 10
-0.240000
 20
0.950190
  0
VERTEX
  8
gm1
 10
-0.240000
 20
0.970180
  0
VERTEX
  8
gm1
 10
-0.240000
 20
0.960190
  0
VERTEX
  8
gm1
 10
-0.279990
 20
0.960190
  0
VERTEX
  8
gm1
 10
-0.279990
 20
0.950190
  0
SEQEND
  8
gm1
  0
POLYLINE
  8
gm1
 62
6
 40
0.000000
 41
0.000000
 66
  1
  0
VERTEX
  8
gm1
 10
-0.240000
 20
1.000170
  0
VERTEX
  8
gm1
 10
-0.240000
 20
1.020170
  0
VERTEX
  8
gm1
 10
-0.240000
 20
1.010170
  0
VERTEX
  8
gm1
 10
-0.299980
 20
1.010170
  0
VERTEX
  8
gm1
 10
-0.299980
 20
1.000170
  0
SEQEND
  8
gm1
  0
POLYLINE
  8
gm1
 62
6
 40
0.000000
 41
0.000000
 66
  1
  0
VERTEX
  8
gm1
 10
1.459060
 20
1.809280
  0
VERTEX
  8
gm1
 10
1.469060
 20
1.819270
  0
VERTEX
  8
gm1
 10
1.489050
 20
1.819270
  0
VERTEX
  8
gm1
 10
1.499050
 20
1.809280
  0
VERTEX
  8
gm1
 10
1.499050
 20
1.799280
  0
VERTEX
  8
gm1
 10
1.489050
 20
1.789280
  0
VERTEX
  8
gm1
 10
1.479050
 20
1.789280
  0
VERTEX
  8
gm1
 10
1.489050
 20
1.789280
  0
VERTEX
  8
gm1
 10
1.499050
 20
1.779290
  0
VERTEX
  8
gm1
 10
1.499050
 20
1.769290
  0
VERTEX
  8
gm1
 10
1.489050
 20
1.759290
  0
VERTEX
  8
gm1
 10
1.469060
 20
1.759290
  0
VERTEX
  8
gm1
 10
1.459060
 20
1.769290
  0
SEQEND
  8
gm1
  0
POLYLINE
  8
gm1
 62
6
 40
0.000000
 41
0.000000
 66
  1
  0
VERTEX
  8
gm1
 10
1.519040
 20
1.809280
  0
VERTEX
  8
gm1
 10
1.529040
 20
1.819270
  0
VERTEX
  8
gm1
 10
1.549030
 20
1.819270
  0
VERTEX
  8
gm1
 10
1.559030
 20
1.809280
  0
VERTEX
  8
gm1
 10
1.559030
 20
1.799280
  0
VERTEX
  8
gm1
 10
1.549030
 20
1.789280
  0
VERTEX
  8
gm1
 10
1.539030
 20
1.789280
  0
VERTEX
  8
gm1
 10
1.549030
 20
1.789280
  0
VERTEX
  8
gm1
 10
1.559030
 20
1.779290
  0
VERTEX
  8
gm1
 10
1.559030
 20
1.769290
  0
VERTEX
  8
gm1
 10
1.549030
 20
1.759290
  0
VERTEX
  8
gm1
 10
1.529040
 20
1.759290
  0
VERTEX
  8
gm1
 10
1.519040
 20
1.769290
  0
SEQEND
  8
gm1
  0
POLYLINE
  8
gm1
 62
6
 40
0.000000
 41
0.000000
 66
  1
  0
VERTEX
  8
gm1
 10
1.619010
 20
1.759290
  0
VERTEX
  8
gm1
 10
1.579020
 20
1.759290
  0
VERTEX
  8
gm1
 10
1.619010
 20
1.799280
  0
VERTEX
  8
gm1
 10
1.619010
 20
1.809280
  0
VERTEX
  8
gm1
 10
1.609010
 20
1.819270
  0
VERTEX
  8
gm1
 10
1.589020
 20
1.819270
  0
VERTEX
  8
gm1
 10
1.579020
 20
1.809280
  0
SEQEND
  8
gm1
  0
POLYLINE
  8
gm1
 62
6
 40
0.000000
 41
0.000000
 66
  1
  0
VERTEX
  8
gm1
 10
1.639000
 20
1.809280
  0
VERTEX
  8
gm1
 10
1.649000
 20
1.819270
  0
VERTEX
  8
gm1
 10
1.668990
 20
1.819270
  0
VERTEX
  8
gm1
 10
1.678990
 20
1.809280
  0
VERTEX
  8
gm1
 10
1.678990
 20
1.769290
  0
VERTEX
  8
gm1
 10
1.668990
 20
1.759290
  0
VERTEX
  8
gm1
 10
1.649000
 20
1.759290
  0
VERTEX
  8
gm1
 10
1.639000
 20
1.769290
  0
VERTEX
  8
gm1
 10
1.639000
 20
1.809280
  0
SEQEND
  8
gm1
  0
POLYLINE
  8
gm1
 62
6
 40
0.000000
 41
0.000000
 66
  1
  0
VERTEX
  8
gm1
 10
1.698980
 20
1.759290
  0
VERTEX
  8
gm1
 10
1.698980
 20
1.799280
  0
VERTEX
  8
gm1
 10
1.708980
 20
1.799280
  0
VERTEX
  8
gm1
 10
1.718980
 20
1.789280
  0
VERTEX
  8
gm1
 10
1.718980
 20
1.759290
  0
VERTEX
  8
gm1
 10
1.718980
 20
1.789280
  0
VERTEX
  8
gm1
 10
1.728970
 20
1.799280
  0
VERTEX
  8
gm1
 10
1.738970
 20
1.789280
  0
VERTEX
  8
gm1
 10
1.738970
 20
1.759290
  0
SEQEND
  8
gm1
  0
POLYLINE
  8
gm1
 62
6
 40
0.000000
 41
0.000000
 66
  1
  0
VERTEX
  8
gm1
 10
1.758960
 20
1.759290
  0
VERTEX
  8
gm1
 10
1.778960
 20
1.759290
  0
VERTEX
  8
gm1
 10
1.768960
 20
1.759290
  0
VERTEX
  8
gm1
 10
1.768960
 20
1.799280
  0
VERTEX
  8
gm1
 10
1.758960
 20
1.799280
  0
SEQEND
  8
gm1
  0
POLYLINE
  8
gm1
 62
6
 40
0.000000
 41
0.000000
 66
  1
  0
VERTEX
  8
gm1
 10
1.808950
 20
1.759290
  0
VERTEX
  8
gm1
 10
1.828940
 20
1.759290
  0
VERTEX
  8
gm1
 10
1.818940
 20
1.759290
  0
VERTEX
  8
gm1
 10
1.818940
 20
1.819270
  0
VERTEX
  8
gm1
 10
1.808950
 20
1.819270
  0
SEQEND
  8
gm1
  0
POLYLINE
  8
gm1
 62
6
 40
0.000000
 41
0.000000
 66
  1
  0
VERTEX
  8
gm1
 10
-0.064010
 20
0.675480
  0
VERTEX
  8
gm1
 10
-0.064010
 20
0.695480
  0
VERTEX
  8
gm1
 10
-0.064010
 20
0.685480
  0
VERTEX
  8
gm1
 10
-0.123990
 20
0.685480
  0
VERTEX
  8
gm1
 10
-0.113990
 20
0.675480
  0
SEQEND
  8
gm1
  0
POLYLINE
  8
gm1
 62
6
 40
0.000000
 41
0.000000
 66
  1
  0
VERTEX
  8
gm1
 10
-0.064010
 20
0.755460
  0
VERTEX
  8
gm1
 10
-0.123990
 20
0.755460
  0
VERTEX
  8
gm1
 10
-0.094000
 20
0.725470
  0
VERTEX
  8
gm1
 10
-0.094000
 20
0.765450
  0
SEQEND
  8
gm1
  0
POLYLINE
  8
gm1
 62
6
 40
0.000000
 41
0.000000
 66
  1
  0
VERTEX
  8
gm1
 10
-0.064010
 20
0.785450
  0
VERTEX
  8
gm1
 10
-0.064010
 20
0.805440
  0
VERTEX
  8
gm1
 10
-0.064010
 20
0.795440
  0
VERTEX
  8
gm1
 10
-0.123990
 20
0.795440
  0
VERTEX
  8
gm1
 10
-0.113990
 20
0.785450
  0
SEQEND
  8
gm1
  0
POLYLINE
  8
gm1
 62
6
 40
0.000000
 41
0.000000
 66
  1
  0
VERTEX
  8
gm1
 10
-0.113990
 20
0.835430
  0
VERTEX
  8
gm1
 10
-0.123990
 20
0.845430
  0
VERTEX
  8
gm1
 10
-0.123990
 20
0.865420
  0
VERTEX
  8
gm1
 10
-0.113990
 20
0.875420
  0
VERTEX
  8
gm1
 10
-0.104000
 20
0.875420
  0
VERTEX
  8
gm1
 10
-0.094000
 20
0.865420
  0
VERTEX
  8
gm1
 10
-0.084000
 20
0.875420
  0
VERTEX
  8
gm1
 10
-0.074010
 20
0.875420
  0
VERTEX
  8
gm1
 10
-0.064010
 20
0.865420
  0
VERTEX
  8
gm1
 10
-0.064010
 20
0.845430
  0
VERTEX
  8
gm1
 10
-0.074010
 20
0.835430
  0
VERTEX
  8
gm1
 10
-0.084000
 20
0.835430
  0
VERTEX
  8
gm1
 10
-0.094000
 20
0.845430
  0
VERTEX
  8
gm1
 10
-0.104000
 20
0.835430
  0
VERTEX
  8
gm1
 10
-0.113990
 20
0.835430
  0
SEQEND
  8
gm1
  0
POLYLINE
  8
gm1
 62
6
 40
0.000000
 41
0.000000
 66
  1
  0
VERTEX
  8
gm1
 10
-0.094000
 20
0.845430
  0
VERTEX
  8
gm1
 10
-0.094000
 20
0.865420
  0
SEQEND
  8
gm1
  0
POLYLINE
  8
gm1
 62
6
 40
0.000000
 41
0.000000
 66
  1
  0
VERTEX
  8
gm1
 10
-0.064010
 20
0.895410
  0
VERTEX
  8
gm1
 10
-0.104000
 20
0.895410
  0
VERTEX
  8
gm1
 10
-0.104000
 20
0.905410
  0
VERTEX
  8
gm1
 10
-0.094000
 20
0.915400
  0
VERTEX
  8
gm1
 10
-0.064010
 20
0.915400
  0
VERTEX
  8
gm1
 10
-0.094000
 20
0.915400
  0
VERTEX
  8
gm1
 10
-0.104000
 20
0.925400
  0
VERTEX
  8
gm1
 10
-0.094000
 20
0.935400
  0
VERTEX
  8
gm1
 10
-0.064010
 20
0.935400
  0
SEQEND
  8
gm1
  0
POLYLINE
  8
gm1
 62
6
 40
0.000000
 41
0.000000
 66
  1
  0
VERTEX
  8
gm1
 10
-0.064010
 20
0.955390
  0
VERTEX
  8
gm1
 10
-0.064010
 20
0.975390
  0
VERTEX
  8
gm1
 10
-0.064010
 20
0.965390
  0
VERTEX
  8
gm1
 10
-0.104000
 20
0.965390
  0
VERTEX
  8
gm1
 10
-0.104000
 20
0.955390
  0
SEQEND
  8
gm1
  0
POLYLINE
  8
gm1
 62
6
 40
0.000000
 41
0.000000
 66
  1
  0
VERTEX
  8
gm1
 10
-0.064010
 20
1.005380
  0
VERTEX
  8
gm1
 10
-0.064010
 20
1.025370
  0
VERTEX
  8
gm1
 10
-0.064010
 20
1.015370
  0
VERTEX
  8
gm1
 10
-0.123990
 20
1.015370
  0
VERTEX
  8
gm1
 10
-0.123990
 20
1.005380
  0
SEQEND
  8
gm1
  0
POLYLINE
  8
gm1
 62
6
 40
0.000000
 41
0.000000
 66
  1
  0
VERTEX
  8
gm1
 10
-0.135000
 20
1.765280
  0
VERTEX
  8
gm1
 10
-0.135000
 20
1.785280
  0
VERTEX
  8
gm1
 10
-0.135000
 20
1.775280
  0
VERTEX
  8
gm1
 10
-0.194980
 20
1.775280
  0
VERTEX
  8
gm1
 10
-0.184980
 20
1.765280
  0
SEQEND
  8
gm1
  0
POLYLINE
  8
gm1
 62
6
 40
0.000000
 41
0.000000
 66
  1
  0
VERTEX
  8
gm1
 10
-0.194980
 20
1.855260
  0
VERTEX
  8
gm1
 10
-0.194980
 20
1.815270
  0
VERTEX
  8
gm1
 10
-0.164990
 20
1.815270
  0
VERTEX
  8
gm1
 10
-0.174990
 20
1.835260
  0
VERTEX
  8
gm1
 10
-0.174990
 20
1.845260
  0
VERTEX
  8
gm1
 10
-0.164990
 20
1.855260
  0
VERTEX
  8
gm1
 10
-0.145000
 20
1.855260
  0
VERTEX
  8
gm1
 10
-0.135000
 20
1.845260
  0
VERTEX
  8
gm1
 10
-0.135000
 20
1.825270
  0
VERTEX
  8
gm1
 10
-0.145000
 20
1.815270
  0
SEQEND
  8
gm1
  0
POLYLINE
  8
gm1
 62
6
 40
0.000000
 41
0.000000
 66
  1
  0
VERTEX
  8
gm1
 10
-0.194980
 20
1.915240
  0
VERTEX
  8
gm1
 10
-0.194980
 20
1.875250
  0
VERTEX
  8
gm1
 10
-0.164990
 20
1.875250
  0
VERTEX
  8
gm1
 10
-0.174990
 20
1.895240
  0
VERTEX
  8
gm1
 10
-0.174990
 20
1.905240
  0
VERTEX
  8
gm1
 10
-0.164990
 20
1.915240
  0
VERTEX
  8
gm1
 10
-0.145000
 20
1.915240
  0
VERTEX
  8
gm1
 10
-0.135000
 20
1.905240
  0
VERTEX
  8
gm1
 10
-0.135000
 20
1.885240
  0
VERTEX
  8
gm1
 10
-0.145000
 20
1.875250
  0
SEQEND
  8
gm1
  0
POLYLINE
  8
gm1
 62
6
 40
0.000000
 41
0.000000
 66
  1
  0
VERTEX
  8
gm1
 10
-0.240000
 20
0.660280
  0
VERTEX
  8
gm1
 10
-0.240000
 20
0.680280
  0
VERTEX
  8
gm1
 10
-0.240000
 20
0.670280
  0
VERTEX
  8
gm1
 10
-0.299980
 20
0.670280
  0
VERTEX
  8
gm1
 10
-0.289980
 20
0.660280
  0
SEQEND
  8
gm1
  0
POLYLINE
  8
gm1
 62
6
 40
0.000000
 41
0.000000
 66
  1
  0
VERTEX
  8
gm1
 10
-0.299980
 20
0.710270
  0
VERTEX
  8
gm1
 10
-0.299980
 20
0.750250
  0
VERTEX
  8
gm1
 10
-0.289980
 20
0.750250
  0
VERTEX
  8
gm1
 10
-0.250000
 20
0.710270
  0
VERTEX
  8
gm1
 10
-0.240000
 20
0.710270
  0
SEQEND
  8
gm1
  0
POLYLINE
  8
gm1
 62
6
 40
0.000000
 41
0.000000
 66
  1
  0
VERTEX
  8
gm1
 10
-0.289980
 20
0.770250
  0
VERTEX
  8
gm1
 10
-0.299980
 20
0.780250
  0
VERTEX
  8
gm1
 10
-0.299980
 20
0.800240
  0
VERTEX
  8
gm1
 10
-0.289980
 20
0.810240
  0
VERTEX
  8
gm1
 10
-0.279990
 20
0.810240
  0
VERTEX
  8
gm1
 10
-0.269990
 20
0.800240
  0
VERTEX
  8
gm1
 10
-0.269990
 20
0.790240
  0
VERTEX
  8
gm1
 10
-0.269990
 20
0.800240
  0
VERTEX
  8
gm1
 10
-0.259990
 20
0.810240
  0
VERTEX
  8
gm1
 10
-0.250000
 20
0.810240
  0
VERTEX
  8
gm1
 10
-0.240000
 20
0.800240
  0
VERTEX
  8
gm1
 10
-0.240000
 20
0.780250
  0
VERTEX
  8
gm1
 10
-0.250000
 20
0.770250
  0
SEQEND
  8
gm1
  0
POLYLINE
  8
gm1
 62
6
 40
0.000000
 41
0.000000
 66
  1
  0
VERTEX
  8
gm1
 10
-0.289980
 20
0.830230
  0
VERTEX
  8
gm1
 10
-0.299980
 20
0.840230
  0
VERTEX
  8
gm1
 10
-0.299980
 20
0.860220
  0
VERTEX
  8
gm1
 10
-0.289980
 20
0.870220
  0
VERTEX
  8
gm1
 10
-0.250000
 20
0.870220
  0
VERTEX
  8
gm1
 10
-0.240000
 20
0.860220
  0
VERTEX
  8
gm1
 10
-0.240000
 20
0.840230
  0
VERTEX
  8
gm1
 10
-0.250000
 20
0.830230
  0
VERTEX
  8
gm1
 10
-0.289980
 20
0.830230
  0
SEQEND
  8
gm1
  0
POLYLINE
  8
gm1
 62
6
 40
0.000000
 41
0.000000
 66
  1
  0
VERTEX
  8
gm1
 10
-0.240000
 20
0.890210
  0
VERTEX
  8
gm1
 10
-0.279990
 20
0.890210
  0
VERTEX
  8
gm1
 10
-0.279990
 20
0.900210
  0
VERTEX
  8
gm1
 10
-0.269990
 20
0.910200
  0
VERTEX
  8
gm1
 10
-0.240000
 20
0.910200
  0
VERTEX
  8
gm1
 10
-0.269990
 20
0.910200
  0
VERTEX
  8
gm1
 10
-0.279990
 20
0.920200
  0
VERTEX
  8
gm1
 10
-0.269990
 20
0.930200
  0
VERTEX
  8
gm1
 10
-0.240000
 20
0.930200
  0
SEQEND
  8
gm1
  0
POLYLINE
  8
gm1
 62
6
 40
0.000000
 41
0.000000
 66
  1
  0
VERTEX
  8
gm1
 10
-0.240000
 20
0.950190
  0
VERTEX
  8
gm1
 10
-0.240000
 20
0.970180
  0
VERTEX
  8
gm1
 10
-0.240000
 20
0.960190
  0
VERTEX
  8
gm1
 10
-0.279990
 20
0.960190
  0
VERTEX
  8
gm1
 10
-0.279990
 20
0.950190
  0
SEQEND
  8
gm1
  0
POLYLINE
  8
gm1
 62
6
 40
0.000000
 41
0.000000
 66
  1
  0
VERTEX
  8
gm1
 10
-0.240000
 20
1.000170
  0
VERTEX
  8
gm1
 10
-0.240000
 20
1.020170
  0
VERTEX
  8
gm1
 10
-0.240000
 20
1.010170
  0
VERTEX
  8
gm1
 10
-0.299980
 20
1.010170
  0
VERTEX
  8
gm1
 10
-0.299980
 20
1.000170
  0
SEQEND
  8
gm1
  0
ENDSEC
  0
EOF
